<svg xmlns="http://www.w3.org/2000/svg" width="25" height="24" fill="none" viewBox="0 0 25 24">
  <g clip-path="url(#a)">
    <path fill="#6C6F80" d="M19.5 17v2h-12v-2s0-4 6-4 6 4 6 4Zm-3-9a3 3 0 1 0-6 0 3 3 0 0 0 6 0Zm3.2 5.06A5.6 5.6 0 0 1 21.5 17v2h3v-2s0-3.45-4.8-3.94ZM18.5 5a2.91 2.91 0 0 0-.89.14 5 5 0 0 1 0 5.72c.288.093.588.14.89.14a3 3 0 0 0 0-6Zm-10 5h-3V7h-2v3h-3v2h3v3h2v-3h3v-2Z"/>
  </g>
  <defs>
    <clipPath id="a">
      <path fill="#fff" d="M.5 0h24v24H.5z"/>
    </clipPath>
  </defs>
</svg>
