<svg xmlns="http://www.w3.org/2000/svg" width="25" height="24" fill="none" viewBox="0 0 25 24">
  <path fill="#6C6F80" d="M5.5 21a1.93 1.93 0 0 1-1.413-.587A1.928 1.928 0 0 1 3.5 19v-4h2v4h4v2h-4Zm10 0v-2h4v-4h2v4a1.93 1.93 0 0 1-.587 1.413A1.928 1.928 0 0 1 19.5 21h-4Zm-3-6a2.893 2.893 0 0 1-2.125-.875A2.893 2.893 0 0 1 9.5 12c0-.833.292-1.542.875-2.125A2.893 2.893 0 0 1 12.5 9c.833 0 1.542.292 2.125.875S15.5 11.167 15.5 12s-.292 1.542-.875 2.125A2.893 2.893 0 0 1 12.5 15Zm-9-6V5c0-.55.196-1.021.587-1.413A1.928 1.928 0 0 1 5.5 3h4v2h-4v4h-2Zm16 0V5h-4V3h4c.55 0 1.021.196 1.413.587.391.392.587.863.587 1.413v4h-2Z"/>
</svg>
