<svg width="24" height="24" viewBox="0 0 24 24" fill="none" xmlns="http://www.w3.org/2000/svg">
<path d="M9 4V6H6V9H4V6C4 4.89543 4.89543 4 6 4H9Z" fill="#6C6F80"/>
<path d="M18 4C19.1046 4 20 4.89543 20 6V9H18V6H15V4H18Z" fill="#6C6F80"/>
<path d="M20 18V15H18V18H15V20H18C19.1046 20 20 19.1046 20 18Z" fill="#6C6F80"/>
<path d="M9 18V20H6C4.89543 20 4 19.1046 4 18V15H6V18H9Z" fill="#6C6F80"/>
<path d="M12 15C13.6569 15 15 13.6569 15 12C15 10.3431 13.6569 9 12 9C10.3431 9 9 10.3431 9 12C9 13.6569 10.3431 15 12 15Z" fill="#6C6F80"/>
</svg>
