<svg width="24" height="24" viewBox="0 0 24 24" fill="none" xmlns="http://www.w3.org/2000/svg">
<path fill-rule="evenodd" clip-rule="evenodd" d="M16.2646 18.7698C16.0909 18.8794 15.9127 18.9826 15.7303 19.0789L15.1894 21.2425C15.0781 21.6877 14.6781 22 14.2192 22H9.78078C9.32191 22 8.92192 21.6877 8.81063 21.2425L8.26972 19.0789C8.08732 18.9826 7.90908 18.8794 7.73536 18.7698L5.59041 19.3833C5.14924 19.5095 4.67879 19.3193 4.44936 18.9219L2.23013 15.0781C2.0007 14.6807 2.07116 14.1782 2.40104 13.8592L4.0058 12.3075C4.00194 12.2055 4 12.103 4 12C4 11.897 4.00194 11.7945 4.0058 11.6925L2.40104 10.1408C2.07116 9.82184 2.0007 9.3193 2.23013 8.9219L4.44936 5.0781C4.67879 4.6807 5.14924 4.49046 5.59041 4.61666L7.73536 5.23025C7.90908 5.12058 8.08732 5.01742 8.26972 4.9211L8.81063 2.75746C8.92192 2.3123 9.32191 2 9.78078 2H14.2192C14.6781 2 15.0781 2.3123 15.1894 2.75746L15.7303 4.9211C15.9127 5.01742 16.0909 5.12058 16.2646 5.23025L18.4096 4.61666C18.8508 4.49046 19.3212 4.6807 19.5506 5.0781L21.7699 8.9219C21.9993 9.3193 21.9288 9.82184 21.599 10.1408L19.9942 11.6925C19.9981 11.7945 20 11.897 20 12C20 12.103 19.9981 12.2055 19.9942 12.3075L21.599 13.8592C21.9288 14.1782 21.9993 14.6807 21.7699 15.0781L19.5506 18.9219C19.3212 19.3193 18.8508 19.5095 18.4096 19.3833L16.2646 18.7698ZM12 16C14.2091 16 16 14.2091 16 12C16 9.79086 14.2091 8 12 8C9.79086 8 8 9.79086 8 12C8 14.2091 9.79086 16 12 16Z" fill="#6C6F80"/>
</svg>
