<?xml version="1.0" encoding="UTF-8"?>
<svg width="24px" height="24px" viewBox="0 0 24 24" version="1.1" xmlns="http://www.w3.org/2000/svg" xmlns:xlink="http://www.w3.org/1999/xlink">
    <title>Icons/24/action-currency</title>
    <g id="Icons/24/action-currency" stroke="none" stroke-width="1" fill="none" fill-rule="evenodd">
        <path d="M7,15 L9,15 C9,16.08 10.37,17 12,17 C13.63,17 15,16.08 15,15 C15,13.9 13.96,13.5 11.76,12.97 C9.64,12.44 7,11.78 7,9 C7,7.21 8.47,5.69 10.5,5.18 L10.5,3 L13.5,3 L13.5,5.18 C15.53,5.69 17,7.21 17,9 L15,9 C15,7.92 13.63,7 12,7 C10.37,7 9,7.92 9,9 C9,10.1 10.04,10.5 12.24,11.03 C14.36,11.56 17,12.22 17,15 C17,16.79 15.53,18.31 13.5,18.82 L13.5,21 L10.5,21 L10.5,18.82 C8.47,18.31 7,16.79 7,15 Z" id="icon" fill="#45FF00"></path>
    </g>
</svg>