<svg xmlns="http://www.w3.org/2000/svg" width="25" height="24" fill="none" viewBox="0 0 25 24">
  <path fill="#6C6F80" fill-rule="evenodd" d="M16.5 6h4c.55 0 1.021.196 1.413.588.391.391.587.862.587 1.412v11a1.93 1.93 0 0 1-.587 1.413A1.928 1.928 0 0 1 20.5 21h-16c-.55 0-1.02-.196-1.412-.587A1.927 1.927 0 0 1 2.5 19V8c0-.55.196-1.02.588-1.412A1.923 1.923 0 0 1 4.5 6h4V4c0-.55.196-1.021.588-1.413A1.925 1.925 0 0 1 10.5 2h4c.55 0 1.021.196 1.413.587.391.392.587.863.587 1.413v2Zm-6-2v2h4V4h-4ZM4.501 8.003l.002-.002L4.504 8h15.993l.002.002.001.001v10.994l-.001.002-.002.001H4.503v-.001l-.003-.002V8.004h.001Z" clip-rule="evenodd"/>
</svg>
