<?xml version="1.0" encoding="UTF-8"?>
<svg width="24px" height="24px" viewBox="0 0 24 24" version="1.1" xmlns="http://www.w3.org/2000/svg" xmlns:xlink="http://www.w3.org/1999/xlink">
    <title>Icons/24/action-settings</title>
    <g id="Icons/24/action-settings" stroke="none" stroke-width="1" fill="none" fill-rule="evenodd">
        <path d="M16.2646335,18.7697523 C16.0909148,18.8794172 15.9126814,18.9825801 15.7302752,19.0788993 L15.1893661,21.2425356 C15.0780743,21.6877026 14.6780912,22 14.2192236,22 L9.78077641,22 C9.32190876,22 8.92192566,21.6877026 8.81063391,21.2425356 L8.26972484,19.0788993 C8.0873186,18.9825801 7.90908522,18.8794172 7.73536649,18.7697523 L5.5904124,19.3833399 C5.14924059,19.5095419 4.67879158,19.319295 4.44935776,18.921904 L2.23013417,15.078096 C2.00070034,14.680705 2.07116625,14.1781607 2.40104631,13.8591958 L4.0058024,12.3075378 C4.00194572,12.2055028 4,12.1029786 4,12 C4,11.8970214 4.00194572,11.7944972 4.0058024,11.6924622 L2.40104631,10.1408042 C2.07116625,9.82183926 2.00070034,9.31929504 2.23013417,8.92190401 L4.44935776,5.07809599 C4.67879158,4.68070496 5.14924059,4.49045811 5.5904124,4.61666013 L7.73536649,5.23024769 C7.90908522,5.12058283 8.0873186,5.01741989 8.26972484,4.92110066 L8.81063391,2.75746437 C8.92192566,2.31229737 9.32190876,2 9.78077641,2 L14.2192236,2 C14.6780912,2 15.0780743,2.31229737 15.1893661,2.75746437 L15.7302752,4.92110066 C15.9126814,5.01741989 16.0909148,5.12058283 16.2646335,5.23024769 L18.4095876,4.61666013 C18.8507594,4.49045811 19.3212084,4.68070496 19.5506422,5.07809599 L21.7698658,8.92190401 C21.9992997,9.31929504 21.9288338,9.82183926 21.5989537,10.1408042 L19.9941976,11.6924622 C19.9980543,11.7944972 20,11.8970214 20,12 C20,12.1029786 19.9980543,12.2055028 19.9941976,12.3075378 L21.5989537,13.8591958 C21.9288338,14.1781607 21.9992997,14.680705 21.7698658,15.078096 L19.5506422,18.921904 C19.3212084,19.319295 18.8507594,19.5095419 18.4095876,19.3833399 L16.2646335,18.7697523 L16.2646335,18.7697523 Z M12,16 C14.209139,16 16,14.209139 16,12 C16,9.790861 14.209139,8 12,8 C9.790861,8 8,9.790861 8,12 C8,14.209139 9.790861,16 12,16 Z" id="icon" fill="#45FF00"></path>
    </g>
</svg>