<svg xmlns="http://www.w3.org/2000/svg" width="25" height="24" fill="none" viewBox="0 0 25 24">
  <path fill="#6C6F80" d="M9.5 20c-.55 0-1.02-.196-1.412-.587A1.927 1.927 0 0 1 7.5 18c0-.55.196-1.021.588-1.413A1.925 1.925 0 0 1 9.5 16c.55 0 1.021.196 1.413.587.391.392.587.863.587 1.413s-.196 1.021-.587 1.413A1.928 1.928 0 0 1 9.5 20Zm6 0c-.55 0-1.02-.196-1.412-.587A1.927 1.927 0 0 1 13.5 18c0-.55.196-1.021.588-1.413A1.925 1.925 0 0 1 15.5 16c.55 0 1.021.196 1.413.587.391.392.587.863.587 1.413s-.196 1.021-.587 1.413A1.928 1.928 0 0 1 15.5 20Zm-6-6c-.55 0-1.02-.196-1.412-.588A1.923 1.923 0 0 1 7.5 12c0-.55.196-1.021.588-1.413A1.925 1.925 0 0 1 9.5 10c.55 0 1.021.196 1.413.587.391.392.587.863.587 1.413s-.196 1.02-.587 1.412A1.927 1.927 0 0 1 9.5 14Zm6 0c-.55 0-1.02-.196-1.412-.588A1.923 1.923 0 0 1 13.5 12c0-.55.196-1.021.588-1.413A1.925 1.925 0 0 1 15.5 10c.55 0 1.021.196 1.413.587.391.392.587.863.587 1.413s-.196 1.02-.587 1.412A1.927 1.927 0 0 1 15.5 14Zm-6-6c-.55 0-1.02-.196-1.412-.588A1.923 1.923 0 0 1 7.5 6c0-.55.196-1.02.588-1.412A1.923 1.923 0 0 1 9.5 4c.55 0 1.021.196 1.413.588.391.391.587.862.587 1.412 0 .55-.196 1.02-.587 1.412A1.927 1.927 0 0 1 9.5 8Zm6 0c-.55 0-1.02-.196-1.412-.588A1.923 1.923 0 0 1 13.5 6c0-.55.196-1.02.588-1.412A1.923 1.923 0 0 1 15.5 4c.55 0 1.021.196 1.413.588.391.391.587.862.587 1.412 0 .55-.196 1.02-.587 1.412A1.927 1.927 0 0 1 15.5 8Z"/>
</svg>
