<svg width="24" height="24" viewBox="0 0 24 24" fill="none" xmlns="http://www.w3.org/2000/svg">
<path fill-rule="evenodd" clip-rule="evenodd" d="M5.1914 6.60336L1.95928 3.37124L3.3735 1.95703L22.0402 20.6237L20.6259 22.0379L17.1019 18.5138C15.5536 19.3925 13.8243 19.9987 12 19.9987C5.37258 19.9987 0 11.9987 0 11.9987C0 11.9987 2.05522 8.93839 5.1914 6.60336ZM8.55417 9.96613C8.20206 10.5618 8 11.2566 8 11.9987C8 14.2078 9.79086 15.9987 12 15.9987C12.7421 15.9987 13.4369 15.7966 14.0326 15.4445L12.5188 13.9308C12.3533 13.9751 12.1794 13.9987 12 13.9987C10.8954 13.9987 10 13.1033 10 11.9987C10 11.8193 10.0236 11.6454 10.0679 11.4799L8.55417 9.96613Z" fill="#6C6F80"/>
<path d="M12.082 7.99952L8.71054 4.62806C9.75586 4.23568 10.8593 3.9987 12 3.9987C18.6274 3.9987 24 11.9987 24 11.9987C24 11.9987 22.5693 14.1291 20.2737 16.1912L15.9992 11.9167C15.9561 9.77268 14.226 8.04263 12.082 7.99952Z" fill="#6C6F80"/>
</svg>
