<svg width="24" height="24" viewBox="0 0 24 24" fill="none" xmlns="http://www.w3.org/2000/svg">
<path fill-rule="evenodd" clip-rule="evenodd" d="M13 9V7C13 4.23858 15.2386 2 18 2C20.7614 2 23 4.23858 23 7V9H21V7C21 5.34315 19.6569 4 18 4C16.3431 4 15 5.34315 15 7V9H16C17.1046 9 18 9.89543 18 11V21C18 22.1046 17.1046 23 16 23H4C2.89543 23 2 22.1046 2 21V11C2 9.89543 2.89543 9 4 9H13ZM10 18C11.1046 18 12 17.1046 12 16C12 14.8954 11.1046 14 10 14C8.89543 14 8 14.8954 8 16C8 17.1046 8.89543 18 10 18Z" fill="#6C6F80"/>
</svg>
