<?xml version="1.0" encoding="UTF-8"?>
<svg width="24px" height="24px" viewBox="0 0 24 24" version="1.1" xmlns="http://www.w3.org/2000/svg" xmlns:xlink="http://www.w3.org/1999/xlink">
    <title>Icons/24/action-drag_corner</title>
    <g id="Icons/24/action-drag_corner" stroke="none" stroke-width="1" fill="none" fill-rule="evenodd">
        <path d="M22,22 L18,22 L18,18 L22,18 L22,22 L22,22 Z M22,14 L18,14 L18,10 L22,10 L22,14 L22,14 Z M14,22 L10,22 L10,18 L14,18 L14,22 L14,22 Z M14,14 L10,14 L10,10 L14,10 L14,14 L14,14 Z M6,22 L2,22 L2,18 L6,18 L6,22 L6,22 Z M22,6 L18,6 L18,2 L22,2 L22,6 Z" id="icon" fill="#45FF00"></path>
    </g>
</svg>