<?xml version="1.0" encoding="UTF-8"?>
<svg width="24px" height="24px" viewBox="0 0 24 24" version="1.1" xmlns="http://www.w3.org/2000/svg" xmlns:xlink="http://www.w3.org/1999/xlink">
    <title>Icons/24/action-currency_off</title>
    <g id="Icons/24/action-currency_off" stroke="none" stroke-width="1" fill="none" fill-rule="evenodd">
        <path d="M3,4.27 L4.28,3 L21,19.72 L19.73,21 L16.06,17.33 C15.44,18 14.54,18.55 13.5,18.82 L13.5,21 L10.5,21 L10.5,18.82 C8.47,18.31 7,16.79 7,15 L9,15 C9,16.08 10.37,17 12,17 C13.13,17 14.14,16.56 14.65,15.92 L11.68,12.95 C9.58,12.42 7,11.75 7,9 C7,8.77 7,8.55 7.07,8.34 L3,4.27 L3,4.27 Z M10.5,5.18 L10.5,3 L13.5,3 L13.5,5.18 C15.53,5.69 17,7.21 17,9 L15,9 C15,7.92 13.63,7 12,7 C11.63,7 11.28,7.05 10.95,7.13 L9.4,5.58 L10.5,5.18 Z" id="icon" fill="#45FF00"></path>
    </g>
</svg>