<svg width="24" height="24" viewBox="0 0 24 24" fill="none" xmlns="http://www.w3.org/2000/svg">
<path fill-rule="evenodd" clip-rule="evenodd" d="M12 18C13.1046 18 14 17.1046 14 16C14 14.89 13.1 14 12 14C10.8954 14 10 14.8954 10 16C10 17.1046 10.8954 18 12 18ZM7 9V7C7 4.23858 9.23858 2 12 2C14.7614 2 17 4.23858 17 7V9H18C19.1046 9 20 9.89543 20 11V21C20 22.1046 19.1046 23 18 23H6C4.89543 23 4 22.1046 4 21V11C4 9.89 4.9 9 6 9H7ZM9 9H15V7C15 5.34315 13.6569 4 12 4C10.3431 4 9 5.34315 9 7V9Z" fill="#6C6F80"/>
</svg>
