<svg xmlns="http://www.w3.org/2000/svg" width="25" height="24" fill="none" viewBox="0 0 25 24">
  <path fill="#6C6F80" d="M12.5 15a3 3 0 1 0 0-6 3 3 0 0 0 0 6Z"/>
  <path fill="#6C6F80" fill-rule="evenodd" d="M23.5 12s-4.373 8-11 8-11-8-11-8 4.373-8 11-8 11 8 11 8Zm-2.437.12.082-.12-.082-.12a19.777 19.777 0 0 0-2.02-2.494C17.257 7.527 15 6 12.5 6c-2.499 0-4.757 1.527-6.543 3.386A19.765 19.765 0 0 0 3.855 12l.082.12c.47.686 1.155 1.594 2.02 2.494C7.743 16.473 10 18 12.5 18c2.499 0 4.757-1.527 6.543-3.386a19.85 19.85 0 0 0 2.02-2.494Z" clip-rule="evenodd"/>
</svg>
