<svg xmlns="http://www.w3.org/2000/svg" width="25" height="24" fill="none" viewBox="0 0 25 24">
  <path fill="#6C6F80" d="m15.8 16.7 1.4-1.4-3.7-3.7V7h-2v5.4l4.3 4.3ZM12.5 22a9.733 9.733 0 0 1-3.9-.788 10.092 10.092 0 0 1-3.175-2.137c-.9-.9-1.612-1.958-2.137-3.175A9.733 9.733 0 0 1 2.5 12a9.74 9.74 0 0 1 .788-3.9 10.092 10.092 0 0 1 2.137-3.175c.9-.9 1.958-1.613 3.175-2.138A9.743 9.743 0 0 1 12.5 2a9.74 9.74 0 0 1 3.9.787 10.105 10.105 0 0 1 3.175 2.138c.9.9 1.612 1.958 2.137 3.175A9.733 9.733 0 0 1 22.5 12a9.733 9.733 0 0 1-.788 3.9 10.092 10.092 0 0 1-2.137 3.175c-.9.9-1.958 1.612-3.175 2.137a9.733 9.733 0 0 1-3.9.788Zm0-2c2.217 0 4.104-.779 5.663-2.337C19.721 16.104 20.5 14.217 20.5 12s-.779-4.104-2.337-5.663C16.604 4.779 14.717 4 12.5 4s-4.104.779-5.662 2.337C5.279 7.896 4.5 9.783 4.5 12s.78 4.104 2.338 5.663C8.396 19.221 10.283 20 12.5 20Z"/>
</svg>
