<svg width="24" height="24" viewBox="0 0 24 24" fill="none" xmlns="http://www.w3.org/2000/svg">
<path d="M20.84 22.73L18.11 20H2.99999V19L4.99999 17V11C4.99999 9.85998 5.28999 8.72998 5.82999 7.71998L1.10999 2.99998L2.38999 1.72998L22.11 21.46L20.84 22.73ZM19 15.8V11C19 7.89998 16.97 5.16998 14 4.28998C14 4.18998 14 4.09998 14 3.99998C14 3.46955 13.7893 2.96084 13.4142 2.58577C13.0391 2.21069 12.5304 1.99998 12 1.99998C11.4696 1.99998 10.9608 2.21069 10.5858 2.58577C10.2107 2.96084 9.99999 3.46955 9.99999 3.99998C9.99999 4.09998 9.99999 4.18998 9.99999 4.28998C9.38999 4.46998 8.79999 4.73998 8.25999 5.08998L19 15.8ZM12 23C12.5304 23 13.0391 22.7893 13.4142 22.4142C13.7893 22.0391 14 21.5304 14 21H9.99999C9.99999 21.5304 10.2107 22.0391 10.5858 22.4142C10.9608 22.7893 11.4696 23 12 23Z" fill="#6C6F80"/>
</svg>
