<svg width="24" height="24" viewBox="0 0 24 24" fill="none" xmlns="http://www.w3.org/2000/svg">
<path d="M22.11 21.46L2.38999 1.72998L1.10999 2.99998L5.82999 7.71998C5.28999 8.72998 4.99999 9.85998 4.99999 11V17L2.99999 19V20H18.11L20.84 22.73L22.11 21.46ZM6.99999 18V11C6.99999 10.39 7.10999 9.78998 7.33999 9.22998L16.11 18H6.99999ZM9.99999 21H14C14 21.5304 13.7893 22.0391 13.4142 22.4142C13.0391 22.7893 12.5304 23 12 23C11.4696 23 10.9608 22.7893 10.5858 22.4142C10.2107 22.0391 9.99999 21.5304 9.99999 21ZM8.28999 5.08998C8.81999 4.74998 9.39999 4.49998 9.99999 4.28998C9.99999 4.18998 9.99999 4.09998 9.99999 3.99998C9.99999 3.46955 10.2107 2.96084 10.5858 2.58577C10.9608 2.21069 11.4696 1.99998 12 1.99998C12.5304 1.99998 13.0391 2.21069 13.4142 2.58577C13.7893 2.96084 14 3.46955 14 3.99998C14 4.09998 14 4.18998 14 4.28998C16.97 5.16998 19 7.89998 19 11V15.8L17 13.8V11C17 9.6739 16.4732 8.40213 15.5355 7.46445C14.5978 6.52676 13.3261 5.99998 12 5.99998C11.22 5.99998 10.45 6.19998 9.75999 6.55998L8.28999 5.08998Z" fill="#6C6F80"/>
</svg>
