<?xml version="1.0" encoding="UTF-8"?>
<svg width="24px" height="24px" viewBox="0 0 24 24" version="1.1" xmlns="http://www.w3.org/2000/svg" xmlns:xlink="http://www.w3.org/1999/xlink">
    <title>Icons/24/communication-skype_business</title>
    <g id="Icons/24/communication-skype_business" stroke="none" stroke-width="1" fill="none" fill-rule="evenodd">
        <path d="M12.03,16.53 C9.37,16.53 8.18,15.22 8.18,14.24 C8.18,13.74 8.55,13.38 9.06,13.38 C10.2,13.38 9.91,15 12.03,15 C13.12,15 13.73,14.43 13.73,13.82 C13.73,13.46 13.55,13.06 12.83,12.88 L10.46,12.29 C8.55,11.81 8.2,10.78 8.2,9.81 C8.2,7.79 10.1,7.03 11.88,7.03 C13.5,7.03 15.46,7.94 15.46,9.15 C15.46,9.67 15,9.97 14.5,9.97 C13.5,9.97 13.7,8.62 11.74,8.62 C10.77,8.62 10.23,9.06 10.23,9.69 C10.23,10.32 11,10.5 11.66,10.68 L13.42,11.07 C15.34,11.5 15.83,12.62 15.83,13.67 C15.83,15.31 14.57,16.53 12.03,16.53 L12.03,16.53 Z M18,6 C20.07,8.04 20.85,10.89 20.36,13.55 C20.77,14.27 21,15.11 21,16 C21,18.7614237 18.7614237,21 16,21 C15.11,21 14.27,20.77 13.55,20.36 C10.89,20.85 8.04,20.07 6,18 C3.93,15.96 3.15,13.11 3.64,10.45 C3.23,9.73 3,8.89 3,8 C3,5.23857625 5.23857625,3 8,3 C8.89,3 9.73,3.23 10.45,3.64 C13.11,3.15 15.96,3.93 18,6 L18,6 Z M8,5 C6.34314575,5 5,6.34314575 5,8 C5,8.79 5.3,9.5 5.8,10.04 C5.1,12.28 5.63,14.82 7.4,16.6 C9.18,18.37 11.72,18.9 13.96,18.2 C14.5,18.7 15.21,19 16,19 C17.6568542,19 19,17.6568542 19,16 C19,15.21 18.7,14.5 18.2,13.96 C18.9,11.72 18.37,9.18 16.6,7.4 C14.82,5.63 12.28,5.1 10.04,5.8 C9.5,5.3 8.79,5 8,5 Z" id="icon" fill="#45FF00"></path>
    </g>
</svg>