<?xml version="1.0" encoding="UTF-8"?>
<svg width="24px" height="24px" viewBox="0 0 24 24" version="1.1" xmlns="http://www.w3.org/2000/svg" xmlns:xlink="http://www.w3.org/1999/xlink">
    <title>Icons/24/communication-skype</title>
    <g id="Icons/24/communication-skype" stroke="none" stroke-width="1" fill="none" fill-rule="evenodd">
        <path d="M18,6 C20.07,8.04 20.85,10.89 20.36,13.55 C20.77,14.27 21,15.11 21,16 C21,18.7614237 18.7614237,21 16,21 C15.11,21 14.27,20.77 13.55,20.36 C10.89,20.85 8.04,20.07 6,18 C3.93,15.96 3.15,13.11 3.64,10.45 C3.23,9.73 3,8.89 3,8 C3,5.23857625 5.23857625,3 8,3 C8.89,3 9.73,3.23 10.45,3.64 C13.11,3.15 15.96,3.93 18,6 L18,6 Z M12.04,17.16 C14.91,17.16 16.34,15.78 16.34,13.92 C16.34,12.73 15.78,11.46 13.61,10.97 L11.62,10.53 C10.86,10.36 10,10.13 10,9.42 C10,8.7 10.6,8.2 11.7,8.2 C13.93,8.2 13.72,9.73 14.83,9.73 C15.41,9.73 15.91,9.39 15.91,8.8 C15.91,7.43 13.72,6.4 11.86,6.4 C9.85,6.4 7.7,7.26 7.7,9.54 C7.7,10.64 8.09,11.81 10.25,12.35 L12.94,13.03 C13.75,13.23 13.95,13.68 13.95,14.1 C13.95,14.78 13.27,15.45 12.04,15.45 C9.63,15.45 9.96,13.6 8.67,13.6 C8.09,13.6 7.67,14 7.67,14.57 C7.67,15.68 9,17.16 12.04,17.16 Z" id="icon" fill="#45FF00"></path>
    </g>
</svg>