<svg width="24" height="24" viewBox="0 0 24 24" fill="none" xmlns="http://www.w3.org/2000/svg">
<path fill-rule="evenodd" clip-rule="evenodd" d="M11.5118 18.9764V22C11.0236 21.9528 10.5827 21.9055 10.1417 21.811L11.5118 18.9764ZM12.4882 19.0236L13.8583 21.811C13.4173 21.9055 12.9291 21.9528 12.4882 21.9528V19.0236ZM11.9843 2.03135C17.5433 2.03135 21.9843 6.51971 21.9843 12.0315C21.9843 16.5669 18.9606 20.3622 14.8661 21.6851L12.8189 17.3858C13.0236 17.1811 13.1654 16.8977 13.1654 16.5984C13.1654 15.9685 12.6772 15.4803 12.0945 15.4803C11.9528 15.4803 11.7953 15.5276 11.6535 15.5748L14.9291 13.6693L15.3228 14.2992C15.4646 14.5355 15.7638 14.6299 16 14.4882L16.8819 14C17.1181 13.8583 17.2126 13.5591 17.0709 13.3229L14.1417 8.29923C14 8.06301 13.7008 7.96852 13.4646 8.11026L12.5354 8.59845C12.2992 8.69293 12.2047 8.99215 12.3465 9.22837L12.3937 9.27561L13.3386 11.0236C13.4961 11.2599 13.3858 11.5591 13.1496 11.7008C13.0551 11.7481 13.0079 11.7481 12.9134 11.7481C12.7087 11.7481 12.5669 11.6536 12.4724 11.5118L11.8898 10.3937L6.37795 13.5591C6.14173 13.7008 6.04724 14 6.18898 14.2362L6.53543 14.8189L3.2126 16.7244C2.44094 15.3701 2 13.7008 2 12C2 6.48821 6.48819 2.00002 11.9843 2.03135ZM11.3228 15.5591C11.0709 15.7638 10.8819 16.0945 10.8819 16.441C10.8819 16.7874 11.0236 17.0709 11.1811 17.3229L9.13386 21.6693C7.1811 21.0709 5.52756 19.9528 4.25197 18.3937L7.46457 16.5355L7.76378 17.0236C7.90551 17.2599 8.20472 17.3544 8.44094 17.2126L11.3228 15.5591ZM2.29921 16.9292C2.53543 16.7717 2.83465 16.8347 2.97638 17.0709L3.81102 18.3937C3.9685 18.6299 3.90551 18.9292 3.66929 19.0709C3.62205 19.1181 3.52756 19.1181 3.43307 19.1181C3.22835 19.1181 3.08661 19.0236 2.99213 18.8819L2.15748 17.5591C2 17.3229 2.11024 17.0236 2.29921 16.9292ZM18.4094 7.38585C18.2205 7.38585 17.874 8.31498 17.685 8.40947C17.4803 8.50396 16.5039 8.17325 16.4094 8.36223C16.252 8.66144 17.0866 9.14963 17.0866 9.38585C17.0866 9.62207 16.5039 10.4095 16.6929 10.5512C16.9291 10.7402 17.6693 10.1575 17.9055 10.2047C18.2047 10.2047 18.6929 10.9764 18.8819 10.9292C19.0709 10.8347 18.7874 9.85829 18.9449 9.66931C19.0394 9.52758 19.9685 9.18112 19.9213 8.99215C19.874 8.78742 18.8504 8.69293 18.7559 8.59845C18.5984 8.50396 18.5984 7.43309 18.4094 7.38585ZM11.4646 3.71656C9.55906 3.71656 7.90551 4.40947 6.53543 5.57482L6.48819 5.62207V5.66931C6.48819 5.7638 6.53543 5.81104 6.53543 5.81104C6.58268 5.81104 6.62992 5.7638 6.62992 5.7638C7.85827 4.9764 9.16535 4.5827 10.6772 4.59845C13.0709 4.59845 15.1181 5.7323 16.4882 7.38585C16.5827 7.52758 16.7402 7.62207 16.9291 7.62207C17.2756 7.62207 17.5118 7.38585 17.5118 7.08663C17.5118 6.92915 17.4646 6.78742 17.3701 6.69293C17.3583 6.68112 17.3494 6.67226 17.3428 6.66562L17.3228 6.64569C15.9528 4.92915 13.8583 3.7638 11.4646 3.71656Z" fill="#6C6F80"/>
</svg>
