<?xml version="1.0" encoding="UTF-8"?>
<svg width="24px" height="24px" viewBox="0 0 24 24" version="1.1" xmlns="http://www.w3.org/2000/svg" xmlns:xlink="http://www.w3.org/1999/xlink">
    <title>Icons/24/communication-telescope</title>
    <g id="Icons/24/communication-telescope" stroke="none" stroke-width="1" fill="none" fill-rule="evenodd">
        <path d="M11.511811,18.976378 L11.511811,22 C11.023622,21.9527559 10.5826772,21.9055118 10.1417323,21.8110236 L10.1417323,21.8110236 L11.511811,18.976378 Z M12.488189,19.023622 L13.8582677,21.8110236 C13.4173228,21.9055118 12.9291339,21.9527559 12.488189,21.9527559 L12.488189,21.9527559 L12.488189,19.023622 Z M11.984252,2.0313313 C17.5433071,2.0313313 21.984252,6.51968504 21.984252,12.0314961 C21.984252,16.5669291 18.9606299,20.3622047 14.8661417,21.6850394 L14.8661417,21.6850394 L12.8188976,17.3858268 C13.023622,17.1811024 13.1653543,16.8976378 13.1653543,16.5984252 C13.1653543,15.9685039 12.6771654,15.480315 12.0944882,15.480315 C11.9527559,15.480315 11.7952756,15.5275591 11.6535433,15.5748031 L11.6535433,15.5748031 L14.9291339,13.6692913 L15.3228346,14.2992126 C15.4645669,14.5354331 15.7637795,14.6299213 16,14.488189 L16,14.488189 L16.8818898,14 C17.1181102,13.8582677 17.2125984,13.5590551 17.0708661,13.3228346 L17.0708661,13.3228346 L14.1417323,8.2992126 C14,8.06299213 13.7007874,7.96850394 13.4645669,8.11023622 L13.4645669,8.11023622 L12.5354331,8.5984252 C12.2992126,8.69291339 12.2047244,8.99212598 12.3464567,9.22834646 L12.3464567,9.22834646 L12.3937008,9.27559055 L13.3385827,11.023622 C13.496063,11.2598425 13.3858268,11.5590551 13.1496063,11.7007874 C13.0551181,11.7480315 13.007874,11.7480315 12.9133858,11.7480315 C12.7086614,11.7480315 12.5669291,11.6535433 12.4724409,11.511811 L12.4724409,11.511811 L11.8897638,10.3937008 L6.37795276,13.5590551 C6.14173228,13.7007874 6.04724409,14 6.18897638,14.2362205 L6.18897638,14.2362205 L6.53543307,14.8188976 L3.21259843,16.7244094 C2.44094488,15.3700787 2,13.7007874 2,12 C2,6.48818898 6.48818898,2 11.984252,2.0313313 Z M11.3228346,15.5590551 C11.0708661,15.7637795 10.8818898,16.0944882 10.8818898,16.4409449 C10.8818898,16.7874016 11.023622,17.0708661 11.1811024,17.3228346 L11.1811024,17.3228346 L9.13385827,21.6692913 C7.18110236,21.0708661 5.52755906,19.9527559 4.2519685,18.3937008 L4.2519685,18.3937008 L7.46456693,16.5354331 L7.76377953,17.023622 C7.90551181,17.2598425 8.20472441,17.3543307 8.44094488,17.2125984 L8.44094488,17.2125984 Z M2.2992126,16.9291339 C2.53543307,16.7716535 2.83464567,16.8346457 2.97637795,17.0708661 L2.97637795,17.0708661 L3.81102362,18.3937008 C3.96850394,18.6299213 3.90551181,18.9291339 3.66929134,19.0708661 C3.62204724,19.1181102 3.52755906,19.1181102 3.43307087,19.1181102 C3.22834646,19.1181102 3.08661417,19.023622 2.99212598,18.8818898 L2.99212598,18.8818898 L2.15748031,17.5590551 C2,17.3228346 2.11023622,17.023622 2.2992126,16.9291339 Z M18.4094488,7.38582677 C18.2204724,7.38582677 17.8740157,8.31496063 17.6850394,8.40944882 C17.480315,8.50393701 16.503937,8.17322835 16.4094488,8.36220472 C16.2519685,8.66141732 17.0866142,9.1496063 17.0866142,9.38582677 C17.0866142,9.62204724 16.503937,10.4094488 16.6929134,10.5511811 C16.9291339,10.7401575 17.6692913,10.1574803 17.9055118,10.2047244 C18.2047244,10.2047244 18.6929134,10.976378 18.8818898,10.9291339 C19.0708661,10.8346457 18.7874016,9.85826772 18.9448819,9.66929134 C19.0393701,9.52755906 19.9685039,9.18110236 19.9212598,8.99212598 C19.8740157,8.78740157 18.8503937,8.69291339 18.7559055,8.5984252 C18.5984252,8.50393701 18.5984252,7.43307087 18.4094488,7.38582677 Z M11.4645669,3.71653543 C9.55905512,3.71653543 7.90551181,4.40944882 6.53543307,5.57480315 L6.53543307,5.57480315 L6.48818898,5.62204724 L6.48818898,5.66929134 C6.48818898,5.76377953 6.53543307,5.81102362 6.53543307,5.81102362 C6.58267717,5.81102362 6.62992126,5.76377953 6.62992126,5.76377953 C7.85826772,4.97637795 9.16535433,4.58267717 10.6771654,4.5984252 C13.0708661,4.5984252 15.1181102,5.73228346 16.488189,7.38582677 C16.5826772,7.52755906 16.7401575,7.62204724 16.9291339,7.62204724 C17.2755906,7.62204724 17.511811,7.38582677 17.511811,7.08661417 C17.511811,6.92913386 17.4645669,6.78740157 17.3700787,6.69291339 C17.3582677,6.68110236 17.3494094,6.67224409 17.3427657,6.66560039 L17.3228346,6.64566929 C15.9527559,4.92913386 13.8582677,3.76377953 11.4645669,3.71653543 Z" id="icon" fill="#45FF00"></path>
    </g>
</svg>