<svg xmlns="http://www.w3.org/2000/svg" width="25" height="24" fill="none" viewBox="0 0 25 24">
  <path fill="#6C6F80" fill-rule="evenodd" d="M20.5 20a1.93 1.93 0 0 0 1.413-.587A1.93 1.93 0 0 0 22.5 18V6c0-.55-.196-1.02-.587-1.412A1.927 1.927 0 0 0 20.5 4h-16c-.55 0-1.02.196-1.412.588A1.923 1.923 0 0 0 2.5 6v12c0 .55.196 1.021.588 1.413.391.391.862.587 1.412.587h16ZM4.503 6.001 4.504 6h15.993v.001L12.5 11 4.503 6.001ZM4.5 8.481v9.516l.002.002.001.001h15.994l.002-.001.001-.002V8.482l-8 5-8-5Z" clip-rule="evenodd"/>
</svg>
