<?xml version="1.0" encoding="UTF-8"?>
<svg width="24px" height="24px" viewBox="0 0 24 24" version="1.1" xmlns="http://www.w3.org/2000/svg" xmlns:xlink="http://www.w3.org/1999/xlink">
    <title>Icons/24/content-code_braces</title>
    <g id="Icons/24/content-code_braces" stroke="none" stroke-width="1" fill="none" fill-rule="evenodd">
        <path d="M8,3 C6.8954305,3 6,3.8954305 6,5 L6,9 C6,10.1045695 5.1045695,11 4,11 L3,11 L3,13 L4,13 C5.1045695,13 6,13.8954305 6,15 L6,19 C6,20.1045695 6.8954305,21 8,21 L10,21 L10,19 L8,19 L8,14 C8,12.8954305 7.1045695,12 6,12 C7.1045695,12 8,11.1045695 8,10 L8,5 L10,5 L10,3 M16,3 C17.1045695,3 18,3.8954305 18,5 L18,9 C18,10.1045695 18.8954305,11 20,11 L21,11 L21,13 L20,13 C18.8954305,13 18,13.8954305 18,15 L18,19 C18,20.1045695 17.1045695,21 16,21 L14,21 L14,19 L16,19 L16,14 C16,12.8954305 16.8954305,12 18,12 C16.8954305,12 16,11.1045695 16,10 L16,5 L14,5 L14,3 L16,3 Z" id="icon" fill="#45FF00"></path>
    </g>
</svg>