<svg xmlns="http://www.w3.org/2000/svg" width="25" height="24" fill="none" viewBox="0 0 25 24">
  <path fill="#6C6F80" d="M2 15c0-1.25.237-2.421.712-3.513a9.159 9.159 0 0 1 1.926-2.85 9.152 9.152 0 0 1 2.85-1.925A8.709 8.709 0 0 1 11 6a8.71 8.71 0 0 1 3.513.712 9.168 9.168 0 0 1 2.85 1.925 9.154 9.154 0 0 1 1.924 2.85A8.706 8.706 0 0 1 20 15v.15l1.55-1.55L23 15l-4 4-4-4 1.45-1.4L18 15.15V15c0-1.95-.679-3.604-2.037-4.962C14.604 8.679 12.95 8 11 8c-1.95 0-3.604.68-4.962 2.038C4.679 11.396 4 13.05 4 15H2Z"/>
</svg>
