<svg xmlns="http://www.w3.org/2000/svg" width="25" height="24" fill="none" viewBox="0 0 25 24">
  <path fill="#6C6F80" d="M11.5 17h2v-4h4v-2h-4V7h-2v4h-4v2h4v4Zm1 5a9.733 9.733 0 0 1-3.9-.788 10.092 10.092 0 0 1-3.175-2.137c-.9-.9-1.612-1.958-2.137-3.175A9.733 9.733 0 0 1 2.5 12a9.74 9.74 0 0 1 .788-3.9 10.092 10.092 0 0 1 2.137-3.175c.9-.9 1.958-1.613 3.175-2.138A9.743 9.743 0 0 1 12.5 2a9.74 9.74 0 0 1 3.9.787 10.105 10.105 0 0 1 3.175 2.138c.9.9 1.612 1.958 2.137 3.175A9.733 9.733 0 0 1 22.5 12a9.733 9.733 0 0 1-.788 3.9 10.092 10.092 0 0 1-2.137 3.175c-.9.9-1.958 1.612-3.175 2.137a9.733 9.733 0 0 1-3.9.788Zm0-2c2.233 0 4.125-.775 5.675-2.325 1.55-1.55 2.325-3.442 2.325-5.675 0-2.233-.775-4.125-2.325-5.675C16.625 4.775 14.733 4 12.5 4c-2.233 0-4.125.775-5.675 2.325C5.275 7.875 4.5 9.767 4.5 12c0 2.233.775 4.125 2.325 5.675C8.375 19.225 10.267 20 12.5 20Z"/>
</svg>
