<svg xmlns="http://www.w3.org/2000/svg" width="25" height="24" fill="none" viewBox="0 0 25 24">
  <path fill="#6C6F80" d="M13.914 6.344a3 3 0 0 1 4.243 4.242l-2.121 2.121 1.414 1.415L19.571 12a5 5 0 0 0-7.07-7.07l-2.122 2.12 1.414 1.415 2.121-2.121Z"/>
  <path fill="#6C6F80" d="m16.743 9.172-7.071 7.071-1.414-1.414 7.07-7.07 1.415 1.413Z"/>
  <path fill="#6C6F80" d="m8.965 11.293-2.121 2.122a3 3 0 1 0 4.242 4.242l2.121-2.12 1.415 1.413-2.122 2.122A5 5 0 1 1 5.43 12l2.12-2.122 1.415 1.415Z"/>
</svg>
