<svg xmlns="http://www.w3.org/2000/svg" width="25" height="24" fill="none" viewBox="0 0 25 24">
  <path fill="#6C6F80" d="M9.741 9.041 3.9 3.2 2.5 4.6l6.707 6.707a4.984 4.984 0 0 0 1.464 3.521L11.7 13.8l2.122 2.121-1.736 1.736a3 3 0 0 1-4.37-4.107 5.018 5.018 0 0 1-.297-2.54l-.99.99a5 5 0 1 0 7.071 7.071l1.736-1.735L20.9 23l1.4-1.4-5.677-5.678L15.2 14.5l-3.91-3.909-1.549-1.549Zm2.638-.163-1.414-1.414L13.5 4.93A5 5 0 0 1 20.57 12l-1.06 1.06c.12-.85.022-1.725-.295-2.535a3 3 0 0 0-4.302-4.182L12.38 8.878Z"/>
  <path fill="#6C6F80" d="m15.76 12.26 1.837 1.837a4.999 4.999 0 0 0-2.046-5.562L14.087 10c.3.143.58.339.828.587.471.471.753 1.06.845 1.673Z"/>
</svg>
