<?xml version="1.0" encoding="UTF-8"?>
<svg width="24px" height="24px" viewBox="0 0 24 24" version="1.1" xmlns="http://www.w3.org/2000/svg" xmlns:xlink="http://www.w3.org/1999/xlink">
    <title>Icons/24/content-link_off</title>
    <g id="Icons/24/content-link_off" stroke="none" stroke-width="1" fill="none" fill-rule="evenodd">
        <path d="M2,5.27 L3.28,4 L20,20.72 L18.73,22 L13.9,17.17 L11.29,19.78 C9.34,21.73 6.17,21.73 4.22,19.78 C2.27,17.83 2.27,14.66 4.22,12.71 L5.71,11.22 C5.7,12.04 5.83,12.86 6.11,13.65 L5.64,14.12 C4.46,15.29 4.46,17.19 5.64,18.36 C6.81,19.54 8.71,19.54 9.88,18.36 L12.5,15.76 L10.88,14.15 C10.87,14.39 10.77,14.64 10.59,14.83 C10.2,15.22 9.56,15.22 9.17,14.83 C8.12,13.77 7.63,12.37 7.72,11 L2,5.27 L2,5.27 Z M12.71,4.22 C14.66,2.27 17.83,2.27 19.78,4.22 C21.73,6.17 21.73,9.34 19.78,11.29 L18.29,12.78 C18.3,11.96 18.17,11.14 17.89,10.36 L18.36,9.88 C19.54,8.71 19.54,6.81 18.36,5.64 C17.19,4.46 15.29,4.46 14.12,5.64 L10.79,8.97 L9.38,7.55 L12.71,4.22 L12.71,4.22 Z M13.41,9.17 C13.8,8.78 14.44,8.78 14.83,9.17 C16.2,10.54 16.61,12.5 16.06,14.23 L14.28,12.46 C14.23,11.78 13.94,11.11 13.41,10.59 C13,10.2 13,9.56 13.41,9.17 Z" id="icon" fill="#45FF00"></path>
    </g>
</svg>