<svg xmlns="http://www.w3.org/2000/svg" width="25" height="24" fill="none" viewBox="0 0 25 24">
  <path fill="#6C6F80" fill-rule="evenodd" d="M7.54 9.89 5.43 12a5 5 0 0 0 7.07 7.07l2.111-2.11 5.69 5.69 1.4-1.4L3.3 2.85l-1.4 1.4 5.64 5.64Zm1.414 1.413 1.414 1.415-2.11 2.11 1.414 1.415 2.11-2.111 1.415 1.414-2.11 2.11a3 3 0 1 1-4.243-4.242l2.11-2.11Z" clip-rule="evenodd"/>
  <path fill="#6C6F80" d="M18.157 6.343a3 3 0 0 0-4.243 0l-2.12 2.121-1.415-1.414L12.5 4.928A5 5 0 0 1 19.571 12l-2.121 2.122-1.414-1.414 2.121-2.122a3 3 0 0 0 0-4.242Z"/>
  <path fill="#6C6F80" d="m15.329 7.757-2.11 2.11 1.414 1.415 2.11-2.11-1.414-1.415Z"/>
</svg>
