<svg xmlns="http://www.w3.org/2000/svg" width="25" height="24" fill="none" viewBox="0 0 25 24">
  <path fill="#6C6F80" d="M12.5 4.93A5 5 0 0 1 19.57 12l-1.06 1.06c.12-.85.022-1.725-.295-2.534a3 3 0 0 0-4.302-4.182l-2.828 2.828a3 3 0 0 0-.07 4.17l.07.073-1.415 1.414a5 5 0 0 1 0-7.071l2.83-2.829Z"/>
  <path fill="#6C6F80" d="m5.43 12 .989-.99a5.018 5.018 0 0 0 .297 2.54 3 3 0 0 0 4.37 4.107l2.829-2.828a3 3 0 0 0-.828-4.83l1.464-1.463a5 5 0 0 1 .778 7.707L12.5 19.071a5 5 0 0 1-7.07-7.07Z"/>
</svg>
