<svg width="24" height="24" viewBox="0 0 24 24" fill="none" xmlns="http://www.w3.org/2000/svg">
<path fill-rule="evenodd" clip-rule="evenodd" d="M2 5.27001L3.28 4.00001L20 20.72L18.73 22L13.9 17.17L11.29 19.78C9.34 21.73 6.17 21.73 4.22 19.78C2.27 17.83 2.27 14.66 4.22 12.71L5.71 11.22C5.7 12.04 5.83 12.86 6.11 13.65L5.64 14.12C4.46 15.29 4.46 17.19 5.64 18.36C6.81 19.54 8.71 19.54 9.88 18.36L12.5 15.76L10.88 14.15C10.87 14.39 10.77 14.64 10.59 14.83C10.2 15.22 9.56 15.22 9.17 14.83C8.12 13.77 7.63 12.37 7.72 11L2 5.27001ZM12.71 4.22001C14.66 2.27001 17.83 2.27001 19.78 4.22001C21.73 6.17001 21.73 9.34001 19.78 11.29L18.29 12.78C18.3 11.96 18.17 11.14 17.89 10.36L18.36 9.88001C19.54 8.71001 19.54 6.81001 18.36 5.64001C17.19 4.46001 15.29 4.46001 14.12 5.64001L10.79 8.97001L9.38 7.55001L12.71 4.22001ZM13.41 9.17001C13.8 8.78001 14.44 8.78001 14.83 9.17001C16.2 10.54 16.61 12.5 16.06 14.23L14.28 12.46C14.23 11.78 13.94 11.11 13.41 10.59C13 10.2 13 9.56001 13.41 9.17001Z" fill="#6C6F80"/>
</svg>
