<svg width="24" height="24" viewBox="0 0 24 24" fill="none" xmlns="http://www.w3.org/2000/svg">
<path d="M11.5962 21.9684C11.2441 21.8629 11 21.5128 11 21.1134V14H6.81011C6.51911 14 6.25047 13.8292 6.10632 13.5526C5.96222 13.276 5.96476 12.936 6.11296 12.662L11.4927 2.43499C11.6787 2.09128 12.0517 1.92616 12.4038 2.03147C12.7558 2.13696 13 2.48706 13 2.8865V10L17.1899 9.99998C17.4809 9.99998 17.7495 10.1708 17.8937 10.4473C18.0378 10.724 18.0352 11.0639 17.887 11.338L12.5073 21.565C12.3217 21.908 11.9491 22.0741 11.5962 21.9684Z" fill="#6C6F80"/>
</svg>
