<svg width="24" height="24" viewBox="0 0 24 24" fill="none" xmlns="http://www.w3.org/2000/svg">
<path fill-rule="evenodd" clip-rule="evenodd" d="M12 22C17.5228 22 22 17.5228 22 12C22 6.47715 17.5228 2 12 2C6.47715 2 2 6.47715 2 12C2 17.5228 6.47715 22 12 22ZM6.52607 16.7329C7.02864 16.911 7.55325 17 8.09991 17C8.65538 17 9.17118 16.8932 9.64729 16.6795C10.1322 16.4659 10.5599 16.1454 10.9302 15.7181L9.73987 14.276C9.55471 14.4807 9.32988 14.6588 9.06537 14.8101C8.80968 14.9525 8.51431 15.0237 8.17926 15.0237C7.62379 15.0237 7.17412 14.8056 6.83026 14.3694C6.49521 13.9332 6.32769 13.3056 6.32769 12.4866C6.32769 12.095 6.37618 11.7433 6.47317 11.4318C6.57897 11.1202 6.71564 10.8576 6.88316 10.6439C7.0595 10.4303 7.25788 10.2656 7.47831 10.1499C7.70755 10.0341 7.95002 9.97626 8.20571 9.97626C8.49667 9.97626 8.75237 10.0386 8.97279 10.1632C9.20203 10.2789 9.42246 10.4303 9.63407 10.6172L10.8244 9.14837C10.5158 8.8368 10.1366 8.56973 9.68697 8.34718C9.2373 8.11573 8.72592 8 8.15281 8C7.60616 8 7.08154 8.10237 6.57897 8.30712C6.08522 8.51187 5.64437 8.81009 5.25642 9.20178C4.87729 9.58457 4.57311 10.0608 4.34386 10.6306C4.11462 11.1914 4 11.8368 4 12.5668C4 13.3056 4.11021 13.9555 4.33064 14.5163C4.55106 15.0682 4.84643 15.5312 5.21675 15.905C5.59588 16.27 6.03232 16.546 6.52607 16.7329ZM11.1705 8.16024L13.7098 16.8398H16.4607L19 8.16024H16.6723L15.7994 11.9525C15.6848 12.4154 15.579 12.8739 15.482 13.3279C15.3938 13.773 15.288 14.2315 15.1646 14.7033H15.1117C14.9883 14.2315 14.8825 13.773 14.7943 13.3279C14.7061 12.8739 14.6003 12.4154 14.4769 11.9525L13.5775 8.16024H11.1705Z" fill="#6C6F80"/>
</svg>
