<?xml version="1.0" encoding="UTF-8"?>
<svg width="24px" height="24px" viewBox="0 0 24 24" version="1.1" xmlns="http://www.w3.org/2000/svg" xmlns:xlink="http://www.w3.org/1999/xlink">
    <title>Icons/24/database-lock</title>
    <g id="Icons/24/database-lock" stroke="none" stroke-width="1" fill="none" fill-rule="evenodd">
        <path d="M19,14 C20.0543618,14 20.9181651,14.8158778 20.9945143,15.8507377 L21,16 L21,17 L21.25,17 C21.6642136,17 22,17.3197966 22,17.7142857 L22,21.2857143 C22,21.6802034 21.6642136,22 21.25,22 L16.75,22 C16.3357864,22 16,21.6802034 16,21.2857143 L16,17.7142857 C16,17.3178571 16.3375,17 16.75,17 L17,17 L17,16 L17.0054857,15.8507377 C17.0818349,14.8158778 17.9456382,14 19,14 Z M3,13 C3,15.21 6.58,17 11,17 C11.7297411,17 12.4365855,16.9512083 13.1082025,16.8597902 C13.0371852,17.2289396 13,17.6101273 13,18 C13,18.6398421 13.1001544,19.2562918 13.2856413,19.8345273 C12.5614899,19.9421921 11.7943088,20 11,20 C6.58,20 3,18.21 3,16 L3,13 Z M19,15 C18.5266131,15 18.1300527,15.3289337 18.0264107,15.7707092 L18.0067277,15.8833789 L18,16 L18,17 L20,17 L20,16 L19.9932723,15.8833789 C19.9355072,15.3860402 19.5128358,15 19,15 Z M19,8 L19,12 L19,12 C17.0052426,12.0832427 15.0076095,13.1456988 13.9792099,14.7136873 C13.0585313,14.8983858 12.0531081,15 11,15 C6.58,15 3,13.21 3,11 L3,8 C3,10.21 6.58,12 11,12 C15.42,12 19,10.21 19,8 Z M11,2 C15.42,2 19,3.79 19,6 C19,8.21 15.42,10 11,10 C6.58,10 3,8.21 3,6 C3,3.79 6.58,2 11,2 Z" id="icon" fill="#45FF00"></path>
    </g>
</svg>