<?xml version="1.0" encoding="UTF-8"?>
<svg width="24px" height="24px" viewBox="0 0 24 24" version="1.1" xmlns="http://www.w3.org/2000/svg" xmlns:xlink="http://www.w3.org/1999/xlink">
    <title>Icons/24/database-settings</title>
    <g id="Icons/24/database-settings" stroke="none" stroke-width="1" fill="none" fill-rule="evenodd">
        <path d="M11,15 C6.58,15 3,13.21 3,11 L3,8 C3,10.21 6.58,12 11,12 C15.42,12 19,10.21 19,8 L19,11 C19,11 19,12 19,12 C17.0052426,12.0832427 15.0076095,13.1456988 13.9792099,14.7136873 C13.0585313,14.8983858 12.0531081,15 11,15 Z M13.1082025,16.8597902 C13.0371852,17.2289396 13,17.6101273 13,18 C13,18.6398421 13.1001544,19.2562918 13.2856413,19.8345273 C12.5614899,19.9421921 11.7943088,20 11,20 C6.58,20 3,18.21 3,16 L3,13 C3,15.21 6.58,17 11,17 C11.7297411,17 12.4365855,16.9512083 13.1082025,16.8597902 L13.1082025,16.8597902 Z M11,2 C15.42,2 19,3.79 19,6 C19,8.21 15.42,10 11,10 C6.58,10 3,8.21 3,6 C3,3.79 6.58,2 11,2 Z M17.7776948,20.7405195 C17.5865695,20.655146 17.4060131,20.550366 17.2385304,20.4286844 L15.9108984,20.6495191 L15.1608984,19.3504809 L16.0159417,18.3111608 C16.0054014,18.2088771 16,18.1050693 16,18 C16,17.8949307 16.0054014,17.7911229 16.0159417,17.6888392 L15.1608984,16.6495191 L15.9108984,15.3504809 L17.2385304,15.5713156 C17.4060131,15.449634 17.5865695,15.344854 17.7776948,15.2594805 L18.25,14 L19.75,14 L20.2223052,15.2594805 C20.4134305,15.344854 20.5939869,15.449634 20.7614696,15.5713156 L22.0891016,15.3504809 L22.8391016,16.6495191 L21.9840583,17.6888392 C21.9945986,17.7911229 22,17.8949307 22,18 C22,18.1050693 21.9945986,18.2088771 21.9840583,18.3111608 L22.8391016,19.3504809 L22.0891016,20.6495191 L20.7614696,20.4286844 C20.5939869,20.550366 20.4134305,20.655146 20.2223052,20.7405195 L19.75,22 L18.25,22 L17.7776948,20.7405195 L17.7776948,20.7405195 Z M19,19 C19.5522847,19 20,18.5522847 20,18 C20,17.4477153 19.5522847,17 19,17 C18.4477153,17 18,17.4477153 18,18 C18,18.5522847 18.4477153,19 19,19 Z" id="icon" fill="#45FF00"></path>
    </g>
</svg>