<svg width="24" height="24" viewBox="0 0 24 24" fill="none" xmlns="http://www.w3.org/2000/svg">
<path fill-rule="evenodd" clip-rule="evenodd" d="M18 17V15H20V17H22V19H20V21H18V19H16V17H18ZM11 15C6.58 15 3 13.21 3 11V8C3 10.21 6.58 12 11 12C15.42 12 19 10.21 19 8V11C19 11 19 12 19 12C17.0052 12.0832 15.0076 13.1457 13.9792 14.7137C13.0585 14.8984 12.0531 15 11 15ZM13.1082 16.8598C13.0372 17.2289 13 17.6101 13 18C13 18.6398 13.1002 19.2563 13.2856 19.8345C12.5615 19.9422 11.7943 20 11 20C6.58 20 3 18.21 3 16V13C3 15.21 6.58 17 11 17C11.7297 17 12.4366 16.9512 13.1082 16.8598ZM11 2C15.42 2 19 3.79 19 6C19 8.21 15.42 10 11 10C6.58 10 3 8.21 3 6C3 3.79 6.58 2 11 2Z" fill="#6C6F80"/>
</svg>
