<svg xmlns="http://www.w3.org/2000/svg" width="25" height="24" fill="none" viewBox="0 0 25 24">
  <path fill="#6C6F80" fill-rule="evenodd" d="M11.5 15c-4.42 0-8-1.79-8-4V8c0 2.21 3.58 4 8 4s8-1.79 8-4v4c-1.995.083-3.992 1.146-5.02 2.714-.921.184-1.927.286-2.98.286Zm2.108 1.86a6.032 6.032 0 0 0 .178 2.974A15.54 15.54 0 0 1 11.5 20c-4.42 0-8-1.79-8-4v-3c0 2.21 3.58 4 8 4 .73 0 1.437-.049 2.108-.14ZM11.5 2c4.42 0 8 1.79 8 4s-3.58 4-8 4-8-1.79-8-4 3.58-4 8-4Zm6.778 18.74a2.999 2.999 0 0 1-.54-.311l-1.327.22-.75-1.299.855-1.039a3.047 3.047 0 0 1 0-.622l-.855-1.04.75-1.299 1.327.221c.168-.121.349-.226.54-.312L18.75 14h1.5l.472 1.26c.191.085.372.19.54.311l1.327-.22.75 1.298-.855 1.04a3.047 3.047 0 0 1 0 .622l.855 1.04-.75 1.299-1.327-.221a2.999 2.999 0 0 1-.54.312L20.25 22h-1.5l-.472-1.26ZM19.5 19a1 1 0 1 0 0-2 1 1 0 0 0 0 2Z" clip-rule="evenodd"/>
</svg>
