<svg width="24" height="24" viewBox="0 0 24 24" fill="none" xmlns="http://www.w3.org/2000/svg">
<path fill-rule="evenodd" clip-rule="evenodd" d="M11 15C6.58 15 3 13.21 3 11V8C3 10.21 6.58 12 11 12C15.42 12 19 10.21 19 8V11C19 11 19 12 19 12C17.0052 12.0832 15.0076 13.1457 13.9792 14.7137C13.0585 14.8984 12.0531 15 11 15ZM13.1082 16.8598C13.0372 17.2289 13 17.6101 13 18C13 18.6398 13.1002 19.2563 13.2856 19.8345C12.5615 19.9422 11.7943 20 11 20C6.58 20 3 18.21 3 16V13C3 15.21 6.58 17 11 17C11.7297 17 12.4366 16.9512 13.1082 16.8598ZM11 2C15.42 2 19 3.79 19 6C19 8.21 15.42 10 11 10C6.58 10 3 8.21 3 6C3 3.79 6.58 2 11 2ZM17.7777 20.7405C17.5866 20.6551 17.406 20.5504 17.2385 20.4287L15.9109 20.6495L15.1609 19.3505L16.0159 18.3112C16.0054 18.2089 16 18.1051 16 18C16 17.8949 16.0054 17.7911 16.0159 17.6888L15.1609 16.6495L15.9109 15.3505L17.2385 15.5713C17.406 15.4496 17.5866 15.3449 17.7777 15.2595L18.25 14H19.75L20.2223 15.2595C20.4134 15.3449 20.594 15.4496 20.7615 15.5713L22.0891 15.3505L22.8391 16.6495L21.9841 17.6888C21.9946 17.7911 22 17.8949 22 18C22 18.1051 21.9946 18.2089 21.9841 18.3112L22.8391 19.3505L22.0891 20.6495L20.7615 20.4287C20.594 20.5504 20.4134 20.6551 20.2223 20.7405L19.75 22H18.25L17.7777 20.7405ZM19 19C19.5523 19 20 18.5523 20 18C20 17.4477 19.5523 17 19 17C18.4477 17 18 17.4477 18 18C18 18.5523 18.4477 19 19 19Z" fill="#6C6F80"/>
</svg>
