<?xml version="1.0" encoding="UTF-8"?>
<svg width="24px" height="24px" viewBox="0 0 24 24" version="1.1" xmlns="http://www.w3.org/2000/svg" xmlns:xlink="http://www.w3.org/1999/xlink">
    <title>Icons/24/database-plus</title>
    <g id="Icons/24/database-plus" stroke="none" stroke-width="1" fill="none" fill-rule="evenodd">
        <path d="M18,17 L18,15 L20,15 L20,17 L22,17 L22,19 L20,19 L20,21 L18,21 L18,19 L16,19 L16,17 L18,17 Z M11,15 C6.58,15 3,13.21 3,11 L3,8 C3,10.21 6.58,12 11,12 C15.42,12 19,10.21 19,8 L19,11 C19,11 19,12 19,12 C17.0052426,12.0832427 15.0076095,13.1456988 13.9792099,14.7136873 C13.0585313,14.8983858 12.0531081,15 11,15 Z M13.1082025,16.8597902 C13.0371852,17.2289396 13,17.6101273 13,18 C13,18.6398421 13.1001544,19.2562918 13.2856413,19.8345273 C12.5614899,19.9421921 11.7943088,20 11,20 C6.58,20 3,18.21 3,16 L3,13 C3,15.21 6.58,17 11,17 C11.7297411,17 12.4365855,16.9512083 13.1082025,16.8597902 L13.1082025,16.8597902 Z M11,2 C15.42,2 19,3.79 19,6 C19,8.21 15.42,10 11,10 C6.58,10 3,8.21 3,6 C3,3.79 6.58,2 11,2 Z" id="icon" fill="#45FF00"></path>
    </g>
</svg>