<svg width="24" height="24" viewBox="0 0 24 24" fill="none" xmlns="http://www.w3.org/2000/svg">
<path d="M3 11C3 13.21 6.58 15 11 15C12.0531 15 13.0585 14.8984 13.9792 14.7137C15.0076 13.1457 17.0052 12.0832 19 12V8C19 10.21 15.42 12 11 12C6.58 12 3 10.21 3 8V11Z" fill="#6C6F80"/>
<path d="M13 18C13 17.6101 13.0372 17.2289 13.1082 16.8598C12.4366 16.9512 11.7297 17 11 17C6.58 17 3 15.21 3 13V16C3 18.21 6.58 20 11 20C11.7943 20 12.5615 19.9422 13.2856 19.8345C13.1002 19.2563 13 18.6398 13 18Z" fill="#6C6F80"/>
<path d="M19 6C19 3.79 15.42 2 11 2C6.58 2 3 3.79 3 6C3 8.21 6.58 10 11 10C15.42 10 19 8.21 19 6Z" fill="#6C6F80"/>
<path fill-rule="evenodd" clip-rule="evenodd" d="M21 16C21 14.8954 20.1046 14 19 14C17.8954 14 17 14.8954 17 16V17H16.75C16.3375 17 16 17.3179 16 17.7143V21.2857C16 21.6802 16.3358 22 16.75 22H21.25C21.6642 22 22 21.6802 22 21.2857V17.7143C22 17.3198 21.6642 17 21.25 17H21V16ZM18 17V16C18 15.4477 18.4477 15 19 15C19.5523 15 20 15.4477 20 16V17H18Z" fill="#6C6F80"/>
</svg>
