<svg xmlns="http://www.w3.org/2000/svg" width="25" height="24" fill="none" viewBox="0 0 25 24">
  <path fill="#6C6F80" fill-rule="evenodd" d="M12.5 2c-5.52 0-10 4.48-10 10s4.48 10 10 10c5.51 0 10-4.48 10-10s-4.49-10-10-10Zm6.605 4.61a8.502 8.502 0 0 1 1.93 5.314c-.281-.054-3.101-.629-5.943-.271-.065-.141-.12-.293-.184-.445a25.568 25.568 0 0 0-.564-1.236c3.145-1.28 4.577-3.124 4.761-3.362ZM12.5 3.475c2.17 0 4.154.813 5.662 2.148-.152.216-1.443 1.941-4.48 3.08-1.399-2.57-2.95-4.675-3.189-5a8.686 8.686 0 0 1 2.007-.228Zm-3.633.803a53.897 53.897 0 0 1 3.167 4.935c-3.992 1.063-7.517 1.04-7.896 1.04a8.581 8.581 0 0 1 4.729-5.975ZM3.953 12.01v-.26c.37.01 4.512.065 8.775-1.215.25.477.477.965.694 1.453-.109.033-.228.065-.336.098-4.404 1.42-6.747 5.303-6.942 5.629a8.522 8.522 0 0 1-2.19-5.705Zm8.547 8.536a8.483 8.483 0 0 1-5.239-1.8c.152-.315 1.888-3.656 6.703-5.337.022-.01.033-.01.054-.022a35.3 35.3 0 0 1 1.822 6.475 8.4 8.4 0 0 1-3.34.684Zm4.761-1.465c-.086-.52-.542-3.015-1.659-6.084 2.679-.423 5.022.271 5.314.369a8.468 8.468 0 0 1-3.655 5.715Z" clip-rule="evenodd"/>
</svg>
