<?xml version="1.0" encoding="UTF-8"?>
<svg width="24px" height="24px" viewBox="0 0 24 24" version="1.1" xmlns="http://www.w3.org/2000/svg" xmlns:xlink="http://www.w3.org/1999/xlink">
    <title>Icons/24/editor-image</title>
    <g id="Icons/24/editor-image" stroke="none" stroke-width="1" fill="none" fill-rule="evenodd">
        <path d="M19,19 L5,19 L5,5 L19,5 L19,19 Z M19,3 L5,3 C3.8954305,3 3,3.8954305 3,5 L3,19 C3,20.1045695 3.8954305,21 5,21 L19,21 C20.1045695,21 21,20.1045695 21,19 L21,5 C21,3.8954305 20.1045695,3 19,3 L19,3 Z M13.96,12.29 L11.21,15.83 L9.25,13.47 L6.5,17 L17.5,17 L13.96,12.29 Z" id="icon" fill="#45FF00"></path>
    </g>
</svg>