<svg width="24" height="24" viewBox="0 0 24 24" fill="none" xmlns="http://www.w3.org/2000/svg">
<path fill-rule="evenodd" clip-rule="evenodd" d="M15 7.41L10.41 12L15 16.59L13.59 18L9 13.41L4.41 18L3 16.59L7.59 12L3 7.41L4.41 6L9 10.59L13.59 6L15 7.41ZM20.85 21.03H15.97V20.03L16.86 19.23C17.62 18.58 18.18 18.04 18.56 17.6C18.93 17.16 19.12 16.75 19.13 16.36C19.14 16.08 19.05 15.85 18.86 15.66C18.68 15.5 18.39 15.38 18 15.38C17.69 15.38 17.42 15.44 17.16 15.56L16.5 15.94L16.05 14.77C16.32 14.56 16.64 14.38 17.03 14.24C17.42 14.1 17.85 14 18.32 14C19.1 14.04 19.7 14.25 20.1 14.66C20.5 15.07 20.72 15.59 20.72 16.23C20.71 16.79 20.53 17.31 20.18 17.78C19.84 18.25 19.42 18.7 18.91 19.14L18.27 19.66V19.68H20.85V21.03Z" fill="#6C6F80"/>
</svg>
