<?xml version="1.0" encoding="UTF-8"?>
<svg width="24px" height="24px" viewBox="0 0 24 24" version="1.1" xmlns="http://www.w3.org/2000/svg" xmlns:xlink="http://www.w3.org/1999/xlink">
    <title>Icons/24/editor-risk</title>
    <g id="Icons/24/editor-risk" stroke="none" stroke-width="1" fill="none" fill-rule="evenodd">
        <path d="M9,7 L13,7 C14.1045695,7 15,7.8954305 15,9 L15,11 C15,11.84 14.5,12.55 13.76,12.85 L15,17 L13,17 L11.8,13 L11,13 L11,17 L9,17 L9,7 L9,7 Z M11,9 L11,11 L13,11 L13,9 L11,9 L11,9 Z M5,3 L19,3 C20.1045695,3 21,3.8954305 21,5 L21,19 C21,20.1045695 20.1045695,21 19,21 L5,21 C3.8954305,21 3,20.1045695 3,19 L3,5 C3,3.8954305 3.8954305,3 5,3 L5,3 Z M5,5 L5,19 L19,19 L19,5 L5,5 Z" id="icon" fill="#45FF00"></path>
    </g>
</svg>