<svg width="24" height="24" viewBox="0 0 24 24" fill="none" xmlns="http://www.w3.org/2000/svg">
<path fill-rule="evenodd" clip-rule="evenodd" d="M21 19V17H7V19H21ZM21 13V11H7V13H21ZM7 7H21V5H7V7ZM3 5V7H5V5H3ZM2 5C2 4.44772 2.44772 4 3 4H5C5.55228 4 6 4.44772 6 5V7C6 7.55228 5.55228 8 5 8H3C2.44772 8 2 7.55228 2 7V5ZM3 11V13H5V11H3ZM2 11C2 10.4477 2.44772 10 3 10H5C5.55228 10 6 10.4477 6 11V13C6 13.5523 5.55228 14 5 14H3C2.44772 14 2 13.5523 2 13V11ZM3 17V19H5V17H3ZM2 17C2 16.4477 2.44772 16 3 16H5C5.55228 16 6 16.4477 6 17V19C6 19.5523 5.55228 20 5 20H3C2.44772 20 2 19.5523 2 19V17Z" fill="#6C6F80"/>
</svg>
