<?xml version="1.0" encoding="UTF-8"?>
<svg width="24px" height="24px" viewBox="0 0 24 24" version="1.1" xmlns="http://www.w3.org/2000/svg" xmlns:xlink="http://www.w3.org/1999/xlink">
    <title>Icons/24/editor-chart-donut</title>
    <g id="Icons/24/editor-chart-donut" stroke="none" stroke-width="1" fill="none" fill-rule="evenodd">
        <path d="M13.0275689,5.04522613 C16.0952381,5.48743719 18.5213033,7.91959799 18.962406,10.9949749 L22,10.9949749 C21.5288221,6.25125628 17.7593985,2.47236181 13.0275689,2 L13.0275689,5.04522613 Z M18.962406,13.0050251 C18.5213033,16.080402 16.0952381,18.5125628 13.0275689,18.9547739 L13.0275689,22 C17.7593985,21.5276382 21.5288221,17.7487437 22,13.0050251 L18.962406,13.0050251 L18.962406,13.0050251 Z M11.0225564,18.9547739 C7.62406015,18.4623116 5.0075188,15.5376884 5.0075188,12 C5.0075188,8.46231156 7.62406015,5.53768844 11.0225564,5.04522613 L11.0225564,2 C5.95989975,2.50251256 2,6.7839196 2,12 C2,17.2160804 5.95989975,21.4974874 11.0225564,22 L11.0225564,18.9547739 Z" id="icon" fill="#45FF00"></path>
    </g>
</svg>