<svg width="24" height="24" viewBox="0 0 24 24" fill="none" xmlns="http://www.w3.org/2000/svg">
<path fill-rule="evenodd" clip-rule="evenodd" d="M15.8 12.275C16.7926 11.5571 17.4884 10.3786 17.4884 9.28571C17.4884 6.86429 15.6977 5 13.3953 5H7V20H14.2037C16.3423 20 18 18.1786 18 15.9393C18 14.3107 17.12 12.9179 15.8 12.275ZM9.75 8H12.8056C13.6509 8 14.3333 8.67 14.3333 9.5C14.3333 10.33 13.6509 11 12.8056 11H9.75V8ZM13.6 17H9.75V14H13.6C14.513 14 15.25 14.67 15.25 15.5C15.25 16.33 14.513 17 13.6 17Z" fill="#6C6F80"/>
</svg>
