<?xml version="1.0" encoding="UTF-8"?>
<svg width="24px" height="24px" viewBox="0 0 24 24" version="1.1" xmlns="http://www.w3.org/2000/svg" xmlns:xlink="http://www.w3.org/1999/xlink">
    <title>Icons/24/editor-format_bold</title>
    <g id="Icons/24/editor-format_bold" stroke="none" stroke-width="1" fill="none" fill-rule="evenodd">
        <path d="M15.8,12.275 C16.7925581,11.5571429 17.4883721,10.3785714 17.4883721,9.28571429 C17.4883721,6.86428571 15.6976744,5 13.3953488,5 L7,5 L7,20 L14.2037209,20 C16.3423256,20 18,18.1785714 18,15.9392857 C18,14.3107143 17.12,12.9178571 15.8,12.275 Z M9.75,8 L12.8055556,8 C13.6509259,8 14.3333333,8.67 14.3333333,9.5 C14.3333333,10.33 13.6509259,11 12.8055556,11 L9.75,11 L9.75,8 Z M13.6,17 L9.75,17 L9.75,14 L13.6,14 C14.513,14 15.25,14.67 15.25,15.5 C15.25,16.33 14.513,17 13.6,17 Z" id="icon" fill="#45FF00"></path>
    </g>
</svg>