<?xml version="1.0" encoding="UTF-8"?>
<svg width="24px" height="24px" viewBox="0 0 24 24" version="1.1" xmlns="http://www.w3.org/2000/svg" xmlns:xlink="http://www.w3.org/1999/xlink">
    <title>Icons/24/editor-chart-line_multiline</title>
    <g id="Icons/24/editor-chart-line_multiline" stroke="none" stroke-width="1" fill="none" fill-rule="evenodd">
        <path d="M22,6.92 L20.59,5.5 L17.74,8.72 C15.68,6.4 12.83,5 9.61,5 C6.72,5 4.07,6.16 2,8 L3.42,9.42 C5.12,7.93 7.27,7 9.61,7 C12.35,7 14.7,8.26 16.38,10.24 L13.5,13.5 L9.5,9.5 L2,17 L3.5,18.5 L9.5,12.5 L13.5,16.5 L17.55,11.93 C18.3,13.28 18.8,14.83 19,16.5 L21,16.5 C20.78,14.18 20.05,12.09 18.96,10.34 L22,6.92 Z" id="Path" fill="#45FF00"></path>
    </g>
</svg>