<svg width="24" height="24" viewBox="0 0 24 24" fill="none" xmlns="http://www.w3.org/2000/svg">
<path fill-rule="evenodd" clip-rule="evenodd" d="M15.2 13.6C17.851 13.6 20 11.451 20 8.8C20 6.14903 17.851 4 15.2 4C12.549 4 10.4 6.14903 10.4 8.8C10.4 11.451 12.549 13.6 15.2 13.6ZM10.4 14.4C10.4 16.1673 8.96731 17.6 7.2 17.6C5.43269 17.6 4 16.1673 4 14.4C4 12.6327 5.43269 11.2 7.2 11.2C8.96731 11.2 10.4 12.6327 10.4 14.4ZM16.8 18C16.8 19.1046 15.9046 20 14.8 20C13.6954 20 12.8 19.1046 12.8 18C12.8 16.8954 13.6954 16 14.8 16C15.9046 16 16.8 16.8954 16.8 18Z" fill="#6C6F80"/>
</svg>
