<?xml version="1.0" encoding="UTF-8"?>
<svg width="24px" height="24px" viewBox="0 0 24 24" version="1.1" xmlns="http://www.w3.org/2000/svg" xmlns:xlink="http://www.w3.org/1999/xlink">
    <title>Icons/24/editor-chart-tree</title>
    <g id="Icons/24/editor-chart-tree" stroke="none" stroke-width="1" fill="none" fill-rule="evenodd">
        <path d="M14,12 L14,21 L4,21 C2.8954305,21 2,20.1045695 2,19 L2,12 L14,12 Z M22,17 L22,19 C22,20.1045695 21.1045695,21 20,21 L15,21 L15,17 L22,17 Z M22,12 L22,16 L15,16 L15,12 L22,12 Z M20,3 C21.1045695,3 22,3.8954305 22,5 L22,11 L2,11 L2,5 C2,3.8954305 2.8954305,3 4,3 L20,3 Z" id="icon" fill="#45FF00"></path>
    </g>
</svg>