<?xml version="1.0" encoding="UTF-8"?>
<svg width="24px" height="24px" viewBox="0 0 24 24" version="1.1" xmlns="http://www.w3.org/2000/svg" xmlns:xlink="http://www.w3.org/1999/xlink">
    <title>Icons/24/editor-chart-bubble</title>
    <g id="Icons/24/editor-chart-bubble" stroke="none" stroke-width="1" fill="none" fill-rule="evenodd">
        <path d="M7.2,17.6 C8.9673112,17.6 10.4,16.1673112 10.4,14.4 C10.4,12.6326888 8.9673112,11.2 7.2,11.2 C5.4326888,11.2 4,12.6326888 4,14.4 C4,16.1673112 5.4326888,17.6 7.2,17.6 Z M14.8,20 C15.9045695,20 16.8,19.1045695 16.8,18 C16.8,16.8954305 15.9045695,16 14.8,16 C13.6954305,16 12.8,16.8954305 12.8,18 C12.8,19.1045695 13.6954305,20 14.8,20 Z M15.2,13.6 C17.8509668,13.6 20,11.4509668 20,8.8 C20,6.1490332 17.8509668,4 15.2,4 C12.5490332,4 10.4,6.1490332 10.4,8.8 C10.4,11.4509668 12.5490332,13.6 15.2,13.6 Z" id="icon" fill="#45FF00"></path>
    </g>
</svg>