<?xml version="1.0" encoding="UTF-8"?>
<svg width="24px" height="24px" viewBox="0 0 24 24" version="1.1" xmlns="http://www.w3.org/2000/svg" xmlns:xlink="http://www.w3.org/1999/xlink">
    <title>Icons/24/editor-table_merge_cells</title>
    <g id="Icons/24/editor-table_merge_cells" stroke="none" stroke-width="1" fill="none" fill-rule="evenodd">
        <path d="M5,10 L3,10 L3,4 L11,4 L11,6 L5,6 L5,10 M19,18 L13,18 L13,20 L21,20 L21,14 L19,14 L19,18 M5,18 L5,14 L3,14 L3,20 L11,20 L11,18 L5,18 M21,4 L13,4 L13,6 L19,6 L19,10 L21,10 L21,4 M8,13 L8,15 L11,12 L8,9 L8,11 L3,11 L3,13 L8,13 M16,11 L16,9 L13,12 L16,15 L16,13 L21,13 L21,11 L16,11 Z" id="icon" fill="#45FF00"></path>
    </g>
</svg>