<?xml version="1.0" encoding="UTF-8"?>
<svg width="24px" height="24px" viewBox="0 0 24 24" version="1.1" xmlns="http://www.w3.org/2000/svg" xmlns:xlink="http://www.w3.org/1999/xlink">
    <title>Icons/24/editor-breakline</title>
    <g id="Icons/24/editor-breakline" stroke="none" stroke-width="1" fill="none" fill-rule="evenodd">
        <path d="M6,16 L6,20 L18,20 L18,16 L20,16 L20,20 C20,21.1045695 19.1045695,22 18,22 L6,22 C4.8954305,22 4,21.1045695 4,20 L4,16 L6,16 Z M23,11 L23,13 L1,13 L1,11 L23,11 Z M18,2 C19.1045695,2 20,2.8954305 20,4 L20,8 L18,8 L18,4 L6,4 L6,8 L4,8 L4,4 C4,2.8954305 4.8954305,2 6,2 L18,2 Z" id="icon" fill="#45FF00"></path>
    </g>
</svg>