<svg width="24" height="24" viewBox="0 0 24 24" fill="none" xmlns="http://www.w3.org/2000/svg">
<path fill-rule="evenodd" clip-rule="evenodd" d="M15 7.41L10.41 12L15 16.59L13.59 18L9 13.41L4.41 18L3 16.59L7.59 12L3 7.41L4.41 6L9 10.59L13.59 6L15 7.41ZM20.85 9H15.97V8L16.86 7.18C17.62 6.54 18.18 6 18.56 5.55C18.93 5.11 19.12 4.7 19.13 4.32C19.14 4.04 19.05 3.8 18.86 3.62C18.68 3.43 18.39 3.34 18 3.33C17.69 3.34 17.42 3.4 17.16 3.5L16.5 3.89L16.05 2.72C16.32 2.5 16.64 2.33 17.03 2.19C17.42 2.05 17.85 2 18.32 2C19.1 2 19.7 2.2 20.1 2.61C20.5 3 20.72 3.54 20.72 4.18C20.71 4.74 20.53 5.26 20.18 5.73C19.84 6.21 19.42 6.66 18.91 7.09L18.27 7.61V7.63H20.85V9Z" fill="#6C6F80"/>
</svg>
