<svg width="24" height="24" viewBox="0 0 24 24" fill="none" xmlns="http://www.w3.org/2000/svg">
<path fill-rule="evenodd" clip-rule="evenodd" d="M0.645793 21.7647C0.229234 22.1813 0.229234 22.8566 0.645793 23.2733C1.06235 23.6898 1.73773 23.6898 2.15429 23.2733L18.16 7.26748C19.1096 8.61245 19.6667 10.2515 19.6667 12.0215C19.6667 16.593 15.9634 20.2942 11.4 20.2942C10.8109 20.2942 10.3334 20.7718 10.3334 21.3609C10.3334 21.9499 10.8109 22.4275 11.4 22.4275C17.1423 22.4275 21.8 17.7705 21.8 12.0215C21.8 9.66337 21.0119 7.48597 19.6862 5.74138L23.2732 2.15429C23.6898 1.73773 23.6898 1.06235 23.2732 0.645794C22.8567 0.229235 22.1812 0.229234 21.7647 0.645792L5.06899 17.3415C3.8604 15.903 3.13337 14.0486 3.13337 12.0215C3.13337 7.46297 6.83581 3.76088 11.4 3.76088C11.9891 3.76088 12.4667 3.2833 12.4667 2.69421C12.4667 2.1051 11.9891 1.62754 11.4 1.62754C5.65872 1.62754 1.00004 6.28365 1.00004 12.0215C1.00004 14.6366 1.96501 17.0274 3.556 18.8545L0.645793 21.7647Z" fill="#6C6F80"/>
</svg>
