<svg width="24" height="24" viewBox="0 0 24 24" fill="none" xmlns="http://www.w3.org/2000/svg">
<path fill-rule="evenodd" clip-rule="evenodd" d="M16 6.5V18C16 20.21 14.21 22 12 22C9.79 22 8 20.21 8 18L8 5.5C8 4.12 9.12 3 10.5 3C11.88 3 13 4.12 13 5.5V16C13 16.55 12.55 17 12 17C11.45 17 11 16.55 11 16V6.5H9.5V16C9.5 17.38 10.62 18.5 12 18.5C13.38 18.5 14.5 17.38 14.5 16L14.5 5.5C14.5 3.29 12.71 1.5 10.5 1.5C8.29 1.5 6.5 3.29 6.5 5.5L6.5 18C6.5 21.04 8.96 23.5 12 23.5C15.04 23.5 17.5 21.04 17.5 18V6.5H16Z" fill="#6C6F80"/>
</svg>
