<?xml version="1.0" encoding="UTF-8"?>
<svg width="24px" height="24px" viewBox="0 0 24 24" version="1.1" xmlns="http://www.w3.org/2000/svg" xmlns:xlink="http://www.w3.org/1999/xlink">
    <title>Icons/24/file-file_word</title>
    <g id="Icons/24/file-file_word" stroke="none" stroke-width="1" fill="none" fill-rule="evenodd">
        <path d="M14,2 L6,2 C4.8954305,2 4,2.8954305 4,4 L4,20 C4,21.1045695 4.8954305,22 6,22 L18,22 C19.1045695,22 20,21.1045695 20,20 L20,8 L14,2 L14,2 Z M15.2,20 L13.8,20 L12,13.2 L10.2,20 L8.8,20 L6.6,11 L8.1,11 L9.5,17.8 L11.3,11 L12.6,11 L14.4,17.8 L15.8,11 L17.3,11 L15.2,20 L15.2,20 Z M13,9 L13,3.5 L18.5,9 L13,9 Z" id="icon" fill="#45FF00"></path>
    </g>
</svg>