<?xml version="1.0" encoding="UTF-8"?>
<svg width="24px" height="24px" viewBox="0 0 24 24" version="1.1" xmlns="http://www.w3.org/2000/svg" xmlns:xlink="http://www.w3.org/1999/xlink">
    <title>Icons/24/file-file_chart</title>
    <g id="Icons/24/file-file_chart" stroke="none" stroke-width="1" fill="none" fill-rule="evenodd">
        <path d="M13,9 L18.5,9 L13,3.5 L13,9 L13,9 Z M6,2 L14,2 L20,8 L20,20 C20,21.1045695 19.1045695,22 18,22 L6,22 C4.89,22 4,21.1 4,20 L4,4 C4,2.89 4.89,2 6,2 L6,2 Z M7,20 L9,20 L9,14 L7,14 L7,20 L7,20 Z M11,20 L13,20 L13,12 L11,12 L11,20 L11,20 Z M15,20 L17,20 L17,16 L15,16 L15,20 Z" id="icon" fill="#45FF00"></path>
    </g>
</svg>