<?xml version="1.0" encoding="UTF-8"?>
<svg width="24px" height="24px" viewBox="0 0 24 24" version="1.1" xmlns="http://www.w3.org/2000/svg" xmlns:xlink="http://www.w3.org/1999/xlink">
    <title>Icons/24/file-file_eml</title>
    <g id="Icons/24/file-file_eml" stroke="none" stroke-width="1" fill="none" fill-rule="evenodd">
        <path d="M14,2 L20,8 L20,20 C20,21.1045695 19.1045695,22 18,22 L18,22 L6,22 C4.8954305,22 4,21.1045695 4,20 L4,20 L4,4 C4,2.89 4.89,2 6,2 L6,2 L14,2 Z M16.9996499,13.267 L12,16.6009252 L6.9996499,13.267 L7,18 C7,18.5522847 7.44771525,19 8,19 L8,19 L16,19 C16.5522847,19 17,18.5522847 17,18 L17,18 L16.9996499,13.267 Z M16,12 L8,12 C7.7335981,12 7.49152684,12.1041719 7.31229869,12.2740031 L7.31229869,12.2740031 L12,15.3990748 L16.687941,12.2742303 C16.508689,12.1042648 16.2665207,12 16,12 L16,12 Z M13,3.5 L13,9 L18.5,9 L13,3.5 Z" id="Combined-Shape" fill="#45FF00"></path>
    </g>
</svg>