<?xml version="1.0" encoding="UTF-8"?>
<svg width="24px" height="24px" viewBox="0 0 24 24" version="1.1" xmlns="http://www.w3.org/2000/svg" xmlns:xlink="http://www.w3.org/1999/xlink">
    <title>Icons/24/file-file_table</title>
    <g id="Icons/24/file-file_table" stroke="none" stroke-width="1" fill="none" fill-rule="evenodd">
        <path d="M14,2 L6,2 C4.8954305,2 4,2.8954305 4,4 L4,20 C4,21.1045695 4.8954305,22 6,22 L18,22 C19.1045695,22 20,21.1045695 20,20 L20,8 L14,2 L14,2 Z M10,19 L7,19 L7,17 L10,17 L10,19 L10,19 Z M10,16 L7,16 L7,14 L10,14 L10,16 L10,16 Z M10,13 L7,13 L7,11 L10,11 L10,13 L10,13 Z M14,19 L11,19 L11,17 L14,17 L14,19 L14,19 Z M14,16 L11,16 L11,14 L14,14 L14,16 L14,16 Z M14,13 L11,13 L11,11 L14,11 L14,13 L14,13 Z M13,9 L13,3.5 L18.5,9 L13,9 Z" id="icon" fill="#45FF00"></path>
    </g>
</svg>