<svg width="24" height="24" viewBox="0 0 24 24" fill="none" xmlns="http://www.w3.org/2000/svg">
<path d="M5.525 9.2875L3.4 16.5375C3.39427 16.5547 3.39116 16.5719 3.38828 16.5879C3.38487 16.6068 3.38177 16.624 3.375 16.6375V6.875C3.375 6.05 4.05 5.375 4.875 5.375H9L10.7625 7H17.3875C17.975 7 18.4 8.1125 18.5625 8.625H6.3125C5.9625 8.625 5.6375 8.8875 5.525 9.2875Z" fill="#6C6F80"/>
<path d="M6.475 10.6625L4.4125 17.675C4.225 18.325 4.625 19 5.2 19H18.1C18.4625 19 18.775 18.725 18.8875 18.3125L20.7875 11.3C20.9625 10.6625 20.5625 10 20 10H7.2625C6.9125 10 6.5875 10.2625 6.475 10.6625Z" fill="#6C6F80"/>
</svg>
