<svg width="24" height="24" viewBox="0 0 24 24" fill="none" xmlns="http://www.w3.org/2000/svg">
<path fill-rule="evenodd" clip-rule="evenodd" d="M12 10C13.1046 10 14 10.8954 14 12C14 13.1046 13.1046 14 12 14C10.8954 14 10 13.1046 10 12C10 10.8954 10.8954 10 12 10ZM20 10C21.1046 10 22 10.8954 22 12C22 13.1046 21.1046 14 20 14C18.8954 14 18 13.1046 18 12C18.0033 10.8968 18.8968 10.0033 20 10ZM4 10C5.10457 10 6 10.8954 6 12C6 13.1046 5.10457 14 4 14C2.89543 14 2 13.1046 2 12C2 10.8954 2.89543 10 4 10ZM12 1C13.1046 1 14 1.89543 14 3C14 4.10457 13.1046 5 12 5C10.8954 5 10 4.10457 10 3C10 1.89543 10.8954 1 12 1ZM20 1C21.1046 1 22 1.89543 22 3C22 4.10457 21.1046 5 20 5C18.8954 5 18 4.10457 18 3C18.0033 1.8968 18.8968 1.00329 20 1ZM4 1C5.10457 1 6 1.89543 6 3C6 4.10457 5.10457 5 4 5C2.89543 5 2 4.10457 2 3C2 1.89543 2.89543 1 4 1ZM12 19C13.1046 19 14 19.8954 14 21C14 22.1046 13.1046 23 12 23C10.8954 23 10 22.1046 10 21C10 19.8954 10.8954 19 12 19ZM20 19C21.1046 19 22 19.8954 22 21C22 22.1046 21.1046 23 20 23C18.8954 23 18 22.1046 18 21C18.0033 19.8968 18.8968 19.0033 20 19ZM4 19C5.10457 19 6 19.8954 6 21C6 22.1046 5.10457 23 4 23C2.89543 23 2 22.1046 2 21C2 19.8954 2.89543 19 4 19Z" fill="#6C6F80"/>
</svg>
