<svg xmlns="http://www.w3.org/2000/svg" width="25" height="24" fill="none" viewBox="0 0 25 24">
  <path fill="#6C6F80" fill-rule="evenodd" d="M12.5 10.85a1.333 1.333 0 1 1 0 2.666 1.333 1.333 0 0 1 0-2.666Zm5.333 0a1.333 1.333 0 1 1 0 2.666 1.333 1.333 0 0 1 0-2.666Zm-10.666 0a1.333 1.333 0 1 1 0 2.666 1.333 1.333 0 0 1 0-2.666Zm5.333-6a1.333 1.333 0 1 1 0 2.666 1.333 1.333 0 0 1 0-2.666Zm5.333 0a1.333 1.333 0 1 1 0 2.666 1.333 1.333 0 0 1 0-2.666Zm-10.666 0a1.333 1.333 0 1 1 0 2.666 1.333 1.333 0 0 1 0-2.666Zm5.333 12a1.333 1.333 0 1 1 0 2.666 1.333 1.333 0 0 1 0-2.666Zm5.333 0a1.333 1.333 0 1 1 0 2.666 1.333 1.333 0 0 1 0-2.666Zm-10.666 0a1.333 1.333 0 1 1 0 2.666 1.333 1.333 0 0 1 0-2.666Z" clip-rule="evenodd"/>
</svg>
