<svg width="24" height="24" viewBox="0 0 24 24" fill="none" xmlns="http://www.w3.org/2000/svg">
<path d="M13.6869 14.5098C14.4639 15.7524 14.9304 17.5116 14.9114 19.5295C15.5236 19.5295 24.0949 12 20.4215 1.33337C16.1359 2.58828 10.0135 7.60788 9.40129 10.7451C10.4761 11.0466 11.6483 11.8573 12.4625 12.6275C13.0747 10.7451 15.5236 8.23533 17.3603 6.98043C15.5236 9.49024 14.2992 11.3726 13.6869 14.5098Z" fill="#6C6F80"/>
<path d="M2.66669 12.0001C3.27892 17.6471 6.3401 22.0393 11.238 22.6667C11.238 19.5295 7.56456 15.1373 6.34009 14.5099C10.0135 15.1373 12.4624 18.2746 13.6869 22.0393C13.6869 22.0393 14.2991 9.49025 2.66669 12.0001Z" fill="#6C6F80"/>
</svg>
