<svg xmlns="http://www.w3.org/2000/svg" width="25" height="24" fill="none" viewBox="0 0 25 24">
  <path fill="#6C6F80" d="m19.75 16.45-1.5-1.55a3.05 3.05 0 0 0 1.625-1.063A2.867 2.867 0 0 0 20.5 12c0-.834-.292-1.542-.875-2.125A2.893 2.893 0 0 0 17.5 9h-4V7h4c1.383 0 2.563.487 3.538 1.462.975.975 1.462 2.155 1.462 3.538 0 .95-.246 1.825-.737 2.625a4.79 4.79 0 0 1-2.013 1.825ZM16.35 13l-2-2h2.15v2h-.15Zm3.95 9.6L1.9 4.2l1.4-1.4 18.4 18.4-1.4 1.4ZM11.5 17h-4c-1.383 0-2.562-.488-3.537-1.463C2.988 14.562 2.5 13.383 2.5 12c0-1.15.35-2.175 1.05-3.075.7-.9 1.6-1.492 2.7-1.775L8.1 9h-.6a2.89 2.89 0 0 0-2.125.875A2.893 2.893 0 0 0 4.5 12c0 .833.292 1.541.875 2.125A2.893 2.893 0 0 0 7.5 15h4v2Zm-3-4v-2h1.625l1.975 2H8.5Z"/>
</svg>
