<?xml version="1.0" encoding="UTF-8"?>
<svg width="24px" height="24px" viewBox="0 0 24 24" version="1.1" xmlns="http://www.w3.org/2000/svg" xmlns:xlink="http://www.w3.org/1999/xlink">
    <title>Icons/24/media-fullscreen</title>
    <g id="Icons/24/media-fullscreen" stroke="none" stroke-width="1" fill="none" fill-rule="evenodd">
        <path d="M5,5 L10,5 L10,7 L7,7 L7,10 L5,10 L5,5 L5,5 Z M14,5 L19,5 L19,10 L17,10 L17,7 L14,7 L14,5 L14,5 Z M17,14 L19,14 L19,19 L14,19 L14,17 L17,17 L17,14 L17,14 Z M10,17 L10,19 L5,19 L5,14 L7,14 L7,17 L10,17 Z" id="icon" fill="#45FF00"></path>
    </g>
</svg>