<?xml version="1.0" encoding="UTF-8"?>
<svg width="24px" height="24px" viewBox="0 0 24 24" version="1.1" xmlns="http://www.w3.org/2000/svg" xmlns:xlink="http://www.w3.org/1999/xlink">
    <title>Icons/24/media-playlist.remove</title>
    <g id="Icons/24/media-playlist.remove" stroke="none" stroke-width="1" fill="none" fill-rule="evenodd">
        <path d="M3,7 L3,9 L15,9 L15,7 L3,7 L3,7 Z M3,11 L3,13 L12,13 L12,11 L3,11 L3,11 Z M15.17,11.76 L13.76,13.17 L16.59,16 L13.76,18.83 L15.17,20.24 L18,17.41 L20.83,20.24 L22.24,18.83 L19.41,16 L22.24,13.17 L20.83,11.76 L18,14.59 L15.17,11.76 L15.17,11.76 Z M3,15 L3,17 L12,17 L12,15 L3,15 Z" id="icon" fill="#45FF00"></path>
    </g>
</svg>