<svg width="24" height="24" viewBox="0 0 24 24" fill="none" xmlns="http://www.w3.org/2000/svg">
<path d="M19.19 8.76998C18.8833 8.76998 18.5967 8.71331 18.33 8.59998C18.07 8.48665 17.84 8.32998 17.64 8.12998C17.44 7.92998 17.2833 7.69998 17.17 7.43998C17.0567 7.17331 17 6.88665 17 6.57998C17 6.27998 17.0567 5.99665 17.17 5.72998C17.2833 5.46331 17.44 5.23331 17.64 5.03998C17.84 4.83998 18.07 4.68331 18.33 4.56998C18.5967 4.44998 18.8833 4.39331 19.19 4.39998C19.49 4.39331 19.7733 4.44998 20.04 4.56998C20.3067 4.68331 20.54 4.83998 20.74 5.03998C20.9333 5.23331 21.09 5.46331 21.21 5.72998C21.3233 5.99665 21.38 6.27998 21.38 6.57998C21.38 6.88665 21.3233 7.17331 21.21 7.43998C21.0967 7.69998 20.94 7.92998 20.74 8.12998C20.54 8.32998 20.3067 8.48665 20.04 8.59998C19.7733 8.71331 19.49 8.76998 19.19 8.76998ZM19.19 5.64998C18.93 5.64998 18.7 5.73998 18.5 5.91998C18.3333 6.09998 18.25 6.31998 18.25 6.57998C18.25 6.83998 18.3333 7.06331 18.5 7.24998C18.7 7.41665 18.93 7.49998 19.19 7.49998C19.45 7.49998 19.67 7.41665 19.85 7.24998C20.0367 7.08331 20.13 6.85998 20.13 6.57998C20.13 6.31998 20.0367 6.09998 19.85 5.91998C19.67 5.73998 19.45 5.64998 19.19 5.64998ZM22 10.33V15C22 15.42 21.92 15.82 21.76 16.2C21.5867 16.58 21.3633 16.91 21.09 17.19C20.8033 17.4766 20.47 17.7 20.09 17.86C19.6967 18.0266 19.2933 18.11 18.88 18.11C18.6267 18.11 18.3733 18.0733 18.12 18C17.86 17.9533 17.6233 17.87 17.41 17.75C17.25 18.2766 17.0133 18.7566 16.7 19.19C16.3867 19.6233 16.02 19.9933 15.6 20.3C15.18 20.6066 14.7167 20.84 14.21 21C13.7033 21.18 13.1767 21.27 12.63 21.27C11.99 21.27 11.3867 21.16 10.82 20.94C10.2733 20.72 9.77333 20.4066 9.32 20C8.88 19.62 8.51667 19.1666 8.23 18.64C7.93667 18.1066 7.74667 17.5266 7.66 16.9H2.83C2.61 16.9 2.41333 16.8166 2.24 16.65C2.08 16.49 2 16.2966 2 16.07V7.72998C2 7.50331 2.08 7.30665 2.24 7.13998C2.41333 6.97998 2.61 6.89998 2.83 6.89998H10C9.80667 6.49998 9.71 6.08331 9.71 5.64998C9.71 5.24331 9.78667 4.85998 9.94 4.49998C10.0867 4.16665 10.2933 3.85998 10.56 3.57998C10.8267 3.31998 11.14 3.11331 11.5 2.95998C11.8333 2.80665 12.2067 2.72998 12.62 2.72998C13.0267 2.72998 13.4067 2.80665 13.76 2.95998C14.1133 3.11331 14.4233 3.31998 14.69 3.57998C14.9567 3.85998 15.1633 4.16665 15.31 4.49998C15.4633 4.85998 15.54 5.24331 15.54 5.64998C15.54 6.04998 15.4633 6.42998 15.31 6.78998C15.1633 7.14331 14.9567 7.44998 14.69 7.70998C14.4233 7.97665 14.1133 8.18665 13.76 8.33998C13.4067 8.49331 13.0267 8.56998 12.62 8.56998C12.52 8.56998 12.4167 8.56331 12.31 8.54998C12.21 8.53665 12.1067 8.51998 12 8.49998V9.39998H21.06C21.32 9.39998 21.5433 9.48998 21.73 9.66998C21.91 9.84998 22 10.07 22 10.33ZM12.63 3.99998C12.3967 3.99998 12.1867 4.03665 12 4.10998C11.78 4.19665 11.5933 4.31665 11.44 4.46998C11.2933 4.62331 11.1767 4.79998 11.09 4.99998C11.0033 5.20665 10.96 5.42331 10.96 5.64998C10.96 5.88331 11.0033 6.09998 11.09 6.29998C11.1767 6.49998 11.2933 6.67665 11.44 6.82998C11.5933 6.97665 11.78 7.09665 12 7.18998C12.1867 7.27665 12.3967 7.31998 12.63 7.31998C12.8567 7.31998 13.07 7.27665 13.27 7.18998C13.47 7.09665 13.6467 6.97665 13.8 6.82998C13.9533 6.67665 14.0733 6.49998 14.16 6.29998C14.2533 6.09998 14.3 5.88331 14.3 5.64998C14.3 5.42331 14.2533 5.20665 14.16 4.99998C14.0733 4.79998 13.9533 4.62331 13.8 4.46998C13.6467 4.31665 13.47 4.19665 13.27 4.10998C13.07 4.03665 12.8567 3.99998 12.63 3.99998ZM7.78 10.18H9.66V8.61998H4.34V10.18H6.22V15.18H7.78V10.18ZM16.38 16.27V10.65H12V16.07C12 16.2966 11.92 16.49 11.76 16.65C11.5867 16.8166 11.39 16.9 11.17 16.9H8.92C9.00667 17.3466 9.16333 17.7633 9.39 18.15C9.61667 18.53 9.89 18.86 10.21 19.14C10.53 19.4133 10.8967 19.63 11.31 19.79C11.7167 19.93 12.1567 20 12.63 20C13.1433 20 13.6267 19.91 14.08 19.73C14.5333 19.53 14.9333 19.26 15.28 18.92C15.62 18.58 15.8867 18.1833 16.08 17.73C16.28 17.2766 16.38 16.79 16.38 16.27ZM20.75 15V10.65H17.63V16.36C17.7967 16.5266 17.9867 16.6533 18.2 16.74C18.4 16.82 18.6267 16.86 18.88 16.86C19.14 16.86 19.3833 16.81 19.61 16.71C19.8367 16.61 20.0333 16.4766 20.2 16.31C20.3733 16.1433 20.5067 15.9433 20.6 15.71C20.7 15.4833 20.75 15.2466 20.75 15Z" fill="#6C6F80"/>
</svg>
