<svg width="24" height="24" viewBox="0 0 24 24" fill="none" xmlns="http://www.w3.org/2000/svg">
<path d="M19.1876 9.07274C20.3957 9.07274 21.3751 8.08831 21.3751 6.87397C21.3751 5.65964 20.3957 4.67521 19.1876 4.67521C17.9794 4.67521 16.9999 5.65964 16.9999 6.87397C16.9999 8.08831 17.9794 9.07274 19.1876 9.07274Z" fill="#6C6F80"/>
<path fill-rule="evenodd" clip-rule="evenodd" d="M18.5341 16.6139V10.6432C18.5341 10.1269 18.1115 9.70085 17.5979 9.70085H21.0626C21.5769 9.70085 22 10.1262 22 10.6431V15.3158C21.999 17.0402 20.5869 18.4584 18.8713 18.4584C18.6554 18.4584 18.4402 18.4361 18.2288 18.3915C18.2222 18.39 18.2155 18.3883 18.2089 18.3868C18.419 17.8345 18.5341 17.2367 18.5341 16.6139Z" fill="#6C6F80"/>
<path fill-rule="evenodd" clip-rule="evenodd" d="M11.1663 7.18812H2.83309C2.37609 7.18812 2 7.56615 2 8.02549V16.4013C2 16.8608 2.37609 17.2388 2.83309 17.2388H11.1663C11.6233 17.2388 11.9994 16.8608 11.9994 16.4013V8.02549C11.9994 7.56615 11.6233 7.18812 11.1663 7.18812ZM7.61935 10.3135H9.48753V9.0759H4.51307V10.3135H6.39189V15.3517H7.61935V10.3135Z" fill="#6C6F80"/>
<path fill-rule="evenodd" clip-rule="evenodd" d="M9.98873 7.18812H12.0753C12.5323 7.18812 12.9084 7.56614 12.9084 8.02549V8.85008C14.3865 8.70688 15.5419 7.45501 15.5419 5.93186C15.5419 4.31265 14.236 3 12.6251 3C11.0141 3 9.70815 4.31265 9.70815 5.93186C9.70815 6.38142 9.80882 6.80735 9.98873 7.18812Z" fill="#6C6F80"/>
<path fill-rule="evenodd" clip-rule="evenodd" d="M7.86254 18.1481C7.90006 18.2654 7.94172 18.3812 7.98741 18.4957C8.07524 18.7129 8.17968 18.923 8.29997 19.124C9.19133 20.6767 10.8446 21.6363 12.6281 21.6363C15.3693 21.6363 17.6249 19.3692 17.6249 16.6139V10.6432C17.6249 10.1269 17.2024 9.70085 16.6886 9.70085H12.9083V17.3106C12.9083 17.77 12.5322 18.1481 12.0752 18.1481H7.86254Z" fill="#6C6F80"/>
</svg>
