<svg xmlns="http://www.w3.org/2000/svg" width="25" height="24" fill="none" viewBox="0 0 25 24">
  <path fill="#6C6F80" d="M19.688 8.803a2.193 2.193 0 0 0 2.187-2.2c0-1.213-.98-2.198-2.187-2.198A2.193 2.193 0 0 0 17.5 6.604c0 1.214.98 2.199 2.188 2.199Z"/>
  <path fill="#6C6F80" fill-rule="evenodd" d="M19.034 16.344v-5.97a.944.944 0 0 0-.936-.943h3.465c.514 0 .937.425.937.942v4.673c-.001 1.724-1.413 3.142-3.129 3.142-.216 0-.43-.022-.642-.066l-.02-.005c.21-.553.325-1.15.325-1.773Zm-7.368-9.426H3.333a.84.84 0 0 0-.833.837v8.376c0 .46.376.838.833.838h8.333a.84.84 0 0 0 .833-.838V7.755a.84.84 0 0 0-.833-.837ZM8.12 10.043h1.869V8.806H5.013v1.238h1.879v5.038h1.227v-5.039Z" clip-rule="evenodd"/>
  <path fill="#6C6F80" fill-rule="evenodd" d="M10.489 6.918h2.086a.84.84 0 0 1 .833.837v.825a2.926 2.926 0 0 0 2.634-2.918 2.924 2.924 0 0 0-2.917-2.932 2.924 2.924 0 0 0-2.917 2.932c0 .45.1.875.28 1.256Zm-2.126 10.96a4.525 4.525 0 0 0 .437.976 4.997 4.997 0 0 0 4.328 2.512c2.741 0 4.997-2.267 4.997-5.022v-5.97a.944.944 0 0 0-.936-.943h-3.78v7.61a.84.84 0 0 1-.834.837H8.363Z" clip-rule="evenodd"/>
</svg>
