<svg xmlns="http://www.w3.org/2000/svg" width="25" height="24" fill="none" viewBox="0 0 25 24">
  <path fill="#6C6F80" d="m11.156 16 2.594-9h.869l-2.594 9h-.869ZM4.5 15.107V8.101h1.325l2.271 3.942.746 1.49h.045c-.03-.358-.067-.747-.111-1.168a13.927 13.927 0 0 1-.056-1.222V8.101h1.236v7.006H8.631l-2.272-3.942-.746-1.49H5.57c.03.372.063.761.1 1.168.045.408.067.807.067 1.2v3.064H4.5Z"/>
  <path fill="#6C6F80" fill-rule="evenodd" d="m16.614 8.101-2.372 7.006h1.314l.568-1.896h2.45l.568 1.896H20.5l-2.372-7.006h-1.514Zm-.19 4.135.257-.857c.119-.371.23-.75.334-1.135.111-.393.215-.786.312-1.179h.044l.312 1.168c.111.393.226.775.345 1.146l.256.857h-1.86Z" clip-rule="evenodd"/>
  <path fill="#6C6F80" fill-rule="evenodd" d="M1.5 6a2 2 0 0 1 2-2h18a2 2 0 0 1 2 2v12a2 2 0 0 1-2 2h-18a2 2 0 0 1-2-2V6Zm2-.5h18a.5.5 0 0 1 .5.5v12a.5.5 0 0 1-.5.5h-18A.5.5 0 0 1 3 18V6a.5.5 0 0 1 .5-.5Z" clip-rule="evenodd"/>
</svg>
