<svg width="24" height="24" viewBox="0 0 24 24" fill="none" xmlns="http://www.w3.org/2000/svg">
<path fill-rule="evenodd" clip-rule="evenodd" d="M2.66667 5.6C2.07756 5.6 1.6 6.07756 1.6 6.66667V17.3333C1.6 17.9224 2.07756 18.4 2.66667 18.4H21.3333C21.9224 18.4 22.4 17.9224 22.4 17.3333V6.66667C22.4 6.07756 21.9224 5.6 21.3333 5.6H2.66667ZM0 6.66667C0 5.19391 1.19391 4 2.66667 4H21.3333C22.8061 4 24 5.19391 24 6.66667V17.3333C24 18.8061 22.8061 20 21.3333 20H2.66667C1.19391 20 0 18.8061 0 17.3333V6.66667Z" fill="#6C6F80"/>
<path d="M4.79167 15.3337V8.35775H6.061L8.237 12.2831L8.95167 13.7657H8.99433C8.96589 13.4031 8.93033 13.0155 8.88767 12.6031C8.85211 12.1835 8.83433 11.7782 8.83433 11.3871V8.35775H10.0183V15.3337H8.749L6.573 11.4084L5.85833 9.92575H5.81567C5.84411 10.2955 5.87611 10.6831 5.91167 11.0884C5.95433 11.4937 5.97567 11.892 5.97567 12.2831V15.3337H4.79167Z" fill="#6C6F80"/>
<path d="M11.0343 17.0404L13.5197 7.76041H14.3516L11.8663 17.0404H11.0343Z" fill="#6C6F80"/>
<path d="M16.4605 11.6217L16.2152 12.4751H17.9965L17.7512 11.6217C17.6375 11.252 17.5272 10.8715 17.4205 10.4804C17.3211 10.0893 17.2215 9.70175 17.1219 9.31775H17.0792C16.9797 9.70887 16.8801 10.1 16.7805 10.4911C16.6811 10.8751 16.5744 11.252 16.4605 11.6217ZM14.1245 15.3337L16.3965 8.35775H17.8472L20.1192 15.3337H18.8179L18.2739 13.4457H15.9272L15.3832 15.3337H14.1245Z" fill="#6C6F80"/>
</svg>
