<?xml version="1.0" encoding="UTF-8"?>
<svg width="24px" height="24px" viewBox="0 0 24 24" version="1.1" xmlns="http://www.w3.org/2000/svg" xmlns:xlink="http://www.w3.org/1999/xlink">
    <title>Icons/24/navigation-dependency</title>
    <g id="Icons/24/navigation-dependency" stroke="none" stroke-width="1" fill="none" fill-rule="evenodd">
        <path d="M10,3 L14,3 C14.5522847,3 15,3.44771525 15,4 L15,8 C15,8.55228475 14.5522847,9 14,9 L10,9 C9.44771525,9 9,8.55228475 9,8 L9,4 C9,3.44771525 9.44771525,3 10,3 Z M17,13 L7,13 L7,15 L8,15 C8.55228475,15 9,15.4477153 9,16 L9,20 C9,20.5522847 8.55228475,21 8,21 L4,21 C3.44771525,21 3,20.5522847 3,20 L3,16 C3,15.4477153 3.44771525,15 4,15 L5,15 L5,13 C5,11.8954305 5.8954305,11 7,11 L11,11 L11,9 L13,9 L13,11 L17,11 C18.0543618,11 18.9181651,11.8158778 18.9945143,12.8507377 L19,13 L19,15 L20,15 C20.5522847,15 21,15.4477153 21,16 L21,20 C21,20.5522847 20.5522847,21 20,21 L16,21 C15.4477153,21 15,20.5522847 15,20 L15,16 C15,15.4477153 15.4477153,15 16,15 L17,15 L17,13 Z M13,5 L13,7 L11,7 L11,5 L13,5 Z" id="icon" fill="#45FF00" transform="translate(12.000000, 12.000000) rotate(-90.000000) translate(-12.000000, -12.000000) "></path>
    </g>
</svg>