<?xml version="1.0" encoding="UTF-8"?>
<svg width="24px" height="24px" viewBox="0 0 24 24" version="1.1" xmlns="http://www.w3.org/2000/svg" xmlns:xlink="http://www.w3.org/1999/xlink">
    <title>Icons/24/navigation-structure_alt</title>
    <g id="Icons/24/navigation-structure_alt" stroke="none" stroke-width="1" fill="none" fill-rule="evenodd">
        <path d="M5,8 C4.44771525,8 4,7.55228475 4,7 L4,3 C4,2.44771525 4.44771525,2 5,2 L9,2 C9.55228475,2 10,2.44771525 10,3 L10,7 C10,7.55228475 9.55228475,8 9,8 L8,8 L8,11 L14,11 L14,9.85714286 C14,9.38375593 14.3837559,9 14.8571429,9 L19.1428571,9 C19.6162441,9 20,9.38375593 20,9.85714286 L20,14.1428571 C20,14.6162441 19.6162441,15 19.1428571,15 L14.8571429,15 C14.3837559,15 14,14.6162441 14,14.1428571 L14,13 L8,13 L8,18 L14,18 L14,16.8571429 C14,16.3837559 14.3837559,16 14.8571429,16 L19.1428571,16 C19.6162441,16 20,16.3837559 20,16.8571429 L20,21.1428571 C20,21.6162441 19.6162441,22 19.1428571,22 L14.8571429,22 C14.3837559,22 14,21.6162441 14,21.1428571 L14,20 L8,20 C6.8954305,20 6,19.1045695 6,18 L6,8 L5,8 Z M18,18 L16,18 L16,20 L18,20 L18,18 Z M18,11 L16,11 L16,13 L18,13 L18,11 Z" id="icon" fill="#45FF00"></path>
    </g>
</svg>