<svg width="24" height="24" viewBox="0 0 24 24" fill="none" xmlns="http://www.w3.org/2000/svg">
<path fill-rule="evenodd" clip-rule="evenodd" d="M3 14C3 14.5523 3.44772 15 4 15H8C8.55228 15 9 14.5523 9 14V13H11V17C11 18.1046 11.8954 19 13 19H15V20C15 20.5523 15.4477 21 16 21H20C20.5523 21 21 20.5523 21 20V16C21 15.4477 20.5523 15 20 15H16C15.4477 15 15 15.4477 15 16V17H13V7H15V8C15 8.55228 15.4477 9 16 9L20 9C20.5523 9 21 8.55228 21 8V4C21 3.44772 20.5523 3 20 3H16C15.4477 3 15 3.44772 15 4V5H13C11.8954 5 11 5.89543 11 7V11H9V10C9 9.44772 8.55228 9 8 9H4C3.44772 9 3 9.44772 3 10L3 14ZM5 11V13H7V11H5Z" fill="#6C6F80"/>
</svg>
