<svg width="24" height="24" viewBox="0 0 24 24" fill="none" xmlns="http://www.w3.org/2000/svg">
<path d="M9 4C9 3.44772 9.44772 3 10 3H14C14.5523 3 15 3.44772 15 4V8C15 8.55228 14.5523 9 14 9H13V11H17C18.1046 11 19 11.8954 19 13V15H20C20.5523 15 21 15.4477 21 16V20C21 20.5523 20.5523 21 20 21H16C15.4477 21 15 20.5523 15 20V16C15 15.4477 15.4477 15 16 15H17V13H7V15H8C8.55228 15 9 15.4477 9 16V20C9 20.5523 8.55228 21 8 21H4C3.44772 21 3 20.5523 3 20V16C3 15.4477 3.44772 15 4 15H5V13C5 11.8954 5.89543 11 7 11H11V9H10C9.44772 9 9 8.55228 9 8V4Z" fill="#6C6F80"/>
</svg>
