<svg width="24" height="24" viewBox="0 0 24 24" fill="none" xmlns="http://www.w3.org/2000/svg">
<path fill-rule="evenodd" clip-rule="evenodd" d="M5 2C4.44772 2 4 2.44772 4 3V7C4 7.55228 4.44772 8 5 8H6V18C6 19.1046 6.89543 20 8 20H14V21.1429C14 21.6162 14.3838 22 14.8571 22H19.1429C19.6162 22 20 21.6162 20 21.1429V16.8571C20 16.3838 19.6162 16 19.1429 16H14.8571C14.3838 16 14 16.3838 14 16.8571V18H8V13H14V14.1429C14 14.6162 14.3838 15 14.8571 15H19.1429C19.6162 15 20 14.6162 20 14.1429V9.85714C20 9.38376 19.6162 9 19.1429 9H14.8571C14.3838 9 14 9.38376 14 9.85714V11H8V8H9C9.55228 8 10 7.55228 10 7V3C10 2.44772 9.55228 2 9 2H5ZM16 20V18H18V20H16ZM16 11V13H18V11H16Z" fill="#6C6F80"/>
</svg>
