<svg width="24" height="24" viewBox="0 0 24 24" fill="none" xmlns="http://www.w3.org/2000/svg">
<path fill-rule="evenodd" clip-rule="evenodd" d="M2.66667 5.6C2.07756 5.6 1.6 6.07756 1.6 6.66667V17.3333C1.6 17.9224 2.07756 18.4 2.66667 18.4H21.3333C21.9224 18.4 22.4 17.9224 22.4 17.3333V6.66667C22.4 6.07756 21.9224 5.6 21.3333 5.6H2.66667ZM0 6.66667C0 5.19391 1.19391 4 2.66667 4H21.3333C22.8061 4 24 5.19391 24 6.66667V17.3333C24 18.8061 22.8061 20 21.3333 20H2.66667C1.19391 20 0 18.8061 0 17.3333V6.66667Z" fill="#6C6F80"/>
<path fill-rule="evenodd" clip-rule="evenodd" d="M14.1684 8.44412C14.5329 8.07963 15.1239 8.07963 15.4884 8.44412C15.8529 8.80861 15.8529 9.39956 15.4884 9.76405L13.3199 11.9325L15.4884 14.1009C15.8529 14.4655 15.8529 15.0564 15.4884 15.4209C15.1239 15.7853 14.5329 15.7853 14.1684 15.4209L12 13.2525L9.83153 15.4209C9.46705 15.7853 8.87609 15.7853 8.51161 15.4209C8.14712 15.0564 8.14712 14.4655 8.51161 14.1009L10.6801 11.9325L8.51161 9.76405C8.14712 9.39956 8.14712 8.80861 8.5116 8.44412C8.87609 8.07963 9.46705 8.07963 9.83153 8.44412L12 10.6126L14.1684 8.44412Z" fill="#6C6F80"/>
</svg>
