<svg width="24" height="24" viewBox="0 0 24 24" fill="none" xmlns="http://www.w3.org/2000/svg">
<path fill-rule="evenodd" clip-rule="evenodd" d="M17.6414 7.52536C18.6171 8.75323 19.2 10.3063 19.2 11.9939C19.2 15.9766 15.9739 19.2 12 19.2C10.31 19.2 8.75514 18.6169 7.52622 17.6405L17.6414 7.52536ZM16.0816 6.06809L6.06894 16.0808C5.26874 14.9197 4.80002 13.512 4.80002 11.9939C4.80002 8.02505 8.02434 4.79996 12 4.79996C13.5154 4.79996 14.9215 5.26847 16.0816 6.06809ZM21.3334 11.9939C21.3334 6.84573 17.1528 2.66663 12 2.66663C6.84725 2.66663 2.66669 6.84573 2.66669 11.9939C2.66669 17.1541 6.84725 21.3333 12 21.3333C17.1528 21.3333 21.3334 17.1541 21.3334 11.9939Z" fill="#6C6F80"/>
</svg>
