<svg xmlns="http://www.w3.org/2000/svg" width="25" height="24" fill="none" viewBox="0 0 25 24">
  <path fill="#6C6F80" d="M12.5 17a.968.968 0 0 0 .713-.288A.967.967 0 0 0 13.5 16a.97.97 0 0 0-.287-.713A.97.97 0 0 0 12.5 15a.967.967 0 0 0-.712.287.968.968 0 0 0-.288.713c0 .283.096.52.288.712A.965.965 0 0 0 12.5 17Zm-1-4h2V7h-2v6Zm1 9a9.733 9.733 0 0 1-3.9-.788 10.092 10.092 0 0 1-3.175-2.137c-.9-.9-1.612-1.958-2.137-3.175A9.733 9.733 0 0 1 2.5 12a9.74 9.74 0 0 1 .788-3.9 10.092 10.092 0 0 1 2.137-3.175c.9-.9 1.958-1.613 3.175-2.138A9.743 9.743 0 0 1 12.5 2a9.74 9.74 0 0 1 3.9.787 10.105 10.105 0 0 1 3.175 2.138c.9.9 1.612 1.958 2.137 3.175A9.733 9.733 0 0 1 22.5 12a9.733 9.733 0 0 1-.788 3.9 10.092 10.092 0 0 1-2.137 3.175c-.9.9-1.958 1.612-3.175 2.137a9.733 9.733 0 0 1-3.9.788Z"/>
</svg>
