<svg width="24" height="24" viewBox="0 0 24 24" fill="none" xmlns="http://www.w3.org/2000/svg">
<path fill-rule="evenodd" clip-rule="evenodd" d="M12.003 2C11.7269 2 11.503 2.22385 11.503 2.5V4.5C11.503 4.77615 11.7269 5 12.003 5C12.2792 5 12.503 4.77615 12.503 4.5V2.5C12.503 2.22385 12.2792 2 12.003 2ZM6.97309 11.6148C6.97309 8.82407 9.23498 6.56217 12.0257 6.56217C14.8164 6.56217 17.0784 8.82407 17.0784 11.6148C17.0784 13.4096 16.1603 14.5159 15.2045 15.6673C14.6656 16.3168 14.1148 16.9805 13.7099 17.7903H10.3415C9.93663 16.9805 9.38578 16.3168 8.84685 15.6673C7.89121 14.5159 6.97309 13.4096 6.97309 11.6148ZM12.0257 11.0534V8.24639L9.78011 12.1762H12.0257V14.9832L14.2713 11.0534H12.0257ZM10.3415 19.4744V18.9131H13.7099V19.4744C13.7099 20.0948 13.2204 20.5249 12.5871 20.5972C12.5871 20.5972 12.3048 20.6308 11.9948 20.6308C11.6847 20.6308 11.4643 20.5972 11.4643 20.5972C10.8169 20.4571 10.3415 20.0948 10.3415 19.4744ZM5.12869 6.56057C4.87807 6.4446 4.76893 6.14743 4.8849 5.89681C5.00087 5.64621 5.29805 5.53707 5.54866 5.65304L7.36373 6.49297C7.61434 6.60895 7.72348 6.90612 7.60751 7.15673C7.49154 7.40733 7.19437 7.51648 6.94375 7.40051L5.12869 6.56057ZM18.6075 5.89713C18.4916 5.64652 18.1944 5.53736 17.9437 5.65332L16.1287 6.49317C15.878 6.60913 15.7689 6.90631 15.8848 7.15692C16.0008 7.40753 16.298 7.51669 16.5485 7.40073L18.3637 6.56088C18.6143 6.44492 18.7235 6.14776 18.6075 5.89713Z" fill="#6C6F80"/>
</svg>
