<svg xmlns="http://www.w3.org/2000/svg" width="25" height="24" fill="none" viewBox="0 0 25 24">
  <path fill="#6C6F80" fill-rule="evenodd" d="M12.5 22a1.54 1.54 0 0 1-1.13-.47 1.541 1.541 0 0 1-.47-1.13h3.2c0 .44-.157.817-.47 1.13-.313.313-.69.47-1.13.47Zm-5.19-7a6.113 6.113 0 0 0 1.99 2.076V18.8h6.4v-1.724A6.12 6.12 0 0 0 17.69 15c.54-.92.81-1.92.81-3 0-1.667-.584-3.083-1.75-4.25C15.583 6.583 14.167 6 12.5 6c-1.667 0-3.083.583-4.25 1.75C7.083 8.917 6.5 10.333 6.5 12c0 1.08.27 2.08.81 3Zm5.19 2h-.75v-3.2H9.5l3-4.8h.75v3.2h2.25l-3 4.8Z" clip-rule="evenodd"/>
  <path fill="#6C6F80" d="M12 2h1v3h-1V2Zm6.621 2 .707.707-2.121 2.121-.707-.707L18.62 4ZM6.207 4l-.707.707 2.12 2.121.707-.707L6.207 4Z"/>
</svg>
