<svg xmlns="http://www.w3.org/2000/svg" width="25" height="24" fill="none" viewBox="0 0 25 24">
  <path fill="#6C6F80" fill-rule="evenodd" d="M8 6.5C8 7.878 6.878 9 5.5 9A2.503 2.503 0 0 1 3 6.5C3 5.122 4.122 4 5.5 4S8 5.122 8 6.5Zm-1.5 0a1.001 1.001 0 0 0-2 0 1.001 1.001 0 0 0 2 0Zm8.5 0C15 7.878 13.879 9 12.5 9A2.503 2.503 0 0 1 10 6.5C10 5.122 11.121 4 12.5 4S15 5.122 15 6.5Zm-1.5 0a1.001 1.001 0 0 0-2 0 1.001 1.001 0 0 0 2 0Zm6 2.5C20.878 9 22 7.878 22 6.5S20.878 4 19.5 4A2.503 2.503 0 0 0 17 6.5C17 7.878 18.122 9 19.5 9Zm0-3.5a1.001 1.001 0 0 1 0 2 1.001 1.001 0 0 1 0-2Z" clip-rule="evenodd"/>
  <path fill="#6C6F80" d="M17 12.5c0-1.379 1.122-2.5 2.5-2.5s2.5 1.121 2.5 2.5v2.25a.75.75 0 0 1-1.5 0V12.5a1.001 1.001 0 0 0-2 0v5c0 1.378-1.122 2.5-2.5 2.5a2.503 2.503 0 0 1-2.5-2.5v-5a1.001 1.001 0 0 0-2 0v5.25h-.013A2.503 2.503 0 0 1 9 20a2.503 2.503 0 0 1-2.5-2.5v-5a1.001 1.001 0 0 0-2 0v2.25a.75.75 0 0 1-1.5 0v-2.5h.013A2.503 2.503 0 0 1 5.5 10C6.878 10 8 11.121 8 12.5v5a1.001 1.001 0 0 0 2 0v-5c0-1.379 1.121-2.5 2.5-2.5s2.5 1.121 2.5 2.5v5a1.001 1.001 0 0 0 2 0v-5Z"/>
</svg>
