<svg width="24" height="24" viewBox="0 0 24 24" fill="none" xmlns="http://www.w3.org/2000/svg">
<path fill-rule="evenodd" clip-rule="evenodd" d="M7.26316 5.63158C7.26316 7.08263 6.08263 8.26316 4.63158 8.26316C3.18053 8.26316 2 7.08263 2 5.63158C2 4.18053 3.18053 3 4.63158 3C6.08263 3 7.26316 4.18053 7.26316 5.63158ZM5.68416 5.63165C5.68416 5.05125 5.21192 4.57902 4.63153 4.57902C4.05113 4.57902 3.57889 5.05125 3.57889 5.63165C3.57889 6.21204 4.05113 6.68428 4.63153 6.68428C5.21192 6.68428 5.68416 6.21204 5.68416 5.63165Z" fill="#6C6F80"/>
<path fill-rule="evenodd" clip-rule="evenodd" d="M14.6316 5.63158C14.6316 7.08263 13.4511 8.26316 12 8.26316C10.549 8.26316 9.36846 7.08263 9.36846 5.63158C9.36846 4.18053 10.549 3 12 3C13.4511 3 14.6316 4.18053 14.6316 5.63158ZM13.0526 5.63165C13.0526 5.05125 12.5804 4.57902 12 4.57902C11.4196 4.57902 10.9473 5.05125 10.9473 5.63165C10.9473 6.21204 11.4196 6.68428 12 6.68428C12.5804 6.68428 13.0526 6.21204 13.0526 5.63165Z" fill="#6C6F80"/>
<path fill-rule="evenodd" clip-rule="evenodd" d="M19.3683 8.26316C20.8194 8.26316 21.9999 7.08263 21.9999 5.63158C21.9999 4.18053 20.8194 3 19.3683 3C17.9173 3 16.7367 4.18053 16.7367 5.63158C16.7367 7.08263 17.9173 8.26316 19.3683 8.26316ZM19.3684 4.57902C19.9488 4.57902 20.421 5.05125 20.421 5.63165C20.421 6.21204 19.9488 6.68428 19.3684 6.68428C18.788 6.68428 18.3158 6.21204 18.3158 5.63165C18.3158 5.05125 18.788 4.57902 19.3684 4.57902Z" fill="#6C6F80"/>
<path d="M16.7368 11.9474C16.7368 10.4963 17.9174 9.31582 19.3684 9.31582C20.8195 9.31582 22 10.4963 22 11.9474V14.3158C22 14.7517 21.6464 15.1053 21.2105 15.1053C20.7746 15.1053 20.4211 14.7517 20.4211 14.3158V11.9474C20.4211 11.367 19.9488 10.8948 19.3684 10.8948C18.788 10.8948 18.3158 11.367 18.3158 11.9474V17.2106C18.3158 18.6616 17.1353 19.8421 15.6842 19.8421C14.2332 19.8421 13.0526 18.6616 13.0526 17.2106V11.9474C13.0526 11.367 12.5804 10.8948 12 10.8948C11.4196 10.8948 10.9474 11.367 10.9474 11.9474V17.4737H10.9339C10.8016 18.8017 9.67816 19.8421 8.31579 19.8421C6.86474 19.8421 5.68421 18.6616 5.68421 17.2106V11.9474C5.68421 11.367 5.21197 10.8948 4.63158 10.8948C4.05118 10.8948 3.57895 11.367 3.57895 11.9474V14.3158C3.57895 14.7517 3.22539 15.1053 2.78947 15.1053C2.35355 15.1053 2 14.7517 2 14.3158V11.6842H2.01342C2.14579 10.3562 3.26934 9.31582 4.63158 9.31582C6.08263 9.31582 7.26316 10.4963 7.26316 11.9474V17.2106C7.26316 17.791 7.73539 18.2632 8.31579 18.2632C8.89618 18.2632 9.36842 17.791 9.36842 17.2106V11.9474C9.36842 10.4963 10.5489 9.31582 12 9.31582C13.4511 9.31582 14.6316 10.4963 14.6316 11.9474V17.2106C14.6316 17.791 15.1038 18.2632 15.6842 18.2632C16.2646 18.2632 16.7368 17.791 16.7368 17.2106V11.9474Z" fill="#6C6F80"/>
</svg>
