<svg width="24" height="24" viewBox="0 0 24 24" fill="none" xmlns="http://www.w3.org/2000/svg">
<path fill-rule="evenodd" clip-rule="evenodd" d="M8.35738 12.235C8.2427 10.4131 9.47342 8.85135 11.15 8.44993V10.0792C10.4138 10.4054 9.90003 11.1426 9.90003 12C9.90003 13.1599 10.8402 14.1 12 14.1C13.1599 14.1 14.1 13.1599 14.1 12C14.1 11.1426 13.5862 10.4054 12.85 10.0792V4.00002C12.85 3.66867 12.5814 3.40002 12.25 3.40002H12.129C7.41189 3.40002 3.47316 7.1459 3.40104 11.8664C3.32782 16.6694 7.21342 20.6 12 20.6C16.4602 20.6 20.138 17.1874 20.5598 12.836C20.6082 12.3356 20.2171 11.9 19.7132 11.9C19.2727 11.9 18.9099 12.2367 18.8674 12.6731C18.5107 16.3432 15.2662 19.1805 11.4413 18.8778C8.153 18.6178 5.47826 16.0139 5.13812 12.7332C4.7402 8.8948 7.51088 5.60102 11.15 5.15207V6.71748C8.47246 7.14674 6.45227 9.5696 6.66549 12.4106C6.86181 15.0268 8.97327 17.1383 11.5895 17.3346C14.4217 17.5472 16.8385 15.5399 17.2786 12.8744C17.3636 12.3596 16.9527 11.9 16.4366 11.9C16.0219 11.9 15.6682 12.1994 15.5995 12.6083C15.2964 14.4067 13.6735 15.7628 11.7651 15.6427C9.94977 15.5284 8.47172 14.0503 8.35738 12.235Z" fill="#6C6F80"/>
<path fill-rule="evenodd" clip-rule="evenodd" d="M18 8.60002C19.1599 8.60002 20.1 7.65975 20.1 6.50002C20.1 5.3403 19.1599 4.40002 18 4.40002C16.8402 4.40002 15.9 5.3403 15.9 6.50002C15.9 7.65975 16.8402 8.60002 18 8.60002Z" fill="#6C6F80"/>
</svg>
