<svg width="24" height="24" viewBox="0 0 24 24" fill="none" xmlns="http://www.w3.org/2000/svg">
<path d="M7.96439 5.21371C7.966 5.21606 7.96762 5.21841 7.96921 5.22077L9.58545 7.60889L15.3059 7.61004C15.4852 7.61004 15.6546 7.65397 15.8043 7.7319C16.1582 7.83497 16.4539 8.12046 16.557 8.51214C16.5574 8.51362 16.5578 8.5151 16.5582 8.51658L17.9633 13.9403C18.1171 14.5341 17.774 15.1437 17.1957 15.304C16.6205 15.4634 16.0283 15.1143 15.8729 14.5243C15.8725 14.5229 15.8721 14.5214 15.8718 14.5199L15.5869 13.4237L14.2158 21.0735C14.1196 21.6103 13.6634 22 13.1314 22H11.7147C11.1851 22 10.7303 21.6138 10.6314 21.08L8.58473 10.0356L6.19552 6.50535C5.85276 5.99903 5.97225 5.30391 6.46313 4.94836C6.94914 4.59641 7.62126 4.7152 7.96439 5.21371ZM12.1551 2C13.5004 2 14.591 3.12803 14.591 4.51953C14.591 5.91104 13.5004 7.03907 12.1551 7.03907C10.8098 7.03907 9.71919 5.91104 9.71919 4.51953C9.71919 3.12803 10.8098 2 12.1551 2Z" fill="#6C6F80"/>
</svg>
