<svg xmlns="http://www.w3.org/2000/svg" width="25" height="24" fill="none" viewBox="0 0 25 24">
  <path fill="#6C6F80" d="m8.464 5.765.005.007 1.617 2.389h5.72c.18 0 .349.045.498.123a1.1 1.1 0 0 1 .753.78l.001.004 1.405 5.424a1.119 1.119 0 0 1-.767 1.364 1.076 1.076 0 0 1-1.323-.78l-.001-.004-.285-1.097-1.371 7.098A1.11 1.11 0 0 1 13.63 22h-1.416a1.11 1.11 0 0 1-1.084-.92L9.085 10.587l-2.39-3.53A1.14 1.14 0 0 1 6.964 5.5a1.06 1.06 0 0 1 1.501.265ZM12.655 2C14 2 15.091 3.128 15.091 4.52c0 1.391-1.09 2.52-2.436 2.52-1.345 0-2.436-1.129-2.436-2.52 0-1.392 1.09-2.52 2.436-2.52Z"/>
</svg>
