<?xml version="1.0" encoding="UTF-8"?>
<svg width="24px" height="24px" viewBox="0 0 24 24" version="1.1" xmlns="http://www.w3.org/2000/svg" xmlns:xlink="http://www.w3.org/1999/xlink">
    <title>Icons/24/social-network-yammer</title>
    <g id="Icons/24/social-network-yammer" stroke="none" stroke-width="1" fill="none" fill-rule="evenodd">
        <path d="M13.9890618,6.36073241 L9.54055535,17.4749461 C9.52014936,17.5544753 8.60187969,20 5.5103718,20 C4.94687587,20 4.49007216,19.5549192 4.49007216,19.0058843 C4.49007216,18.4491795 4.949207,18.0117686 5.5103718,18.0117686 C7.10203923,18.0117686 7.58158005,16.898359 7.63259504,16.7790651 L8.0101059,15.7750082 L4.07174931,6.37067356 C3.86768938,5.86367455 4.1125613,5.27714628 4.63291411,5.07832314 C5.15326692,4.86955884 5.75524371,5.10814661 5.96950663,5.62508678 L9.10182651,13.1107781 L12.0913044,5.63502794 C12.2953644,5.11808777 12.8871382,4.86955884 13.4381,5.06838198 C13.9482498,5.26720512 14.2033247,5.84379224 13.9890618,6.36073241 L13.9890618,6.36073241 Z M19.0497479,6.80808448 C18.866094,6.80808448 18.6722371,6.87767258 18.5395981,6.99696646 C18.5395981,6.99696646 14.2543397,9.96937245 14.4583996,10.2874895 C14.6522565,10.6056065 19.3864468,8.44837541 19.3966498,8.41855193 C19.7129427,8.31914036 19.9476116,8.01096449 19.9476116,7.65308284 C19.9476116,7.18584845 19.5598978,6.80808448 19.0497479,6.80808448 L19.0497479,6.80808448 Z M19.8353787,17.2065348 C19.7333487,17.0375352 19.5598978,16.9083001 19.3864468,16.8287709 C19.3864468,16.8287709 14.6318505,14.6715398 14.4583996,14.9896568 C14.2645427,15.317715 18.5395981,18.2801798 18.5395981,18.2801798 C18.794673,18.4988853 19.1823869,18.5386499 19.4986798,18.3597091 C19.9170026,18.1310625 20.0700476,17.6141223 19.8353787,17.2065348 L19.8353787,17.2065348 Z M21.569888,11.8184277 C21.3862341,11.7190161 21.1923772,11.6891926 20.9883173,11.7190161 C20.9883173,11.7190161 15.7745861,12.2458974 15.7847742,12.6137202 C15.7949921,12.9815431 20.9985202,13.3891305 21.0087232,13.3891305 C21.3556251,13.4388363 21.71273,13.2897189 21.8963839,12.9716019 C22.1106468,12.5640145 21.9882109,12.0470743 21.569888,11.8184277 Z" id="icon" fill="#45FF00"></path>
    </g>
</svg>