<?xml version="1.0" encoding="UTF-8"?>
<svg width="24px" height="24px" viewBox="0 0 24 24" version="1.1" xmlns="http://www.w3.org/2000/svg" xmlns:xlink="http://www.w3.org/1999/xlink">
    <title>Icons/24/social-network-youtube</title>
    <g id="Icons/24/social-network-youtube" stroke="none" stroke-width="1" fill="none" fill-rule="evenodd">
        <path d="M10,15 L15.19,12 L10,9 L10,15 L10,15 Z M21.56,7.17 C21.69,7.64 21.78,8.27 21.84,9.07 C21.91,9.87 21.94,10.56 21.94,11.16 L22,12 C22,14.19 21.84,15.8 21.56,16.83 C21.31,17.73 20.73,18.31 19.83,18.56 C19.36,18.69 18.5,18.78 17.18,18.84 C15.88,18.91 14.69,18.94 13.59,18.94 L12,19 C7.81,19 5.2,18.84 4.17,18.56 C3.27,18.31 2.69,17.73 2.44,16.83 C2.31,16.36 2.22,15.73 2.16,14.93 C2.09,14.13 2.06,13.44 2.06,12.84 L2,12 C2,9.81 2.16,8.2 2.44,7.17 C2.69,6.27 3.27,5.69 4.17,5.44 C4.64,5.31 5.5,5.22 6.82,5.16 C8.12,5.09 9.31,5.06 10.41,5.06 L12,5 C16.19,5 18.8,5.16 19.83,5.44 C20.73,5.69 21.31,6.27 21.56,7.17 Z" id="icon" fill="#45FF00"></path>
    </g>
</svg>