<?xml version="1.0" encoding="UTF-8"?>
<svg width="24px" height="24px" viewBox="0 0 24 24" version="1.1" xmlns="http://www.w3.org/2000/svg" xmlns:xlink="http://www.w3.org/1999/xlink">
    <title>Icons/24/social-hot_off</title>
    <g id="Icons/24/social-hot_off" stroke="none" stroke-width="1" fill="none" fill-rule="evenodd">
        <path d="M3.70710678,2.29289322 L21.7071068,20.2928932 L20.2928932,21.7071068 L17.9428746,19.3570308 C16.4789594,20.9801375 14.3591284,22 12,22 C7.58,22 4,18.42 4,14 C4,11.5307283 4.64578765,9.20555792 5.78140177,7.19604626 L2.29289322,3.70710678 L3.70710678,2.29289322 Z M11.3,12.74 C9.54,13.1 8.49,14.24 8.49,15.86 C8.49,17.6 9.93,19 11.71,19 C13.3095978,19 14.727016,18.2166275 15.5993614,17.0127756 L11.3200005,12.7359118 C11.3133329,12.7372815 11.306666,12.7386442 11.3,12.74 Z M13.5,0.67 C17.41,3.8 20,8.61 20,14 C20,14.7853145 19.8869877,15.5441121 19.676331,16.2610249 L16.4636359,13.0459705 C16.383798,12.0575642 16.2013348,11.0905689 15.92,10.16 C15.5949372,10.5966039 15.1876087,10.9803952 14.7261736,11.312345 L12.2931737,8.87828226 C13.5054318,8.29690125 14.24,6.98955492 14.24,5.47 C14.24,3.32 13.5,0.67 13.5,0.67 Z" id="icon" fill="#45FF00"></path>
    </g>
</svg>