<svg width="24" height="24" viewBox="0 0 24 24" fill="none" xmlns="http://www.w3.org/2000/svg">
<path fill-rule="evenodd" clip-rule="evenodd" d="M17.9429 19.357C16.4789 20.9801 14.3591 22 12 22C7.58001 22 4.00001 18.42 4.00001 14C4.00001 11.5306 4.64586 9.20533 5.78157 7.19575L2.29291 3.70709L3.70712 2.29288L21.7071 20.2929L20.2929 21.7071L17.9429 19.357ZM11.3214 12.7356C11.3143 12.7371 11.3071 12.7385 11.3 12.74C9.54001 13.1 8.49001 14.24 8.49001 15.86C8.49001 17.6 9.93001 19 11.71 19C13.3094 19 14.7267 18.2168 15.599 17.0132L11.3214 12.7356Z" fill="#6C6F80"/>
<path d="M20 14C20 14.7856 19.8869 15.5447 19.6761 16.2619L16.464 13.0497C16.3843 12.06 16.2017 11.0917 15.92 10.16C15.595 10.5965 15.1878 10.9803 14.7264 11.3122L12.2927 8.87848C13.5053 8.29721 14.24 6.98973 14.24 5.46998C14.24 3.31998 13.5 0.669983 13.5 0.669983C17.41 3.79998 20 8.60998 20 14Z" fill="#6C6F80"/>
</svg>
