<?xml version="1.0" encoding="UTF-8"?>
<svg width="24px" height="24px" viewBox="0 0 24 24" version="1.1" xmlns="http://www.w3.org/2000/svg" xmlns:xlink="http://www.w3.org/1999/xlink">
    <title>Icons/24/social-network-pinterest</title>
    <g id="Icons/24/social-network-pinterest" stroke="none" stroke-width="1" fill="none" fill-rule="evenodd">
        <path d="M9.04,21.54 C10,21.83 10.97,22 12,22 C17.5228475,22 22,17.5228475 22,12 C22,9.3478351 20.9464316,6.80429597 19.0710678,4.92893219 C17.195704,3.0535684 14.6521649,2 12,2 C6.4771525,2 2,6.4771525 2,12 C2,16.25 4.67,19.9 8.44,21.34 C8.35,20.56 8.26,19.27 8.44,18.38 L9.59,13.44 C9.59,13.44 9.3,12.86 9.3,11.94 C9.3,10.56 10.16,9.53 11.14,9.53 C12,9.53 12.4,10.16 12.4,10.97 C12.4,11.83 11.83,13.06 11.54,14.24 C11.37,15.22 12.06,16.08 13.06,16.08 C14.84,16.08 16.22,14.18 16.22,11.5 C16.22,9.1 14.5,7.46 12.03,7.46 C9.21,7.46 7.55,9.56 7.55,11.77 C7.55,12.63 7.83,13.5 8.29,14.07 C8.38,14.13 8.38,14.21 8.35,14.36 L8.06,15.45 C8.06,15.62 7.95,15.68 7.78,15.56 C6.5,15 5.76,13.18 5.76,11.71 C5.76,8.55 8,5.68 12.32,5.68 C15.76,5.68 18.44,8.15 18.44,11.43 C18.44,14.87 16.31,17.63 13.26,17.63 C12.29,17.63 11.34,17.11 11,16.5 L10.33,18.87 C10.1,19.73 9.47,20.88 9.04,21.57 L9.04,21.54 Z" id="icon" fill="#45FF00"></path>
    </g>
</svg>