<svg width="24" height="24" viewBox="0 0 24 24" fill="none" xmlns="http://www.w3.org/2000/svg">
<path fill-rule="evenodd" clip-rule="evenodd" d="M13.5 0.669983C13.5 0.669983 14.24 3.31998 14.24 5.46998C14.24 7.52998 12.89 9.19998 10.83 9.19998C8.76 9.19998 7.2 7.52998 7.2 5.46998L7.23 5.10998C5.21 7.50998 4 10.62 4 14C4 18.42 7.58 22 12 22C16.42 22 20 18.42 20 14C20 8.60998 17.41 3.79998 13.5 0.669983ZM11.71 19C9.93 19 8.49 17.6 8.49 15.86C8.49 14.24 9.54 13.1 11.3 12.74C13.07 12.38 14.9 11.53 15.92 10.16C16.31 11.45 16.51 12.81 16.51 14.2C16.51 16.85 14.36 19 11.71 19Z" fill="#6C6F80"/>
</svg>
