<svg width="24" height="24" viewBox="0 0 24 24" fill="none" xmlns="http://www.w3.org/2000/svg">
<path fill-rule="evenodd" clip-rule="evenodd" d="M13.9891 6.36073L9.54056 17.4749C9.52015 17.5545 8.60188 20 5.51037 20C4.94688 20 4.49007 19.5549 4.49007 19.0059C4.49007 18.4492 4.94921 18.0118 5.51037 18.0118C7.10204 18.0118 7.58158 16.8984 7.6326 16.7791L8.01011 15.775L4.07175 6.37067C3.86769 5.86367 4.11256 5.27715 4.63291 5.07832C5.15327 4.86956 5.75524 5.10815 5.96951 5.62509L9.10183 13.1108L12.0913 5.63503C12.2954 5.11809 12.8871 4.86956 13.4381 5.06838C13.9482 5.26721 14.2033 5.84379 13.9891 6.36073ZM19.0497 6.80808C18.8661 6.80808 18.6722 6.87767 18.5396 6.99697C18.5396 6.99697 14.2543 9.96937 14.4584 10.2875C14.6523 10.6056 19.3864 8.44838 19.3967 8.41855C19.7129 8.31914 19.9476 8.01096 19.9476 7.65308C19.9476 7.18585 19.5599 6.80808 19.0497 6.80808ZM19.8354 17.2065C19.7333 17.0375 19.5599 16.9083 19.3864 16.8288C19.3864 16.8288 14.6319 14.6715 14.4584 14.9897C14.2645 15.3177 18.5396 18.2802 18.5396 18.2802C18.7947 18.4989 19.1824 18.5386 19.4987 18.3597C19.917 18.1311 20.07 17.6141 19.8354 17.2065ZM21.5699 11.8184C21.3862 11.719 21.1924 11.6892 20.9883 11.719C20.9883 11.719 15.7746 12.2459 15.7848 12.6137C15.795 12.9815 20.9985 13.3891 21.0087 13.3891C21.3556 13.4388 21.7127 13.2897 21.8964 12.9716C22.1106 12.564 21.9882 12.0471 21.5699 11.8184Z" fill="#6C6F80"/>
</svg>
