<?xml version="1.0" encoding="UTF-8"?>
<svg width="24px" height="24px" viewBox="0 0 24 24" version="1.1" xmlns="http://www.w3.org/2000/svg" xmlns:xlink="http://www.w3.org/1999/xlink">
    <title>Icons/24/social-network-vk</title>
    <g id="Icons/24/social-network-vk" stroke="none" stroke-width="1" fill="none" fill-rule="evenodd">
        <path d="M20.8,7.74 C20.93,7.32 20.8,7 20.18,7 L18.16,7 C17.64,7 17.41,7.27 17.28,7.57 C17.28,7.57 16.25,10.08 14.79,11.72 C14.31,12.19 14.1,12.34 13.84,12.34 C13.71,12.34 13.5,12.19 13.5,11.76 L13.5,7.74 C13.5,7.23 13.38,7 12.95,7 L9.76,7 C9.44,7 9.25,7.24 9.25,7.47 C9.25,7.95 10,8.07 10.05,9.44 L10.05,12.42 C10.05,13.08 9.93,13.2 9.68,13.2 C9,13.2 7.32,10.67 6.33,7.79 C6.13,7.23 5.94,7 5.42,7 L3.39,7 C2.82,7 2.7,7.27 2.7,7.57 C2.7,8.11 3.39,10.77 5.9,14.29 C7.57,16.7 9.93,18 12.08,18 C13.37,18 13.53,17.71 13.53,17.21 L13.53,15.39 C13.53,14.82 13.65,14.7 14.06,14.7 C14.36,14.7 14.87,14.85 16.07,16 C17.45,17.38 17.67,18 18.45,18 L20.47,18 C21.05,18 21.34,17.71 21.18,17.14 C21,16.57 20.34,15.74 19.47,14.76 C19,14.21 18.29,13.61 18.07,13.3 C17.77,12.92 17.86,12.75 18.07,12.4 C18.07,12.4 20.54,8.93 20.8,7.74 Z" id="icon" fill="#45FF00"></path>
    </g>
</svg>