<?xml version="1.0" encoding="UTF-8"?>
<svg width="24px" height="24px" viewBox="0 0 24 24" version="1.1" xmlns="http://www.w3.org/2000/svg" xmlns:xlink="http://www.w3.org/1999/xlink">
    <title>Icons/24/social-network-twitter</title>
    <g id="Icons/24/social-network-twitter" stroke="none" stroke-width="1" fill="none" fill-rule="evenodd">
        <path d="M23,6 C22.2270554,6.35 21.3938815,6.58 20.5305927,6.69 C21.4139579,6.16 22.0965583,5.32 22.417782,4.31 C21.584608,4.81 20.6610899,5.16 19.6873805,5.36 C18.8943595,4.5 17.7801147,4 16.5152964,4 C14.1563098,4 12.2289675,5.92 12.2289675,8.29 C12.2289675,8.63 12.2691205,8.96 12.3393881,9.27 C8.76577438,9.09 5.58365201,7.38 3.46558317,4.79 C3.09416826,5.42 2.8833652,6.16 2.8833652,6.94 C2.8833652,8.43 3.63623327,9.75 4.80066922,10.5 C4.08795411,10.5 3.42543021,10.3 2.84321224,10 C2.84321224,10 2.84321224,10 2.84321224,10.03 C2.84321224,12.11 4.32887189,13.85 6.29636711,14.24 C5.93499044,14.34 5.55353728,14.39 5.16204589,14.39 C4.89101338,14.39 4.61998088,14.36 4.35898662,14.31 C4.90105163,16 6.47705545,17.26 8.37428298,17.29 C6.90869981,18.45 5.05162524,19.13 3.02390057,19.13 C2.68260038,19.13 2.34130019,19.11 2,19.07 C3.90726577,20.29 6.17590822,21 8.60516252,21 C16.5152964,21 20.8618547,14.46 20.8618547,8.79 C20.8618547,8.6 20.8618547,8.42 20.8518164,8.23 C21.6950287,7.63 22.417782,6.87 23,6 Z" id="icon" fill="#45FF00"></path>
    </g>
</svg>