<svg width="24" height="24" viewBox="0 0 24 24" fill="none" xmlns="http://www.w3.org/2000/svg">
<path fill-rule="evenodd" clip-rule="evenodd" d="M23 6C22.2271 6.35 21.3939 6.58 20.5306 6.69C21.414 6.16 22.0966 5.32 22.4178 4.31C21.5846 4.81 20.6611 5.16 19.6874 5.36C18.8944 4.5 17.7801 4 16.5153 4C14.1563 4 12.229 5.92 12.229 8.29C12.229 8.63 12.2691 8.96 12.3394 9.27C8.76577 9.09 5.58365 7.38 3.46558 4.79C3.09417 5.42 2.88337 6.16 2.88337 6.94C2.88337 8.43 3.63623 9.75 4.80067 10.5C4.08795 10.5 3.42543 10.3 2.84321 10C2.84321 10 2.84321 10 2.84321 10.03C2.84321 12.11 4.32887 13.85 6.29637 14.24C5.93499 14.34 5.55354 14.39 5.16205 14.39C4.89101 14.39 4.61998 14.36 4.35899 14.31C4.90105 16 6.47706 17.26 8.37428 17.29C6.9087 18.45 5.05163 19.13 3.0239 19.13C2.6826 19.13 2.3413 19.11 2 19.07C3.90727 20.29 6.17591 21 8.60516 21C16.5153 21 20.8619 14.46 20.8619 8.79C20.8619 8.6 20.8619 8.42 20.8518 8.23C21.695 7.63 22.4178 6.87 23 6Z" fill="#6C6F80"/>
</svg>
