<svg xmlns="http://www.w3.org/2000/svg" width="25" height="24" fill="none" viewBox="0 0 25 24">
  <path fill="#6C6F80" fill-rule="evenodd" d="m7.672 5 4.076 4.659 1.505-1.317L11.31 6.12a6 6 0 0 1 6.497 8.682l1.769.934a8 8 0 0 0-8.48-11.611l2.158-2.466L11.748.342 7.672 5Zm2.664-.007.008.023L10.329 5l.007-.007Z" clip-rule="evenodd"/>
  <path fill="#6C6F80" d="M5.436 8.244a8 8 0 0 0 7.673 11.733l-2.316 2.316 1.414 1.414L16.914 19l-4.707-4.707-1.414 1.414 2.267 2.267a6 6 0 0 1-5.858-8.79l-1.766-.94Z"/>
</svg>
