<?xml version="1.0" encoding="UTF-8"?>
<svg width="24px" height="24px" viewBox="0 0 24 24" version="1.1" xmlns="http://www.w3.org/2000/svg" xmlns:xlink="http://www.w3.org/1999/xlink">
    <title>Icons/24/table-column_plus_after</title>
    <g id="Icons/24/table-column_plus_after" stroke="none" stroke-width="1" fill="none" fill-rule="evenodd">
        <path d="M11,2 C12.1045695,2 13,2.8954305 13,4 L13,20 C13,21.1045695 12.1045695,22 11,22 L2,22 L2,2 L11,2 L11,2 Z M4,10 L4,14 L11,14 L11,10 L4,10 L4,10 Z M4,16 L4,20 L11,20 L11,16 L4,16 L4,16 Z M4,4 L4,8 L11,8 L11,4 L4,4 L4,4 Z M15,11 L18,11 L18,8 L20,8 L20,11 L23,11 L23,13 L20,13 L20,16 L18,16 L18,13 L15,13 L15,11 Z" id="icon" fill="#45FF00"></path>
    </g>
</svg>