<?xml version="1.0" encoding="UTF-8"?>
<svg width="24px" height="24px" viewBox="0 0 24 24" version="1.1" xmlns="http://www.w3.org/2000/svg" xmlns:xlink="http://www.w3.org/1999/xlink">
    <title>Icons/24/table-row_plus_after</title>
    <g id="Icons/24/table-row_plus_after" stroke="none" stroke-width="1" fill="none" fill-rule="evenodd">
        <path d="M22,10 C22,11.1045695 21.1045695,12 20,12 L4,12 C2.8954305,12 2,11.1045695 2,10 L2,3 L4,3 L4,5 L8,5 L8,3 L10,3 L10,5 L14,5 L14,3 L16,3 L16,5 L20,5 L20,3 L22,3 L22,10 L22,10 Z M4,10 L8,10 L8,7 L4,7 L4,10 L4,10 Z M10,10 L14,10 L14,7 L10,7 L10,10 L10,10 Z M20,10 L20,7 L16,7 L16,10 L20,10 L20,10 Z M11,14 L13,14 L13,17 L16,17 L16,19 L13,19 L13,22 L11,22 L11,19 L8,19 L8,17 L11,17 L11,14 Z" id="icon" fill="#45FF00"></path>
    </g>
</svg>