<?xml version="1.0" encoding="UTF-8"?>
<svg width="24px" height="24px" viewBox="0 0 24 24" version="1.1" xmlns="http://www.w3.org/2000/svg" xmlns:xlink="http://www.w3.org/1999/xlink">
    <title>Icons/24/table-table_search</title>
    <g id="Icons/24/table-table_search" stroke="none" stroke-width="1" fill="none" fill-rule="evenodd">
        <path d="M18.3,17.89 C19.62,15.79 19,13 16.89,11.68 C14.79,10.36 12,11 10.68,13.09 C9.36,15.2 10,18 12.09,19.3 C13.56,20.22 15.42,20.22 16.89,19.3 L20,22.39 L21.39,21 L18.3,17.89 L18.3,17.89 Z M16.3,17.27 C15.32,18.25 13.74,18.24 12.76,17.27 C11.79,16.29 11.79,14.71 12.77,13.73 C13.74,12.76 15.32,12.76 16.3,13.73 C17.26,14.72 17.25,16.3 16.27,17.27 L16.3,17.27 L16.3,17.27 Z M18,4 L4,4 C2.8954305,4 2,4.8954305 2,6 L2,18 C2,19.1045695 2.8954305,20 4,20 L9.81,20 C9.25,19.42 8.8,18.74 8.5,18 L4,18 L4,14 L8.18,14 C8.34,13.29 8.61,12.61 9,12 L4,12 L4,8 L10,8 L10,10.81 C10.58,10.25 11.26,9.8 12,9.5 L12,8 L18,8 L18,10 C18.4,10.25 18.77,10.55 19.1,10.88 C19.44,11.22 19.74,11.59 20,12 L20,6 C20,4.8954305 19.1045695,4 18,4 Z" id="icon" fill="#45FF00"></path>
    </g>
</svg>