<?xml version="1.0" encoding="UTF-8"?>
<svg width="24px" height="24px" viewBox="0 0 24 24" version="1.1" xmlns="http://www.w3.org/2000/svg" xmlns:xlink="http://www.w3.org/1999/xlink">
    <title>Icons/24/table-row</title>
    <g id="Icons/24/table-row" stroke="none" stroke-width="1" fill="none" fill-rule="evenodd">
        <path d="M22,14 C22,15.1045695 21.1045695,16 20,16 L4,16 C2.8954305,16 2,15.1045695 2,14 L2,10 C2,8.8954305 2.8954305,8 4,8 L20,8 C21.1045695,8 22,8.8954305 22,10 L22,14 L22,14 Z M4,14 L8,14 L8,10 L4,10 L4,14 L4,14 Z M10,14 L14,14 L14,10 L10,10 L10,14 L10,14 Z M16,14 L20,14 L20,10 L16,10 L16,14 Z" id="icon" fill="#45FF00"></path>
    </g>
</svg>