<svg width="24" height="24" viewBox="0 0 24 24" fill="none" xmlns="http://www.w3.org/2000/svg">
<path fill-rule="evenodd" clip-rule="evenodd" d="M15.46 16.88L16.88 15.46L19 17.59L21.12 15.46L22.54 16.88L20.41 19L22.54 21.12L21.12 22.54L19 20.41L16.88 22.54L15.46 21.12L17.59 19L15.46 16.88ZM4 4H18C19.1046 4 20 4.89543 20 6V13.08C18.45 12.82 16.92 13.18 15.68 14H12V18H13.08C12.97 18.68 12.97 19.35 13.08 20H4C2.89543 20 2 19.1046 2 18V6C2 4.89543 2.89543 4 4 4ZM4 8V12H10V8H4ZM12 8V12H18V8H12ZM4 14V18H10V14H4Z" fill="#6C6F80"/>
</svg>
