<svg width="24" height="24" viewBox="0 0 24 24" fill="none" xmlns="http://www.w3.org/2000/svg">
<path fill-rule="evenodd" clip-rule="evenodd" d="M21.7 15.35L20.7 16.35L18.65 14.3L19.65 13.3C19.86 13.08 20.21 13.08 20.42 13.3L21.7 14.58C21.92 14.79 21.92 15.14 21.7 15.35ZM12 20.94L18.07 14.88L20.12 16.93L14.06 23H12V20.94ZM4 4H18C19.1046 4 20 4.89543 20 6V10.17L16.17 14H12V18.17L10.17 20H4C2.89543 20 2 19.1046 2 18V6C2 4.89543 2.89543 4 4 4ZM4 8V12H10V8H4ZM12 8V12H18V8H12ZM4 14V18H10V14H4Z" fill="#6C6F80"/>
</svg>
