<?xml version="1.0" encoding="UTF-8"?>
<svg width="24px" height="24px" viewBox="0 0 24 24" version="1.1" xmlns="http://www.w3.org/2000/svg" xmlns:xlink="http://www.w3.org/1999/xlink">
    <title>Icons/24/table-row_plus_before</title>
    <g id="Icons/24/table-row_plus_before" stroke="none" stroke-width="1" fill="none" fill-rule="evenodd">
        <path d="M22,14 C22,12.8954305 21.1045695,12 20,12 L4,12 C2.8954305,12 2,12.8954305 2,14 L2,21 L4,21 L4,19 L8,19 L8,21 L10,21 L10,19 L14,19 L14,21 L16,21 L16,19 L20,19 L20,21 L22,21 L22,14 L22,14 Z M4,14 L8,14 L8,17 L4,17 L4,14 L4,14 Z M10,14 L14,14 L14,17 L10,17 L10,14 L10,14 Z M20,14 L20,17 L16,17 L16,14 L20,14 L20,14 Z M11,10 L13,10 L13,7 L16,7 L16,5 L13,5 L13,2 L11,2 L11,5 L8,5 L8,7 L11,7 L11,10 Z" id="icon" fill="#45FF00"></path>
    </g>
</svg>