<?xml version="1.0" encoding="UTF-8"?>
<svg width="24px" height="24px" viewBox="0 0 24 24" version="1.1" xmlns="http://www.w3.org/2000/svg" xmlns:xlink="http://www.w3.org/1999/xlink">
    <title>Icons/24/table-column</title>
    <g id="Icons/24/table-column" stroke="none" stroke-width="1" fill="none" fill-rule="evenodd">
        <path d="M8,2 L16,2 C17.1045695,2 18,2.8954305 18,4 L18,20 C18,21.1045695 17.1045695,22 16,22 L8,22 C6.8954305,22 6,21.1045695 6,20 L6,4 C6,2.8954305 6.8954305,2 8,2 L8,2 Z M8,10 L8,14 L16,14 L16,10 L8,10 L8,10 Z M8,16 L8,20 L16,20 L16,16 L8,16 L8,16 Z M8,4 L8,8 L16,8 L16,4 L8,4 Z" id="icon" fill="#45FF00"></path>
    </g>
</svg>