<?xml version="1.0" encoding="UTF-8"?>
<svg width="24px" height="24px" viewBox="0 0 24 24" version="1.1" xmlns="http://www.w3.org/2000/svg" xmlns:xlink="http://www.w3.org/1999/xlink">
    <title>Icons/24/table-table_remove</title>
    <g id="Icons/24/table-table_remove" stroke="none" stroke-width="1" fill="none" fill-rule="evenodd">
        <path d="M15.46,16.88 L16.88,15.46 L19,17.59 L21.12,15.46 L22.54,16.88 L20.41,19 L22.54,21.12 L21.12,22.54 L19,20.41 L16.88,22.54 L15.46,21.12 L17.59,19 L15.46,16.88 L15.46,16.88 Z M4,4 L18,4 C19.1045695,4 20,4.8954305 20,6 L20,13.08 C18.45,12.82 16.92,13.18 15.68,14 L12,14 L12,18 L13.08,18 C12.97,18.68 12.97,19.35 13.08,20 L4,20 C2.8954305,20 2,19.1045695 2,18 L2,6 C2,4.8954305 2.8954305,4 4,4 L4,4 Z M4,8 L4,12 L10,12 L10,8 L4,8 L4,8 Z M12,8 L12,12 L18,12 L18,8 L12,8 L12,8 Z M4,14 L4,18 L10,18 L10,14 L4,14 Z" id="icon" fill="#45FF00"></path>
    </g>
</svg>