<?xml version="1.0" encoding="UTF-8"?>
<svg width="24px" height="24px" viewBox="0 0 24 24" version="1.1" xmlns="http://www.w3.org/2000/svg" xmlns:xlink="http://www.w3.org/1999/xlink">
    <title>Icons/24/table-table</title>
    <g id="Icons/24/table-table" stroke="none" stroke-width="1" fill="none" fill-rule="evenodd">
        <path d="M5,4 L19,4 C20.1045695,4 21,4.8954305 21,6 L21,18 C21,19.1045695 20.1045695,20 19,20 L5,20 C3.8954305,20 3,19.1045695 3,18 L3,6 C3,4.8954305 3.8954305,4 5,4 L5,4 Z M5,8 L5,12 L11,12 L11,8 L5,8 L5,8 Z M13,8 L13,12 L19,12 L19,8 L13,8 L13,8 Z M5,14 L5,18 L11,18 L11,14 L5,14 L5,14 Z M13,14 L13,18 L19,18 L19,14 L13,14 Z" id="icon" fill="#45FF00"></path>
    </g>
</svg>