<svg width="24" height="24" viewBox="0 0 24 24" fill="none" xmlns="http://www.w3.org/2000/svg">
<path fill-rule="evenodd" clip-rule="evenodd" d="M18.3 17.89C19.62 15.79 19 13 16.89 11.68C14.79 10.36 12 11 10.68 13.09C9.36 15.2 10 18 12.09 19.3C13.56 20.22 15.42 20.22 16.89 19.3L20 22.39L21.39 21L18.3 17.89ZM16.3 17.27C15.32 18.25 13.74 18.24 12.76 17.27C11.79 16.29 11.79 14.71 12.77 13.73C13.74 12.76 15.32 12.76 16.3 13.73C17.26 14.72 17.25 16.3 16.27 17.27H16.3ZM18 4H4C2.89543 4 2 4.89543 2 6V18C2 19.1046 2.89543 20 4 20H9.81C9.25 19.42 8.8 18.74 8.5 18H4V14H8.18C8.34 13.29 8.61 12.61 9 12H4V8H10V10.81C10.58 10.25 11.26 9.8 12 9.5V8H18V10C18.4 10.25 18.77 10.55 19.1 10.88C19.44 11.22 19.74 11.59 20 12V6C20 4.89543 19.1046 4 18 4Z" fill="#6C6F80"/>
</svg>
