<svg width="24" height="24" viewBox="0 0 24 24" fill="none" xmlns="http://www.w3.org/2000/svg">
<path d="M4.61539 4.00003H10.3846C10.7245 4.00003 11 4.27554 11 4.61541V10.3846C11 10.7245 10.7245 11 10.3846 11H4.61539C4.27551 11 4 10.7245 4 10.3846V4.61541C4 4.27554 4.27551 4.00003 4.61539 4.00003Z" fill="#6C6F80"/>
<path d="M13.6154 4L19.3846 4.00003C19.7245 4.00003 20 4.27554 20 4.61541V10.3847C20 10.7246 19.7245 11.0001 19.3846 11.0001L13.6154 11C13.2755 11 13 10.7245 13 10.3846V4.61539C13 4.27551 13.2755 4 13.6154 4Z" fill="#6C6F80"/>
<path d="M10.3846 13H4.61539C4.27551 13 4 13.2755 4 13.6154L4 19.3846C4 19.7245 4.27551 20 4.61539 20H10.3846C10.7245 20 11 19.7245 11 19.3846V13.6154C11 13.2755 10.7245 13 10.3846 13Z" fill="#6C6F80"/>
<path d="M13.6154 13H19.3846C19.7245 13 20 13.2755 20 13.6154V19.3846C20 19.7245 19.7245 20 19.3846 20H13.6154C13.2755 20 13 19.7245 13 19.3846V13.6154C13 13.2755 13.2755 13 13.6154 13Z" fill="#6C6F80"/>
</svg>
