<svg xmlns="http://www.w3.org/2000/svg" width="25" height="24" fill="none" viewBox="0 0 25 24">
  <path fill="#6C6F80" d="M20.037 13.294a1.64 1.64 0 0 0-.859-.486l-1.376-6.956c.377-.413.607-.97.603-1.58-.01-1.265-1.013-2.282-2.241-2.272-1.229.01-2.217 1.042-2.207 2.306a2.32 2.32 0 0 0 .508 1.438l-7.293 11.95a2.067 2.067 0 0 0-.56-.074c-1.175.01-2.12.997-2.112 2.206.01 1.21.97 2.183 2.145 2.174 1.175-.01 2.12-.997 2.112-2.207a2.218 2.218 0 0 0-.508-1.402l7.272-11.917a2.163 2.163 0 0 0 1.115.054l1.292 6.53a1.65 1.65 0 0 0-.23.184 1.726 1.726 0 0 0-.043 2.398c.634.676 1.681.7 2.339.052a1.726 1.726 0 0 0 .043-2.398Z"/>
</svg>
