<svg xmlns="http://www.w3.org/2000/svg" width="25" height="24" fill="none" viewBox="0 0 25 24">
  <path fill="#6C6F80" fill-rule="evenodd" d="M9.413 21.587a10.038 10.038 0 0 1-6.913-9.55C2.5 6.494 6.977 2 12.5 2s10 4.494 10 10.037c0 4.462-2.9 8.245-6.913 9.55a.884.884 0 0 0-.881-.84h-1.324v-2.658a.886.886 0 0 0-.588-.835v-6.102h4.409l-1.553 4.133h-.062a2.203 2.203 0 0 0 3.732.001l.007-.001-1.694-4.133h1.338c.325 0 .41-.453.106-.57l-6.283-2.437V6.968a.886.886 0 0 0-.294-1.72.886.886 0 0 0-.294 1.72v1.177L5.923 10.58c-.303.118-.22.57.106.57h1.406l-1.553 4.134H5.82a2.202 2.202 0 0 0 3.732.001l.007-.001-1.693-4.133h4.34v6.102a.886.886 0 0 0-.588.835v2.657h-1.324a.884.884 0 0 0-.881.841Zm2.793-12.81v1.784h-4.6l4.6-1.783Zm.588 1.784V8.778l4.6 1.783h-4.6ZM12.5 6.576a.442.442 0 1 1 .002-.884.442.442 0 0 1-.002.884Zm-6.313 8.709 1.466-3.88 1.6 3.88H6.187Zm9.767 0 1.467-3.88 1.6 3.88h-3.067Z" clip-rule="evenodd"/>
</svg>
