<svg xmlns="http://www.w3.org/2000/svg" width="25" height="24" fill="none" viewBox="0 0 25 24">
  <path fill="#6C6F80" fill-rule="evenodd" d="m6.684 4.728 2.355 2.378V7.1l3.647 3.712.46-.472a1.914 1.914 0 0 0 .288-2.369L8.556 2.962a1.256 1.256 0 0 0-1.906-.05L5.045 4.525a1.29 1.29 0 0 1 1.639.203Zm3.832 9.078a1.278 1.278 0 0 0-.177.196 1.305 1.305 0 0 0-.25.774c-.014.704.558 1.286 1.277 1.3a1.267 1.267 0 0 0 1.049-.563l3.21-3.271a1.306 1.306 0 0 0 .048-1.941l.011-.012-1.593-1.623a1.352 1.352 0 0 1-.2 1.673l-3.375 3.467Zm9.371-9.353-1.879 1.685a7.684 7.684 0 0 1 1.986 5.235 7.76 7.76 0 0 1-.313 2.126l.024.025-.024-.025c-.888 3.203-3.85 5.432-7.24 5.448-4.223-.117-7.551-3.56-7.438-7.693a7.672 7.672 0 0 1 2.15-5.285l-.495-.5a1.813 1.813 0 0 0-1.992-.482A10.25 10.25 0 0 0 2.5 11.235c-.044 5.623 4.398 10.218 9.92 10.265 5.522.046 10.034-4.483 10.08-10.107a10.25 10.25 0 0 0-2.613-6.94Z" clip-rule="evenodd"/>
</svg>
