<svg xmlns="http://www.w3.org/2000/svg" width="25" height="24" fill="none" viewBox="0 0 25 24">
  <path fill="#6C6F80" fill-rule="evenodd" d="M19.25 12c1.788 0 3.25 1.512 3.25 3.375v.75c0 1.863-1.45 3.375-3.25 3.375h-5.875C11.588 19.5 10 17.988 10 16.125v-.375c0-.412.338-.75.75-.75s.75.338.75.75v.375c0 1.038.912 1.875 1.875 1.875h5.875c.962 0 1.75-.837 1.75-1.875v-.75c0-1.037-.788-1.875-1.75-1.875h-3.488a.752.752 0 0 1-.75-.75c0-.412.338-.75.75-.75h3.488ZM8.738 18c.412 0 .75.337.75.75s-.338.75-.75.75H5.75c-1.788 0-3.25-1.512-3.25-3.375v-.75C2.5 13.512 3.95 12 5.75 12h5.875C13.412 12 15 13.512 15 15.375v.375c0 .413-.338.75-.75.75a.752.752 0 0 1-.75-.75v-.375c0-1.037-.912-1.875-1.875-1.875H5.75c-.963 0-1.75.838-1.75 1.875v.75C4 17.163 4.787 18 5.75 18h2.988ZM16.75 5.5c-.963 0-1.75.787-1.75 1.75S15.787 9 16.75 9c.962 0 1.75-.787 1.75-1.75s-.788-1.75-1.75-1.75Zm0 5a3.26 3.26 0 0 1-3.25-3.25A3.26 3.26 0 0 1 16.75 4 3.26 3.26 0 0 1 20 7.25a3.26 3.26 0 0 1-3.25 3.25Zm-8.5-5c-.963 0-1.75.787-1.75 1.75S7.287 9 8.25 9 10 8.213 10 7.25 9.213 5.5 8.25 5.5Zm0 5A3.26 3.26 0 0 1 5 7.25 3.26 3.26 0 0 1 8.25 4a3.26 3.26 0 0 1 3.25 3.25 3.26 3.26 0 0 1-3.25 3.25Z" clip-rule="evenodd"/>
</svg>
