<svg xmlns="http://www.w3.org/2000/svg" width="25" height="24" fill="none" viewBox="0 0 25 24">
  <path fill="#6C6F80" fill-rule="evenodd" d="m8.698 12.135-.394.394a5.556 5.556 0 1 0 7.836-7.836l-.394.394a5 5 0 1 1-7.047 7.048Zm4.08-6.58a.278.278 0 0 0-.278-.277 3.615 3.615 0 0 0-3.611 3.61.278.278 0 1 0 .555 0A3.059 3.059 0 0 1 12.5 5.834a.278.278 0 0 0 .278-.277Zm4.15-1.65a6.666 6.666 0 0 1-3.872 11.625v.581h2.222a.556.556 0 0 1 0 1.111H9.722a.556.556 0 1 1 0-1.11h2.222v-.582a6.649 6.649 0 0 1-4.918-2.834l1.204-1.204a5 5 0 0 1 6.873-6.872l.402-.403.802-.802a6.6 6.6 0 0 1 .62.49ZM3.61 8.056c0-.46.373-.833.833-.833h2.5v1.111H4.722v9.445h-1.11V8.056Zm11.1 10.292 7.333.009a.416.416 0 0 1 .457.372l-.02.855c0 .23-.186.417-.416.417H2.916a.416.416 0 0 1-.416-.417v-.833c0-.23.186-.417.416-.417l7.354.009v.13c0 .23.186.417.416.417h3.608c.23 0 .416-.187.416-.417v-.125Zm5.846-11.125h-.834v1.111h.556v9.445h1.11V8.056a.833.833 0 0 0-.832-.834Z" clip-rule="evenodd"/>
</svg>
