<svg xmlns="http://www.w3.org/2000/svg" width="25" height="24" fill="none" viewBox="0 0 25 24">
  <path fill="#6C6F80" fill-rule="evenodd" d="M10.68 8.598 7.206 7.487a.278.278 0 0 1 .17-.53l3.472 1.112a.278.278 0 0 1-.17.529Zm0 1.944-3.473-1.11a.278.278 0 0 1 .17-.53l3.472 1.111a.278.278 0 0 1-.17.53Zm0 1.945-3.473-1.111a.278.278 0 0 1 .17-.53l3.472 1.111a.278.278 0 0 1-.17.53Zm0 1.944-3.473-1.11a.278.278 0 0 1 .17-.53l3.472 1.11a.278.278 0 0 1-.17.53Zm1.148-7.884L6.498 5.01a.557.557 0 0 0-.665.551v8.965a.56.56 0 0 0 .447.55l5.942 1.59V7.078c0-.244-.16-.46-.394-.531Zm-7.384.12a.833.833 0 0 0-.833.833v9.722h1.111V7.778h.556V6.667h-.834Zm16.112 0h-.834v1.11h.556v9.445h1.11V7.5a.833.833 0 0 0-.832-.833Zm-2.763.82L14.32 8.598a.278.278 0 0 1-.17-.53l3.473-1.11a.278.278 0 0 1 .169.529Zm0 1.944-3.472 1.111a.278.278 0 0 1-.17-.53l3.473-1.11a.278.278 0 0 1 .169.53Zm0 1.945-3.472 1.11a.278.278 0 0 1-.17-.53l3.473-1.11a.278.278 0 0 1 .169.53Zm0 1.944-3.472 1.111a.278.278 0 0 1-.17-.53l3.473-1.11a.278.278 0 0 1 .169.53Zm.71-8.309-5.331 1.536a.556.556 0 0 0-.394.531v9.589l5.942-1.59a.56.56 0 0 0 .447-.55V5.562a.557.557 0 0 0-.665-.55Zm-3.793 12.78 7.333.01a.417.417 0 0 1 .457.371l-.02.856c0 .23-.186.416-.416.416H2.916a.416.416 0 0 1-.416-.416v-.834c0-.23.186-.416.416-.416l7.354.008v.13c0 .23.186.417.416.417h3.608c.23 0 .416-.186.416-.416v-.126Z" clip-rule="evenodd"/>
</svg>
