<svg xmlns="http://www.w3.org/2000/svg" width="25" height="24" fill="none" viewBox="0 0 25 24">
  <path fill="#6C6F80" fill-rule="evenodd" d="M5.616 3.59a.558.558 0 1 0 1.116 0 .558.558 0 0 0-1.116 0Zm-1.116 0a1.674 1.674 0 1 1 3.347 0 1.674 1.674 0 0 1-3.347 0Zm6.137 0a.558.558 0 1 0 1.115 0 .558.558 0 0 0-1.115 0Zm-1.116 0a1.674 1.674 0 1 1 3.347 0 1.674 1.674 0 0 1-3.347 0Zm6.694.558a.558.558 0 1 1 0-1.116.558.558 0 0 1 0 1.116Zm0-2.231a1.674 1.674 0 1 0 0 3.347 1.674 1.674 0 0 0 0-3.347Zm-.558 6.694a.558.558 0 1 0 1.116 0 .558.558 0 0 0-1.116 0Zm-1.115 0a1.674 1.674 0 1 1 3.347 0 1.674 1.674 0 0 1-3.347 0Zm-8.368.558a.558.558 0 1 1 0-1.116.558.558 0 0 1 0 1.116Zm0-2.231a1.674 1.674 0 1 0 0 3.347 1.674 1.674 0 0 0 0-3.347Zm8.368 13.946a3.91 3.91 0 0 0 3.905-3.905v-3.905a.558.558 0 0 0-1.116 0v1.116a.558.558 0 0 1-1.116 0v-1.674a.558.558 0 0 0-1.115 0v1.674a.558.558 0 0 1-1.116 0v-2.232a.558.558 0 0 0-1.116 0v2.232a.558.558 0 0 1-1.116 0V8.61a.558.558 0 0 0-1.116 0v8.486l-1.523-1.524a.559.559 0 0 0-.789.79l3.265 3.17c.151.175.317.336.493.48l.058.052.009.009.02.007.063.047a3.873 3.873 0 0 0 2.31.756Zm2.526-9.268a1.676 1.676 0 0 1 2.495 1.458v3.905A5.026 5.026 0 0 1 14.541 22a4.98 4.98 0 0 1-2.926-.941 1.086 1.086 0 0 1-.256-.196 5.095 5.095 0 0 1-.598-.58l-3.22-3.126a1.677 1.677 0 0 1-.007-2.373 1.676 1.676 0 0 1 1.986-.285V8.61a1.674 1.674 0 0 1 3.347 0v1.77a1.673 1.673 0 0 1 1.968.678 1.673 1.673 0 0 1 2.231.558Z" clip-rule="evenodd"/>
</svg>
