<svg xmlns="http://www.w3.org/2000/svg" width="25" height="24" fill="none" viewBox="0 0 25 24">
  <path fill="#6C6F80" fill-rule="evenodd" d="M16.206 8.294H21.5A5.294 5.294 0 0 0 16.206 3v5.294ZM4.029 14.647h4.765V9.353H4.03a.53.53 0 0 0-.529.53v4.235c0 .292.237.53.53.53Zm11.118 0H9.853V9.353h5.294v5.294Zm1.059 0V9.353H21.5a5.294 5.294 0 0 1-5.294 5.294Zm-1.059-6.353H9.853V3.53a.53.53 0 0 1 .53-.529h4.764v5.294ZM10.382 21h4.236a.53.53 0 0 0 .53-.53v-4.764H9.852v4.765a.53.53 0 0 0 .53.529Z" clip-rule="evenodd"/>
</svg>
