<svg xmlns="http://www.w3.org/2000/svg" width="25" height="24" fill="none" viewBox="0 0 25 24">
  <path fill="#6C6F80" fill-rule="evenodd" d="M15.313 10.875a1.688 1.688 0 1 1 0-3.375 1.688 1.688 0 0 1 0 3.375Zm0-6.188L7.66 12.34a5.347 5.347 0 0 1 4.5 4.5l7.652-7.651C21.5 7.5 21.5 4.891 21.5 3c-1.892 0-4.5 0-6.187 1.688ZM6.875 12l3.375-3.375c-2.39 0-4.5.563-6.187 3.375h2.812Zm5.625 5.625 3.375-3.375c0 2.39-.562 4.5-3.375 6.188v-2.813Zm-8.273 2.648a.561.561 0 0 0 .796 0l4.5-4.5a.562.562 0 1 0-.796-.796l-4.5 4.5a.562.562 0 0 0 0 .796Zm-.164-2.648a.561.561 0 0 1-.398-.96L7.04 13.29a.562.562 0 1 1 .795.795L4.46 17.46a.561.561 0 0 1-.397.165Zm2.977 3.21a.56.56 0 0 0 .795 0l3.375-3.375a.562.562 0 1 0-.795-.795L7.04 20.04a.562.562 0 0 0 0 .795Z" clip-rule="evenodd"/>
</svg>
