<svg xmlns="http://www.w3.org/2000/svg" width="25" height="24" fill="none" viewBox="0 0 25 24">
  <path fill="#6C6F80" fill-rule="evenodd" d="M12.5 2c-5.523 0-10 4.477-10 10s4.477 10 10 10 10-4.477 10-10-4.477-10-10-10Zm-2.353 15.882a.59.59 0 0 0 .588-.588V6.706a.59.59 0 0 0-.588-.588.59.59 0 0 0-.588.588v10.588a.59.59 0 0 0 .588.588Zm4.706-1.176a.59.59 0 0 0 .588-.588V7.882a.59.59 0 0 0-.588-.588.59.59 0 0 0-.588.588v8.236a.59.59 0 0 0 .588.588Zm2.941-2.353a.59.59 0 0 1-.588.588.59.59 0 0 1-.588-.588V9.647a.59.59 0 0 1 .588-.588.59.59 0 0 1 .588.588v4.706Zm1.765-1.176a.59.59 0 0 1-.588-.589v-1.176a.59.59 0 0 1 .588-.589.59.59 0 0 1 .588.589v1.176a.59.59 0 0 1-.588.589Zm-6.47 1.764a.59.59 0 0 1-.589.588.59.59 0 0 1-.588-.588V9.06a.59.59 0 0 1 .588-.588.59.59 0 0 1 .588.588v5.882Zm-4.707-.588a.59.59 0 0 1-.588.588.59.59 0 0 1-.588-.588V9.647a.59.59 0 0 1 .588-.588.59.59 0 0 1 .588.588v4.706Zm-2.94-1.176a.59.59 0 0 0 .587-.589v-1.176a.59.59 0 0 0-.588-.589.59.59 0 0 0-.588.589v1.176a.59.59 0 0 0 .588.589Z" clip-rule="evenodd"/>
</svg>
