<svg xmlns="http://www.w3.org/2000/svg" width="25" height="24" fill="none" viewBox="0 0 25 24">
  <path fill="#6C6F80" fill-rule="evenodd" d="M17.206 3.107v5.441l-6.117-6.426c2.063-.333 4.205.022 6.117.985ZM11.323 6.13H4.415c1.199-1.69 3.18-2.938 5.144-3.628l3.53 3.628h-1.766ZM3.676 7.294h5.883l-6.872 6.813a10.54 10.54 0 0 1 .989-6.813Zm14.706 5.09 3.58-3.68a10.282 10.282 0 0 0-3.58-4.985v8.665Zm-2.497 9.176-3.58-3.678h8.427a10.046 10.046 0 0 1-4.847 3.678Zm2.497-7.626-.343.354-2.354 2.418h5.64a10.457 10.457 0 0 0 1.175-4.837c0-.676-.065-1.335-.186-1.975l-3.932 4.04ZM3.088 15.198l3.53-3.627v8.464c-1.717-1.238-2.839-2.759-3.53-4.837Zm7.259 2.57L10 17.412l-2.206-2.266v5.723a9.737 9.737 0 0 0 6.485.939l-3.932-4.04Z" clip-rule="evenodd"/>
</svg>
