<svg xmlns="http://www.w3.org/2000/svg" width="25" height="24" fill="none" viewBox="0 0 25 24">
  <path fill="#6C6F80" fill-rule="evenodd" d="M12.555 1.875a6.375 6.375 0 0 0-6.297 5.383.625.625 0 1 0 1.234.195 5.125 5.125 0 0 1 10.126 0 .625.625 0 0 0 1.234-.194 6.375 6.375 0 0 0-6.297-5.384ZM10.91 6.364a.625.625 0 1 1-.82-.944 3.75 3.75 0 0 1 4.913-.007.625.625 0 1 1-.818.946 2.5 2.5 0 0 0-3.275.005Zm7.84 4.87H6.25a.25.25 0 0 0-.25.25v8.5c0 .139.112.25.25.25h12.5a.25.25 0 0 0 .25-.25v-8.5a.25.25 0 0 0-.25-.25Zm-12.5-1.25a1.5 1.5 0 0 0-1.5 1.5v8.5a1.5 1.5 0 0 0 1.5 1.5h12.5a1.5 1.5 0 0 0 1.5-1.5v-8.5a1.5 1.5 0 0 0-1.5-1.5H6.25Zm6.859 6.523a1.626 1.626 0 1 0-1.25-.013v1.412a.625.625 0 1 0 1.25 0v-1.399Zm-1.605-8.605.643.644c.17.17.446.17.617 0l.643-.644a.437.437 0 0 0-.1-.695 1.872 1.872 0 0 0-1.711 0 .443.443 0 0 0-.092.695Z" clip-rule="evenodd"/>
</svg>
