<svg xmlns="http://www.w3.org/2000/svg" width="25" height="24" fill="none" viewBox="0 0 25 24">
  <path fill="#6C6F80" fill-rule="evenodd" d="M21.403 9.06a.396.396 0 0 1-.396.397H18.86v1.907h2.148c.219 0 .396.177.396.396v.48a.396.396 0 0 1-.396.396H18.86v1.908h2.148c.219 0 .396.177.396.396v.48a.396.396 0 0 1-.396.396H18.86v.17a2.374 2.374 0 0 1-2.374 2.374h-.17v2.148a.396.396 0 0 1-.395.396h-.48a.396.396 0 0 1-.397-.396V18.36h-1.907v2.148a.396.396 0 0 1-.396.396h-.48a.396.396 0 0 1-.396-.396V18.36H9.956v2.148a.396.396 0 0 1-.396.396h-.48a.396.396 0 0 1-.396-.396V18.36h-.17a2.374 2.374 0 0 1-2.374-2.374v-.17H3.992a.396.396 0 0 1-.396-.396v-.48c0-.219.177-.396.396-.396H6.14v-1.908H3.992a.396.396 0 0 1-.396-.395v-.481c0-.219.177-.396.396-.396H6.14V9.457H3.992a.396.396 0 0 1-.396-.396v-.48c0-.22.177-.396.396-.396H6.14v-.17A2.374 2.374 0 0 1 8.514 5.64h.17V3.493c0-.219.177-.396.395-.396h.48c.22 0 .397.177.397.396V5.64h1.908V3.493c0-.219.177-.396.395-.396h.48c.22 0 .396.177.396.396V5.64h1.908V3.493c0-.219.178-.396.396-.396h.48a.396.396 0 0 1 .396.396V5.64h.17a2.374 2.374 0 0 1 2.374 2.374v.17h2.148c.219 0 .396.177.396.395v.48Zm-4.918 8.033a1.11 1.11 0 0 0 1.108-1.107V8.015a1.11 1.11 0 0 0-1.108-1.108h-7.97a1.11 1.11 0 0 0-1.109 1.108v7.97a1.11 1.11 0 0 0 1.108 1.108h7.971ZM9.462 8.12h6.074a.846.846 0 0 1 .844.844v6.074a.846.846 0 0 1-.844.844H9.462a.846.846 0 0 1-.844-.844V8.963a.846.846 0 0 1 .844-.844Zm6.124 3.577V9.674h-.169l-1.691-.006a.39.39 0 0 1 .016 0h-.158.142c-.065.003-.233.02-.262.05a.173.173 0 0 0-.05.121v.462a.17.17 0 0 0 .17.172h.629l-1.521 1.719a.085.085 0 0 1-.123.003l-.725-.735a.167.167 0 0 0-.238 0l-2.164 2.194a.173.173 0 0 0 0 .242l.362.367a.168.168 0 0 0 .238 0l1.613-1.632a.1.1 0 0 1 .143 0l.74.75a.168.168 0 0 0 .246-.008l2.008-2.3v.623c0 .094.075.17.168.171h.457a.17.17 0 0 0 .17-.171Z" clip-rule="evenodd"/>
</svg>
