<svg xmlns="http://www.w3.org/2000/svg" width="25" height="24" fill="none" viewBox="0 0 25 24">
  <path fill="#6C6F80" d="M12.5 18.552c.571 0 1.034.463 1.034 1.034v1.38a1.035 1.035 0 0 1-2.069 0v-1.38c0-.571.464-1.034 1.035-1.034Zm-4.633-1.92a1.034 1.034 0 0 1 0 1.464l-.975.975a1.034 1.034 0 1 1-1.463-1.463l.975-.975a1.034 1.034 0 0 1 1.463 0Zm10.729 0 .975.976a1.034 1.034 0 1 1-1.463 1.463l-.975-.975a1.034 1.034 0 1 1 1.463-1.463ZM12.5 7.518a4.483 4.483 0 1 1 0 8.966 4.483 4.483 0 0 1 0-8.966Zm0 2.07a2.414 2.414 0 1 0 0 4.827 2.414 2.414 0 0 0 0-4.828Zm-7.586 1.379a1.035 1.035 0 0 1 0 2.069h-1.38a1.035 1.035 0 0 1 0-2.07h1.38Zm16.552 0a1.035 1.035 0 0 1 0 2.069h-1.38a1.035 1.035 0 0 1 0-2.07h1.38ZM6.891 4.929l.975.975a1.034 1.034 0 0 1-1.463 1.463l-.975-.975a1.034 1.034 0 0 1 1.463-1.463Zm12.68 0a1.034 1.034 0 0 1 0 1.463l-.976.975a1.034 1.034 0 1 1-1.463-1.463l.975-.975a1.035 1.035 0 0 1 1.463 0ZM12.5 2c.571 0 1.034.463 1.034 1.034v1.38a1.035 1.035 0 0 1-2.069 0v-1.38c0-.57.464-1.034 1.035-1.034Z"/>
</svg>
