<svg xmlns="http://www.w3.org/2000/svg" width="24" height="25" fill="none" viewBox="0 0 24 25">
  <path fill="#6C6F80" d="m15.3 17.11 1.4-1.4-3.7-3.7v-4.6h-2v5.4l4.3 4.3Zm-3.3 5.3a9.733 9.733 0 0 1-3.9-.789 10.092 10.092 0 0 1-3.175-2.137c-.9-.9-1.612-1.958-2.137-3.175A9.733 9.733 0 0 1 2 12.41a9.74 9.74 0 0 1 .788-3.9 10.092 10.092 0 0 1 2.137-3.175c.9-.9 1.958-1.613 3.175-2.138A9.743 9.743 0 0 1 12 2.41a9.74 9.74 0 0 1 3.9.787 10.105 10.105 0 0 1 3.175 2.138c.9.9 1.612 1.958 2.137 3.175a9.733 9.733 0 0 1 .788 3.9 9.733 9.733 0 0 1-.788 3.9 10.093 10.093 0 0 1-2.137 3.175c-.9.9-1.958 1.612-3.175 2.137a9.733 9.733 0 0 1-3.9.788Zm0-2c2.217 0 4.104-.78 5.663-2.338C19.221 16.513 20 14.626 20 12.41s-.779-4.104-2.337-5.663C16.104 5.188 14.217 4.41 12 4.41s-4.104.78-5.662 2.337C4.779 8.305 4 10.192 4 12.41s.78 4.104 2.338 5.663C7.896 19.63 9.783 20.41 12 20.41Z"/>
</svg>
