<svg xmlns="http://www.w3.org/2000/svg" width="24" height="25" fill="none" viewBox="0 0 24 25">
  <path fill="#6C6F80" fill-rule="evenodd" d="m3 4.68 1.28-1.27L21 20.13l-1.27 1.28-3.67-3.67c-.62.67-1.52 1.22-2.56 1.49v2.18h-3v-2.18C8.47 18.72 7 17.2 7 15.41h2c0 1.08 1.37 2 3 2 1.13 0 2.14-.44 2.65-1.08l-2.97-2.97C9.58 12.83 7 12.16 7 9.41c0-.23 0-.45.07-.66L3 4.68Zm7.5.91V3.41h3v2.18c2.03.51 3.5 2.03 3.5 3.82h-2c0-1.08-1.37-2-3-2-.37 0-.72.05-1.05.13L9.4 5.99l1.1-.4Z" clip-rule="evenodd"/>
</svg>
