<svg xmlns="http://www.w3.org/2000/svg" width="24" height="25" fill="none" viewBox="0 0 24 25">
  <path fill="#6C6F80" d="M21 7.41v12c0 .55-.196 1.02-.587 1.412A1.928 1.928 0 0 1 19 21.41H5a1.93 1.93 0 0 1-1.413-.587A1.928 1.928 0 0 1 3 19.41v-14c0-.55.196-1.02.587-1.413A1.928 1.928 0 0 1 5 3.41h12l4 4Zm-9 11c.833 0 1.542-.293 2.125-.876A2.893 2.893 0 0 0 15 15.41c0-.833-.292-1.542-.875-2.125A2.893 2.893 0 0 0 12 12.41c-.833 0-1.542.292-2.125.875A2.893 2.893 0 0 0 9 15.41c0 .833.292 1.542.875 2.125A2.893 2.893 0 0 0 12 18.41Zm-6-8h9v-4H6v4Z"/>
</svg>
