<svg xmlns="http://www.w3.org/2000/svg" width="24" height="25" fill="none" viewBox="0 0 24 25">
  <path fill="#6C6F80" d="M9 20.41c-.55 0-1.02-.197-1.412-.588A1.927 1.927 0 0 1 7 18.41c0-.55.196-1.02.588-1.413A1.925 1.925 0 0 1 9 16.41c.55 0 1.021.196 1.413.587.391.392.587.863.587 1.413s-.196 1.021-.587 1.413A1.928 1.928 0 0 1 9 20.41Zm6 0c-.55 0-1.02-.197-1.412-.588A1.927 1.927 0 0 1 13 18.41c0-.55.196-1.02.588-1.413A1.925 1.925 0 0 1 15 16.41c.55 0 1.021.196 1.413.587.391.392.587.863.587 1.413s-.196 1.021-.587 1.413A1.928 1.928 0 0 1 15 20.41Zm-6-6c-.55 0-1.02-.197-1.412-.589A1.924 1.924 0 0 1 7 12.41c0-.55.196-1.02.588-1.413A1.925 1.925 0 0 1 9 10.41c.55 0 1.021.196 1.413.587.391.392.587.863.587 1.413s-.196 1.02-.587 1.412A1.927 1.927 0 0 1 9 14.41Zm6 0c-.55 0-1.02-.197-1.412-.589A1.924 1.924 0 0 1 13 12.41c0-.55.196-1.02.588-1.413A1.925 1.925 0 0 1 15 10.41c.55 0 1.021.196 1.413.587.391.392.587.863.587 1.413s-.196 1.02-.587 1.412A1.927 1.927 0 0 1 15 14.41Zm-6-6c-.55 0-1.02-.197-1.412-.589A1.923 1.923 0 0 1 7 6.41c0-.55.196-1.02.588-1.412A1.923 1.923 0 0 1 9 4.41c.55 0 1.021.196 1.413.588.391.391.587.862.587 1.412 0 .55-.196 1.02-.587 1.412A1.927 1.927 0 0 1 9 8.41Zm6 0c-.55 0-1.02-.197-1.412-.589A1.923 1.923 0 0 1 13 6.41c0-.55.196-1.02.588-1.412A1.923 1.923 0 0 1 15 4.41c.55 0 1.021.196 1.413.588.391.391.587.862.587 1.412 0 .55-.196 1.02-.587 1.412A1.927 1.927 0 0 1 15 8.41Z"/>
</svg>
