<svg xmlns="http://www.w3.org/2000/svg" width="24" height="25" fill="none" viewBox="0 0 24 25">
  <path fill="#6C6F80" d="m9.25 22.41-.4-3.2a3.787 3.787 0 0 1-.612-.3 8.194 8.194 0 0 1-.563-.376L4.7 19.784l-2.75-4.75 2.575-1.95a2.391 2.391 0 0 1-.025-.338v-.675c0-.108.009-.22.025-.337L1.95 9.784l2.75-4.75 2.975 1.25a6.81 6.81 0 0 1 .575-.375c.2-.117.4-.217.6-.3l.4-3.2h5.5l.4 3.2c.217.083.421.183.613.3.191.117.379.242.562.375l2.975-1.25 2.75 4.75-2.575 1.95c.017.117.025.23.025.337v.675c0 .109-.017.221-.05.338l2.575 1.95-2.75 4.75-2.95-1.25a6.826 6.826 0 0 1-.575.375c-.2.117-.4.217-.6.3l-.4 3.2h-5.5Zm2.8-6.5c.967 0 1.792-.343 2.475-1.026a3.373 3.373 0 0 0 1.025-2.475c0-.967-.341-1.792-1.025-2.475A3.372 3.372 0 0 0 12.05 8.91c-.983 0-1.813.342-2.488 1.025A3.394 3.394 0 0 0 8.55 12.41c0 .967.338 1.792 1.012 2.475.676.683 1.505 1.025 2.488 1.025Z"/>
</svg>
