<svg xmlns="http://www.w3.org/2000/svg" width="24" height="25" fill="none" viewBox="0 0 24 25">
  <path fill="#6C6F80" fill-rule="evenodd" d="M6 8.41h9v-2c0-.834-.292-1.543-.875-2.126A2.893 2.893 0 0 0 12 3.41c-.833 0-1.542.292-2.125.875a3.38 3.38 0 0 0-.104.108L8.358 2.98l.105-.108C9.438 1.896 10.617 1.41 12 1.41s2.563.487 3.538 1.462C16.513 3.846 17 5.026 17 6.41v2h1c.55 0 1.021.196 1.413.587.391.392.587.863.587 1.413v10a1.93 1.93 0 0 1-.587 1.413A1.928 1.928 0 0 1 18 22.41H6c-.55 0-1.02-.196-1.412-.587A1.927 1.927 0 0 1 4 20.41v-10c0-.55.196-1.02.588-1.413A1.925 1.925 0 0 1 6 8.41Zm6 9a1.93 1.93 0 0 0 1.413-.588c.391-.392.587-.863.587-1.413s-.196-1.02-.587-1.413A1.928 1.928 0 0 0 12 13.41c-.55 0-1.02.196-1.412.587A1.927 1.927 0 0 0 10 15.41c0 .55.196 1.021.588 1.413.391.391.862.587 1.412.587Z" clip-rule="evenodd"/>
</svg>
