<svg xmlns="http://www.w3.org/2000/svg" width="24" height="25" fill="none" viewBox="0 0 24 25">
  <path fill="#6C6F80" d="M5 21.41a1.93 1.93 0 0 1-1.413-.588A1.928 1.928 0 0 1 3 19.41v-4h2v4h4v2H5Zm10 0v-2h4v-4h2v4c0 .55-.196 1.02-.587 1.412A1.928 1.928 0 0 1 19 21.41h-4Zm-3-6a2.893 2.893 0 0 1-2.125-.876A2.893 2.893 0 0 1 9 12.41c0-.833.292-1.542.875-2.125A2.893 2.893 0 0 1 12 9.41c.833 0 1.542.292 2.125.875S15 11.576 15 12.41s-.292 1.542-.875 2.125A2.893 2.893 0 0 1 12 15.41Zm-9-6v-4c0-.55.196-1.022.587-1.414A1.928 1.928 0 0 1 5 3.41h4v2H5v4H3Zm16 0v-4h-4v-2h4c.55 0 1.021.195 1.413.586.391.392.587.863.587 1.413v4h-2Z"/>
</svg>
