<svg xmlns="http://www.w3.org/2000/svg" width="24" height="25" fill="none" viewBox="0 0 24 25">
  <path fill="#6C6F80" fill-rule="evenodd" d="M16 6.41h4c.55 0 1.021.195 1.413.587.391.391.587.862.587 1.412v11a1.93 1.93 0 0 1-.587 1.413A1.928 1.928 0 0 1 20 21.41H4c-.55 0-1.02-.196-1.412-.587A1.927 1.927 0 0 1 2 19.41v-11c0-.55.196-1.02.588-1.412A1.923 1.923 0 0 1 4 6.41h4v-2c0-.55.196-1.02.588-1.413A1.925 1.925 0 0 1 10 2.41h4c.55 0 1.021.196 1.413.587.391.392.587.863.587 1.413v2Zm-6-2v2h4v-2h-4ZM4.001 8.411l.002-.002h15.994l.002.001.001.001v10.995h-.001l-.002.002H4.003v-.001L4 19.406V8.413h.001Z" clip-rule="evenodd"/>
</svg>
