<svg xmlns="http://www.w3.org/2000/svg" width="24" height="25" fill="none" viewBox="0 0 24 25">
  <path fill="#6C6F80" fill-rule="evenodd" d="m18.65 17.71-3.2-3.3-3.9-3.9-1.6-1.5-6.6-6.6-1.4 1.4 3.37 3.369C2.594 9.49 1 12.409 1 12.409s4.373 8 11 8c1.863 0 3.549-.632 5.008-1.542l3.642 3.642 1.4-1.4-3.4-3.4Zm-3.101-.302c-1.103.617-2.296 1.001-3.549 1.001-2.499 0-4.757-1.527-6.543-3.386a19.769 19.769 0 0 1-2.102-2.614l.082-.12a19.768 19.768 0 0 1 2.02-2.494c.404-.42.832-.824 1.282-1.197L9.28 11.14a3 3 0 0 0 3.987 3.988l2.28 2.28Z" clip-rule="evenodd"/>
  <path fill="#6C6F80" d="M23 12.41s-1.055 1.93-2.915 3.894l-1.393-1.437a19.899 19.899 0 0 0 1.953-2.458l-.082-.12a19.78 19.78 0 0 0-2.02-2.494C16.757 7.936 14.5 6.409 12 6.409c-.559 0-1.105.076-1.637.216L8.78 5.042A8.722 8.722 0 0 1 12 4.409c6.627 0 11 8 11 8Z"/>
</svg>
