<svg xmlns="http://www.w3.org/2000/svg" width="24" height="25" fill="none" viewBox="0 0 24 25">
  <path fill="#6C6F80" d="M18 22.41a2.893 2.893 0 0 1-2.125-.876A2.893 2.893 0 0 1 15 19.41c0-.117.008-.238.025-.363s.042-.237.075-.337l-7.05-4.1c-.283.25-.6.446-.95.587a2.9 2.9 0 0 1-1.1.213 2.893 2.893 0 0 1-2.125-.875A2.893 2.893 0 0 1 3 12.41c0-.833.292-1.542.875-2.125A2.893 2.893 0 0 1 6 9.41c.383 0 .75.07 1.1.212.35.142.667.338.95.588l7.05-4.1a1.843 1.843 0 0 1-.075-.337A2.75 2.75 0 0 1 15 5.41c0-.833.292-1.542.875-2.125A2.893 2.893 0 0 1 18 2.41c.833 0 1.542.292 2.125.875S21 4.576 21 5.41s-.292 1.542-.875 2.125A2.893 2.893 0 0 1 18 8.41c-.383 0-.75-.07-1.1-.213a3.284 3.284 0 0 1-.95-.587l-7.05 4.1c.033.1.058.212.075.337a2.753 2.753 0 0 1 0 .725 1.838 1.838 0 0 1-.075.338l7.05 4.1c.283-.25.6-.446.95-.588a2.91 2.91 0 0 1 1.1-.212c.833 0 1.542.292 2.125.875S21 18.576 21 19.41s-.292 1.542-.875 2.125A2.893 2.893 0 0 1 18 22.41Z"/>
</svg>
