<svg xmlns="http://www.w3.org/2000/svg" width="24" height="25" fill="none" viewBox="0 0 24 25">
  <path fill="#6C6F80" d="M12 15.41a3 3 0 1 0 0-6 3 3 0 0 0 0 6Z"/>
  <path fill="#6C6F80" fill-rule="evenodd" d="M23 12.41s-4.373 8-11 8-11-8-11-8 4.373-8 11-8 11 8 11 8Zm-2.437.12.082-.12-.082-.121a19.78 19.78 0 0 0-2.02-2.494C16.757 7.936 14.5 6.409 12 6.409c-2.499 0-4.757 1.527-6.543 3.386a19.768 19.768 0 0 0-2.102 2.614 19.893 19.893 0 0 0 2.102 2.614C7.243 16.883 9.5 18.41 12 18.41c2.499 0 4.757-1.527 6.543-3.386a19.78 19.78 0 0 0 2.02-2.494Z" clip-rule="evenodd"/>
</svg>
