<svg xmlns="http://www.w3.org/2000/svg" width="24" height="25" fill="none" viewBox="0 0 24 25">
  <path fill="#6C6F80" d="M19.95 21.41c-2.15 0-4.246-.48-6.287-1.439a19.045 19.045 0 0 1-5.425-3.8 19.045 19.045 0 0 1-3.8-5.425C3.479 8.705 3 6.61 3 4.46c0-.3.1-.55.3-.75.2-.2.45-.3.75-.3H8.1a.96.96 0 0 1 .625.225.88.88 0 0 1 .325.575l.65 3.5c.033.233.03.446-.012.637a1.027 1.027 0 0 1-.288.513L7 11.31c.7 1.2 1.575 2.325 2.625 3.375A18.293 18.293 0 0 0 13.1 17.41l2.35-2.35a1.4 1.4 0 0 1 .588-.338 1.61 1.61 0 0 1 .712-.062l3.45.7c.233.05.425.162.575.337.15.175.225.38.225.613v4.05c0 .3-.1.55-.3.75-.2.2-.45.3-.75.3Z"/>
</svg>
