<svg xmlns="http://www.w3.org/2000/svg" width="24" height="25" fill="none" viewBox="0 0 24 25">
  <path fill="#6C6F80" fill-rule="evenodd" d="M16.5 3.41c-1.74 0-3.41.81-4.5 2.09-1.09-1.28-2.76-2.09-4.5-2.09-3.08 0-5.5 2.42-5.5 5.5 0 3.78 3.4 6.86 8.55 11.54L12 21.76l1.45-1.32C18.6 15.77 22 12.69 22 8.91c0-3.08-2.42-5.5-5.5-5.5Zm-4.4 15.55-.1.1-.1-.1C7.14 14.65 4 11.8 4 8.91c0-2 1.5-3.5 3.5-3.5 1.54 0 3.04.99 3.57 2.36h1.87c.52-1.37 2.02-2.36 3.56-2.36 2 0 3.5 1.5 3.5 3.5 0 2.89-3.14 5.74-7.9 10.05Z" clip-rule="evenodd"/>
</svg>
