<svg xmlns="http://www.w3.org/2000/svg" width="24" height="25" fill="none" viewBox="0 0 24 25">
  <path fill="#6C6F80" fill-rule="evenodd" d="M20 20.41a1.93 1.93 0 0 0 1.413-.588A1.93 1.93 0 0 0 22 18.409v-12c0-.55-.196-1.02-.587-1.412A1.927 1.927 0 0 0 20 4.41H4c-.55 0-1.02.196-1.412.588A1.923 1.923 0 0 0 2 6.41v12c0 .55.196 1.021.588 1.413.391.391.862.587 1.412.587h16Zm-15.997-14h15.994l-7.997 5-7.997-5ZM4 8.89v9.516l.002.002.001.001h15.994l.002-.001.001-.001V8.89l-8 5-8-5Z" clip-rule="evenodd"/>
</svg>
