<svg xmlns="http://www.w3.org/2000/svg" width="24" height="25" fill="none" viewBox="0 0 24 25">
  <path fill="#6C6F80" d="M11 17.41H7c-1.383 0-2.562-.489-3.537-1.464C2.488 14.971 2 13.792 2 12.41s.488-2.563 1.463-3.538C4.438 7.896 5.617 7.41 7 7.41h4v2H7c-.833 0-1.542.292-2.125.875A2.893 2.893 0 0 0 4 12.41c0 .833.292 1.542.875 2.125A2.893 2.893 0 0 0 7 15.41h4v2Zm-3-4v-2h8v2H8Zm5 4v-2h4c.833 0 1.542-.293 2.125-.876A2.893 2.893 0 0 0 20 12.41c0-.833-.292-1.542-.875-2.125A2.893 2.893 0 0 0 17 9.41h-4v-2h4c1.383 0 2.563.487 3.538 1.462.975.975 1.462 2.155 1.462 3.538s-.487 2.562-1.462 3.537c-.975.975-2.155 1.463-3.538 1.463h-4Z"/>
</svg>
