<svg xmlns="http://www.w3.org/2000/svg" width="24" height="25" fill="none" viewBox="0 0 24 25">
  <path fill="#6C6F80" d="M13.414 6.753a3 3 0 0 1 4.243 4.242l-2.121 2.122 1.414 1.414 2.121-2.122a5 5 0 1 0-7.07-7.07l-2.122 2.12 1.414 1.415 2.121-2.121Z"/>
  <path fill="#6C6F80" d="m16.243 9.581-7.071 7.072-1.414-1.415 7.07-7.07 1.415 1.413Z"/>
  <path fill="#6C6F80" d="m8.465 11.703-2.121 2.12a3 3 0 0 0 4.242 4.244l2.121-2.122 1.415 1.414L12 19.481a5 5 0 0 1-7.07-7.071l2.12-2.122 1.415 1.415Z"/>
</svg>
