<svg xmlns="http://www.w3.org/2000/svg" width="24" height="25" fill="none" viewBox="0 0 24 25">
  <path fill="#6C6F80" fill-rule="evenodd" d="m7.04 10.298-2.11 2.11A5 5 0 1 0 12 19.48l2.111-2.11 5.69 5.689 1.4-1.4-18.4-18.4-1.4 1.4 5.639 5.64Zm1.414 1.414 1.414 1.415-2.11 2.11 1.414 1.415 2.11-2.111 1.415 1.414-2.11 2.11a3 3 0 1 1-4.243-4.242l2.11-2.11Z" clip-rule="evenodd"/>
  <path fill="#6C6F80" d="M17.657 6.752a3 3 0 0 0-4.243 0l-2.12 2.121-1.415-1.414L12 5.338a5 5 0 0 1 7.071 7.07L16.95 14.53l-1.414-1.414 2.121-2.122a3 3 0 0 0 0-4.242Z"/>
  <path fill="#6C6F80" d="m14.829 8.166-2.11 2.11 1.414 1.415 2.11-2.11-1.414-1.415Z"/>
</svg>
