<svg xmlns="http://www.w3.org/2000/svg" width="24" height="25" fill="none" viewBox="0 0 24 25">
  <path fill="#6C6F80" fill-rule="evenodd" d="M12 22.41c5.523 0 10-4.478 10-10 0-5.524-4.477-10-10-10s-10 4.476-10 10c0 5.522 4.477 10 10 10Zm-5.474-5.268a4.68 4.68 0 0 0 1.574.267c.555 0 1.071-.107 1.547-.32a3.619 3.619 0 0 0 1.283-.962l-1.19-1.442a2.72 2.72 0 0 1-.675.534 1.79 1.79 0 0 1-.886.214 1.636 1.636 0 0 1-1.349-.655c-.335-.436-.502-1.063-.502-1.882 0-.392.048-.744.145-1.055a2.66 2.66 0 0 1 .41-.788c.176-.214.375-.378.595-.494.23-.116.472-.174.728-.174.29 0 .546.063.767.187.229.116.45.267.661.454l1.19-1.469a4.214 4.214 0 0 0-1.137-.8c-.45-.232-.961-.348-1.534-.348-.547 0-1.071.102-1.574.307a4.009 4.009 0 0 0-1.323.895 4.26 4.26 0 0 0-.912 1.429C4.114 11.6 4 12.246 4 12.976c0 .739.11 1.388.33 1.95a4.11 4.11 0 0 0 .887 1.388c.379.365.815.641 1.31.828Zm4.645-8.573 2.539 8.68h2.75L19 8.569h-2.328l-.873 3.793c-.114.463-.22.92-.317 1.375-.088.445-.194.903-.317 1.375h-.053c-.124-.472-.23-.93-.318-1.375a20.566 20.566 0 0 0-.317-1.375l-.9-3.793h-2.406Z" clip-rule="evenodd"/>
</svg>
