<svg xmlns="http://www.w3.org/2000/svg" width="24" height="25" fill="none" viewBox="0 0 24 25">
  <g clip-path="url(#a)">
    <path fill="#6C6F80" fill-rule="evenodd" d="m7.172 5.41 4.076 4.658 1.505-1.317-1.944-2.222a6 6 0 0 1 6.497 8.682l1.769.934a8 8 0 0 0-8.48-11.611l2.158-2.466L11.248.75 7.172 5.409Zm2.664-.008.008.024-.015-.017.007-.007Z" clip-rule="evenodd"/>
    <path fill="#6C6F80" d="M4.936 8.653a8 8 0 0 0 7.673 11.733l-2.316 2.316 1.414 1.414 4.707-4.707-4.707-4.707-1.414 1.414 2.267 2.267a6 6 0 0 1-5.858-8.79l-1.766-.94Z"/>
  </g>
  <defs>
    <clipPath id="a">
      <path fill="#fff" d="M0 .41h24v24H0z"/>
    </clipPath>
  </defs>
</svg>
