<svg xmlns="http://www.w3.org/2000/svg" width="24" height="25" fill="none" viewBox="0 0 24 25">
  <path fill="#6C6F80" d="m17.843 19.075 1.755-1.732.073-.071a9.666 9.666 0 0 0-.588-.587 1.568 1.568 0 0 0-.126-.109l-.001.001-.003-.001-1.15 1.135-.012.01-1.149 1.133-.388-.388-.4-.4-.001.001-.002-.002-.276.273c-.152.15-.3.295-.444.443l.759.75c.25.246.499.49.744.733l.001-.002.002.002c.402-.395.804-.792 1.206-1.19Z"/>
  <path fill="#6C6F80" fill-rule="evenodd" d="M4 3.41c0-1.11.89-2 2-2h8l6 6v6.889h.005c.12.018.241.023.362.028l.072.003c.175.007.35.012.524.017.17.005.34.01.514.017l.001.004c.004.014.01.036.01.057 0 1.476 0 2.952-.004 4.428 0 .329-.083.64-.193.95a4.726 4.726 0 0 1-.704 1.275c-.19.251-.396.489-.617.716a9.275 9.275 0 0 1-1.761 1.418c-.273.17-.552.323-.852.445a.53.53 0 0 1-.43 0 5.87 5.87 0 0 1-.797-.41c-.33-.2-.641-.425-.944-.659a8.972 8.972 0 0 1-.69-.61 7.79 7.79 0 0 1-.534-.569H6a2 2 0 0 1-2-2v-16Zm9-.5v5.5h5.5L13 2.91Zm4.138 11.36a5.152 5.152 0 0 1-1.125.552 6.843 6.843 0 0 1-1.327.326l-.075.01a6.79 6.79 0 0 1-.615.064 1.9 1.9 0 0 0-.166.017l-.116.014c0 .047 0 .088.006.118v3.271c0 .063.007.125.014.188.004.038.008.076.01.114.025.299.125.577.249.845.217.468.52.875.872 1.248a8.01 8.01 0 0 0 2.179 1.68c.079.04.138.037.213-.003a7.86 7.86 0 0 0 1.645-1.147 7.11 7.11 0 0 0 .824-.858 4.3 4.3 0 0 0 .662-1.096 2.43 2.43 0 0 0 .193-.91c.002-.746.001-1.491 0-2.238v-1.12c0-.032-.003-.06-.006-.09l-.001-.009c-.1-.01-.198-.018-.296-.026-.118-.01-.235-.02-.352-.032l-.09-.01a4.984 4.984 0 0 1-.355-.047 8.963 8.963 0 0 1-.848-.194 5.677 5.677 0 0 1-1.224-.512l-.271-.156Z" clip-rule="evenodd"/>
</svg>
