<svg xmlns="http://www.w3.org/2000/svg" width="24" height="25" fill="none" viewBox="0 0 24 25">
  <path fill="#6C6F80" d="m7.964 6.174.005.007L9.585 8.57h5.72c.18 0 .35.045.5.123a1.1 1.1 0 0 1 .752.78l.001.004 1.405 5.424a1.12 1.12 0 0 1-.767 1.364 1.076 1.076 0 0 1-1.323-.78l-.001-.004-.285-1.097-1.371 7.099a1.11 1.11 0 0 1-1.085.926h-1.416a1.11 1.11 0 0 1-1.084-.92L8.585 10.996l-2.39-3.53a1.14 1.14 0 0 1 .268-1.557 1.06 1.06 0 0 1 1.501.265Zm4.191-3.765c1.345 0 2.436 1.128 2.436 2.52 0 1.391-1.09 2.52-2.436 2.52-1.345 0-2.436-1.129-2.436-2.52 0-1.392 1.09-2.52 2.436-2.52Z"/>
</svg>
