<svg xmlns="http://www.w3.org/2000/svg" width="24" height="25" fill="none" viewBox="0 0 24 25">
  <path fill="#6C6F80" d="M1.5 15.41c0-1.25.237-2.422.712-3.514a9.158 9.158 0 0 1 1.926-2.85 9.152 9.152 0 0 1 2.85-1.925A8.709 8.709 0 0 1 10.5 6.41a8.71 8.71 0 0 1 3.513.712 9.168 9.168 0 0 1 2.85 1.925 9.153 9.153 0 0 1 1.924 2.85 8.706 8.706 0 0 1 .713 3.513v.15l1.55-1.55 1.45 1.4-4 4-4-4 1.45-1.4 1.55 1.55v-.15c0-1.95-.679-3.604-2.037-4.962C14.104 9.088 12.45 8.41 10.5 8.41c-1.95 0-3.604.68-4.962 2.038C4.179 11.805 3.5 13.46 3.5 15.41h-2Z"/>
</svg>
