<svg xmlns="http://www.w3.org/2000/svg" width="24" height="25" fill="none" viewBox="0 0 24 25">
  <path fill="#6C6F80" d="m10.656 16.41 2.594-9h.869l-2.594 9h-.869ZM4 15.516V8.51h1.325l2.271 3.942.746 1.49h.045c-.03-.358-.067-.747-.111-1.168a13.923 13.923 0 0 1-.056-1.221V8.51h1.236v7.006H8.131l-2.272-3.942-.746-1.49H5.07c.03.372.063.761.1 1.169.045.407.067.807.067 1.2v3.063H4Z"/>
  <path fill="#6C6F80" fill-rule="evenodd" d="m16.114 8.51-2.372 7.006h1.314l.568-1.896h2.45l.568 1.896H20L17.628 8.51h-1.514Zm-.19 4.135.257-.857c.119-.371.23-.75.334-1.135.111-.393.215-.786.312-1.179h.044l.312 1.168c.111.393.226.775.345 1.146l.256.857h-1.86Z" clip-rule="evenodd"/>
  <path fill="#6C6F80" fill-rule="evenodd" d="M1 6.41a2 2 0 0 1 2-2h18a2 2 0 0 1 2 2v12a2 2 0 0 1-2 2H3a2 2 0 0 1-2-2v-12Zm2-.5h18a.5.5 0 0 1 .5.5v12a.5.5 0 0 1-.5.5H3a.5.5 0 0 1-.5-.5v-12a.5.5 0 0 1 .5-.5Z" clip-rule="evenodd"/>
</svg>
