<svg xmlns="http://www.w3.org/2000/svg" width="24" height="25" fill="none" viewBox="0 0 24 25">
  <path fill="#6C6F80" d="M10.588 21.822c.391.391.862.587 1.412.587a1.93 1.93 0 0 0 1.413-.587A1.93 1.93 0 0 0 14 20.409h-4c0 .55.196 1.021.588 1.413ZM8 16.254a7.641 7.641 0 0 1-2.487-2.595A7.275 7.275 0 0 1 4.5 9.91c0-2.083.73-3.854 2.188-5.312C8.146 3.138 9.917 2.41 12 2.41s3.854.73 5.312 2.188C18.771 6.055 19.5 7.826 19.5 9.91c0 1.35-.337 2.6-1.012 3.75A7.65 7.65 0 0 1 16 16.254v2.155H8v-2.155Z"/>
</svg>
