<svg xmlns="http://www.w3.org/2000/svg" width="24" height="25" fill="none" viewBox="0 0 24 25">
  <path fill="#6C6F80" d="M11 22.41c-.55 0-1.02-.197-1.412-.588A1.926 1.926 0 0 1 9 20.409v-4H6c-.55 0-1.02-.196-1.412-.587A1.926 1.926 0 0 1 4 14.409v-7c0-1.1.392-2.042 1.175-2.825C5.958 3.801 6.9 3.41 8 3.41h12v11c0 .55-.196 1.02-.587 1.413A1.926 1.926 0 0 1 18 16.41h-3v4c0 .55-.196 1.02-.588 1.413A1.926 1.926 0 0 1 13 22.41h-2Zm-5-12h12v-5h-1v4h-2v-4h-1v2h-2v-2H8c-.55 0-1.02.195-1.412.587A1.926 1.926 0 0 0 6 7.409v3Zm0 4h12v-2H6v2Z"/>
</svg>
