<svg xmlns="http://www.w3.org/2000/svg" width="24" height="25" fill="none" viewBox="0 0 24 25">
  <path fill="#6C6F80" d="M12 22.41a9.676 9.676 0 0 1-3.875-.788 10.144 10.144 0 0 1-3.188-2.15 10.145 10.145 0 0 1-2.15-3.188A9.676 9.676 0 0 1 2 12.41c0-1.383.27-2.683.813-3.9a10.13 10.13 0 0 1 2.2-3.175A10.48 10.48 0 0 1 8.25 3.197a9.979 9.979 0 0 1 3.95-.788c1.333 0 2.592.23 3.775.688a9.918 9.918 0 0 1 3.112 1.9 9.092 9.092 0 0 1 2.125 2.875A8.273 8.273 0 0 1 22 11.459c0 1.917-.583 3.388-1.75 4.413-1.167 1.025-2.583 1.537-4.25 1.537h-1.85c-.15 0-.254.042-.313.125a.47.47 0 0 0-.087.275c0 .2.125.488.375.863s.375.804.375 1.287c0 .833-.23 1.45-.688 1.85-.458.4-1.062.6-1.812.6Zm-5.5-9c.433 0 .792-.143 1.075-.426.283-.283.425-.642.425-1.075 0-.433-.142-.792-.425-1.075-.283-.283-.642-.425-1.075-.425-.433 0-.792.142-1.075.425-.283.283-.425.642-.425 1.075 0 .433.142.792.425 1.075.283.283.642.425 1.075.425Zm3-4c.433 0 .792-.143 1.075-.426.283-.283.425-.642.425-1.075 0-.433-.142-.792-.425-1.075-.283-.283-.642-.425-1.075-.425-.433 0-.792.142-1.075.425C8.142 7.117 8 7.476 8 7.91c0 .433.142.792.425 1.075.283.283.642.425 1.075.425Zm5 0c.433 0 .792-.143 1.075-.426.283-.283.425-.642.425-1.075 0-.433-.142-.792-.425-1.075-.283-.283-.642-.425-1.075-.425-.433 0-.792.142-1.075.425-.283.283-.425.642-.425 1.075 0 .433.142.792.425 1.075.283.283.642.425 1.075.425Zm3 4c.433 0 .792-.143 1.075-.426.283-.283.425-.642.425-1.075 0-.433-.142-.792-.425-1.075-.283-.283-.642-.425-1.075-.425-.433 0-.792.142-1.075.425-.283.283-.425.642-.425 1.075 0 .433.142.792.425 1.075.283.283.642.425 1.075.425Zm-5.5 7c.15 0 .27-.043.363-.126a.419.419 0 0 0 .137-.325c0-.233-.125-.508-.375-.825-.25-.317-.375-.792-.375-1.425 0-.7.242-1.258.725-1.675.483-.417 1.075-.625 1.775-.625H16c1.1 0 2.042-.32 2.825-.962.783-.642 1.175-1.638 1.175-2.988 0-2.017-.77-3.696-2.313-5.037-1.541-1.342-3.37-2.013-5.487-2.013-2.267 0-4.2.775-5.8 2.325C4.8 8.284 4 10.176 4 12.41c0 2.217.78 4.104 2.338 5.663C7.896 19.63 9.783 20.409 12 20.409Z"/>
</svg>
