<svg xmlns="http://www.w3.org/2000/svg" width="24" height="25" fill="none" viewBox="0 0 24 25">
  <path fill="#6C6F80" d="M3.4 18.909 2 17.459l7.5-7.5 4 4 2.9-3.25a9.61 9.61 0 0 0-3-2.375c-1.15-.583-2.417-.875-3.8-.875-1.183 0-2.3.22-3.35.663-1.05.441-2 1.037-2.85 1.787L2 8.459a12.043 12.043 0 0 1 3.475-2.2c1.283-.533 2.658-.8 4.125-.8 1.633 0 3.142.329 4.525.987a11.12 11.12 0 0 1 3.625 2.763l2.85-3.25 1.4 1.45-3 3.4c.55.883.996 1.841 1.338 2.875.341 1.033.562 2.125.662 3.275h-2c-.1-.834-.27-1.63-.512-2.388a11.647 11.647 0 0 0-.938-2.162l-3.95 4.45-4.1-4.05-6.1 6.1Z"/>
</svg>
