<svg xmlns="http://www.w3.org/2000/svg" width="24" height="25" fill="none" viewBox="0 0 24 25">
  <path fill="#6C6F80" d="M12.5 22.41c-1.533 0-2.833-.534-3.9-1.6-1.067-1.068-1.6-2.368-1.6-3.9V6.41c0-1.1.392-2.043 1.175-2.826C8.958 2.801 9.9 2.41 11 2.41s2.042.392 2.825 1.175C14.608 4.367 15 5.31 15 6.41v9.5c0 .7-.242 1.292-.725 1.775-.483.483-1.075.725-1.775.725s-1.292-.242-1.775-.725A2.416 2.416 0 0 1 10 15.91v-9.5h1.5v9.5c0 .283.096.52.288.712a.965.965 0 0 0 .712.288.968.968 0 0 0 .713-.288.967.967 0 0 0 .287-.712v-9.5c0-.7-.242-1.292-.725-1.775C12.292 4.151 11.7 3.91 11 3.91s-1.292.242-1.775.725C8.742 5.117 8.5 5.71 8.5 6.41v10.5c0 1.1.392 2.042 1.175 2.825.783.783 1.725 1.175 2.825 1.175s2.042-.392 2.825-1.175c.783-.783 1.175-1.725 1.175-2.825V6.41H18v10.5c0 1.533-.533 2.833-1.6 3.9-1.067 1.067-2.367 1.6-3.9 1.6Z"/>
</svg>
