<svg xmlns="http://www.w3.org/2000/svg" width="24" height="25" fill="none" viewBox="0 0 24 25">
  <path fill="#6C6F80" d="M8 16.41h8v-8H8v8Zm4 6a9.733 9.733 0 0 1-3.9-.789 10.092 10.092 0 0 1-3.175-2.137c-.9-.9-1.612-1.958-2.137-3.175A9.733 9.733 0 0 1 2 12.41a9.74 9.74 0 0 1 .788-3.9 10.092 10.092 0 0 1 2.137-3.175c.9-.9 1.958-1.613 3.175-2.138A9.743 9.743 0 0 1 12 2.41a9.74 9.74 0 0 1 3.9.787 10.105 10.105 0 0 1 3.175 2.138c.9.9 1.612 1.958 2.137 3.175a9.733 9.733 0 0 1 .788 3.9 9.733 9.733 0 0 1-.788 3.9 10.093 10.093 0 0 1-2.137 3.175c-.9.9-1.958 1.612-3.175 2.137a9.733 9.733 0 0 1-3.9.788Zm0-2c2.233 0 4.125-.776 5.675-2.326C19.225 16.534 20 14.642 20 12.41c0-2.233-.775-4.125-2.325-5.675C16.125 5.184 14.233 4.41 12 4.41c-2.233 0-4.125.775-5.675 2.325C4.775 8.284 4 10.176 4 12.41c0 2.233.775 4.125 2.325 5.675 1.55 1.55 3.442 2.325 5.675 2.325Z"/>
</svg>
