<svg xmlns="http://www.w3.org/2000/svg" width="24" height="25" fill="none" viewBox="0 0 24 25">
  <path fill="#6C6F80" d="M4.286 13.44H1.714c.101.99.345 1.942.707 2.83l2.24-1.293a7.53 7.53 0 0 1-.375-1.537Zm1.557-9.37a10.312 10.312 0 0 0-2.029 1.99l2.24 1.293a7.929 7.929 0 0 1 1.076-1.05L5.843 4.07Zm7.37-1.946v2.578a7.776 7.776 0 0 1 6.518 7.668c0 4.284-3.48 7.768-7.76 7.768a7.728 7.728 0 0 1-2.866-.548l-1.288 2.233c1.27.56 2.676.872 4.15.872 5.694 0 10.31-4.621 10.31-10.321.009-5.283-3.956-9.635-9.065-10.25Zm-2.484 2.578V2.124a10.24 10.24 0 0 0-2.731.72L9.29 5.081a7.9 7.9 0 0 1 1.44-.379ZM2.543 8.19a10.362 10.362 0 0 0-.787 2.768H4.34a7.53 7.53 0 0 1 .43-1.478L2.543 8.19Zm3.313 8.961-2.231 1.29c.58.8 1.275 1.512 2.058 2.118l1.292-2.24a8.393 8.393 0 0 1-1.12-1.168Z"/>
</svg>
