<svg xmlns="http://www.w3.org/2000/svg" width="24" height="25" fill="none" viewBox="0 0 24 25">
  <path fill="#6C6F80" d="M1.714 13.44h2.572a7.53 7.53 0 0 0 .374 1.537l-2.239 1.294a10.273 10.273 0 0 1-.707-2.831Zm2.1-7.381A10.312 10.312 0 0 1 5.843 4.07l1.288 2.233a7.929 7.929 0 0 0-1.078 1.05L3.814 6.058Zm9.398-1.357V2.124c5.11.615 9.074 4.967 9.065 10.25 0 5.7-4.616 10.321-10.31 10.321-1.474 0-2.88-.311-4.15-.872l1.288-2.233a7.728 7.728 0 0 0 2.866.548c4.28 0 7.76-3.484 7.76-7.768a7.776 7.776 0 0 0-6.519-7.668ZM10.73 2.124v2.578c-.498.08-.977.21-1.44.38L7.998 2.843a10.24 10.24 0 0 1 2.731-.72Zm-8.974 8.834c.135-.973.404-1.9.787-2.768L4.77 9.48a7.53 7.53 0 0 0-.43 1.478H1.756Zm1.869 7.482 2.23-1.289c.337.426.712.817 1.12 1.167L5.683 20.56a10.44 10.44 0 0 1-2.058-2.119Z"/>
  <path fill="#6C6F80" d="m7.145 12.186 3.728 3.652 5.636-6.146-1.423-1.602-4.213 4.779-2.302-2.174-1.426 1.49Z"/>
</svg>
