<svg xmlns="http://www.w3.org/2000/svg" width="36" height="36" fill="none" viewBox="0 0 36 36">
  <path fill="#6C6F80" fill-rule="evenodd" d="M25.782 29.44v-6.898l5.598-2.922v6.899l-5.598 2.921Zm0-15.564 5.598-2.848V18l-5.598 2.848v-6.972ZM19.45 9.162l5.597-2.848 6.163 2.848-5.672 2.995-6.088-2.995Zm-7.12-3.486L18.002 3l5.67 2.602-5.67 2.824-5.672-2.75Zm-1.94 6.481L4.792 9.236l5.99-2.848 5.671 2.75-6.063 3.02Zm-.171 8.69L4.621 18v-6.972l5.597 2.848v6.972Zm0 8.593-5.597-2.848v-6.898l5.597 2.848v6.898Zm14.239-9.034-5.597-2.848v-6.972l5.597 2.848v6.972ZM17.19 33l-5.597-2.848v-6.874l5.597 2.848V33ZM18 18.614l6.088 3.069L18 24.922l-6.088-3.24L18 18.613Zm-.908-.81-5.597 2.847V13.68l5.597-2.848v6.973Zm7.316 12.348L18.81 33v-6.898l5.598-2.848v6.898Z" clip-rule="evenodd"/>
</svg>
