<svg xmlns="http://www.w3.org/2000/svg" width="36" height="36" fill="none" viewBox="0 0 36 36">
  <path fill="#6C6F80" fill-rule="evenodd" d="M29.716 14.667a3.333 3.333 0 0 0-3.089 2.083H22.08a5.83 5.83 0 0 0-1.945-3.215l1.614-2.247a2.5 2.5 0 1 0-1.44-.84l-1.586 2.209a5.826 5.826 0 0 0-4.272-.161l-2.268-3.927a3.316 3.316 0 0 0 .866-2.236 3.333 3.333 0 1 0-3.333 3.334c.07 0 .14-.007.208-.011l2.4 4.156a5.817 5.817 0 0 0-1.715 3.355H8.737a2.5 2.5 0 1 0 0 1.666h1.872a5.818 5.818 0 0 0 1.686 3.327L9.88 26.342c-.055-.003-.11-.009-.165-.009a3.333 3.333 0 1 0 3.333 3.334c0-.876-.34-1.671-.893-2.266l2.257-3.91a5.82 5.82 0 0 0 1.97.342c.832 0 1.623-.175 2.34-.49l1.587 2.208a2.5 2.5 0 1 0 1.44-.839l-1.615-2.247a5.83 5.83 0 0 0 1.945-3.215h4.547a3.333 3.333 0 1 0 3.089-4.583Z" clip-rule="evenodd"/>
</svg>
