<svg xmlns="http://www.w3.org/2000/svg" width="36" height="36" fill="none" viewBox="0 0 36 36">
  <path fill="#6C6F80" fill-rule="evenodd" d="M13.37 32.38A15.057 15.057 0 0 1 3 18.057C3 9.741 9.716 3 18 3c8.284 0 15 6.74 15 15.056a15.057 15.057 0 0 1-10.37 14.325 1.326 1.326 0 0 0-1.321-1.262h-1.986v-3.985c0-.579-.368-1.07-.882-1.253v-9.154h6.614l-2.33 6.2h-.093a3.303 3.303 0 0 0 5.598.002l.01-.002-2.54-6.2h2.006c.489 0 .615-.679.159-.855l-9.424-3.655v-1.765A1.328 1.328 0 0 0 18 7.871c-.731 0-1.323.595-1.323 1.329 0 .578.368 1.07.882 1.252v1.765l-9.424 3.655c-.456.176-.33.855.16.855h2.108l-2.33 6.2h-.092a3.304 3.304 0 0 0 5.597.002l.01-.002-2.54-6.2h6.51v9.154a1.329 1.329 0 0 0-.881 1.253v3.985H14.69c-.708 0-1.287.56-1.322 1.262Zm4.189-19.213v2.675H10.66l6.899-2.675Zm.882 2.675v-2.675l6.899 2.675h-6.9ZM18 9.864a.663.663 0 0 1-.662-.664.663.663 0 1 1 1.323 0 .663.663 0 0 1-.661.664ZM8.53 22.927l2.2-5.82 2.399 5.82H8.53Zm14.652 0 2.2-5.82 2.398 5.82h-4.598Z" clip-rule="evenodd"/>
</svg>
