<svg xmlns="http://www.w3.org/2000/svg" width="36" height="36" fill="none" viewBox="0 0 36 36">
  <path fill="#6C6F80" fill-rule="evenodd" d="m11.269 26.063 3.787-11.213a3.834 3.834 0 0 1 3.675-2.625l-1.369 4.088a.146.146 0 0 0 .038.15.17.17 0 0 0 .131.056h2.006c.094 0 .188-.075.225-.169l4.763-14.1-3.694 5.644a10.563 10.563 0 0 0-2.906-.394c-5.794.037-10.5 4.819-10.425 10.631a10.476 10.476 0 0 0 3.769 7.931ZM17.83 28.5c5.794.075 10.594-4.594 10.669-10.387a10.497 10.497 0 0 0-3.769-8.175L20.944 21.15a3.916 3.916 0 0 1-3.694 2.644l1.594-4.707c.018-.056.018-.093-.02-.15-.037-.037-.074-.075-.13-.075h-2.007c-.112 0-.187.076-.225.17L11.475 33.75l3.675-5.644c.844.244 1.744.375 2.681.394Z" clip-rule="evenodd"/>
</svg>
