<svg xmlns="http://www.w3.org/2000/svg" width="36" height="36" fill="none" viewBox="0 0 36 36">
  <path fill="#6C6F80" fill-rule="evenodd" d="m12.297 18.202-.59.592A8.334 8.334 0 1 0 23.46 7.04l-.592.59a7.5 7.5 0 1 1-10.571 10.571Zm6.12-9.869A.417.417 0 0 0 18 7.917a5.423 5.423 0 0 0-5.417 5.416.417.417 0 1 0 .834 0A4.588 4.588 0 0 1 18 8.75c.23 0 .417-.187.417-.417Zm6.225-2.475A9.974 9.974 0 0 1 28 13.333c0 5.242-4.034 9.54-9.167 9.963v.87h3.334a.833.833 0 0 1 0 1.667h-8.334a.833.833 0 0 1 0-1.666h3.334v-.872a9.973 9.973 0 0 1-6.642-3.32 9.877 9.877 0 0 1-.735-.931l1.806-1.806A7.5 7.5 0 0 1 21.905 6.929l.603-.604 1.202-1.202c.325.227.636.47.932.735ZM4.667 12.083c0-.69.56-1.25 1.25-1.25h3.75V12.5H6.333v14.167H4.667V12.083ZM21.315 27.52l11 .014a.625.625 0 0 1 .685.557l-.03 1.284c0 .345-.28.625-.625.625H3.625A.625.625 0 0 1 3 29.375v-1.25c0-.345.28-.625.624-.625l11.03.013v.195c0 .346.28.625.625.625h5.411c.345 0 .625-.28.625-.625v-.188Zm8.768-16.687h-1.25V12.5h.834v14.167h1.666V12.083c0-.69-.56-1.25-1.25-1.25Z" clip-rule="evenodd"/>
</svg>
