<svg xmlns="http://www.w3.org/2000/svg" width="36" height="36" fill="none" viewBox="0 0 36 36">
  <path fill="#6C6F80" fill-rule="evenodd" d="m15.27 12.897-5.21-1.667a.417.417 0 0 1 .255-.794l5.208 1.667a.417.417 0 0 1-.254.794Zm0 2.916-5.21-1.666a.417.417 0 0 1 .255-.794l5.208 1.667a.417.417 0 0 1-.254.793Zm0 2.917-5.21-1.666a.417.417 0 0 1 .255-.794l5.208 1.666a.417.417 0 0 1-.254.794Zm0 2.917-5.21-1.667a.417.417 0 0 1 .255-.794l5.208 1.667a.417.417 0 0 1-.254.794ZM16.991 9.82 8.997 7.517A.836.836 0 0 0 8 8.343V21.79c0 .401.28.747.67.826L17.583 25V10.618c0-.367-.24-.69-.59-.798ZM5.917 10c-.69 0-1.25.56-1.25 1.25v14.583h1.666V11.667h.834V10h-1.25Zm24.166 0h-1.25v1.667h.834v14.166h1.666V11.25c0-.69-.56-1.25-1.25-1.25Zm-4.144 1.23-5.208 1.667a.418.418 0 0 1-.524-.27.417.417 0 0 1 .27-.524l5.208-1.667a.417.417 0 0 1 .254.794Zm0 2.917-5.208 1.666a.418.418 0 0 1-.254-.794l5.208-1.666a.417.417 0 0 1 .254.794Zm0 2.917-5.208 1.666a.418.418 0 0 1-.524-.27.417.417 0 0 1 .27-.524l5.208-1.666a.417.417 0 0 1 .254.794Zm0 2.916-5.208 1.667a.418.418 0 0 1-.254-.794l5.208-1.667a.417.417 0 0 1 .254.794Zm1.064-12.463L19.008 9.82a.833.833 0 0 0-.591.798V25l8.913-2.383a.84.84 0 0 0 .67-.826V8.343a.836.836 0 0 0-.997-.826Zm-5.688 19.17 11 .013a.625.625 0 0 1 .685.558l-.03 1.284c0 .345-.28.625-.625.625H3.625A.625.625 0 0 1 3 28.542v-1.25c0-.346.28-.625.624-.625l11.03.013v.195c0 .345.28.625.625.625h5.411c.345 0 .625-.28.625-.625v-.188Z" clip-rule="evenodd"/>
</svg>
