<svg xmlns="http://www.w3.org/2000/svg" width="36" height="36" fill="none" viewBox="0 0 36 36">
  <path fill="#6C6F80" fill-rule="evenodd" d="M23.559 12.441H31.5A7.941 7.941 0 0 0 23.559 4.5v7.941Zm-18.265 9.53h7.147v-7.942H5.294a.794.794 0 0 0-.794.794v6.354c0 .438.356.794.794.794Zm16.677 0h-7.942v-7.942h7.942v7.942Zm1.588 0v-7.942H31.5a7.941 7.941 0 0 1-7.941 7.942Zm-1.588-9.53h-7.942V5.294c0-.438.356-.794.794-.794h7.148v7.941ZM14.823 31.5h6.354a.794.794 0 0 0 .794-.794v-7.147h-7.942v7.147c0 .438.356.794.794.794Z" clip-rule="evenodd"/>
</svg>
