<svg xmlns="http://www.w3.org/2000/svg" width="36" height="36" fill="none" viewBox="0 0 36 36">
  <path fill="#6C6F80" fill-rule="evenodd" d="M22.219 16.313a2.531 2.531 0 1 1 0-5.063 2.531 2.531 0 0 1 0 5.063Zm0-9.282L10.74 18.51a8.02 8.02 0 0 1 6.75 6.75l11.48-11.48c2.53-2.53 2.53-6.442 2.53-9.28-2.838 0-6.75 0-9.281 2.531ZM9.563 18l5.062-5.063c-3.586 0-6.75.844-9.281 5.063h4.219ZM18 26.438l5.063-5.063c0 3.586-.844 6.75-5.063 9.281v-4.218ZM5.59 30.409a.842.842 0 0 0 1.194 0l6.75-6.75a.843.843 0 1 0-1.193-1.193l-6.75 6.75a.844.844 0 0 0 0 1.193Zm-.246-3.971a.844.844 0 0 1-.597-1.44l5.063-5.063a.843.843 0 1 1 1.193 1.193L5.94 26.19a.842.842 0 0 1-.597.247Zm4.466 4.815a.841.841 0 0 0 1.193 0l5.062-5.063a.843.843 0 1 0-1.193-1.193L9.81 30.06a.843.843 0 0 0 0 1.193Z" clip-rule="evenodd"/>
</svg>
