<svg xmlns="http://www.w3.org/2000/svg" width="36" height="36" fill="none" viewBox="0 0 36 36">
  <path fill="#6C6F80" fill-rule="evenodd" d="M18 3C9.716 3 3 9.716 3 18c0 8.284 6.716 15 15 15 8.284 0 15-6.716 15-15 0-8.284-6.716-15-15-15Zm-3.53 23.823a.885.885 0 0 0 .883-.882V10.06a.885.885 0 0 0-.882-.883.885.885 0 0 0-.883.883v15.88c0 .486.397.883.883.883Zm7.06-1.764a.885.885 0 0 0 .882-.883V11.825a.885.885 0 0 0-.883-.883.885.885 0 0 0-.882.882v12.354c0 .485.397.882.882.882Zm4.411-3.53a.885.885 0 0 1-.882.883.885.885 0 0 1-.883-.883v-7.058c0-.486.398-.883.883-.883s.882.397.882.883v7.058Zm2.647-1.764a.885.885 0 0 1-.882-.883v-1.764c0-.486.397-.883.882-.883s.883.397.883.883v1.764a.885.885 0 0 1-.883.883Zm-9.706 2.647a.885.885 0 0 1-.882.882.885.885 0 0 1-.882-.882v-8.824c0-.485.397-.882.882-.882s.882.397.882.882v8.824Zm-7.059-.883a.885.885 0 0 1-.882.883.885.885 0 0 1-.882-.883v-7.058c0-.486.397-.883.882-.883.486 0 .882.397.882.883v7.058Zm-4.411-1.764a.885.885 0 0 0 .882-.883v-1.764a.885.885 0 0 0-.882-.883.885.885 0 0 0-.883.883v1.764c0 .486.397.883.883.883Z" clip-rule="evenodd"/>
</svg>
