<svg xmlns="http://www.w3.org/2000/svg" width="36" height="36" fill="none" viewBox="0 0 36 36">
  <path fill="#6C6F80" fill-rule="evenodd" d="m19.544 3.02-.12-.017a.81.81 0 0 0-.858.623.814.814 0 0 0 .623.968l2.277.515-10.913 6.18-.218.128a6.905 6.905 0 0 0-2.345 9.418c1.974 3.354 6.322 4.517 9.712 2.597l4.248-2.405.107-.069c.438-.32.57-.92.288-1.4a1.107 1.107 0 0 0-1.494-.4l-4.25 2.406-.202.109c-2.314 1.173-5.193.348-6.52-1.907a4.782 4.782 0 0 1 1.774-6.609l10.91-6.18-.68 2.193-.027.116a.814.814 0 0 0 .57.896.816.816 0 0 0 1.024-.528l1.43-4.598.009-.042.01-.106v-.06l-.007-.08-.025-.114-.039-.104-.056-.104-.064-.086-.084-.086-.088-.067-.079-.047a.837.837 0 0 0-.137-.056l-.044-.012-4.732-1.071Zm8.466 13.33c-1.975-3.353-6.323-4.516-9.712-2.597l-4.249 2.406-.106.069c-.438.32-.57.92-.288 1.4.304.516.973.695 1.494.4l4.249-2.406.203-.109c2.314-1.173 5.193-.349 6.52 1.907a4.782 4.782 0 0 1-1.774 6.609l-7.278 4.12a2.77 2.77 0 0 0-2.988-.175 2.657 2.657 0 0 0-.986 3.671 2.767 2.767 0 0 0 3.736 1 2.657 2.657 0 0 0 1.339-2.627l7.277-4.12.218-.13a6.905 6.905 0 0 0 2.345-9.418Z" clip-rule="evenodd"/>
</svg>
