<svg xmlns="http://www.w3.org/2000/svg" width="36" height="36" fill="none" viewBox="0 0 36 36">
  <path fill="#6C6F80" fill-rule="evenodd" d="M18.083 2.813a9.563 9.563 0 0 0-9.447 8.074.938.938 0 0 0 1.853.292 7.687 7.687 0 0 1 15.188 0 .937.937 0 1 0 1.852-.29 9.562 9.562 0 0 0-9.446-8.076Zm-2.468 6.732a.937.937 0 1 1-1.23-1.415 5.625 5.625 0 0 1 7.37-.01.938.938 0 0 1-1.227 1.418 3.75 3.75 0 0 0-4.913.007Zm11.76 7.307H8.625a.375.375 0 0 0-.375.375v12.75c0 .207.168.375.375.375h18.75a.375.375 0 0 0 .375-.375v-12.75a.375.375 0 0 0-.375-.375Zm-18.75-1.875a2.25 2.25 0 0 0-2.25 2.25v12.75a2.25 2.25 0 0 0 2.25 2.25h18.75a2.25 2.25 0 0 0 2.25-2.25v-12.75a2.25 2.25 0 0 0-2.25-2.25H8.625Zm10.288 9.784a2.438 2.438 0 1 0-1.875-.02v2.118a.938.938 0 0 0 1.875 0V24.76Zm-2.407-12.907.964.964c.256.256.67.256.926 0l.964-.964c.309-.309.243-.84-.15-1.044a2.809 2.809 0 0 0-2.567 0c-.374.204-.446.735-.137 1.044Z" clip-rule="evenodd"/>
</svg>
