<svg xmlns="http://www.w3.org/2000/svg" width="36" height="36" fill="none" viewBox="0 0 36 36">
  <path fill="#6C6F80" d="M18 27.828c.857 0 1.552.694 1.552 1.551v2.07a1.552 1.552 0 1 1-3.104 0v-2.07c0-.857.695-1.551 1.552-1.551Zm-6.95-2.879a1.552 1.552 0 0 1 0 2.195l-1.462 1.463a1.552 1.552 0 1 1-2.195-2.195l1.463-1.463a1.552 1.552 0 0 1 2.195 0Zm16.094 0 1.463 1.463a1.552 1.552 0 1 1-2.195 2.195l-1.463-1.463a1.552 1.552 0 1 1 2.195-2.195ZM18 11.276a6.724 6.724 0 1 1 0 13.448 6.724 6.724 0 0 1 0-13.448Zm0 3.103a3.62 3.62 0 1 0 0 7.242 3.62 3.62 0 0 0 0-7.242ZM6.62 16.45a1.552 1.552 0 1 1 0 3.103H4.553a1.552 1.552 0 1 1 0-3.104H6.62Zm24.828 0a1.552 1.552 0 1 1 0 3.103H29.38a1.552 1.552 0 1 1 0-3.104h2.07ZM9.588 7.392l1.463 1.463a1.552 1.552 0 1 1-2.195 2.195L7.393 9.588a1.552 1.552 0 1 1 2.195-2.195Zm19.019 0a1.552 1.552 0 0 1 0 2.195l-1.463 1.463a1.552 1.552 0 1 1-2.195-2.195l1.463-1.463a1.552 1.552 0 0 1 2.195 0ZM18 3c.857 0 1.552.695 1.552 1.552V6.62a1.552 1.552 0 1 1-3.104 0V4.55c0-.854.695-1.55 1.552-1.55Z"/>
</svg>
