<?xml version="1.0" encoding="utf-8"?>
<!-- Generator: Adobe Illustrator 22.0.1, SVG Export Plug-In . SVG Version: 6.00 Build 0)  -->
<svg version="1.1" id="grow_logo" xmlns="http://www.w3.org/2000/svg" xmlns:xlink="http://www.w3.org/1999/xlink" x="0px" y="0px"
	 viewBox="0 0 142 60" style="enable-background:new 0 0 142 60;" xml:space="preserve">
<style type="text/css">
	.st0{display:none;fill:#333333;fill-opacity:0;}
	.st1{fill:#333333;}
</style>
<rect id="logo_bg" class="st0" width="142" height="60"/>
<path id="GROW" class="st1" d="M67.1,44.7c0.7-0.3,1.4-0.7,2.1-1.3v-6.6h-5.3V39h2.9v3.2c-0.2,0.2-0.6,0.3-0.9,0.5
	c-0.3,0.1-0.8,0.2-1.3,0.1c-1.3,0.1-2.6-0.5-3.4-1.5c-0.8-1.1-1.3-2.6-1.1-4c0-0.8,0.1-1.5,0.3-2.3c0.2-0.6,0.5-1.3,0.9-1.7
	c0.3-0.5,0.8-0.8,1.4-1c0.6-0.2,1.1-0.3,1.8-0.3c0.6,0,1.3,0.1,1.7,0.3c0.5,0.2,0.9,0.6,1.3,0.9l1.4-1.7c-0.6-0.6-1.1-0.9-1.8-1.3
	c-0.9-0.6-1.9-0.7-2.9-0.7c-0.9,0-1.9,0.1-2.8,0.6c-0.8,0.3-1.6,0.9-2.3,1.5c-0.7,0.7-1.1,1.6-1.5,2.4c-0.3,1-0.6,2.2-0.6,3.3
	s0.1,2.3,0.6,3.3c0.3,0.9,0.8,1.7,1.5,2.4c0.6,0.7,1.4,1.1,2.3,1.5c0.9,0.3,1.8,0.5,2.8,0.5C65.3,45.2,66.2,45.1,67.1,44.7z
	 M74.9,45v-5.9h2.3l3.3,5.9h3l-3.6-6.3c0.8-0.2,1.6-0.8,2.2-1.5c0.6-0.8,0.9-1.8,0.8-2.8c0-0.7-0.1-1.5-0.5-2.1
	c-0.2-0.6-0.7-1-1.2-1.4c-0.6-0.3-1.2-0.6-1.7-0.7C78.8,30.1,78,30,77.3,30h-5.1v15H74.9L74.9,45z M74.9,32h2.2
	c0.8,0,1.6,0.1,2.4,0.5c0.6,0.5,0.9,1.2,0.8,1.8c0,0.7-0.2,1.5-0.8,2C78.8,36.8,78,37,77.1,37h-2.2V32L74.9,32z M94.9,44.7
	c0.8-0.3,1.5-0.9,2.1-1.6c0.6-0.7,1-1.6,1.4-2.4c0.3-1,0.5-2.2,0.5-3.3s-0.1-2.2-0.5-3.2c-0.2-0.9-0.8-1.7-1.4-2.4
	c-0.6-0.7-1.3-1.1-2.1-1.5c-0.8-0.3-1.7-0.6-2.6-0.6s-1.8,0.1-2.6,0.6c-0.8,0.3-1.5,0.8-2.1,1.5c-0.6,0.7-1,1.5-1.4,2.4
	c-0.3,1-0.5,2.2-0.5,3.2c0,1.1,0.1,2.2,0.5,3.3c0.2,0.9,0.7,1.7,1.4,2.4c0.6,0.7,1.3,1.3,2.1,1.6c0.8,0.3,1.7,0.6,2.6,0.6
	S94.1,45,94.9,44.7L94.9,44.7z M90.7,42.5c-0.5-0.2-0.9-0.7-1.3-1.1c-0.3-0.6-0.6-1.1-0.8-1.7c-0.2-0.7-0.2-1.5-0.2-2.3
	c-0.1-1.4,0.2-2.8,1-4c1.1-1.6,3.3-1.9,4.9-0.8c0.3,0.2,0.6,0.5,0.8,0.8c0.8,1.1,1.1,2.5,1,4c0,0.8-0.1,1.5-0.2,2.3
	c-0.1,0.6-0.5,1.3-0.8,1.7c-0.3,0.5-0.7,0.8-1.3,1.1C92.9,43,91.7,43,90.7,42.5L90.7,42.5z M106.8,45l1.8-7.9
	c0.1-0.6,0.2-1.1,0.3-1.7s0.2-1.1,0.3-1.7h0.1c0.1,0.6,0.2,1.1,0.3,1.7s0.2,1.1,0.3,1.7l1.8,7.9h3.3l2.9-15h-2.5l-1.3,7.6
	c-0.1,0.8-0.2,1.6-0.3,2.4c-0.1,0.8-0.2,1.6-0.3,2.4h-0.2c-0.1-0.8-0.3-1.6-0.5-2.4c-0.1-0.8-0.3-1.6-0.5-2.4l-1.8-7.6h-2.3
	l-1.8,7.6c-0.1,0.8-0.3,1.6-0.5,2.4c-0.1,0.8-0.3,1.6-0.5,2.4h-0.2c-0.1-0.8-0.2-1.6-0.3-2.4c-0.1-0.8-0.2-1.6-0.3-2.4l-1.3-7.6
	h-2.8l3,15H106.8L106.8,45z"/>
<path id="symbol" class="st1" d="M33.6,39.8c0-2.3-0.5-4.5-1.4-6.6C33.5,29,35.7,25,37.7,23c-3.8,3-6,5.4-7.3,7.7
	c-1-1-2.3-1.7-3.7-2.1c1.4-4.3,5.2-8.7,14-12.6C40.8,16,46.4,30.5,33.6,39.8z M22.9,33.3C27.8,37,29,41.6,29.2,44
	c-7.9-2-9.9-7.1-11.2-14.3c16.3-2.8,14,13.8,14,13.8C29.9,37.4,28.1,35.5,22.9,33.3L22.9,33.3L22.9,33.3z"/>
<g id="telescope_x5F_ai">
	<path class="st1" d="M62.9,16h-2.4v8h-1.1v-8H57v-1h5.9V16z"/>
	<path class="st1" d="M65.3,24.1c-0.8,0-1.5-0.2-1.9-0.7s-0.7-1.2-0.7-2.2v-0.8c0-1,0.2-1.8,0.7-2.4c0.4-0.6,1-0.9,1.8-0.9
		s1.4,0.2,1.8,0.8c0.4,0.5,0.6,1.3,0.6,2.3V21h-3.7v0.2c0,0.7,0.1,1.2,0.4,1.6s0.7,0.5,1.2,0.5c0.3,0,0.6-0.1,0.9-0.2
		c0.2-0.1,0.5-0.3,0.7-0.6l0.6,0.7C67,23.8,66.3,24.1,65.3,24.1z M65.2,18.1c-0.5,0-0.8,0.2-1,0.5s-0.3,0.8-0.4,1.5h2.6V20
		c0-0.6-0.1-1.1-0.3-1.4C65.9,18.3,65.6,18.1,65.2,18.1z"/>
	<path class="st1" d="M70.2,24h-1.1v-9h1.1V24z"/>
	<path class="st1" d="M74.4,24.1c-0.8,0-1.5-0.2-1.9-0.7c-0.4-0.5-0.7-1.2-0.7-2.2v-0.8c0-1,0.2-1.8,0.7-2.4c0.4-0.6,1-0.9,1.8-0.9
		s1.4,0.2,1.8,0.8c0.4,0.5,0.6,1.3,0.6,2.3V21H73v0.2c0,0.7,0.1,1.2,0.4,1.6s0.7,0.5,1.2,0.5c0.3,0,0.6-0.1,0.9-0.2
		c0.2-0.1,0.5-0.3,0.7-0.6l0.6,0.7C76.1,23.8,75.4,24.1,74.4,24.1z M74.3,18.1c-0.5,0-0.8,0.2-1,0.5s-0.3,0.8-0.4,1.5h2.6V20
		c0-0.6-0.1-1.1-0.3-1.4C75,18.3,74.7,18.1,74.3,18.1z"/>
	<path class="st1" d="M81.3,22.3c0-0.2-0.1-0.4-0.3-0.6s-0.5-0.4-1-0.6c-0.6-0.2-1-0.5-1.2-0.6c-0.2-0.2-0.4-0.4-0.5-0.6
		c-0.1-0.2-0.2-0.5-0.2-0.8c0-0.5,0.2-1,0.6-1.4c0.4-0.4,0.9-0.5,1.5-0.5c0.7,0,1.2,0.2,1.6,0.6c0.4,0.4,0.6,0.9,0.6,1.5h-1.1
		c0-0.3-0.1-0.6-0.3-0.8c-0.2-0.2-0.5-0.3-0.8-0.3s-0.6,0.1-0.8,0.3c-0.2,0.2-0.3,0.3-0.3,0.6c0,0.2,0.1,0.4,0.2,0.5
		c0.1,0.1,0.5,0.3,1,0.5c0.8,0.3,1.4,0.6,1.7,0.9s0.4,0.7,0.4,1.2c0,0.6-0.2,1.1-0.6,1.4c-0.4,0.4-0.9,0.5-1.6,0.5s-1.3-0.2-1.7-0.6
		s-0.7-0.9-0.7-1.5h1.1c0,0.4,0.1,0.7,0.3,0.9c0.2,0.2,0.5,0.3,0.9,0.3c0.4,0,0.6-0.1,0.8-0.2C81.2,22.8,81.3,22.6,81.3,22.3z"/>
	<path class="st1" d="M86.3,23.2c0.4,0,0.7-0.1,0.9-0.3c0.2-0.2,0.3-0.5,0.4-1h1c0,0.6-0.3,1.2-0.7,1.6c-0.4,0.4-1,0.6-1.6,0.6
		c-0.8,0-1.5-0.3-1.9-0.8C84,22.8,83.7,22,83.7,21v-0.7c0-1,0.2-1.8,0.7-2.3c0.4-0.5,1.1-0.8,1.9-0.8c0.7,0,1.2,0.2,1.6,0.7
		c0.4,0.4,0.6,1,0.6,1.8h-1c0-0.5-0.1-0.9-0.4-1.1s-0.5-0.4-0.9-0.4c-0.5,0-0.8,0.2-1.1,0.5c-0.2,0.3-0.4,0.8-0.4,1.6V21
		c0,0.8,0.1,1.3,0.3,1.7C85.2,23.1,85.8,23.2,86.3,23.2z"/>
	<path class="st1" d="M89.7,20.4c0-1,0.2-1.7,0.7-2.3c0.5-0.6,1.1-0.9,1.9-0.9s1.4,0.3,1.9,0.8c0.5,0.6,0.7,1.3,0.7,2.3V21
		c0,1-0.2,1.7-0.7,2.3c-0.5,0.6-1.1,0.8-1.9,0.8s-1.4-0.3-1.9-0.8s-0.7-1.3-0.7-2.2V20.4z M90.8,21c0,0.7,0.1,1.2,0.4,1.6
		s0.6,0.6,1.1,0.6c1,0,1.5-0.7,1.5-2.1v-0.8c0-0.7-0.1-1.2-0.4-1.6s-0.6-0.6-1.1-0.6s-0.8,0.2-1.1,0.6c-0.3,0.4-0.4,0.9-0.4,1.6V21z
		"/>
	<path class="st1" d="M101.3,21c0,1.1-0.2,1.9-0.6,2.4c-0.4,0.5-0.9,0.8-1.6,0.8s-1.2-0.3-1.6-0.8v3.2h-1.1v-9.3h1l0.1,0.7
		c0.4-0.6,0.9-0.9,1.6-0.9s1.3,0.3,1.6,0.8c0.4,0.5,0.6,1.3,0.6,2.3V21z M100.2,20.4c0-0.8-0.1-1.3-0.3-1.7
		c-0.2-0.4-0.6-0.5-1.1-0.5s-0.9,0.3-1.2,0.8v3.5c0.3,0.5,0.7,0.8,1.2,0.8s0.9-0.2,1.1-0.5s0.4-0.9,0.4-1.6v-0.8H100.2z"/>
	<path class="st1" d="M105.2,24.1c-0.8,0-1.5-0.2-1.9-0.7c-0.4-0.5-0.7-1.2-0.7-2.2v-0.8c0-1,0.2-1.8,0.7-2.4c0.4-0.6,1-0.9,1.8-0.9
		s1.4,0.2,1.8,0.8c0.4,0.5,0.6,1.3,0.6,2.3V21h-3.7v0.2c0,0.7,0.1,1.2,0.4,1.6s0.7,0.5,1.2,0.5c0.3,0,0.6-0.1,0.9-0.2
		c0.2-0.1,0.5-0.3,0.7-0.6l0.6,0.7C106.9,23.8,106.2,24.1,105.2,24.1z M105.1,18.1c-0.5,0-0.8,0.2-1,0.5s-0.3,0.8-0.4,1.5h2.6V20
		c0-0.6-0.1-1.1-0.3-1.4C105.8,18.3,105.5,18.1,105.1,18.1z"/>
	<path class="st1" d="M114,21.7h-3.1l-0.7,2.4h-1.1l2.9-9h1l2.9,9h-1.2L114,21.7z M111.2,20.7h2.5l-1.2-4.1L111.2,20.7z"/>
	<path class="st1" d="M118,24h-1.1v-9h1.1V24z"/>
</g>
</svg>
