<?xml version="1.0" encoding="utf-8"?>
<!-- Generator: Adobe Illustrator 22.0.1, SVG Export Plug-In . SVG Version: 6.00 Build 0)  -->
<svg version="1.1" id="health_logo" xmlns="http://www.w3.org/2000/svg" xmlns:xlink="http://www.w3.org/1999/xlink" x="0px"
	 y="0px" viewBox="0 0 155 60" style="enable-background:new 0 0 155 60;" xml:space="preserve">
<style type="text/css">
	.st0{display:none;fill:#333333;fill-opacity:0;}
	.st1{fill:#FFFFFF;}
</style>
<rect id="logo_bg" class="st0" width="155" height="60"/>
<path id="HEALTH" class="st1" d="M59.7,45v-6.6h6.1V45h2.7V30h-2.7v6h-6.1v-6H57v15H59.7z M81.4,45v-2.2h-6.6v-4.4h5.4v-2.2h-5.4
	v-3.8h6.4V30h-9v15H81.4L81.4,45z M88.8,34.6c0.2-0.8,0.4-1.7,0.6-2.5h0.1c0.2,0.8,0.4,1.7,0.7,2.5c0.2,0.8,0.4,1.7,0.7,2.5l0.5,1.8
	h-3.8l0.5-1.9C88.3,36.2,88.5,35.4,88.8,34.6L88.8,34.6z M85.8,45l1.2-4.1h5l1.1,4.1h2.8l-4.8-15H88l-4.9,15H85.8z M106.9,45v-2.2
	h-6.2V30H98v15H106.9z M112.7,45V32.2h4.3V30h-11.3v2.2h4.3V45H112.7L112.7,45z M122.4,45v-6.6h6.1V45h2.7V30h-2.7v6h-6.1v-6h-2.7
	v15H122.4z"/>
<path id="symbol" class="st1" d="M26.9,13c8.4-0.2,15.4,6.5,15.6,14.9S36,43.3,27.6,43.5c-8.2,0.2-15-6.1-15.6-14.2h7.3l1.8-5.1
	c0.2-0.5,0.7-0.7,1.1-0.6l0,0c0.3,0.1,0.5,0.4,0.6,0.7l0,0l1.9,9.2L28,19.8c0.1-0.5,0.6-0.8,1-0.7c0,0,0,0,0.1,0
	c0.3,0.1,0.6,0.3,0.7,0.7l0,0l2.4,9.6h4.6c0.5,0,0.9,0.4,0.9,0.9l0,0c0,0.5-0.4,0.9-0.9,0.9h-5.3c-0.4,0-0.8-0.3-0.9-0.7l-1.7-6.7
	l-3.3,14c-0.1,0.4-0.3,0.7-0.7,0.8c-0.5,0.1-0.9-0.2-1.1-0.7l0,0L21.7,28l-1,2.6c-0.1,0.4-0.5,0.7-0.9,0.7h-4.4
	c1.5,6.5,8,10.5,14.5,9s10.5-8,9-14.5s-8-10.5-14.5-9c-5.2,1.2-8.9,5.7-9.3,11H12C12.3,19.5,18.9,13.1,26.9,13L26.9,13z M36.8,41.7
	l5.2,4.5l0,0c0.7,0.6,1.7,0.9,2.6,0.8c1-0.1,1.9-0.6,2.5-1.3l0,0c0.3-0.4,0.6-0.8,0.7-1.3c0.1-0.5,0.2-1,0.1-1.5
	c0-0.5-0.2-1-0.4-1.4l0,0c-0.2-0.4-0.5-0.8-0.9-1.1l0,0l-5.1-4.5c-0.5,1.1-1.2,2.2-2,3.2l0,0C38.8,40.1,37.9,40.9,36.8,41.7
	L36.8,41.7z M15.3,29.5L15.3,29.5L15.3,29.5z"/>
<g id="telescope_x5F_ai">
	<path class="st1" d="M62.9,16h-2.4v8h-1.1v-8H57v-1h5.9V16z"/>
	<path class="st1" d="M65.3,24.1c-0.8,0-1.5-0.2-1.9-0.7s-0.7-1.2-0.7-2.2v-0.8c0-1,0.2-1.8,0.7-2.4c0.4-0.6,1-0.9,1.8-0.9
		s1.4,0.2,1.8,0.8c0.4,0.5,0.6,1.3,0.6,2.3V21h-3.7v0.2c0,0.7,0.1,1.2,0.4,1.6s0.7,0.5,1.2,0.5c0.3,0,0.6-0.1,0.9-0.2
		c0.2-0.1,0.5-0.3,0.7-0.6l0.6,0.7C67,23.8,66.3,24.1,65.3,24.1z M65.2,18.1c-0.5,0-0.8,0.2-1,0.5s-0.3,0.8-0.4,1.5h2.6V20
		c0-0.6-0.1-1.1-0.3-1.4C65.9,18.3,65.6,18.1,65.2,18.1z"/>
	<path class="st1" d="M70.2,24h-1.1v-9h1.1V24z"/>
	<path class="st1" d="M74.4,24.1c-0.8,0-1.5-0.2-1.9-0.7c-0.4-0.5-0.7-1.2-0.7-2.2v-0.8c0-1,0.2-1.8,0.7-2.4c0.4-0.6,1-0.9,1.8-0.9
		s1.4,0.2,1.8,0.8c0.4,0.5,0.6,1.3,0.6,2.3V21H73v0.2c0,0.7,0.1,1.2,0.4,1.6s0.7,0.5,1.2,0.5c0.3,0,0.6-0.1,0.9-0.2
		c0.2-0.1,0.5-0.3,0.7-0.6l0.6,0.7C76.1,23.8,75.4,24.1,74.4,24.1z M74.3,18.1c-0.5,0-0.8,0.2-1,0.5s-0.3,0.8-0.4,1.5h2.6V20
		c0-0.6-0.1-1.1-0.3-1.4C75,18.3,74.7,18.1,74.3,18.1z"/>
	<path class="st1" d="M81.3,22.3c0-0.2-0.1-0.4-0.3-0.6s-0.5-0.4-1-0.6c-0.6-0.2-1-0.5-1.2-0.6c-0.2-0.2-0.4-0.4-0.5-0.6
		c-0.1-0.2-0.2-0.5-0.2-0.8c0-0.5,0.2-1,0.6-1.4c0.4-0.4,0.9-0.5,1.5-0.5c0.7,0,1.2,0.2,1.6,0.6c0.4,0.4,0.6,0.9,0.6,1.5h-1.1
		c0-0.3-0.1-0.6-0.3-0.8c-0.2-0.2-0.5-0.3-0.8-0.3s-0.6,0.1-0.8,0.3c-0.2,0.2-0.3,0.3-0.3,0.6c0,0.2,0.1,0.4,0.2,0.5
		c0.1,0.1,0.5,0.3,1,0.5c0.8,0.3,1.4,0.6,1.7,0.9s0.4,0.7,0.4,1.2c0,0.6-0.2,1.1-0.6,1.4c-0.4,0.4-0.9,0.5-1.6,0.5s-1.3-0.2-1.7-0.6
		s-0.7-0.9-0.7-1.5h1.1c0,0.4,0.1,0.7,0.3,0.9c0.2,0.2,0.5,0.3,0.9,0.3c0.4,0,0.6-0.1,0.8-0.2C81.2,22.8,81.3,22.6,81.3,22.3z"/>
	<path class="st1" d="M86.3,23.2c0.4,0,0.7-0.1,0.9-0.3c0.2-0.2,0.3-0.5,0.4-1h1c0,0.6-0.3,1.2-0.7,1.6c-0.4,0.4-1,0.6-1.6,0.6
		c-0.8,0-1.5-0.3-1.9-0.8C84,22.8,83.7,22,83.7,21v-0.7c0-1,0.2-1.8,0.7-2.3c0.4-0.5,1.1-0.8,1.9-0.8c0.7,0,1.2,0.2,1.6,0.7
		c0.4,0.4,0.6,1,0.6,1.8h-1c0-0.5-0.1-0.9-0.4-1.1s-0.5-0.4-0.9-0.4c-0.5,0-0.8,0.2-1.1,0.5c-0.2,0.3-0.4,0.8-0.4,1.6V21
		c0,0.8,0.1,1.3,0.3,1.7C85.2,23.1,85.8,23.2,86.3,23.2z"/>
	<path class="st1" d="M89.7,20.4c0-1,0.2-1.7,0.7-2.3c0.5-0.6,1.1-0.9,1.9-0.9s1.4,0.3,1.9,0.8c0.5,0.6,0.7,1.3,0.7,2.3V21
		c0,1-0.2,1.7-0.7,2.3c-0.5,0.6-1.1,0.8-1.9,0.8s-1.4-0.3-1.9-0.8s-0.7-1.3-0.7-2.2V20.4z M90.8,21c0,0.7,0.1,1.2,0.4,1.6
		s0.6,0.6,1.1,0.6c1,0,1.5-0.7,1.5-2.1v-0.8c0-0.7-0.1-1.2-0.4-1.6s-0.6-0.6-1.1-0.6s-0.8,0.2-1.1,0.6c-0.3,0.4-0.4,0.9-0.4,1.6V21z
		"/>
	<path class="st1" d="M101.3,21c0,1.1-0.2,1.9-0.6,2.4c-0.4,0.5-0.9,0.8-1.6,0.8s-1.2-0.3-1.6-0.8v3.2h-1.1v-9.3h1l0.1,0.7
		c0.4-0.6,0.9-0.9,1.6-0.9s1.3,0.3,1.6,0.8c0.4,0.5,0.6,1.3,0.6,2.3V21z M100.2,20.4c0-0.8-0.1-1.3-0.3-1.7
		c-0.2-0.4-0.6-0.5-1.1-0.5s-0.9,0.3-1.2,0.8v3.5c0.3,0.5,0.7,0.8,1.2,0.8s0.9-0.2,1.1-0.5s0.4-0.9,0.4-1.6v-0.8H100.2z"/>
	<path class="st1" d="M105.2,24.1c-0.8,0-1.5-0.2-1.9-0.7c-0.4-0.5-0.7-1.2-0.7-2.2v-0.8c0-1,0.2-1.8,0.7-2.4c0.4-0.6,1-0.9,1.8-0.9
		s1.4,0.2,1.8,0.8c0.4,0.5,0.6,1.3,0.6,2.3V21h-3.7v0.2c0,0.7,0.1,1.2,0.4,1.6s0.7,0.5,1.2,0.5c0.3,0,0.6-0.1,0.9-0.2
		c0.2-0.1,0.5-0.3,0.7-0.6l0.6,0.7C106.9,23.8,106.2,24.1,105.2,24.1z M105.1,18.1c-0.5,0-0.8,0.2-1,0.5s-0.3,0.8-0.4,1.5h2.6V20
		c0-0.6-0.1-1.1-0.3-1.4C105.8,18.3,105.5,18.1,105.1,18.1z"/>
	<path class="st1" d="M114,21.7h-3.1l-0.7,2.4h-1.1l2.9-9h1l2.9,9h-1.2L114,21.7z M111.2,20.7h2.5l-1.2-4.1L111.2,20.7z"/>
	<path class="st1" d="M118,24h-1.1v-9h1.1V24z"/>
</g>
</svg>
