<?xml version="1.0" encoding="utf-8"?>
<!-- Generator: Adobe Illustrator 22.0.1, SVG Export Plug-In . SVG Version: 6.00 Build 0)  -->
<svg version="1.1" id="heroes_logo" xmlns="http://www.w3.org/2000/svg" xmlns:xlink="http://www.w3.org/1999/xlink" x="0px"
	 y="0px" viewBox="0 0 161 60" style="enable-background:new 0 0 161 60;" xml:space="preserve">
<style type="text/css">
	.st0{display:none;fill:#333333;fill-opacity:0;}
	.st1{fill:#333333;}
</style>
<rect id="logo_bg" class="st0" width="161" height="60"/>
<path id="Heroes" class="st1" d="M59.7,45v-6.7h6.1V45h2.7V30h-2.7v6h-6.1v-6H57v15H59.7z M81.8,45v-2.3h-6.6v-4.4h5.4V36h-5.4v-3.8
	h6.4V30h-9.1v15H81.8L81.8,45z M87.8,45v-5.9h2.3l3.2,5.9h3l-3.6-6.3c0.9-0.3,1.6-0.8,2.2-1.5c0.6-0.8,0.9-1.8,0.8-2.8
	c0-0.7-0.1-1.5-0.4-2.1c-0.3-0.5-0.7-1-1.2-1.4s-1.1-0.6-1.8-0.7C91.7,30,91,30,90.2,30h-5.1v15H87.8L87.8,45z M87.8,32.1H90
	c0.8,0,1.6,0.1,2.4,0.5c0.6,0.4,0.9,1.1,0.8,1.8c0.1,0.7-0.3,1.5-0.8,1.9c-0.7,0.5-1.5,0.7-2.4,0.6h-2.1L87.8,32.1L87.8,32.1z
	 M107.6,44.8c0.8-0.4,1.5-0.9,2.1-1.6c0.6-0.7,1.1-1.6,1.4-2.5c0.3-1.1,0.5-2.2,0.5-3.3s-0.1-2.2-0.5-3.3c-0.3-0.9-0.8-1.7-1.4-2.4
	c-0.6-0.7-1.3-1.2-2.1-1.5c-0.9-0.4-1.8-0.5-2.7-0.5c-0.9,0-1.8,0.2-2.7,0.5c-0.8,0.3-1.5,0.9-2.1,1.5c-0.6,0.7-1.1,1.5-1.4,2.4
	c-0.3,1.1-0.5,2.2-0.5,3.3s0.1,2.2,0.5,3.3c0.3,0.9,0.7,1.7,1.4,2.5c0.6,0.7,1.3,1.2,2.1,1.6c0.9,0.4,1.8,0.6,2.7,0.5
	C105.8,45.3,106.7,45.1,107.6,44.8L107.6,44.8z M103.2,42.6c-0.5-0.3-0.9-0.7-1.2-1.1c-0.4-0.5-0.6-1.1-0.8-1.8
	c-0.2-0.7-0.3-1.5-0.3-2.3c-0.1-1.4,0.3-2.8,1-4c1.2-1.6,3.4-1.9,4.9-0.8c0.3,0.2,0.5,0.5,0.8,0.8c0.8,1.2,1.1,2.6,1,4
	c0,0.8-0.1,1.5-0.3,2.3c-0.2,0.6-0.4,1.2-0.8,1.8c-0.3,0.5-0.7,0.8-1.2,1.1C105.5,43.1,104.3,43.1,103.2,42.6L103.2,42.6z M124.1,45
	v-2.3h-6.6v-4.4h5.4V36h-5.4v-3.8h6.4V30h-9.1v15H124.1L124.1,45z M134.1,45c0.6-0.2,1.2-0.5,1.7-1c0.5-0.4,0.8-0.9,1.1-1.4
	c0.2-0.5,0.4-1.1,0.4-1.7c0-0.5-0.1-1-0.2-1.5c-0.1-0.4-0.4-0.8-0.6-1.1c-0.3-0.3-0.6-0.6-1-0.9c-0.4-0.3-0.8-0.5-1.2-0.6l-2.1-0.9
	c-0.3-0.1-0.6-0.2-0.9-0.4c-0.3-0.1-0.5-0.3-0.8-0.4c-0.2-0.1-0.4-0.3-0.5-0.6c-0.1-0.2-0.2-0.5-0.2-0.7c0-0.5,0.2-1,0.6-1.3
	c0.5-0.3,1.1-0.5,1.7-0.5c0.6,0,1.2,0.1,1.8,0.3c0.5,0.2,1.1,0.6,1.5,0.9l1.4-1.7c-0.6-0.6-1.3-1.1-2.1-1.4s-1.7-0.5-2.5-0.5
	c-0.7,0-1.4,0.1-2,0.3c-0.6,0.2-1.1,0.5-1.6,0.9c-0.4,0.4-0.8,0.8-1,1.3c-0.5,1-0.5,2.1-0.1,3.1c0.2,0.4,0.4,0.8,0.7,1.1
	s0.6,0.6,1,0.8c0.3,0.2,0.7,0.4,1.1,0.6l2.1,0.9c0.3,0.1,0.6,0.3,0.9,0.4c0.3,0.1,0.5,0.3,0.7,0.4c0.2,0.2,0.4,0.3,0.5,0.6
	c0.1,0.2,0.2,0.5,0.2,0.8c0,0.5-0.2,1.1-0.7,1.4c-0.6,0.4-1.3,0.6-2,0.5c-0.7,0-1.4-0.2-2.1-0.5c-0.7-0.3-1.3-0.7-1.8-1.2l-1.6,1.8
	c0.7,0.7,1.6,1.3,2.5,1.6c0.9,0.4,1.9,0.6,2.9,0.6C132.6,45.3,133.3,45.2,134.1,45L134.1,45z"/>
<g id="telescope_x5F_ai">
	<path class="st1" d="M62.9,16h-2.4v8h-1.1v-8H57v-1h5.9V16z"/>
	<path class="st1" d="M65.3,24.1c-0.8,0-1.5-0.2-1.9-0.7s-0.7-1.2-0.7-2.2v-0.8c0-1,0.2-1.8,0.7-2.4c0.4-0.6,1-0.9,1.8-0.9
		s1.4,0.2,1.8,0.8c0.4,0.5,0.6,1.3,0.6,2.3V21h-3.7v0.2c0,0.7,0.1,1.2,0.4,1.6s0.7,0.5,1.2,0.5c0.3,0,0.6-0.1,0.9-0.2
		c0.2-0.1,0.5-0.3,0.7-0.6l0.6,0.7C67,23.8,66.3,24.1,65.3,24.1z M65.2,18.1c-0.5,0-0.8,0.2-1,0.5s-0.3,0.8-0.4,1.5h2.6V20
		c0-0.6-0.1-1.1-0.3-1.4C65.9,18.3,65.6,18.1,65.2,18.1z"/>
	<path class="st1" d="M70.2,24h-1.1v-9h1.1V24z"/>
	<path class="st1" d="M74.4,24.1c-0.8,0-1.5-0.2-1.9-0.7c-0.4-0.5-0.7-1.2-0.7-2.2v-0.8c0-1,0.2-1.8,0.7-2.4c0.4-0.6,1-0.9,1.8-0.9
		s1.4,0.2,1.8,0.8c0.4,0.5,0.6,1.3,0.6,2.3V21H73v0.2c0,0.7,0.1,1.2,0.4,1.6s0.7,0.5,1.2,0.5c0.3,0,0.6-0.1,0.9-0.2
		c0.2-0.1,0.5-0.3,0.7-0.6l0.6,0.7C76.1,23.8,75.4,24.1,74.4,24.1z M74.3,18.1c-0.5,0-0.8,0.2-1,0.5s-0.3,0.8-0.4,1.5h2.6V20
		c0-0.6-0.1-1.1-0.3-1.4C75,18.3,74.7,18.1,74.3,18.1z"/>
	<path class="st1" d="M81.3,22.3c0-0.2-0.1-0.4-0.3-0.6s-0.5-0.4-1-0.6c-0.6-0.2-1-0.5-1.2-0.6c-0.2-0.2-0.4-0.4-0.5-0.6
		c-0.1-0.2-0.2-0.5-0.2-0.8c0-0.5,0.2-1,0.6-1.4c0.4-0.4,0.9-0.5,1.5-0.5c0.7,0,1.2,0.2,1.6,0.6c0.4,0.4,0.6,0.9,0.6,1.5h-1.1
		c0-0.3-0.1-0.6-0.3-0.8c-0.2-0.2-0.5-0.3-0.8-0.3s-0.6,0.1-0.8,0.3c-0.2,0.2-0.3,0.3-0.3,0.6c0,0.2,0.1,0.4,0.2,0.5
		c0.1,0.1,0.5,0.3,1,0.5c0.8,0.3,1.4,0.6,1.7,0.9s0.4,0.7,0.4,1.2c0,0.6-0.2,1.1-0.6,1.4c-0.4,0.4-0.9,0.5-1.6,0.5s-1.3-0.2-1.7-0.6
		s-0.7-0.9-0.7-1.5h1.1c0,0.4,0.1,0.7,0.3,0.9c0.2,0.2,0.5,0.3,0.9,0.3c0.4,0,0.6-0.1,0.8-0.2C81.2,22.8,81.3,22.6,81.3,22.3z"/>
	<path class="st1" d="M86.3,23.2c0.4,0,0.7-0.1,0.9-0.3c0.2-0.2,0.3-0.5,0.4-1h1c0,0.6-0.3,1.2-0.7,1.6c-0.4,0.4-1,0.6-1.6,0.6
		c-0.8,0-1.5-0.3-1.9-0.8C84,22.8,83.7,22,83.7,21v-0.7c0-1,0.2-1.8,0.7-2.3c0.4-0.5,1.1-0.8,1.9-0.8c0.7,0,1.2,0.2,1.6,0.7
		c0.4,0.4,0.6,1,0.6,1.8h-1c0-0.5-0.1-0.9-0.4-1.1s-0.5-0.4-0.9-0.4c-0.5,0-0.8,0.2-1.1,0.5c-0.2,0.3-0.4,0.8-0.4,1.6V21
		c0,0.8,0.1,1.3,0.3,1.7C85.2,23.1,85.8,23.2,86.3,23.2z"/>
	<path class="st1" d="M89.7,20.4c0-1,0.2-1.7,0.7-2.3c0.5-0.6,1.1-0.9,1.9-0.9s1.4,0.3,1.9,0.8c0.5,0.6,0.7,1.3,0.7,2.3V21
		c0,1-0.2,1.7-0.7,2.3c-0.5,0.6-1.1,0.8-1.9,0.8s-1.4-0.3-1.9-0.8s-0.7-1.3-0.7-2.2V20.4z M90.8,21c0,0.7,0.1,1.2,0.4,1.6
		s0.6,0.6,1.1,0.6c1,0,1.5-0.7,1.5-2.1v-0.8c0-0.7-0.1-1.2-0.4-1.6s-0.6-0.6-1.1-0.6s-0.8,0.2-1.1,0.6c-0.3,0.4-0.4,0.9-0.4,1.6V21z
		"/>
	<path class="st1" d="M101.3,21c0,1.1-0.2,1.9-0.6,2.4c-0.4,0.5-0.9,0.8-1.6,0.8s-1.2-0.3-1.6-0.8v3.2h-1.1v-9.3h1l0.1,0.7
		c0.4-0.6,0.9-0.9,1.6-0.9s1.3,0.3,1.6,0.8c0.4,0.5,0.6,1.3,0.6,2.3V21z M100.2,20.4c0-0.8-0.1-1.3-0.3-1.7
		c-0.2-0.4-0.6-0.5-1.1-0.5s-0.9,0.3-1.2,0.8v3.5c0.3,0.5,0.7,0.8,1.2,0.8s0.9-0.2,1.1-0.5s0.4-0.9,0.4-1.6v-0.8H100.2z"/>
	<path class="st1" d="M105.2,24.1c-0.8,0-1.5-0.2-1.9-0.7c-0.4-0.5-0.7-1.2-0.7-2.2v-0.8c0-1,0.2-1.8,0.7-2.4c0.4-0.6,1-0.9,1.8-0.9
		s1.4,0.2,1.8,0.8c0.4,0.5,0.6,1.3,0.6,2.3V21h-3.7v0.2c0,0.7,0.1,1.2,0.4,1.6s0.7,0.5,1.2,0.5c0.3,0,0.6-0.1,0.9-0.2
		c0.2-0.1,0.5-0.3,0.7-0.6l0.6,0.7C106.9,23.8,106.2,24.1,105.2,24.1z M105.1,18.1c-0.5,0-0.8,0.2-1,0.5s-0.3,0.8-0.4,1.5h2.6V20
		c0-0.6-0.1-1.1-0.3-1.4C105.8,18.3,105.5,18.1,105.1,18.1z"/>
	<path class="st1" d="M114,21.7h-3.1l-0.7,2.4h-1.1l2.9-9h1l2.9,9h-1.2L114,21.7z M111.2,20.7h2.5l-1.2-4.1L111.2,20.7z"/>
	<path class="st1" d="M118,24h-1.1v-9h1.1V24z"/>
</g>
<path id="symbol" class="st1" d="M26.4,26.2l-4.7,13.5c-2.9-2.3-4.6-5.8-4.7-9.6c0-7.1,5.8-12.8,12.9-12.8c1.2,0,2.4,0.2,3.6,0.5
	l4.6-6.8l-5.9,17c0,0.1-0.2,0.2-0.3,0.2h-2.5c-0.1,0-0.1,0-0.2-0.1c0-0.1-0.1-0.1,0-0.2l1.7-4.9l0,0C28.9,23,27,24.3,26.4,26.2z
	 M43,30.1c-0.2,7.1-6.1,12.7-13.2,12.5c-1.1,0-2.2-0.2-3.3-0.5L21.9,49l6.2-17.7c0-0.1,0.2-0.2,0.3-0.2h2.5c0.1,0,0.1,0,0.2,0.1
	c0,0.1,0.1,0.1,0,0.2l-2,5.7l0,0c2.1,0,3.9-1.3,4.6-3.2l4.7-13.5C41.3,22.7,43,26.3,43,30.1z"/>
</svg>
