<?xml version="1.0" encoding="utf-8"?>
<!-- Generator: Adobe Illustrator 22.0.1, SVG Export Plug-In . SVG Version: 6.00 Build 0)  -->
<svg version="1.1" id="learn_studio_logo" xmlns="http://www.w3.org/2000/svg" xmlns:xlink="http://www.w3.org/1999/xlink" x="0px"
	 y="0px" viewBox="0 0 224 60" style="enable-background:new 0 0 224 60;" xml:space="preserve">
<style type="text/css">
	.st0{fill:#333333;fill-opacity:0;}
	.st1{fill:#FFFFFF;}
</style>
<rect id="logo_bg" class="st0" width="224" height="60"/>
<path id="Learn_studio" class="st1" d="M65.9,45v-2.3h-6.2V30H57v15H65.9z M77.8,45v-2.3h-6.6v-4.4h5.4V36h-5.4v-3.8h6.4V30h-9v15
	H77.8L77.8,45z M84.7,34.6c0.2-0.8,0.4-1.7,0.6-2.5h0.1c0.2,0.8,0.4,1.7,0.7,2.5c0.2,0.8,0.4,1.7,0.7,2.5l0.5,1.8h-3.8L84,37
	C84.2,36.3,84.5,35.4,84.7,34.6L84.7,34.6z M81.7,45l1.2-4.1H88l1.2,4.1H92l-5-15h-3.1L79,45H81.7z M96.4,45v-5.9h2.3l3.2,5.9h3
	l-3.6-6.3c0.9-0.3,1.6-0.8,2.2-1.5c0.6-0.8,0.9-1.8,0.8-2.8c0-0.7-0.1-1.4-0.4-2.1c-0.3-0.5-0.7-1-1.2-1.4s-1.1-0.6-1.7-0.7
	c-0.7-0.2-1.4-0.2-2.2-0.2h-5.1v15H96.4L96.4,45z M96.4,32.2h2.1c0.8,0,1.6,0.1,2.4,0.5c0.6,0.4,0.9,1.1,0.8,1.8
	c0.1,0.7-0.3,1.5-0.8,1.9c-0.7,0.5-1.5,0.7-2.4,0.6h-2.1V32.2z M109.9,45v-6.6c0-0.8,0-1.7-0.1-2.6c-0.1-0.9-0.2-1.7-0.2-2.5h0.1
	l1.5,3.2l4.7,8.5h2.7V30H116v6.5c0,0.9,0,1.7,0.1,2.6c0.1,0.9,0.1,1.7,0.2,2.5h-0.1l-1.5-3.2L110,30h-2.7v15H109.9L109.9,45z
	 M133.6,45c0.6-0.2,1.2-0.5,1.7-1c0.4-0.4,0.8-0.9,1.1-1.4c0.2-0.5,0.4-1.1,0.4-1.7c0-0.5-0.1-1-0.2-1.5c-0.1-0.4-0.4-0.8-0.6-1.1
	c-0.3-0.3-0.6-0.6-1-0.8c-0.4-0.3-0.8-0.5-1.2-0.6l-2-0.8c-0.3-0.1-0.6-0.2-0.9-0.4c-0.3-0.1-0.5-0.3-0.8-0.4
	c-0.2-0.1-0.4-0.3-0.5-0.6c-0.1-0.2-0.2-0.5-0.2-0.7c0-0.5,0.2-1,0.6-1.3c0.5-0.3,1.1-0.5,1.7-0.5s1.2,0.1,1.7,0.3s1.1,0.6,1.5,0.9
	l1.4-1.7c-0.6-0.6-1.3-1.1-2.1-1.4c-0.8-0.3-1.7-0.5-2.5-0.5c-0.7,0-1.4,0.1-2,0.3c-0.6,0.2-1.1,0.5-1.6,0.9c-0.4,0.4-0.8,0.8-1,1.3
	c-0.5,1-0.5,2.1-0.1,3.1c0.2,0.4,0.4,0.8,0.7,1.1c0.3,0.3,0.6,0.6,1,0.8c0.3,0.2,0.7,0.4,1.1,0.6l2.1,0.9c0.3,0.1,0.6,0.3,0.9,0.4
	c0.3,0.1,0.5,0.3,0.7,0.4c0.2,0.2,0.4,0.3,0.5,0.6c0.1,0.2,0.2,0.5,0.2,0.8c0,0.5-0.2,1.1-0.7,1.4c-0.6,0.4-1.3,0.6-2,0.5
	c-0.7,0-1.4-0.2-2.1-0.5s-1.3-0.7-1.8-1.2L126,43c0.7,0.7,1.6,1.3,2.5,1.6c0.9,0.4,1.9,0.6,2.9,0.6C132.1,45.3,132.9,45.2,133.6,45z
	 M144.7,45V32.3h4.3V30h-11.3v2.3h4.3V45H144.7L144.7,45z M159.6,44.9c0.7-0.3,1.3-0.7,1.8-1.2c0.5-0.6,0.9-1.3,1.1-2.1
	c0.3-1,0.4-2.1,0.4-3.2V30h-2.5v8.6c0,0.7-0.1,1.4-0.2,2.1c-0.1,0.5-0.3,0.9-0.6,1.3c-0.3,0.3-0.6,0.6-1,0.7
	c-0.4,0.1-0.8,0.2-1.3,0.2c-0.4,0-0.8-0.1-1.2-0.2c-0.4-0.2-0.7-0.4-1-0.7c-0.3-0.4-0.5-0.9-0.6-1.3c-0.2-0.7-0.2-1.4-0.2-2.1V30
	h-2.7v8.4c0,1.1,0.1,2.1,0.4,3.2c0.2,0.8,0.6,1.5,1.1,2.1c0.5,0.5,1.1,1,1.8,1.2C156.4,45.4,158,45.4,159.6,44.9L159.6,44.9z
	 M170.8,45c1,0,2-0.1,3-0.5c0.8-0.3,1.6-0.8,2.3-1.4c0.6-0.7,1.1-1.5,1.4-2.4c0.3-1.1,0.5-2.2,0.5-3.3c0.5-3.6-2.1-7-5.7-7.4
	c-0.5-0.1-1.1-0.1-1.6,0h-4v15H170.8L170.8,45z M169.3,32.2h1.2c1.3-0.1,2.6,0.4,3.5,1.3c0.9,1.1,1.4,2.6,1.2,4
	c0.1,1.5-0.3,2.9-1.2,4.1c-0.9,0.9-2.2,1.4-3.5,1.3h-1.2V32.2z M183.6,45V30H181v15H183.6z M196,44.8c0.8-0.4,1.5-0.9,2.1-1.6
	c0.6-0.7,1.1-1.6,1.4-2.5c0.3-1.1,0.5-2.2,0.5-3.3s-0.1-2.2-0.5-3.2c-0.3-0.9-0.8-1.7-1.4-2.4c-0.6-0.6-1.3-1.2-2.1-1.5
	c-0.9-0.4-1.8-0.5-2.7-0.5s-1.8,0.2-2.7,0.5c-0.8,0.3-1.5,0.9-2.1,1.5c-0.6,0.7-1.1,1.5-1.4,2.4c-0.3,1-0.5,2.1-0.5,3.2
	c0,1.1,0.1,2.2,0.5,3.3c0.3,0.9,0.7,1.7,1.4,2.5c0.6,0.7,1.3,1.2,2.1,1.6c0.8,0.4,1.8,0.6,2.7,0.5C194.2,45.3,195.1,45.1,196,44.8
	L196,44.8z M191.7,42.6c-0.5-0.3-0.9-0.7-1.2-1.1c-0.4-0.5-0.6-1.1-0.8-1.7c-0.2-0.7-0.3-1.5-0.3-2.3c-0.1-1.4,0.3-2.8,1-4
	c1.2-1.6,3.4-1.9,4.9-0.8c0.3,0.2,0.5,0.5,0.8,0.8c0.8,1.2,1.1,2.6,1,4c0,0.8-0.1,1.5-0.3,2.3c-0.2,0.6-0.4,1.2-0.8,1.7
	c-0.3,0.5-0.7,0.8-1.2,1.1C193.9,43.1,192.7,43.1,191.7,42.6L191.7,42.6z"/>
<path id="symbol" class="st1" d="M17.7,21.4c-0.8,0-1.5,0.7-1.5,1.5l0,0l0,0v15.6h1.5V22.9h4.5v-1.5H17.7z M44.3,21.4h-2.8v1.5h2.8
	v15.6h1.5V22.9C45.8,22.1,45.1,21.4,44.3,21.4L44.3,21.4L44.3,21.4z M48,40v2.2c0,0.4-0.3,0.7-0.7,0.7H14.7c-0.4,0-0.7-0.3-0.7-0.7
	V40c0-0.4,0.3-0.7,0.7-0.7h12.6V40c0,0.4,0.3,0.7,0.7,0.7h6c0.4,0,0.7-0.3,0.7-0.7l0,0l0,0v-0.7h12.6C47.7,39.3,48,39.6,48,40L48,40
	L48,40L48,40z M37.5,30.9c3.8-3.8,4-9.8,0.6-13.9l-0.9-1l-2.5,2.5c-2.9-2.4-7.1-1.9-9.5,0.9c0,0,0,0,0,0.1c-2,2.5-2,6.1,0,8.6
	l-2.4,2.4l1,0.9c1.8,1.5,4,2.4,6.3,2.4v1.6h-2.7v1.4h7.5v-1.4H32v-1.7C34.1,33.4,36,32.4,37.5,30.9L37.5,30.9z M30.3,18.7v1.4
	c-2.1,0-3.7,1.7-3.7,3.8l0,0h-1.4C25.2,21,27.5,18.7,30.3,18.7L30.3,18.7L30.3,18.7z M26,29.1c2.9,2.4,7.1,1.9,9.5-0.9
	c0,0,0,0,0-0.1c2-2.5,2-6.1,0-8.6l1.3-1.3c3,3.7,2.5,9-1.2,12c-3.1,2.6-7.7,2.6-10.8,0L26,29.1z"/>
<g id="telescope_x5F_ai">
	<path class="st1" d="M62.9,16h-2.4v8h-1.1v-8H57v-1h5.9V16z"/>
	<path class="st1" d="M65.3,24.1c-0.8,0-1.5-0.2-1.9-0.7s-0.7-1.2-0.7-2.2v-0.8c0-1,0.2-1.8,0.7-2.4c0.4-0.6,1-0.9,1.8-0.9
		s1.4,0.2,1.8,0.8c0.4,0.5,0.6,1.3,0.6,2.3V21h-3.7v0.2c0,0.7,0.1,1.2,0.4,1.6s0.7,0.5,1.2,0.5c0.3,0,0.6-0.1,0.9-0.2
		c0.2-0.1,0.5-0.3,0.7-0.6l0.6,0.7C67,23.8,66.3,24.1,65.3,24.1z M65.2,18.1c-0.5,0-0.8,0.2-1,0.5s-0.3,0.8-0.4,1.5h2.6V20
		c0-0.6-0.1-1.1-0.3-1.4C65.9,18.3,65.6,18.1,65.2,18.1z"/>
	<path class="st1" d="M70.2,24h-1.1v-9h1.1V24z"/>
	<path class="st1" d="M74.4,24.1c-0.8,0-1.5-0.2-1.9-0.7c-0.4-0.5-0.7-1.2-0.7-2.2v-0.8c0-1,0.2-1.8,0.7-2.4c0.4-0.6,1-0.9,1.8-0.9
		s1.4,0.2,1.8,0.8c0.4,0.5,0.6,1.3,0.6,2.3V21H73v0.2c0,0.7,0.1,1.2,0.4,1.6s0.7,0.5,1.2,0.5c0.3,0,0.6-0.1,0.9-0.2
		c0.2-0.1,0.5-0.3,0.7-0.6l0.6,0.7C76.1,23.8,75.4,24.1,74.4,24.1z M74.3,18.1c-0.5,0-0.8,0.2-1,0.5s-0.3,0.8-0.4,1.5h2.6V20
		c0-0.6-0.1-1.1-0.3-1.4C75,18.3,74.7,18.1,74.3,18.1z"/>
	<path class="st1" d="M81.3,22.3c0-0.2-0.1-0.4-0.3-0.6s-0.5-0.4-1-0.6c-0.6-0.2-1-0.5-1.2-0.6c-0.2-0.2-0.4-0.4-0.5-0.6
		c-0.1-0.2-0.2-0.5-0.2-0.8c0-0.5,0.2-1,0.6-1.4c0.4-0.4,0.9-0.5,1.5-0.5c0.7,0,1.2,0.2,1.6,0.6c0.4,0.4,0.6,0.9,0.6,1.5h-1.1
		c0-0.3-0.1-0.6-0.3-0.8c-0.2-0.2-0.5-0.3-0.8-0.3s-0.6,0.1-0.8,0.3c-0.2,0.2-0.3,0.3-0.3,0.6c0,0.2,0.1,0.4,0.2,0.5
		c0.1,0.1,0.5,0.3,1,0.5c0.8,0.3,1.4,0.6,1.7,0.9s0.4,0.7,0.4,1.2c0,0.6-0.2,1.1-0.6,1.4c-0.4,0.4-0.9,0.5-1.6,0.5s-1.3-0.2-1.7-0.6
		s-0.7-0.9-0.7-1.5h1.1c0,0.4,0.1,0.7,0.3,0.9c0.2,0.2,0.5,0.3,0.9,0.3c0.4,0,0.6-0.1,0.8-0.2C81.2,22.8,81.3,22.6,81.3,22.3z"/>
	<path class="st1" d="M86.3,23.2c0.4,0,0.7-0.1,0.9-0.3c0.2-0.2,0.3-0.5,0.4-1h1c0,0.6-0.3,1.2-0.7,1.6c-0.4,0.4-1,0.6-1.6,0.6
		c-0.8,0-1.5-0.3-1.9-0.8C84,22.8,83.7,22,83.7,21v-0.7c0-1,0.2-1.8,0.7-2.3c0.4-0.5,1.1-0.8,1.9-0.8c0.7,0,1.2,0.2,1.6,0.7
		c0.4,0.4,0.6,1,0.6,1.8h-1c0-0.5-0.1-0.9-0.4-1.1s-0.5-0.4-0.9-0.4c-0.5,0-0.8,0.2-1.1,0.5c-0.2,0.3-0.4,0.8-0.4,1.6V21
		c0,0.8,0.1,1.3,0.3,1.7C85.2,23.1,85.8,23.2,86.3,23.2z"/>
	<path class="st1" d="M89.7,20.4c0-1,0.2-1.7,0.7-2.3c0.5-0.6,1.1-0.9,1.9-0.9s1.4,0.3,1.9,0.8c0.5,0.6,0.7,1.3,0.7,2.3V21
		c0,1-0.2,1.7-0.7,2.3c-0.5,0.6-1.1,0.8-1.9,0.8s-1.4-0.3-1.9-0.8s-0.7-1.3-0.7-2.2V20.4z M90.8,21c0,0.7,0.1,1.2,0.4,1.6
		s0.6,0.6,1.1,0.6c1,0,1.5-0.7,1.5-2.1v-0.8c0-0.7-0.1-1.2-0.4-1.6s-0.6-0.6-1.1-0.6s-0.8,0.2-1.1,0.6c-0.3,0.4-0.4,0.9-0.4,1.6V21z
		"/>
	<path class="st1" d="M101.3,21c0,1.1-0.2,1.9-0.6,2.4c-0.4,0.5-0.9,0.8-1.6,0.8s-1.2-0.3-1.6-0.8v3.2h-1.1v-9.3h1l0.1,0.7
		c0.4-0.6,0.9-0.9,1.6-0.9s1.3,0.3,1.6,0.8c0.4,0.5,0.6,1.3,0.6,2.3V21z M100.2,20.4c0-0.8-0.1-1.3-0.3-1.7
		c-0.2-0.4-0.6-0.5-1.1-0.5s-0.9,0.3-1.2,0.8v3.5c0.3,0.5,0.7,0.8,1.2,0.8s0.9-0.2,1.1-0.5s0.4-0.9,0.4-1.6v-0.8H100.2z"/>
	<path class="st1" d="M105.2,24.1c-0.8,0-1.5-0.2-1.9-0.7c-0.4-0.5-0.7-1.2-0.7-2.2v-0.8c0-1,0.2-1.8,0.7-2.4c0.4-0.6,1-0.9,1.8-0.9
		s1.4,0.2,1.8,0.8c0.4,0.5,0.6,1.3,0.6,2.3V21h-3.7v0.2c0,0.7,0.1,1.2,0.4,1.6s0.7,0.5,1.2,0.5c0.3,0,0.6-0.1,0.9-0.2
		c0.2-0.1,0.5-0.3,0.7-0.6l0.6,0.7C106.9,23.8,106.2,24.1,105.2,24.1z M105.1,18.1c-0.5,0-0.8,0.2-1,0.5s-0.3,0.8-0.4,1.5h2.6V20
		c0-0.6-0.1-1.1-0.3-1.4C105.8,18.3,105.5,18.1,105.1,18.1z"/>
	<path class="st1" d="M114,21.7h-3.1l-0.7,2.4h-1.1l2.9-9h1l2.9,9h-1.2L114,21.7z M111.2,20.7h2.5l-1.2-4.1L111.2,20.7z"/>
	<path class="st1" d="M118,24h-1.1v-9h1.1V24z"/>
</g>
</svg>
