<?xml version="1.0" encoding="utf-8"?>
<!-- Generator: Adobe Illustrator 22.0.1, SVG Export Plug-In . SVG Version: 6.00 Build 0)  -->
<svg version="1.1" id="telescope_logo" xmlns="http://www.w3.org/2000/svg" xmlns:xlink="http://www.w3.org/1999/xlink" x="0px"
	 y="0px" viewBox="0 0 171.75 60" style="enable-background:new 0 0 171.75 60;" xml:space="preserve">
<style type="text/css">
	.st0{display:none;fill:#333333;fill-opacity:0;}
	.st1{display:none;fill:#333333;}
	.st2{fill:#FFFFFF;}
</style>
<rect id="logo_bg" class="st0" width="164" height="60"/>
<rect class="st1" width="172" height="60"/>
<path id="symbol" class="st2" d="M28.3999996,36.2000008c0-0.5,0.2000008-0.9000015,0.6000004-1.2000008l-4,2.2999992
	C24.7000008,37.5,24.2999992,37.3999977,24.1000004,37l0,0l-0.3999996-0.7000008l-4.5,2.5999985
	C21,41.0999985,23.4000015,42.6999969,26,43.4999962l2.8999996-6.0999985
	C28.6000004,37.0999985,28.5,36.5999985,28.3999996,36.2000008 M29.2999992,44v-4.2000008l-1.8999996,4
	C28,43.9000015,28.7000008,44,29.2999992,44 M30.7000008,43.9000015c0.6000004,0,1.2999992-0.0999985,1.9000015-0.2000008
	l-1.8999996-3.9000015L30.7000008,43.9000015 M16,30c0,2.2999992,0.6000004,4.5999985,1.7000008,6.5999985l4.6000004-2.7000008
	l-0.5-0.7999992c-0.2000008-0.2999992-0.1000004-0.7999992,0.2999992-1l7.6999989-4.3999996l0.7999992,1.6000004
	c0.1000004,0.2000008,0.3999996,0.2999992,0.6000004,0.2999992c0.1000004,0,0.2000008,0,0.2999992-0.1000004
	c0.2999992-0.2000008,0.5-0.6000004,0.2999992-0.8999996l0,0l-1.2999992-2.5L30.3999996,26
	c-0.2000008-0.2999992-0.1000004-0.7000008,0.2000008-0.7999992h0.1000004L32,24.5
	c0.2999992-0.2000008,0.7999992-0.1000004,0.9000015,0.2999992l4.0999985,7c0.2000008,0.2999992,0.0999985,0.7999992-0.2999992,1
	L35.5,33.5c-0.2999992,0.2000008-0.7999992,0.0999985-0.9000015-0.2999992l0,0L34,32.2999992L29.5,35
	c0.2000008-0.0999985,0.3999996-0.0999985,0.6000004-0.0999985c0.7999992,0,1.5,0.7000008,1.5,1.5999985l0,0
	c0,0.4000015-0.2000008,0.7999992-0.5,1.0999985l2.8999996,6c5.9000015-1.9000015,9.9000015-7.2999992,10-13.5
	c0-7.7000008-6.2000008-14-14-14C22.2999992,16,16,22.2000008,16,30 M22.5,21.2000008l-0.1000004,0.1000004
	c0-0.1000004-0.1000004-0.1000004-0.1000004-0.2000008V21l0.1000004-0.1000004
	c1.8999996-1.7000008,4.3999996-2.6000004,6.8999996-2.6000004C32.5,18.3999996,35.5,19.8999996,37.5,22.3999996L37.5999985,22.5
	c0.0999985,0.1000004,0.2000008,0.2999992,0.2000008,0.6000004C37.7999992,23.5,37.5,23.8999996,37,23.8999996l0,0
	c-0.2000008,0-0.5-0.1000004-0.5999985-0.2999992c-2-2.5-5-3.8999996-8.1000004-3.8999996
	C26.1000004,19.6000004,24.2000008,20.1000004,22.5,21.2000008 M39.7000008,28.5c-0.2999992,0.1000004-0.9000015-1-1.4000015-1
	C38,27.3999996,36.8999977,28.2999992,36.5999985,28c-0.2999992-0.2000008,0.5999985-1.2999992,0.5999985-1.6000004
	s-1.2000008-1-0.9000015-1.3999996c0.0999985-0.2999992,1.5,0.2000008,1.7999992,0.1000004s0.7999992-1.3999996,1-1.3999996
	c0.2999992,0.1000004,0.2999992,1.6000004,0.5,1.7000008c0.0999985,0.1000004,1.5999985,0.2999992,1.5999985,0.6000004
	c0.0999985,0.2999992-1.2000008,0.7999992-1.4000015,1C39.5,27,39.9000015,28.2999992,39.7000008,28.5 M17.3999996,37.0999985
	C17.1999989,36.7999992,16.7999992,36.6999969,16.5,36.8999977l0,0c-0.2999992,0.2000008-0.3999996,0.5999985-0.2000008,0.7999992
	l0,0L17.5,39.5999985c0.1000004,0.2000008,0.3999996,0.2999992,0.6000004,0.2999992c0.1000004,0,0.2000008,0,0.2999992-0.0999985
	c0.2999992-0.2000008,0.3999996-0.5999985,0.2000008-0.9000015l0,0L17.3999996,37.0999985"/>
<g>
	<path class="st2" d="M58.9453125,31.25h-2.6191406v-2.2124023h8.1811523V31.25H61.949707v14.2304688h-3.0043945V31.25z"/>
	<path class="st2" d="M66.8061523,29.0375977h6.902832v2.1108398h-3.9189453v4.7304688h3.0859375v2.0908203h-3.0859375v5.4599609
		h3.9580078v2.0507812h-6.9418945V29.0375977z"/>
	<path class="st2" d="M76.2910156,29.0375977h2.984375v14.3920898h3.9990234v2.0507812h-6.9833984V29.0375977z"/>
	<path class="st2" d="M85.6347656,29.0375977h6.9023438v2.1108398h-3.9179688v4.7304688h3.0849609v2.0908203h-3.0849609v5.4599609
		h3.9580078v2.0507812h-6.9423828V29.0375977z"/>
	<path class="st2" d="M95.921875,44.4453125c-0.7373047-0.8388672-1.140625-2.0908203-1.2080078-3.7558594l2.578125-0.5068359
		c0.0410156,1.0419922,0.2060547,1.8369141,0.4980469,2.3847656c0.2900391,0.5478516,0.7470703,0.8222656,1.3701172,0.8222656
		c0.4599609,0,0.8017578-0.1386719,1.0244141-0.4160156c0.2236328-0.2773438,0.3349609-0.6533203,0.3349609-1.1269531
		c0-0.6494141-0.1455078-1.2001953-0.4365234-1.6542969c-0.2910156-0.453125-0.7470703-0.9501953-1.3701172-1.4921875
		l-2.0703125-1.8066406c-0.6357422-0.5410156-1.1132812-1.1230469-1.4306641-1.7451172
		c-0.3183594-0.6230469-0.4775391-1.3671875-0.4775391-2.2333984c0-1.2851562,0.3759766-2.2841797,1.1269531-2.9946289
		s1.7890625-1.0654297,3.1162109-1.0654297c1.4208984,0,2.4384766,0.402832,3.0546875,1.2075195
		c0.6152344,0.8056641,0.9707031,1.8916016,1.0654297,3.2587891l-2.578125,0.4462891
		c-0.0400391-0.8935547-0.1650391-1.5664062-0.375-2.0195312s-0.6191406-0.6806641-1.2285156-0.6806641
		c-0.4326172,0-0.7714844,0.1455078-1.0146484,0.4365234c-0.2441406,0.2910156-0.3652344,0.6601562-0.3652344,1.1064453
		c0,0.5283203,0.1044922,0.9716797,0.3144531,1.3300781s0.5507812,0.7402344,1.0253906,1.1464844l2.0498047,1.8066406
		c0.7714844,0.6630859,1.3740234,1.3740234,1.8066406,2.1318359c0.4335938,0.7578125,0.6494141,1.6376953,0.6494141,2.6386719
		c0,0.7851562-0.171875,1.4814453-0.5175781,2.0908203c-0.3447266,0.609375-0.8291016,1.0859375-1.4511719,1.4316406
		c-0.6230469,0.3447266-1.3398438,0.5175781-2.1513672,0.5175781C97.7724609,45.7041016,96.6591797,45.2841797,95.921875,44.4453125
		z"/>
	<path class="st2" d="M106.7460938,44.2724609c-0.7099609-0.9541016-1.0654297-2.3037109-1.0654297-4.0498047v-5.8662109
		c0-1.7998047,0.3515625-3.1669922,1.0556641-4.1010742c0.703125-0.9335938,1.9150391-1.4003906,3.6337891-1.4003906
		c1.6103516,0,2.7539062,0.4057617,3.4306641,1.2177734c0.6757812,0.8120117,1.0146484,1.9829102,1.0146484,3.512207v1.3798828
		h-2.8828125v-1.4208984c0-0.5810547-0.0273438-1.0380859-0.0810547-1.3701172
		c-0.0537109-0.3310547-0.1923828-0.6015625-0.4160156-0.8115234s-0.5722656-0.3144531-1.0458984-0.3144531
		c-0.4863281,0-0.8525391,0.1113281-1.0957031,0.3349609c-0.2441406,0.2226562-0.4033203,0.5205078-0.4775391,0.8925781
		s-0.1113281,0.8564453-0.1113281,1.4511719v7.1259766c0,0.9335938,0.1220703,1.6064453,0.3652344,2.0195312
		c0.2441406,0.4130859,0.6835938,0.6191406,1.3193359,0.6191406c0.4599609,0,0.8027344-0.1083984,1.0253906-0.3251953
		c0.2236328-0.2158203,0.3652344-0.5039062,0.4267578-0.8623047c0.0605469-0.3583984,0.0908203-0.8349609,0.0908203-1.4306641
		V39.390625h2.8828125v1.3193359c0,1.5830078-0.3320312,2.8115234-0.9951172,3.6845703s-1.8134766,1.3095703-3.4501953,1.3095703
		C108.6650391,45.7041016,107.4570312,45.2265625,106.7460938,44.2724609z"/>
	<path class="st2" d="M118.5351562,44.3339844c-0.7304688-0.9140625-1.0957031-2.25-1.0957031-4.0097656v-6.1708984
		c0-1.7460938,0.3652344-3.0654297,1.0957031-3.9589844c0.7314453-0.8930664,1.9492188-1.3393555,3.6542969-1.3393555
		c1.6914062,0,2.9033203,0.4462891,3.6337891,1.3393555c0.7304688,0.8935547,1.0957031,2.2128906,1.0957031,3.9589844v6.1708984
		c0,1.7460938-0.3681641,3.0791016-1.1054688,3.9990234c-0.7382812,0.9208984-1.9462891,1.3808594-3.6240234,1.3808594
		C120.484375,45.7041016,119.2666016,45.2470703,118.5351562,44.3339844z M123.5292969,42.8613281
		c0.2294922-0.4189453,0.3447266-1.0283203,0.3447266-1.8261719v-7.5722656c0-0.7978516-0.1113281-1.4003906-0.3349609-1.8066406
		c-0.2226562-0.40625-0.6728516-0.6083984-1.3496094-0.6083984s-1.1298828,0.2060547-1.3603516,0.6191406
		c-0.2304688,0.4121094-0.3447266,1.0117188-0.3447266,1.7958984v7.5722656c0,0.7978516,0.1142578,1.4072266,0.3447266,1.8261719
		c0.2304688,0.4199219,0.6835938,0.6298828,1.3603516,0.6298828
		C122.8525391,43.4912109,123.2988281,43.28125,123.5292969,42.8613281z"/>
	<path class="st2" d="M129.9296875,29.0375977h4.8310547c2.8017578,0,4.2021484,1.5561523,4.2021484,4.6694336
		c0,2.9775391-1.46875,4.4658203-4.4042969,4.4658203h-1.6445312v7.3076172h-2.984375V29.0375977z M134.0712891,36.0615234
		c0.8115234,0,1.359375-0.1728516,1.6435547-0.5175781s0.4267578-0.9638672,0.4267578-1.8574219
		c0-0.6494141-0.0478516-1.1474609-0.1425781-1.4921875s-0.2871094-0.6054688-0.578125-0.78125
		s-0.7412109-0.2646484-1.3496094-0.2646484h-1.1572266v4.9130859H134.0712891z"/>
	<path class="st2" d="M141.4238281,29.0375977h6.9023438v2.1108398h-3.9179688v4.7304688h3.0849609v2.0908203h-3.0849609v5.4599609
		h3.9580078v2.0507812h-6.9423828V29.0375977z"/>
</g>
<g>
	<path class="st2" d="M58.8655853,11.7236023H57v-0.7284851h4.6093864v0.7284851h-1.8169594v9.2728672h-0.9268417V11.7236023z"/>
	<path class="st2" d="M62.5541534,20.8362026c-0.2763634-0.1813679-0.4797935-0.4732647-0.609787-0.8766956
		c-0.1299973-0.403429-0.1949959-0.9510498-0.1949959-1.6423569v-1.8026257c0-0.6993456,0.0669823-1.2489758,0.2009468-1.648386
		c0.1344604-0.3989086,0.3418617-0.6852789,0.6221924-0.8581057c0.2803345-0.1728268,0.6440277-0.2592411,1.0910721-0.2592411
		c0.4877319,0,0.8638229,0.1050024,1.1282806,0.3150072c0.2639618,0.2095032,0.4465485,0.5245094,0.5487595,0.944519
		c0.1012192,0.419507,0.1523285,0.9837065,0.1523285,1.6915932v0.6420727h-2.8534546v1.2469654
		c0,0.6832695,0.0769043,1.160553,0.2317085,1.4318504c0.1543083,0.271801,0.414299,0.4079533,0.780468,0.4079533
		c0.3086166,0,0.5462799-0.0989742,0.7129898-0.2964191c0.1667175-0.1979465,0.2500687-0.5556583,0.2500687-1.0741386V18.564333
		h0.8658142v0.3948879c0,0.691309-0.1424026,1.2223492-0.4267044,1.5926208
		c-0.2847977,0.3707733-0.7521896,0.5556583-1.4021683,0.5556583C63.1961937,21.1075001,62.8305168,21.017067,62.5541534,20.8362026
		z M64.6147308,16.823v-0.5923328c0-0.4280481-0.0223236-0.7656641-0.0669785-1.012846
		c-0.0446548-0.2466803-0.1359482-0.4401064-0.2743835-0.5802765c-0.1384277-0.1396685-0.3453293-0.2095022-0.6216965-0.2095022
		c-0.2520523,0-0.4515114,0.0552635-0.5973816,0.1662951c-0.1463699,0.1115341-0.2520523,0.3049593-0.3170509,0.5802765
		c-0.0654945,0.2763224-0.097744,0.6651821-0.097744,1.1670837V16.823H64.6147308z"/>
	<path class="st2" d="M66.743248,10.9951172h0.890625v10.0013523h-0.890625V10.9951172z"/>
	<path class="st2" d="M69.810379,20.8362026c-0.2768631-0.1813679-0.4792938-0.4732647-0.6092911-0.8766956
		c-0.1309891-0.403429-0.195488-0.9510498-0.195488-1.6423569v-1.8026257c0-0.6993456,0.0674744-1.2489758,0.2014389-1.648386
		c0.1339645-0.3989086,0.341362-0.6852789,0.6212006-0.8581057c0.2808304-0.1728268,0.6450195-0.2592411,1.091568-0.2592411
		c0.4882278,0,0.8643265,0.1050024,1.1282883,0.3150072c0.2639542,0.2095032,0.4465485,0.5245094,0.5487595,0.944519
		c0.1012115,0.419507,0.151825,0.9837065,0.151825,1.6915932v0.6420727h-2.8529587v1.2469654
		c0,0.6832695,0.0774002,1.160553,0.2312164,1.4318504c0.1548004,0.271801,0.4147949,0.4079533,0.7809601,0.4079533
		c0.3086166,0,0.5467758-0.0989742,0.7134933-0.2964191c0.1667099-0.1979465,0.2500687-0.5556583,0.2500687-1.0741386V18.564333
		h0.8653107v0.3948879c0,0.691309-0.1419067,1.2223492-0.4267044,1.5926208
		c-0.2847977,0.3707733-0.7521896,0.5556583-1.4021683,0.5556583C70.4524231,21.1075001,70.0862503,21.017067,69.810379,20.8362026z
		 M71.87146,16.823v-0.5923328c0-0.4280481-0.0228271-0.7656641-0.067482-1.012846
		c-0.0446548-0.2466803-0.1359482-0.4401064-0.2738876-0.5802765c-0.1389236-0.1396685-0.3463211-0.2095022-0.6221924-0.2095022
		c-0.2520523,0-0.4515076,0.0552635-0.5973816,0.1662951c-0.1468658,0.1115341-0.2520523,0.3049593-0.317543,0.5802765
		c-0.0645065,0.2763224-0.0972519,0.6651821-0.0972519,1.1670837V16.823H71.87146z"/>
	<path class="st2" d="M74.3321915,20.5644016c-0.3373947-0.3622341-0.530899-0.8560963-0.5795212-1.4815884l0.7432556-0.234623
		c0.0496216,0.5430984,0.1756439,0.9425087,0.3780823,1.197731c0.2034302,0.2552204,0.4882278,0.3828316,0.8544006,0.3828316
		c0.3086166,0,0.545784-0.0884228,0.7124939-0.2657719c0.1667099-0.1768456,0.2500687-0.4260387,0.2500687-0.7470741
		c0-0.4692459-0.2848053-0.9465294-0.8534088-1.432354l-0.9635544-0.8395157
		c-0.3334274-0.2798386-0.5765457-0.5556583-0.7313538-0.8269577c-0.1548004-0.2717991-0.2312088-0.5928354-0.2312088-0.9631071
		c0-0.5019016,0.151825-0.8952837,0.4564743-1.179142c0.3056335-0.2838583,0.7134857-0.4260387,1.2255325-0.4260387
		c0.5209732,0,0.9208832,0.168808,1.2017136,0.506423c0.2798386,0.337616,0.4366226,0.794301,0.4693756,1.3700552
		l-0.6341019,0.2100048c-0.0486298-0.9384899-0.3820496-1.4072323-1.0002747-1.4072323
		c-0.2758713,0-0.4951706,0.0758629-0.6579132,0.2280912c-0.1627426,0.15273-0.2441177,0.3642426-0.2441177,0.6360426
		c0,0.2220631,0.0406876,0.4154882,0.1220551,0.5802765c0.0813751,0.1647882,0.2312164,0.3456545,0.4515152,0.5430994
		l0.9992752,0.9013119c0.3820496,0.3456535,0.6728058,0.6692009,0.872261,0.9696388
		c0.1984711,0.3004379,0.2986984,0.6686993,0.2986984,1.1047859c0,0.5430984-0.1627426,0.9651165-0.4882278,1.2655544
		c-0.3244934,0.3004379-0.7640991,0.4506569-1.3168259,0.4506569C75.114151,21.1075001,74.6685944,20.9266338,74.3321915,20.5644016
		z"/>
	<path class="st2" d="M78.9506683,20.7558174c-0.2758713-0.234623-0.4614334-0.5516396-0.554718-0.9510498
		c-0.093277-0.3989086-0.1399155-0.9028206-0.1399155-1.5122356V16.625555c0-0.6913071,0.0545731-1.2429457,0.1647263-1.6544142
		c0.1091537-0.4114695,0.3006744-0.7179356,0.5725784-0.9199018c0.2728882-0.2014637,0.6569214-0.3024473,1.1530914-0.3024473
		c0.6906586,0,1.1620178,0.1914158,1.4140701,0.5742483c0.2520523,0.3828316,0.3780823,0.9525576,0.3780823,1.7096786v0.3461571
		h-0.8295898v-0.3461571c0-0.4195061-0.0297699-0.7445612-0.091301-0.9751644
		c-0.0605316-0.2306032-0.1607513-0.3928804-0.2986908-0.487834c-0.1379318-0.0944519-0.3294525-0.1416779-0.5725708-0.1416779
		c-0.2768631,0-0.4862442,0.065814-0.6281509,0.197444c-0.1428986,0.1316299-0.2401428,0.3396254-0.2927399,0.6234837
		c-0.0535812,0.2838573-0.0793839,0.6933165-0.0793839,1.2283764v2.0000706c0,0.4943638,0.0287781,0.881216,0.0853424,1.1610546
		s0.1587677,0.4813023,0.3046417,0.6048946c0.1468658,0.1235905,0.3542633,0.1853867,0.6221924,0.1853867
		c0.2758713,0,0.4812851-0.0597858,0.6152496-0.1793594c0.1349564-0.1190681,0.2242661-0.2984276,0.2689209-0.5370693
		s0.0664902-0.5717354,0.0664902-1.0002861v-0.3948879h0.8295898v0.3456535c0,0.535059-0.0466385,0.9776764-0.1399231,1.3273506
		c-0.0942688,0.3501759-0.2709045,0.6234818-0.530899,0.8209267c-0.2599869,0.1979485-0.6340942,0.2964191-1.1213303,0.2964191
		C79.6254501,21.1075001,79.2275238,20.9904404,78.9506683,20.7558174z"/>
	<path class="st2" d="M83.4141846,20.4468384c-0.2768631-0.4401054-0.4148026-1.1173458-0.4148026-2.0307159v-1.9759541
		c0-0.9133692,0.1379395-1.5906096,0.4148026-2.030715c0.2758636-0.440608,0.7640915-0.6606617,1.4626923-0.6606617
		c0.7075348,0,1.1997375,0.2200537,1.4756012,0.6606617c0.2768631,0.4401054,0.4147949,1.1173458,0.4147949,2.030715v1.9759541
		c0,0.9133701-0.1379318,1.5906105-0.4147949,2.0307159c-0.2758636,0.440609-0.7680664,0.6606617-1.4756012,0.6606617
		C84.1782761,21.1075001,83.6900482,20.8874474,83.4141846,20.4468384z M85.5298386,20.1941299
		c0.1418991-0.1562481,0.2331924-0.3682613,0.27388-0.6360435c0.0406876-0.2672787,0.0615234-0.6315212,0.0615234-1.0927277
		V16.390934c0-0.4607048-0.0208359-0.8249474-0.0615234-1.0927286c-0.0406876-0.2672787-0.1319809-0.4792929-0.27388-0.635541
		c-0.1428986-0.1567497-0.3602219-0.234622-0.6529617-0.234622c-0.2927322,0-0.5080719,0.0778723-0.6460037,0.234622
		c-0.1379395,0.1562481-0.2272491,0.3682623-0.2679291,0.635541c-0.0406876,0.2677813-0.0615311,0.6320238-0.0615311,1.0927286
		v2.0744247c0,0.4612064,0.0208435,0.825449,0.0615311,1.0927277c0.0406799,0.2677822,0.1299896,0.4797955,0.2679291,0.6360435
		c0.1379318,0.1562481,0.3532715,0.234623,0.6460037,0.234623C85.1696167,20.4287529,85.38694,20.350378,85.5298386,20.1941299z"/>
	<path class="st2" d="M87.998764,13.8598232h0.8901215v0.5928364c0.3661652-0.469245,0.8166885-0.7038679,1.3535385-0.7038679
		c0.6182251,0,1.0389786,0.2572308,1.2622528,0.7716923s0.3354034,1.2037601,0.3354034,2.0678949v1.5067081
		c0,0.9796867-0.1260223,1.7262592-0.3780746,2.2407207s-0.6906662,0.7716923-1.3168259,0.7716923
		c-0.4396057,0-0.8583679-0.2260818-1.2562943-0.6787472v2.9134388H87.998764V13.8598232z M90.7604218,19.8605328
		c0.12603-0.3536911,0.189537-0.9339676,0.189537-1.7408276v-1.5313263c0-0.7651615-0.0635071-1.3127813-0.189537-1.6418562
		c-0.1260223-0.3290749-0.3840332-0.4938631-0.7740173-0.4938631c-0.3661728,0-0.7313538,0.184885-1.0975189,0.5556583v4.8647766
		c0.3254852,0.3456535,0.6995926,0.5184803,1.1223297,0.5184803C90.3843307,20.3915749,90.6343994,20.2147274,90.7604218,19.8605328
		z"/>
	<path class="st2" d="M93.8013535,20.8362026c-0.2768631-0.1813679-0.4793015-0.4732647-0.6092911-0.8766956
		c-0.1309891-0.403429-0.1954956-0.9510498-0.1954956-1.6423569v-1.8026257c0-0.6993456,0.067482-1.2489758,0.2014465-1.648386
		c0.1339645-0.3989086,0.341362-0.6852789,0.6212006-0.8581057c0.2808304-0.1728268,0.6450195-0.2592411,1.091568-0.2592411
		c0.4882278,0,0.8643188,0.1050024,1.1282806,0.3150072c0.2639618,0.2095032,0.4465485,0.5245094,0.5487595,0.944519
		c0.1012192,0.419507,0.1518326,0.9837065,0.1518326,1.6915932v0.6420727h-2.8529587v1.2469654
		c0,0.6832695,0.0774002,1.160553,0.2312088,1.4318504c0.154808,0.271801,0.4147949,0.4079533,0.7809677,0.4079533
		c0.3086166,0,0.5467758-0.0989742,0.7134857-0.2964191c0.1667175-0.1979465,0.2500687-0.5556583,0.2500687-1.0741386V18.564333
		h0.8653183v0.3948879c0,0.691309-0.1419067,1.2223492-0.4267044,1.5926208
		c-0.2847977,0.3707733-0.7521896,0.5556583-1.4021683,0.5556583C94.4433899,21.1075001,94.0772171,21.017067,93.8013535,20.8362026
		z M95.8624268,16.823v-0.5923328c0-0.4280481-0.0228195-0.7656641-0.0674744-1.012846
		c-0.0446548-0.2466803-0.1359558-0.4401064-0.2738876-0.5802765c-0.1389236-0.1396685-0.3463211-0.2095022-0.6221924-0.2095022
		c-0.2520523,0-0.4515076,0.0552635-0.5973816,0.1662951c-0.1468658,0.1115341-0.2520523,0.3049593-0.3175507,0.5802765
		c-0.0644989,0.2763224-0.0972443,0.6651821-0.0972443,1.1670837V16.823H95.8624268z"/>
	<path class="st2" d="M100.0779495,10.9951172h0.9754639l2.0977936,10.0013523h-0.9149323l-0.4882278-2.6793194h-2.3528214
		l-0.5001373,2.6793194h-0.9020309L100.0779495,10.9951172z M101.6269836,17.6378994l-1.0488968-5.3953133l-1.0488968,5.3953133
		H101.6269836z"/>
	<path class="st2" d="M103.9933167,10.9951172h0.9268417v10.0013523h-0.9268417V10.9951172z"/>
</g>
</svg>
