<?xml version="1.0" encoding="utf-8"?>
<!-- Generator: Adobe Illustrator 22.0.1, SVG Export Plug-In . SVG Version: 6.00 Build 0)  -->
<svg version="1.1" id="perf_logo" xmlns="http://www.w3.org/2000/svg" xmlns:xlink="http://www.w3.org/1999/xlink" x="0px" y="0px"
	 viewBox="0 0 142 60" style="enable-background:new 0 0 142 60;" xml:space="preserve">
<style type="text/css">
	.st0{display:none;fill:none;}
	.st1{fill:#FFFFFF;}
</style>
<rect id="logo_x5F_bg" class="st0" width="142" height="60"/>
<path id="PERF" class="st1" d="M59.6,45v-5.5h2.2c0.8,0,1.5-0.1,2.3-0.3c0.7-0.2,1.3-0.5,1.8-0.9s0.9-0.9,1.2-1.5
	c0.3-0.7,0.5-1.4,0.4-2.2c0-0.8-0.1-1.5-0.4-2.2c-0.3-0.6-0.7-1.1-1.2-1.4c-0.6-0.4-1.2-0.6-1.8-0.8C63.3,30,62.6,30,61.8,30H57v15
	H59.6L59.6,45z M59.6,32.2h1.9c0.9-0.1,1.8,0.1,2.5,0.5c0.6,0.5,0.9,1.2,0.9,2c0,1.8-1.1,2.7-3.3,2.7h-1.9L59.6,32.2L59.6,32.2z
	 M79.8,45v-2.2h-6.6v-4.4h5.4v-2.2h-5.4v-3.8h6.4v-2.2h-9v15L79.8,45L79.8,45z M85.7,45v-5.9H88l3.2,5.9h3l-3.6-6.3
	c0.9-0.3,1.6-0.8,2.2-1.5c0.6-0.8,0.9-1.8,0.8-2.8c0-0.7-0.1-1.4-0.4-2.1c-0.3-0.5-0.7-1-1.2-1.4s-1.1-0.6-1.7-0.7
	C89.6,30,88.9,30,88.1,30H83v15H85.7L85.7,45z M85.7,32.2h2.1c0.8,0,1.6,0.1,2.3,0.5c0.6,0.4,0.9,1.1,0.8,1.8
	c0.1,0.7-0.3,1.4-0.8,1.9c-0.7,0.5-1.5,0.7-2.3,0.6h-2.1V32.2z M99.5,45v-6.3h5.5v-2.2h-5.5v-4.2h6.4v-2.2h-9.1v15L99.5,45L99.5,45z
	"/>
<g id="telescope_x5F_ai">
	<path class="st1" d="M62.9,16h-2.4v8h-1.1v-8H57v-1h5.9V16z"/>
	<path class="st1" d="M65.3,24.1c-0.8,0-1.5-0.2-1.9-0.7s-0.7-1.2-0.7-2.2v-0.8c0-1,0.2-1.8,0.7-2.4c0.4-0.6,1-0.9,1.8-0.9
		s1.4,0.2,1.8,0.8c0.4,0.5,0.6,1.3,0.6,2.3V21h-3.7v0.2c0,0.7,0.1,1.2,0.4,1.6s0.7,0.5,1.2,0.5c0.3,0,0.6-0.1,0.9-0.2
		c0.2-0.1,0.5-0.3,0.7-0.6l0.6,0.7C67,23.8,66.3,24.1,65.3,24.1z M65.2,18.1c-0.5,0-0.8,0.2-1,0.5s-0.3,0.8-0.4,1.5h2.6V20
		c0-0.6-0.1-1.1-0.3-1.4C65.9,18.3,65.6,18.1,65.2,18.1z"/>
	<path class="st1" d="M70.2,24h-1.1v-9h1.1V24z"/>
	<path class="st1" d="M74.4,24.1c-0.8,0-1.5-0.2-1.9-0.7c-0.4-0.5-0.7-1.2-0.7-2.2v-0.8c0-1,0.2-1.8,0.7-2.4c0.4-0.6,1-0.9,1.8-0.9
		s1.4,0.2,1.8,0.8c0.4,0.5,0.6,1.3,0.6,2.3V21H73v0.2c0,0.7,0.1,1.2,0.4,1.6s0.7,0.5,1.2,0.5c0.3,0,0.6-0.1,0.9-0.2
		c0.2-0.1,0.5-0.3,0.7-0.6l0.6,0.7C76.1,23.8,75.4,24.1,74.4,24.1z M74.3,18.1c-0.5,0-0.8,0.2-1,0.5s-0.3,0.8-0.4,1.5h2.6V20
		c0-0.6-0.1-1.1-0.3-1.4C75,18.3,74.7,18.1,74.3,18.1z"/>
	<path class="st1" d="M81.3,22.3c0-0.2-0.1-0.4-0.3-0.6s-0.5-0.4-1-0.6c-0.6-0.2-1-0.5-1.2-0.6c-0.2-0.2-0.4-0.4-0.5-0.6
		c-0.1-0.2-0.2-0.5-0.2-0.8c0-0.5,0.2-1,0.6-1.4c0.4-0.4,0.9-0.5,1.5-0.5c0.7,0,1.2,0.2,1.6,0.6c0.4,0.4,0.6,0.9,0.6,1.5h-1.1
		c0-0.3-0.1-0.6-0.3-0.8c-0.2-0.2-0.5-0.3-0.8-0.3s-0.6,0.1-0.8,0.3c-0.2,0.2-0.3,0.3-0.3,0.6c0,0.2,0.1,0.4,0.2,0.5
		c0.1,0.1,0.5,0.3,1,0.5c0.8,0.3,1.4,0.6,1.7,0.9s0.4,0.7,0.4,1.2c0,0.6-0.2,1.1-0.6,1.4c-0.4,0.4-0.9,0.5-1.6,0.5s-1.3-0.2-1.7-0.6
		s-0.7-0.9-0.7-1.5h1.1c0,0.4,0.1,0.7,0.3,0.9c0.2,0.2,0.5,0.3,0.9,0.3c0.4,0,0.6-0.1,0.8-0.2C81.2,22.8,81.3,22.6,81.3,22.3z"/>
	<path class="st1" d="M86.3,23.2c0.4,0,0.7-0.1,0.9-0.3c0.2-0.2,0.3-0.5,0.4-1h1c0,0.6-0.3,1.2-0.7,1.6c-0.4,0.4-1,0.6-1.6,0.6
		c-0.8,0-1.5-0.3-1.9-0.8C84,22.8,83.7,22,83.7,21v-0.7c0-1,0.2-1.8,0.7-2.3c0.4-0.5,1.1-0.8,1.9-0.8c0.7,0,1.2,0.2,1.6,0.7
		c0.4,0.4,0.6,1,0.6,1.8h-1c0-0.5-0.1-0.9-0.4-1.1s-0.5-0.4-0.9-0.4c-0.5,0-0.8,0.2-1.1,0.5c-0.2,0.3-0.4,0.8-0.4,1.6V21
		c0,0.8,0.1,1.3,0.3,1.7C85.2,23.1,85.8,23.2,86.3,23.2z"/>
	<path class="st1" d="M89.7,20.4c0-1,0.2-1.7,0.7-2.3c0.5-0.6,1.1-0.9,1.9-0.9s1.4,0.3,1.9,0.8c0.5,0.6,0.7,1.3,0.7,2.3V21
		c0,1-0.2,1.7-0.7,2.3c-0.5,0.6-1.1,0.8-1.9,0.8s-1.4-0.3-1.9-0.8s-0.7-1.3-0.7-2.2V20.4z M90.8,21c0,0.7,0.1,1.2,0.4,1.6
		s0.6,0.6,1.1,0.6c1,0,1.5-0.7,1.5-2.1v-0.8c0-0.7-0.1-1.2-0.4-1.6s-0.6-0.6-1.1-0.6s-0.8,0.2-1.1,0.6c-0.3,0.4-0.4,0.9-0.4,1.6V21z
		"/>
	<path class="st1" d="M101.3,21c0,1.1-0.2,1.9-0.6,2.4c-0.4,0.5-0.9,0.8-1.6,0.8s-1.2-0.3-1.6-0.8v3.2h-1.1v-9.3h1l0.1,0.7
		c0.4-0.6,0.9-0.9,1.6-0.9s1.3,0.3,1.6,0.8c0.4,0.5,0.6,1.3,0.6,2.3V21z M100.2,20.4c0-0.8-0.1-1.3-0.3-1.7
		c-0.2-0.4-0.6-0.5-1.1-0.5s-0.9,0.3-1.2,0.8v3.5c0.3,0.5,0.7,0.8,1.2,0.8s0.9-0.2,1.1-0.5s0.4-0.9,0.4-1.6v-0.8H100.2z"/>
	<path class="st1" d="M105.2,24.1c-0.8,0-1.5-0.2-1.9-0.7c-0.4-0.5-0.7-1.2-0.7-2.2v-0.8c0-1,0.2-1.8,0.7-2.4c0.4-0.6,1-0.9,1.8-0.9
		s1.4,0.2,1.8,0.8c0.4,0.5,0.6,1.3,0.6,2.3V21h-3.7v0.2c0,0.7,0.1,1.2,0.4,1.6s0.7,0.5,1.2,0.5c0.3,0,0.6-0.1,0.9-0.2
		c0.2-0.1,0.5-0.3,0.7-0.6l0.6,0.7C106.9,23.8,106.2,24.1,105.2,24.1z M105.1,18.1c-0.5,0-0.8,0.2-1,0.5s-0.3,0.8-0.4,1.5h2.6V20
		c0-0.6-0.1-1.1-0.3-1.4C105.8,18.3,105.5,18.1,105.1,18.1z"/>
	<path class="st1" d="M114,21.7h-3.1l-0.7,2.4h-1.1l2.9-9h1l2.9,9h-1.2L114,21.7z M111.2,20.7h2.5l-1.2-4.1L111.2,20.7z"/>
	<path class="st1" d="M118,24h-1.1v-9h1.1V24z"/>
</g>
<path id="symbol" class="st1" d="M29.5,28.1h-1v-3h1V28.1z M46,38.2h-2.1c-0.1-3.7-1.5-7.3-4-10l-6.2,7.9c0,0-4.3,6-7.2,3
	C24,36.6,30.6,32,30.6,32l7.9-5.3c-2.6-2.3-5.9-3.7-9.4-3.7c-3.9,0.1-7.7,1.7-10.4,4.6c-2.8,2.7-4.4,6.4-4.5,10.4H12
	c0.1-4.4,2-8.7,5.1-11.7c5.9-6.5,16-7,22.6-1.1c0.2,0.1,0.3,0.3,0.5,0.4l3.7-2.5l-2.7,3.5C44.2,29.7,45.9,33.8,46,38.2z M19.2,37.2
	h-3.1v-1h3.1V37.2L19.2,37.2z M41.8,37.2h-3.1v-1h3.1V37.2L41.8,37.2z"/>
</svg>
