<?xml version="1.0" encoding="utf-8"?>
<!-- Generator: Adobe Illustrator 22.0.1, SVG Export Plug-In . SVG Version: 6.00 Build 0)  -->
<svg version="1.1" id="telescope_logo" xmlns="http://www.w3.org/2000/svg" xmlns:xlink="http://www.w3.org/1999/xlink" x="0px"
	 y="0px" viewBox="0 0 215 60" style="enable-background:new 0 0 215 60;" xml:space="preserve">
<style type="text/css">
	.st0{display:none;fill:#333333;fill-opacity:0;}
	.st1{fill:#FFFFFF;}
</style>
<rect id="logo_bg" class="st0" width="215" height="60"/>
<path id="TelescopeAI" class="st1" d="M64,39V26.2h4.3v-2.3H57v2.3h4.3v12.7H64V39z M80.4,39v-2.3h-6.6v-4.5h5.4V30h-5.4v-3.8h6.4
	v-2.3h-9v15L80.4,39L80.4,39z M92.9,39v-2.3h-6.2V24h-2.6v15H92.9z M105.1,39v-2.3h-6.6v-4.5h5.4V30h-5.4v-3.8h6.4v-2.3h-9v15
	L105.1,39L105.1,39z M115.3,38.9c0.6-0.2,1.1-0.6,1.7-0.9c0.5-0.3,0.8-0.9,1-1.4c0.2-0.6,0.3-1.1,0.3-1.7c0-0.5-0.1-1-0.2-1.5
	c-0.1-0.5-0.3-0.8-0.7-1.1c-0.2-0.3-0.6-0.6-0.9-0.8c-0.3-0.2-0.8-0.5-1.3-0.7l-2.1-0.8c-0.3-0.1-0.6-0.2-0.9-0.3
	c-0.2-0.1-0.6-0.2-0.8-0.5c-0.2-0.1-0.3-0.3-0.6-0.6c-0.1-0.2-0.2-0.5-0.2-0.8c0-0.5,0.2-1,0.7-1.3c0.5-0.3,1.1-0.5,1.7-0.5
	c0.6,0,1.1,0.1,1.7,0.3c0.6,0.2,1,0.6,1.5,0.9l1.4-1.7c-0.6-0.6-1.3-1-2.1-1.4c-0.8-0.3-1.6-0.6-2.5-0.6c-0.7,0-1.4,0.1-2.1,0.3
	c-0.6,0.2-1.1,0.5-1.6,0.9c-0.5,0.3-0.8,0.8-1,1.4c-0.5,1-0.5,2.1-0.1,3.1c0.1,0.5,0.3,0.8,0.7,1.1c0.2,0.3,0.6,0.6,1,0.8
	c0.3,0.2,0.7,0.5,1,0.6l2.1,0.9c0.3,0.1,0.7,0.2,0.9,0.5c0.2,0.1,0.5,0.2,0.7,0.5c0.2,0.1,0.3,0.3,0.5,0.6c0.1,0.2,0.2,0.5,0.1,0.8
	c0,0.6-0.2,1-0.7,1.4c-0.6,0.3-1.3,0.6-1.9,0.6s-1.4-0.1-2.1-0.5c-0.7-0.3-1.3-0.7-1.8-1.3l-1.6,1.8c0.7,0.7,1.6,1.3,2.5,1.6
	c0.9,0.3,1.9,0.6,3,0.6C113.8,39.2,114.6,39.1,115.3,38.9z M130.1,38.7c0.8-0.3,1.5-0.9,2.1-1.6l-1.4-1.7c-0.5,0.5-0.9,0.8-1.4,1.1
	c-0.6,0.3-1.1,0.5-1.8,0.5c-1.1,0-2.3-0.5-3-1.5c-0.8-1.1-1.1-2.6-1.1-4c0-0.8,0.1-1.5,0.3-2.3c0.2-0.6,0.5-1.1,0.9-1.7
	c0.3-0.5,0.8-0.8,1.4-1c0.6-0.2,1.1-0.3,1.7-0.3c0.6,0,1,0.1,1.6,0.3c0.5,0.2,0.9,0.6,1.3,0.9l1.4-1.7c-0.6-0.6-1.1-1-1.8-1.4
	c-0.8-0.3-1.6-0.6-2.5-0.6c-0.9,0-1.8,0.2-2.6,0.6c-0.8,0.3-1.6,0.9-2.2,1.5c-0.7,0.7-1.1,1.6-1.5,2.5c-0.3,1-0.6,2.2-0.6,3.3
	c0,1.1,0.1,2.3,0.6,3.3c0.3,0.9,0.8,1.7,1.4,2.4c0.6,0.7,1.4,1.1,2.2,1.5c0.8,0.3,1.7,0.5,2.6,0.5C128.4,39.2,129.3,39,130.1,38.7z
	 M142.9,38.7c0.8-0.3,1.5-0.9,2.1-1.6s1-1.6,1.4-2.5c0.3-1,0.5-2.2,0.5-3.3c0-1.1-0.1-2.2-0.5-3.2c-0.2-0.9-0.8-1.7-1.4-2.4
	s-1.3-1.1-2.1-1.5c-0.8-0.3-1.7-0.6-2.6-0.6s-1.8,0.1-2.6,0.6c-0.8,0.3-1.5,0.8-2.1,1.5c-0.6,0.7-1,1.5-1.4,2.4
	c-0.3,1-0.5,2.2-0.5,3.2c0,1.1,0.1,2.2,0.5,3.3c0.2,0.9,0.7,1.7,1.4,2.5c0.6,0.7,1.3,1.3,2.1,1.6s1.7,0.6,2.6,0.6
	S142.1,39,142.9,38.7z M138.7,36.5c-0.5-0.2-0.9-0.7-1.3-1.1c-0.3-0.6-0.6-1.1-0.8-1.7c-0.2-0.7-0.2-1.5-0.2-2.3
	c-0.1-1.4,0.2-2.7,1-4c1.1-1.6,3.3-1.9,4.9-0.8c0.3,0.2,0.6,0.5,0.8,0.8c0.8,1.1,1.1,2.5,1,4c0,0.8-0.1,1.5-0.2,2.3
	c-0.1,0.6-0.5,1.3-0.8,1.7c-0.3,0.5-0.7,0.8-1.3,1.1C140.8,37.1,139.6,37.1,138.7,36.5z M153,39v-5.5h2.2c0.8,0,1.5-0.1,2.3-0.2
	c0.7-0.2,1.3-0.5,1.8-0.9c0.5-0.5,0.9-0.9,1.3-1.5c0.3-0.7,0.5-1.4,0.5-2.2c0-0.8-0.1-1.5-0.5-2.2c-0.2-0.6-0.7-1-1.3-1.4
	c-0.6-0.3-1.1-0.7-1.8-0.8c-0.8-0.1-1.5-0.2-2.3-0.2h-4.7v15h2.5V39z M153,26.1h1.8c0.9,0,1.7,0.1,2.5,0.6c0.6,0.5,0.9,1.1,0.9,1.9
	c0,1.8-1.1,2.7-3.3,2.7H153V26.1L153,26.1z M173.3,39v-2.3h-6.6v-4.5h5.4V30h-5.4v-3.8h6.4v-2.3h-9v15L173.3,39L173.3,39z
	 M180.5,28.6c0.2-0.8,0.5-1.7,0.7-2.5h0.1c0.2,0.8,0.5,1.6,0.7,2.5c0.2,0.8,0.5,1.6,0.7,2.4l0.6,1.8h-3.8L180,31
	C180.1,30.2,180.4,29.4,180.5,28.6L180.5,28.6z M177.5,39l1.1-4h5l1.1,4h2.7l-4.9-15h-3.1l-4.9,15H177.5z M192.6,39V24H190v15H192.6
	z"/>
<path id="symbol" class="st1" d="M28.4,36.2c0-0.5,0.2-0.9,0.6-1.2l-4,2.3c-0.3,0.2-0.7,0.1-0.9-0.3l0,0l-0.4-0.7l-4.5,2.6
	c1.8,2.2,4.2,3.8,6.8,4.6l2.9-6.1C28.6,37.1,28.5,36.6,28.4,36.2 M29.3,44v-4.2l-1.9,4C28,43.9,28.7,44,29.3,44 M30.7,43.9
	c0.6,0,1.3-0.1,1.9-0.2l-1.9-3.9L30.7,43.9 M16,30c0,2.3,0.6,4.6,1.7,6.6l4.6-2.7l-0.5-0.8c-0.2-0.3-0.1-0.8,0.3-1l7.7-4.4l0.8,1.6
	c0.1,0.2,0.4,0.3,0.6,0.3c0.1,0,0.2,0,0.3-0.1c0.3-0.2,0.5-0.6,0.3-0.9l0,0l-1.3-2.5L30.4,26c-0.2-0.3-0.1-0.7,0.2-0.8h0.1l1.3-0.7
	c0.3-0.2,0.8-0.1,0.9,0.3l4.1,7c0.2,0.3,0.1,0.8-0.3,1l-1.2,0.7c-0.3,0.2-0.8,0.1-0.9-0.3l0,0L34,32.3L29.5,35
	c0.2-0.1,0.4-0.1,0.6-0.1c0.8,0,1.5,0.7,1.5,1.6l0,0c0,0.4-0.2,0.8-0.5,1.1l2.9,6c5.9-1.9,9.9-7.3,10-13.5c0-7.7-6.2-14-14-14
	C22.3,16,16,22.2,16,30 M22.5,21.2l-0.1,0.1c0-0.1-0.1-0.1-0.1-0.2V21l0.1-0.1c1.9-1.7,4.4-2.6,6.9-2.6c3.2,0.1,6.2,1.6,8.2,4.1
	l0.1,0.1c0.1,0.1,0.2,0.3,0.2,0.6c0,0.4-0.3,0.8-0.8,0.8l0,0c-0.2,0-0.5-0.1-0.6-0.3c-2-2.5-5-3.9-8.1-3.9
	C26.1,19.6,24.2,20.1,22.5,21.2 M39.7,28.5c-0.3,0.1-0.9-1-1.4-1c-0.3-0.1-1.4,0.8-1.7,0.5c-0.3-0.2,0.6-1.3,0.6-1.6s-1.2-1-0.9-1.4
	c0.1-0.3,1.5,0.2,1.8,0.1s0.8-1.4,1-1.4c0.3,0.1,0.3,1.6,0.5,1.7c0.1,0.1,1.6,0.3,1.6,0.6c0.1,0.3-1.2,0.8-1.4,1
	C39.5,27,39.9,28.3,39.7,28.5 M17.4,37.1c-0.2-0.3-0.6-0.4-0.9-0.2l0,0c-0.3,0.2-0.4,0.6-0.2,0.8l0,0l1.2,1.9
	c0.1,0.2,0.4,0.3,0.6,0.3c0.1,0,0.2,0,0.3-0.1c0.3-0.2,0.4-0.6,0.2-0.9l0,0L17.4,37.1"/>
</svg>
