<?xml version="1.0" encoding="utf-8"?>
<!-- Generator: Adobe Illustrator 22.0.1, SVG Export Plug-In . SVG Version: 6.00 Build 0)  -->
<svg version="1.1" id="video_logo" xmlns="http://www.w3.org/2000/svg" xmlns:xlink="http://www.w3.org/1999/xlink" x="0px" y="0px"
	 viewBox="0 0 142 60" style="enable-background:new 0 0 142 60;" xml:space="preserve">
<style type="text/css">
	.st0{display:none;fill:#333333;fill-opacity:0;}
	.st1{fill:#FFFFFF;}
	.st2{display:none;}
</style>
<rect id="logo_bg" class="st0" width="133" height="60"/>
<path id="VIDEO" class="st1" d="M64.8,45l4.6-15h-2.7l-2.1,7.5c-0.2,0.9-0.4,1.7-0.6,2.4c-0.2,0.8-0.4,1.6-0.7,2.4h-0.1
	c-0.3-0.9-0.5-1.7-0.7-2.4s-0.4-1.6-0.7-2.4l-2-7.5H57l4.7,15H64.8L64.8,45z M74.7,45V30H72v15H74.7z M82.2,45c1,0,2-0.1,3-0.5
	c0.8-0.3,1.6-0.8,2.2-1.4c0.6-0.7,1.1-1.5,1.4-2.4c0.3-1.1,0.5-2.2,0.5-3.3c0.5-3.6-2.1-6.9-5.7-7.4c-0.5-0.1-1.1-0.1-1.6,0h-4v15
	H82.2L82.2,45z M80.8,32.2H82c1.3-0.1,2.6,0.4,3.5,1.3c0.9,1.1,1.4,2.6,1.2,4c0.1,1.5-0.3,2.9-1.2,4.1c-0.9,0.9-2.2,1.4-3.5,1.3
	h-1.2V32.2z M101.3,45v-2.2h-6.6v-4.4h5.4v-2.2h-5.4v-3.8h6.4V30h-9v15H101.3L101.3,45z M112.7,44.7c0.8-0.4,1.5-0.9,2.1-1.6
	c0.6-0.7,1.1-1.6,1.4-2.5c0.3-1.1,0.5-2.2,0.5-3.3s-0.1-2.2-0.5-3.2c-0.3-0.9-0.7-1.7-1.4-2.4c-0.6-0.6-1.3-1.2-2.1-1.5
	c-0.8-0.4-1.8-0.5-2.7-0.5c-0.9,0-1.8,0.2-2.7,0.5c-0.8,0.3-1.5,0.9-2.1,1.5c-0.6,0.7-1.1,1.5-1.4,2.4c-0.3,1-0.5,2.1-0.5,3.2
	c0,1.1,0.1,2.2,0.5,3.3c0.3,0.9,0.7,1.7,1.4,2.5c0.6,0.7,1.3,1.2,2.1,1.6c0.8,0.4,1.8,0.6,2.7,0.5C110.9,45.3,111.9,45.1,112.7,44.7
	L112.7,44.7z M108.4,42.6c-0.5-0.3-0.9-0.6-1.2-1.1c-0.4-0.5-0.6-1.1-0.8-1.7c-0.2-0.7-0.3-1.5-0.3-2.3c-0.1-1.4,0.3-2.8,1-3.9
	c1.1-1.6,3.3-1.9,4.9-0.7c0.3,0.2,0.5,0.5,0.8,0.7c0.8,1.2,1.1,2.6,1,3.9c0,0.8-0.1,1.5-0.3,2.3c-0.2,0.6-0.4,1.2-0.8,1.7
	c-0.3,0.5-0.7,0.8-1.2,1.1C110.6,43.1,109.4,43.1,108.4,42.6L108.4,42.6z"/>
<path id="TelescopeAI" class="st2" d="M59.8,15H54v1h2.3v8h1.1v-8h2.4V15L59.8,15z M65.2,23.1l-0.6-0.7c-0.2,0.2-0.4,0.4-0.7,0.6
	c-0.3,0.1-0.6,0.2-0.8,0.2c-0.4,0-0.9-0.2-1.2-0.5c-0.3-0.5-0.4-1-0.4-1.6V21h3.7v-0.7c0.1-0.8-0.2-1.6-0.6-2.3
	c-0.4-0.5-1.1-0.8-1.7-0.7c-0.7,0-1.4,0.3-1.8,0.8c-0.5,0.7-0.7,1.5-0.7,2.3v0.8c0,0.8,0.2,1.6,0.7,2.2c0.5,0.5,1.2,0.8,1.9,0.7
	C63.9,24.2,64.7,23.8,65.2,23.1L65.2,23.1L65.2,23.1z M63.8,18.6c0.2,0.4,0.3,0.9,0.3,1.4v0.1h-2.6c0-0.5,0.1-1,0.4-1.4
	c0.2-0.3,0.6-0.5,1-0.5C63.3,18.1,63.6,18.3,63.8,18.6z M68,14.5h-1.1V24H68V14.5z M74.5,23.1l-0.6-0.7c-0.2,0.2-0.4,0.4-0.7,0.6
	c-0.3,0.1-0.6,0.2-0.9,0.2c-0.4,0-0.9-0.2-1.2-0.5c-0.3-0.5-0.4-1-0.4-1.6V21h3.7v-0.7c0.1-0.8-0.1-1.6-0.6-2.3
	c-0.4-0.5-1.1-0.8-1.7-0.7c-0.7,0-1.4,0.3-1.8,0.8c-0.5,0.7-0.7,1.5-0.7,2.3v0.8c0,0.8,0.2,1.6,0.7,2.2c0.5,0.5,1.2,0.8,1.9,0.7
	C73.2,24.2,74,23.8,74.5,23.1L74.5,23.1L74.5,23.1z M73.1,18.6c0.2,0.4,0.4,0.9,0.3,1.4v0.1h-2.6c0-0.5,0.1-1,0.4-1.4
	c0.2-0.3,0.6-0.5,1-0.5C72.6,18.1,72.9,18.3,73.1,18.6L73.1,18.6z M79.1,23c-0.5,0.3-1.2,0.3-1.7-0.1C77.1,22.7,77,22.3,77,22h-1.1
	c0,0.6,0.2,1.1,0.6,1.5c0.5,0.4,1.1,0.6,1.7,0.6s1.2-0.2,1.6-0.5c0.4-0.4,0.6-0.9,0.6-1.4c0-0.4-0.1-0.8-0.4-1.2
	c-0.5-0.4-1-0.7-1.6-0.9c-0.3-0.1-0.7-0.3-1-0.5c-0.1-0.1-0.2-0.3-0.2-0.5c0-0.3,0.1-0.5,0.3-0.7c0.2-0.2,0.5-0.3,0.8-0.3
	s0.6,0.1,0.8,0.3c0.2,0.2,0.3,0.5,0.3,0.8h1.1c0-0.5-0.2-1.1-0.6-1.5s-1-0.6-1.6-0.6s-1.1,0.2-1.5,0.5s-0.6,0.8-0.6,1.4
	c0,0.3,0.1,0.5,0.2,0.8c0.1,0.2,0.3,0.4,0.5,0.6c0.4,0.3,0.8,0.5,1.3,0.6c0.4,0.1,0.7,0.3,1,0.6c0.2,0.2,0.3,0.4,0.3,0.6
	C79.4,22.6,79.3,22.8,79.1,23L79.1,23z M83.3,22.7c-0.3-0.5-0.4-1.1-0.4-1.7v-0.9c0-0.5,0.1-1.1,0.4-1.6c0.3-0.3,0.7-0.5,1.1-0.5
	c0.3,0,0.7,0.1,0.9,0.4c0.2,0.3,0.4,0.7,0.4,1.1h1c0-0.6-0.2-1.3-0.6-1.8c-0.4-0.4-1-0.7-1.6-0.6c-0.7,0-1.4,0.2-1.9,0.8
	c-0.5,0.7-0.7,1.5-0.6,2.3V21c-0.1,0.8,0.2,1.6,0.6,2.3c0.5,0.5,1.2,0.8,1.9,0.8c0.6,0,1.2-0.2,1.6-0.6s0.7-1,0.7-1.6h-1
	c0,0.4-0.1,0.7-0.4,1c-0.2,0.2-0.5,0.4-0.9,0.3C84,23.2,83.6,23.1,83.3,22.7L83.3,22.7z M88,21.1c0,0.8,0.2,1.6,0.7,2.2
	c0.9,1,2.5,1.1,3.5,0.2c0.1-0.1,0.1-0.1,0.2-0.2c0.5-0.7,0.8-1.5,0.7-2.3v-0.7c0-0.8-0.2-1.6-0.7-2.3c-0.5-0.5-1.2-0.8-1.9-0.8
	c-0.7,0-1.4,0.3-1.9,0.8c-0.5,0.7-0.8,1.5-0.7,2.3v0.8H88z M89.1,20.4c0-0.6,0.1-1.1,0.4-1.6c0.2-0.4,0.6-0.6,1.1-0.6
	c0.4,0,0.9,0.2,1.1,0.6c0.3,0.5,0.4,1,0.4,1.6v0.7c0,1.4-0.5,2.1-1.5,2.1c-0.4,0-0.9-0.2-1.1-0.6c-0.3-0.5-0.4-1.1-0.4-1.6V20.4
	L89.1,20.4z M99.6,20.3c0-0.8-0.2-1.6-0.6-2.3c-0.4-0.5-1-0.8-1.6-0.8s-1.2,0.3-1.6,0.9l-0.1-0.7h-1v9.2h1.1v-3.2
	c0.3,0.5,0.9,0.8,1.5,0.8s1.2-0.3,1.6-0.8c0.4-0.7,0.6-1.5,0.6-2.4L99.6,20.3L99.6,20.3z M98.5,21c0,0.6-0.1,1.1-0.4,1.6
	c-0.2,0.4-0.7,0.6-1.1,0.5c-0.5,0-1-0.3-1.2-0.8V19c0.2-0.5,0.7-0.8,1.2-0.8c0.4,0,0.9,0.2,1.1,0.5c0.3,0.5,0.4,1.1,0.3,1.7L98.5,21
	L98.5,21z M105.8,23.1l-0.6-0.7c-0.2,0.2-0.4,0.4-0.7,0.6c-0.3,0.1-0.6,0.2-0.8,0.2c-0.4,0-0.9-0.2-1.2-0.5c-0.3-0.5-0.4-1-0.4-1.6
	V21h3.7v-0.7c0.1-0.8-0.1-1.6-0.6-2.3c-0.4-0.5-1.1-0.8-1.7-0.7c-0.7,0-1.4,0.3-1.8,0.8c-0.5,0.7-0.7,1.5-0.7,2.3v0.8
	c0,0.8,0.2,1.6,0.7,2.2c0.5,0.5,1.2,0.8,1.9,0.7C104.5,24.2,105.3,23.8,105.8,23.1L105.8,23.1L105.8,23.1z M104.5,18.6
	c0.2,0.4,0.3,0.9,0.3,1.4v0.1h-2.6c0-0.5,0.1-1,0.4-1.4c0.2-0.3,0.6-0.5,1-0.5C103.9,18.1,104.2,18.3,104.5,18.6L104.5,18.6z
	 M112.5,24h1.1l-2.9-9h-1l-2.9,9h1.2l0.7-2.3h3L112.5,24z M110.3,16.6l1.2,4.1H109L110.3,16.6z M116.3,15h-1.1v9h1.1V15z"/>
<g id="telescope_x5F_ai">
	<path class="st1" d="M62.9,16h-2.4V24h-1.1V16H57v-1h5.9V16z"/>
	<path class="st1" d="M65.3,24.1c-0.8,0-1.5-0.2-1.9-0.7c-0.4-0.5-0.7-1.2-0.7-2.2v-0.8c0-1,0.2-1.8,0.7-2.4c0.4-0.6,1-0.9,1.8-0.9
		c0.8,0,1.4,0.2,1.8,0.8c0.4,0.5,0.6,1.3,0.6,2.3V21h-3.7v0.2c0,0.7,0.1,1.2,0.4,1.6s0.7,0.5,1.2,0.5c0.3,0,0.6-0.1,0.9-0.2
		c0.2-0.1,0.5-0.3,0.7-0.6l0.6,0.7C67,23.8,66.3,24.1,65.3,24.1z M65.2,18.1c-0.5,0-0.8,0.2-1,0.5c-0.2,0.3-0.3,0.8-0.4,1.5h2.6
		v-0.1c0-0.6-0.1-1.1-0.3-1.4C65.9,18.3,65.6,18.1,65.2,18.1z"/>
	<path class="st1" d="M70.1,24H69V15h1.1V24z"/>
	<path class="st1" d="M74.4,24.1c-0.8,0-1.5-0.2-1.9-0.7c-0.4-0.5-0.7-1.2-0.7-2.2v-0.8c0-1,0.2-1.8,0.7-2.4c0.4-0.6,1-0.9,1.8-0.9
		c0.8,0,1.4,0.2,1.8,0.8c0.4,0.5,0.6,1.3,0.6,2.3V21h-3.7v0.2c0,0.7,0.1,1.2,0.4,1.6s0.7,0.5,1.2,0.5c0.3,0,0.6-0.1,0.9-0.2
		c0.2-0.1,0.5-0.3,0.7-0.6l0.6,0.7C76.1,23.8,75.3,24.1,74.4,24.1z M74.2,18.1c-0.5,0-0.8,0.2-1,0.5c-0.2,0.3-0.3,0.8-0.4,1.5h2.6
		v-0.1c0-0.6-0.1-1.1-0.3-1.4C75,18.3,74.7,18.1,74.2,18.1z"/>
	<path class="st1" d="M81.3,22.3c0-0.2-0.1-0.4-0.3-0.6c-0.2-0.2-0.5-0.4-1-0.6c-0.6-0.2-1-0.5-1.2-0.6c-0.2-0.2-0.4-0.4-0.5-0.6
		S78,19.4,78,19.1c0-0.5,0.2-1,0.6-1.4c0.4-0.4,0.9-0.5,1.5-0.5c0.7,0,1.2,0.2,1.6,0.6c0.4,0.4,0.6,0.9,0.6,1.5h-1.1
		c0-0.3-0.1-0.6-0.3-0.8c-0.2-0.2-0.5-0.3-0.8-0.3c-0.3,0-0.6,0.1-0.8,0.3s-0.3,0.4-0.3,0.7c0,0.2,0.1,0.4,0.2,0.5
		c0.1,0.1,0.5,0.3,1,0.5c0.8,0.3,1.4,0.6,1.7,0.9c0.3,0.3,0.4,0.7,0.4,1.2c0,0.6-0.2,1.1-0.6,1.4c-0.4,0.4-0.9,0.5-1.6,0.5
		c-0.7,0-1.3-0.2-1.7-0.6c-0.4-0.4-0.7-0.9-0.7-1.5h1.1c0,0.4,0.1,0.7,0.3,0.9c0.2,0.2,0.5,0.3,0.9,0.3c0.4,0,0.6-0.1,0.8-0.2
		C81.2,22.8,81.3,22.6,81.3,22.3z"/>
	<path class="st1" d="M86.3,23.2c0.4,0,0.7-0.1,0.9-0.3c0.2-0.2,0.3-0.5,0.4-1h1c0,0.6-0.3,1.2-0.7,1.6c-0.4,0.4-1,0.6-1.6,0.6
		c-0.8,0-1.5-0.3-1.9-0.8c-0.4-0.5-0.7-1.3-0.7-2.3v-0.7c0-1,0.2-1.8,0.7-2.3c0.4-0.5,1.1-0.8,1.9-0.8c0.7,0,1.2,0.2,1.6,0.7
		c0.4,0.4,0.6,1,0.6,1.8h-1c0-0.5-0.1-0.9-0.4-1.1s-0.5-0.4-0.9-0.4c-0.5,0-0.8,0.2-1.1,0.5c-0.2,0.3-0.4,0.8-0.4,1.6V21
		c0,0.8,0.1,1.3,0.3,1.7S85.8,23.2,86.3,23.2z"/>
	<path class="st1" d="M89.7,20.4c0-1,0.2-1.7,0.7-2.3c0.5-0.6,1.1-0.9,1.9-0.9s1.4,0.3,1.9,0.8c0.5,0.6,0.7,1.3,0.7,2.3V21
		c0,1-0.2,1.7-0.7,2.3c-0.5,0.6-1.1,0.8-1.9,0.8c-0.8,0-1.4-0.3-1.9-0.8c-0.5-0.5-0.7-1.3-0.7-2.2V20.4z M90.8,21
		c0,0.7,0.1,1.2,0.4,1.6c0.3,0.4,0.6,0.6,1.1,0.6c1,0,1.5-0.7,1.5-2.1v-0.8c0-0.7-0.1-1.2-0.4-1.6c-0.3-0.4-0.6-0.6-1.1-0.6
		c-0.5,0-0.8,0.2-1.1,0.6s-0.4,0.9-0.4,1.6V21z"/>
	<path class="st1" d="M101.2,21c0,1.1-0.2,1.9-0.6,2.4c-0.4,0.5-0.9,0.8-1.6,0.8c-0.7,0-1.2-0.3-1.6-0.8v3.2h-1.1v-9.3h1l0.1,0.7
		c0.4-0.6,0.9-0.9,1.6-0.9c0.7,0,1.3,0.3,1.6,0.8c0.4,0.5,0.6,1.3,0.6,2.3V21z M100.2,20.4c0-0.8-0.1-1.3-0.3-1.7s-0.6-0.5-1.1-0.5
		c-0.5,0-0.9,0.3-1.2,0.8v3.5c0.3,0.5,0.7,0.8,1.2,0.8c0.5,0,0.9-0.2,1.1-0.5s0.4-0.9,0.4-1.6V20.4z"/>
	<path class="st1" d="M105.2,24.1c-0.8,0-1.5-0.2-1.9-0.7c-0.4-0.5-0.7-1.2-0.7-2.2v-0.8c0-1,0.2-1.8,0.7-2.4c0.4-0.6,1-0.9,1.8-0.9
		c0.8,0,1.4,0.2,1.8,0.8c0.4,0.5,0.6,1.3,0.6,2.3V21h-3.7v0.2c0,0.7,0.1,1.2,0.4,1.6s0.7,0.5,1.2,0.5c0.3,0,0.6-0.1,0.9-0.2
		c0.2-0.1,0.5-0.3,0.7-0.6l0.6,0.7C106.9,23.8,106.2,24.1,105.2,24.1z M105.1,18.1c-0.5,0-0.8,0.2-1,0.5c-0.2,0.3-0.3,0.8-0.4,1.5
		h2.6v-0.1c0-0.6-0.1-1.1-0.3-1.4C105.8,18.3,105.5,18.1,105.1,18.1z"/>
	<path class="st1" d="M113.9,21.7h-3.1l-0.7,2.4H109l2.9-9h1l2.9,9h-1.2L113.9,21.7z M111.2,20.7h2.5l-1.2-4.1L111.2,20.7z"/>
	<path class="st1" d="M117.9,24h-1.1v-9h1.1V24z"/>
</g>
<g id="symbol_1_">
	<polygon class="st1" points="27,36 36,30 27,25 	"/>
	<path class="st1" d="M30,14c-8.8,0-16,7.2-16,16s7.2,16,16,16s16-7.2,16-16S38.8,14,30,14z M30,43c-7.2,0-13-5.8-13-13
		s5.8-13,13-13s13,5.8,13,13S37.2,43,30,43z"/>
</g>
</svg>
