<?xml version="1.0" encoding="UTF-8"?>
<svg width="60" height="60" version="1.1" viewBox="0 0 15.875 15.875" xmlns="http://www.w3.org/2000/svg" >
 <g stroke="#000" stroke-linecap="round" stroke-linejoin="round">
  <ellipse cx="13.202" cy="11.641" rx=".51259" ry=".88587" fill="#fab516" stroke-width=".10583" style="paint-order:normal"/>
  <rect x=".43168" y="12.204" width="13.405" height="1.2368" ry=".41891" fill="#009ecc" stroke-width=".27928" style="paint-order:normal"/>
  <path d="m1.5887 10.05c3.703-0.7892 7.6717-1.5829 11.131 0 0.66406 0.30386 0.42317 2.1496 0.42317 2.1496l-11.97-0.01895s-0.2922-1.9798 0.41549-2.1306z" fill="#009ecc" stroke-width=".27928" style="paint-order:normal"/>
  <g fill="#fffff2">
   <path d="m3.9473 7.8309c1.4473-1.3488 4.5953-1.4352 5.8963-0.44885s1.4899 2.6514 1.4899 2.6514h-8.2675s0.22348-1.5895 0.88131-2.2026z" stroke-width=".27763" style="paint-order:normal"/>
   <rect x="6.833" y="11.006" width=".57833" height=".014106" stroke-width=".44684" style="paint-order:normal"/>
   <rect x="5.9739" y="6.9731" width=".026714" height="6.4577" stroke-width=".30842" style="paint-order:normal"/>
  </g>
  <circle cx="3.3489" cy="12.924" r="1.2342" fill="#fffff2" stroke-width=".44684" style="paint-order:normal"/>
  <circle cx="3.3489" cy="12.924" r=".46985" fill="none" stroke-dasharray="0.47625,0.47625" stroke-dashoffset=".15875" stroke-width=".15875" style="paint-order:normal">
  <animateTransform attributeName="transform" attributeType="XML" type="rotate" from="0 3.3489 12.924" to="360 3.3489 12.924" dur="1.6s" repeatCount="indefinite"/>
   </circle>
   <g transform="matrix(.96851 0 0 .96851 .073691 1.1734)">
   <path d="m2.8728 1.8612 3.092 1.7491-0.011182-1.1002 3.2895 1.3541-0.067604-0.93097 3.7239 2.0128-3.8649 1.646 0.23687-0.90276-3.2708 1.2838 0.020716-1.0299-3.1485 1.6362z" fill="#558a00" stroke-width=".35843" style="paint-order:normal"/>
   <path d="m1.9948 4.2353h0.78991v1.0438h-0.78991z" fill="#b3530b" stroke-width=".33513" style="paint-order:normal"/>
   <path d="m6.0273 6.9731 1.8191-3.5405-1.8191 3.5405h-0.026714z" fill="#fffff2" stroke-width=".30842" style="paint-order:normal"/>
   <path d="m3.9237 6.9569 1.8191-3.5405-1.8191 3.5405h-0.026714z" fill="#fffff2" stroke-width=".30842" style="paint-order:normal"/>
  </g>
  <g transform="translate(7.7262 .018794)">
   <circle cx="3.3489" cy="12.924" r="1.2342" fill="#fffff2" stroke-width=".44684" style="paint-order:normal"/>
   <circle cx="3.3489" cy="12.924" r=".46985" fill="none" stroke-dasharray="0.47625,0.47625" stroke-width=".15875" style="paint-order:normal">
    <animateTransform attributeName="transform" attributeType="XML" type="rotate" from="0 3.3489 12.924" to="360 3.3489 12.924" dur="1.6s" repeatCount="indefinite"/>
   </circle>
  </g>
 </g>
</svg>
