<?xml version="1.0" encoding="UTF-8"?>
<svg width="200" height="200" version="1.1" viewBox="0 0 200 200" xmlns="http://www.w3.org/2000/svg">
 <title>982A0B3E-75E9-4E23-83B8-267AEF0BCA74</title>
 <path d="m94.4 70.127s0.8201 13.982 0 32.899 5.7417 71.556 5.7417 71.556 86.944-1.645 87.764-9.8699c0.8201-8.2249-7.3822-91.296-6.5618-94.586 0.82042-3.2901-86.944 3.2e-4 -86.944 3.2e-4z" fill="#67a300" fill-rule="evenodd"/>
 <g fill="#d6e6b2">
  <path d="m136.23 43.938c-10.253 3.2901-6.5618 18.506-6.5618 18.506s-2.8708-0.82236-5.3315-3.7011c-2.4606-2.8787-14.354-12.337-17.225 3.4898-2.8708 15.827 20.096 12.137 20.096 12.137v6.5798h12.89s-1.4074-13.571 3.924-18.506c5.3315-4.9348 2.4609-21.796-7.7921-18.506zm-24.197 20.974c-2.0504-3.7011 4.9212-4.5238 9.4326-2.6787 0 0 4.1011 1.8563 5.2912 5.9688 1.1897 4.1121-12.673 0.41102-14.724-3.2901zm29.112-5.7575c-0.41661 4.9348-7.7857 2.4674-7.7857-3.7011s5.3315-6.1685 5.3315-6.1685c2.6656-0.77138 2.8705 4.9348 2.4542 9.8696z"/>
  <g transform="translate(94.108 85.599)" fill-rule="evenodd" stroke="#d6e6b2" stroke-width="5.6183">
   <polyline points="0.22157 0.054503 5.4571 4.359 10.653 0.054503 16.427 4.359 22.201 0.054503 26.243 4.8652 34.326 0.054503 39.811 4.8652 48.712 0.054503 52.513 4.8652 59.153 1.9403 64.638 4.8652 72.143 0.054503 76.185 4.8652 83.114 0.054503 89.753 4.8652"/>
   <polyline points="0.22157 10.352 5.4571 14.656 10.653 10.352 16.427 14.656 22.201 10.352 26.243 15.162 34.326 10.352 39.811 15.162 48.712 10.352 52.513 15.162 59.153 12.238 64.638 15.162 72.143 10.352 76.185 15.162 83.114 10.352 89.753 15.162"/>
  </g>
  <path d="m130.19 173.36-3.0809-102.24 12.67-4.7564s0.10203 34.917 1.2215 57.637c1.1194 22.72 3.1089 49.363 3.1089 49.363z" fill-rule="evenodd"/>
 </g>
 <desc>Created with sketchtool.</desc>
 <path id="Path" d="m27.109 147.07s-4.738-0.35876-4.5177 4.0069c0.22076 4.3657 5.6446 4.8997 7.0401 2.7904 1.3954-2.1093 1.7746-6.1251-2.5224-6.7973z" fill="#3d5287" fill-rule="evenodd"/>
 <path d="m15.245 125.96s1.6894 30.877 0 38.845c-1.6894 7.9682 0.75101 15.936 0.75101 15.936s92.179 2.2411 93.869 0c1.6894-2.2411-0.84495-24.402 0-33.117s4.5692-22.908 0.59495-23.157c-3.9742-0.24905-91.835-0.74698-95.215 1.4941z" fill="#009ecc" fill-rule="evenodd"/>
 <g fill="#c4eaf5">
  <path d="m51.821 126.68s-1.6894 21.657 0 36.013c1.6894 14.357 0 19.467 0 19.467h16.896v-42.097-13.383h-16.896z" fill-rule="evenodd"/>
  <path id="Shape" d="m82.234 106.57c-2.8156-11.177-24.781 5.0294-24.781 5.0294s-7.8854-16.765-14.644-13.972c-6.7586 2.7938-7.8848 22.912 9.0116 29.06 16.896 6.1474 33.229-8.9417 30.413-20.118zm-34.919 9.7791c-1.6707-2.6114-3.098-10.338-1.4081-12.294 1.6894-1.9564 6.7586 9.7791 6.7586 9.7791 2.5344 9.501-4.5576 3.7555-5.3505 2.5147zm17.178 0.55926c-0.28131-6.1469 6.246-9.8568 10.702-8.9417 8.9273 1.8352-10.42 15.089-10.702 8.9417z"/>
  <g fill-rule="evenodd">
   <path d="m22.584 134.06s-3.2229 6.0646-3.6117 8.0323l-0.38883 1.9677h8z"/>
   <path d="m39.584 153.06s-3.2229 6.0646-3.6117 8.0323l-0.38883 1.9677h8z"/>
   <path d="m91.584 132.06s-3.2229 6.0646-3.6117 8.0323l-0.38883 1.9677h8z"/>
  </g>
 </g>
</svg>
