<?xml version="1.0" encoding="UTF-8"?>
<svg width="250" height="380" version="1.1" viewBox="0 0 250 380" xmlns="http://www.w3.org/2000/svg">
 <title>ёлка</title>
 <desc>Created with Sketch.</desc>
 <g fill-rule="evenodd">
  <path id="Path" d="m169.6 347.09c-56.681-1.0341-156.91 7.7935-160.58 5.716-3.1262-1.7674 24.792-77.756 40.576-124.6 1.2316-3.6569 2.3874-7.1354 3.4579-10.379 1.2884-3.9766 2.4537-7.6056 3.4294-10.811 12.069-39.484 69.63-152.51 69.63-152.51 22.045 28.053 115.91 281.17 119.59 287.92 3.6757 6.7499-19.421 5.716-76.092 4.6724z" fill="#428024" stroke="#428024" stroke-width="2.9356"/>
  <g transform="matrix(2.9356 0 0 2.9356 8.6286 41.957)" fill="#fff">
   <path d="m40.183 0.068211s13.765 20.703 13.407 22.296c-0.35756 1.5926-2.9496 1.7697-4.6777 0.29494-1.7281-1.4747-1.8769-2.7131-1.8769-2.7131s0.0597 4.3354-2.6517 4.3649c-2.7114 0.02946-3.3965-4.5122-3.3965-4.5122s-0.23784 4.5013-2.9192 4.354c-2.6814-0.14731-2.1754-4.0885-2.1754-4.0885s-2.4384 4.5116-5.8991 4.5122c-5.0646 3.2e-4 10.19-24.508 10.19-24.508z"/>
   <path d="m47.95 38.912s-9.5338 1.0027-16.744 0.70774c-7.21-0.29494-7.5078-1.3565-9.1169 1.4747-1.6087 2.8313-5.5416 11.207-4.9458 12.446 0.59572 1.2387 4.8264-5.2494 5.5416-3.244 0.71512 2.0054 0.11908 5.0137 2.8005 4.8366 2.6814-0.17709 3.5156-6.6652 4.5883-4.8366s2.3238 6.3113 5.184 5.8982c2.8602-0.41279 2.6814-6.4881 4.3498-6.3702 1.6684 0.11785 3.2771 5.1905 5.5416 5.1905s1.7281-6.3113 3.5753-6.1342c1.8472 0.17709 4.171 5.3086 6.2567 4.5417 2.0857-0.76666-0.17878-6.3433 1.4299-5.8556 1.6087 0.48805 2.0857 2.2574 4.171 3.4372s-4.3498-13.861-5.9585-13.153-4.6977 0.87714-6.6736 1.0619z"/>
   <path d="m50.456 75.803s-13.055 1.858-23.554 0.44225c-10.5-1.4155-14.164-3.6274-16.309-2.0348s-9.1169 13.36-6.9715 14.156c2.1454 0.79612 5.8097-4.6006 6.1673-2.9196s-0.98329 4.5122 1.3409 5.8393c2.3238 1.3271 6.2567-8.0512 7.4184-5.7509 1.1621 2.3003 1.6981 7.6089 5.0052 7.1664 3.3071-0.44257 3.8435-7.5202 5.3628-6.1048s2.592 7.6089 5.3628 7.078 3.7541-8.4051 5.4522-7.078 4.4689 7.6733 6.6142 7.1103c2.145-0.56298 3.039-8.6142 4.6477-8.0835 1.6087 0.53064 4.5583 6.9012 6.3461 6.1932 1.7875-0.70774 1.0727-9.1128 2.8602-8.7589s6.3461 8.5822 7.8654 7.9628c1.5193-0.61935 0.44695-8.8476 2.2344-7.8744 1.7875 0.97321 8.3123 6.1932 7.9548 3.8929-0.35756-2.3003-7.329-14.333-9.2062-13.979s-13.343 2.1821-18.591 2.7432z"/>
  </g>
  <path d="m128.58 9.6662c-3.6756 0-5.4345 21.148-8.4178 21.976-2.9834 0.82737-24.72 1.6547-19.818 4.3434 4.9012 2.6887 13.987 4.55 13.601 7.6528-0.38687 3.1029-7.6335 17.788-4.6491 18.821 2.9834 1.034 14.065-15.305 17.688-14.478 3.6224 0.82736 15.557 14.064 17.9 13.445 2.3435-0.61982-9.1635-16.754-6.1801-17.994s17.9-7.3991 16.623-9.284c-1.2779-1.885-19.393-0.43679-20.458-2.5057-1.0666-2.0679-3.89-21.976-6.2877-21.976z" fill="#ffc000" stroke-width="1.0825"/>
  <g transform="matrix(1.0825 0 0 1.0825 -222.82 -13.296)" fill="#fff">
   <path d="m228.08 316.81s-6.4246-0.48656-6.1255 5.433c0.29908 5.9195 7.654 6.6438 9.546 3.7838 1.892-2.8599 2.4059-8.305-3.4205-9.2168z"/>
   <path d="m331.13 235.46s-6.4246-0.48656-6.1255 5.433c0.29908 5.9195 7.654 6.6438 9.546 3.7839s2.4059-8.305-3.4205-9.2168z"/>
   <path d="m257.91 208.34s-6.4244-0.48657-6.1253 5.433c0.29907 5.9195 7.6538 6.6438 9.5458 3.7839 1.8919-2.86 2.4068-8.305-3.4204-9.2168z"/>
   <path d="m295.88 330.37s-6.4246-0.48659-6.1255 5.4331c0.29908 5.9196 7.654 6.6439 9.546 3.783 1.892-2.86 2.4059-8.3052-3.4205-9.2161z"/>
   <path d="m398.93 227.32s-6.4246-0.48656-6.1255 5.433c0.29908 5.9195 7.654 6.6438 9.546 3.7839 1.892-2.86 2.4059-8.305-3.4205-9.2168z"/>
   <path d="m415.2 300.54s-6.4246-0.48657-6.1255 5.433c0.29909 5.9195 7.654 6.6438 9.546 3.7838 1.892-2.8608 2.4059-8.3059-3.4205-9.2168z"/>
   <path d="m309.44 126.98s-6.4248-0.48657-6.1257 5.433c0.2991 5.9195 7.6543 6.6438 9.5464 3.7839 1.8911-2.86 2.406-8.305-3.4206-9.2168z"/>
  </g>
  <polygon transform="matrix(5.2749 0 0 2.9356 -80.263 9.6662)" points="38 122.78 41.659 123 42 112 38 112.02" fill="#428024"/>
 </g>
</svg>
