<svg xmlns="http://www.w3.org/2000/svg" width="20" height="20" viewBox="0 0 20 20"><g transform="matrix(.21753 0 0 .20858 15.452 11.945)"><circle r="8" transform="scale(.88934)"><animateTransform attributeName="transform" begin="-0.1s" dur="0.8s" keyTimes="0;1" repeatCount="indefinite" type="scale" values="1 1;0.1 0.1"/></circle></g><g transform="matrix(.17599 .1226 -.12786 .16874 12.668 15.246)"><circle r="8" transform="scale(.83934)"><animateTransform attributeName="transform" begin="-0.2s" dur="0.8s" keyTimes="0;1" repeatCount="indefinite" type="scale" values="1 1;0.1 0.1"/></circle></g><g transform="matrix(.06722 .19837 -.20688 .06445 7.983 15.62)"><circle r="8" transform="scale(.78934)"><animateTransform attributeName="transform" begin="-0.3s" dur="0.8s" keyTimes="0;1" repeatCount="indefinite" type="scale" values="1 1;0.1 0.1"/></circle></g><g transform="matrix(-.06722 .19837 -.20688 -.06445 4.874 13.215)"><circle r="8" transform="scale(.73934)"><animateTransform attributeName="transform" begin="-0.4s" dur="0.8s" keyTimes="0;1" repeatCount="indefinite" type="scale" values="1 1;0.1 0.1"/></circle></g><g transform="matrix(-.17599 .1226 -.12786 -.16874 4.202 9.658)"><circle r="8" transform="scale(.68934)"><animateTransform attributeName="transform" begin="-0.5s" dur="0.8s" keyTimes="0;1" repeatCount="indefinite" type="scale" values="1 1;0.1 0.1"/></circle></g><g transform="matrix(-.21753 0 0 -.20858 6.122 6.494)"><circle r="8" transform="scale(.63934)"><animateTransform attributeName="transform" begin="-0.6s" dur="0.8s" keyTimes="0;1" repeatCount="indefinite" type="scale" values="1 1;0.1 0.1"/></circle></g><g transform="matrix(.06722 -.19837 .20688 .06445 10.515 4.651)"><circle r="8" transform="scale(.98934)"><animateTransform attributeName="transform" begin="-0.7s" dur="0.8s" keyTimes="0;1" repeatCount="indefinite" type="scale" values="1 1;0.1 0.1"/></circle></g><g transform="matrix(.17599 -.1226 .12786 .16874 14.746 7.338)"><circle r="8" transform="scale(.93934)"><animateTransform attributeName="transform" begin="-0.8s" dur="0.8s" keyTimes="0;1" repeatCount="indefinite" type="scale" values="1 1;0.1 0.1"/></circle></g></svg>