<?xml version="1.0" encoding="UTF-8"?>
<svg width="20" height="20" version="1.1" viewBox="0 0 20 20" xmlns="http://www.w3.org/2000/svg">
 <g transform="translate(0,-294.65)" display="none">
  <path d="m6 297.65v1h-2v2h-1v8h1v2h2v1h8v-1h2v-2h1v-8h-1v-2h-2v-1z" fill-opacity=".27451" opacity=".544"/>
  <path d="m9.91 297.99a6.6574 6.6574 89.506 0 0-6.568 6.7468 6.6574 6.6574 89.506 0 0 6.7468 6.568 6.6574 6.6574 89.506 0 0 6.568-6.7468 6.6574 6.6574 89.506 0 0-6.7468-6.568zm0.089396 0.83218a5.8252 5.8252 0 0 1 5.8252 5.8252 5.8252 5.8252 0 0 1-5.8252 5.8252 5.8252 5.8252 0 0 1-5.8252-5.8252 5.8252 5.8252 0 0 1 5.8252-5.8252z"/>
  <rect x="-4.9792" y="289.67" width="29.958" height="29.958" fill="none" stroke="#000000" stroke-width=".041609"/>
  <ellipse cx="10" cy="304.65" rx="14.979" ry="14.979" fill="none" stroke="#000000" stroke-width=".041609"/>
 </g>
 <g transform="translate(0,-4)">
  <g transform="matrix(.23333 0 0 .225 3 2.1)">
   <circle cx="6" cy="50" r="6">
    <animateTransform attributeName="transform" begin="0.1" calcMode="spline" dur="0.8s" keySplines=".42,0,.58,1; 0,0,.58,1" keyTimes="0; 0.5; 1" repeatCount="indefinite" type="translate" values="0 10 ;0 -10; 0 10"/>
   </circle>
   <circle cx="30" cy="50" r="6">
    <animateTransform attributeName="transform" begin="0.25" calcMode="spline" dur="0.8s" keySplines=".42,0,.58,1; 0,0,.58,1" keyTimes="0; 0.5; 1" repeatCount="indefinite" type="translate" values="0 10 ;0 -10; 0 10"/>
   </circle>
   <circle cx="54" cy="50" r="6">
    <animateTransform attributeName="transform" begin="0.4" calcMode="spline" dur="0.8s" keySplines=".42,0,.58,1; 0,0,.58,1" keyTimes="0; 0.5; 1" repeatCount="indefinite" type="translate" values="0 10 ;0 -10; 0 10"/>
   </circle>
  </g>
 </g>
</svg>
