<svg width="24" height="24" version="1.1" viewBox="0 0 24 24" xmlns="http://www.w3.org/2000/svg">
 <g transform="translate(0,-290.65)" display="none">
  <path d="m11.892 294.65a8 8 89.237 0 0-7.8926 8.1074 8 8 89.237 0 0 8.1074 7.8926 8 8 89.237 0 0 7.8926-8.1074 8 8 89.237 0 0-8.1074-7.8926zm0.10742 1a7 7 0 0 1 7 7 7 7 0 0 1-7 7 7 7 0 0 1-7-7 7 7 0 0 1 7-7z"/>
  <path transform="translate(0,290.65)" d="m7 4.0195v0.98047h-2v2h-0.95703v10h0.95703v2h2v1h10v-1h2v-2h1v-10h-1v-2h-2v-0.98047z" fill-opacity=".27451" opacity=".544"/>
  <rect x="-6" y="284.65" width="36" height="36" fill="none" stroke="#000" stroke-width=".05"/>
  <circle cx="12" cy="302.65" r="18" fill="none" stroke="#000" stroke-width=".05"/>
 </g>
 <g>
  <g transform="matrix(.77922 0 0 .79506 -4.4182 -4.8837)" fill-rule="evenodd">
   <g transform="translate(-913,-5287)" style="">
    <g transform="translate(0,5161)" style="">
     <g transform="translate(913,126)" style="">
      <path d="m28 12c1.1046 0 2 0.89543 2 2v14c0 1.1046-0.89543 2-2 2h-14c-1.1046 0-2-0.89543-2-2v-14c0-1.1046 0.89543-2 2-2zm0 2h-14v14h14zm-7 5c0.55228 0 1 0.44772 1 1v5c0 0.55228-0.44772 1-1 1s-1-0.44772-1-1v-5c0-0.55228 0.44772-1 1-1zm0-3c0.55228 0 1 0.44772 1 1s-0.44772 1-1 1-1-0.44772-1-1 0.44772-1 1-1z" fill-rule="nonzero"/>
     </g>
    </g>
   </g>
  </g>
 </g>
</svg>
