<svg xmlns="http://www.w3.org/2000/svg" width="24" height="24" viewBox="0 0 24 24"><path fill-rule="evenodd" d="M16.265 18.77c-.174.11-.352.213-.535.309l-.54 2.164a1 1 0 01-.97.757H9.78a1 1 0 01-.97-.757l-.54-2.164c-.183-.096-.36-.2-.535-.31l-2.145.614a1 1 0 01-1.14-.461l-2.22-3.844a1 1 0 01.171-1.219l1.605-1.551a8.142 8.142 0 010-.616L2.4 10.141a1 1 0 01-.17-1.22l2.218-3.843a1 1 0 011.141-.461l2.145.613c.174-.11.352-.213.535-.309l.54-2.164A1 1 0 019.78 2h4.44a1 1 0 01.97.757l.54 2.164c.183.096.36.2.535.31l2.145-.614a1 1 0 011.14.461l2.22 3.844a1 1 0 01-.171 1.219l-1.605 1.551a8.142 8.142 0 010 .616l1.605 1.551a1 1 0 01.17 1.22l-2.218 3.843a1 1 0 01-1.141.461l-2.145-.613zM12 16a4 4 0 100-8 4 4 0 000 8z"/></svg>