<svg width="60px" height="60px" version="1.1" viewBox="0 0 24 24" xmlns="http://www.w3.org/2000/svg">
 <g transform="translate(0,-290.65)" display="none" fill="none" stroke="#000" stroke-width=".05">
  <circle cx="12" cy="302.65" r="7.4103"/>
  <rect x="-6" y="284.65" width="36" height="36"/>
  <circle cx="12" cy="302.65" r="18"/>
  <rect x="6" y="296.65" width="12" height="12"/>
 </g>
 <path id="global_icon" class="cls-2" d="m12 11.2a0.8 0.8 0 1 1 -0.8 0.8 0.8 0.8 0 0 1 0.8 -0.8zm3.2 0a0.8 0.8 0 1 1 -0.8 0.8 0.8024 0.8024 0 0 1 0.8 -0.8zm-6.4 0a0.8 0.8 0 1 1 -0.8 0.8 0.8 0.8 0 0 1 0.8 -0.8zm3.2-3.6a0.8 0.8 0 1 1 -0.8 0.8 0.8 0.8 0 0 1 0.8 -0.8zm3.2 0a0.8 0.8 0 1 1 -0.8 0.8 0.8024 0.8024 0 0 1 0.8 -0.8zm-6.4 0a0.8 0.8 0 1 1 -0.8 0.8 0.8 0.8 0 0 1 0.8 -0.8zm3.2 7.2a0.8 0.8 0 1 1 -0.8 0.8 0.8 0.8 0 0 1 0.8 -0.8zm3.2 0a0.8 0.8 0 1 1 -0.8 0.8 0.8024 0.8024 0 0 1 0.8 -0.8zm-6.4 0a0.8 0.8 0 1 1 -0.8 0.8 0.8 0.8 0 0 1 0.8 -0.8z"/>
</svg>
