<svg xmlns="http://www.w3.org/2000/svg" width="25" height="24" viewBox="0 0 25 24"><path d="M12.5 20c-2.233 0-4.125-.775-5.675-2.325C5.275 16.125 4.5 14.233 4.5 12c0-2.233.775-4.125 2.325-5.675C8.375 4.775 10.267 4 12.5 4c1.15 0 2.25.238 3.3.713a7.617 7.617 0 012.7 2.037V4h2v7h-7V9h4.2a5.837 5.837 0 00-2.187-2.2A5.93 5.93 0 0012.5 6c-1.667 0-3.083.583-4.25 1.75C7.083 8.917 6.5 10.333 6.5 12c0 1.667.583 3.083 1.75 4.25C9.417 17.417 10.833 18 12.5 18a5.863 5.863 0 003.475-1.1A5.81 5.81 0 0018.15 14h2.1c-.467 1.767-1.417 3.208-2.85 4.325S14.333 20 12.5 20z"/></svg>