<svg xmlns="http://www.w3.org/2000/svg" width="25" height="24" viewBox="0 0 25 24"><path d="M11.5 17h2v-6h-2v6zm1-8a.968.968 0 00.713-.288A.967.967 0 0013.5 8a.97.97 0 00-.287-.713A.97.97 0 0012.5 7a.967.967 0 00-.712.287A.968.968 0 0011.5 8c0 .283.096.52.288.712A.965.965 0 0012.5 9zm0 13a9.733 9.733 0 01-3.9-.788 10.092 10.092 0 01-3.175-2.137c-.9-.9-1.612-1.958-2.137-3.175A9.733 9.733 0 012.5 12a9.74 9.74 0 01.788-3.9 10.092 10.092 0 012.137-3.175c.9-.9 1.958-1.613 3.175-2.138A9.743 9.743 0 0112.5 2a9.74 9.74 0 013.9.787 10.105 10.105 0 013.175 2.138c.9.9 1.612 1.958 2.137 3.175A9.733 9.733 0 0122.5 12a9.733 9.733 0 01-.788 3.9 10.092 10.092 0 01-2.137 3.175c-.9.9-1.958 1.612-3.175 2.137a9.733 9.733 0 01-3.9.788zm0-2c2.233 0 4.125-.775 5.675-2.325 1.55-1.55 2.325-3.442 2.325-5.675 0-2.233-.775-4.125-2.325-5.675C16.625 4.775 14.733 4 12.5 4c-2.233 0-4.125.775-5.675 2.325C5.275 7.875 4.5 9.767 4.5 12c0 2.233.775 4.125 2.325 5.675C8.375 19.225 10.267 20 12.5 20z"/></svg>