<svg xmlns="http://www.w3.org/2000/svg" width="24" height="25" fill="none" viewBox="0 0 24 25">
  <path fill="#6C6F80" fill-rule="evenodd" d="M12 2.41c-5.52 0-10 4.478-10 10 0 5.52 4.48 10 10 10 5.51 0 10-4.48 10-10 0-5.522-4.49-10-10-10Zm6.605 4.609a8.502 8.502 0 0 1 1.93 5.314c-.281-.054-3.101-.629-5.943-.271-.065-.14-.12-.293-.184-.445a25.608 25.608 0 0 0-.564-1.236c3.145-1.28 4.577-3.124 4.761-3.362ZM12 3.884c2.17 0 4.154.814 5.662 2.148-.152.217-1.443 1.941-4.48 3.08-1.399-2.57-2.95-4.675-3.189-5A8.686 8.686 0 0 1 12 3.884Zm-3.633.803a53.897 53.897 0 0 1 3.167 4.935c-3.992 1.063-7.517 1.04-7.896 1.04a8.581 8.581 0 0 1 4.729-5.975ZM3.453 12.42v-.26c.37.01 4.512.065 8.775-1.215.25.477.477.965.694 1.453-.109.033-.228.065-.336.098-4.404 1.42-6.747 5.304-6.942 5.629a8.522 8.522 0 0 1-2.19-5.705ZM12 20.956a8.482 8.482 0 0 1-5.239-1.8c.152-.315 1.888-3.656 6.703-5.337.022-.01.033-.01.054-.022a35.305 35.305 0 0 1 1.822 6.475 8.4 8.4 0 0 1-3.34.684Zm4.761-1.464c-.086-.521-.542-3.016-1.659-6.085 2.679-.423 5.022.271 5.314.369a8.469 8.469 0 0 1-3.655 5.716Z" clip-rule="evenodd"/>
</svg>
