<svg xmlns="http://www.w3.org/2000/svg" width="24" height="25" fill="none" viewBox="0 0 24 25">
  <path fill="#6C6F80" fill-rule="evenodd" d="M8.22 3.41h7.56c2.88 0 5.22 2.34 5.22 5.22v7.56a5.22 5.22 0 0 1-5.22 5.22H8.22C5.34 21.41 3 19.07 3 16.19V8.63a5.22 5.22 0 0 1 5.22-5.22Zm-.18 1.8A3.24 3.24 0 0 0 4.8 8.45v7.92a3.238 3.238 0 0 0 3.24 3.24h7.92a3.24 3.24 0 0 0 3.24-3.24V8.45a3.238 3.238 0 0 0-3.24-3.24H8.04Zm8.685 1.35a1.125 1.125 0 1 1 0 2.25 1.125 1.125 0 0 1 0-2.25ZM12 7.91a4.5 4.5 0 1 1 0 9 4.5 4.5 0 0 1 0-9Zm0 1.8a2.7 2.7 0 1 0 0 5.399 2.7 2.7 0 0 0 0-5.4Z" clip-rule="evenodd"/>
</svg>
