<svg xmlns="http://www.w3.org/2000/svg" width="24" height="25" fill="none" viewBox="0 0 24 25">
  <path fill="#6C6F80" d="M19.188 9.212a2.193 2.193 0 0 0 2.187-2.199c0-1.214-.98-2.199-2.187-2.199A2.193 2.193 0 0 0 17 7.013c0 1.214.98 2.199 2.188 2.199Z"/>
  <path fill="#6C6F80" fill-rule="evenodd" d="M18.534 16.753v-5.97a.944.944 0 0 0-.936-.943h3.465c.514 0 .937.425.937.942v4.673c-.001 1.724-1.413 3.143-3.129 3.143-.216 0-.43-.023-.642-.067l-.02-.005c.21-.552.325-1.15.325-1.773Zm-7.368-9.426H2.833A.84.84 0 0 0 2 8.165v8.375c0 .46.376.838.833.838h8.333A.84.84 0 0 0 12 16.54V8.165a.84.84 0 0 0-.833-.838ZM7.62 10.453h1.869V9.215H4.513v1.238h1.879v5.038h1.227v-5.038Z" clip-rule="evenodd"/>
  <path fill="#6C6F80" fill-rule="evenodd" d="M9.989 7.327h2.086a.84.84 0 0 1 .833.838v.824a2.926 2.926 0 0 0 2.634-2.918 2.924 2.924 0 0 0-2.917-2.932 2.924 2.924 0 0 0-2.917 2.932c0 .45.1.875.28 1.256Zm-2.126 10.96a4.532 4.532 0 0 0 .437.976 4.997 4.997 0 0 0 4.328 2.512c2.741 0 4.997-2.267 4.997-5.022v-5.97a.944.944 0 0 0-.936-.943h-3.78v7.61a.84.84 0 0 1-.834.837H7.863Z" clip-rule="evenodd"/>
</svg>
