<svg width="36" height="36" viewBox="0 0 36 36" fill="none" xmlns="http://www.w3.org/2000/svg">
<path fill-rule="evenodd" clip-rule="evenodd" d="M7.70616 9.96748L2.86861 5.12993L5.13135 2.86719L33.1313 30.8672L30.8686 33.1299L25.5624 27.8237C23.2632 29.1141 20.7011 30 18 30C8.05887 30 0 18 0 18C0 18 3.0475 13.4622 7.70616 9.96748ZM11.326 13.5873C10.488 14.8522 10 16.3691 10 18C10 22.4183 13.5817 26 18 26C19.6309 26 21.1478 25.512 22.4127 24.674L19.4628 21.7241C19.0097 21.9022 18.5163 22 18 22C15.7909 22 14 20.2091 14 18C14 17.4837 14.0978 16.9903 14.2759 16.5372L11.326 13.5873Z" fill="#6C6F80"/>
<path d="M16.903 10.0746L13.5867 6.75833C14.9988 6.28152 16.4773 6 18 6C27.9411 6 36 18 36 18C36 18 34.0068 20.9679 30.7802 23.9518L25.9254 19.097C25.9746 18.7384 26 18.3722 26 18C26 13.5817 22.4183 10 18 10C17.6278 10 17.2616 10.0254 16.903 10.0746Z" fill="#6C6F80"/>
</svg>
