<svg xmlns="http://www.w3.org/2000/svg" width="36" height="36" fill="none" viewBox="0 0 36 36">
  <path fill="#6C6F80" d="M13.5 30a2.888 2.888 0 0 1-2.118-.88A2.89 2.89 0 0 1 10.5 27c0-.825.294-1.532.882-2.12A2.888 2.888 0 0 1 13.5 24c.825 0 1.531.294 2.12.88.586.588.88 1.295.88 2.12 0 .825-.294 1.532-.88 2.12a2.893 2.893 0 0 1-2.12.88Zm9 0a2.888 2.888 0 0 1-2.118-.88A2.89 2.89 0 0 1 19.5 27c0-.825.294-1.532.882-2.12A2.888 2.888 0 0 1 22.5 24c.825 0 1.532.294 2.12.88.586.588.88 1.295.88 2.12 0 .825-.294 1.532-.88 2.12a2.893 2.893 0 0 1-2.12.88Zm-9-9a2.885 2.885 0 0 1-2.118-.882A2.885 2.885 0 0 1 10.5 18c0-.825.294-1.532.882-2.12A2.888 2.888 0 0 1 13.5 15c.825 0 1.531.293 2.12.88.586.588.88 1.295.88 2.12 0 .825-.294 1.531-.88 2.118A2.89 2.89 0 0 1 13.5 21Zm9 0a2.885 2.885 0 0 1-2.118-.882A2.885 2.885 0 0 1 19.5 18c0-.825.294-1.532.882-2.12A2.888 2.888 0 0 1 22.5 15c.825 0 1.532.293 2.12.88.586.588.88 1.295.88 2.12 0 .825-.294 1.531-.88 2.118A2.89 2.89 0 0 1 22.5 21Zm-9-9a2.885 2.885 0 0 1-2.118-.882A2.885 2.885 0 0 1 10.5 9c0-.825.294-1.531.882-2.118A2.885 2.885 0 0 1 13.5 6a2.89 2.89 0 0 1 2.12.882c.586.587.88 1.293.88 2.118s-.294 1.531-.88 2.118A2.89 2.89 0 0 1 13.5 12Zm9 0a2.885 2.885 0 0 1-2.118-.882A2.885 2.885 0 0 1 19.5 9c0-.825.294-1.531.882-2.118A2.885 2.885 0 0 1 22.5 6a2.89 2.89 0 0 1 2.12.882c.586.587.88 1.293.88 2.118s-.294 1.531-.88 2.118A2.89 2.89 0 0 1 22.5 12Z"/>
</svg>
