<svg xmlns="http://www.w3.org/2000/svg" width="36" height="36" fill="none" viewBox="0 0 36 36">
  <path fill="#6C6F80" fill-rule="evenodd" d="M17.985 3C9.705 3 3 9.72 3 18c0 8.28 6.705 15 14.985 15C26.28 33 33 26.28 33 18c0-8.28-6.72-15-15.015-15Zm10.395 9h-4.425a23.474 23.474 0 0 0-2.07-5.34A12.044 12.044 0 0 1 28.38 12ZM18 6.06A21.13 21.13 0 0 1 20.865 12h-5.73A21.13 21.13 0 0 1 18 6.06ZM6.39 21c-.24-.96-.39-1.965-.39-3s.15-2.04.39-3h5.07c-.12.99-.21 1.98-.21 3s.09 2.01.21 3H6.39Zm1.23 3h4.425a23.474 23.474 0 0 0 2.07 5.34A11.98 11.98 0 0 1 7.62 24Zm4.425-12H7.62a11.98 11.98 0 0 1 6.495-5.34 23.474 23.474 0 0 0-2.07 5.34ZM18 29.94A21.13 21.13 0 0 1 15.135 24h5.73A21.13 21.13 0 0 1 18 29.94ZM21.51 21h-7.02c-.135-.99-.24-1.98-.24-3s.105-2.025.24-3h7.02c.135.975.24 1.98.24 3s-.105 2.01-.24 3Zm.375 8.34c.9-1.665 1.59-3.465 2.07-5.34h4.425a12.044 12.044 0 0 1-6.495 5.34ZM24.54 21c.12-.99.21-1.98.21-3s-.09-2.01-.21-3h5.07c.24.96.39 1.965.39 3s-.15 2.04-.39 3h-5.07Z" clip-rule="evenodd"/>
</svg>
