<svg xmlns="http://www.w3.org/2000/svg" width="36" height="36" fill="none" viewBox="0 0 36 36">
  <path fill="#6C6F80" fill-rule="evenodd" d="M24 9h6a2.89 2.89 0 0 1 2.12.882c.587.587.88 1.293.88 2.118v16.5c0 .825-.294 1.532-.88 2.12a2.893 2.893 0 0 1-2.12.88H6a2.888 2.888 0 0 1-2.118-.88A2.89 2.89 0 0 1 3 28.5V12c0-.825.294-1.531.882-2.118A2.885 2.885 0 0 1 6 9h6V6c0-.825.294-1.532.882-2.12A2.888 2.888 0 0 1 15 3h6c.825 0 1.532.293 2.12.88.586.588.88 1.295.88 2.12v3Zm-9-3v3h6V6h-6Zm-8.998 6.005.003-.004.002-.001h23.988l.003.003.002.002v16.491l-.002.002-.002.002H6.006l-.003-.002L6 28.495V12.007l.002-.002Z" clip-rule="evenodd"/>
</svg>
