<svg width="36" height="36" viewBox="0 0 36 36" fill="none" xmlns="http://www.w3.org/2000/svg">
<path d="M18 22C20.2091 22 22 20.2091 22 18C22 15.7909 20.2091 14 18 14C15.7909 14 14 15.7909 14 18C14 20.2091 15.7909 22 18 22Z" fill="#6C6F80"/>
<path fill-rule="evenodd" clip-rule="evenodd" d="M36 18C36 18 27.9411 30 18 30C8.05887 30 0 18 0 18C0 18 8.05887 6 18 6C27.9411 6 36 18 36 18ZM26 18C26 22.4183 22.4183 26 18 26C13.5817 26 10 22.4183 10 18C10 13.5817 13.5817 10 18 10C22.4183 10 26 13.5817 26 18Z" fill="#6C6F80"/>
</svg>
