<svg xmlns="http://www.w3.org/2000/svg" width="36" height="36" fill="none" viewBox="0 0 36 36">
  <path fill="#6C6F80" d="M6 28.5v-3h3V15c0-2.075.625-3.919 1.875-5.532C12.125 7.856 13.75 6.8 15.75 6.3V5.25c0-.625.219-1.156.657-1.593A2.166 2.166 0 0 1 18 3c.625 0 1.156.219 1.593.657.438.437.657.968.657 1.593V6.3c2 .5 3.625 1.556 4.875 3.168C26.375 11.081 27 12.925 27 15v10.5h3v3H6ZM18 33a2.888 2.888 0 0 1-2.118-.88A2.89 2.89 0 0 1 15 30h6c0 .825-.294 1.532-.88 2.12A2.893 2.893 0 0 1 18 33Z"/>
</svg>
