<svg width="36" height="36" viewBox="0 0 36 36" fill="none" xmlns="http://www.w3.org/2000/svg">
<path d="M18 3C21.9782 3 25.7936 4.58035 28.6066 7.3934C31.4196 10.2064 33 14.0218 33 18C33 21.9782 31.4196 25.7936 28.6066 28.6066C25.7936 31.4196 21.9782 33 18 33C14.0218 33 10.2064 31.4196 7.3934 28.6066C4.58035 25.7936 3 21.9782 3 18C3 14.0218 4.58035 10.2064 7.3934 7.3934C10.2064 4.58035 14.0218 3 18 3V3ZM18 5.5C16.3585 5.5 14.733 5.82332 13.2165 6.45151C11.6999 7.07969 10.3219 8.00043 9.16117 9.16117C6.81696 11.5054 5.5 14.6848 5.5 18C5.5 21 6.5625 23.75 8.325 25.9125L25.9125 8.325C23.75 6.5625 21 5.5 18 5.5ZM18 30.5C21.3152 30.5 24.4946 29.183 26.8388 26.8388C29.183 24.4946 30.5 21.3152 30.5 18C30.5 15 29.4375 12.25 27.675 10.0875L10.0875 27.675C12.25 29.4375 15 30.5 18 30.5Z" fill="#6C6F80"/>
</svg>
