<svg width="36" height="36" viewBox="0 0 36 36" fill="none" xmlns="http://www.w3.org/2000/svg">
<path d="M21.6634 9.71398C18.5727 8.25964 15.1321 7.7147 11.7433 8.1428C8.35456 8.5709 5.15754 9.95437 2.5257 12.1316L5.07539 15.2137C7.12238 13.5203 9.60895 12.4442 12.2447 12.1113C14.8804 11.7783 17.5564 12.2021 19.9602 13.3333C21.2518 13.941 22.436 14.7395 23.4763 15.6961L17.9998 21.1726L11.9998 15.1726L2.58563 24.5868L5.41406 27.4152L11.9998 20.8294L17.9998 26.8294L26.0144 18.8149C27.3122 20.9848 27.9993 23.4679 27.9993 26.0009H31.9993C31.9993 22.5852 31.0275 19.24 29.1972 16.356C29.1037 16.2087 29.0082 16.0629 28.9107 15.9186L33.4141 11.4152L30.5856 8.58679L26.3066 12.8658C24.9399 11.5852 23.3749 10.5193 21.6634 9.71398Z" fill="#6C6F80"/>
</svg>
