<svg xmlns="http://www.w3.org/2000/svg" width="36" height="36" fill="none" viewBox="0 0 36 36">
  <path fill="#6C6F80" fill-rule="evenodd" d="M30 30c.825 0 1.532-.294 2.12-.88.587-.588.88-1.295.88-2.12V9c0-.825-.294-1.531-.88-2.118A2.89 2.89 0 0 0 30 6H6c-.825 0-1.531.294-2.118.882A2.885 2.885 0 0 0 3 9v18c0 .825.294 1.532.882 2.12.587.586 1.293.88 2.118.88h24ZM6.005 9.002 6.007 9h23.988l.002.002L18 16.5 6.005 9.002ZM6 12.722v14.273l.003.003.002.002h23.991l.002-.002.002-.002V12.722l-12 7.5-12-7.5Z" clip-rule="evenodd"/>
</svg>
