<svg xmlns="http://www.w3.org/2000/svg" width="36" height="36" fill="none" viewBox="0 0 36 36">
  <path fill="#6C6F80" d="M18 7.394a7.5 7.5 0 1 1 10.607 10.607l-1.591 1.59a7.527 7.527 0 0 0-.442-3.803 4.5 4.5 0 0 0-6.453-6.273l-4.242 4.243a4.5 4.5 0 0 0-.106 6.255l.106.109-2.122 2.121a7.5 7.5 0 0 1 0-10.606L18 7.394Z"/>
  <path fill="#6C6F80" d="m7.394 18 1.484-1.484a7.526 7.526 0 0 0 .446 3.81 4.5 4.5 0 0 0 6.555 6.16l4.243-4.243A4.5 4.5 0 0 0 18.88 15l2.197-2.197a7.5 7.5 0 0 1 1.167 11.561L18 28.608A7.5 7.5 0 0 1 7.394 18.001Z"/>
</svg>
