<svg xmlns="http://www.w3.org/2000/svg" width="36" height="36" fill="none" viewBox="0 0 36 36">
  <path fill="#6C6F80" d="M20.122 9.515a4.5 4.5 0 1 1 6.364 6.364l-3.182 3.182 2.121 2.122L28.607 18A7.5 7.5 0 1 0 18 7.394l-3.182 3.182 2.122 2.121 3.182-3.182Z"/>
  <path fill="#6C6F80" d="M24.365 13.758 13.758 24.365l-2.121-2.121 10.606-10.607 2.122 2.121Z"/>
  <path fill="#6C6F80" d="m12.697 16.94-3.182 3.182a4.5 4.5 0 1 0 6.364 6.364l3.182-3.182 2.122 2.122L18 28.607A7.5 7.5 0 1 1 7.394 18.001l3.182-3.182 2.121 2.121Z"/>
</svg>
