<svg xmlns="http://www.w3.org/2000/svg" width="36" height="36" fill="none" viewBox="0 0 36 36">
  <path fill="#6C6F80" fill-rule="evenodd" d="M10.56 14.834 7.394 18a7.5 7.5 0 1 0 10.607 10.606l3.165-3.166 8.535 8.534 2.1-2.1-27.6-27.6-2.1 2.1 8.459 8.46Zm2.121 2.121 2.122 2.122-3.166 3.165 2.121 2.122 3.166-3.166 2.121 2.12-3.166 3.167a4.5 4.5 0 1 1-6.364-6.364l3.166-3.166Z" clip-rule="evenodd"/>
  <path fill="#6C6F80" d="M26.486 9.514a4.5 4.5 0 0 0-6.364 0l-3.182 3.182-2.122-2.121L18 7.393a7.5 7.5 0 1 1 10.607 10.606l-3.182 3.182-2.121-2.121 3.182-3.182a4.5 4.5 0 0 0 0-6.364Z"/>
  <path fill="#6C6F80" d="m22.243 11.636-3.166 3.166 2.122 2.12 3.166-3.165-2.122-2.121Z"/>
</svg>
