<svg width="36" height="36" viewBox="0 0 36 36" fill="none" xmlns="http://www.w3.org/2000/svg">
<path d="M16.8943 32.9527C16.3662 32.7944 16 32.2693 16 31.6701V22H10.2152C9.77866 22 9.3757 21.7438 9.15948 21.3289C8.94333 20.914 8.94714 20.4041 9.16944 19.993L17.7391 3.65249C18.018 3.13692 18.5776 2.88924 19.1057 3.04721C19.6337 3.20544 20 3.73058 20 4.32975V14H25.7848C26.2213 14 26.6243 14.2562 26.8405 14.6711C27.0567 15.086 27.0529 15.5959 26.8306 16.007L18.2609 32.3475C17.9826 32.8621 17.4237 33.1112 16.8943 32.9527Z" fill="#6C6F80"/>
</svg>
