<svg xmlns="http://www.w3.org/2000/svg" width="36" height="36" fill="none" viewBox="0 0 36 36">
  <path fill="#6C6F80" fill-rule="evenodd" d="M6 15.75A2.247 2.247 0 0 0 3.75 18 2.247 2.247 0 0 0 6 20.25 2.247 2.247 0 0 0 8.25 18 2.247 2.247 0 0 0 6 15.75Zm0-9A2.247 2.247 0 0 0 3.75 9 2.247 2.247 0 0 0 6 11.25 2.247 2.247 0 0 0 8.25 9 2.247 2.247 0 0 0 6 6.75Zm0 18A2.257 2.257 0 0 0 3.75 27c0 1.23 1.02 2.25 2.25 2.25S8.25 28.23 8.25 27 7.245 24.75 6 24.75Zm4.5 3.75h21v-3h-21v3Zm0-9h21v-3h-21v3Zm0-12v3h21v-3h-21Z" clip-rule="evenodd"/>
</svg>
