<svg xmlns="http://www.w3.org/2000/svg" width="36" height="36" fill="none" viewBox="0 0 36 36">
  <path fill="#6C6F80" fill-rule="evenodd" d="m24.27 29.4-3.015-5.22a6.722 6.722 0 0 0 2.7-4.68H30c-.255 4.14-2.475 7.74-5.73 9.9ZM19.5 10.545V4.5c6.45.39 11.61 5.55 12 12h-6.045a6.732 6.732 0 0 0-5.955-5.955Zm-9 8.205c0 .96.195 1.875.57 2.7l-5.22 3.015A12.63 12.63 0 0 1 4.5 18.75c0-6.795 5.31-12.345 12-12.75v6.045a6.745 6.745 0 0 0-6 6.705Zm6.75 12.75A12.67 12.67 0 0 1 6.6 25.77l5.22-3.015a6.704 6.704 0 0 0 5.43 2.745c.96 0 1.875-.195 2.7-.57l3.015 5.22a12.63 12.63 0 0 1-5.715 1.35Z" clip-rule="evenodd"/>
</svg>
