<svg xmlns="http://www.w3.org/2000/svg" width="36" height="36" fill="none" viewBox="0 0 36 36">
  <path fill="#6C6F80" fill-rule="evenodd" d="M31.5 28.5v-3h-21v3h21Zm0-9v-3h-21v3h21Zm-21-9h21v-3h-21v3Zm-6-3v3h3v-3h-3ZM3 7.5A1.5 1.5 0 0 1 4.5 6h3A1.5 1.5 0 0 1 9 7.5v3A1.5 1.5 0 0 1 7.5 12h-3A1.5 1.5 0 0 1 3 10.5v-3Zm1.5 9v3h3v-3h-3Zm-1.5 0A1.5 1.5 0 0 1 4.5 15h3A1.5 1.5 0 0 1 9 16.5v3A1.5 1.5 0 0 1 7.5 21h-3A1.5 1.5 0 0 1 3 19.5v-3Zm1.5 9v3h3v-3h-3Zm-1.5 0A1.5 1.5 0 0 1 4.5 24h3A1.5 1.5 0 0 1 9 25.5v3A1.5 1.5 0 0 1 7.5 30h-3A1.5 1.5 0 0 1 3 28.5v-3Z" clip-rule="evenodd"/>
</svg>
