<svg width="36" height="36" viewBox="0 0 36 36" fill="none" xmlns="http://www.w3.org/2000/svg">
<path fill-rule="evenodd" clip-rule="evenodd" d="M0.968628 32.647C0.343791 33.2718 0.343791 34.2848 0.968628 34.9098C1.59346 35.5346 2.60654 35.5346 3.23138 34.9098L27.24 10.9012C28.6644 12.9186 29.5 15.3772 29.5 18.0322C29.5 24.8894 23.945 30.4412 17.1 30.4412C16.2163 30.4412 15.5 31.1576 15.5 32.0412C15.5 32.9248 16.2163 33.6412 17.1 33.6412C25.7134 33.6412 32.7 26.6556 32.7 18.0322C32.7 14.495 31.5178 11.2289 29.5292 8.61202L34.9098 3.23138C35.5346 2.60654 35.5346 1.59347 34.9098 0.968629C34.285 0.343791 33.2718 0.34379 32.647 0.968628L7.60342 26.0122C5.79054 23.8544 4.7 21.0728 4.7 18.0322C4.7 11.1944 10.2537 5.64126 17.1 5.64126C17.9837 5.64126 18.7 4.9249 18.7 4.04126C18.7 3.1576 17.9837 2.44126 17.1 2.44126C8.48802 2.44126 1.5 9.42542 1.5 18.0322C1.5 21.9548 2.94746 25.541 5.33394 28.2816L0.968628 32.647Z" fill="#6C6F80"/>
</svg>
