<svg xmlns="http://www.w3.org/2000/svg" width="36" height="36" fill="none" viewBox="0 0 36 36">
  <path fill="#6C6F80" fill-rule="evenodd" d="m31.284 7.469-2.162-2.613A2.258 2.258 0 0 0 27.333 4H8.667c-.731 0-1.37.327-1.805.856L4.716 7.469A3.046 3.046 0 0 0 4 9.444V28.89A3.12 3.12 0 0 0 7.111 32H28.89A3.12 3.12 0 0 0 32 28.889V9.444c0-.746-.264-1.446-.716-1.975ZM18 26.556 9.444 18h5.445v-3.111h6.222V18h5.445L18 26.556ZM7.298 7.11l1.26-1.555h18.666l1.463 1.555H7.297Z" clip-rule="evenodd"/>
</svg>
