<svg width="36" height="36" viewBox="0 0 36 36" fill="none" xmlns="http://www.w3.org/2000/svg">
<path d="M8.2875 13.9313L5.1 24.8063C5.0914 24.832 5.08675 24.8578 5.08242 24.8818C5.07731 24.9102 5.07265 24.9359 5.0625 24.9562V10.3125C5.0625 9.075 6.075 8.0625 7.3125 8.0625H13.5L16.1437 10.5H26.0812C26.9625 10.5 27.6 12.1687 27.8438 12.9375H9.46875C8.94375 12.9375 8.45625 13.3312 8.2875 13.9313Z" fill="#6C6F80"/>
<path d="M10.3187 16L6.9125 26.0437C6.63125 27.0187 7.23125 28.0312 8.09375 28.0312H26.6625C27.2063 28.0312 27.675 27.6187 27.8438 27L30.4687 16.9562C30.7312 16 30.1313 15.0062 29.2875 15.0062H11.5C10.975 15.0062 10.4875 15.4 10.3187 16Z" fill="#6C6F80"/>
</svg>
