<svg width="36" height="36" viewBox="0 0 36 36" fill="none" xmlns="http://www.w3.org/2000/svg">
<path d="M18 3C15.2152 3 12.5445 4.10625 10.5754 6.07538C8.60625 8.04451 7.5 10.7152 7.5 13.5C7.5 17.07 9.285 20.205 12 22.11V25.5C12 25.8978 12.158 26.2794 12.4393 26.5607C12.7206 26.842 13.1022 27 13.5 27H22.5C22.8978 27 23.2794 26.842 23.5607 26.5607C23.842 26.2794 24 25.8978 24 25.5V22.11C26.715 20.205 28.5 17.07 28.5 13.5C28.5 10.7152 27.3938 8.04451 25.4246 6.07538C23.4555 4.10625 20.7848 3 18 3V3ZM13.5 31.5C13.5 31.8978 13.658 32.2794 13.9393 32.5607C14.2206 32.842 14.6022 33 15 33H21C21.3978 33 21.7794 32.842 22.0607 32.5607C22.342 32.2794 22.5 31.8978 22.5 31.5V30H13.5V31.5Z" fill="#6C6F80"/>
</svg>
