<svg xmlns="http://www.w3.org/2000/svg" width="36" height="36" fill="none" viewBox="0 0 36 36">
  <path fill="#6C6F80" d="M28.561 28.562h-4.445v-6.961c0-1.66-.03-3.797-2.311-3.797-2.316 0-2.67 1.808-2.67 3.676v7.082H14.69V14.246h4.267v1.957h.06a4.677 4.677 0 0 1 4.21-2.313c4.506 0 5.336 2.963 5.336 6.819l-.002 7.853ZM9.675 12.289a2.58 2.58 0 1 1-.001-5.158 2.58 2.58 0 0 1 0 5.158Zm2.222 16.273h-4.45V14.246h4.45v14.316Zm18.88-25.56H5.215A2.19 2.19 0 0 0 3 5.164v25.671A2.19 2.19 0 0 0 5.214 33h25.564A2.195 2.195 0 0 0 33 30.835V5.163A2.194 2.194 0 0 0 30.777 3v.002Z"/>
</svg>
