<svg xmlns="http://www.w3.org/2000/svg" width="36" height="36" fill="none" viewBox="0 0 36 36">
  <path fill="#6C6F80" d="M28.781 13.204a3.29 3.29 0 0 0 3.282-3.298 3.29 3.29 0 0 0-3.282-3.298A3.29 3.29 0 0 0 25.5 9.906a3.29 3.29 0 0 0 3.281 3.298Z"/>
  <path fill="#6C6F80" fill-rule="evenodd" d="M27.801 24.516V15.56c0-.775-.634-1.414-1.404-1.414h5.197c.771 0 1.406.638 1.406 1.414v7.009c-.002 2.586-2.12 4.714-4.693 4.714a4.73 4.73 0 0 1-.964-.1l-.03-.008a7.465 7.465 0 0 0 .488-2.66ZM16.75 10.377H4.25c-.686 0-1.25.567-1.25 1.256v12.564c0 .69.564 1.256 1.25 1.256h12.5c.685 0 1.249-.567 1.249-1.256V11.633c0-.689-.564-1.256-1.25-1.256Zm-5.321 4.688h2.802V13.21H6.77v1.856h2.818v7.558h1.841v-7.558Z" clip-rule="evenodd"/>
  <path fill="#6C6F80" fill-rule="evenodd" d="M14.983 10.377h3.13c.686 0 1.25.567 1.25 1.256v1.237a4.39 4.39 0 0 0 3.95-4.377c0-2.429-1.959-4.398-4.375-4.398-2.417 0-4.376 1.969-4.376 4.398a4.4 4.4 0 0 0 .421 1.884Zm-3.189 16.44a6.801 6.801 0 0 0 .656 1.464 7.497 7.497 0 0 0 6.492 3.768c4.112 0 7.495-3.4 7.495-7.533V15.56c0-.775-.633-1.414-1.404-1.414h-5.67v11.415a1.26 1.26 0 0 1-1.25 1.256h-6.32Z" clip-rule="evenodd"/>
</svg>
