<svg width="36" height="36" viewBox="0 0 36 36" fill="none" xmlns="http://www.w3.org/2000/svg">
<path fill-rule="evenodd" clip-rule="evenodd" d="M4 8.4C3.11634 8.4 2.4 9.11634 2.4 10V26C2.4 26.8837 3.11634 27.6 4 27.6H32C32.8837 27.6 33.6 26.8837 33.6 26V10C33.6 9.11634 32.8837 8.4 32 8.4H4ZM0 10C0 7.79086 1.79086 6 4 6H32C34.2091 6 36 7.79086 36 10V26C36 28.2091 34.2091 30 32 30H4C1.79086 30 0 28.2091 0 26V10Z" fill="#6C6F80"/>
<path d="M7.1875 23.0006V12.5366H9.0915L12.3555 18.4246L13.4275 20.6486H13.4915C13.4488 20.1046 13.3955 19.5233 13.3315 18.9046C13.2782 18.2753 13.2515 17.6673 13.2515 17.0806V12.5366H15.0275V23.0006H13.1235L9.8595 17.1126L8.7875 14.8886H8.7235C8.76616 15.4433 8.81416 16.0246 8.8675 16.6326C8.9315 17.2406 8.9635 17.838 8.9635 18.4246V23.0006H7.1875Z" fill="#6C6F80"/>
<path d="M16.5515 25.5606L20.2796 11.6406H21.5274L17.7995 25.5606H16.5515Z" fill="#6C6F80"/>
<path d="M24.6908 17.4326L24.3228 18.7126H26.9948L26.6268 17.4326C26.4562 16.878 26.2908 16.3073 26.1308 15.7206C25.9816 15.134 25.8322 14.5526 25.6828 13.9766H25.6188C25.4696 14.5633 25.3202 15.15 25.1708 15.7366C25.0216 16.3126 24.8616 16.878 24.6908 17.4326ZM21.1868 23.0006L24.5948 12.5366H26.7708L30.1788 23.0006H28.2268L27.4108 20.1686H23.8908L23.0748 23.0006H21.1868Z" fill="#6C6F80"/>
</svg>
