<svg xmlns="http://www.w3.org/2000/svg" width="36" height="36" fill="none" viewBox="0 0 36 36">
  <path fill="#6C6F80" d="m15.984 24 3.892-13.5h1.302L17.287 24h-1.303ZM6 22.66V12.153h1.988l3.407 5.913 1.119 2.233h.067a79.64 79.64 0 0 0-.167-1.751 20.916 20.916 0 0 1-.084-1.832v-4.563h1.854V22.66h-1.988L8.79 16.747l-1.12-2.233h-.067c.045.557.095 1.14.15 1.751.068.61.1 1.21.1 1.8v4.596H6Z"/>
  <path fill="#6C6F80" fill-rule="evenodd" d="M24.171 12.152 20.613 22.66h1.971l.852-2.845h3.675l.851 2.845H30l-3.558-10.51h-2.271Zm-.284 6.202.384-1.285c.178-.557.345-1.125.501-1.704.167-.589.323-1.178.468-1.767h.067c.156.578.312 1.162.467 1.751.167.59.34 1.163.518 1.72l.384 1.285h-2.789Z" clip-rule="evenodd"/>
  <path fill="#6C6F80" fill-rule="evenodd" d="M1.5 9a3 3 0 0 1 3-3h27a3 3 0 0 1 3 3v18a3 3 0 0 1-3 3h-27a3 3 0 0 1-3-3V9Zm3-.75h27a.75.75 0 0 1 .75.75v18a.75.75 0 0 1-.75.75h-27a.75.75 0 0 1-.75-.75V9a.75.75 0 0 1 .75-.75Z" clip-rule="evenodd"/>
</svg>
