<svg xmlns="http://www.w3.org/2000/svg" width="36" height="36" fill="none" viewBox="0 0 36 36">
  <path fill="#6C6F80" d="M7.5 31.5a2.893 2.893 0 0 1-2.12-.88 2.893 2.893 0 0 1-.88-2.12v-6h3v6h21v-21h-21v6h-3v-6c0-.825.293-1.532.88-2.12A2.893 2.893 0 0 1 7.5 4.5h21c.825 0 1.532.293 2.12.88.586.588.88 1.295.88 2.12v21c0 .825-.294 1.532-.88 2.12a2.893 2.893 0 0 1-2.12.88h-21Z"/>
  <path fill="#6C6F80" d="m14.25 25.5 2.1-2.175-3.825-3.825H25.5v-3H12.525l3.825-3.825-2.1-2.175-7.5 7.5 7.5 7.5Z"/>
</svg>
