<svg width="36" height="36" viewBox="0 0 36 36" fill="none" xmlns="http://www.w3.org/2000/svg">
<path fill-rule="evenodd" clip-rule="evenodd" d="M4 8.4C3.11634 8.4 2.4 9.11634 2.4 10V26C2.4 26.8837 3.11634 27.6 4 27.6H32C32.8837 27.6 33.6 26.8837 33.6 26V10C33.6 9.11634 32.8837 8.4 32 8.4H4ZM0 10C0 7.79086 1.79086 6 4 6H32C34.2091 6 36 7.79086 36 10V26C36 28.2091 34.2091 30 32 30H4C1.79086 30 0 28.2091 0 26V10Z" fill="#6C6F80"/>
<path fill-rule="evenodd" clip-rule="evenodd" d="M21.2526 12.6662C21.7994 12.1194 22.6858 12.1194 23.2326 12.6662C23.7794 13.2129 23.7794 14.0993 23.2326 14.6461L19.9799 17.8988L23.2326 21.1514C23.7794 21.6982 23.7794 22.5846 23.2326 23.1314C22.6858 23.678 21.7994 23.678 21.2526 23.1314L18 19.8787L14.7473 23.1314C14.2006 23.678 13.3141 23.678 12.7674 23.1314C12.2207 22.5846 12.2207 21.6982 12.7674 21.1514L16.0201 17.8988L12.7674 14.6461C12.2207 14.0993 12.2207 13.2129 12.7674 12.6662C13.3141 12.1194 14.2006 12.1194 14.7473 12.6662L18 15.9189L21.2526 12.6662Z" fill="#6C6F80"/>
</svg>
