<svg width="36" height="36" viewBox="0 0 36 36" fill="none" xmlns="http://www.w3.org/2000/svg">
<path fill-rule="evenodd" clip-rule="evenodd" d="M26.462 11.2881C27.9256 13.1299 28.8 15.4596 28.8 17.9909C28.8 23.965 23.9608 28.8 18 28.8C15.4649 28.8 13.1327 27.9254 11.2893 26.4608L26.462 11.2881ZM24.1224 9.1022L9.10338 24.1212C7.90308 22.3796 7.2 20.268 7.2 17.9909C7.2 12.0376 12.0365 7.2 18 7.2C20.273 7.2 22.3822 7.90276 24.1224 9.1022ZM32 17.9909C32 10.2687 25.7292 4 18 4C10.2708 4 4 10.2687 4 17.9909C4 25.7312 10.2708 32 18 32C25.7292 32 32 25.7312 32 17.9909Z" fill="#6C6F80"/>
</svg>
