<svg xmlns="http://www.w3.org/2000/svg" width="36" height="36" fill="none" viewBox="0 0 36 36">
  <path fill="#6C6F80" d="M6.429 19.546H2.572a15.411 15.411 0 0 0 1.06 4.247l3.359-1.94a11.22 11.22 0 0 1-.562-2.307ZM8.764 5.492a15.469 15.469 0 0 0-3.042 2.982l3.358 1.94a11.955 11.955 0 0 1 1.616-1.573l-1.932-3.35Zm11.054-2.92V6.44c5.537.89 9.779 5.712 9.779 11.5 0 6.427-5.22 11.654-11.641 11.654-1.515 0-2.967-.291-4.3-.822l-1.93 3.35a15.403 15.403 0 0 0 6.224 1.307c8.54 0 15.466-6.932 15.466-15.482.013-7.924-5.934-14.452-13.598-15.375ZM16.094 6.44V2.572a15.36 15.36 0 0 0-4.097 1.08l1.938 3.356a11.796 11.796 0 0 1 2.159-.568ZM3.815 11.672a15.542 15.542 0 0 0-1.18 4.152H6.51c.139-.771.36-1.51.644-2.218l-3.34-1.934Zm4.968 13.441-3.345 1.934a15.664 15.664 0 0 0 3.087 3.178l1.938-3.361a12.583 12.583 0 0 1-1.68-1.75Z"/>
</svg>
