<svg width="36" height="36" viewBox="0 0 36 36" fill="none" xmlns="http://www.w3.org/2000/svg">
<path fill-rule="evenodd" clip-rule="evenodd" d="M18.0045 3C17.5903 3 17.2545 3.33578 17.2545 3.75V6.75C17.2545 7.16422 17.5903 7.5 18.0045 7.5C18.4188 7.5 18.7545 7.16422 18.7545 6.75V3.75C18.7545 3.33578 18.4188 3 18.0045 3ZM10.4596 17.4222C10.4596 13.2361 13.8525 9.84326 18.0386 9.84326C22.2246 9.84326 25.6176 13.2361 25.6176 17.4222C25.6176 20.1144 24.2404 21.7738 22.8068 23.501C21.9984 24.4752 21.1722 25.4708 20.5648 26.6854H15.5123C14.9049 25.4708 14.0787 24.4752 13.2703 23.501C11.8368 21.7738 10.4596 20.1144 10.4596 17.4222ZM18.0386 16.5801V12.3696L14.6702 18.2643H18.0386V22.4748L21.407 16.5801H18.0386ZM15.5123 29.2116V28.3696H20.5648V29.2116C20.5648 30.1422 19.8305 30.7874 18.8807 30.8958C18.8807 30.8958 18.4573 30.9462 17.9922 30.9462C17.5271 30.9462 17.1965 30.8958 17.1965 30.8958C16.2254 30.6856 15.5123 30.1422 15.5123 29.2116ZM7.69302 9.84086C7.3171 9.6669 7.15338 9.22114 7.32734 8.84522C7.5013 8.46932 7.94706 8.3056 8.32298 8.47956L11.0456 9.73946C11.4215 9.91342 11.5852 10.3592 11.4113 10.7351C11.2373 11.111 10.7915 11.2747 10.4156 11.1008L7.69302 9.84086ZM27.9112 8.8457C27.7374 8.46978 27.2916 8.30604 26.9156 8.47998L24.193 9.73976C23.817 9.9137 23.6534 10.3595 23.8272 10.7354C24.0012 11.1113 24.447 11.275 24.8228 11.1011L27.5456 9.84132C27.9214 9.66738 28.0852 9.22164 27.9112 8.8457Z" fill="#6C6F80"/>
</svg>
