<svg xmlns="http://www.w3.org/2000/svg" width="36" height="36" fill="none" viewBox="0 0 36 36">
  <path fill="#6C6F80" fill-rule="evenodd" d="M11.25 9.75A3.754 3.754 0 0 1 7.5 13.5a3.754 3.754 0 0 1-3.75-3.75A3.754 3.754 0 0 1 7.5 6a3.754 3.754 0 0 1 3.75 3.75ZM9 9.75c0-.827-.673-1.5-1.5-1.5S6 8.923 6 9.75s.673 1.5 1.5 1.5S9 10.577 9 9.75Zm12.75 0A3.754 3.754 0 0 1 18 13.5a3.754 3.754 0 0 1-3.75-3.75A3.754 3.754 0 0 1 18 6a3.754 3.754 0 0 1 3.75 3.75Zm-2.25 0c0-.827-.673-1.5-1.5-1.5s-1.5.673-1.5 1.5.673 1.5 1.5 1.5 1.5-.673 1.5-1.5Zm9 3.75a3.754 3.754 0 0 0 3.75-3.75A3.754 3.754 0 0 0 28.5 6a3.754 3.754 0 0 0-3.75 3.75 3.754 3.754 0 0 0 3.75 3.75Zm0-5.25c.827 0 1.5.673 1.5 1.5s-.673 1.5-1.5 1.5-1.5-.673-1.5-1.5.673-1.5 1.5-1.5Z" clip-rule="evenodd"/>
  <path fill="#6C6F80" d="M24.75 18.75A3.754 3.754 0 0 1 28.5 15a3.754 3.754 0 0 1 3.75 3.75v3.375a1.125 1.125 0 0 1-2.25 0V18.75c0-.827-.673-1.5-1.5-1.5s-1.5.673-1.5 1.5v7.5A3.754 3.754 0 0 1 23.25 30a3.754 3.754 0 0 1-3.75-3.75v-7.5c0-.827-.673-1.5-1.5-1.5s-1.5.673-1.5 1.5v7.875h-.02A3.755 3.755 0 0 1 12.75 30 3.754 3.754 0 0 1 9 26.25v-7.5c0-.827-.673-1.5-1.5-1.5s-1.5.673-1.5 1.5v3.375a1.125 1.125 0 0 1-2.25 0v-3.75h.02A3.755 3.755 0 0 1 7.5 15a3.754 3.754 0 0 1 3.75 3.75v7.5c0 .827.673 1.5 1.5 1.5s1.5-.673 1.5-1.5v-7.5A3.754 3.754 0 0 1 18 15a3.754 3.754 0 0 1 3.75 3.75v7.5c0 .827.673 1.5 1.5 1.5s1.5-.673 1.5-1.5v-7.5Z"/>
</svg>
