<svg width="36" height="36" viewBox="0 0 36 36" fill="none" xmlns="http://www.w3.org/2000/svg">
<path d="M11.9466 7.82057C11.949 7.82409 11.9514 7.82761 11.9538 7.83116L14.3782 11.4133L22.9588 11.4151C23.2279 11.4151 23.4819 11.481 23.7064 11.5978C24.2373 11.7525 24.6808 12.1807 24.8356 12.7682C24.8362 12.7704 24.8367 12.7727 24.8373 12.7749L26.9449 20.9104C27.1756 21.8011 26.6609 22.7156 25.7936 22.956C24.9308 23.1951 24.0425 22.6715 23.8094 21.7865C23.8088 21.7843 23.8082 21.7821 23.8076 21.7799L23.3804 20.1356L21.3238 31.6103C21.1794 32.4154 20.4951 33 19.697 33H17.5721C16.7776 33 16.0954 32.4206 15.9471 31.6201L12.8771 15.0533L9.29329 9.75802C8.77915 8.99855 8.95837 7.95587 9.6947 7.42253C10.4237 6.89461 11.4319 7.07281 11.9466 7.82057ZM18.2327 3C20.2507 3 21.8866 4.69205 21.8866 6.7793C21.8866 8.86655 20.2507 10.5586 18.2327 10.5586C16.2147 10.5586 14.5788 8.86655 14.5788 6.7793C14.5788 4.69205 16.2147 3 18.2327 3Z" fill="#6C6F80"/>
</svg>
