<svg xmlns="http://www.w3.org/2000/svg" width="36" height="36" fill="none" viewBox="0 0 36 36">
  <path fill="#6C6F80" d="m11.947 8.648.007.01 2.424 3.583 8.58.002c.27 0 .524.065.748.182.531.155.975.583 1.13 1.17l.001.007 2.108 8.136c.23.89-.284 1.805-1.151 2.045-.863.24-1.752-.284-1.985-1.169l-.001-.007-.428-1.644-2.056 10.647c-.145.805-.829 1.39-1.627 1.39h-2.125c-.794 0-1.477-.58-1.625-1.38l-3.07-15.74-3.584-5.295a1.711 1.711 0 0 1 .402-2.335 1.59 1.59 0 0 1 2.252.398ZM18.233 3c2.018 0 3.654 1.692 3.654 3.78 0 2.087-1.636 3.779-3.654 3.779s-3.654-1.692-3.654-3.78C14.579 4.692 16.215 3 18.233 3Z"/>
</svg>
