<svg width="36" height="36" viewBox="0 0 36 36" fill="none" xmlns="http://www.w3.org/2000/svg">
<path d="M6.92309 6.00002H16.0769C16.5867 6.00002 17 6.41328 17 6.9231V16.0769C17 16.5868 16.5867 17 16.0769 17H6.92309C6.41326 17 6 16.5868 6 16.0769L6 6.9231C6 6.41328 6.41326 6.00002 6.92309 6.00002Z" fill="#6C6F80"/>
<path d="M19.9231 6L29.0769 6.00002C29.5867 6.00002 30 6.41328 30 6.9231V16.0769C30 16.5868 29.5867 17 29.0769 17L19.9231 17C19.4133 17 19 16.5867 19 16.0769V6.92308C19 6.41326 19.4133 6 19.9231 6Z" fill="#6C6F80"/>
<path d="M16.0769 19H6.92309C6.41326 19 6 19.4133 6 19.9231V29.0769C6 29.5868 6.41326 30 6.92309 30H16.0769C16.5867 30 17 29.5868 17 29.0769V19.9231C17 19.4133 16.5867 19 16.0769 19Z" fill="#6C6F80"/>
<path d="M19.9231 19H29.0769C29.5867 19 30 19.4133 30 19.9231V29.0769C30 29.5868 29.5867 30 29.0769 30H19.9231C19.4133 30 19 29.5868 19 29.0769V19.9231C19 19.4133 19.4133 19 19.9231 19Z" fill="#6C6F80"/>
</svg>
