<?xml version="1.0" encoding="UTF-8"?>
<svg width="350px" height="300px" viewBox="0 0 600 480" version="1.1" xmlns="http://www.w3.org/2000/svg" xmlns:xlink="http://www.w3.org/1999/xlink">
    <title>UUI Logo@1x</title>
    <defs>
        <linearGradient x1="28.6083908%" y1="88.008125%" x2="73.7914454%" y2="10.6570508%" id="linearGradient-1">
            <stop stop-color="#467EC0" offset="0%"></stop>
            <stop stop-color="#1B9AD2" offset="49.1568917%"></stop>
            <stop stop-color="#41C3DE" offset="100%"></stop>
        </linearGradient>
    </defs>
    <g id="UUI-Logo" stroke="none" stroke-width="1" fill="none" fill-rule="evenodd">
        <rect x="0" y="0" width="600" height="480"></rect>
        <g id="Miscellaneous/Logotypes/colored/UUI" transform="translate(160.000000, 36.000000)">
            <rect id="area" x="0" y="0" width="280" height="280"></rect>
            <path d="M245,145.833333 L245,198.333333 L140,256.666667 L35,198.333333 L35,145.833333 L61.25,159.833333 L61.25,182.888125 L140,226.638125 L218.75,182.886667 L218.75,159.833333 L245,145.833333 Z M140,93.3333333 L183.75,116.666667 L183.75,163.333333 L140,186.666667 L96.25,163.333333 L96.25,116.666667 L140,93.3333333 Z M140,23.3333333 L245,81.6666667 L245,116.666667 L218.75,130.666667 L218.75,97.111875 L140,53.3604167 L61.25,97.1104167 L61.25,130.666667 L35,116.666667 L35,81.6666667 L140,23.3333333 Z" id="Shape" fill="url(#linearGradient-1)"></path>
        </g>
        <path d="M144.16,420.864 C151.072,420.864 157.264,418.344 160.72,413.448 C162.952,410.28 164.248,405.888 164.248,401.064 L164.248,374.712 L170.584,374.712 L170.584,369.168 L150.64,369.168 L150.64,374.712 L157.048,374.712 L157.048,400.92 C157.048,404.232 156.328,407.04 155.104,409.128 C153.016,412.584 148.984,414.456 144.16,414.456 C139.264,414.456 135.304,412.584 133.216,409.272 C131.92,407.184 131.272,404.304 131.272,400.992 L131.272,374.712 L137.68,374.712 L137.68,369.168 L117.664,369.168 L117.664,374.712 L124.072,374.712 L124.072,401.064 C124.072,405.96 125.08,410.208 127.456,413.448 C130.912,418.128 136.96,420.864 144.16,420.864 Z M194.704,420 L194.704,414.6 L188.944,414.6 L188.944,403.08 C188.944,395.808 193.768,389.112 201.112,389.112 C206.944,389.112 207.952,393.144 207.952,398.256 L207.952,420 L220.696,420 L220.696,414.6 L214.936,414.6 L214.936,396.672 C214.936,387.384 211.192,382.704 202.84,382.704 C193.624,382.704 189.376,389.616 188.656,391.56 L188.512,391.56 C188.512,391.56 188.728,390.624 188.728,389.472 L188.728,387.6 C188.728,384.936 187.288,383.568 184.12,383.568 L175.912,383.568 L175.912,388.968 L180.376,388.968 C181.384,388.968 181.96,389.472 181.96,390.552 L181.96,414.6 L176.272,414.6 L176.272,420 L194.704,420 Z M238.768,376.296 L238.768,369.168 L231.424,369.168 L231.424,376.296 L238.768,376.296 Z M244.312,420 L244.312,414.6 L238.552,414.6 L238.552,383.568 L225.52,383.568 L225.52,388.968 L231.568,388.968 L231.568,414.6 L225.88,414.6 L225.88,420 L244.312,420 Z M269.44,420 L269.44,414.6 L262.744,414.6 L262.744,388.968 L280.528,388.968 L280.528,414.6 L274.768,414.6 L274.768,420 L293.2,420 L293.2,414.6 L287.512,414.6 L287.512,383.568 L262.744,383.568 L262.744,381.624 C262.744,375.072 267.28,374.424 269.584,374.424 C271.24,374.424 272.176,374.64 272.176,374.64 L272.176,368.88 C272.176,368.88 270.808,368.664 268.864,368.664 C264.544,368.664 255.76,370.104 255.76,381.768 L255.76,383.568 L249.712,383.568 L249.712,388.968 L255.76,388.968 L255.76,414.6 L250.072,414.6 L250.072,420 L269.44,420 Z M287.656,376.296 L287.656,369.168 L280.312,369.168 L280.312,376.296 L287.656,376.296 Z M317.68,420.864 C326.392,420.864 331.864,415.824 331.864,415.824 L328.984,410.712 C328.984,410.712 324.448,414.816 318.112,414.816 C311.632,414.816 305.944,410.496 305.512,402.432 L332.152,402.432 C332.152,402.432 332.368,400.704 332.368,399.768 C332.368,390.336 326.968,382.704 316.6,382.704 C306.232,382.704 298.384,390.192 298.384,401.784 C298.384,412.584 306.232,420.864 317.68,420.864 Z M325.168,397.968 L305.8,397.968 C306.808,391.848 311.128,388.248 316.456,388.248 C321.064,388.248 324.952,391.56 325.168,397.968 Z M354.328,420.864 C363.408597,420.864 366.458051,414.019669 366.632017,413.611053 L366.64,413.592 L366.64,413.592 L366.784,413.592 C366.784,413.592 366.568,414.312 366.568,415.536 L366.568,416.04 C366.568,418.416 367.864,420 371.104,420 L378.376,420 L378.376,414.6 L374.704,414.6 C373.696,414.6 373.12,414.096 373.12,413.016 L373.12,369.168 L360.088,369.168 L360.088,374.568 L366.136,374.568 L366.136,386.088 C366.136,387.672 366.352,388.824 366.352,388.824 L366.208,388.824 C366.208,388.824 363.256,382.704 354.976,382.704 C345.184,382.704 338.416,390.192 338.416,401.784 C338.416,413.088 344.536,420.864 354.328,420.864 Z M355.84,414.816 C349.792,414.816 345.544,409.704 345.544,401.784 C345.544,393.504 350.224,388.824 356.056,388.824 C362.968,388.824 366.352,395.16 366.352,401.856 C366.352,410.928 361.24,414.816 355.84,414.816 Z M427.408,420.864 C434.32,420.864 440.512,418.344 443.968,413.448 C446.2,410.28 447.496,405.888 447.496,401.064 L447.496,374.712 L453.832,374.712 L453.832,369.168 L433.888,369.168 L433.888,374.712 L440.296,374.712 L440.296,400.92 C440.296,404.232 439.576,407.04 438.352,409.128 C436.264,412.584 432.232,414.456 427.408,414.456 C422.512,414.456 418.552,412.584 416.464,409.272 C415.168,407.184 414.52,404.304 414.52,400.992 L414.52,374.712 L420.928,374.712 L420.928,369.168 L400.912,369.168 L400.912,374.712 L407.32,374.712 L407.32,401.064 C407.32,405.96 408.328,410.208 410.704,413.448 C414.16,418.128 420.208,420.864 427.408,420.864 Z M479.824,420 L479.824,414.384 L473.416,414.384 L473.416,374.712 L479.824,374.712 L479.824,369.168 L459.88,369.168 L459.88,374.712 L466.216,374.712 L466.216,414.384 L459.88,414.384 L459.88,420 L479.824,420 Z" id="UnifiedUI" fill="#FFFFFF" fill-rule="nonzero"></path>
    </g>
</svg>