<?xml version="1.0" encoding="UTF-8"?>
<svg width="150px" height="8px" viewBox="0 0 150 8" version="1.1" xmlns="http://www.w3.org/2000/svg" xmlns:xlink="http://www.w3.org/1999/xlink">
    <!-- Generator: Sketch 52.5 (67469) - http://www.bohemiancoding.com/sketch -->
    <title>Yellow line</title>
    <desc>Created with Sketch.</desc>
    <defs>
        <linearGradient x1="3.23062819%" y1="0%" x2="100%" y2="0%" id="linearGradient-line-yellow-1">
            <stop stop-color="#FAB309" offset="0%"></stop>
            <stop stop-color="#FBE600" offset="50.5719866%"></stop>
            <stop stop-color="#FAB309" offset="100%"></stop>
        </linearGradient>
    </defs>
    <g id="Symbols" stroke="none" stroke-width="1" fill="none" fill-rule="evenodd">
        <g id="criteria/grade/not_good" transform="translate(-5.000000, -6.000000)">
            <g id="radio" transform="translate(4.000000, -19.000000)">
                <g id="Yellow-line" transform="translate(0.000000, 25.000000)">
                    <g id="Group-2">
                        <g id="Group">
                            <rect id="gray_base" fill="#E5E5E5" x="4" y="3" width="143" height="2"></rect>
                            <circle id="Oval-2" stroke-opacity="0" stroke="#FFFFFF" stroke-width="2" fill-opacity="0" fill="#FFFFFF" cx="148" cy="4" r="3"></circle>
                            <path d="M4,7 C2.34314575,7 1,5.65685425 1,4 C1,2.34314575 2.34314575,1 4,1 C5.65685425,1 7,2.34314575 7,4 C7,5.65685425 5.65685425,7 4,7 Z M40,7 C38.3431458,7 37,5.65685425 37,4 C37,2.34314575 38.3431458,1 40,1 C41.6568542,1 43,2.34314575 43,4 C43,5.65685425 41.6568542,7 40,7 Z M76,7 C74.3431458,7 73,5.65685425 73,4 C73,2.34314575 74.3431458,1 76,1 C77.6568542,1 79,2.34314575 79,4 C79,5.65685425 77.6568542,7 76,7 Z M148,7 C146.343146,7 145,5.65685425 145,4 C145,2.34314575 146.343146,1 148,1 C149.656854,1 151,2.34314575 151,4 C151,5.65685425 149.656854,7 148,7 Z M112,7 C110.343146,7 109,5.65685425 109,4 C109,2.34314575 110.343146,1 112,1 C113.656854,1 115,2.34314575 115,4 C115,5.65685425 113.656854,7 112,7 Z" id="base" fill="#E5E5E5"></path>
                            <circle id="Oval-2" stroke-opacity="0" stroke="#FFFFFF" stroke-width="2" fill-opacity="0" fill="#FFFFFF" cx="4" cy="4" r="3"></circle>
                        </g>
                    </g>
                    <g id="Group" transform="translate(36.000000, 0.000000)">
                        <rect id="gradient_line" fill="url(#linearGradient-line-yellow-1)" x="4" y="3" width="36" height="2"></rect>
                        <circle id="base" stroke="#FAB309" stroke-width="2" fill="#FFFFFF" cx="40" cy="4" r="3"></circle>
                        <circle id="base" stroke="#FAB309" stroke-width="2" fill="#FFFFFF" cx="4" cy="4" r="3"></circle>
                    </g>
                </g>
            </g>
        </g>
    </g>
</svg>