<svg width="36" height="36" viewBox="0 0 36 36" fill="none" xmlns="http://www.w3.org/2000/svg">
<path fill-rule="evenodd" clip-rule="evenodd" d="M9 12H22.5V9C22.5 7.75 22.0625 6.6875 21.1875 5.8125C20.3125 4.9375 19.25 4.5 18 4.5C16.75 4.5 15.6875 4.9375 14.8125 5.8125C14.7591 5.86588 14.7074 5.91996 14.6572 5.97474L12.5371 3.85458C12.5886 3.80031 12.641 3.74645 12.6945 3.693C14.1565 2.231 15.925 1.5 18 1.5C20.075 1.5 21.844 2.231 23.307 3.693C24.769 5.156 25.5 6.925 25.5 9V12H27C27.825 12 28.5315 12.2935 29.1195 12.8805C29.7065 13.4685 30 14.175 30 15V30C30 30.825 29.7065 31.5315 29.1195 32.1195C28.5315 32.7065 27.825 33 27 33H9C8.175 33 7.469 32.7065 6.882 32.1195C6.294 31.5315 6 30.825 6 30V15C6 14.175 6.294 13.4685 6.882 12.8805C7.469 12.2935 8.175 12 9 12ZM18 25.5C18.825 25.5 19.5315 25.2065 20.1195 24.6195C20.7065 24.0315 21 23.325 21 22.5C21 21.675 20.7065 20.9685 20.1195 20.3805C19.5315 19.7935 18.825 19.5 18 19.5C17.175 19.5 16.469 19.7935 15.882 20.3805C15.294 20.9685 15 21.675 15 22.5C15 23.325 15.294 24.0315 15.882 24.6195C16.469 25.2065 17.175 25.5 18 25.5Z" fill="#07A956"/>
<path fill-rule="evenodd" clip-rule="evenodd" d="M9 12H22.5V9C22.5 7.75 22.0625 6.6875 21.1875 5.8125C20.3125 4.9375 19.25 4.5 18 4.5C16.75 4.5 15.6875 4.9375 14.8125 5.8125C14.7591 5.86588 14.7074 5.91996 14.6572 5.97474L12.5371 3.85458C12.5886 3.80031 12.641 3.74645 12.6945 3.693C14.1565 2.231 15.925 1.5 18 1.5C20.075 1.5 21.844 2.231 23.307 3.693C24.769 5.156 25.5 6.925 25.5 9V12H27C27.825 12 28.5315 12.2935 29.1195 12.8805C29.7065 13.4685 30 14.175 30 15V30C30 30.825 29.7065 31.5315 29.1195 32.1195C28.5315 32.7065 27.825 33 27 33H9C8.175 33 7.469 32.7065 6.882 32.1195C6.294 31.5315 6 30.825 6 30V15C6 14.175 6.294 13.4685 6.882 12.8805C7.469 12.2935 8.175 12 9 12ZM18 25.5C18.825 25.5 19.5315 25.2065 20.1195 24.6195C20.7065 24.0315 21 23.325 21 22.5C21 21.675 20.7065 20.9685 20.1195 20.3805C19.5315 19.7935 18.825 19.5 18 19.5C17.175 19.5 16.469 19.7935 15.882 20.3805C15.294 20.9685 15 21.675 15 22.5C15 23.325 15.294 24.0315 15.882 24.6195C16.469 25.2065 17.175 25.5 18 25.5Z" fill="url(#paint0_linear_2796_49878)" fill-opacity="0.6"/>
<defs>
<linearGradient id="paint0_linear_2796_49878" x1="18" y1="1.5" x2="18" y2="33" gradientUnits="userSpaceOnUse">
<stop stop-color="white" stop-opacity="0"/>
<stop offset="1" stop-color="#3E467B"/>
</linearGradient>
</defs>
</svg>
