<?xml version="1.0" encoding="UTF-8"?>
<svg width="192px" height="192px" viewBox="0 0 192 192" version="1.1" xmlns="http://www.w3.org/2000/svg" xmlns:xlink="http://www.w3.org/1999/xlink">
    <title>Other/logo/colored/adaptation</title>
    <defs>
        <linearGradient x1="30.6843964%" y1="88.008125%" x2="71.4825413%" y2="10.6570508%" id="linearGradient-1">
            <stop stop-color="#467EC0" offset="0%"></stop>
            <stop stop-color="#1B9AD2" offset="49.1568917%"></stop>
            <stop stop-color="#41C3DE" offset="100%"></stop>
        </linearGradient>
    </defs>
    <g id="Other/logo/colored/adaptation" stroke="none" stroke-width="1" fill="none" fill-rule="evenodd">
        <rect id="area" opacity="0" x="0" y="0" width="192" height="192"></rect>
        <path d="M93.3563,61.3661 C94.4623,59.1551 97.6183,59.1551 98.7233,61.3661 L98.7233,61.3661 L102.7963,96.4271 C103.1063,99.0941 106.4953,100.0421 108.1443,97.9221 L108.1443,97.9221 L120.7223,81.7501 C122.0643,80.0241 124.5673,79.4701 126.3493,80.7341 C128.2203,82.0611 128.5913,84.6641 127.1973,86.4561 L127.1973,86.4561 L114.0023,103.4221 C108.2073,110.8731 105.5693,120.3021 106.6593,129.6781 L106.6593,129.6781 L112.0403,176.0001 L80.0403,176.0001 L85.4213,129.6781 C86.5103,120.3021 83.8733,110.8731 78.0783,103.4221 L78.0783,103.4221 L64.8833,86.4561 C63.4893,84.6641 63.8593,82.0611 65.7303,80.7341 C67.5123,79.4701 70.0153,80.0241 71.3573,81.7501 L71.3573,81.7501 L83.9353,97.9221 C85.5853,100.0421 88.9733,99.0941 89.2843,96.4271 L89.2843,96.4271 Z M120.9435,128.5913 C121.1455,127.4493 122.1935,126.8433 123.2845,127.2413 L123.2845,127.2413 L127.6255,128.8203 C130.4495,129.8483 132.5125,132.8233 132.5545,135.9273 L132.5545,135.9273 L132.6505,142.9863 C132.6715,144.5353 131.2275,145.3693 129.8965,144.5763 L129.8965,144.5763 L123.8305,140.9643 C121.1635,139.3763 119.6195,136.1013 120.1405,133.1413 L120.1405,133.1413 Z M71.1368,128.5913 L71.9398,133.1413 C72.4608,136.1013 70.9168,139.3763 68.2498,140.9643 L62.1838,144.5763 C60.8528,145.3693 59.4088,144.5353 59.4298,142.9863 L59.5248,135.9273 C59.5668,132.8233 61.6308,129.8483 64.4548,128.8203 L68.7958,127.2413 C69.8868,126.8433 70.9348,127.4493 71.1368,128.5913 Z M149.9649,100.33181 C154.3829,100.3129 158.2199,103.3019 159.2729,107.5829 L159.2729,107.5829 L164.7139,123.2139 C165.4329,126.1359 162.8039,128.7649 159.8819,128.0459 L159.8819,128.0459 L144.2509,122.6049 C139.9699,121.5519 136.9809,117.7149 136.99981,113.2969 L136.99981,113.2969 L137.0399,104.3439 C137.0499,102.1509 138.8199,100.3819 141.0119,100.3719 L141.0119,100.3719 Z M42.8692,100.33181 L51.8222,100.3719 C54.0142,100.3819 55.7842,102.1509 55.7942,104.3439 L55.8342901,113.2969 C55.8532,117.7149 52.8642,121.5519 48.5832,122.6049 L32.9522,128.0459 C30.0302,128.7649 27.4012,126.1359 28.1192,123.2139 L33.5612,107.5829 C34.6142,103.3019 38.4522,100.3129 42.8692,100.33181 Z M35.2153,80.9628 C37.9243,79.4468 41.5323,79.7468 43.8353,81.6798 L43.8353,81.6798 L47.3733,84.6488 C48.2623,85.3948 48.2623,86.6058 47.3733,87.3518 L47.3733,87.3518 L43.8353,90.3198 C41.5323,92.2528 37.9243,92.5528 35.2153,91.0368 L35.2153,91.0368 L29.0543,87.5898 C27.7023,86.8338 27.7023,85.1658 29.0543,84.4098 L29.0543,84.4098 Z M156.8654,80.9628 L163.0264,84.4098 C164.3784,85.1658 164.3784,86.8338 163.0264,87.5898 L156.8654,91.0368 C154.1554,92.5528 150.5474,92.2528 148.2454,90.3198 L144.7074,87.3518 C143.8174,86.6058 143.8174,85.3948 144.7074,84.6488 L148.2454,81.6798 C150.5474,79.7468 154.1554,79.4468 156.8654,80.9628 Z M159.7139,49.1186 L154.2729,64.7486 C153.2199,69.0306 149.3829,72.0196 144.9649,71.9996998 L136.0119,71.9596 C133.8199,71.9506 132.0499,70.1806 132.0399,67.9886 L131.99981,59.0356 C131.9809,54.6176 134.9699,50.7806 139.2509,49.7276 L154.8819,44.2856 C157.8039,43.5676 160.4329,46.1966 159.7139,49.1186 Z M32.2423,48.9526 C31.5243,46.0306 34.1533,43.4016 37.0753,44.1196 L37.0753,44.1196 L52.7063,49.5616 C56.9873,50.6146 59.9763,54.4516 59.9573901,58.8696 L59.9573901,58.8696 L59.9173,67.8226 C59.9073,70.0146 58.1373,71.7846 55.9453,71.7936 L55.9453,71.7936 L46.9923,71.8336998 C42.5753,71.8536 38.7373,68.8646 37.6843,64.5826 L37.6843,64.5826 Z M92.6231,17.9307 C94.1821,15.3567 97.8981,15.3567 99.4571,17.9307 L99.4571,17.9307 L106.6621,32.8307 C108.9451,36.6027 108.3451,41.4307 105.2071,44.5397 L105.2071,44.5397 L98.8491,50.8427 C97.2911,52.3857 94.7891,52.3857 93.2311,50.8427 L93.2311,50.8427 L86.8731,44.5397 C83.7351,41.4307 83.1351,36.6027 85.4181,32.8307 L85.4181,32.8307 Z M59.4298,28.1328 C59.4088,26.5838 60.8528,25.7498 62.1838,26.5428 L62.1838,26.5428 L68.2498,30.1548 C70.9168,31.7428 72.4608,35.0178 71.9398,37.9778 L71.9398,37.9778 L71.1368,42.5268 C70.9348,43.6698 69.8868,44.2748 68.7958,43.8778 L68.7958,43.8778 L64.4548,42.2988 C61.6308,41.2708 59.5668,38.2968 59.5248,35.1918 L59.5248,35.1918 Z M132.6505,28.1328 L132.5545,35.1918 C132.5125,38.2968 130.4495,41.2708 127.6255,42.2988 L123.2845,43.8778 C122.1935,44.2748 121.1455,43.6698 120.9435,42.5268 L120.1405,37.9778 C119.6195,35.0178 121.1635,31.7428 123.8305,30.1548 L129.8965,26.5428 C131.2275,25.7498 132.6715,26.5838 132.6505,28.1328 Z" id="Logo" fill="url(#linearGradient-1)"></path>
    </g>
</svg>