<svg width="42" height="42" viewBox="0 0 42 42" fill="none" xmlns="http://www.w3.org/2000/svg">
    <path d="M14 30C13.45 30 12.9792 29.8042 12.5875 29.4125C12.1958 29.0208 12 28.55 12 28V14C12 13.45 12.1958 12.9792 12.5875 12.5875C12.9792 12.1958 13.45 12 14 12H28C28.55 12 29.0208 12.1958 29.4125 12.5875C29.8042 12.9792 30 13.45 30 14V28C30 28.55 29.8042 29.0208 29.4125 29.4125C29.0208 29.8042 28.55 30 28 30H14ZM14 17.325H28V14H14V17.325ZM14 22.675H28V19.325H14V22.675ZM14 28H28V24.675H14V28ZM15 16.65V14.65H17V16.65H15ZM15 22V20H17V22H15ZM15 27.35V25.35H17V27.35H15Z" fill="#EBEDF5"/>
</svg>
