<?xml version="1.0" encoding="UTF-8"?>
<svg width="192px" height="192px" viewBox="0 0 192 192" version="1.1" xmlns="http://www.w3.org/2000/svg" xmlns:xlink="http://www.w3.org/1999/xlink">
    <title>Other/logo/colored/assessment</title>
    <defs>
        <linearGradient x1="29.303406%" y1="88.008125%" x2="73.0184593%" y2="10.6570508%" id="linearGradient-1">
            <stop stop-color="#467EC0" offset="0%"></stop>
            <stop stop-color="#1B9AD2" offset="49.1568917%"></stop>
            <stop stop-color="#41C3DE" offset="100%"></stop>
        </linearGradient>
    </defs>
    <g id="Other/logo/colored/assessment" stroke="none" stroke-width="1" fill="none" fill-rule="evenodd">
        <rect id="area" fill="#FFFFFF" opacity="0" x="0" y="0" width="192" height="192"></rect>
        <path d="M95.866,15.9995 C100.841,15.9995 104.889,20.0465 104.889,25.0205 C104.889,26.9985 104.26,28.8765 103.07,30.4515 L102.873,30.7045 C102.807,30.7845 102.73,30.8475 102.657,30.9165 C102.648,30.9255 102.647,30.9385 102.638,30.9485 C102.045,31.6045 101.72,32.4525 101.72,33.3395 C101.72,33.9265 101.863,34.4815 102.132,34.9935 C102.164,35.0415 102.203,35.0825 102.231,35.1325 L115.647,58.3695 C116.149,59.1305 116.899,59.6635 117.752,59.8985 L145.412,59.8985 C145.478,59.8915 145.539,59.8745 145.606,59.8735 C146.205,59.8585 146.775,59.6985 147.301,59.3945 C148.068,58.9525 148.64,58.2445 148.913,57.4015 C148.958,57.2625 149.019,57.1325 149.084,57.0055 L149.1,56.9575 C149.861,55.0845 151.19,53.5585 152.946,52.5425 C157.253,50.0585 162.784,51.5375 165.269,55.8435 C166.475,57.9295 166.794,60.3605 166.172,62.6895 C165.548,65.0165 164.055,66.9615 161.969,68.1675 C160.584,68.9665 159.051,69.3785 157.48,69.3785 C157.106,69.3785 156.731,69.3545 156.356,69.3085 C156.253,69.2965 156.133,69.2795 156.012,69.2595 C155.919,69.2445 155.834,69.2115 155.748,69.1865 C155.735,69.1845 155.724,69.1865 155.712,69.1825 C154.846,68.9995 153.949,69.1395 153.18,69.5835 C152.672,69.8775 152.261,70.2805 151.952,70.7675 C151.928,70.8195 151.912,70.8735 151.883,70.9225 L138.904,93.4045 C138.853,93.6535 138.776,93.8965 138.642,94.1275 C138.042,95.1655 138.001,96.4065 138.492,97.4925 L151.996,120.8775 C152.032,120.9305 152.079,120.9775 152.113,121.0335 C152.425,121.5465 152.85,121.9605 153.373,122.2605 C154.141,122.7075 155.041,122.8485 155.904,122.6615 C156.051,122.6305 156.197,122.6185 156.341,122.6135 C156.357,122.6115 156.369,122.6055 156.384,122.6035 C158.394,122.3195 160.376,122.7155 162.132,123.7245 C166.442,126.2135 167.92,131.7415 165.436,136.0505 C163.767,138.9405 160.728,140.5585 157.607,140.5585 C156.079,140.5585 154.531,140.1685 153.113,139.3525 C151.402,138.3655 150.088,136.8825 149.319,135.0645 L149.199,134.7645 C149.159,134.6645 149.139,134.5615 149.114,134.4595 C149.112,134.4535 149.107,134.4495 149.105,134.4445 C148.832,133.6005 148.26,132.8935 147.494,132.4525 C146.982,132.1555 146.427,132.0015 145.846,131.9795 C145.792,131.9835 145.738,131.9975 145.683,131.9975 L118.407,131.9975 C117.246,132.0725 116.185,132.6655 115.543,133.6555 C115.525,133.6835 115.496,133.7065 115.475,133.7365 L102.121,156.8665 C102.096,156.9115 102.058,156.9415 102.031,156.9845 C101.755,157.5025 101.611,158.0675 101.611,158.6625 C101.611,159.5465 101.936,160.3975 102.528,161.0515 C102.553,161.0795 102.56,161.1165 102.583,161.1425 C102.632,161.1925 102.693,161.2135 102.738,161.2695 L102.955,161.5415 C104.149,163.1265 104.777,165.0025 104.777,166.9785 C104.777,171.9545 100.73,175.9995 95.755,175.9995 C90.781,175.9995 86.735,171.9545 86.735,166.9785 C86.735,164.9525 87.392,163.0375 88.635,161.4395 C88.684,161.3755 88.744,161.3245 88.8,161.2665 C88.85,161.1975 88.869,161.1165 88.928,161.0515 C89.52,160.3975 89.845,159.5465 89.845,158.6625 C89.845,158.0555 89.7,157.4805 89.413,156.9545 C89.38,156.8965 89.365,156.8345 89.337,156.7765 L75.983,133.6455 C75.351,132.5775 74.238,131.8985 72.997,131.8355 C72.978,131.8345 72.961,131.8305 72.944,131.8285 L46.03,131.8285 C45.974,131.8285 45.922,131.8155 45.868,131.8105 C45.286,131.8335 44.731,131.9885 44.219,132.2825 C43.455,132.7245 42.882,133.4315 42.607,134.2775 C42.604,134.2835 42.6,134.2885 42.596,134.2965 C42.574,134.3905 42.558,134.4845 42.522,134.5795 L42.393,134.9015 C41.626,136.7095 40.316,138.1935 38.603,139.1845 C37.186,140.0025 35.635,140.3905 34.106,140.3905 C30.985,140.3905 27.946,138.7745 26.278,135.8835 C23.791,131.5755 25.273,126.0465 29.581,123.5595 C31.338,122.5455 33.324,122.1535 35.327,122.4365 C35.341,122.4385 35.354,122.4445 35.368,122.4465 C35.514,122.4495 35.662,122.4625 35.81,122.4945 C36.674,122.6805 37.573,122.5365 38.338,122.0945 C38.864,121.7905 39.29,121.3775 39.601,120.8675 C39.636,120.8075 39.682,120.7605 39.721,120.7075 L53.186,97.3845 C53.515,96.5925 53.574,95.7285 53.33,94.9215 L39.599,71.1375 C39.57,71.0885 39.554,71.0355 39.53,70.9855 C39.221,70.4955 38.812,70.0925 38.302,69.7965 C37.535,69.3565 36.639,69.2115 35.772,69.3985 C35.76,69.4015 35.747,69.3995 35.734,69.4035 C35.646,69.4285 35.561,69.4605 35.466,69.4745 L35.129,69.5235 C34.754,69.5695 34.377,69.5935 34.005,69.5935 C32.434,69.5935 30.899,69.1825 29.515,68.3825 C27.427,67.1785 25.935,65.2315 25.312,62.9045 C24.687,60.5755 25.008,58.1455 26.212,56.0585 C27.417,53.9715 29.362,52.4795 31.691,51.8565 C34.018,51.2295 36.448,51.5535 38.536,52.7555 C40.29,53.7695 41.621,55.2965 42.383,57.1705 C42.388,57.1855 42.39,57.2005 42.394,57.2125 C42.463,57.3415 42.526,57.4745 42.572,57.6185 C42.845,58.4605 43.416,59.1675 44.184,59.6105 C44.708,59.9135 45.279,60.0735 45.877,60.0895 C45.942,60.0915 46.003,60.1055 46.065,60.1125 L73.269,60.1125 C74.397,59.9555 75.394,59.3215 75.968,58.3255 C76.095,58.1055 76.258,57.9235 76.437,57.7615 L89.451,35.2175 C89.477,35.1615 89.493,35.1025 89.525,35.0455 C89.81,34.5185 89.957,33.9455 89.957,33.3395 C89.957,32.4525 89.63,31.6045 89.038,30.9485 C88.978,30.8825 88.958,30.8005 88.908,30.7305 C88.855,30.6725 88.795,30.6235 88.746,30.5605 C87.502,28.9625 86.845,27.0485 86.845,25.0205 C86.845,20.0465 90.893,15.9995 95.866,15.9995 Z M82.18,134.7545 L93.545,154.4425 L93.6143333,154.573204 C93.657,154.661278 93.693,154.750833 93.725,154.8395 C94.328,156.0175 94.657,157.3315 94.657,158.6625 C94.657,160.7115 93.907,162.6725 92.551,164.2045 C92.511,164.2685 92.477,164.3355 92.431,164.3965 C91.852,165.1405 91.545,166.0335 91.545,166.9785 C91.545,169.2995 93.435,171.1885 95.755,171.1885 C98.078,171.1885 99.965,169.2995 99.965,166.9785 C99.965,166.0565 99.673,165.1815 99.119,164.4465 C99.106,164.4305 99.102,164.4135 99.091,164.3965 C99.048,164.3555 98.999,164.3235 98.958,164.2785 C97.566,162.7375 96.799,160.7425 96.799,158.6625 C96.799,157.2635 97.152,155.8755 97.818,154.6545 C97.8513333,154.591167 97.8908889,154.533611 97.9316296,154.477685 L97.993,154.3945 L109.299,134.8125 L108.542,135.067463 C107.275333,135.480611 105.983667,135.8345 104.667,136.1245 L104.661875,136.138625 L104.661875,136.138625 L104.656,136.1505 L97.321,148.7865 L97.293,148.7865 L97.2222358,148.913602 C96.9195266,149.409376 96.3849231,149.7485 95.76,149.7485 C95.027,149.7485 94.525,149.3075 94.152,148.6535 C93.8936964,148.197786 89.7248858,140.886627 87.1915279,136.442031 L87.055,136.2025 L87.071,136.1795 L87.064,136.160625 L87.057,136.1425 C85.39,135.7785 83.762,135.3145 82.18,134.7545 Z M136.262,103.2525 C136.007833,104.680833 135.685611,106.087639 135.288968,107.464815 L135.042,108.2875 L142.318,120.9625 L142.305,120.9855 L142.385648,121.121698 C142.658764,121.63225 142.680917,122.25925 142.372,122.7955 C142.005,123.4305 141.373,123.6465 140.619,123.6415 C140.094536,123.639536 131.675747,123.59127 126.556871,123.559231 L126.281,123.5575 L125.690282,124.194782 C124.89319,125.035579 124.058838,125.840894 123.194634,126.612801 L122.541,127.1855 L145.619,127.1855 L145.736375,127.1705 L145.856,127.1615 L145.916,127.1615 L146.263811,127.17758 C147.537201,127.263333 148.786083,127.642833 149.898,128.2845 C151.696,129.3215 153.041,130.9815 153.682,132.9585 L153.696625,133.026 L153.696625,133.026 L153.709,133.0935 L153.753,133.1995 L153.855911,133.423343 C154.219975,134.157227 154.792455,134.766318 155.517,135.1845 C157.532,136.3495 160.107,135.6555 161.27,133.6455 C162.429,131.6335 161.738,129.0535 159.728,127.8925 C158.908,127.4205 157.975,127.2455 157.048,127.3685 C156.985,127.3755 156.923,127.3715 156.861,127.3745 C156.294,127.4925 155.724,127.5525 155.155,127.5525 C153.694,127.5525 152.251,127.1705 150.967,126.4285 C149.759,125.7325 148.735,124.7335 148.005,123.5415 C148,123.5325 147.999,123.5225 147.993,123.5145 L147.930625,123.43675 L147.930625,123.43675 L147.872,123.3575 L136.262,103.2525 Z M55.376,103.2095 L43.842,123.1885 L43.782375,123.2705 L43.719,123.3495 L43.707,123.3735 L43.5197957,123.66627 C42.810875,124.724938 41.8570833,125.618 40.747,126.2615 C39.461,127.0025 38.018,127.3855 36.558,127.3855 C35.991,127.3855 35.421,127.3255 34.857,127.2085 C34.792,127.2035 34.73,127.2095 34.664,127.2005 C33.731,127.0735 32.806,127.2545 31.984,127.7275 C29.975,128.8855 29.284,131.4675 30.445,133.4785 C31.604,135.4845 34.183,136.1745 36.196,135.0185 C36.9223636,134.5985 37.4941818,133.989244 37.8611165,133.245577 L37.965,133.0185 L37.995,132.9565 C38.01,132.9015 38.015,132.8465 38.032,132.7915 C38.672,130.8145 40.016,129.1555 41.815,128.1155 C43.028,127.4155 44.405,127.0285 45.797,126.9955 C45.867,126.992833 45.9343333,126.998167 46.0013704,127.005574 L46.102,127.0175 L68.914,127.0175 L68.2575648,126.435069 C67.3904907,125.649903 66.5564537,124.830292 65.7596019,123.975347 L65.169,123.3275 L51.103,123.2925 L51.09,123.2695 L50.9429381,123.271667 C50.3558994,123.256772 49.7897692,122.960038 49.475,122.4145 C49.106,121.7765 49.237,121.1155 49.621,120.4575 C49.884,120.0085 54.041,112.8975 56.656,108.4265 C56.118,106.7345 55.692,104.9915 55.376,103.2095 Z M95.825,59.7175 C89.267,59.7175 83.115,61.4755 77.8,64.5325 C77.683,64.6145 77.563,64.6825 77.434,64.7425 C66.738,71.0595 59.541,82.7025 59.541,95.9995 C59.541,116.0075 75.818,132.2825 95.825,132.2825 C102.303,132.2825 108.386,130.5665 113.658,127.5785 C113.862,127.4085 114.092,127.2805 114.336,127.1885 C124.966,120.8535 132.106,109.2485 132.106,95.9995 C132.106,75.9945 115.831,59.7175 95.825,59.7175 Z M95.823,70.8175 L102.417,87.2725 L119.945,88.5265 L106.496,99.9525 L110.731,117.1825 L95.823,107.7885 L80.915,117.1825 L85.146,99.9525 L71.697,88.5265 L89.224,87.2725 L95.823,70.8175 Z M30.379,58.4635 C29.816,59.4385 29.667,60.5745 29.959,61.6585 C30.249,62.7465 30.945,63.6535 31.92,64.2165 C32.719,64.6765 33.625,64.8625 34.536,64.7495 C34.559,64.7455 34.582,64.7475 34.606,64.7445 C34.66,64.7275 34.707,64.7055 34.764,64.6945 C36.795,64.2575 38.906,64.5895 40.707,65.6305 C41.919,66.3305 42.944,67.3295 43.671,68.5205 L43.744875,68.6625 L43.744875,68.6625 L43.809,68.8075 L55.369,88.8325 L55.5180029,88.0341122 C55.8311224,86.4426429 56.2347143,84.8835 56.725,83.3655 C54.116,78.9015 49.885,71.6665 49.621,71.2145 C49.237,70.5595 49.106,69.8965 49.475,69.2565 C49.7897692,68.7109615 50.3558994,68.4150799 50.9429381,68.4003161 L51.09,68.4025 L51.103,68.3795 L65.457,68.3445 L66.0154074,67.7444259 C66.7683704,66.9527963 67.5545185,66.1946481 68.3679259,65.4652407 L68.983,64.9235 L45.987,64.9235 L45.8512963,64.9182407 C45.7616667,64.9115 45.6736667,64.8988333 45.587,64.8835 C44.253,64.8225 42.939,64.4475 41.778,63.7775 C40.003,62.7535 38.68,61.1215 38.029,59.1825 C37.994,59.1145 37.952,59.0525 37.923,58.9795 C37.57,58.1075 36.95,57.3975 36.13,56.9245 C34.121,55.7635 31.54,56.4525 30.379,58.4635 Z M155.353,56.7075 C154.534,57.1805 153.912,57.8945 153.557,58.7675 C153.532,58.8315 153.492,58.8875 153.461,58.9485 C152.813,60.8955 151.484,62.5345 149.706,63.5625 C148.557,64.2245 147.262,64.5965 145.946,64.6645 C145.848667,64.6825 145.75,64.6965 145.649111,64.7038333 L145.496,64.7095 L122.417,64.7095 L123.071824,65.2774306 C124.153583,66.2347222 125.1865,67.2458333 126.159,68.3125 C126.258333,68.2825 126.359,68.2605 126.461,68.2467963 L126.615,68.2325 L126.625,68.2065 L126.900766,68.2049812 C131.738639,68.1783372 139.527914,68.1354491 140.804838,68.1283596 L140.959,68.1275 C141.715,68.1245 142.347,68.3375 142.714,68.9725 C143.02475,69.5105833 143.001069,70.1377361 142.729227,70.6475301 L142.649,70.7835 L142.66,70.8055 L135.383,83.4805 L135.29337,83.6092407 C135.229444,83.6922778 135.157667,83.7698333 135.081,83.8425 C135.467667,85.0925 135.78975,86.3695833 136.055931,87.667963 L136.209,88.4495 L147.674,68.5915 L147.738,68.447 L147.811,68.3055 C148.536,67.1175 149.559,66.1205 150.775,65.4175 C152.571,64.3795 154.685,64.0425 156.718,64.4775 C156.758,64.4855 156.793,64.5045 156.833,64.5145 C157.879,64.6415 158.769,64.4575 159.562,63.9995 C160.537,63.4385 161.235,62.5295 161.525,61.4435 C161.817,60.3575 161.666,59.2245 161.103,58.2495 C159.945,56.2375 157.36,55.5485 155.353,56.7075 Z M95.866,20.8115 C93.545,20.8115 91.657,22.6985 91.657,25.0205 C91.657,25.9655 91.962,26.8605 92.541,27.6045 C92.588,27.6645 92.619,27.7295 92.659,27.7905 C94.014,29.3235 94.767,31.2885 94.767,33.3395 C94.767,34.7025 94.427,36.0495 93.794,37.2495 L93.73025,37.405 L93.73025,37.405 L93.656,37.5575 L82.316,57.1985 L83.09575,56.9350324 C84.40075,56.5085278 85.7328333,56.1453333 87.092,55.8495 L87.11775,55.78325 L87.11775,55.78325 L87.145,55.7185 L87.129,55.6955 L87.2655786,55.4559153 C89.7998151,51.0103386 93.9666964,43.69825 94.225,43.2445 C94.599,42.5895 95.103,42.1485 95.834,42.1485 C96.4589231,42.1485 96.9935266,42.4876243 97.2978088,42.984185 L97.369,43.1115 L97.394,43.1115 L104.73,55.7475 L104.763875,55.82525 L104.794,55.9045 C106.114,56.2011667 107.410389,56.5575556 108.679694,56.9754028 L109.438,57.2335 L98.066,37.5385 L98.062,37.5285 L98.0168889,37.4692407 C97.9855556,37.4313889 97.9533333,37.3951667 97.93,37.3505 C97.261,36.1265 96.909,34.7395 96.909,33.3395 C96.909,31.2595 97.676,29.2645 99.069,27.7235 C99.088,27.7005 99.116,27.6945 99.134,27.6735 C99.157,27.6475 99.224,27.5595 99.229,27.5535 C99.784,26.8205 100.078,25.9435 100.078,25.0205 C100.078,22.6985 98.188,20.8115 95.866,20.8115 Z" id="Logo" fill="url(#linearGradient-1)"></path>
    </g>
</svg>