<svg xmlns="http://www.w3.org/2000/svg" width="56" height="55" fill="none" viewBox="0 0 56 55">
  <g filter="url(#a)">
    <path fill="#07A956" fill-rule="evenodd" d="M35.545 38.763a2.182 2.182 0 0 1 0-3.085l3.526-3.527a7.17 7.17 0 0 0 0-10.139l-3.526-3.526A2.182 2.182 0 1 1 38.63 15.4l5.069 5.07a9.351 9.351 0 0 1 0 13.224l-5.07 5.07a2.182 2.182 0 0 1-3.085 0Zm-14.547 0a2.182 2.182 0 0 0 0-3.085L17.47 32.15a7.17 7.17 0 0 1 0-10.139l3.527-3.526a2.182 2.182 0 1 0-3.086-3.086l-5.07 5.07a9.351 9.351 0 0 0 0 13.224l5.07 5.07a2.182 2.182 0 0 0 3.086 0Z" clip-rule="evenodd"/>
    <path fill="url(#b)" fill-opacity=".6" fill-rule="evenodd" d="M35.545 38.763a2.182 2.182 0 0 1 0-3.085l3.526-3.527a7.17 7.17 0 0 0 0-10.139l-3.526-3.526A2.182 2.182 0 1 1 38.63 15.4l5.069 5.07a9.351 9.351 0 0 1 0 13.224l-5.07 5.07a2.182 2.182 0 0 1-3.085 0Zm-14.547 0a2.182 2.182 0 0 0 0-3.085L17.47 32.15a7.17 7.17 0 0 1 0-10.139l3.527-3.526a2.182 2.182 0 1 0-3.086-3.086l-5.07 5.07a9.351 9.351 0 0 0 0 13.224l5.07 5.07a2.182 2.182 0 0 0 3.086 0Z" clip-rule="evenodd"/>
  </g>
  <defs>
    <linearGradient id="b" x1="28.271" x2="28.271" y1="13.857" y2="40.306" gradientUnits="userSpaceOnUse">
      <stop stop-color="#fff" stop-opacity=".24"/>
      <stop offset="1" stop-color="#3E467B"/>
    </linearGradient>
    <filter id="a" width="55.232" height="43.537" x=".656" y="10.037" color-interpolation-filters="sRGB" filterUnits="userSpaceOnUse">
      <feFlood flood-opacity="0" result="BackgroundImageFix"/>
      <feColorMatrix in="SourceAlpha" result="hardAlpha" values="0 0 0 0 0 0 0 0 0 0 0 0 0 0 0 0 0 0 127 0"/>
      <feOffset dy="1.575"/>
      <feGaussianBlur stdDeviation="2.362"/>
      <feColorMatrix values="0 0 0 0 0.113725 0 0 0 0 0.117647 0 0 0 0 0.14902 0 0 0 0.1 0"/>
      <feBlend in2="BackgroundImageFix" result="effect1_dropShadow_2427_47400"/>
      <feColorMatrix in="SourceAlpha" result="hardAlpha" values="0 0 0 0 0 0 0 0 0 0 0 0 0 0 0 0 0 0 127 0"/>
      <feOffset dy="4.724"/>
      <feGaussianBlur stdDeviation="4.724"/>
      <feColorMatrix values="0 0 0 0 0.113725 0 0 0 0 0.117647 0 0 0 0 0.14902 0 0 0 0.1 0"/>
      <feBlend in2="effect1_dropShadow_2427_47400" result="effect2_dropShadow_2427_47400"/>
      <feBlend in="SourceGraphic" in2="effect2_dropShadow_2427_47400" result="shape"/>
    </filter>
  </defs>
</svg>
