<svg width="25" height="24" viewBox="0 0 25 24" fill="none" xmlns="http://www.w3.org/2000/svg">
<path d="M11.25 22C10.7 22 10.2292 21.8042 9.8375 21.4125C9.44583 21.0208 9.25 20.55 9.25 20V16H6.25C5.7 16 5.22917 15.8042 4.8375 15.4125C4.44583 15.0208 4.25 14.55 4.25 14V7C4.25 5.9 4.64167 4.95833 5.425 4.175C6.20833 3.39167 7.15 3 8.25 3H20.25V14C20.25 14.55 20.0542 15.0208 19.6625 15.4125C19.2708 15.8042 18.8 16 18.25 16H15.25V20C15.25 20.55 15.0542 21.0208 14.6625 21.4125C14.2708 21.8042 13.8 22 13.25 22H11.25ZM6.25 10H18.25V5H17.25V9H15.25V5H14.25V7H12.25V5H8.25C7.7 5 7.22917 5.19583 6.8375 5.5875C6.44583 5.97917 6.25 6.45 6.25 7V10ZM6.25 14H18.25V12H6.25V14Z" fill="#773CEC"/>
<path d="M11.25 22C10.7 22 10.2292 21.8042 9.8375 21.4125C9.44583 21.0208 9.25 20.55 9.25 20V16H6.25C5.7 16 5.22917 15.8042 4.8375 15.4125C4.44583 15.0208 4.25 14.55 4.25 14V7C4.25 5.9 4.64167 4.95833 5.425 4.175C6.20833 3.39167 7.15 3 8.25 3H20.25V14C20.25 14.55 20.0542 15.0208 19.6625 15.4125C19.2708 15.8042 18.8 16 18.25 16H15.25V20C15.25 20.55 15.0542 21.0208 14.6625 21.4125C14.2708 21.8042 13.8 22 13.25 22H11.25ZM6.25 10H18.25V5H17.25V9H15.25V5H14.25V7H12.25V5H8.25C7.7 5 7.22917 5.19583 6.8375 5.5875C6.44583 5.97917 6.25 6.45 6.25 7V10ZM6.25 14H18.25V12H6.25V14Z" fill="url(#paint0_linear_2796_27242)" fill-opacity="0.6"/>
<defs>
<linearGradient id="paint0_linear_2796_27242" x1="12.25" y1="3" x2="12.25" y2="22" gradientUnits="userSpaceOnUse">
<stop stop-color="white" stop-opacity="0"/>
<stop offset="1" stop-color="#3E467B"/>
</linearGradient>
</defs>
</svg>
