<svg xmlns="http://www.w3.org/2000/svg" fill="none" viewBox="0 0 54 55">
  <g filter="url(#a)">
    <path fill="#7A53D6" d="M15.456 44.555c-1.421 0-2.826-.347-4.216-1.042a10.402 10.402 0 0 1-1.407-.844c-.918-.657-.345-2.192.554-2.875.853-.647 1.28-1.586 1.28-2.818 0-1.579.552-2.921 1.657-4.026 1.106-1.106 2.448-1.658 4.027-1.658 1.579 0 2.92.552 4.026 1.658 1.105 1.105 1.658 2.447 1.658 4.026 0 2.084-.742 3.868-2.227 5.353-1.484 1.484-3.268 2.226-5.352 2.226Zm0-3.79c1.042 0 1.934-.37 2.676-1.113.742-.742 1.113-1.634 1.113-2.676 0-.537-.181-.987-.544-1.35a1.837 1.837 0 0 0-1.35-.545c-.537 0-.987.182-1.35.545-.364.363-.545.813-.545 1.35a7.14 7.14 0 0 1-.26 1.99c-.128.44-.285.863-.472 1.27-.109.235-.001.53.258.53h.474Zm13.5-10.184a3.684 3.684 0 0 1-5.21-5.21l14.352-14.353c.347-.347.782-.529 1.303-.545.52-.015.97.166 1.35.545l2.558 2.558c.379.379.568.821.568 1.326 0 .506-.19.948-.569 1.327L28.957 30.58Z"/>
    <path fill="url(#b)" fill-opacity=".6" d="M15.456 44.555c-1.421 0-2.826-.347-4.216-1.042a10.402 10.402 0 0 1-1.407-.844c-.918-.657-.345-2.192.554-2.875.853-.647 1.28-1.586 1.28-2.818 0-1.579.552-2.921 1.657-4.026 1.106-1.106 2.448-1.658 4.027-1.658 1.579 0 2.92.552 4.026 1.658 1.105 1.105 1.658 2.447 1.658 4.026 0 2.084-.742 3.868-2.227 5.353-1.484 1.484-3.268 2.226-5.352 2.226Zm0-3.79c1.042 0 1.934-.37 2.676-1.113.742-.742 1.113-1.634 1.113-2.676 0-.537-.181-.987-.544-1.35a1.837 1.837 0 0 0-1.35-.545c-.537 0-.987.182-1.35.545-.364.363-.545.813-.545 1.35a7.14 7.14 0 0 1-.26 1.99c-.128.44-.285.863-.472 1.27-.109.235-.001.53.258.53h.474Zm13.5-10.184a3.684 3.684 0 0 1-5.21-5.21l14.352-14.353c.347-.347.782-.529 1.303-.545.52-.015.97.166 1.35.545l2.558 2.558c.379.379.568.821.568 1.326 0 .506-.19.948-.569 1.327L28.957 30.58Z"/>
  </g>
  <defs>
    <linearGradient id="b" x1="25.877" x2="25.877" y1="10.472" y2="44.555" gradientUnits="userSpaceOnUse">
      <stop stop-color="#fff" stop-opacity=".24"/>
      <stop offset="1" stop-color="#3E467B"/>
    </linearGradient>
    <filter id="a" width="46.51" height="46.083" x="3.367" y="7.472" color-interpolation-filters="sRGB" filterUnits="userSpaceOnUse">
      <feFlood flood-opacity="0" result="BackgroundImageFix"/>
      <feColorMatrix in="SourceAlpha" result="hardAlpha" values="0 0 0 0 0 0 0 0 0 0 0 0 0 0 0 0 0 0 127 0"/>
      <feOffset dy="1"/>
      <feGaussianBlur stdDeviation="1.5"/>
      <feColorMatrix values="0 0 0 0 0.113725 0 0 0 0 0.117647 0 0 0 0 0.14902 0 0 0 0.1 0"/>
      <feBlend in2="BackgroundImageFix" result="effect1_dropShadow_2427_47316"/>
      <feColorMatrix in="SourceAlpha" result="hardAlpha" values="0 0 0 0 0 0 0 0 0 0 0 0 0 0 0 0 0 0 127 0"/>
      <feOffset dy="3"/>
      <feGaussianBlur stdDeviation="3"/>
      <feColorMatrix values="0 0 0 0 0.113725 0 0 0 0 0.117647 0 0 0 0 0.14902 0 0 0 0.1 0"/>
      <feBlend in2="effect1_dropShadow_2427_47316" result="effect2_dropShadow_2427_47316"/>
      <feBlend in="SourceGraphic" in2="effect2_dropShadow_2427_47316" result="shape"/>
    </filter>
  </defs>
</svg>
