<svg viewBox="0 0 18 18" xmlns="http://www.w3.org/2000/svg">
<g id="Left Icon">
<path id="icon" fill-rule="evenodd" clip-rule="evenodd" d="M6.09375 15.9094C7.00625 16.3031 7.975 16.5 9 16.5C9.5625 16.5 10.0156 16.35 10.3594 16.05C10.7031 15.75 10.875 15.2875 10.875 14.6625C10.875 14.3 10.7812 13.9781 10.5938 13.6969C10.4062 13.4156 10.3125 13.2 10.3125 13.05C10.3125 12.975 10.3344 12.9062 10.3781 12.8438C10.4219 12.7812 10.5 12.75 10.6125 12.75H12C13.25 12.75 14.3125 12.3656 15.1875 11.5969C16.0625 10.8281 16.5 9.725 16.5 8.2875C16.5 7.325 16.3031 6.42812 15.9094 5.59688C15.5156 4.76563 14.9844 4.04688 14.3156 3.44063C13.6469 2.83438 12.8688 2.35938 11.9813 2.01562C11.0938 1.67188 10.15 1.5 9.15 1.5C8.1 1.5 7.1125 1.69687 6.1875 2.09063C5.2625 2.48438 4.45312 3.01875 3.75938 3.69375C3.06563 4.36875 2.51562 5.1625 2.10938 6.075C1.70312 6.9875 1.5 7.9625 1.5 9C1.5 10.025 1.69687 10.9937 2.09063 11.9062C2.48438 12.8188 3.02188 13.6156 3.70312 14.2969C4.38438 14.9781 5.18125 15.5156 6.09375 15.9094ZM12 5.625C12 6.24632 11.4963 6.75 10.875 6.75C10.2537 6.75 9.75 6.24632 9.75 5.625C9.75 5.00368 10.2537 4.5 10.875 4.5C11.4963 4.5 12 5.00368 12 5.625ZM7.125 6.75C7.74632 6.75 8.25 6.24632 8.25 5.625C8.25 5.00368 7.74632 4.5 7.125 4.5C6.50368 4.5 6 5.00368 6 5.625C6 6.24632 6.50368 6.75 7.125 6.75ZM6 8.625C6 9.24632 5.49632 9.75 4.875 9.75C4.25368 9.75 3.75 9.24632 3.75 8.625C3.75 8.00368 4.25368 7.5 4.875 7.5C5.49632 7.5 6 8.00368 6 8.625ZM13.125 9.75C13.7463 9.75 14.25 9.24632 14.25 8.625C14.25 8.00368 13.7463 7.5 13.125 7.5C12.5037 7.5 12 8.00368 12 8.625C12 9.24632 12.5037 9.75 13.125 9.75Z"/>
</g>
</svg>
