<?xml version="1.0" encoding="UTF-8"?>
<svg width="80px" height="78px" viewBox="0 0 80 78" version="1.1" xmlns="http://www.w3.org/2000/svg" xmlns:xlink="http://www.w3.org/1999/xlink">
    <title>CF44FAD2-E2E4-4F51-927C-D067C2BE6BA3@2x</title>
    <defs>
        <linearGradient x1="100%" y1="9.05809058%" x2="3.48566002%" y2="96.7222222%" id="linearGradient-1">
            <stop stop-color="#868996" offset="0%"></stop>
            <stop stop-color="#2C2F3C" offset="100%"></stop>
        </linearGradient>
    </defs>
    <g id="LP-Fix" stroke="none" stroke-width="1" fill="none" fill-rule="evenodd">
        <g id="LP-{Ready-to-Development}-UPD" transform="translate(-272.000000, -2526.000000)" fill="url(#linearGradient-1)">
            <g id="Projects-&amp;-Feedback" transform="translate(120.000000, 2448.000000)">
                <g id="Logo">
                    <g id="Prj-Copy" transform="translate(136.000000, 60.000000)">
                        <g id="Group-3">
                            <g id="logo/Ñompensation" transform="translate(8.000000, 8.000000)">
                                <g id="logo">
                                    <path d="M88,51.0412112 C88,65.0086944 82.0000691,75.3858376 72.0001842,83.4653652 C68.0002303,69.326192 64.0002763,57.2069006 64.0002763,57.2069006 L56.0003685,59.2267825 L50.0004376,41.0478456 L50.0004376,32.968318 L64.0002763,28.9285542 L46.0004836,20.8490267 L46.0004836,41.0478456 L36.0005988,55.1870188 L34.0006218,63.2665463 L26.0007139,69.326192 L19.7007864,79.6174902 C6.91070668,66.6857296 4.31151348,46.6917935 13.3628607,30.8638684 C22.414208,15.0359434 40.8607278,7.31794971 58.343231,12.0441552 C75.8257343,16.7703608 87.9880214,32.763114 88,51.0412112 L88,51.0412112 Z M60.0003224,61.2466644 L66.3002499,87.1415502 C65.6602572,87.3536378 65.0202646,87.7828627 64.3852719,88 L58.0003454,65.2864282 L50.0004376,67.3063101 L48.0004606,55.1870188 L44.0005066,59.2267825 L42.0005297,69.326192 L30.765659,73.8153795 L25.6607178,84.5611511 C24.9167012,84.1068309 24.2049808,83.6006311 23.5307423,83.0462397 L29.9156688,71.2299306 L40.0005527,67.3063101 L42.0005297,57.2069006 L48.0004606,49.1273731 L52.0004145,63.2665463 L60.0003224,61.2466644 Z" id="compensation"></path>
                                </g>
                            </g>
                        </g>
                    </g>
                </g>
            </g>
        </g>
    </g>
</svg>