<?xml version="1.0" encoding="UTF-8"?>
<svg width="66px" height="60px" viewBox="0 0 66 60" version="1.1" xmlns="http://www.w3.org/2000/svg" xmlns:xlink="http://www.w3.org/1999/xlink">
    <title>logo</title>
    <g id="LP-Fix" stroke="none" stroke-width="1" fill="none" fill-rule="evenodd">
        <g id="LP-{Ready-to-Development}-UPD" transform="translate(-898.000000, -4096.000000)" fill="#09D3AC" fill-rule="nonzero">
            <g id="Logotypes" transform="translate(120.000000, 4096.000000)">
                <g id="logo" transform="translate(778.000000, 0.000000)">
                    <path d="M59.688,27.0096 C59.688,23.7024 55.7952,20.7696 49.8096,18.9792 C51.2496,12.8976 50.6208,8.0592 47.7552,6.4224 C47.0525506,6.03215227 46.2596438,5.83351173 45.456,5.8464 C42.7824,5.8464 39.4032,7.7136 35.9904,10.944 C32.5776,7.7376 29.208,5.88 26.5392,5.88 C25.7230989,5.86196765 24.9172277,6.06426454 24.2064,6.4656 C21.3552,8.1072 20.7648,12.9168 22.1856,18.9696 C16.2288,20.7504 12.3552,23.6592 12.3455823,26.952 C12.336,30.2448 16.2432,33.192 22.2288,34.9776 C20.7888,41.064 21.4128,45.8976 24.2832,47.5344 C24.9832477,47.9268224 25.77521,48.1256414 26.5776,48.1104 C29.256,48.1104 32.6352,46.2432 36.048,43.0128 C39.456,46.2192 42.8256,48.0768 45.4992,48.0768 C46.3149561,48.0917879 47.1200386,47.889689 47.832,47.4912 C50.6832,45.8496 51.2688,41.04 49.8528,35.0112 C55.8096,33.2064 59.6832,30.2976 59.688,27.0096 Z M38.1888,12.0288 C42.12,8.5104 44.5776,8.1312 45.4512,8.1312 L45.4512,8.1312 C45.8563567,8.11818326 46.2575609,8.21433963 46.6128,8.4096 C47.9856,9.192 48.5328,11.952 48.096,15.6096 C47.9841148,16.5436695 47.8239,17.4713134 47.616,18.3888 C45.6269794,17.926485 43.6098859,17.5945785 41.5776,17.3952 C40.3673798,15.6969133 39.0460926,14.0805814 37.6224,12.5568 C37.8,12.3792 37.992,12.2016 38.1888,12.0288 Z M26.2896,29.7312 C26.664,30.4512 27.0624,31.1712 27.4752,31.896 C27.888,32.6208 28.32,33.3552 28.8,34.08 C27.4992,33.8928 26.2368,33.6576 25.0368,33.3792 C25.3728,32.16 25.8,30.96 26.2896,29.7312 Z M24.96,20.592 C26.1744,20.3088 27.4464,20.0736 28.7664,19.8912 C28.2864,20.6016 27.8736,21.3312 27.4416,22.0944 C27.0096,22.8576 26.6304,23.5344 26.2608,24.264 C25.7712,23.016 25.3376,21.792 24.96,20.592 Z M27.4608,26.9952 C28.056,25.7376 28.7104,24.48 29.424,23.2224 C30.144,21.9648 30.9168,20.7408 31.7136,19.5696 C33.1104,19.464 34.5504,19.4064 36.0336,19.4112 C37.5168,19.416 38.9136,19.4688 40.3008,19.5792 C41.0976,20.7408 41.8608,21.9792 42.5808,23.2032 C43.3008,24.4272 43.9632,25.7088 44.5584,26.9616 C43.968,28.2192 43.3104,29.4816 42.6,30.7296 C41.8896,31.9776 41.1072,33.216 40.3104,34.3872 C38.9136,34.4976 37.4736,34.5504 35.9904,34.5504 C34.5072,34.5504 33.1104,34.488 31.7232,34.3776 C30.9264,33.216 30.1584,32.0064 29.4384,30.7536 C28.7184,29.5008 28.08,28.248 27.48,26.9952 L27.4608,26.9952 Z M43.2336,19.9056 C44.5392,20.088 45.8016,20.3232 46.9968,20.6016 C46.6416,21.7872 46.2192,23.0016 45.7296,24.2256 C45.3504,23.5056 44.9568,22.7856 44.5392,22.0608 C44.1216,21.336 43.68,20.6064 43.2528,19.9056 L43.2336,19.9056 Z M44.5584,31.8672 C44.9712,31.1408 45.3648,30.416 45.7392,29.6928 C46.2192,30.9408 46.6992,32.1696 47.0352,33.3696 C45.8256,33.6528 44.5536,33.8832 43.2336,34.0656 C43.6976,33.3552 44.1456,32.6224 44.5776,31.8672 L44.5584,31.8672 Z M36,14.1888 C36.864,15.1104 37.7136,16.1088 38.544,17.1792 C37.7232,17.1456 36.8832,17.1216 36.0336,17.1216 C35.184,17.1216 34.3152,17.1216 33.4752,17.1792 C34.296,16.1136 35.136,15.1104 36,14.1888 Z M25.3536,8.4288 C25.7177731,8.23511596 26.1271045,8.14231206 26.5392,8.16 C27.4040077,8.19604036 28.2520821,8.41010153 29.0304,8.7888 C30.7894641,9.61815498 32.4088212,10.7160791 33.8304,12.0432 L34.392,12.5568 C32.9828541,14.0694396 31.6744454,15.6728816 30.4752,17.3568 C28.4319462,17.5547417 26.4036867,17.8850353 24.4032,18.3456 C24.192,17.4144 24.0192,16.5024 23.9232,15.624 C23.424,12 24,9.2352 25.3488,8.448 L25.3536,8.4288 Z M22.8144,32.7648 C21.9125067,32.4894621 21.0249917,32.1690595 20.1552,31.8048 C16.7472,30.3648 14.6352,28.5168 14.6352,26.9376 C14.6352,25.3584 16.7568,23.52 20.16,22.104 C21.0142893,21.7501528 21.8857834,21.4393626 22.7712,21.1728 C23.3712484,23.1614274 24.1024511,25.1080944 24.96,27 C24.1207014,28.8731028 23.4039918,30.7987589 22.8144,32.7648 L22.8144,32.7648 Z M33.8544,41.9328 C29.9232,45.4512 27.4656,45.8256 26.5872,45.8256 C26.181995,45.8390922 25.7806666,45.742906 25.4256,45.5472 C24.0528,44.7648 23.5056,42.0048 23.9424,38.3472 C24.0538824,37.4146584 24.2141016,36.4885914 24.4224,35.5728 C26.4119982,36.0311168 28.4289356,36.3613943 30.4608,36.5616 C31.66955,38.2610089 32.9909152,39.8774362 34.416,41.4 L33.8544,41.9328 Z M36.048,39.768 C35.184,38.8464 34.3344,37.848 33.4992,36.7776 C34.3248,36.816 35.1648,36.8352 36.0144,36.8352 C36.864,36.8352 37.7328,36.8352 38.5728,36.7824 C37.7424,37.848 36.8976,38.8464 36.0432,39.768 L36.048,39.768 Z M46.6944,45.528 C46.3302063,45.7275212 45.919025,45.8253426 45.504,45.8112 C44.6304,45.8112 42.144,45.4272 38.2272,41.9232 L37.6656,41.4096 C39.0731495,39.8968571 40.3799548,38.2934149 41.5776,36.6096 C43.6227972,36.4144322 45.6528342,36.0841103 47.6544,35.6208 C47.8656,36.552 48.0336,37.464 48.1344,38.3424 C48.6096,41.9616 48.0576,44.7264 46.6896,45.5088 L46.6944,45.528 Z M51.8784,31.8768 C51.0576,32.2128 50.1888,32.5248 49.2672,32.8032 C48.6647799,30.8147289 47.9319927,28.8681124 47.0736,26.976 C47.9167487,25.1050153 48.6366837,23.1809126 49.2288,21.216 C50.1306933,21.4913379 51.0182083,21.8117405 51.888,22.176 C55.2912,23.616 57.408,25.464 57.4032081,27.0432 C57.3984,28.6224 55.2816,30.4416 51.8736,31.8576 L51.8784,31.8768 Z M36,31.3872027 C38.4335854,31.3898495 40.4085443,29.4191871 40.4111974,26.9856017 C40.4138453,24.5520163 38.4431836,22.5770567 36.0095983,22.5744026 C33.5760129,22.5717538 31.6010524,24.5424146 31.5983895,26.976 C31.5958503,28.1450393 32.0584631,29.2670714 32.8841998,30.0946089 C33.7099364,30.9221465 34.8309579,31.3872027 36,31.3872027 L36,31.3872027 Z M6.72,0.4224 L6.72,53.5344 L65.3136,53.5344 L65.3136,0.4224 L6.72,0.4224 Z M63.024,51.2496 L9.0144,51.2496 L9.0144,2.712 L63.024,2.712 L63.024,51.2496 Z M22.224,34.9776 C20.784,41.064 21.408,45.8976 24.2784,47.5344 C24.9784477,47.9268224 25.77041,48.1256414 26.5728,48.1104 C29.2512,48.1104 32.6304,46.2432 36.0432,43.0128 C39.4512,46.2192 42.8208,48.0768 45.4944,48.0768 C46.3101561,48.0917879 47.1152386,47.889689 47.8272,47.4912 C50.6784,45.8496 51.264,41.04 49.848,35.0112 C55.8048,33.2256 59.6784,30.3168 59.6832044,27.0288 C59.688,23.7408 55.7904,20.7888 49.8048,18.9984 C51.2448,12.9168 50.616,8.0784 47.7504,6.4416 C47.0477506,6.05135227 46.2548438,5.85271173 45.4512,5.8656 C42.7776,5.8656 39.3984,7.7328 35.9856,10.9632 C32.5728,7.7568 29.2032,5.8992 26.5344,5.8992 C25.7182989,5.88116765 24.9124277,6.08346454 24.2016,6.4848 C21.3504,8.1264 20.76,12.936 22.1808,18.9888 C16.224,20.7696 12.3504,23.6784 12.3407824,26.9712 C12.3312,30.264 16.2432,33.1824 22.2288,34.9776 L22.224,34.9776 Z M33.8448,41.9328 C29.9136,45.4512 27.456,45.8256 26.5776,45.8256 C26.172395,45.8390922 25.7710666,45.742906 25.416,45.5472 C24.0432,44.7648 23.496,42.0048 23.9328,38.3472 C24.0442824,37.4146584 24.2045016,36.4885914 24.4128,35.5728 C26.4023982,36.0311168 28.4193356,36.3613943 30.4512,36.5616 C31.65995,38.2610089 32.9813152,39.8774362 34.4064,41.4 L33.8448,41.9328 Z M45.744,24.2256 C45.3648,23.5056 44.9712,22.7856 44.5536,22.0608 C44.136,21.336 43.6896,20.6208 43.248,19.9056 C44.5536,20.088 45.816,20.3232 47.0112,20.6016 C46.6608,21.7872 46.2384,23.0016 45.7488,24.2256 L45.744,24.2256 Z M47.0496,33.3456 C45.84,33.6288 44.568,33.8592 43.248,34.0416 C43.6992,33.3312 44.1408,32.5984 44.5728,31.8432 C45.0048,31.088 45.3984,30.3632 45.7536,29.6688 C46.2576,30.9408 46.6944,32.16 47.04,33.3696 L47.0496,33.3456 Z M44.5488,26.9376 C43.9584,28.1952 43.3008,29.4576 42.5904,30.7056 C41.88,31.9536 41.0976,33.192 40.3008,34.3632 C38.904,34.4736 37.464,34.5264 35.9808,34.5264 C34.4976,34.5264 33.1008,34.464 31.7136,34.3536 C30.9168,33.192 30.1488,31.9824 29.4288,30.7296 C28.7088,29.4768 28.0512,28.224 27.4512,26.9712 C28.0464,25.7136 28.7008,24.456 29.4144,23.1984 C30.1344,21.9408 30.9072,20.7168 31.704,19.5456 C33.1008,19.44 34.5408,19.3824 36.024,19.3872 C37.5072,19.392 38.904,19.4448 40.2912,19.5552 C41.088,20.7168 41.8512,21.9552 42.5712,23.1792 C43.2912,24.4032 43.9584,25.7088 44.5536,26.9616 L44.5488,26.9376 Z M28.8,34.08 C27.4992,33.8928 26.2368,33.6576 25.0368,33.3792 C25.392,32.1984 25.8192,30.9792 26.3088,29.7552 C26.6832,30.4752 27.0816,31.1952 27.4944,31.92 C27.9072,32.6448 28.32,33.3552 28.8,34.08 Z M27.4608,22.08 C27.0432,22.8 26.6496,23.52 26.28,24.2496 C25.7776,23.0112 25.3376,21.792 24.96,20.592 C26.1744,20.3088 27.4464,20.0736 28.7664,19.8912 C28.32,20.6016 27.8928,21.336 27.4608,22.08 Z M36.0432,39.768 C35.1792,38.8464 34.3296,37.848 33.4944,36.7776 C34.32,36.816 35.16,36.8352 36.0096,36.8352 C36.8592,36.8352 37.728,36.8352 38.568,36.7824 C37.7424,37.848 36.8976,38.8464 36.0432,39.768 Z M46.6896,45.528 C46.3254063,45.7275212 45.914225,45.8253426 45.4992,45.8112 C44.6256,45.8112 42.1392,45.4272 38.2224,41.9232 L37.6608,41.4096 C39.0683495,39.8968571 40.3751548,38.2934149 41.5728,36.6096 C43.6179972,36.4144322 45.6480342,36.0841103 47.6496,35.6208 C47.8608,36.552 48.0288,37.464 48.1296,38.3424 C48.6096,41.9616 48.0576,44.7264 46.6896,45.5088 L46.6896,45.528 Z M49.224,21.2112 C50.1258933,21.4865379 51.0134083,21.8069405 51.8832,22.1712 C55.2864,23.6112 57.4032,25.4592 57.3984081,27.0384 C57.3936,28.6176 55.2816,30.4752 51.8736,31.8912 C51.0528,32.2272 50.184,32.5392 49.2624,32.8176 C48.6599799,30.8291289 47.9271927,28.8825124 47.0688,26.9904 C47.9135172,25.1069286 48.6334703,23.16995 49.224,21.192 L49.224,21.2112 Z M38.184,12.048 C42.1152,8.5296 44.5728,8.1504 45.4464,8.1504 L45.4464,8.1504 C45.8515567,8.13738326 46.2527609,8.23353963 46.608,8.4288 C47.9808,9.2112 48.528,11.9712 48.0912,15.6288 C47.9793148,16.5628695 47.8191,17.4905134 47.6112,18.408 C45.6221794,17.945685 43.6050859,17.6137785 41.5728,17.4144 C40.3625798,15.7161133 39.0412926,14.0997814 37.6176,12.576 C37.8,12.3792 37.992,12.2016 38.1888,12.0288 L38.184,12.048 Z M36,14.1888 C36.864,15.1104 37.7136,16.1088 38.544,17.1792 C37.7232,17.1456 36.8832,17.1216 36.0336,17.1216 C35.184,17.1216 34.3152,17.1216 33.4752,17.1792 C34.296,16.1136 35.136,15.1104 36,14.1888 Z M25.3536,8.4288 C25.7177731,8.23511596 26.1271045,8.14231206 26.5392,8.16 C27.4040077,8.19604036 28.2520821,8.41010153 29.0304,8.7888 C30.7894641,9.61815498 32.4088212,10.7160791 33.8304,12.0432 L34.392,12.5568 C32.9828541,14.0694396 31.6744454,15.6728816 30.4752,17.3568 C28.4319462,17.5547417 26.4036867,17.8850353 24.4032,18.3456 C24.192,17.4144 24.0192,16.5024 23.9232,15.624 C23.424,12 24,9.2352 25.3488,8.448 L25.3536,8.4288 Z M20.16,22.104 C21.0142893,21.7501528 21.8857834,21.4393626 22.7712,21.1728 C23.3712484,23.1614274 24.1024511,25.1080944 24.96,27 C24.1176317,28.871306 23.3977158,30.7953572 22.8048,32.76 C21.9029067,32.4846621 21.0153917,32.1642595 20.1456,31.8 C16.7376,30.36 14.6256,28.512 14.6256,26.9328 C14.6256,25.3536 16.7568,23.52 20.16,22.104 Z M36,22.584 C33.5664146,22.5813505 31.5914557,24.5520129 31.5888026,26.9855983 C31.5861547,29.4191837 33.5568164,31.3941433 35.9904017,31.3967974 C38.4239871,31.3994462 40.3989476,29.4287854 40.4016,26.9952 C40.4105559,25.8220123 39.9507739,24.6937969 39.1243411,23.8610554 C38.2979083,23.028314 37.1732219,22.56 36,22.56 L36,22.584 Z M36,22.584 C33.5664146,22.5813505 31.5914557,24.5520129 31.5888026,26.9855983 C31.5861547,29.4191837 33.5568164,31.3941433 35.9904017,31.3967974 C38.4239871,31.3994462 40.3989476,29.4287854 40.4016,26.9952 C40.4105559,25.8220123 39.9507739,24.6937969 39.1243411,23.8610554 C38.2979083,23.028314 37.1732219,22.56 36,22.56 L36,22.584 Z M36,22.584 C33.5664146,22.5813505 31.5914557,24.5520129 31.5888026,26.9855983 C31.5861547,29.4191837 33.5568164,31.3941433 35.9904017,31.3967974 C38.4239871,31.3994462 40.3989476,29.4287854 40.4016,26.9952 C40.4105559,25.8220123 39.9507739,24.6937969 39.1243411,23.8610554 C38.2979083,23.028314 37.1732219,22.56 36,22.56 L36,22.584 Z M59.688,27.0192 C59.688,23.712 55.7952,20.7792 49.8096,18.9888 C51.2496,12.9072 50.6208,8.0688 47.7552,6.432 C47.0525506,6.04175227 46.2596438,5.84311173 45.456,5.856 C42.7824,5.856 39.4032,7.7232 35.9904,10.9536 C32.5776,7.7472 29.208,5.8896 26.5392,5.8896 C25.7230989,5.87156765 24.9172277,6.07386454 24.2064,6.4752 C21.3552,8.1168 20.7648,12.9264 22.1856,18.9792 C16.2288,20.76 12.3552,23.6688 12.3455823,26.9616 C12.336,30.2544 16.2432,33.2016 22.2288,34.9872 C20.7888,41.0736 21.4128,45.9072 24.2832,47.544 C24.9832477,47.9364224 25.77521,48.1352414 26.5776,48.12 C29.256,48.12 32.6352,46.2528 36.048,43.0224 C39.456,46.2288 42.8256,48.0864 45.4992,48.0864 C46.3149561,48.1013879 47.1200386,47.899289 47.832,47.5008 C50.6832,45.8592 51.2688,41.0496 49.8528,35.0208 C55.8096,33.2064 59.6832,30.2976 59.688,27.0096 L59.688,27.0192 Z M38.1888,12.0288 C42.12,8.5104 44.5776,8.1312 45.4512,8.1312 L45.4512,8.1312 C45.8563567,8.11818326 46.2575609,8.21433963 46.6128,8.4096 C47.9856,9.192 48.5328,11.952 48.096,15.6096 C47.9841148,16.5436695 47.8239,17.4713134 47.616,18.3888 C45.6269794,17.926485 43.6098859,17.5945785 41.5776,17.3952 C40.3673798,15.6969133 39.0460926,14.0805814 37.6224,12.5568 C37.8,12.3792 37.992,12.2016 38.1888,12.0288 Z M26.2896,29.7312 C26.664,30.4512 27.0624,31.1712 27.4752,31.896 C27.888,32.6208 28.32,33.3552 28.8,34.08 C27.4992,33.8928 26.2368,33.6576 25.0368,33.3792 C25.3728,32.16 25.8,30.96 26.2896,29.7312 Z M24.96,20.592 C26.1744,20.3088 27.4464,20.0736 28.7664,19.8912 C28.2864,20.6016 27.8736,21.3312 27.4416,22.0944 C27.0096,22.8576 26.6304,23.5344 26.2608,24.264 C25.7712,23.016 25.3376,21.792 24.96,20.592 Z M27.4608,26.9952 C28.056,25.7376 28.7104,24.48 29.424,23.2224 C30.144,21.9648 30.9168,20.7408 31.7136,19.5696 C33.1104,19.464 34.5504,19.4064 36.0336,19.4112 C37.5168,19.416 38.9136,19.4688 40.3008,19.5792 C41.0976,20.7408 41.8608,21.9792 42.5808,23.2032 C43.3008,24.4272 43.9632,25.7088 44.5584,26.9616 C43.968,28.2192 43.3104,29.4816 42.6,30.7296 C41.8896,31.9776 41.1072,33.216 40.3104,34.3872 C38.9136,34.4976 37.4736,34.5504 35.9904,34.5504 C34.5072,34.5504 33.1104,34.488 31.7232,34.3776 C30.9264,33.216 30.1584,32.0064 29.4384,30.7536 C28.7184,29.5008 28.08,28.248 27.48,26.9952 L27.4608,26.9952 Z M43.2336,19.9056 C44.5392,20.088 45.8016,20.3232 46.9968,20.6016 C46.6416,21.7872 46.2192,23.0016 45.7296,24.2256 C45.3504,23.5056 44.9568,22.7856 44.5392,22.0608 C44.1216,21.336 43.68,20.6064 43.2528,19.9056 L43.2336,19.9056 Z M44.5584,31.8672 C44.9712,31.1408 45.3648,30.416 45.7392,29.6928 C46.2192,30.9408 46.6992,32.1696 47.0352,33.3696 C45.8256,33.6528 44.5536,33.8832 43.2336,34.0656 C43.6976,33.3552 44.1456,32.6224 44.5776,31.8672 L44.5584,31.8672 Z M36,14.1888 C36.864,15.1104 37.7136,16.1088 38.544,17.1792 C37.7232,17.1456 36.8832,17.1216 36.0336,17.1216 C35.184,17.1216 34.3152,17.1216 33.4752,17.1792 C34.296,16.1136 35.136,15.1104 36,14.1888 Z M25.3536,8.4288 C25.7177731,8.23511596 26.1271045,8.14231206 26.5392,8.16 C27.4040077,8.19604036 28.2520821,8.41010153 29.0304,8.7888 C30.7894641,9.61815498 32.4088212,10.7160791 33.8304,12.0432 L34.392,12.5568 C32.9828541,14.0694396 31.6744454,15.6728816 30.4752,17.3568 C28.4319462,17.5547417 26.4036867,17.8850353 24.4032,18.3456 C24.192,17.4144 24.0192,16.5024 23.9232,15.624 C23.424,12 24,9.2352 25.3488,8.448 L25.3536,8.4288 Z M22.8144,32.7648 C21.9125067,32.4894621 21.0249917,32.1690595 20.1552,31.8048 C16.7472,30.3648 14.6352,28.5168 14.6352,26.9376 C14.6352,25.3584 16.7568,23.52 20.16,22.104 C21.0142893,21.7501528 21.8857834,21.4393626 22.7712,21.1728 C23.3712484,23.1614274 24.1024511,25.1080944 24.96,27 C24.1207014,28.8731028 23.4039918,30.7987589 22.8144,32.7648 L22.8144,32.7648 Z M33.8544,41.9328 C29.9232,45.4512 27.4656,45.8256 26.5872,45.8256 C26.181995,45.8390922 25.7806666,45.742906 25.4256,45.5472 C24.0528,44.7648 23.5056,42.0048 23.9424,38.3472 C24.0538824,37.4146584 24.2141016,36.4885914 24.4224,35.5728 C26.4119982,36.0311168 28.4289356,36.3613943 30.4608,36.5616 C31.66955,38.2610089 32.9909152,39.8774362 34.416,41.4 L33.8544,41.9328 Z M36.048,39.768 C35.184,38.8464 34.3344,37.848 33.4992,36.7776 C34.3248,36.816 35.1648,36.8352 36.0144,36.8352 C36.864,36.8352 37.7328,36.8352 38.5728,36.7824 C37.7424,37.848 36.8976,38.8464 36.0432,39.768 L36.048,39.768 Z M46.6944,45.528 C46.3302063,45.7275212 45.919025,45.8253426 45.504,45.8112 C44.6304,45.8112 42.144,45.4272 38.2272,41.9232 L37.6656,41.4096 C39.0731495,39.8968571 40.3799548,38.2934149 41.5776,36.6096 C43.6227972,36.4144322 45.6528342,36.0841103 47.6544,35.6208 C47.8656,36.552 48.0336,37.464 48.1344,38.3424 C48.6096,41.9616 48.0576,44.7264 46.6896,45.5088 L46.6944,45.528 Z M51.8784,31.8768 C51.0576,32.2128 50.1888,32.5248 49.2672,32.8032 C48.6647799,30.8147289 47.9319927,28.8681124 47.0736,26.976 C47.9167487,25.1050153 48.6366837,23.1809126 49.2288,21.216 C50.1306933,21.4913379 51.0182083,21.8117405 51.888,22.176 C55.2912,23.616 57.408,25.464 57.4032081,27.0432 C57.3984,28.6224 55.2816,30.4416 51.8736,31.8576 L51.8784,31.8768 Z M36,31.3872027 C38.4335854,31.3898495 40.4085443,29.4191871 40.4111974,26.9856017 C40.4138453,24.5520163 38.4431836,22.5770567 36.0095983,22.5744026 C33.5760129,22.5717538 31.6010524,24.5424146 31.5983895,26.976 C31.5958503,28.1450393 32.0584631,29.2670714 32.8841998,30.0946089 C33.7099364,30.9221465 34.8309579,31.3872027 36,31.3872027 L36,31.3872027 Z M2.7264,57.5472 L2.7264,4.416 L0.4272,6.72 L0.4272,59.8368 L59.0112,59.8368 L61.3056,57.5472 L2.7264,57.5472 Z" id="Shape"></path>
                </g>
            </g>
        </g>
    </g>
</svg>