<?xml version="1.0" encoding="UTF-8"?>
<svg width="76px" height="62px" viewBox="0 0 76 62" version="1.1" xmlns="http://www.w3.org/2000/svg" xmlns:xlink="http://www.w3.org/1999/xlink">
    <title>css-modules-logo.inkscape</title>
    <g id="LP-Fix" stroke="none" stroke-width="1" fill="none" fill-rule="evenodd">
        <g id="LP-{Ready-to-Development}-UPD" transform="translate(-119.000000, -4095.000000)" fill="#000000" fill-rule="nonzero">
            <g id="Logotypes" transform="translate(120.000000, 4096.000000)">
                <g id="css-modules-logo.inkscape" transform="translate(-0.000000, 0.000000)">
                    <g id="flowRoot3336" transform="translate(3.190272, 27.675712)">
                        <path d="M4.88616931,0.0821208024 C6.19644514,0.0821208024 7.21320056,0.427301006 7.93643558,1.11766141 C8.6596706,1.80802182 9.06120689,2.59230869 9.14104447,3.47052203 L7.77441255,3.47052203 C7.61943316,2.80364364 7.30947545,2.2753068 6.84453941,1.88551151 C6.38429914,1.49571623 5.7362054,1.30081858 4.9002582,1.30081858 C3.88115447,1.30081858 3.05694849,1.66008767 2.42764026,2.37862586 C1.80302843,3.09246828 1.49072252,4.18906128 1.49072252,5.66840486 C1.49072252,6.88005793 1.77250229,7.86393927 2.33606183,8.6200489 C2.90431778,9.3714617 3.74965731,9.7471681 4.87208042,9.7471681 C5.90527315,9.7471681 6.69190844,9.3503281 7.23198628,8.5566481 C7.51846198,8.13867396 7.73214481,7.58920299 7.87303478,6.90823517 L9.2396667,6.90823517 C9.11756299,7.99778453 8.71367881,8.91122089 8.02801417,9.64854426 C7.20615639,10.5361502 6.09782238,10.9799532 4.70301214,10.9799532 C3.50075167,10.9799532 2.49104074,10.6159878 1.67387937,9.88805699 C0.598419754,8.92530925 0.0606899484,7.43892096 0.0606899484,5.42889213 C0.0606899484,3.90258452 0.46457434,2.65101267 1.27234312,1.67417656 C2.14586048,0.612806056 3.35046921,0.0821208024 4.88616931,0.0821208024 L4.88616931,0.0821208024 Z" id="path4379"></path>
                        <path d="M11.8672647,7.37317174 C11.9001382,7.96021362 12.0386798,8.4368912 12.2828893,8.80320447 C12.7478264,9.48886911 13.5673358,9.83170143 14.7414174,9.83170143 C15.2674069,9.83170143 15.7464329,9.75656015 16.1784954,9.6062776 C17.0144415,9.31510507 17.4324146,8.79381241 17.4324146,8.04239961 C17.4324146,7.47883975 17.2563021,7.07730345 16.9040772,6.83779072 C16.5471565,6.60297483 15.9882935,6.39868459 15.2274881,6.22492001 L13.8256332,5.90791759 C12.9098495,5.70127947 12.2617563,5.47350722 11.8813536,5.22460082 C11.2238667,4.7925394 10.8951233,4.14679408 10.8951233,3.28736486 C10.8951233,2.35749172 11.216822,1.59433845 11.8602194,0.997905048 C12.5036169,0.401470573 13.4147048,0.103253336 14.5934833,0.103253336 C15.6783358,0.103253336 16.5988163,0.366248081 17.3549249,0.892237573 C18.1157314,1.41353023 18.4961346,2.2494769 18.4961346,3.40007758 L17.178813,3.40007758 C17.108368,2.84591031 16.9580854,2.42089253 16.7279653,2.12502424 C16.3005996,1.5849464 15.5750167,1.31490747 14.5512166,1.31490747 C13.7246631,1.31490747 13.1305775,1.48867151 12.76896,1.8361996 C12.4073425,2.18372768 12.2265338,2.58761186 12.2265338,3.04785213 C12.2265338,3.55505644 12.4378687,3.92606654 12.8605386,4.16088244 C13.1376217,4.311165 13.7645813,4.49901846 14.7414174,4.72444283 L16.1925843,5.05553415 C16.8923373,5.2152093 17.4324151,5.43358843 17.8128178,5.71067153 C18.4703036,6.19439382 18.7990465,6.89649523 18.7990465,7.81697577 C18.7990465,8.96288069 18.3810734,9.78239005 17.5451273,10.2755039 C16.7138769,10.7686187 15.7464329,11.0151762 14.6427952,11.0151762 C13.3560003,11.0151762 12.3486375,10.6864333 11.6207067,10.0289475 C10.8927759,9.37615746 10.5358547,8.49089888 10.5499431,7.37317174 L11.8672647,7.37317174 L11.8672647,7.37317174 Z" id="path4381"></path>
                        <path d="M21.4759548,7.37317174 C21.5088294,7.96021362 21.6473715,8.4368912 21.8915811,8.80320447 C22.3565171,9.48886911 23.1760265,9.83170143 24.3501092,9.83170143 C24.8760976,9.83170143 25.355123,9.75656015 25.7871855,9.6062776 C26.6231327,9.31510507 27.0411063,8.79381241 27.0411063,8.04239961 C27.0411063,7.47883975 26.8649939,7.07730345 26.512769,6.83779072 C26.1558483,6.60297483 25.5969852,6.39868459 24.8361799,6.22492001 L23.4343249,5.90791759 C22.5185401,5.70127947 21.8704464,5.47350722 21.4900437,5.22460082 C20.8325579,4.7925394 20.503815,4.14679408 20.503815,3.28736486 C20.503815,2.35749172 20.8255137,1.59433845 21.4689112,0.997905048 C22.1123075,0.401470573 23.0233955,0.103253336 24.202175,0.103253336 C25.2870275,0.103253336 26.2075081,0.366248081 26.9636166,0.892237573 C27.724422,1.41353023 28.1048247,2.2494769 28.1048247,3.40007758 L26.7875047,3.40007758 C26.7170597,2.84591031 26.5667772,2.42089253 26.336657,2.12502424 C25.9092903,1.5849464 25.1837074,1.31490747 24.1599083,1.31490747 C23.3333537,1.31490747 22.7392677,1.48867151 22.3776502,1.8361996 C22.0160327,2.18372768 21.8352239,2.58761186 21.8352239,3.04785213 C21.8352239,3.55505644 22.0465588,3.92606654 22.4692287,4.16088244 C22.7463118,4.311165 23.373272,4.49901846 24.3501092,4.72444283 L25.8012744,5.05553415 C26.5010285,5.2152093 27.0411069,5.43358843 27.4215096,5.71067153 C28.0789954,6.19439382 28.4077383,6.89649523 28.4077383,7.81697577 C28.4077383,8.96288069 27.9897646,9.78239005 27.1538174,10.2755039 C26.3225671,10.7686187 25.3551236,11.0151762 24.2514869,11.0151762 C22.964692,11.0151762 21.9573292,10.6864333 21.2293984,10.0289475 C20.5014666,9.37615746 20.1445454,8.49089888 20.1586348,7.37317174 L21.4759548,7.37317174 L21.4759548,7.37317174 Z" id="path4383"></path>
                        <path d="M0.490404292,18.3978073 L2.49808535,18.3978073 L5.47086224,27.1470704 L8.42250628,18.3978073 L10.4090542,18.3978073 L10.4090542,28.7461698 L9.07764366,28.7461698 L9.07764366,22.6385936 C9.07764366,22.4272586 9.0823405,22.0773821 9.09173416,21.5889641 C9.10112782,21.100545 9.10582465,20.5769039 9.10582465,20.0180409 L6.15418221,28.7461698 L4.76641615,28.7461698 L1.79363894,20.0180409 L1.79363894,20.3350433 C1.79363894,20.5886454 1.79833523,20.9760928 1.80772783,21.4973855 C1.82181682,22.0139813 1.82886132,22.394384 1.82886132,22.6385936 L1.82886132,28.7461698 L0.490404292,28.7461698 L0.490404292,18.3978073 L0.490404292,18.3978073 Z" id="path4385"></path>
                        <path d="M17.0238336,18.1160279 C18.8507063,18.1160279 20.2032493,18.7030687 21.0814627,19.8771504 C21.7671273,20.7929351 22.1099597,21.9646699 22.1099597,23.3923548 C22.1099597,24.9374465 21.7178159,26.2218925 20.9335285,27.2456926 C20.013048,28.4479531 18.7004238,29.0490833 16.9956558,29.0490833 C15.4036,29.0490833 14.1520282,28.5230943 13.2409402,27.4711164 C12.4284751,26.4567089 12.0222425,25.1746108 12.0222425,23.6248223 C12.0222425,22.2253163 12.3697711,21.0277521 13.0648283,20.0321297 C13.9571311,18.7547285 15.2767995,18.1160279 17.0238336,18.1160279 Z M17.1647241,27.7951641 C18.3998592,27.7951641 19.2921619,27.353709 19.8416324,26.4707988 C20.3957996,25.5831918 20.6728833,24.564088 20.6728833,23.4134873 C20.6728833,22.1971385 20.3535324,21.217954 19.7148308,20.4759338 C19.080827,19.7339136 18.2120062,19.3629035 17.1083685,19.3629035 C16.0376054,19.3629035 15.1640878,19.7315652 14.4878158,20.4688885 C13.8115448,21.2015161 13.4734093,22.2840203 13.4734093,23.7164009 C13.4734093,24.8623058 13.7622334,25.8297498 14.3398817,26.618733 C14.9222267,27.4030204 15.8638408,27.7951641 17.1647241,27.7951641 L17.1647241,27.7951641 Z" id="path4387"></path>
                        <path d="M27.7455556,27.5486061 C28.2198853,27.5486061 28.6096806,27.4992947 28.9149415,27.400672 C29.4597162,27.2175148 29.9058675,26.8652899 30.2533956,26.3439972 C30.5304798,25.9260242 30.7300737,25.3906426 30.8521775,24.7378526 C30.9226224,24.3480573 30.9578449,23.9864398 30.9578449,23.6530001 C30.9578449,22.370902 30.7018949,21.3752802 30.1899948,20.6661346 C29.6827916,19.956989 28.8632822,19.6024162 27.7314667,19.6024162 L25.2447593,19.6024162 L25.2447593,27.5486061 L27.7455556,27.5486061 L27.7455556,27.5486061 Z M23.8358607,18.3978073 L28.027335,18.3978073 C29.450323,18.3978073 30.5539608,18.9026627 31.3382482,19.9123734 C32.0380012,20.8234613 32.3878777,21.9904993 32.3878777,23.4134873 C32.3878777,24.5124282 32.181239,25.5057021 31.7679617,26.3933091 C31.0400309,27.9618829 29.7884591,28.7461698 28.0132461,28.7461698 L23.8358607,28.7461698 L23.8358607,18.3978073 L23.8358607,18.3978073 Z" id="path4389"></path>
                        <path d="M35.7199233,18.3978073 L35.7199233,24.7942081 C35.7199233,25.5456209 35.8608133,26.1702332 36.1425932,26.6680449 C36.5605674,27.4194577 37.2650172,27.7951641 38.2559427,27.7951641 C39.4441138,27.7951641 40.2518821,27.3889315 40.6792478,26.5764663 C40.9093679,26.1350112 41.024428,25.5409252 41.024428,24.7942081 L41.024428,18.3978073 L42.4474171,18.3978073 L42.4474171,24.2095152 C42.4474171,25.4822207 42.2760009,26.4614057 41.9331686,27.1470704 C41.3038606,28.3962938 40.115689,29.0209055 38.3686538,29.0209055 C36.6216197,29.0209055 35.4357966,28.3962938 34.8111843,27.1470704 C34.468352,26.4614057 34.2969358,25.4822207 34.2969358,24.2095152 L34.2969358,18.3978073 L35.7199233,18.3978073 L35.7199233,18.3978073 Z" id="path4391"></path>
                        <polygon id="path4393" points="44.595988 18.3978073 45.9978429 18.3978073 45.9978429 27.5133831 51.2389468 27.5133831 51.2389468 28.7461698 44.595988 28.7461698"></polygon>
                        <polygon id="path4395" points="52.7605581 18.3978073 60.3052107 18.3978073 60.3052107 19.665817 54.12719 19.665817 54.12719 22.8076603 59.8402741 22.8076603 59.8402741 24.0052255 54.12719 24.0052255 54.12719 27.5133831 60.4108781 27.5133831 60.4108781 28.7461698 52.7605581 28.7461698"></polygon>
                        <path d="M63.179365,25.4070789 C63.2122396,25.9941207 63.3507817,26.4707983 63.5949913,26.8371116 C64.0599273,27.5227762 64.8794367,27.8656085 66.0535193,27.8656085 C66.5795078,27.8656085 67.0585332,27.7904673 67.4905957,27.6401847 C68.3265429,27.3490122 68.7445165,26.8277195 68.7445165,26.0763067 C68.7445165,25.5127469 68.5684041,25.1112106 68.2161792,24.8716978 C67.8592585,24.6368819 67.3003954,24.4325917 66.5395901,24.2588271 L65.1377351,23.9418247 C64.2219503,23.7351866 63.5738566,23.5074143 63.1934539,23.2585079 C62.5359681,22.8264465 62.2072252,22.1807012 62.2072252,21.321272 C62.2072252,20.3913988 62.5289239,19.6282456 63.1723214,19.0318122 C63.8157177,18.4353777 64.7268057,18.1371604 65.9055852,18.1371604 C66.9904377,18.1371604 67.9109183,18.4001552 68.6670268,18.9261447 C69.4278322,19.4474373 69.8082349,20.283384 69.8082349,21.4339847 L68.4909149,21.4339847 C68.4204699,20.8798174 68.2701874,20.4547996 68.0400672,20.1589314 C67.6127005,19.6188535 66.8871176,19.3488146 65.8633185,19.3488146 C65.0367639,19.3488146 64.4426779,19.5225786 64.0810604,19.8701067 C63.7194428,20.2176348 63.5386341,20.621519 63.5386341,21.0817592 C63.5386341,21.5889635 63.749969,21.9599737 64.1726389,22.1947895 C64.449722,22.3450721 65.0766822,22.5329256 66.0535193,22.7583499 L67.5046846,23.0894413 C68.2044387,23.2491164 68.7445171,23.4674955 69.1249198,23.7445786 C69.7824055,24.2283009 70.1111484,24.9304023 70.1111484,25.8508829 C70.1111484,26.9967878 69.6931748,27.8162972 68.8572276,28.309411 C68.0259773,28.8025259 67.0585338,29.0490833 65.9548971,29.0490833 C64.6681022,29.0490833 63.6607394,28.7203404 62.9328086,28.0628546 C62.2048768,27.4100646 61.8479556,26.524806 61.862045,25.4070789 L63.179365,25.4070789 L63.179365,25.4070789 Z" id="path4397"></path>
                    </g>
                    <path d="M60.1481715,-0.17307069 L-0.197971638,-0.17307069 L-0.197971638,60.1730724 L60.1481715,60.1730724 L60.1481715,-0.17307069 Z M59.717069,0.257931034 L59.717069,59.7419828 L0.233017241,59.7419828 L0.233017241,0.257931034 L59.717069,0.257931034 Z" id="rect4156"></path>
                </g>
            </g>
        </g>
    </g>
</svg>