<?xml version="1.0" encoding="UTF-8"?>
<svg width="192px" height="192px" viewBox="0 0 192 192" version="1.1" xmlns="http://www.w3.org/2000/svg" xmlns:xlink="http://www.w3.org/1999/xlink">
    <title>Other/logo/colored/EthicsLine Copy</title>
    <defs>
        <linearGradient x1="23.5906059%" y1="78.8871746%" x2="79.3721548%" y2="20.0983239%" id="linearGradient-1">
            <stop stop-color="#467EC0" offset="0%"></stop>
            <stop stop-color="#1B9AD2" offset="49.1568917%"></stop>
            <stop stop-color="#41C3DE" offset="100%"></stop>
        </linearGradient>
    </defs>
    <g id="Other/logo/colored/EthicsLine-Copy" stroke="none" stroke-width="1" fill="none" fill-rule="evenodd">
        <rect id="area" x="0" y="0" width="192" height="192"></rect>
        <path d="M50,100 L56,109 L90,109 C94.418278,109 98,112.581722 98,117 L98,156 C98,160.418278 94.418278,164 90,164 L26,164 C21.581722,164 18,160.418278 18,156 L18,108 C18,103.581722 21.581722,100 26,100 L50,100 Z M144,100 C146.209139,100 148,101.790861 148,104 L147.99992,132.682795 C152.660731,134.330118 156,138.775095 156,144 C156,150.627417 150.627417,156 144,156 C138.775467,156 134.330751,152.661207 132.683147,148.000916 L110,148 C107.790861,148 106,146.209139 106,144 C106,141.790861 107.790861,140 110,140 L132.682795,140.00008 C133.887812,136.590694 136.589836,133.888456 139.999084,132.683147 L140,104 C140,101.790861 141.790861,100 144,100 Z M126,28 L132,37 L166,37 C170.418278,37 174,40.581722 174,45 L174,84 C174,88.418278 170.418278,92 166,92 L102,92 C97.581722,92 94,88.418278 94,84 L94,36 C94,31.581722 97.581722,28 102,28 L126,28 Z M48,36 C53.2245331,36 57.6692493,39.3387931 59.3168535,43.9990843 L82,44 C84.209139,44 86,45.790861 86,48 C86,50.209139 84.209139,52 82,52 L59.3172055,51.9999199 C58.1121877,55.4093062 55.4101643,58.1115442 52.0009157,59.3168535 L52,88 C52,90.209139 50.209139,92 48,92 C45.790861,92 44,90.209139 44,88 L44.0000801,59.3172055 C39.3392688,57.6698824 36,53.2249052 36,48 C36,41.372583 41.372583,36 48,36 Z" id="Shape" fill="url(#linearGradient-1)"></path>
    </g>
</svg>