<?xml version="1.0" encoding="UTF-8"?>
<svg width="32px" height="40px" viewBox="0 0 32 40" version="1.1" xmlns="http://www.w3.org/2000/svg" xmlns:xlink="http://www.w3.org/1999/xlink">
    <title>E5658F5D-2FB9-412B-AEBC-E35D2B685A6A@2x</title>
    <g id="Ready" stroke="none" stroke-width="1" fill="none" fill-rule="evenodd">
        <g id="Assets/Downloads" transform="translate(-1007.000000, -527.000000)">
            <g id="Other" transform="translate(420.000000, 508.000000)">
                <g id="Logo" transform="translate(492.000000, 0.000000)">
                    <g id="Img" transform="translate(72.000000, 0.000000)">
                        <g id="Other/logo/white/_design-platform" transform="translate(15.000000, 15.000000)">
                            <rect id="area" opacity="0" x="0" y="0" width="48" height="48"></rect>
                            <path d="M39.2918344,28.333497 L39.2918344,32.5531299 L23.9776073,43.1781447 L8.69116219,32.5660415 L8.69116219,28.3453838 L23.9780189,38.957897 L39.2918344,28.333497 Z M8.69116219,20.0931107 L23.9780189,30.6923023 L39.2918344,20.0941354 L39.2918344,24.3094645 L23.9776073,34.9125501 L8.69116219,24.311514 L8.69116219,20.0931107 Z M26.6238883,4.73939758 L39.2918344,13.6399969 L39.2918344,15.9753564 L26.637059,24.8737013 L26.6238883,20.6464853 L35.139155,14.808189 L26.6238883,8.97440147 L26.6238883,4.73939758 Z M21.3318408,4.74855867 L21.3318408,8.9837675 L12.829539,14.8081275 L21.3318408,20.6372013 L21.3318408,24.8736398 L8.69105929,15.9851323 L8.69105929,13.630098 L21.3318408,4.74855867 Z" id="Logo" fill="#FFFFFF"></path>
                        </g>
                    </g>
                </g>
            </g>
        </g>
    </g>
</svg>