<?xml version="1.0" encoding="UTF-8"?>
<svg width="36px" height="36px" viewBox="0 0 36 36" version="1.1" xmlns="http://www.w3.org/2000/svg" xmlns:xlink="http://www.w3.org/1999/xlink">
    <!-- Generator: Sketch 63.1 (92452) - https://sketch.com -->
    <title>Desk-lamp_Icon_36x36 Copy 3</title>
    <desc>Created with Sketch.</desc>
    <defs>
        <linearGradient x1="23.2986003%" y1="100%" x2="84.4746492%" y2="18.6305682%" id="linearGradient-1">
            <stop stop-color="#467EC0" offset="0%"></stop>
            <stop stop-color="#41C3DE" offset="100%"></stop>
        </linearGradient>
    </defs>
    <g id="Desk-lamp_Icon_36x36-Copy-3" stroke="none" stroke-width="1" fill="none" fill-rule="evenodd">
        <path d="M8.76200162,20.6527305 C8.79384579,20.6527305 8.82536502,20.6515452 8.85688425,20.6503599 L10.8187125,25.6093537 L10.3867041,25.6093537 C9.04291267,25.6093537 7.94965037,26.6969553 7.94965037,28.0337889 L7.94965037,31.2663693 C7.94965037,31.7126808 8.31336711,32.0745144 8.76200162,32.0745144 L21.7596216,32.0745144 C22.2082561,32.0745144 22.5719728,31.7126808 22.5719728,31.2663693 L22.5719728,29.6500791 C22.5719728,27.4220231 20.749869,25.6093537 18.5102166,25.6093537 L16.0731628,25.6093537 L16.0731628,24.8012086 C16.0731628,24.354897 15.7094461,23.9930635 15.2608116,23.9930635 C14.8121771,23.9930635 14.4484604,24.354897 14.4484604,24.8012086 L14.4484604,25.6093537 L12.5647261,25.6093537 L10.3659621,20.0513089 C10.8760645,19.6066136 11.1991095,18.9544405 11.1991095,18.2282952 C11.1991095,17.8149021 11.0943162,17.42543 10.9101291,17.0845005 L16.8981868,11.1274476 L18.1325274,12.3553971 C17.0960755,13.9082749 17.2471187,16.0461419 18.649616,17.4413774 L19.7984432,18.5842562 C20.1156393,18.8998638 20.6300201,18.8998638 20.9472703,18.5842562 L28.9891144,10.583997 C29.3063647,10.2683894 29.3063647,9.75672578 28.9891144,9.44111819 L27.8402873,8.29823943 C26.4532788,6.9184125 24.3045014,6.74719349 22.7283234,7.78431301 L20.3728838,5.44101553 C19.1030164,4.17772313 17.0475511,4.1775615 15.7775212,5.44101553 C14.5200014,6.69197024 14.5113363,8.72122255 15.7500637,9.98386843 L9.70839081,15.9942051 C9.4172983,15.8716903 9.09744852,15.8039138 8.76200162,15.8039138 C7.41821019,15.8039138 6.32494788,16.8915155 6.32494788,18.2283491 C6.32494788,19.5651827 7.41821019,20.6527305 8.76200162,20.6527305 Z M20.9472703,29.6500791 L20.9472703,30.4582242 L9.57435287,30.4582242 L9.57435287,28.0337889 C9.57435287,27.5881777 9.93877364,27.2256438 10.3867041,27.2256438 L18.5102166,27.2256438 C19.854008,27.2256438 20.9472703,28.3132455 20.9472703,29.6500791 Z M26.6914602,9.44111819 L27.2659008,10.0125845 L20.3728838,16.8699111 L19.7984432,16.2984448 C18.8460426,15.3509754 18.8458801,13.8173855 19.7984432,12.8697545 L23.2448704,9.44117207 C23.2448704,9.44117207 23.2449246,9.44111819 23.2449246,9.44111819 C24.1951589,8.49585782 25.74128,8.49580396 26.6914602,9.44111819 L26.6914602,9.44111819 Z M16.9263483,6.58389431 C17.561282,5.95224811 18.5889605,5.95214036 19.2240025,6.58389431 L21.5216568,8.86965188 L19.2240025,11.1554633 C17.005038,8.90445599 17.3064203,9.22782178 16.9263483,8.86970574 C16.2928768,8.2395142 16.2928768,7.21408585 16.9263483,6.58389431 Z M8.76200162,17.4201501 C9.20993211,17.4201501 9.57435287,17.782684 9.57435287,18.2282952 C9.57435287,18.6739064 9.20993211,19.0364403 8.76200162,19.0364403 C8.31407114,19.0364403 7.94965037,18.6739064 7.94965037,18.2282952 C7.94965037,17.782684 8.31407114,17.4201501 8.76200162,17.4201501 Z M27.2718796,13.8436218 L27.7915506,14.3759705 C27.8390528,14.4246315 27.8381134,14.5025872 27.7894523,14.5500894 L27.7884954,14.5510135 L24.3851809,17.8022169 C24.3363848,17.8488321 24.2591587,17.8474842 24.212019,17.7991945 L23.692348,17.2668458 C23.6448458,17.2181848 23.6457852,17.1402291 23.6944462,17.0927269 L23.6954032,17.0918028 L27.0987176,13.8405994 C27.1475138,13.7939842 27.2247399,13.7953321 27.2718796,13.8436218 Z" id="Shape" fill="url(#linearGradient-1)" fill-rule="nonzero"></path>
    </g>
</svg>