<?xml version="1.0" encoding="UTF-8"?>
<svg width="64px" height="65px" viewBox="0 0 64 65" version="1.1" xmlns="http://www.w3.org/2000/svg" xmlns:xlink="http://www.w3.org/1999/xlink">
    <title>5EEDC876-87FA-4B4B-A473-33F81DDA0967@2x</title>
    <defs>
        <linearGradient x1="23.7896485%" y1="88.008125%" x2="79.1507825%" y2="10.6570508%" id="linearGradient-1">
            <stop stop-color="#467EC0" offset="0%"></stop>
            <stop stop-color="#1B9AD2" offset="49.1568917%"></stop>
            <stop stop-color="#41C3DE" offset="100%"></stop>
        </linearGradient>
    </defs>
    <g id="LP-Fix" stroke="none" stroke-width="1" fill="none" fill-rule="evenodd">
        <g id="LP-{Ready-to-Development}-UPD" transform="translate(-960.000000, -2532.000000)">
            <g id="Projects-&amp;-Feedback" transform="translate(120.000000, 2448.000000)">
                <g id="Logo">
                    <g id="Prj-Copy-6" transform="translate(816.000000, 60.000000)">
                        <g id="Group-3">
                            <g id="logo/elements" transform="translate(8.000000, 8.000000)">
                                <g id="logo">
                                    <rect id="area" opacity="0" x="0" y="0" width="96" height="96"></rect>
                                    <path d="M75.46715,57.7918 C77.00715,56.8873 79.02265,57.5158 79.74865,59.2123 C80.34865,60.6148 79.72965,62.2473 78.41415,63.0183 L78.41415,63.0183 L50.00715,79.6713 C48.75815,80.4038 47.21015,80.4038 45.96115,79.6713 L45.96115,79.6713 L17.57565,63.0313 C16.15915,62.2003 15.56315,60.3853 16.35015,58.9438 C17.16465,57.4518 19.04515,56.9373 20.50115,57.7918 L20.50115,57.7918 L46.46715,73.0123 C47.40415,73.5618 48.56415,73.5618 49.50115,73.0123 L49.50115,73.0123 Z M75.4673,45.21145 C77.0073,44.30795 79.0228,44.93595 79.7483,46.63245 C80.3483,48.03495 79.7298,49.66745 78.4138,50.43895 L78.4138,50.43895 L50.0073,67.09145 C48.7583,67.82345 47.2103,67.82345 45.9613,67.09145 L45.9613,67.09145 L17.5758,50.45095 C16.1593,49.62095 15.5633,47.80545 16.3498,46.36395 C17.1648,44.87195 19.0448,44.35695 20.5013,45.21145 L20.5013,45.21145 L46.4673,60.43295 C47.4043,60.98195 48.5643,60.98195 49.5013,60.43295 L49.5013,60.43295 Z M45.8667,16.5291 C47.1902,15.8231 48.7782,15.8231 50.1017,16.5291 L50.1017,16.5291 L77.7912,31.2966 C80.5742,32.7811 80.6247,36.7516 77.8812,38.3066 L77.8812,38.3066 L50.2027,53.9911 C48.8267,54.7706 47.1417,54.7706 45.7657,53.9911 L45.7657,53.9911 L18.0877,38.3066 C15.3437,36.7516 15.3942,32.7811 18.1772,31.2966 L18.1772,31.2966 Z M47.9842,21.7996 L23.9842,34.7996 L47.9842,48.7996 L71.9842,34.8791 L47.9842,21.7996 Z" id="Combined-Shape" fill="url(#linearGradient-1)"></path>
                                </g>
                            </g>
                        </g>
                    </g>
                </g>
            </g>
        </g>
    </g>
</svg>