<svg width="82px" height="30px" viewBox="0 0 82 30" version="1.1" xmlns="http://www.w3.org/2000/svg" >
    <g transform="translate(12.187156, 0.000000)" fill="#FFFFFF">
        <path d="M3.26495413,10.185 L7.79376147,10.185 L7.79376147,5.19 C7.79376147,3.795 7.13174312,3.09 5.77761468,3.09 L5.26605505,3.09 C3.92697248,3.09 3.24990826,3.795 3.24990826,5.19 L3.24990826,10.185 L3.26495413,10.185 Z M3.26495413,13.38 L3.28,18.87 C3.28,20.265 3.95706422,20.955 5.29614679,20.955 L5.88293578,20.955 C7.22201835,20.955 7.89908257,20.265 7.89908257,18.87 L7.89908257,16.17 L10.9834862,16.17 L10.9834862,18.735 C10.9834862,22.26 9.26825688,24.06 5.86788991,24.06 L5.19082569,24.06 C1.79045872,24.06 0.0752293578,22.275 0.0752293578,19.155 L0.0752293578,5.73 C0.0752293578,1.785 1.79045872,0 5.19082569,0 L5.86788991,0 C9.26825688,0 10.9834862,1.785 10.9834862,5.31 L10.9684404,13.365 L3.26495413,13.365 L3.26495413,13.38 Z" id="Shape"></path>
        <path d="M16.2344954,19.695 C17.107156,20.475 18.1152294,20.91 19.1684404,20.91 C20.3420183,20.91 21.0190826,20.34 21.0190826,18.99 L21.0190826,5.04 C21.0190826,3.69 20.3420183,3.12 19.1684404,3.12 C18.1152294,3.12 17.107156,3.555 16.2344954,4.335 L16.2344954,19.695 Z M13.0447706,0.27 L16.2344954,0.27 L16.2344954,1.8 C16.986789,0.975 18.2807339,0.015 20.1313761,0.015 C22.8546789,0.015 24.1937615,1.89 24.1937615,4.68 L24.1937615,19.41 C24.1937615,22.2 22.8546789,24.075 20.1313761,24.075 C18.2807339,24.075 16.986789,23.16 16.2344954,22.38 L16.2344954,29.97 L13.0447706,29.97 L13.0447706,0.27 L13.0447706,0.27 Z" id="Shape"></path>
        <path d="M33.7478899,19.83 L33.7478899,12.075 L30.8590826,13.215 C29.6855046,13.695 29.3093578,14.31 29.3093578,15.66 L29.3093578,19.23 C29.3093578,20.37 29.8510092,20.925 30.8590826,20.925 C31.8220183,20.925 32.7097248,20.58 33.7478899,19.83 M26.119633,15.6 C26.119633,12.675 27.0374312,11.505 29.4748624,10.635 L33.7478899,9.105 L33.7478899,5.19 C33.7478899,3.795 33.0708257,3.06 31.7317431,3.06 L31.2201835,3.06 C29.8811009,3.06 29.2040367,3.795 29.2040367,5.19 L29.2040367,8.52 L26.1045872,8.52 L26.1045872,5.325 C26.1045872,1.8 27.8198165,0.015 31.2201835,0.015 L31.8220183,0.015 C35.2223853,0.015 36.9376147,1.8 36.9376147,5.325 L36.9376147,23.805 L33.7478899,23.805 L33.7478899,22.32 C32.8752294,23.19 31.6866055,24.06 29.8510092,24.06 C27.293211,24.06 26.119633,22.53 26.119633,19.92 L26.119633,15.6 L26.119633,15.6 Z" id="Shape"></path>
        <path d="M49.8168807,23.805 L46.627156,23.805 L46.627156,4.845 C46.627156,3.675 46.0855046,3.15 45.1225688,3.15 C44.2499083,3.15 43.3170642,3.495 42.1886239,4.32 L42.1886239,23.805 L38.9988991,23.805 L38.9988991,0.27 L42.1886239,0.27 L42.1886239,1.8 C43.1214679,0.885 44.3251376,0 46.0855046,0 C47.7255046,0 48.8088073,0.705 49.3955963,1.92 C50.5390826,0.915 51.8781651,0 53.7137615,0 C56.1812844,0 57.4451376,1.575 57.4451376,4.14 L57.4451376,23.79 L54.2554128,23.79 L54.2554128,4.845 C54.2554128,3.675 53.7137615,3.15 52.7508257,3.15 C51.8781651,3.15 50.9453211,3.495 49.8168807,4.32 L49.8168807,23.805 Z" id="Path"></path>

    </g>
    <polygon id="Path" fill="#FFFFFF" points="0 10.53 0 13.71 8.18495413 21.705 8.18495413 17.28 2.82862385 12.075 8.18495413 6.765 8.18495413 2.43"></polygon>
    <polygon id="Path" fill="#FFFFFF" points="73.679633 6.765 79.0359633 12.075 73.679633 17.295 73.679633 21.705 81.8645872 13.71 81.8645872 10.53 73.679633 2.43"></polygon>
</svg>