<?xml version="1.0" encoding="UTF-8"?>
<svg width="76px" height="74px" viewBox="0 0 76 74" version="1.1" xmlns="http://www.w3.org/2000/svg" xmlns:xlink="http://www.w3.org/1999/xlink">
    <title>49B4CA6B-0BA3-42C3-8644-BCEE9CEB1633@2x</title>
    <defs>
        <linearGradient x1="100%" y1="9.45072071%" x2="3.48566002%" y2="96.2741593%" id="linearGradient-1">
            <stop stop-color="#C8DE49" offset="0%"></stop>
            <stop stop-color="#62A231" offset="100%"></stop>
        </linearGradient>
    </defs>
    <g id="LP-Fix" stroke="none" stroke-width="1" fill="none" fill-rule="evenodd">
        <g id="LP-{Ready-to-Development}-UPD" transform="translate(-1090.000000, -2527.000000)">
            <g id="Projects-&amp;-Feedback" transform="translate(120.000000, 2448.000000)">
                <g id="Logo">
                    <g id="Prj-Copy-7" transform="translate(952.000000, 60.000000)">
                        <g id="Group-3">
                            <g id="logo/events" transform="translate(8.000000, 8.000000)">
                                <g id="logo">
                                    <rect id="area" opacity="0" x="0" y="0" width="96" height="96"></rect>
                                    <path d="M55.87835,41.5001029 L53.37835,41.5001029 C52.52335,41.5001029 51.83535,42.2161 51.88035,43.0806 C51.92285,43.8916 52.65085,44.5001029 53.46335,44.5001029 L55.87835,44.5001029 L55.87835,47.5001029 L53.37835,47.5001029 C52.52335,47.5001029 51.83535,48.2161 51.88035,49.0806 C51.92285,49.8916 52.65085,50.5001029 53.46335,50.5001029 L55.87835,50.5001029 L55.87835,53.5001029 L53.37835,53.5001029 C52.52335,53.5001029 51.83535,54.2161 51.88035,55.0806 C51.92285,55.8916 52.65085,56.5001029 53.46335,56.5001029 L55.46685,56.5001029 C54.41635,59.6921 51.42185,62.0001029 47.87835,62.0001029 C44.33485,62.0001029 41.34035,59.6921 40.28985,56.5001029 L42.37835,56.5001029 C43.20685,56.5001029 43.87835,55.8286 43.87835,55.0001029 C43.87835,54.1716 43.20685,53.5001029 42.37835,53.5001029 L39.87835,53.5001029 L39.87835,50.5001029 L42.37835,50.5001029 C43.23335,50.5001029 43.92135,49.7841 43.87635,48.9196 C43.83385,48.1086 43.10585,47.5001029 42.29335,47.5001029 L39.87835,47.5001029 L39.87835,44.5001029 L42.37835,44.5001029 C43.23335,44.5001029 43.92135,43.7841 43.87635,42.9196 C43.83385,42.1086 43.10585,41.5001029 42.29335,41.5001029 L39.87835,41.5001029 C39.87835,36.2636 44.90985,32.2021 50.40185,33.8861 C53.70085,34.8976 55.87835,38.0471 55.87835,41.4976 L55.87835,41.5001029 Z M84.23785,37.9256 L60.34185,34.4226 L49.65585,12.5766 C48.95335,11.1411 46.92485,11.1411 46.22235,12.5766 L35.53635,34.4226 L11.64085,37.9256 C10.07085,38.1556 9.44385,40.1021 10.57985,41.2191 L27.87085,58.2236 L23.78935,82.2346 C23.52085,83.8121 25.16185,85.0151 26.56635,84.2706 L45.87835,74.0271 L45.87835,69.3706 C37.99685,68.3831 31.87835,61.6446 31.87835,53.5001 L31.87835,47.5001 C31.87835,46.3956 32.77385,45.5001 33.87835,45.5001 C34.98285,45.5001 35.87835,46.3956 35.87835,47.5001 L35.87835,53.5001 C35.87835,60.1166 41.26185,65.5001 47.87835,65.5001 C54.49485,65.5001 59.87835,60.1166 59.87835,53.5001 L59.87835,47.5001 C59.87835,46.3956 60.77385,45.5001 61.87835,45.5001 C62.98285,45.5001 63.87835,46.3956 63.87835,47.5001 L63.87835,53.5001 C63.87835,61.6446 57.75985,68.3831 49.87835,69.3706 L49.87835,73.9626 L69.31185,84.2706 C70.71635,85.0151 72.35735,83.8121 72.08935,82.2346 L68.00735,58.2236 L85.29835,41.2191 C86.43385,40.1021 85.80735,38.1556 84.23785,37.9256 L84.23785,37.9256 Z" id="events" fill="url(#linearGradient-1)"></path>
                                </g>
                            </g>
                        </g>
                    </g>
                </g>
            </g>
        </g>
    </g>
</svg>