<svg width="512" height="512" fill="none" xmlns="http://www.w3.org/2000/svg"><path fill-rule="evenodd" clip-rule="evenodd" d="M367.688 449.866 478.98 257.334 367.688 64.804H145.103L33.81 257.333l111.293 192.532h222.585Zm-13.277-288.1c-10.13-17.63-19.121-32.881-19.979-33.893-1.457-1.719-14.34-1.839-81.099-1.839-4.772 0-9.229-.001-13.394-.003-52.338-.016-58.398-.018-60.545 2.997-.282.395-.496.841-.738 1.346-.147.307-.305.636-.494.987-.577 1.072-10.594 18.358-22.259 38.413-11.665 20.054-22.312 38.398-23.662 40.763-1.348 2.366-7.844 13.658-14.434 25.094l-11.984 20.794 1.95 2.852c1.907 2.793 14.115 23.986 25.858 44.89 12.176 21.675 24.88 44.192 25.792 45.715 2.187 3.652 10.669 18.59 11.874 20.913.719 1.388 3.424 5.999 6.011 10.247l4.702 7.724h149.248l2.256-2.364c1.241-1.301 7.653-11.823 14.249-23.383a8271.575 8271.575 0 0 1 20.423-35.586c4.636-8.011 8.429-14.987 8.429-15.501 0-.526-13.893-.934-31.738-.934h-39.852l-6.689 9.983c-4.943 7.379-7.27 9.997-8.913 10.033-12.498.27-76.822-.261-77.776-.641-.69-.276-5.209-8.177-10.041-17.557-4.833-9.382-9.705-18.476-10.826-20.21-1.121-1.734-2.042-3.981-2.046-4.992-.006-1.681 1.502-1.839 17.584-1.839h17.591l6.901-3.8c3.796-2.09 8.719-4.847 10.941-6.126a7292.275 7292.275 0 0 1 18.47-10.531c7.936-4.514 14.284-8.665 14.104-9.225-.179-.559-11.445-6.964-25.034-14.232l-24.709-13.213-17.927.263c-17.792.261-17.928.247-17.928-2.014 0-1.252.843-3.532 1.872-5.066 1.03-1.535 6.101-10.947 11.271-20.918l9.399-18.129h82.599l1.515 3.941c.833 2.168 2.508 6.187 3.722 8.933l2.207 4.992h41.707c35.422 0 35.73-.045 31.703-4.662-1.04-1.193-10.18-16.593-20.311-34.222Z" fill="#fff"/><path fill-rule="evenodd" clip-rule="evenodd" d="M367.688 449.866 478.98 257.334 367.688 64.804H145.103L33.81 257.333l111.293 192.532h222.585Zm-13.277-288.1c-10.13-17.63-19.121-32.881-19.979-33.893-1.457-1.719-14.34-1.839-81.099-1.839-4.772 0-9.229-.001-13.394-.003-52.338-.016-58.398-.018-60.545 2.997-.282.395-.496.841-.738 1.346-.147.307-.305.636-.494.987-.577 1.072-10.594 18.358-22.259 38.413-11.665 20.054-22.312 38.398-23.662 40.763-1.348 2.366-7.844 13.658-14.434 25.094l-11.984 20.794 1.95 2.852c1.907 2.793 14.115 23.986 25.858 44.89 12.176 21.675 24.88 44.192 25.792 45.715 2.187 3.652 10.669 18.59 11.874 20.913.719 1.388 3.424 5.999 6.011 10.247l4.702 7.724h149.248l2.256-2.364c1.241-1.301 7.653-11.823 14.249-23.383a8271.575 8271.575 0 0 1 20.423-35.586c4.636-8.011 8.429-14.987 8.429-15.501 0-.526-13.893-.934-31.738-.934h-39.852l-6.689 9.983c-4.943 7.379-7.27 9.997-8.913 10.033-12.498.27-76.822-.261-77.776-.641-.69-.276-5.209-8.177-10.041-17.557-4.833-9.382-9.705-18.476-10.826-20.21-1.121-1.734-2.042-3.981-2.046-4.992-.006-1.681 1.502-1.839 17.584-1.839h17.591l6.901-3.8c3.796-2.09 8.719-4.847 10.941-6.126a7292.275 7292.275 0 0 1 18.47-10.531c7.936-4.514 14.284-8.665 14.104-9.225-.179-.559-11.445-6.964-25.034-14.232l-24.709-13.213-17.927.263c-17.792.261-17.928.247-17.928-2.014 0-1.252.843-3.532 1.872-5.066 1.03-1.535 6.101-10.947 11.271-20.918l9.399-18.129h82.599l1.515 3.941c.833 2.168 2.508 6.187 3.722 8.933l2.207 4.992h41.707c35.422 0 35.73-.045 31.703-4.662-1.04-1.193-10.18-16.593-20.311-34.222Z" fill="url(#a)"/><defs><linearGradient id="a" x1="738.188" y1="170.029" x2="-309.544" y2="554.74" gradientUnits="userSpaceOnUse"><stop stop-color="#467EC0"/><stop offset=".492" stop-color="#1B9AD2"/><stop offset="1" stop-color="#41C3DE"/></linearGradient></defs></svg>
