<svg xmlns="http://www.w3.org/2000/svg" width="72" height="72" fill="none" viewBox="0 0 72 72">
  <rect width="58" height="58" x="7" y="7" fill="#1E1E1E" rx="10.44"/>
  <path fill="#1ABCFE" d="M35.999 36a5.37 5.37 0 1 1 10.74 0A5.37 5.37 0 0 1 36 36Z"/>
  <path fill="#0ACF83" d="M25.258 46.739a5.37 5.37 0 0 1 5.37-5.37h5.37v5.37a5.37 5.37 0 1 1-10.74 0Z"/>
  <path fill="#FF7262" d="M35.999 19.889v10.74h5.37a5.37 5.37 0 1 0 0-10.74H36Z"/>
  <path fill="#F24E1E" d="M25.258 25.26a5.37 5.37 0 0 0 5.37 5.37h5.37V19.889h-5.37a5.37 5.37 0 0 0-5.37 5.37Z"/>
  <path fill="#A259FF" d="M25.258 36a5.37 5.37 0 0 0 5.37 5.37h5.37V30.629h-5.37a5.37 5.37 0 0 0-5.37 5.37Z"/>
</svg>
