<?xml version="1.0" encoding="UTF-8"?>
<svg width="24px" height="24px" viewBox="0 0 24 24" version="1.1" xmlns="http://www.w3.org/2000/svg" xmlns:xlink="http://www.w3.org/1999/xlink">
    <title>Git_icon/24</title>
    <g id="Git_icon/24" stroke="none" stroke-width="1" fill-rule="evenodd">
        <path d="M10.882907,0.452710681 C11.4490279,-0.11317767 12.3445647,-0.148545692 12.9514321,0.346606615 L13.0687736,0.452710681 L23.5472992,10.930942 C24.1131752,11.4968303 24.1485425,12.3928304 23.6534009,12.9999827 L23.5472992,13.1173785 L13.1176154,23.5472893 C12.5512496,24.1131777 11.6559271,24.1485457 11.0490874,23.6533934 L10.9317488,23.5472893 L0.452700828,13.0687968 C-0.113175207,12.5029085 -0.148542459,11.6073675 0.346599071,10.9998422 L0.452700828,10.8823603 L7.637,3.698 L10.1580203,6.21950238 C10.0766264,6.41135233 10.0243297,6.61853536 10.0066668,6.83551496 L10,7 C10,7.78329169 10.4502905,8.46141238 11.1061344,8.78962486 L11.2497294,8.85451118 L11.2497294,15.1454888 C10.5169152,15.4422498 10,16.1607589 10,17 C10,18.1045695 10.8954305,19 12,19 C13.1045695,19 14,18.1045695 14,17 C14,16.2169642 13.5500036,15.5390307 12.8945083,15.2106969 L12.7509888,15.1457798 L12.7509888,8.85422019 L12.7809801,8.84177496 L15.1580203,11.2195024 C15.0562779,11.4593148 15,11.7230852 15,12 C15,13.1045695 15.8954305,14 17,14 C18.1045695,14 19,13.1045695 19,12 C19,10.8954305 18.1045695,10 17,10 C16.7784682,10 16.5653487,10.0360179 16.3661783,10.1025171 L16.2195024,10.1580203 L13.841775,7.78098013 C13.9436465,7.54103902 14,7.27710054 14,7 C14,5.8954305 13.1045695,5 12,5 C11.7784682,5 11.5653487,5.03601788 11.3661783,5.1025171 L11.2195024,5.15802025 L8.698,2.637 L10.882907,0.452710681 Z"></path>
    </g>
</svg>