<?xml version="1.0" encoding="UTF-8"?>
<svg width="18px" height="18px" viewBox="0 0 18 18" version="1.1" xmlns="http://www.w3.org/2000/svg" xmlns:xlink="http://www.w3.org/1999/xlink">
    <title>Git_icon/18</title>
    <g id="Git_icon/18" stroke="none" stroke-width="1" fill-rule="evenodd">
        <path d="M8.16218025,0.339533011 C8.5827272,-0.0808411931 9.24565253,-0.110867922 9.70051129,0.249452824 L9.80158018,0.339533011 L17.6604744,8.19820648 C18.0808394,8.61858069 18.1108655,9.28184527 17.7505526,9.7369181 L17.6604744,9.83803388 L9.83821153,17.660467 C9.41748268,18.0808412 8.75471326,18.1108679 8.29987771,17.7505472 L8.1988116,17.660467 L0.339525621,9.80159762 C-0.0808394335,9.38122342 -0.110865509,8.71829665 0.249447395,8.26295839 L0.339525621,8.16177023 L5.897,2.604 L7.64618122,4.3533012 C7.57590117,4.50016274 7.52881426,4.66024206 7.50966331,4.82879636 L7.5,5 C7.5,5.60262772 7.85537162,6.12225396 8.36798302,6.36074686 L8.49929704,6.41439849 L8.49929704,11.5856015 C7.91706808,11.7917181 7.5,12.3471533 7.5,13 C7.5,13.8284271 8.17157288,14.5 9,14.5 C9.82842712,14.5 10.5,13.8284271 10.5,13 C10.5,12.3973723 10.1446284,11.877746 9.63201698,11.6392531 L9.50070296,11.5856015 L9.50070296,6.41439849 L9.57467155,6.385976 L9.57467155,6.385976 L9.6466988,6.35381878 L11.6457083,8.35429037 C11.5522979,8.54985504 11.5,8.7688201 11.5,9 C11.5,9.82842712 12.1715729,10.5 13,10.5 C13.8284271,10.5 14.5,9.82842712 14.5,9 C14.5,8.17157288 13.8284271,7.5 13,7.5 C12.8263227,7.5 12.6595394,7.5295169 12.504393,7.58380787 L12.3533012,7.64618122 L10.3538188,5.6466988 C10.4475255,5.45088342 10.5,5.23156975 10.5,5 C10.5,4.17157288 9.82842712,3.5 9,3.5 C8.82632269,3.5 8.65953942,3.5295169 8.50439301,3.58380787 L8.3533012,3.64618122 L6.604,1.897 L8.16218025,0.339533011 Z"></path>
    </g>
</svg>