<?xml version="1.0" encoding="UTF-8"?>
<svg width="90px" height="90px" viewBox="0 0 90 90" version="1.1" xmlns="http://www.w3.org/2000/svg" xmlns:xlink="http://www.w3.org/1999/xlink">
    <title>Github</title>
    <defs>
        <filter id="git-filter-1">
            <feColorMatrix in="SourceGraphic" type="matrix" values="0 0 0 0 0.007843 0 0 0 0 0.356863 0 0 0 0 0.839216 0 0 0 1.000000 0"></feColorMatrix>
        </filter>
    </defs>
    <g id="OpenSource-UPD" stroke="none" stroke-width="1" fill="none" fill-rule="evenodd">
        <g id="Desktop" transform="translate(-132.000000, -4528.000000)">
            <g id="Team-&amp;-Contacts" transform="translate(0.000000, 4036.000000)">
                <g id="GIT" transform="translate(120.000000, 480.000000)">
                    <g id="Github" transform="translate(12.000000, 12.000000)">
                        <rect id="Rectangle" fill="#FFFFFF" fill-rule="nonzero" x="0" y="0" width="90" height="90"></rect>
                        <g id="Icons/24/social-network-github" transform="translate(17.000000, 17.000000)" filter="url(#git-filter-1)">
                            <g>
                                <path d="M28,4.66666667 C15.1133558,4.66666667 4.66666667,15.1133558 4.66666667,28 C4.66666667,38.3133333 11.3633333,47.0633333 20.6266667,50.1666667 C21.7933333,50.3533333 22.1666667,49.63 22.1666667,49 C22.1666667,48.4633333 22.1666667,46.9933333 22.1666667,45.0566667 C15.7033333,46.4566667 14.3266667,41.93 14.3266667,41.93 C13.2533333,39.2233333 11.7366667,38.5 11.7366667,38.5 C9.61333333,37.0533333 11.9,37.1 11.9,37.1 C14.2333333,37.2633333 15.47,39.5033333 15.47,39.5033333 C17.5,43.05 20.93,42 22.26,41.44 C22.47,39.9233333 23.0766667,38.8966667 23.73,38.3133333 C18.55,37.73 13.1133333,35.7233333 13.1133333,26.8333333 C13.1133333,24.2433333 14,22.1666667 15.5166667,20.51 C15.2833333,19.9266667 14.4666667,17.5 15.75,14.35 C15.75,14.35 17.71,13.72 22.1666667,16.73 C24.01,16.2166667 26.0166667,15.96 28,15.96 C29.9833333,15.96 31.99,16.2166667 33.8333333,16.73 C38.29,13.72 40.25,14.35 40.25,14.35 C41.5333333,17.5 40.7166667,19.9266667 40.4833333,20.51 C42,22.1666667 42.8866667,24.2433333 42.8866667,26.8333333 C42.8866667,35.7466667 37.4266667,37.7066667 32.2233333,38.29 C33.0633333,39.0133333 33.8333333,40.4366667 33.8333333,42.6066667 C33.8333333,45.7333333 33.8333333,48.2533333 33.8333333,49 C33.8333333,49.63 34.2066667,50.3766667 35.3966667,50.1666667 C44.66,47.04 51.3333333,38.3133333 51.3333333,28 C51.3333333,21.8116152 48.8750071,15.8766906 44.4991582,11.5008418 C40.1233094,7.12499294 34.1883848,4.66666667 28,4.66666667 Z" id="icon" fill="#45FF00"></path>
                            </g>
                        </g>
                    </g>
                </g>
            </g>
        </g>
    </g>
</svg>