<svg width="36" height="36" viewBox="0 0 36 36" fill="none" xmlns="http://www.w3.org/2000/svg">
<rect x="0.5" y="0.5" width="35" height="35" rx="2.5" fill="white" stroke="#1D1E26" stroke-linecap="round" stroke-linejoin="round"/>
<path d="M0 3C0 1.34315 1.34315 0 3 0H33C34.6569 0 36 1.34315 36 3V6H0V3Z" fill="#E54322"/>
<path d="M3 4C3.55228 4 4 3.55229 4 3C4 2.44772 3.55228 2 3 2C2.44771 2 2 2.44772 2 3C2 3.55229 2.44771 4 3 4Z" fill="white"/>
<path d="M6 4C6.55229 4 7 3.55229 7 3C7 2.44772 6.55229 2 6 2C5.44772 2 5 2.44772 5 3C5 3.55229 5.44772 4 6 4Z" fill="white"/>
<path d="M9 4C9.55228 4 10 3.55229 10 3C10 2.44772 9.55228 2 9 2C8.44771 2 8 2.44772 8 3C8 3.55229 8.44771 4 9 4Z" fill="white"/>
<path d="M10.7322 16.4644C11.6889 16.4644 12.4644 15.6889 12.4644 14.7322C12.4644 13.7755 11.6889 13 10.7322 13C9.77554 13 9 13.7755 9 14.7322C9 15.6889 9.77554 16.4644 10.7322 16.4644Z" fill="#1D1E26"/>
<path d="M25.3485 16.4644C26.3052 16.4644 27.0808 15.6889 27.0808 14.7322C27.0808 13.7755 26.3052 13 25.3485 13C24.3919 13 23.6163 13.7755 23.6163 14.7322C23.6163 15.6889 24.3919 16.4644 25.3485 16.4644Z" fill="#1D1E26"/>
<path d="M13.7069 21.3805C14.117 22.1755 14.738 22.8422 15.5019 23.3076C16.2657 23.7731 17.143 24.0193 18.0375 24.0193C18.932 24.0193 19.8092 23.7731 20.5731 23.3076C21.3369 22.8422 21.9579 22.1755 22.368 21.3805" stroke="#1D1E26" stroke-linecap="round" stroke-linejoin="round"/>
</svg>
