<?xml version="1.0" encoding="UTF-8"?>
<svg width="55px" height="60px" viewBox="0 0 55 60" version="1.1" xmlns="http://www.w3.org/2000/svg" xmlns:xlink="http://www.w3.org/1999/xlink">
    <title>jest</title>
    <g id="LP-Fix" stroke="none" stroke-width="1" fill="none" fill-rule="evenodd">
        <g id="LP-{Ready-to-Development}-UPD" transform="translate(-1266.000000, -4096.000000)" fill-rule="nonzero">
            <g id="Logotypes" transform="translate(120.000000, 4096.000000)">
                <g id="jest" transform="translate(1146.000000, 0.000000)">
                    <path d="M50.7885528,29.461581 C50.7885528,26.3855546 48.295003,23.8920049 45.2188404,23.8920049 C45.0210541,23.8920049 44.8258524,23.9026151 44.6335071,23.9227473 L52.2833767,1.36027758 L19.7739137,1.36027758 L27.4131729,23.9031592 C27.3010849,23.8963577 27.1884528,23.8920049 27.0747324,23.8920049 C23.9987061,23.8920049 21.5050202,26.3855546 21.5050202,29.461581 C21.5050202,31.9480573 23.1345129,34.0529718 25.3834825,34.7691651 C24.1956761,36.8267417 22.7009881,38.6798663 21.004025,40.280929 C18.696563,42.457803 16.0556937,44.1083803 13.1993543,45.1256061 C9.79876234,43.3785842 8.19280257,39.4934565 9.64192077,36.0868792 C9.80542777,35.7021888 9.97260757,35.3123294 10.1321697,34.9241023 C12.5959291,34.3491072 14.4316421,32.1405386 14.4316421,29.5015736 C14.4316421,26.4255471 11.9380923,23.9319973 8.8619298,23.9319973 C5.78590334,23.9319973 3.29221753,26.4255471 3.29221753,29.5015736 C3.29221753,31.3878895 4.23081846,33.0539739 5.66538155,34.0615416 C4.28686247,37.2002775 2.26043667,40.4851088 1.62912554,44.2922917 C0.872531576,48.8549805 1.62667701,53.6981612 5.57288175,56.4332987 C14.7632811,62.8029982 24.7393847,52.4845094 35.2578363,49.8907062 C39.0699161,48.9506088 43.2543078,49.1021453 46.6128668,47.156929 C49.1349827,45.6961122 50.7976666,43.275338 51.2695516,40.5574762 C51.7357234,37.8725334 51.056122,35.1992892 49.4931475,33.0316652 C50.3015684,32.0649064 50.7885528,30.820376 50.7885528,29.461581" id="Path" fill="#99425B"></path>
                    <path d="M49.9293655,40.3247031 C49.5196459,42.6842644 48.0623659,44.7453776 45.9310618,45.9798418 C43.9443564,47.130512 41.5635748,47.4739855 39.0429553,47.8374553 C37.6925943,48.0321131 36.2962552,48.2335722 34.9321552,48.5699722 C31.3253432,49.4593306 27.8318434,51.194654 24.4534242,52.8727092 C17.6923689,56.2309961 11.853455,59.1308648 6.34781243,55.3152481 C2.31495714,52.5201218 2.50118101,47.3487028 2.97102558,44.5148082 C3.4064548,41.8893102 4.58365079,39.4713927 5.72207847,37.132916 C5.91877658,36.7286375 6.11152984,36.3318405 6.29911401,35.9384442 C6.86336279,36.1638445 7.46352327,36.3176934 8.08912117,36.3876125 C6.93028912,40.212071 8.75267122,44.3704813 12.57781,46.3355578 L13.1012501,46.6044876 L13.6557048,46.4071092 C16.6796321,45.3301666 19.4660526,43.6020528 21.9375655,41.2702416 C23.5350916,39.7630391 24.9087136,38.0955941 26.0376193,36.3138846 C26.3760598,36.3648956 26.7222539,36.3916934 27.0747053,36.3916934 C30.5853447,36.3916934 33.4925591,33.7671475 33.9424075,30.377438 C35.3794189,30.3247946 36.9058018,30.3243865 38.3511112,30.3768937 C38.8006874,33.7668755 41.7080377,36.3916934 45.2188132,36.3916934 C46.6867035,36.3916934 48.0483549,35.9316428 49.1700511,35.1501555 C49.9488178,36.7442807 50.2395121,38.5379608 49.9293655,40.3247031 Z M8.8619026,25.2922613 C11.1831035,25.2922613 13.0713237,27.1806176 13.0713237,29.5016824 C13.0713237,30.3354049 12.8267433,31.1128113 12.4066854,31.7675194 C11.7068156,32.8587449 10.5177851,33.6067692 9.1511005,33.7000851 C9.05547204,33.7066145 8.95916343,33.7111035 8.8619026,33.7111035 C8.3447199,33.7111035 7.8491658,33.6166993 7.39101973,33.4454385 C6.46425335,33.0985643 5.69201606,32.4336541 5.20625606,31.5845604 C4.8546208,30.9698447 4.65248152,30.2590925 4.65248152,29.5016824 C4.65248152,27.1806176 6.54083775,25.2922613 8.8619026,25.2922613 Z M22.8652842,29.4616898 C22.8652842,27.3528303 24.424178,25.6017276 26.4499236,25.2989269 C26.6538312,25.2683203 26.8624999,25.2522687 27.0747053,25.2522687 C28.4241142,25.2522687 29.6255233,25.8916056 30.3961283,26.8821698 C30.5876572,27.1282463 30.7537488,27.3952715 30.8874655,27.6803886 C31.1414317,28.2217845 31.2841264,28.8252095 31.2841264,29.4616898 C31.2841264,29.7982259 31.2433177,30.1253758 31.1683656,30.4391951 C30.7581017,32.1565626 29.2937483,33.4691078 27.4993883,33.6497544 C27.3598223,33.6637654 27.2180801,33.671111 27.0747053,33.671111 C26.2343173,33.671111 25.4513339,33.4225857 24.7933609,32.9965425 C23.6343929,32.2457979 22.8652842,30.9422307 22.8652842,29.4616898 Z M40.4338531,24.4562264 C39.532116,25.3190591 38.8614924,26.4214391 38.5275409,27.6610724 C36.9687833,27.6025798 35.3158934,27.6025798 33.7661137,27.6610724 C33.4101254,26.3398215 32.6717593,25.1741881 31.6786109,24.2887745 L36.0342632,15.4812972 L40.4338531,24.4562264 Z M21.6712206,2.72067759 L50.3857433,2.72067759 L43.6037396,22.7232155 C43.3097805,22.7938145 43.0230312,22.8826414 42.7447155,22.9894245 L36.0450095,9.32230675 L29.3263953,22.9078069 C29.0359732,22.8078254 28.7367091,22.7272963 28.4303714,22.6662193 L21.6712206,2.72067759 Z M49.4282343,29.4616898 C49.4282343,29.8837883 49.3651168,30.2911955 49.249084,30.6758858 C48.9726727,31.5910898 48.3926447,32.3752976 47.6266647,32.9115244 C46.9437986,33.3895306 46.1137488,33.671111 45.2188132,33.671111 C43.2752292,33.671111 41.6356702,32.3465953 41.1537191,30.5529155 C41.060131,30.204681 41.0093922,29.8390346 41.0093922,29.4616898 C41.0093922,28.8862866 41.1256972,28.3376811 41.3355899,27.8377743 C41.4437332,27.5801351 41.5786741,27.336643 41.7336112,27.107842 C42.4911575,25.9898186 43.769559,25.2522687 45.2188132,25.2522687 C45.3517136,25.2522687 45.4828459,25.2592062 45.6126176,25.2713129 C47.749771,25.4704594 49.4282343,27.2733895 49.4282343,29.4616898 Z M52.1488166,29.4616898 C52.1488166,26.0783735 49.711175,23.2554973 46.5004796,22.6523442 L54.1808196,9.52203831e-05 L17.8766883,9.52203831e-05 L25.5687269,22.6984582 C22.4694394,23.3881257 20.1447018,26.1576787 20.1447018,29.4616898 C20.1447018,31.9425888 21.4558866,34.1219114 23.4208272,35.3464457 C22.4756968,36.7546189 21.3548169,38.0796787 20.070566,39.2914259 C18.0335299,41.2131093 15.7642921,42.6703893 13.3178085,43.6292587 C10.853641,42.0813833 9.81192996,39.1623343 10.8937695,36.61927 L10.9785157,36.4199873 C11.0315671,36.2955208 11.0846184,36.170782 11.1375337,36.0460433 C13.8441051,35.1020012 15.7919061,32.5258817 15.7919061,29.5016824 C15.7919061,25.6803524 12.6830966,22.571679 8.8619026,22.571679 C5.04070864,22.571679 1.93189915,25.6803524 1.93189915,29.5016824 C1.93189915,31.4304392 2.72467686,33.1770532 4.00062999,34.4346424 C3.76938049,34.9274758 3.52588836,35.4287432 3.27600286,35.9419811 C2.10941715,38.3381339 0.787214114,41.0539554 0.287171073,44.0697208 C-0.705977523,50.059083 0.896037407,54.8468998 4.79803268,57.5512948 C7.16589155,59.19235 9.57034225,59.8375361 11.9901642,59.8375361 C16.5465956,59.8375361 21.1556702,57.5484382 25.6636753,55.3092628 C28.9102821,53.6967736 32.2674808,52.0291927 35.5835987,51.2113857 C36.8173828,50.9070884 38.0870786,50.7239932 39.4313184,50.5301519 C42.096809,50.1455975 44.8531671,49.7481204 47.2946175,48.3340978 C50.1247035,46.6948109 52.0620301,43.9451182 52.6098193,40.7901948 C53.0800722,38.0817191 52.514191,35.3688903 51.1339035,33.0683659 C51.7773212,32.0169969 52.1488166,30.7819885 52.1488166,29.4616898 Z" id="Shape" fill="#FFFFFF"></path>
                </g>
            </g>
        </g>
    </g>
</svg>