<?xml version="1.0" encoding="UTF-8"?>
<svg width="192px" height="192px" viewBox="0 0 192 192" version="1.1" xmlns="http://www.w3.org/2000/svg" xmlns:xlink="http://www.w3.org/1999/xlink">
    <title>Other/logo/colored/learn</title>
    <defs>
        <linearGradient x1="23.5906059%" y1="69.8251706%" x2="79.3721548%" y2="29.4785804%" id="linearGradient-1">
            <stop stop-color="#467EC0" offset="0%"></stop>
            <stop stop-color="#1B9AD2" offset="49.1568917%"></stop>
            <stop stop-color="#41C3DE" offset="100%"></stop>
        </linearGradient>
    </defs>
    <g id="Other/logo/colored/learn" stroke="none" stroke-width="1" fill="none" fill-rule="evenodd">
        <rect id="area" opacity="0" x="0" y="0" width="192" height="192"></rect>
        <path d="M26.9969,136.0001 L79.9429,136.0621 L79.9429,137.0001 C79.9429,138.6571 81.2849,140.0001 82.9409,140.0001 L82.9409,140.0001 L108.9139,140.0001 C110.5689,140.0001 111.9109,138.6571 111.9109,137.0001 L111.9109,137.0001 L111.9109,136.0991 L164.7119,136.1611 C166.3579,135.9921 167.8309,137.1901 167.9999,138.8391 L167.9999,138.8391 L167.8549,145.0001 C167.8549,146.6571 166.5129,148.0001 164.8579,148.0001 L164.8579,148.0001 L26.9969,148.0001 C25.3419,148.0001 23.9999,146.6571 23.9999,145.0001 L23.9999,145.0001 L23.9999,139.0001 C23.9999,137.3431 25.3419,136.0001 26.9969,136.0001 L26.9969,136.0001 Z M44,56 L44,64 L40,64 L40,132 L32,132 L32,62 C32,58.687 34.687,56 38,56 L38,56 L44,56 Z M154,56 C157.313,56 160,58.687 160,62 L160,62 L160,132 L152,132 L152,64 L148,64 L148,56 Z M52.7846,44.0803 L91.1626,55.1373 C92.8486,55.6503 93.9996,57.2043 93.9996,58.9653 L93.9996,128.0003 L51.2156,116.5613 C49.3456,116.1833 47.9996,114.5233 47.9996,112.5953 L47.9996,48.0463 C47.9996,45.4933 50.3096,43.5793 52.7846,44.0803 Z M139.2154,44.0803 C141.6904,43.5793 144.0004,45.4933 144.0004,48.0463 L144.0004,48.0463 L144.0004,112.5953 C144.0004,114.5233 142.6544,116.1833 140.7844,116.5613 L140.7844,116.5613 L98.0004,128.0003 L98.0004,58.9653 C98.0004,57.2043 99.1514,55.6503 100.8374,55.1373 L100.8374,55.1373 Z M56.5946,101.3903 C56.2586,102.4423 56.8386,103.5683 57.8906,103.9053 L82.8906,111.9053 C83.0926,111.9693 83.2986,112.0013 83.4996,112.0013 C84.3466,112.0013 85.1326,111.4593 85.4056,110.6093 C85.7416,109.5573 85.1616,108.4313 84.1096,108.0943 L59.1096,100.0943 C58.0576,99.7583 56.9316,100.3393 56.5946,101.3903 Z M135.4054,101.3903 C135.0684,100.3393 133.9424,99.7583 132.8904,100.0943 L132.8904,100.0943 L107.8904,108.0943 C106.8384,108.4313 106.2584,109.5573 106.5944,110.6093 C106.8674,111.4593 107.6534,112.0013 108.5004,112.0013 C108.7014,112.0013 108.9074,111.9693 109.1094,111.9053 L109.1094,111.9053 L134.1094,103.9053 C135.1614,103.5683 135.7414,102.4423 135.4054,101.3903 Z M56.5946,87.3903 C56.2586,88.4423 56.8386,89.5683 57.8906,89.9053 L82.8906,97.9053 C83.0926,97.9693 83.2986,98.0013 83.4996,98.0013 C84.3466,98.0013 85.1326,97.4593 85.4056,96.6093 C85.7416,95.5573 85.1616,94.4313 84.1096,94.0943 L59.1096,86.0943 C58.0576,85.7593 56.9316,86.3393 56.5946,87.3903 Z M135.4054,87.3903 C135.0684,86.3393 133.9424,85.7593 132.8904,86.0943 L132.8904,86.0943 L107.8904,94.0943 C106.8384,94.4313 106.2584,95.5573 106.5944,96.6093 C106.8674,97.4593 107.6534,98.0013 108.5004,98.0013 C108.7014,98.0013 108.9074,97.9693 109.1094,97.9053 L109.1094,97.9053 L134.1094,89.9053 C135.1614,89.5683 135.7414,88.4423 135.4054,87.3903 Z M56.5946,73.3903 C56.2586,74.4423 56.8386,75.5683 57.8906,75.9053 L82.8906,83.9053 C83.0926,83.9693 83.2986,84.0013 83.4996,84.0013 C84.3466,84.0013 85.1326,83.4593 85.4056,82.6093 C85.7416,81.5573 85.1616,80.4313 84.1096,80.0943 L59.1096,72.0943 C58.0576,71.7593 56.9316,72.3393 56.5946,73.3903 Z M135.4054,73.3903 C135.0684,72.3393 133.9424,71.7593 132.8904,72.0943 L132.8904,72.0943 L107.8904,80.0943 C106.8384,80.4313 106.2584,81.5573 106.5944,82.6093 C106.8674,83.4593 107.6534,84.0013 108.5004,84.0013 C108.7014,84.0013 108.9074,83.9693 109.1094,83.9053 L109.1094,83.9053 L134.1094,75.9053 C135.1614,75.5683 135.7414,74.4423 135.4054,73.3903 Z M56.5946,59.3903 C56.2586,60.4423 56.8386,61.5683 57.8906,61.9053 L82.8906,69.9053 C83.0926,69.9693 83.2986,70.0013 83.4996,70.0013 C84.3466,70.0013 85.1326,69.4593 85.4056,68.6093 C85.7416,67.5573 85.1616,66.4313 84.1096,66.0943 L59.1096,58.0943 C58.0576,57.7573 56.9316,58.3393 56.5946,59.3903 Z M135.4054,59.3903 C135.0684,58.3393 133.9424,57.7573 132.8904,58.0943 L132.8904,58.0943 L107.8904,66.0943 C106.8384,66.4313 106.2584,67.5573 106.5944,68.6093 C106.8674,69.4593 107.6534,70.0013 108.5004,70.0013 C108.7014,70.0013 108.9074,69.9693 109.1094,69.9053 L109.1094,69.9053 L134.1094,61.9053 C135.1614,61.5683 135.7414,60.4423 135.4054,59.3903 Z" id="Logo" fill="url(#linearGradient-1)"></path>
    </g>
</svg>