<?xml version="1.0" encoding="UTF-8"?>
<svg width="36px" height="36px" viewBox="0 0 36 36" version="1.1" xmlns="http://www.w3.org/2000/svg" xmlns:xlink="http://www.w3.org/1999/xlink">
    <!-- Generator: Sketch 54.1 (76490) - https://sketchapp.com -->
    <title>logo/menu</title>
    <desc>Created with Sketch.</desc>
    <defs>
        <linearGradient x1="23.5906059%" y1="88.008125%" x2="79.3721548%" y2="10.6570508%" id="linearGradient-1">
            <stop stop-color="#467EC0" offset="0%"></stop>
            <stop stop-color="#1B9AD2" offset="49.1568917%"></stop>
            <stop stop-color="#41C3DE" offset="100%"></stop>
        </linearGradient>
    </defs>
    <g id="logo/menu" stroke="none" stroke-width="1" fill="none" fill-rule="evenodd">
        <g id="logo">
            <rect id="area" opacity="0" x="0" y="0" width="36" height="36"></rect>
            <path d="M18,7.5 C12.2101875,7.5 7.5,12.2101875 7.5,18 C7.5,23.7898125 12.2101875,28.5 18,28.5 C23.7898125,28.5 28.5,23.7898125 28.5,18 C28.5,12.2101875 23.7898125,7.5 18,7.5 Z M18,30.75 C10.9696875,30.75 5.25,25.0303125 5.25,18 C5.25,10.9696875 10.9696875,5.25 18,5.25 C25.0303125,5.25 30.75,10.9696875 30.75,18 C30.75,25.0303125 25.0303125,30.75 18,30.75 Z M24.190425,11.5552313 C24.3544875,11.4656063 24.5343,11.6454188 24.444675,11.8094813 L20.729925,18.6200438 C20.4903,19.0595438 19.8953625,19.1452313 19.541175,18.7912313 L17.2088625,16.4587313 C16.854675,16.1047313 16.9403625,15.5097938 17.38005,15.2699813 L24.190425,11.5552313 Z M11.809575,24.4447687 C11.6455125,24.5343937 11.4657,24.3545812 11.555325,24.1905187 L15.270075,17.3799562 C15.5097,16.9404562 16.1046375,16.8547687 16.458825,17.2087687 L18.7911375,19.5412687 C19.145325,19.8952687 19.0596375,20.4902062 18.61995,20.7300187 L11.809575,24.4447687 Z" id="Combined-Shape" fill="url(#linearGradient-1)"></path>
        </g>
    </g>
</svg>