<svg width="36" height="36" viewBox="0 0 36 36" fill="none" xmlns="http://www.w3.org/2000/svg">
<path d="M17.925 27C18.45 27 18.894 26.8185 19.257 26.4555C19.619 26.0935 19.8 25.65 19.8 25.125C19.8 24.6 19.619 24.1565 19.257 23.7945C18.894 23.4315 18.45 23.25 17.925 23.25C17.4 23.25 16.956 23.4315 16.593 23.7945C16.231 24.1565 16.05 24.6 16.05 25.125C16.05 25.65 16.231 26.0935 16.593 26.4555C16.956 26.8185 17.4 27 17.925 27ZM16.575 21.225H19.35C19.35 20.4 19.444 19.75 19.632 19.275C19.819 18.8 20.35 18.15 21.225 17.325C21.875 16.675 22.3875 16.056 22.7625 15.468C23.1375 14.881 23.325 14.175 23.325 13.35C23.325 11.95 22.8125 10.875 21.7875 10.125C20.7625 9.375 19.55 9 18.15 9C16.725 9 15.569 9.375 14.682 10.125C13.794 10.875 13.175 11.775 12.825 12.825L15.3 13.8C15.425 13.35 15.7065 12.8625 16.1445 12.3375C16.5815 11.8125 17.25 11.55 18.15 11.55C18.95 11.55 19.55 11.7685 19.95 12.2055C20.35 12.6435 20.55 13.125 20.55 13.65C20.55 14.15 20.4 14.6185 20.1 15.0555C19.8 15.4935 19.425 15.9 18.975 16.275C17.875 17.25 17.2 17.9875 16.95 18.4875C16.7 18.9875 16.575 19.9 16.575 21.225ZM18 33C15.925 33 13.975 32.606 12.15 31.818C10.325 31.031 8.7375 29.9625 7.3875 28.6125C6.0375 27.2625 4.969 25.675 4.182 23.85C3.394 22.025 3 20.075 3 18C3 15.925 3.394 13.975 4.182 12.15C4.969 10.325 6.0375 8.7375 7.3875 7.3875C8.7375 6.0375 10.325 4.9685 12.15 4.1805C13.975 3.3935 15.925 3 18 3C20.075 3 22.025 3.3935 23.85 4.1805C25.675 4.9685 27.2625 6.0375 28.6125 7.3875C29.9625 8.7375 31.031 10.325 31.818 12.15C32.606 13.975 33 15.925 33 18C33 20.075 32.606 22.025 31.818 23.85C31.031 25.675 29.9625 27.2625 28.6125 28.6125C27.2625 29.9625 25.675 31.031 23.85 31.818C22.025 32.606 20.075 33 18 33Z" fill="#0A68F1"/>
<path d="M17.925 27C18.45 27 18.894 26.8185 19.257 26.4555C19.619 26.0935 19.8 25.65 19.8 25.125C19.8 24.6 19.619 24.1565 19.257 23.7945C18.894 23.4315 18.45 23.25 17.925 23.25C17.4 23.25 16.956 23.4315 16.593 23.7945C16.231 24.1565 16.05 24.6 16.05 25.125C16.05 25.65 16.231 26.0935 16.593 26.4555C16.956 26.8185 17.4 27 17.925 27ZM16.575 21.225H19.35C19.35 20.4 19.444 19.75 19.632 19.275C19.819 18.8 20.35 18.15 21.225 17.325C21.875 16.675 22.3875 16.056 22.7625 15.468C23.1375 14.881 23.325 14.175 23.325 13.35C23.325 11.95 22.8125 10.875 21.7875 10.125C20.7625 9.375 19.55 9 18.15 9C16.725 9 15.569 9.375 14.682 10.125C13.794 10.875 13.175 11.775 12.825 12.825L15.3 13.8C15.425 13.35 15.7065 12.8625 16.1445 12.3375C16.5815 11.8125 17.25 11.55 18.15 11.55C18.95 11.55 19.55 11.7685 19.95 12.2055C20.35 12.6435 20.55 13.125 20.55 13.65C20.55 14.15 20.4 14.6185 20.1 15.0555C19.8 15.4935 19.425 15.9 18.975 16.275C17.875 17.25 17.2 17.9875 16.95 18.4875C16.7 18.9875 16.575 19.9 16.575 21.225ZM18 33C15.925 33 13.975 32.606 12.15 31.818C10.325 31.031 8.7375 29.9625 7.3875 28.6125C6.0375 27.2625 4.969 25.675 4.182 23.85C3.394 22.025 3 20.075 3 18C3 15.925 3.394 13.975 4.182 12.15C4.969 10.325 6.0375 8.7375 7.3875 7.3875C8.7375 6.0375 10.325 4.9685 12.15 4.1805C13.975 3.3935 15.925 3 18 3C20.075 3 22.025 3.3935 23.85 4.1805C25.675 4.9685 27.2625 6.0375 28.6125 7.3875C29.9625 8.7375 31.031 10.325 31.818 12.15C32.606 13.975 33 15.925 33 18C33 20.075 32.606 22.025 31.818 23.85C31.031 25.675 29.9625 27.2625 28.6125 28.6125C27.2625 29.9625 25.675 31.031 23.85 31.818C22.025 32.606 20.075 33 18 33Z" fill="url(#paint0_linear_2796_45344)" fill-opacity="0.6"/>
<defs>
<linearGradient id="paint0_linear_2796_45344" x1="18" y1="3" x2="18" y2="33" gradientUnits="userSpaceOnUse">
<stop stop-color="white" stop-opacity="0"/>
<stop offset="1" stop-color="#3E467B"/>
</linearGradient>
</defs>
</svg>
