<?xml version="1.0" encoding="UTF-8"?>
<svg width="90px" height="90px" viewBox="0 0 90 90" version="1.1" xmlns="http://www.w3.org/2000/svg" xmlns:xlink="http://www.w3.org/1999/xlink">
    <title>7D814ABF-D4BD-4FC8-A215-90569F843682@2x</title>
    <g id="New-Footer" stroke="none" stroke-width="1" fill="none" fill-rule="evenodd">
        <g id="Landing-Page" transform="translate(-948.000000, -4588.000000)" fill-rule="nonzero">
            <g id="Get-in-Touch" transform="translate(120.000000, 4576.000000)">
                <g id="Skype-Copy-3" transform="translate(816.000000, 0.000000)">
                    <g id="Mail" transform="translate(12.000000, 12.000000)">
                        <rect id="Rectangle" fill="#FFFFFF" x="0" y="0" width="90" height="90"></rect>
                        <g id="g23" transform="translate(22.000000, 22.000000)" fill="#0072C6">
                            <path d="M13.655288,17.8419854 C12.674464,17.8419854 11.892924,18.2985477 11.3158669,19.2099566 C10.7388097,20.1213656 10.4494144,21.3279951 10.4494144,22.8298456 C10.4494144,24.3540096 10.7388097,25.558923 11.3158669,26.4445856 C11.892924,27.3319646 12.6502035,27.7730796 13.5859717,27.7730796 C14.5511995,27.7730796 15.3171433,27.3422633 15.8820701,26.4806299 C16.446997,25.6189969 16.7311934,24.4226657 16.7311934,22.8933527 C16.7311934,21.2988162 16.4573948,20.0578584 15.9080637,19.1704794 C15.358733,18.2848164 14.6083854,17.8419854 13.655288,17.8419854 L13.655288,17.8419854 Z" id="path25"></path>
                            <path d="M-8.88153846e-08,5.14920189 L-8.88153846e-08,40.1208666 L26.8600206,45.6991688 L26.8600206,-2.25356186e-07 L-8.88153846e-08,5.14920189 Z M17.9736862,28.5471764 C16.8386335,30.0267138 15.358733,30.7681992 13.5322517,30.7681992 C11.7525586,30.7681992 10.3038505,30.0507433 9.1826611,28.6175489 C8.06320465,27.1826381 7.50174369,25.315194 7.50174369,23.0117843 C7.50174369,20.5796443 8.0701365,18.6126492 9.20865463,17.1107983 C10.3471732,15.6089478 11.8548002,14.8571646 13.7315356,14.8571646 C15.5042969,14.8571646 16.9391422,15.57462 18.0326051,17.0129638 C19.1278005,18.4513075 19.6754021,20.346214 19.6754021,22.6993992 C19.6771232,25.117808 19.1087388,27.0676389 17.9736862,28.5471764 Z" id="path27"></path>
                            <path d="M28.5582671,9.68908164 L28.5582671,18.6280965 L31.7121536,20.595092 C31.7953331,20.6191215 31.9755549,20.6208388 32.0587344,20.595092 L45.632575,11.5307797 C45.632575,10.458029 44.6222912,9.68908164 44.0521672,9.68908164 L28.5582671,9.68908164 Z" id="path3"></path>
                            <path d="M28.5582671,21.9630632 L31.4366216,23.9214764 C31.8421213,24.2166974 32.3308006,23.9214764 32.3308006,23.9214764 C31.8438543,24.2166974 45.6343088,15.1438033 45.6343088,15.1438033 L45.6343088,31.5731909 C45.6343088,33.3616805 44.4784615,34.1117473 43.1787833,34.1117473 L28.5565342,34.1117473 L28.5565342,21.9630632 L28.5582671,21.9630632 Z" id="path5"></path>
                        </g>
                    </g>
                </g>
            </g>
        </g>
    </g>
</svg>