<?xml version="1.0" encoding="UTF-8"?>
<svg width="68px" height="60px" viewBox="0 0 68 60" version="1.1" xmlns="http://www.w3.org/2000/svg" xmlns:xlink="http://www.w3.org/1999/xlink">
    <title>react</title>
    <g id="LP-Fix" stroke="none" stroke-width="1" fill="none" fill-rule="evenodd">
        <g id="LP-{Ready-to-Development}-UPD" transform="translate(-707.000000, -4096.000000)" fill="#00D8FF" fill-rule="nonzero">
            <g id="Logotypes" transform="translate(120.000000, 4096.000000)">
                <g id="react" transform="translate(587.000000, 0.000000)">
                    <path d="M55.3903634,19.427273 C54.6914995,19.1867238 53.9673334,18.9591253 53.2217026,18.7438781 C53.3442558,18.2437131 53.4567358,17.7500235 53.556745,17.264728 C55.1983797,9.29602426 54.1250216,2.876381 50.4598232,0.762761271 C46.9453576,-1.26392016 41.1977176,0.849219913 35.3928779,5.90099411 C34.8346739,6.38676929 34.2749111,6.90108424 33.7153887,7.44010161 C33.3425729,7.08347474 32.9703574,6.73883939 32.5991011,6.40919337 C26.5154592,1.00750753 20.4175474,-1.26883668 16.7559465,0.850898724 C13.2448387,2.883456 12.2050567,8.91853221 13.6827678,16.4705317 C13.8254666,17.199974 13.9922681,17.9448852 14.1808943,18.7022676 C13.3178669,18.9472537 12.4846983,19.2084283 11.6875041,19.4862711 C4.55508676,21.9729461 0,25.8701797 0,29.9126303 C0,34.0877071 4.88988911,38.2753745 12.3188559,40.8145718 C12.9051198,41.0149497 13.513448,41.2044153 14.1403631,41.3842876 C13.9368675,42.2034263 13.7598731,43.0061363 13.6112986,43.7890608 C12.2022987,51.2099934 13.3026377,57.1024905 16.8043921,59.1222171 C20.4213847,61.2080168 26.4917158,59.0640584 32.4026803,53.8971661 C32.8698687,53.4887358 33.3387358,53.0556034 33.8084424,52.6016058 C34.4172505,53.1878695 35.0250987,53.7427155 35.6297097,54.2631461 C41.3551658,59.1900889 47.0099918,61.1795971 50.5085084,59.1542347 C54.1219037,57.0624389 55.2962303,50.7324921 53.7716321,43.0310789 C53.6551947,42.4428963 53.5196911,41.8420026 53.3675192,41.2304371 C53.7938166,41.1044061 54.2123195,40.9742987 54.62039,40.8390347 C62.3435082,38.2801711 67.3684211,34.1434671 67.3684211,29.9126303 C67.3684211,25.8555502 62.6664384,21.9320551 55.3903634,19.427273 L55.3903634,19.427273 Z M53.7152724,38.1072539 C53.3468939,38.2292071 52.9689221,38.3470837 52.5837555,38.4613624 C51.7311608,35.7621984 50.5804576,32.8920355 49.1722971,29.9266605 C50.5160634,27.031915 51.6222779,24.1984464 52.4510097,21.5167898 C53.1401605,21.7162083 53.8090458,21.926539 54.4535884,22.1485015 C60.6877232,24.2946181 64.4904639,27.4676858 64.4904639,29.9126303 C64.4904639,32.5169418 60.3836192,35.8977021 53.7152724,38.1072539 L53.7152724,38.1072539 Z M50.9483563,43.5900018 C51.6225176,46.9954647 51.7188092,50.0743992 51.2722463,52.4813308 C50.8710113,54.6441158 50.0641039,56.0860921 49.0664121,56.6636024 C46.9433189,57.89249 42.4031021,56.2951039 37.5066174,52.0815347 C36.9452958,51.5985174 36.3798971,51.0827637 35.8126997,50.5369108 C37.7109524,48.4608245 39.6081258,46.0472979 41.4597316,43.3668403 C44.7164997,43.0778458 47.7933961,42.6053808 50.5836953,41.9603587 C50.7211176,42.5147253 50.8431911,43.0584192 50.9483563,43.5900018 L50.9483563,43.5900018 Z M22.9674175,56.4512332 C20.8931298,57.1837932 19.2410625,57.2047782 18.2424113,56.6289468 C16.1173997,55.4032968 15.2339868,50.672175 16.4390114,44.3257997 C16.5770335,43.5989955 16.7413169,42.8524058 16.9306624,42.0892674 C19.6903836,42.6995142 22.7447356,43.1386424 26.0092983,43.4032945 C27.8733753,46.0261932 29.8253497,48.4370816 31.7924334,50.5480632 C31.3626584,50.9629684 30.9345621,51.3579684 30.5088645,51.7301839 C27.8950797,54.0149224 25.2757791,55.6359316 22.9674175,56.4512332 L22.9674175,56.4512332 Z M13.2496353,38.091305 C9.96468697,36.9685421 7.25185258,35.5092979 5.39233247,33.9169482 C3.72143853,32.4860039 2.87783729,31.0653724 2.87783729,29.9126303 C2.87783729,27.4595316 6.53512134,24.3305926 12.6348317,22.2039021 C13.3749463,21.9458453 14.1497164,21.7026579 14.9537457,21.4742201 C15.7967473,24.2164336 16.9026024,27.0834784 18.2371351,29.9826605 C16.8853346,32.9248921 15.7637707,35.837625 14.912495,38.6119753 C14.3393018,38.4472124 13.783976,38.2738155 13.2496353,38.091305 L13.2496353,38.091305 Z M16.5071231,15.917844 C15.2410617,9.44747679 16.0819049,4.56646137 18.197803,3.34165076 C20.4516033,2.03685691 25.4353856,3.89721637 30.6881374,8.56130576 C31.0238989,8.85941418 31.3609797,9.17143268 31.6990197,9.49424358 C29.7416492,11.5959917 27.8075421,13.9887733 25.9600135,16.5962025 C22.7916223,16.8898741 19.758735,17.3616192 16.9702344,17.9933308 C16.7949188,17.2881114 16.639629,16.5952432 16.5071231,15.917844 L16.5071231,15.917844 Z M45.5668161,23.0934307 C44.9002095,21.942008 44.215855,20.817806 43.5181905,19.7243022 C45.6676647,19.9960293 47.7270826,20.3567333 49.66107,20.79814 C49.0804418,22.6589791 48.3567561,24.6045981 47.5048805,26.5991424 C46.8937945,25.4389658 46.2474532,24.2691962 45.5668161,23.0934307 L45.5668161,23.0934307 Z M33.7163476,11.5510237 C35.0438055,12.9891629 36.3731818,14.5948231 37.6807339,16.3369465 C36.3631089,16.2747107 35.0291758,16.2423337 33.6842108,16.2423337 C32.3519563,16.2423337 31.0278563,16.2739912 29.7183855,16.3351478 C31.0272566,14.6092129 32.3681447,13.0057111 33.7163476,11.5510237 L33.7163476,11.5510237 Z M21.7899733,23.1133366 C21.1240859,24.267997 20.4897362,25.4314112 19.8882431,26.5969839 C19.050158,24.6093947 18.3331869,22.654902 17.7475226,20.7676816 C19.6696383,20.3375469 21.7193434,19.9858366 23.8551474,19.7192658 C23.1476496,20.8228424 22.4576593,21.9553186 21.7899733,23.1130968 L21.7899733,23.1133366 L21.7899733,23.1133366 Z M23.9166637,40.3112892 C21.70999,40.0651039 19.6294668,39.7315011 17.7078308,39.3132376 C18.3028485,37.3923211 19.0356483,35.3960982 19.8914808,33.3656992 C20.4945328,34.5304326 21.1314007,35.6943266 21.8013652,36.8515053 L21.8014851,36.8515053 C22.4839207,38.0303884 23.1909388,39.1851684 23.9166637,40.3112892 L23.9166637,40.3112892 Z M33.7959713,48.4771329 C32.4319395,47.0054176 31.0713853,45.3774534 29.7426084,43.6263363 C31.0325326,43.6769403 32.3476392,43.7028421 33.6842108,43.7028421 C35.0573561,43.7028421 36.4147924,43.6719039 37.7508842,43.6124261 C36.439015,45.3950811 35.1144355,47.0255634 33.7959713,48.4771329 L33.7959713,48.4771329 Z M47.5323411,33.2622129 C48.4327818,35.3145561 49.1918432,37.3003466 49.7945353,39.1885263 C47.8412418,39.6341297 45.7322989,39.9930353 43.5102761,40.2597261 C44.2096197,39.1514724 44.8999695,38.0079639 45.5783279,36.8317189 C46.2646011,35.6416839 46.9162184,34.44985 47.5323411,33.2622129 L47.5323411,33.2622129 Z M43.0854174,35.3939397 C42.032325,37.2198834 40.9511724,38.9629661 39.8535916,40.6083187 C37.8544903,40.7512568 35.7891963,40.8248847 33.6842108,40.8248847 C31.5877389,40.8248847 29.5484661,40.7597708 27.5847403,40.6323013 C26.4429105,38.9653647 25.3382547,37.2171258 24.2918774,35.4096484 L24.2921172,35.4096484 C23.248498,33.6070882 22.2879798,31.7892982 21.4176376,29.9817016 C22.2877399,28.1699074 23.2457399,26.3500792 24.2833634,24.5507563 L24.2831236,24.5511161 C25.3235051,22.7469966 26.4184479,21.0072715 27.5497247,19.3507673 C29.5532626,19.1993148 31.6077645,19.1202909 33.6840908,19.1202909 L33.6842108,19.1202909 C35.7698903,19.1202909 37.82703,19.1999144 39.8299682,19.352686 C40.9439774,20.9970788 42.0314855,22.7311678 43.0759442,24.5355271 C44.1322747,26.3601521 45.1026258,28.1678687 45.9801626,29.9408105 C45.1052639,31.7442103 44.1370713,33.5701545 43.0854174,35.3939397 L43.0854174,35.3939397 Z M49.0222834,3.25603153 C51.2782424,4.55698811 52.1555392,9.80374389 50.7381455,16.6838603 C50.6477295,17.1228687 50.5459221,17.5700313 50.4353603,18.0231896 C47.6403842,17.3782874 44.6053384,16.8983881 41.4277145,16.6002796 C39.5765882,13.9641908 37.6583097,11.5676918 35.7328363,9.49292447 C36.2505089,8.99491803 36.7674621,8.52005505 37.2822566,8.07193316 C42.2558463,3.74360545 46.9043468,2.03469844 49.0222834,3.25603153 L49.0222834,3.25603153 Z M33.6842108,23.8968604 C37.0065724,23.8968604 39.6999805,26.5901487 39.6999805,29.9126303 C39.6999805,33.2349918 37.0065724,35.9284005 33.6842108,35.9284005 C30.3618489,35.9284005 27.6684408,33.2349918 27.6684408,29.9126303 C27.6684408,26.5901487 30.3618489,23.8968604 33.6842108,23.8968604 L33.6842108,23.8968604 Z" id="Shape"></path>
                </g>
            </g>
        </g>
    </g>
</svg>