<svg xmlns="http://www.w3.org/2000/svg" id="Layer-1" width="24" height="21" fill="#61DAFB" fill-rule="nonzero">
    <g id="svg_1">
        <path d="M23.9658542,10.5023967 C23.9658542,8.94417751 21.9804884,7.46746518 18.936586,6.55171175 C19.639025,3.50239668 19.3268299,1.07636929 17.9512201,0.299656959 C17.6341469,0.117465178 17.2634152,0.0311638082 16.8585372,0.0311638082 L16.8585372,1.10034189 C17.0829274,1.10034189 17.2634152,1.14349258 17.4146347,1.22499942 C18.0780494,1.59897203 18.3658542,3.02294463 18.141464,4.85445148 C18.0878055,5.30513641 18.0000006,5.77979395 17.8926835,6.26404052 C16.936586,6.03390353 15.8926835,5.85650627 14.7951225,5.74143778 C14.136586,4.85445148 13.4536591,4.04897203 12.7658542,3.34417751 C14.3560981,1.89143778 15.8487811,1.09554737 16.8634152,1.09554737 L16.8634152,0.0263692877 C16.8634152,0.0263692877 16.8634152,0.0263692877 16.8634152,0.0263692877 C15.5219518,0.0263692877 13.7658542,0.966095315 11.9902445,2.5962323 C10.2146347,0.975684356 8.45853717,0.0455473699 7.11707376,0.0455473699 L7.11707376,1.11472545 C8.12682985,1.11472545 9.62439083,1.90582134 11.2146347,3.34897203 C10.5317079,4.05376655 9.84878107,4.85445148 9.20000059,5.74143778 C8.09756156,5.85650627 7.05365912,6.03390353 6.09756156,6.26883504 C5.98536644,5.78938299 5.90243961,5.32431449 5.84390302,4.87842408 C5.61463473,3.04691723 5.89756156,1.62294463 6.55609815,1.24417751 C6.70243961,1.15787614 6.89268351,1.11951997 7.11707376,1.11951997 L7.11707376,0.0503418904 C7.11707376,0.0503418904 7.11707376,0.0503418904 7.11707376,0.0503418904 C6.70731766,0.0503418904 6.33658595,0.13664326 6.01463473,0.318835041 C4.64390302,1.09554737 4.33658595,3.51678025 5.04390302,6.55650627 C2.00975668,7.47705422 0.0341469268,8.94897203 0.0341469268,10.5023967 C0.0341469268,12.0606159 2.01951278,13.5373282 5.06341522,14.4530816 C4.3609762,17.5023967 4.67317132,19.9284241 6.04878107,20.7051364 C6.36585424,20.8873282 6.73658595,20.9736296 7.14634205,20.9736296 C8.48780546,20.9736296 10.243903,20.0339035 12.0195128,18.4037665 C13.7951225,20.0243145 15.5512201,20.9544515 16.8926835,20.9544515 C17.3024396,20.9544515 17.6731713,20.8681501 17.9951225,20.6859583 C19.3658542,19.909246 19.6731713,17.4880131 18.9658542,14.4482871 C21.9902445,13.5325337 23.9658542,12.0558213 23.9658542,10.5023967 L23.9658542,10.5023967 Z M17.6146347,7.30445148 C17.4341469,7.92294463 17.2097567,8.56061586 16.9560981,9.1982871 C16.7560981,8.81472545 16.546342,8.43116381 16.3170738,8.04760216 C16.0926835,7.66404052 15.8536591,7.29006792 15.6146347,6.92568436 C16.3073177,7.02636929 16.9756103,7.15102682 17.6146347,7.30445148 Z M15.3804884,12.4106159 C15.0000006,13.0578761 14.6097567,13.6715748 14.2048786,14.2421227 C13.4780494,14.3044515 12.741464,14.3380131 12.0000006,14.3380131 C11.2634152,14.3380131 10.5268299,14.3044515 9.80487863,14.2469172 C9.40000059,13.6763693 9.00487863,13.0674652 8.62439083,12.4249994 C8.25365912,11.7969172 7.91707376,11.159246 7.60975668,10.5167802 C7.91219571,9.87431449 8.25365912,9.23184874 8.61951278,8.60376655 C9.00000059,7.95650627 9.39024449,7.34280764 9.79512254,6.7722597 C10.5219518,6.70993093 11.2585372,6.67636929 12.0000006,6.67636929 C12.736586,6.67636929 13.4731713,6.70993093 14.1951225,6.76746518 C14.6000006,7.33801312 14.9951225,7.94691723 15.3756103,8.58938299 C15.746342,9.21746518 16.0829274,9.85513641 16.3902445,10.4976022 C16.0829274,11.1400679 15.746342,11.7825337 15.3804884,12.4106159 L15.3804884,12.4106159 Z M16.9560981,11.7873282 C17.2195128,12.4297939 17.443903,13.0722597 17.6292689,13.6955474 C16.9902445,13.848972 16.3170738,13.9784241 15.6195128,14.079109 C15.8585372,13.7099309 16.0975616,13.3311638 16.3219518,12.9428076 C16.546342,12.559246 16.7560981,12.1708898 16.9560981,11.7873282 Z M12.0097567,16.9030816 C11.5560981,16.4428076 11.1024396,15.9297939 10.6536591,15.368835 C11.0926835,15.3880131 11.541464,15.4023967 11.9951225,15.4023967 C12.4536591,15.4023967 12.9073177,15.3928076 13.3512201,15.368835 C12.9121957,15.9297939 12.4585372,16.4428076 12.0097567,16.9030816 L12.0097567,16.9030816 Z M8.38048839,14.079109 C7.68780546,13.9784241 7.01951278,13.8537665 6.38048839,13.7003419 C6.5609762,13.0818487 6.78536644,12.4441775 7.03902498,11.8065063 C7.23902498,12.1900679 7.44878107,12.5736296 7.67804937,12.9571912 C7.90731766,13.3407528 8.141464,13.7147255 8.38048839,14.079109 Z M11.9853664,4.10171175 C12.439025,4.56198573 12.8926835,5.07499942 13.341464,5.63595833 C12.9024396,5.61678025 12.4536591,5.60239668 12.0000006,5.60239668 C11.541464,5.60239668 11.0878055,5.61198573 10.643903,5.63595833 C11.0829274,5.07499942 11.536586,4.56198573 11.9853664,4.10171175 L11.9853664,4.10171175 Z M8.37561034,6.92568436 C8.13658595,7.29486244 7.89756156,7.67362956 7.67317132,8.06198573 C7.44878107,8.44554737 7.23902498,8.82910901 7.03902498,9.21267066 C6.77561034,8.5702049 6.5512201,7.92773915 6.36585424,7.30445148 C7.00487863,7.15582134 7.67804937,7.02636929 8.37561034,6.92568436 L8.37561034,6.92568436 Z M3.9609762,12.9284241 C2.23414693,12.2044515 1.11707376,11.2551364 1.11707376,10.5023967 C1.11707376,9.74965696 2.23414693,8.79554737 3.9609762,8.07636929 C4.38048839,7.89897203 4.83902498,7.74075285 5.31219571,7.59212271 C5.59024449,8.53184874 5.95609815,9.50993093 6.40975668,10.5119857 C5.9609762,11.509246 5.60000059,12.4825337 5.32682985,13.4174652 C4.84390302,13.268835 4.38536644,13.1058213 3.9609762,12.9284241 L3.9609762,12.9284241 Z M6.58536644,19.7797939 C5.9219518,19.4058213 5.63414693,17.9818487 5.85853717,16.1503419 C5.91219571,15.699657 6.00000059,15.2249994 6.10731766,14.7407528 C7.06341522,14.9708898 8.10731766,15.1482871 9.20487863,15.2633556 C9.86341522,16.1503419 10.546342,16.9558213 11.2341469,17.6606159 C9.64390302,19.1133556 8.1512201,19.909246 7.13658595,19.909246 C6.91707376,19.9044515 6.7317079,19.8613008 6.58536644,19.7797939 Z M18.1560981,16.1263693 C18.3853664,17.9578761 18.1024396,19.3818487 17.443903,19.7606159 C17.2975616,19.8469172 17.1073177,19.8852734 16.8829274,19.8852734 C15.8731713,19.8852734 14.3756103,19.0941775 12.7853664,17.6510268 C13.4682933,16.9462323 14.1512201,16.1455474 14.8000006,15.2585611 C15.9024396,15.1434926 16.946342,14.9660953 17.9024396,14.7311638 C18.0146347,15.2154104 18.1024396,15.6804789 18.1560981,16.1263693 L18.1560981,16.1263693 Z M20.0341469,12.9284241 C19.6146347,13.1058213 19.1560981,13.2640405 18.6829274,13.4126707 C18.4048786,12.4729446 18.039025,11.4948624 17.5853664,10.4928076 C18.0341469,9.49554737 18.3951225,8.5222597 18.6682933,7.58732819 C19.1512201,7.73595833 19.6097567,7.89897203 20.039025,8.07636929 C21.7658542,8.80034189 22.8829274,9.74965696 22.8829274,10.5023967 C22.8780494,11.2551364 21.7609762,12.209246 20.0341469,12.9284241 L20.0341469,12.9284241 Z" id="svg_2"/>
        <ellipse id="svg_4" cx="11.9951225" cy="10.5023967" rx="2.22926834" ry="2.19109594"/>
    </g>
</svg>