<svg width="700pt" height="700pt" version="1.0" viewBox="0 0 700 700" xmlns="http://www.w3.org/2000/svg">
 <g transform="translate(0 700) scale(.1 -.1)" fill="#1669a8">
  <path d="m0 3500v-3500h3500 3500v3500 3500h-3500-3500v-3500zm3860 2885c693-93 1238-615 1366-1310 28-149 25-442-5-584-46-217-131-427-238-591-110-167-283-346-437-450-74-51-670-288-838-334-230-63-344-78-633-83-309-6-352 0-625 82-150 46-821 306-1097 425l-43 19v1420 1421h1223c999 0 1241-3 1327-15zm-2081-3534c244-173 445-319 447-325s-62-445-143-976l-148-965-313-3-312-2v1300c0 1086 2 1300 13 1293 8-4 213-149 456-322zm3402-1038 506-1228-720-3c-396-1-721-1-722 0-4 5-295 1922-295 1938 1 12 703 520 720 520 3 0 233-552 511-1227zm-1966-609c72-20 146-66 195-121 23-26 100-151 171-278l128-230-616-3c-339-1-618 0-620 2-9 9 260 473 295 510 70 73 178 128 272 139 48 5 115-2 175-19z"/>
  <path d="m3050 5473c-340-43-615-282-706-613-25-91-25-328 0-420 76-282 302-507 584-582 109-28 287-28 397 1 282 74 496 282 581 566 23 78 27 107 27 225s-4 147-27 225c-86 287-286 487-566 568-84 25-223 39-290 30z"/>
 </g>
</svg>
