<?xml version="1.0" encoding="UTF-8"?>
<svg width="80px" height="60px" viewBox="0 0 80 60" version="1.1" xmlns="http://www.w3.org/2000/svg" xmlns:xlink="http://www.w3.org/1999/xlink">
    <title>sass</title>
    <g id="LP-Fix" stroke="none" stroke-width="1" fill="none" fill-rule="evenodd">
        <g id="LP-{Ready-to-Development}-UPD" transform="translate(-318.000000, -4096.000000)" fill="#CD6799" fill-rule="nonzero">
            <g id="Logotypes" transform="translate(120.000000, 4096.000000)">
                <g id="sass" transform="translate(198.000000, 0.000000)">
                    <path d="M68.8378872,34.5355191 C66.0546447,34.5500909 63.6357013,35.2204006 61.6102003,36.2112931 C60.8670309,34.7395266 60.1238616,33.4280509 59.9927141,32.4663025 C59.8469947,31.3442622 59.6721312,30.6593807 59.8469947,29.3187614 C60.0218578,27.9781421 60.8087431,26.0692167 60.7941713,25.9234973 C60.7795994,25.7777778 60.6193078,25.0928962 59.0163934,25.0783242 C57.4134791,25.0637523 56.0291438,25.3843352 55.8688525,25.8069217 C55.7085609,26.2295082 55.40255,27.1912568 55.1985428,28.1821494 C54.9216756,29.6393442 51.9927141,34.84153 50.31694,37.5664844 C49.7777778,36.5027322 49.3114753,35.5701275 49.2094719,34.8269581 C49.0637522,33.7049181 48.8888888,33.0200366 49.0637522,31.6794172 C49.2386156,30.3387978 50.0255009,28.4298725 50.0109291,28.284153 C49.9963569,28.1384335 49.8360656,27.4535519 48.2331513,27.43898 C46.6302369,27.424408 45.2459016,27.7449909 45.0856103,28.1675774 C44.9253188,28.5901639 44.7504553,29.5810565 44.4153006,30.5428051 C44.0801456,31.5045537 40.1894353,40.1894353 39.1693991,42.4335156 C38.6448088,43.5846994 38.1930784,44.5027322 37.8724953,45.1293259 L37.8724953,45.1293259 C37.8724953,45.1293259 37.8579234,45.1730419 37.8142075,45.2459016 C37.5373406,45.7850637 37.3770491,46.0765028 37.3770491,46.0765028 C37.3770491,46.0765028 37.3770491,46.0765028 37.3770491,46.0910747 C37.15847,46.4845172 36.9253188,46.8488159 36.8087431,46.8488159 C36.7213116,46.8488159 36.56102,45.7996356 36.8378872,44.3715847 C37.420765,41.3551912 38.8051003,36.6630237 38.7905281,36.5027322 C38.7905281,36.4153006 39.0528234,35.5992712 37.8870675,35.176685 C36.7504553,34.7540984 36.3424409,35.4535519 36.2404372,35.4535519 C36.1384334,35.4535519 36.0655738,35.701275 36.0655738,35.701275 C36.0655738,35.701275 37.3333334,30.4262295 33.6466303,30.4262295 C31.3442622,30.4262295 28.1675774,32.9471766 26.5938069,35.2204006 C25.6029144,35.7595628 23.4899818,36.9107469 21.2313297,38.1493625 C20.3715847,38.6302369 19.4826958,39.1111112 18.6520947,39.5628416 C18.5938069,39.5045537 18.5355191,39.4316941 18.4772313,39.3734062 C14.0182149,34.6083787 5.77049181,31.2422587 6.12021859,24.845173 C6.25136613,22.5136612 7.05282331,16.3934426 21.9599271,8.96174862 C34.2295081,2.9143898 43.9927141,4.59016394 45.68306,8.30601094 C48.1020038,13.6102004 40.4517303,23.4608379 27.7741348,24.8888889 C22.9362477,25.428051 20.4007286,23.5628415 19.7595628,22.863388 C19.0892532,22.1347905 18.9872495,22.0910747 18.7395264,22.2367942 C18.3315118,22.4553734 18.5938069,23.1111111 18.7395264,23.4899818 C19.1183971,24.4808743 20.6775956,26.2295082 23.3151184,27.0892532 C25.6466303,27.8469945 31.3151184,28.2695811 38.1785063,25.6174863 C45.8579234,22.6448087 51.8615666,14.3825137 50.0983606,7.46083787 C48.3351547,0.437158469 36.6775956,-1.87978142 25.6466303,2.04007286 C19.0892532,4.37158469 11.9781421,8.04371584 6.86338797,12.8233151 C0.786885247,18.5063752 -0.174863388,23.4462659 0.218579235,25.5154827 C1.63205829,32.859745 11.7595628,37.6393444 15.8105647,41.1803278 C15.6065574,41.2969034 15.417122,41.3989072 15.2568306,41.4863387 C13.2313297,42.4918031 5.50819672,46.5282331 3.58469947,50.7978141 C1.3989071,55.6357012 3.93442622,59.103825 5.61020038,59.5701275 C10.8123862,61.0127503 16.1602914,58.4189434 19.0309654,54.1347906 C21.9016393,49.8506375 21.5519126,44.2841531 20.2258652,41.7340619 C20.2112933,41.7049181 20.1967213,41.6757741 20.1675774,41.6466303 C20.6921676,41.3406194 21.2313297,41.0200366 21.7559198,40.7140256 C22.7905282,40.1020037 23.8105647,39.5336975 24.6848816,39.0673953 C24.1894353,40.4225866 23.8251366,42.0400728 23.6502732,44.3715847 C23.431694,47.1111112 24.5537341,50.6666666 26.0255009,52.0655737 C26.6812386,52.6775956 27.4535519,52.6921675 27.9489982,52.6921675 C29.6684882,52.6921675 30.4408015,51.2641166 31.3005466,49.5737706 C32.3497269,47.5045537 33.2969034,45.1001822 33.2969034,45.1001822 C33.2969034,45.1001822 32.1165756,51.5992712 35.3224044,51.5992712 C36.4881603,51.5992712 37.6684881,50.0837887 38.1930784,49.3114753 L38.1930784,49.3260475 C38.1930784,49.3260475 38.2222222,49.2823316 38.28051,49.1803278 C38.3970856,48.9908925 38.4699453,48.8743169 38.4699453,48.8743169 L38.4699453,48.8451731 C38.9362478,48.0291437 39.9854281,46.1785062 41.5446266,43.103825 C43.5555556,39.140255 45.4936247,34.1857925 45.4936247,34.1857925 C45.4936247,34.1857925 45.6684881,35.3952641 46.2659381,37.4061931 C46.615665,38.5865209 47.3442622,39.8834244 47.9271403,41.1366119 C47.4608378,41.7923497 47.1693991,42.1566484 47.1693991,42.1566484 C47.1693991,42.1566484 47.1693991,42.1566484 47.1839709,42.1712203 C46.8051003,42.6666666 46.3970856,43.2058287 45.9453553,43.7304191 C44.3570128,45.6247722 42.4626594,47.7959928 42.2003644,48.4225866 C41.8943534,49.1657559 41.9672131,49.7049181 42.5500909,50.1420766 C42.9726775,50.4626594 43.7304191,50.5063753 44.5027322,50.4626594 C45.9307831,50.3606556 46.9362478,50.0109291 47.4316941,49.7923497 C48.2040072,49.5154828 49.1074681,49.0928962 49.9526413,48.4663025 C51.5118397,47.3151184 52.4590163,45.6684881 52.3715847,43.4972678 C52.3278688,42.3023678 51.9344263,41.1074681 51.4535519,39.9854281 C51.5992713,39.7814206 51.7304191,39.5774134 51.8761384,39.3734062 C54.3387978,35.7741347 56.2477231,31.8251366 56.2477231,31.8251366 C56.2477231,31.8251366 56.4225866,33.0346084 57.0200366,35.0455372 C57.3114753,36.0655737 57.9089253,37.1730419 58.4335156,38.2513662 C56.1165756,40.1311475 54.6885247,42.31694 54.1785063,43.7449909 C53.2604734,46.3970856 53.9744991,47.5919853 55.3296903,47.8688525 C55.9417122,48 56.8160291,47.7085609 57.457195,47.4316941 C58.2732241,47.1693991 59.2349728,46.7176684 60.1530053,46.0473587 C61.7122041,44.896175 63.2131147,43.2932606 63.1256831,41.12204 C63.0819672,40.1311475 62.8196722,39.1548269 62.4553734,38.2076503 C64.4225866,37.3916212 66.9581056,36.9398906 70.1930784,37.3187612 C77.1293259,38.1347906 78.4990894,42.4626594 78.2367941,44.2841531 C77.9744991,46.1056466 76.5173041,47.0965391 76.03643,47.40255 C75.5555556,47.7085609 75.3952641,47.8105647 75.43898,48.0291437 C75.4972678,48.3497269 75.7304191,48.3351547 76.1384334,48.2768669 C76.7067394,48.1748634 79.7814206,46.8051003 79.9125684,43.4535519 C80.1311475,39.1693991 76.0510019,34.4918031 68.8378872,34.5355191 L68.8378872,34.5355191 Z M15.3296903,52.5755919 C13.0273224,55.0819672 9.82149363,56.0291437 8.43715847,55.2276866 C6.95081969,54.3679416 7.53369763,50.6666666 10.3606558,48.0145719 C12.0801457,46.3970856 14.295082,44.896175 15.7668488,43.9781422 C16.1020037,43.7741347 16.5974499,43.4826959 17.1948998,43.1183972 C17.2969035,43.0601094 17.3551913,43.0309653 17.3551913,43.0309653 L17.3551913,43.0309653 C17.4717668,42.9581056 17.5883424,42.8852459 17.704918,42.8123862 C18.7395264,46.6010928 17.7486339,49.9380691 15.3296903,52.5755919 L15.3296903,52.5755919 Z M32.0874316,41.1803278 C31.2859744,43.1329691 29.6102004,48.1311475 28.5901639,47.8542806 C27.715847,47.6211294 27.1766849,43.8324225 28.4153005,40.0874316 C29.0418943,38.2076503 30.3679417,35.96357 31.140255,35.0892531 C32.3934425,33.6903459 33.7777778,33.2240437 34.1129325,33.7923497 C34.5355191,34.5355191 32.5828778,39.9562841 32.0874316,41.1803278 L32.0874316,41.1803278 Z M45.9162113,47.7959928 C45.5810566,47.9708562 45.2604734,48.0874316 45.1147541,48 C45.0127503,47.9417122 45.2604734,47.7085609 45.2604734,47.7085609 C45.2604734,47.7085609 46.9945356,45.8433516 47.6794172,44.9981784 C48.0728597,44.5027322 48.5391622,43.9198544 49.0346084,43.2641166 L49.0346084,43.4535519 C49.0346084,45.68306 46.87796,47.1839709 45.9162113,47.7959928 L45.9162113,47.7959928 Z M56.5828778,45.3624772 C56.3351547,45.1876138 56.3788706,44.6047359 57.2094719,42.7832422 C57.5300547,42.0692169 58.2877959,40.8743169 59.5846994,39.7231331 C59.7304191,40.1894353 59.8324225,40.6411656 59.8178506,41.0637522 C59.8032788,43.8761384 57.7923497,44.9253188 56.5828778,45.3624772 L56.5828778,45.3624772 Z" id="Shape"></path>
                </g>
            </g>
        </g>
    </g>
</svg>