<?xml version="1.0" encoding="UTF-8"?>
<svg width="78px" height="78px" viewBox="0 0 78 78" version="1.1" xmlns="http://www.w3.org/2000/svg" xmlns:xlink="http://www.w3.org/1999/xlink">
    <title>Skype</title>
    <g id="LP-Fix" stroke="none" stroke-width="1" fill="none" fill-rule="evenodd">
        <g id="LP-{Ready-to-Development}-UPD" transform="translate(-1038.000000, -3802.000000)" fill-rule="nonzero">
            <g id="Contact-Us" transform="translate(120.000000, 3676.000000)">
                <g id="Get-in-Touch" transform="translate(816.000000, 60.000000)">
                    <g id="Join-Us" transform="translate(102.000000, 66.000000)">
                        <g id="Skype">
                            <g>
                                <rect id="Rectangle" fill="#FFFFFF" x="0" y="0" width="78" height="78"></rect>
                                <path d="M40.0905364,53.0000312 C32.4780545,53.0000312 29,49.0624115 29,46.174313 C28.998974,45.4853329 29.2774554,44.8263376 29.7699265,44.3523741 C30.2623975,43.8784106 30.925378,43.6313252 31.6028832,43.6692515 C34.862142,43.6692515 34.0096044,48.6334102 40.0905364,48.6334102 C43.1989036,48.6334102 45.0246921,46.733547 45.0246921,44.9485948 C45.0246921,43.8760914 44.4211257,42.6503732 42.3689997,42.160086 L35.5788772,40.4210983 C30.1241454,39.0115223 29.1735282,35.9319054 29.1735282,33.0744498 C29.1735282,27.1450381 34.5150913,25.0000312 39.6001386,25.0000312 C44.2853232,25.0000312 49.8532237,27.6276646 49.8532237,31.1822474 C49.8532237,32.7143951 48.5932788,33.5340942 47.1296301,33.5340942 C44.3456799,33.5340942 44.8134439,29.5658315 39.215365,29.5658315 C36.4314148,29.5658315 34.9677661,30.8911393 34.9677661,32.7450381 C34.9677661,34.5989368 37.1330608,35.2271174 39.0342951,35.648458 L44.0438966,36.7975689 C49.5363514,38.05393 51,41.3250654 51,44.4583076 C51,49.2769122 47.3257892,53.0000312 40.0829918,53.0000312 M60.3458471,42.7639443 C60.5605751,41.5135854 60.6677565,40.2465875 60.6661761,38.977317 C60.6924707,32.6014856 57.9367681,26.5419362 53.1418922,22.4320734 C48.3470162,18.3222106 42.0065061,16.5850647 35.8295015,17.6888986 C33.9309119,16.5776231 31.777592,15.9950853 29.5868101,16.0000312 C25.089986,16.0279893 20.9449893,18.478086 18.6965894,22.4372438 C16.4481895,26.3964016 16.4336445,31.2707499 18.6583753,35.2437026 C17.4169922,42.1780313 19.5915253,49.2910965 24.4805604,54.2885184 C29.3695954,59.2859404 36.3544764,61.5353477 43.1821704,60.311175 C45.0784368,61.4214968 47.2291098,62.0040137 49.4174123,62.0000312 C53.9119492,61.970575 58.0544066,59.5215201 60.3023311,55.5647572 C62.5502556,51.6079944 62.5668164,46.7364079 60.3458471,42.7639443" id="Shape" fill="#0078D7"></path>
                            </g>
                        </g>
                    </g>
                </g>
            </g>
        </g>
    </g>
</svg>