<?xml version="1.0" encoding="UTF-8"?>
<svg width="90px" height="90px" viewBox="0 0 90 90" version="1.1" xmlns="http://www.w3.org/2000/svg" xmlns:xlink="http://www.w3.org/1999/xlink">
    <title>EE128F80-83C4-4883-8EDF-6510E4B226E9@2x</title>
    <g id="New-Footer" stroke="none" stroke-width="1" fill="none" fill-rule="evenodd">
        <g id="Landing-Page" transform="translate(-132.000000, -4588.000000)" fill-rule="nonzero">
            <g id="Get-in-Touch" transform="translate(120.000000, 4576.000000)">
                <g id="Skype" transform="translate(12.000000, 12.000000)">
                    <rect id="Rectangle" fill="#FFFFFF" x="0" y="0" width="90" height="90"></rect>
                    <path d="M45.6823976,61.630423 C36.8857519,61.630423 32.8666667,57.0936054 32.8666667,53.7660174 C32.8654811,52.9721934 33.1872818,52.212917 33.7563595,51.6668292 C34.3254371,51.1207415 35.0915479,50.8360564 35.8744428,50.879754 C39.6406974,50.879754 38.6555428,56.5993218 45.6823976,56.5993218 C49.2742886,56.5993218 51.3840887,54.4103514 51.3840887,52.3537784 C51.3840887,51.1180694 50.6866341,49.7058304 48.3152886,49.1409348 L40.4689247,47.1373208 C34.1656791,45.513246 33.0671881,41.9649957 33.0671881,38.6727137 C33.0671881,31.8410077 39.239661,29.3695896 45.1157158,29.3695896 C50.5297068,29.3695896 56.9637252,32.3970768 56.9637252,36.4925698 C56.9637252,38.2578685 55.5077888,39.2023033 53.8164615,39.2023033 C50.5994523,39.2023033 51.1399796,34.6301797 44.6710885,34.6301797 C41.4540793,34.6301797 39.762752,36.157163 39.762752,38.2931744 C39.762752,40.4291858 42.2648702,41.1529583 44.4618521,41.6384154 L50.250725,42.9623895 C56.5975616,44.4099344 58.2888889,48.1788471 58.2888889,51.7888829 C58.2888889,57.3407472 54.0431342,61.630423 45.6736794,61.630423 M69.0885344,49.8366839 C69.3366646,48.3960546 69.4605187,46.9362543 69.4586924,45.4738356 C69.4890772,38.1277772 66.3047098,31.1461303 60.7639643,26.4108589 C55.2232187,21.6755875 47.896407,19.6740956 40.7585351,20.9459028 C38.5646093,19.6655215 36.0763285,18.9943374 33.5447583,19.000036 C28.3484283,19.0322485 23.5586543,21.8551828 20.9605033,26.416816 C18.3623523,30.9784493 18.3455448,36.59454 20.9163448,41.1720673 C19.4818577,49.161611 21.9946515,57.35709 27.6442031,63.1149827 C33.2937547,68.8728754 41.3651727,71.464581 49.2549524,70.0541227 C51.4461937,71.3334051 53.9314158,72.0045651 56.4601209,71.9999766 C61.6538079,71.966038 66.4406477,69.144304 69.0382493,64.5854301 C71.6358509,60.0265563 71.6549879,54.4136477 69.0885344,49.8366839" id="Shape" fill="#0078D7"></path>
                </g>
            </g>
        </g>
    </g>
</svg>