<svg xmlns="http://www.w3.org/2000/svg" fill="none" viewBox="0 0 24 24">
  <path fill="#F9B71D" d="m8.34 10.18-1.172 2.153-1.171-2.152a4.739 4.739 0 0 0-1.843-1.843L2.001 7.167l2.153-1.171a4.739 4.739 0 0 0 1.843-1.843L7.168 2 8.34 4.153a4.739 4.739 0 0 0 1.843 1.843l2.153 1.17-2.153 1.172a4.739 4.739 0 0 0-1.843 1.843Z"/>
  <path fill="url(#a)" fill-opacity=".6" d="m8.34 10.18-1.172 2.153-1.171-2.152a4.739 4.739 0 0 0-1.843-1.843L2.001 7.167l2.153-1.171a4.739 4.739 0 0 0 1.843-1.843L7.168 2 8.34 4.153a4.739 4.739 0 0 0 1.843 1.843l2.153 1.17-2.153 1.172a4.739 4.739 0 0 0-1.843 1.843Z"/>
  <path fill="#F9B71D" d="m15.78 22.666 1.566-2.858a6.273 6.273 0 0 1 2.463-2.463l2.859-1.567-2.859-1.568a6.274 6.274 0 0 1-2.463-2.462l-1.567-2.86-1.567 2.86a6.273 6.273 0 0 1-2.463 2.463L8.89 15.777l2.86 1.567a6.272 6.272 0 0 1 2.462 2.463l1.567 2.858Z"/>
  <path fill="url(#b)" fill-opacity=".6" d="m15.78 22.666 1.566-2.858a6.273 6.273 0 0 1 2.463-2.463l2.859-1.567-2.859-1.568a6.274 6.274 0 0 1-2.463-2.462l-1.567-2.86-1.567 2.86a6.273 6.273 0 0 1-2.463 2.463L8.89 15.777l2.86 1.567a6.272 6.272 0 0 1 2.462 2.463l1.567 2.858Z"/>
  <defs>
    <linearGradient id="a" x1="12.335" x2="12.335" y1="22.666" y2="2" gradientUnits="userSpaceOnUse">
      <stop stop-color="#fff"/>
      <stop offset="1" stop-color="#fff" stop-opacity="0"/>
    </linearGradient>
    <linearGradient id="b" x1="12.335" x2="12.335" y1="22.666" y2="2" gradientUnits="userSpaceOnUse">
      <stop stop-color="#fff"/>
      <stop offset="1" stop-color="#fff" stop-opacity="0"/>
    </linearGradient>
  </defs>
</svg>
