<?xml version="1.0" encoding="UTF-8"?>
<svg width="78px" height="78px" viewBox="0 0 78 78" version="1.1" xmlns="http://www.w3.org/2000/svg" xmlns:xlink="http://www.w3.org/1999/xlink">
    <title>391DAABD-9FBB-42FB-9B7D-8C17B83E0612@2x</title>
    <g id="New-Footer" stroke="none" stroke-width="1" fill="none" fill-rule="evenodd">
        <g id="Landing-Page" transform="translate(-540.000000, -4594.000000)" fill-rule="nonzero">
            <g id="Get-in-Touch" transform="translate(120.000000, 4576.000000)">
                <g id="Teams" transform="translate(408.000000, 0.000000)">
                    <g transform="translate(12.000000, 18.000000)">
                        <rect id="Rectangle" fill="#FFFFFF" x="0" y="0" width="78" height="78"></rect>
                        <path d="M54.9350747,34.1858144 C55.3117537,34.558505 55.7560417,34.8547461 56.24669,35.0611594 C57.2704837,35.4854534 58.4237007,35.4854534 59.4494263,35.0611594 C60.4384498,34.6445105 61.226578,33.8666384 61.6457538,32.8880865 C62.0745883,31.8751327 62.0745883,30.7341261 61.6457538,29.719261 C61.2246461,28.7407093 60.4384498,27.9609259 59.4494263,27.5461881 C58.4256323,27.1218942 57.2724154,27.1218942 56.24669,27.5461881 C55.2576663,27.9628371 54.4695383,28.7407093 54.0503622,29.719261 C53.6215278,30.7322149 53.6215278,31.8732216 54.0503622,32.8880865 C54.2589845,33.3716286 54.5603277,33.8131237 54.9350747,34.1858144 L54.9350747,34.1858144 Z M53.7297023,37.966235 L53.7297023,50.238267 L55.7966069,50.238267 C56.5074677,50.2344447 57.214465,50.1694627 57.9118037,50.039499 C58.6130061,49.9171799 59.2890964,49.6840094 59.9149627,49.3476323 C60.5060588,49.0303672 61.0160242,48.5831387 61.4081564,48.0441707 C61.8196057,47.4459544 62.0262963,46.7330643 61.9973208,46.0087067 L61.9973208,37.966235 L53.7297023,37.966235 Z M47.0306132,32.8211933 C47.5792122,32.8250159 48.1239479,32.7160756 48.6300498,32.5020174 C49.6190732,32.0853684 50.4052698,31.3074963 50.8244456,30.3289446 C51.25328,29.3159907 51.25328,28.1749841 50.822514,27.1601189 C50.4014063,26.1815672 49.6152099,25.4017838 48.6261865,24.9870461 C48.1200843,24.7729879 47.5753489,24.6640476 47.024818,24.66787 C46.478151,24.6640476 45.9372785,24.7729879 45.4350402,24.9870461 C45.0602928,25.1456785 44.9424599,25.3520917 44.4266997,25.6005521 L44.4266997,31.8885115 C44.9443919,32.1388831 45.0602928,32.343385 45.4350402,32.5020174 C45.9392104,32.7179868 46.4820142,32.8250159 47.0306132,32.8211933 L47.0306132,32.8211933 Z M44.4266997,53.4835423 C44.9443919,53.5943937 45.1298338,53.6803992 45.4968541,53.7300913 C45.898645,53.7874283 46.3042991,53.8160967 46.7099532,53.8180082 C47.3358196,53.8141855 47.9616863,53.7492035 48.5740307,53.6192398 C49.1979655,53.4950096 49.7967883,53.2637502 50.341524,52.9369293 C50.8766014,52.6120195 51.3266842,52.1686133 51.6589342,51.643024 C52.0259548,51.0295179 52.2056015,50.3223613 52.178558,49.6094712 L52.178558,35.4090041 L44.4266997,35.4090041 L44.4266997,53.4835423 L44.4266997,53.4835423 Z M16,57.397749 L42.8755554,62 L42.8755554,17 L16,21.602251 L16,57.397749 Z" id="Shape" fill="#5558AF"></path>
                        <polygon id="Path" fill="#FFFFFF" points="35.65575 30.3136641 23.3357109 31.0638047 23.3357109 33.905625 27.9559922 33.7194609 27.9559922 46.8950625 31.0354687 47.0754375 31.0354687 33.5985 35.65575 33.3931406"></polygon>
                    </g>
                </g>
            </g>
        </g>
    </g>
</svg>