<?xml version="1.0" encoding="UTF-8"?>
<svg width="36px" height="29px" viewBox="0 0 36 29" version="1.1" xmlns="http://www.w3.org/2000/svg" xmlns:xlink="http://www.w3.org/1999/xlink">
    <!-- Generator: Sketch 53.1 (72631) - https://sketchapp.com -->
    <title>Group 21</title>
    <desc>Created with Sketch.</desc>
    <g id="Page-1" stroke="none" stroke-width="1" fill="none" fill-rule="evenodd">
        <g id="Group-77" transform="translate(-171.000000, -18.000000)" fill="#008ace" fill-rule="nonzero">
            <g id="Group-21" transform="translate(171.000000, 18.000000)">
                <g id="Page-1">
                    <g id="Program-1170">
                        <g id="Group-9">
                            <g id="Group-119">
                                <g id="Group-110">
                                    <g id="Group" transform="translate(0.000000, 0.070598)">
                                        <g id="Path" transform="translate(5.574194, 11.194853)">
                                            <path d="M9.90967742,11.9722733 C4.65135484,11.9722733 0.371612903,9.53428309 0.371612903,6.53655025 L0.371612903,0.70278799 C0.371612903,0.360723039 0.650322581,0.0808517157 0.990967742,0.0808517157 C1.3316129,0.0808517157 1.61032258,0.360723039 1.61032258,0.70278799 L1.61032258,6.53655025 C1.61032258,8.76930147 5.48748387,10.7284007 9.90967742,10.7284007 C14.331871,10.7284007 18.2090323,8.76930147 18.2090323,6.53655025 L18.2090323,0.70278799 C18.2090323,0.360723039 18.4877419,0.0808517157 18.8283871,0.0808517157 C19.1690323,0.0808517157 19.4477419,0.360723039 19.4477419,0.70278799 L19.4477419,6.53655025 C19.4477419,9.53428309 15.168,11.9722733 9.90967742,11.9722733 Z"></path>
                                        </g>
                                        <g transform="translate(5.574194, 13.060662)" id="Path">
                                            <path d="M9.90967742,6.23180147 C4.65135484,6.23180147 0.371612903,3.78137255 0.371612903,0.77120098 C0.371612903,0.429136029 0.650322581,0.149264706 0.990967742,0.149264706 C1.3316129,0.149264706 1.61032258,0.429136029 1.61032258,0.77120098 C1.61032258,3.01639093 5.48748387,4.98792892 9.90967742,4.98792892 C14.331871,4.98792892 18.2090323,3.01639093 18.2090323,0.77120098 C18.2090323,0.429136029 18.4877419,0.149264706 18.8283871,0.149264706 C19.1690323,0.149264706 19.4477419,0.429136029 19.4477419,0.77120098 C19.4477419,3.78137255 15.168,6.23180147 9.90967742,6.23180147 Z"></path>
                                        </g>
                                        <g id="Path">
                                            <path d="M15.4714839,14.453799 C14.5672258,14.453799 13.6691613,14.2920956 12.8268387,13.9624694 L0.829935484,9.50940564 C0.377806452,9.37879902 0.0371612903,8.94966299 0.00619354839,8.42723652 C-0.0247741935,7.91102941 0.253935484,7.44457721 0.724645161,7.23933824 L13.5824516,1.01375613 C14.7778065,0.491329657 16.0722581,0.491329657 17.2428387,1.0013174 L30.2926452,7.32640931 C30.7447742,7.55652574 31.0049032,8.04785539 30.9553548,8.5640625 C30.9058065,9.06783088 30.5899355,9.45965074 30.1192258,9.59647672 L29.2645161,9.8825674 C28.9362581,9.99451593 28.5894194,9.81415441 28.4779355,9.49074755 C28.3664516,9.16734069 28.539871,8.81283701 28.868129,8.70088848 L29.6794839,8.42723652 L16.7225806,2.12702206 C15.8740645,1.76007966 14.9574194,1.76007966 14.0903226,2.13946078 L1.23870968,8.37748162 L13.2603871,12.8056679 C14.6725161,13.3529718 16.2580645,13.3529718 17.7383226,12.8056679 L24.6193548,10.2806066 C24.9414194,10.1624387 25.2944516,10.3303615 25.412129,10.6537684 C25.5298065,10.9771752 25.3625806,11.3316789 25.0405161,11.4498468 L18.1594839,13.9749081 C17.2861935,14.2920956 16.3757419,14.453799 15.4714839,14.453799 Z"></path>
                                        </g>
                                        <g transform="translate(26.012903, 19.901961)" id="Shape">
                                            <path d="M3.34451613,3.42686887 L1.19535484,3.42686887 C0.854709677,3.42686887 0.576,3.14699755 0.576,2.8049326 L0.576,1.82849265 C0.576,0.88314951 1.35019355,0.0808517157 2.26683871,0.0808517157 C3.18348387,0.0808517157 3.95767742,0.88314951 3.95767742,1.82849265 L3.95767742,2.8049326 C3.96387097,3.14699755 3.68516129,3.42686887 3.34451613,3.42686887 Z M1.81470968,2.18299632 L2.72516129,2.18299632 L2.72516129,1.82849265 C2.72516129,1.57349877 2.50219355,1.32472426 2.27303226,1.32472426 C2.04387097,1.32472426 1.82090323,1.57349877 1.82090323,1.82849265 L1.82090323,2.18299632 L1.81470968,2.18299632 Z"></path>
                                        </g>
                                        <g transform="translate(25.393548, 21.145833)" id="Shape">
                                            <path d="M0.823741935,7.50677083 C0.693677419,7.50677083 0.563612903,7.46945466 0.458322581,7.38860294 C0.272516129,7.25177696 0.179612903,7.0278799 0.210580645,6.79776348 L1.04670968,0.988878676 C1.09006452,0.684129902 1.35019355,0.45401348 1.65987097,0.45401348 L3.87096774,0.45401348 C4.15587097,0.45401348 4.40980645,0.653033088 4.47174194,0.932904412 L5.3883871,4.8075674 C5.45651613,5.09365809 5.32025806,5.38596814 5.05393548,5.51035539 L1.09006452,7.44457721 C1.00954839,7.48811275 0.916645161,7.50677083 0.823741935,7.50677083 Z M2.19870968,1.69788603 L1.60412903,5.81510417 L4.06916129,4.60854779 L3.38167742,1.69788603 L2.19870968,1.69788603 Z"></path>
                                        </g>
                                        <g transform="translate(13.625806, 6.841299)" id="Path">
                                            <path d="M13.7496774,14.3916054 C13.4090323,14.3916054 13.1303226,14.1117341 13.1303226,13.7696691 L13.1303226,3.41443015 L0.786580645,1.79739583 C0.445935484,1.75386029 0.210580645,1.44289216 0.253935484,1.10082721 C0.297290323,0.758762255 0.61316129,0.522426471 0.947612903,0.56596201 L13.8301935,2.25140931 C14.139871,2.28872549 14.3690323,2.55615809 14.3690323,2.86712623 L14.3690323,13.7634498 C14.3690323,14.1117341 14.0903226,14.3916054 13.7496774,14.3916054 Z"></path>
                                        </g>
                                    </g>
                                </g>
                            </g>
                        </g>
                    </g>
                </g>
            </g>
        </g>
    </g>
</svg>