<?xml version="1.0" encoding="UTF-8"?>
<svg width="192px" height="192px" viewBox="0 0 192 192" version="1.1" xmlns="http://www.w3.org/2000/svg" xmlns:xlink="http://www.w3.org/1999/xlink">
    <title>Other/logo/colored/Unified Profile</title>
    <g id="Other/logo/colored/Unified-Profile" stroke="none" stroke-width="1" fill="none" fill-rule="evenodd">
        <rect id="area" x="0" y="0" width="192" height="192"></rect>
        <g id="Logo" transform="translate(28.000000, 36.000000)">
            <path d="M87,110 L87,75.9886686 L107.325,75.9886686 C123.9875,75.9886686 136,64.2606232 136,46.7988669 C136,29.3371105 123.9875,18 107.325,18 L74,18 L74,110 L87,110 Z M105.385714,65 L87,65 L87,29 L105.514286,29 C116.314286,29 123,35.5934066 123,46.8021978 C123,58.010989 116.314286,65 105.385714,65 Z" id="P" fill="#222222" fill-rule="nonzero"></path>
            <polygon id="Path" fill="#008ACE" points="46.6987128 0.000238361444 37 0 0 120 9.44887326 120 19 120 56 0"></polygon>
        </g>
    </g>
</svg>