<?xml version="1.0" encoding="UTF-8"?>
<svg width="53px" height="60px" viewBox="0 0 53 60" version="1.1" xmlns="http://www.w3.org/2000/svg" xmlns:xlink="http://www.w3.org/1999/xlink">
    <title>webpack</title>
    <g id="LP-Fix" stroke="none" stroke-width="1" fill="none" fill-rule="evenodd">
        <g id="LP-{Ready-to-Development}-UPD" transform="translate(-1089.000000, -4096.000000)" fill-rule="nonzero">
            <g id="Logotypes" transform="translate(120.000000, 4096.000000)">
                <g id="webpack" transform="translate(969.000000, 0.000000)">
                    <polygon id="Path" fill="#FFFFFF" points="26.4827586 0.00999349382 52.9655172 14.9902407 52.9655172 44.9607288 26.4827586 59.9409759 0 44.9607288 0 14.9902407"></polygon>
                    <path d="M48.2385948,43.9214052 L27.3621861,55.7437086 L27.3621861,46.5496943 L40.3737151,39.3843592 L48.2385948,43.9214052 Z M49.6676642,42.6322446 L49.6676642,17.9283279 L42.032635,22.3354587 L42.032635,38.2251139 L49.6676642,42.6322446 Z M4.64697463,43.9214052 L25.5233832,55.7337151 L25.5233832,46.5397008 L12.5118543,39.3843592 L4.64697463,43.9214052 L4.64697463,43.9214052 Z M3.217905,42.6322446 L3.217905,17.9283279 L10.8529343,22.3354587 L10.8529343,38.2251139 L3.217905,42.6322446 L3.217905,42.6322446 Z M4.10732597,16.3293689 L25.5233832,4.21725439 L25.5233832,13.1114639 L11.8023162,20.6565517 L11.6923878,20.7165126 L4.10732597,16.3293689 L4.10732597,16.3293689 Z M48.7682499,16.3293689 L27.3621861,4.21725439 L27.3621861,13.1114639 L41.0732597,20.6665452 L41.1831879,20.7265061 L48.7682499,16.3293689 L48.7682499,16.3293689 Z" id="Shape" fill="#8ED6FB"></path>
                    <path d="M25.5233832,44.4510604 L12.6917371,37.3856603 L12.6917371,23.4047626 L25.5233832,30.8099414 L25.5233832,44.4510604 L25.5233832,44.4510604 Z M27.3621861,44.4510604 L40.1938322,37.3956538 L40.1938322,23.4047626 L27.3621861,30.8099414 L27.3621861,44.4510604 Z M13.5511776,21.7858165 L26.4427846,14.7004294 L39.3243983,21.7858165 L26.4427846,29.2209759 L13.5511776,21.7858165 L13.5511776,21.7858165 Z" id="Shape" fill="#1C78C0"></path>
                </g>
            </g>
        </g>
    </g>
</svg>