<svg width="25" height="24" viewBox="0 0 25 24" fill="none" xmlns="http://www.w3.org/2000/svg">
<path d="M4.19231 3L10.3077 3C10.6901 3 11 3.30995 11 3.69231V9.80769C11 10.1901 10.6901 10.5 10.3077 10.5H4.19231C3.80995 10.5 3.5 10.1901 3.5 9.80769V3.69231C3.5 3.30995 3.80995 3 4.19231 3Z" fill="#07A956"/>
<path d="M4.19231 3L10.3077 3C10.6901 3 11 3.30995 11 3.69231V9.80769C11 10.1901 10.6901 10.5 10.3077 10.5H4.19231C3.80995 10.5 3.5 10.1901 3.5 9.80769V3.69231C3.5 3.30995 3.80995 3 4.19231 3Z" fill="url(#paint0_linear_2796_2565)" fill-opacity="0.6"/>
<path d="M14.75 3H20.8077C21.1901 3 21.5 3.30995 21.5 3.69231V9.80769C21.5 10.1901 21.1901 10.5 20.8077 10.5H14.75C14.3676 10.5 14.0577 10.1901 14.0577 9.80769V3.69231C14.0577 3.30995 14.3676 3 14.75 3Z" fill="#07A956"/>
<path d="M14.75 3H20.8077C21.1901 3 21.5 3.30995 21.5 3.69231V9.80769C21.5 10.1901 21.1901 10.5 20.8077 10.5H14.75C14.3676 10.5 14.0577 10.1901 14.0577 9.80769V3.69231C14.0577 3.30995 14.3676 3 14.75 3Z" fill="url(#paint1_linear_2796_2565)" fill-opacity="0.6"/>
<path d="M10.3077 13.5577H4.19231C3.80995 13.5577 3.5 13.8676 3.5 14.25L3.5 20.3077C3.5 20.6901 3.80995 21 4.19231 21H10.3077C10.6901 21 11 20.6901 11 20.3077V14.25C11 13.8676 10.6901 13.5577 10.3077 13.5577Z" fill="#07A956"/>
<path d="M10.3077 13.5577H4.19231C3.80995 13.5577 3.5 13.8676 3.5 14.25L3.5 20.3077C3.5 20.6901 3.80995 21 4.19231 21H10.3077C10.6901 21 11 20.6901 11 20.3077V14.25C11 13.8676 10.6901 13.5577 10.3077 13.5577Z" fill="url(#paint2_linear_2796_2565)" fill-opacity="0.6"/>
<path d="M14.75 13.5577H20.8077C21.1901 13.5577 21.5 13.8676 21.5 14.25V20.3077C21.5 20.6901 21.1901 21 20.8077 21H14.75C14.3676 21 14.0577 20.6901 14.0577 20.3077V14.25C14.0577 13.8676 14.3676 13.5577 14.75 13.5577Z" fill="#07A956"/>
<path d="M14.75 13.5577H20.8077C21.1901 13.5577 21.5 13.8676 21.5 14.25V20.3077C21.5 20.6901 21.1901 21 20.8077 21H14.75C14.3676 21 14.0577 20.6901 14.0577 20.3077V14.25C14.0577 13.8676 14.3676 13.5577 14.75 13.5577Z" fill="url(#paint3_linear_2796_2565)" fill-opacity="0.6"/>
<defs>
<linearGradient id="paint0_linear_2796_2565" x1="12.5" y1="3" x2="12.5" y2="21" gradientUnits="userSpaceOnUse">
<stop stop-color="white" stop-opacity="0"/>
<stop offset="1" stop-color="#3E467B"/>
</linearGradient>
<linearGradient id="paint1_linear_2796_2565" x1="12.5" y1="3" x2="12.5" y2="21" gradientUnits="userSpaceOnUse">
<stop stop-color="white" stop-opacity="0"/>
<stop offset="1" stop-color="#3E467B"/>
</linearGradient>
<linearGradient id="paint2_linear_2796_2565" x1="12.5" y1="3" x2="12.5" y2="21" gradientUnits="userSpaceOnUse">
<stop stop-color="white" stop-opacity="0"/>
<stop offset="1" stop-color="#3E467B"/>
</linearGradient>
<linearGradient id="paint3_linear_2796_2565" x1="12.5" y1="3" x2="12.5" y2="21" gradientUnits="userSpaceOnUse">
<stop stop-color="white" stop-opacity="0"/>
<stop offset="1" stop-color="#3E467B"/>
</linearGradient>
</defs>
</svg>
