<?xml version="1.0" encoding="UTF-8"?>
<svg width="168px" height="60px" viewBox="0 0 168 60" version="1.1" xmlns="http://www.w3.org/2000/svg" xmlns:xlink="http://www.w3.org/1999/xlink">
    <title>logo/UUI</title>
    <g id="Symbols" stroke="none" stroke-width="1" fill="none" fill-rule="evenodd">
        <g id="Header/Clear">
            <g id="Header">
                <g id="logo/UUI">
                    <rect id="bg" opacity="0" x="0" y="0" width="168" height="60"></rect>
                    <rect id="area" opacity="0" x="18" y="12" width="36" height="36"></rect>
                    <path d="M29.8965517,26.6 L29.8965517,33.3 L36,36.7 L42.1034483,33.3 L42.1034483,26.6 L36,23.2 L29.8965517,26.6 Z M25.4482759,23.4 L36.1034483,17.4 L46.7586207,23.4 L46.7586207,28.8 L51,26.4 L51,21.4 L35.8965517,13 L21,21.4 L21,26.4 L25.4482759,28.9 L25.4482759,23.4 Z M46.7586207,33 L46.7586207,36.5 L36.1034483,42.5 L25.4482759,36.5 L25.4482759,33.1 L21,30.7 L21,38.5 L36,47 L51,38.5 L51,30.7 L46.7586207,33 Z" id="Shape" fill="#F2F2F2"></path>
                    <path d="M65.442575,32 C68.7783467,32 70.8632041,30.1589041 70.8632041,25.4465753 L70.8632041,17.4027397 L68.4272129,17.4027397 L68.4272129,25.6438356 C68.4272129,28.7561644 67.1982443,29.7863014 65.442575,29.7863014 C63.7088515,29.7863014 62.5457206,28.7561644 62.5457206,25.6438356 L62.5457206,17.4027397 L60,17.4027397 L60,25.4465753 C60,30.1589041 62.1287491,32 65.442575,32 Z M76.7446964,31.7369863 L76.7446964,24.2191781 C77.644477,23.3424658 78.2589612,22.8821918 79.2026335,22.8821918 C80.3877103,22.8821918 80.8924653,23.539726 80.8924653,25.3150685 L80.8924653,31.7369863 L83.4162399,31.7369863 L83.4162399,24.9863014 C83.4162399,22.2684932 82.4067301,20.7123288 80.102414,20.7123288 C78.632041,20.7123288 77.5347476,21.4794521 76.5691295,22.4219178 L76.481346,22.4219178 L76.3057791,20.9753425 L74.2209217,20.9753425 L74.2209217,31.7369863 L76.7446964,31.7369863 Z M87.7834674,19.090411 C88.683248,19.090411 89.341624,18.4986301 89.341624,17.6657534 C89.341624,16.8109589 88.683248,16.2191781 87.7834674,16.2191781 C86.8836869,16.2191781 86.2253109,16.8109589 86.2253109,17.6657534 C86.2253109,18.4986301 86.8836869,19.090411 87.7834674,19.090411 Z M89.0343819,31.7369863 L89.0343819,20.9753425 L86.5106072,20.9753425 L86.5106072,31.7369863 L89.0343819,31.7369863 Z M95.2231163,31.7369863 L95.2231163,22.969863 L97.3299195,22.969863 L97.3299195,20.9753425 L95.2231163,20.9753425 L95.2231163,19.8136986 C95.2231163,18.5643836 95.7059254,17.9945205 96.5837601,17.9945205 C96.9568398,17.9945205 97.3738113,18.0821918 97.7688369,18.2575342 L98.2516459,16.3726027 C97.7688369,16.1753425 97.0446233,16 96.2765179,16 C93.7307974,16 92.6993416,17.6219178 92.6993416,19.8575342 L92.6993416,20.9753425 L91.2509144,21.0849315 L91.2509144,22.969863 L92.6993416,22.969863 L92.6993416,31.7369863 L95.2231163,31.7369863 Z M100.490124,19.090411 C101.389905,19.090411 102.048281,18.4986301 102.048281,17.6657534 C102.048281,16.8109589 101.389905,16.2191781 100.490124,16.2191781 C99.5903438,16.2191781 98.9319678,16.8109589 98.9319678,17.6657534 C98.9319678,18.4986301 99.5903438,19.090411 100.490124,19.090411 Z M101.741039,31.7369863 L101.741039,20.9753425 L99.2172641,20.9753425 L99.2172641,31.7369863 L101.741039,31.7369863 Z M109.575713,32 C110.936357,32 112.231163,31.5178082 113.262619,30.8383562 L112.40673,29.260274 C111.616679,29.7643836 110.826628,30.0493151 109.904901,30.0493151 C108.171178,30.0493151 106.942209,28.9534247 106.722751,27.0465753 L113.569861,27.0465753 C113.635699,26.7835616 113.67959,26.3013699 113.67959,25.8191781 C113.67959,22.8164384 112.14338,20.7123288 109.224579,20.7123288 C106.700805,20.7123288 104.264813,22.860274 104.264813,26.3671233 C104.264813,29.9178082 106.591075,32 109.575713,32 Z M111.485004,25.3369863 L106.700805,25.3369863 C106.920263,23.6054795 108.017557,22.6630137 109.290417,22.6630137 C110.76079,22.6630137 111.485004,23.6712329 111.485004,25.3369863 Z M119.868325,32 C121.031456,32 122.128749,31.3643836 122.9188,30.5753425 L123.006584,30.5753425 L123.182151,31.7369863 L125.267008,31.7369863 L125.267008,16.2630137 L122.743233,16.2630137 L122.743233,20.1643836 L122.831017,21.8958904 C121.997074,21.1726027 121.228969,20.7123288 120,20.7123288 C117.651792,20.7123288 115.43526,22.860274 115.43526,26.3671233 C115.43526,29.9178082 117.168983,32 119.868325,32 Z M120.482809,29.9178082 C118.924653,29.9178082 118.046818,28.6684932 118.046818,26.3452055 C118.046818,24.0876712 119.166057,22.7945205 120.548647,22.7945205 C121.27286,22.7945205 121.997074,23.0356164 122.743233,23.6931507 L122.743233,28.7123288 C122.01902,29.5452055 121.316752,29.9178082 120.482809,29.9178082 Z M138.456474,32 C141.792246,32 143.877103,30.1589041 143.877103,25.4465753 L143.877103,17.4027397 L141.441112,17.4027397 L141.441112,25.6438356 C141.441112,28.7561644 140.212143,29.7863014 138.456474,29.7863014 C136.722751,29.7863014 135.55962,28.7561644 135.55962,25.6438356 L135.55962,17.4027397 L133.013899,17.4027397 L133.013899,25.4465753 C133.013899,30.1589041 135.142648,32 138.456474,32 Z M150,31.7369863 L150,17.4027397 L147.454279,17.4027397 L147.454279,31.7369863 L150,31.7369863 Z" id="UnifiedUI" fill="#FFFFFF" fill-rule="nonzero" opacity="0.900000036"></path>
                    <g id="digital_platform" transform="translate(60.000000, 38.000000)" fill="#FFFFFF">
                        <g id="digital_platform_X2">
                            <path d="M-1.20792265e-12,7.0133206 L-1.20792265e-12,0.341323428 L1.64,0.341323428 C3.66,0.341323428 4.74,1.6233206 4.74,3.7033206 C4.74,5.7933206 3.66,7.0133206 1.68,7.0133206 L-1.20792265e-12,7.0133206 Z M0.83,6.3333206 L1.58,6.3333206 C3.11,6.3333206 3.88,5.3633206 3.88,3.7033206 C3.88,2.0533206 3.11,1.02132343 1.58,1.02132343 L0.83,1.02132343 L0.83,6.3333206 Z M6.02164223,7.0133206 L6.02164223,2.1533206 L6.84164223,2.1533206 L6.84164223,7.0133206 L6.02164223,7.0133206 Z M6.5079085,1.06 C6.1879085,1.06 5.9379085,0.84 5.9379085,0.53 C5.9379085,0.21 6.1879085,-2.66453526e-15 6.5079085,-2.66453526e-15 C6.8279085,-2.66453526e-15 7.0779085,0.21 7.0779085,0.53 C7.0779085,0.84 6.8279085,1.06 6.5079085,1.06 Z M10.0032935,9.03567383 C8.81329348,9.03567383 8.00334797,8.61 8.00334797,7.77 C8.00334797,7.36 8.27334797,6.97 8.71334797,6.67 L8.71334797,6.63 C8.47334797,6.48 8.28334797,6.22 8.28334797,5.84 C8.28334797,5.43 8.56334797,5.11 8.81334797,4.94 L8.81334797,4.9 C8.49334797,4.64 8.18334797,4.3233206 8.18334797,3.7433206 C8.18334797,2.6833206 9.02334797,2.0133206 10.013348,2.0133206 C10.283348,2.0133206 10.523348,2.0633206 10.703348,2.1333206 L12.393348,2.1333206 L12.393348,2.7633206 L11.393348,2.7633206 C11.623348,2.9833206 11.793348,3.3533206 11.793348,3.7633206 C11.793348,4.8033206 11.003348,5.3 10.013348,5.3 C9.77334797,5.3 9.50334797,5.24 9.28334797,5.13 C9.11334797,5.28 8.97334797,5.44 8.97334797,5.71 C8.97334797,6.02 9.17334797,6.24 9.83334797,6.24 L10.773348,6.24 C11.903348,6.24 12.473348,6.59 12.473348,7.4 C12.473348,8.3 11.5132935,9.03567383 10.0032935,9.03567383 Z M10.013348,4.75 C10.573348,4.75 11.043348,4.4533206 11.043348,3.7433206 C11.043348,3.0333206 10.583348,2.6133206 10.013348,2.6133206 C9.44334797,2.6133206 8.98334797,3.0333206 8.98334797,3.7433206 C8.98334797,4.4533206 9.45334797,4.75 10.013348,4.75 Z M10.1232935,8.46567383 C11.0532935,8.46567383 11.673348,8.03 11.673348,7.52 C11.673348,7.07 11.323348,6.92 10.693348,6.92 L9.85334797,6.92 C9.66334797,6.92 9.43334797,6.9 9.22334797,6.84 C8.87334797,7.09 8.72334797,7.38 8.72334797,7.66 C8.72334797,8.18 9.24329348,8.46567383 10.1232935,8.46567383 Z M14.0095652,6.92 L14.0095652,2.06 L14.8295652,2.06 L14.8295652,6.92 L14.0095652,6.92 Z M14.3891329,1.06 C14.0691329,1.06 13.8191329,0.84 13.8191329,0.53 C13.8191329,0.21 14.0691329,-2.66453526e-15 14.3891329,-2.66453526e-15 C14.7091329,-2.66453526e-15 14.9591329,0.21 14.9591329,0.53 C14.9591329,0.84 14.7091329,1.06 14.3891329,1.06 Z M18.395,7.0233206 C17.355,7.0233206 17.005,6.3633206 17.005,5.4033206 L17.005,2.7133206 L16.285,2.7133206 L16.285,2.0933206 L17.045,2.0433206 L17.145,1.0133206 L17.835,1.0133206 L17.835,2.0433206 L19.0079265,2.0433206 L19.0079265,2.7133206 L17.835,2.7133206 L17.835,5.4133206 C17.835,6.0133206 18.025,6.3533206 18.585,6.3533206 C18.755,6.3533206 18.975,6.2833206 19.135,6.2233206 L19.295,6.8433206 C19.025,6.9333206 18.695,7.0233206 18.395,7.0233206 Z M21.6083857,7.06 C20.7983857,7.06 20.1883857,6.55 20.1883857,5.68 C20.1883857,4.62 21.0983857,4.09 23.1683857,3.86 C23.1683857,3.24 22.9683857,2.64 22.1683857,2.64 C21.6083857,2.64 21.0983857,2.9 20.7183857,3.16 L20.3983857,2.59 C20.8483857,2.3 21.5283857,1.96 22.3083857,1.96 C23.4983857,1.96 23.9983857,2.75 23.9983857,3.96 L23.9983857,6.94 L23.3183857,6.94 L23.2483857,6.36 L23.2183857,6.36 C22.7583857,6.74 22.2183857,7.06 21.6083857,7.06 Z M21.8483857,6.4 C22.3183857,6.4 22.6983857,6.17 23.1683857,5.75 L23.1683857,4.4 C21.5483857,4.6 20.9883857,5 20.9883857,5.62 C20.9883857,6.17 21.3683857,6.4 21.8483857,6.4 Z M26.0843572,6.94 C25.4643572,6.94 25.2143572,6.55 25.2143572,5.84 L25.1046505,-8.8817842e-15 L25.9246505,-8.8817842e-15 L26.0343572,5.9 C26.0343572,6.16 26.1443572,6.26 26.2643572,6.26 C26.3143572,6.26 26.3543572,6.26 26.4443572,6.24 L26.5543572,6.86 C26.4443572,6.91 26.3043572,6.94 26.0843572,6.94 Z M31.070207,7.0033206 L31.070207,0.0833206019 L32.940207,0.0833206019 C34.410207,0.0833206019 35.400207,0.673320602 35.400207,2.1133206 C35.400207,3.4933206 34.420207,3.9533206 32.980207,3.9533206 L31.900207,3.9533206 L31.900207,7.0033206 L31.070207,7.0033206 Z M31.900207,3.2733206 L32.880207,3.2733206 C34.020207,3.2733206 34.570207,3.0433206 34.570207,2.1133206 C34.570207,1.1633206 33.990207,0.753320602 32.840207,0.753320602 L31.900207,0.753320602 L31.900207,3.2733206 Z M37.9071261,6.9933206 C37.2871261,6.9933206 37.0371261,6.6033206 37.0371261,5.8933206 L37.0371261,0.0133206019 L37.8571261,0.0133206019 L37.8571261,5.9533206 C37.8571261,6.2133206 37.9671261,6.3133206 38.0871261,6.3133206 C38.1371261,6.3133206 38.1771261,6.3133206 38.2671261,6.2933206 L38.3771261,6.9133206 C38.2671261,6.9633206 38.1271261,6.9933206 37.9071261,6.9933206 Z M40.6033067,7.0133206 C39.7933067,7.0133206 39.1833067,6.5033206 39.1833067,5.6333206 C39.1833067,4.5733206 40.0933067,4.0433206 42.1633067,3.8133206 C42.1633067,3.1933206 41.9633067,2.5933206 41.1633067,2.5933206 C40.6033067,2.5933206 40.0933067,2.8533206 39.7133067,3.1133206 L39.3933067,2.5433206 C39.8433067,2.2533206 40.5233067,1.9133206 41.3033067,1.9133206 C42.4933067,1.9133206 42.9933067,2.7033206 42.9933067,3.9133206 L42.9933067,6.8933206 L42.3133067,6.8933206 L42.2433067,6.3133206 L42.2133067,6.3133206 C41.7533067,6.6933206 41.2133067,7.0133206 40.6033067,7.0133206 Z M40.8433067,6.3533206 C41.3133067,6.3533206 41.6933067,6.1233206 42.1633067,5.7033206 L42.1633067,4.3533206 C40.5433067,4.5533206 39.9833067,4.9533206 39.9833067,5.5733206 C39.9833067,6.1233206 40.3633067,6.3533206 40.8433067,6.3533206 Z M46.396577,7.0233206 C45.356577,7.0233206 45.006577,6.3633206 45.006577,5.4033206 L45.006577,2.7133206 L44.286577,2.7133206 L44.286577,2.0933206 L45.046577,2.0433206 L45.146577,1.0133206 L45.836577,1.0133206 L45.836577,2.0433206 L47.0095035,2.0433206 L47.0095035,2.7133206 L45.836577,2.7133206 L45.836577,5.4133206 C45.836577,6.0133206 46.026577,6.3533206 46.586577,6.3533206 C46.756577,6.3533206 46.976577,6.2833206 47.136577,6.2233206 L47.296577,6.8433206 C47.026577,6.9333206 46.696577,7.0233206 46.396577,7.0233206 Z M51.0299999,0.243320602 L51.1245655,0.873320602 C50.9445655,0.793320602 50.7545655,0.753320602 50.5745655,0.753320602 C50.1145655,0.753320602 49.8945655,1.0733206 49.8945655,1.6933206 L49.8945655,2.1533206 L50.9245655,2.1533206 L50.9245655,2.8233206 L49.8945655,2.8233206 L49.8945655,7.0133206 L49.0745655,7.0133206 L49.0745655,2.8233206 L48.4145655,2.8233206 L48.4145655,2.2033206 L49.0745655,2.1533206 L49.0745655,1.6933206 C49.0745655,0.703320602 49.5245655,0.0833206019 50.4945655,0.0833206019 C50.7945655,0.0833206019 50.8099999,0.153320602 51.0299999,0.243320602 Z M54.5010106,7.0133206 C53.3110106,7.0133206 52.2510106,6.0833206 52.2510106,4.4733206 C52.2510106,2.8433206 53.3110106,1.9133206 54.5010106,1.9133206 C55.6910106,1.9133206 56.7510106,2.8433206 56.7510106,4.4733206 C56.7510106,6.0833206 55.6910106,7.0133206 54.5010106,7.0133206 Z M54.5010106,6.3333206 C55.3410106,6.3333206 55.9010106,5.5833206 55.9010106,4.4733206 C55.9010106,3.3533206 55.3410106,2.5933206 54.5010106,2.5933206 C53.6710106,2.5933206 53.1010106,3.3533206 53.1010106,4.4733206 C53.1010106,5.5833206 53.6710106,6.3333206 54.5010106,6.3333206 Z M57.9816865,7.0233206 L57.9816865,2.1633206 L58.6616865,2.1633206 L58.7316865,3.0433206 L58.7616865,3.0433206 C59.0916865,2.4333206 59.5916865,2.0433206 60.1416865,2.0433206 C60.3516865,2.0433206 60.5016865,2.0733206 60.6616865,2.1433206 L60.5016865,2.8633206 C60.3416865,2.8133206 60.2316865,2.7833206 60.0316865,2.7833206 C59.6216865,2.7833206 59.1316865,3.0833206 58.8016865,3.9033206 L58.8016865,7.0233206 L57.9816865,7.0233206 Z M62.1208786,7.0133206 L62.1208786,2.1533206 L62.8008786,2.1533206 L62.8708786,2.8533206 L62.9008786,2.8533206 C63.3208786,2.3933206 63.8308786,2.0333206 64.4108786,2.0333206 C65.1508786,2.0333206 65.5508786,2.3833206 65.7508786,2.9633206 C66.2608786,2.4133206 66.7608786,2.0333206 67.3508786,2.0333206 C68.3508786,2.0333206 68.8308786,2.6933206 68.8308786,3.9333206 L68.8308786,7.0133206 L68.0108786,7.0133206 L68.0108786,4.0433206 C68.0108786,3.1333206 67.7208786,2.7433206 67.1108786,2.7433206 C66.7308786,2.7433206 66.3408786,2.9933206 65.8908786,3.4933206 L65.8908786,7.0133206 L65.0708786,7.0133206 L65.0708786,4.0433206 C65.0708786,3.1333206 64.7808786,2.7433206 64.1608786,2.7433206 C63.8008786,2.7433206 63.3908786,2.9933206 62.9408786,3.4933206 L62.9408786,7.0133206 L62.1208786,7.0133206 Z" id="Digital_Platform"></path>
                            <path d="M-1.20792265e-12,7.0133206 L-1.20792265e-12,0.341323428 L1.64,0.341323428 C3.66,0.341323428 4.74,1.6233206 4.74,3.7033206 C4.74,5.7933206 3.66,7.0133206 1.68,7.0133206 L-1.20792265e-12,7.0133206 Z M0.83,6.3333206 L1.58,6.3333206 C3.11,6.3333206 3.88,5.3633206 3.88,3.7033206 C3.88,2.0533206 3.11,1.02132343 1.58,1.02132343 L0.83,1.02132343 L0.83,6.3333206 Z M6.02164223,7.0133206 L6.02164223,2.1533206 L6.84164223,2.1533206 L6.84164223,7.0133206 L6.02164223,7.0133206 Z M6.5079085,1.06 C6.1879085,1.06 5.9379085,0.84 5.9379085,0.53 C5.9379085,0.21 6.1879085,-2.66453526e-15 6.5079085,-2.66453526e-15 C6.8279085,-2.66453526e-15 7.0779085,0.21 7.0779085,0.53 C7.0779085,0.84 6.8279085,1.06 6.5079085,1.06 Z M10.0032935,9.03567383 C8.81329348,9.03567383 8.00334797,8.61 8.00334797,7.77 C8.00334797,7.36 8.27334797,6.97 8.71334797,6.67 L8.71334797,6.63 C8.47334797,6.48 8.28334797,6.22 8.28334797,5.84 C8.28334797,5.43 8.56334797,5.11 8.81334797,4.94 L8.81334797,4.9 C8.49334797,4.64 8.18334797,4.3233206 8.18334797,3.7433206 C8.18334797,2.6833206 9.02334797,2.0133206 10.013348,2.0133206 C10.283348,2.0133206 10.523348,2.0633206 10.703348,2.1333206 L12.393348,2.1333206 L12.393348,2.7633206 L11.393348,2.7633206 C11.623348,2.9833206 11.793348,3.3533206 11.793348,3.7633206 C11.793348,4.8033206 11.003348,5.3 10.013348,5.3 C9.77334797,5.3 9.50334797,5.24 9.28334797,5.13 C9.11334797,5.28 8.97334797,5.44 8.97334797,5.71 C8.97334797,6.02 9.17334797,6.24 9.83334797,6.24 L10.773348,6.24 C11.903348,6.24 12.473348,6.59 12.473348,7.4 C12.473348,8.3 11.5132935,9.03567383 10.0032935,9.03567383 Z M10.013348,4.75 C10.573348,4.75 11.043348,4.4533206 11.043348,3.7433206 C11.043348,3.0333206 10.583348,2.6133206 10.013348,2.6133206 C9.44334797,2.6133206 8.98334797,3.0333206 8.98334797,3.7433206 C8.98334797,4.4533206 9.45334797,4.75 10.013348,4.75 Z M10.1232935,8.46567383 C11.0532935,8.46567383 11.673348,8.03 11.673348,7.52 C11.673348,7.07 11.323348,6.92 10.693348,6.92 L9.85334797,6.92 C9.66334797,6.92 9.43334797,6.9 9.22334797,6.84 C8.87334797,7.09 8.72334797,7.38 8.72334797,7.66 C8.72334797,8.18 9.24329348,8.46567383 10.1232935,8.46567383 Z M14.0095652,6.92 L14.0095652,2.06 L14.8295652,2.06 L14.8295652,6.92 L14.0095652,6.92 Z M14.3891329,1.06 C14.0691329,1.06 13.8191329,0.84 13.8191329,0.53 C13.8191329,0.21 14.0691329,-2.66453526e-15 14.3891329,-2.66453526e-15 C14.7091329,-2.66453526e-15 14.9591329,0.21 14.9591329,0.53 C14.9591329,0.84 14.7091329,1.06 14.3891329,1.06 Z M18.395,7.0233206 C17.355,7.0233206 17.005,6.3633206 17.005,5.4033206 L17.005,2.7133206 L16.285,2.7133206 L16.285,2.0933206 L17.045,2.0433206 L17.145,1.0133206 L17.835,1.0133206 L17.835,2.0433206 L19.0079265,2.0433206 L19.0079265,2.7133206 L17.835,2.7133206 L17.835,5.4133206 C17.835,6.0133206 18.025,6.3533206 18.585,6.3533206 C18.755,6.3533206 18.975,6.2833206 19.135,6.2233206 L19.295,6.8433206 C19.025,6.9333206 18.695,7.0233206 18.395,7.0233206 Z M21.6083857,7.06 C20.7983857,7.06 20.1883857,6.55 20.1883857,5.68 C20.1883857,4.62 21.0983857,4.09 23.1683857,3.86 C23.1683857,3.24 22.9683857,2.64 22.1683857,2.64 C21.6083857,2.64 21.0983857,2.9 20.7183857,3.16 L20.3983857,2.59 C20.8483857,2.3 21.5283857,1.96 22.3083857,1.96 C23.4983857,1.96 23.9983857,2.75 23.9983857,3.96 L23.9983857,6.94 L23.3183857,6.94 L23.2483857,6.36 L23.2183857,6.36 C22.7583857,6.74 22.2183857,7.06 21.6083857,7.06 Z M21.8483857,6.4 C22.3183857,6.4 22.6983857,6.17 23.1683857,5.75 L23.1683857,4.4 C21.5483857,4.6 20.9883857,5 20.9883857,5.62 C20.9883857,6.17 21.3683857,6.4 21.8483857,6.4 Z M26.0843572,6.94 C25.4643572,6.94 25.2143572,6.55 25.2143572,5.84 L25.1046505,-8.8817842e-15 L25.9246505,-8.8817842e-15 L26.0343572,5.9 C26.0343572,6.16 26.1443572,6.26 26.2643572,6.26 C26.3143572,6.26 26.3543572,6.26 26.4443572,6.24 L26.5543572,6.86 C26.4443572,6.91 26.3043572,6.94 26.0843572,6.94 Z M31.070207,7.0033206 L31.070207,0.0833206019 L32.940207,0.0833206019 C34.410207,0.0833206019 35.400207,0.673320602 35.400207,2.1133206 C35.400207,3.4933206 34.420207,3.9533206 32.980207,3.9533206 L31.900207,3.9533206 L31.900207,7.0033206 L31.070207,7.0033206 Z M31.900207,3.2733206 L32.880207,3.2733206 C34.020207,3.2733206 34.570207,3.0433206 34.570207,2.1133206 C34.570207,1.1633206 33.990207,0.753320602 32.840207,0.753320602 L31.900207,0.753320602 L31.900207,3.2733206 Z M37.9071261,6.9933206 C37.2871261,6.9933206 37.0371261,6.6033206 37.0371261,5.8933206 L37.0371261,0.0133206019 L37.8571261,0.0133206019 L37.8571261,5.9533206 C37.8571261,6.2133206 37.9671261,6.3133206 38.0871261,6.3133206 C38.1371261,6.3133206 38.1771261,6.3133206 38.2671261,6.2933206 L38.3771261,6.9133206 C38.2671261,6.9633206 38.1271261,6.9933206 37.9071261,6.9933206 Z M40.6033067,7.0133206 C39.7933067,7.0133206 39.1833067,6.5033206 39.1833067,5.6333206 C39.1833067,4.5733206 40.0933067,4.0433206 42.1633067,3.8133206 C42.1633067,3.1933206 41.9633067,2.5933206 41.1633067,2.5933206 C40.6033067,2.5933206 40.0933067,2.8533206 39.7133067,3.1133206 L39.3933067,2.5433206 C39.8433067,2.2533206 40.5233067,1.9133206 41.3033067,1.9133206 C42.4933067,1.9133206 42.9933067,2.7033206 42.9933067,3.9133206 L42.9933067,6.8933206 L42.3133067,6.8933206 L42.2433067,6.3133206 L42.2133067,6.3133206 C41.7533067,6.6933206 41.2133067,7.0133206 40.6033067,7.0133206 Z M40.8433067,6.3533206 C41.3133067,6.3533206 41.6933067,6.1233206 42.1633067,5.7033206 L42.1633067,4.3533206 C40.5433067,4.5533206 39.9833067,4.9533206 39.9833067,5.5733206 C39.9833067,6.1233206 40.3633067,6.3533206 40.8433067,6.3533206 Z M46.396577,7.0233206 C45.356577,7.0233206 45.006577,6.3633206 45.006577,5.4033206 L45.006577,2.7133206 L44.286577,2.7133206 L44.286577,2.0933206 L45.046577,2.0433206 L45.146577,1.0133206 L45.836577,1.0133206 L45.836577,2.0433206 L47.0095035,2.0433206 L47.0095035,2.7133206 L45.836577,2.7133206 L45.836577,5.4133206 C45.836577,6.0133206 46.026577,6.3533206 46.586577,6.3533206 C46.756577,6.3533206 46.976577,6.2833206 47.136577,6.2233206 L47.296577,6.8433206 C47.026577,6.9333206 46.696577,7.0233206 46.396577,7.0233206 Z M51.0299999,0.243320602 L51.1245655,0.873320602 C50.9445655,0.793320602 50.7545655,0.753320602 50.5745655,0.753320602 C50.1145655,0.753320602 49.8945655,1.0733206 49.8945655,1.6933206 L49.8945655,2.1533206 L50.9245655,2.1533206 L50.9245655,2.8233206 L49.8945655,2.8233206 L49.8945655,7.0133206 L49.0745655,7.0133206 L49.0745655,2.8233206 L48.4145655,2.8233206 L48.4145655,2.2033206 L49.0745655,2.1533206 L49.0745655,1.6933206 C49.0745655,0.703320602 49.5245655,0.0833206019 50.4945655,0.0833206019 C50.7945655,0.0833206019 50.8099999,0.153320602 51.0299999,0.243320602 Z M54.5010106,7.0133206 C53.3110106,7.0133206 52.2510106,6.0833206 52.2510106,4.4733206 C52.2510106,2.8433206 53.3110106,1.9133206 54.5010106,1.9133206 C55.6910106,1.9133206 56.7510106,2.8433206 56.7510106,4.4733206 C56.7510106,6.0833206 55.6910106,7.0133206 54.5010106,7.0133206 Z M54.5010106,6.3333206 C55.3410106,6.3333206 55.9010106,5.5833206 55.9010106,4.4733206 C55.9010106,3.3533206 55.3410106,2.5933206 54.5010106,2.5933206 C53.6710106,2.5933206 53.1010106,3.3533206 53.1010106,4.4733206 C53.1010106,5.5833206 53.6710106,6.3333206 54.5010106,6.3333206 Z M57.9816865,7.0233206 L57.9816865,2.1633206 L58.6616865,2.1633206 L58.7316865,3.0433206 L58.7616865,3.0433206 C59.0916865,2.4333206 59.5916865,2.0433206 60.1416865,2.0433206 C60.3516865,2.0433206 60.5016865,2.0733206 60.6616865,2.1433206 L60.5016865,2.8633206 C60.3416865,2.8133206 60.2316865,2.7833206 60.0316865,2.7833206 C59.6216865,2.7833206 59.1316865,3.0833206 58.8016865,3.9033206 L58.8016865,7.0233206 L57.9816865,7.0233206 Z M62.1208786,7.0133206 L62.1208786,2.1533206 L62.8008786,2.1533206 L62.8708786,2.8533206 L62.9008786,2.8533206 C63.3208786,2.3933206 63.8308786,2.0333206 64.4108786,2.0333206 C65.1508786,2.0333206 65.5508786,2.3833206 65.7508786,2.9633206 C66.2608786,2.4133206 66.7608786,2.0333206 67.3508786,2.0333206 C68.3508786,2.0333206 68.8308786,2.6933206 68.8308786,3.9333206 L68.8308786,7.0133206 L68.0108786,7.0133206 L68.0108786,4.0433206 C68.0108786,3.1333206 67.7208786,2.7433206 67.1108786,2.7433206 C66.7308786,2.7433206 66.3408786,2.9933206 65.8908786,3.4933206 L65.8908786,7.0133206 L65.0708786,7.0133206 L65.0708786,4.0433206 C65.0708786,3.1333206 64.7808786,2.7433206 64.1608786,2.7433206 C63.8008786,2.7433206 63.3908786,2.9933206 62.9408786,3.4933206 L62.9408786,7.0133206 L62.1208786,7.0133206 Z" id="Digital_Platform"></path>
                        </g>
                    </g>
                </g>
            </g>
        </g>
    </g>
</svg>