<?xml version="1.0" encoding="UTF-8" standalone="no"?>
<!-- Created with Inkscape (http://www.inkscape.org/) -->

<svg
   xmlns="http://www.w3.org/2000/svg"
   width="144"
   height="60"
   version="1.1"
   viewBox="0 0 210 297"
   id="svg4608">
  <defs
     id="defs4612" />
  <g
     style="fill:#ffffff"
     transform="matrix(0.28457055,0,0,0.28457055,-128.17562,97.991302)"
     id="contrast_test">
    <g
       style="fill:#ffffff"
       transform="matrix(1.9113,0,0,1.9113,-112.62,-138.69)"
       id="symbol">
      <path
         style="fill:#ffffff"
         id="path4598"
         d="m 279,103.94 a 187.67,187.67 0 0 0 -73.29,1.35 184.41,184.41 0 0 0 -21,-69.7 A 186,186 0 0 0 160,0 185,185 0 0 0 114.3,105.3 187.43,187.43 0 0 0 41,103.94 183.65,183.65 0 0 0 0,116.41 a 186.12,186.12 0 0 0 26,34.24 185.86,185.86 0 0 0 59.74,41.71 184.39,184.39 0 0 0 -24.06,69.69 186.62,186.62 0 0 0 -1.62,24.6 q 0,8.94 0.83,17.65 a 184.62,184.62 0 0 0 40.6,-14 186.51,186.51 0 0 0 58.51,-44.42 186.51,186.51 0 0 0 58.52,44.38 184.25,184.25 0 0 0 40.58,14 q 0.82,-8.71 0.83,-17.64 a 188.34,188.34 0 0 0 -1.62,-24.6 184.52,184.52 0 0 0 -24.07,-69.68 185.59,185.59 0 0 0 59.76,-41.69 186.39,186.39 0 0 0 26,-34.23 184.19,184.19 0 0 0 -41,-12.48 z M 189.3,138 v 2.85 q -5.82,-4.59 -12,-8.73 5.73,-2 11.69,-3.48 c 0.19,3.12 0.31,6.23 0.31,9.36 z M 160,218.09 a 122.62,122.62 0 0 1 -7.93,-10.45 c 2.63,0.12 5.28,0.17 7.93,0.17 2.65,0 5.3,-0.05 7.93,-0.17 A 122.62,122.62 0 0 1 160,218.09 Z m 0,-25.36 a 125,125 0 0 1 -17.18,-1.18 122.64,122.64 0 0 1 -10.22,-31.81 124,124 0 0 1 27.4,-20 124,124 0 0 1 27.4,20 122.64,122.64 0 0 1 -10.22,31.81 125,125 0 0 1 -17.18,1.18 z M 130.7,138 c 0,-3.15 0.12,-6.26 0.35,-9.36 4,1 7.87,2.14 11.67,3.48 -4.11,2.74 -8.1,5.66 -12,8.71 -0.01,-0.92 -0.02,-1.83 -0.02,-2.83 z m -5.6,49.73 a 123.24,123.24 0 0 1 -11.87,-4.13 120.39,120.39 0 0 1 7.17,-10.29 q 2.05,7.36 4.7,14.44 z m 74.5,-14.42 a 120.39,120.39 0 0 1 7.17,10.29 123.24,123.24 0 0 1 -11.87,4.13 q 2.64,-7.06 4.7,-14.4 z M 160,58 A 123.5,123.5 0 0 1 186.27,110.74 182.49,182.49 0 0 0 160,121.92 182.85,182.85 0 0 0 133.74,110.7 123.59,123.59 0 0 1 160,58 Z M 54.64,134.21 a 123.66,123.66 0 0 1 46.77,-9.12 c 4.07,0 8.11,0.2 12.09,0.59 a 185.91,185.91 0 0 0 2.5,28.11 186,186 0 0 0 -19,21.75 124.57,124.57 0 0 1 -42.36,-41.33 z m 40.22,124.32 c -0.22,-3.09 -0.35,-6.21 -0.35,-9.36 a 123.78,123.78 0 0 1 10.35,-49.68 184.37,184.37 0 0 0 28.14,6.37 186.34,186.34 0 0 0 14.86,24.72 123.66,123.66 0 0 1 -53,27.95 z m 130.63,-9.36 c 0,3.15 -0.13,6.27 -0.35,9.36 a 123.66,123.66 0 0 1 -53,-27.95 186.34,186.34 0 0 0 14.86,-24.72 184.37,184.37 0 0 0 28.11,-6.37 123.78,123.78 0 0 1 10.38,49.68 z M 223,175.54 a 186.68,186.68 0 0 0 -19,-21.74 184.76,184.76 0 0 0 2.53,-28.12 c 4,-0.39 8,-0.59 12.09,-0.59 a 123.66,123.66 0 0 1 46.77,9.12 124.36,124.36 0 0 1 -42.39,41.33 z" />
    </g>
  </g>
  <g
     id="text4604"
     style="font-size:17.33300018px;line-height:1.25;font-family:'Source Sans Pro';letter-spacing:0px;word-spacing:0px;fill:#ffffff"
     aria-label="LOGO"
     transform="matrix(5.488784,0,0,5.488784,-809.87063,-681.36722)">
    <path
       id="path4614"
       style="font-size:17.33300018px;fill:#ffffff"
       d="m 170.20009,157.45003 h -7.9725 v -12.60197 h 1.67575 v 11.11241 h 6.29675 z" />
    <path
       id="path4616"
       style="font-size:17.33300018px;fill:#ffffff"
       d="m 181.10092,146.29529 q 0.77017,0.84634 1.17641,2.07353 0.41471,1.22719 0.41471,2.78445 0,1.55727 -0.42317,2.79292 -0.41471,1.22719 -1.16795,2.04814 -0.77863,0.8548 -1.84501,1.28643 -1.05793,0.43163 -2.42053,0.43163 -1.32875,0 -2.42053,-0.44009 -1.08331,-0.4401 -1.84501,-1.27797 -0.76171,-0.83788 -1.17641,-2.0566 -0.40624,-1.21873 -0.40624,-2.78446 0,-1.54033 0.40624,-2.75906 0.40624,-1.22719 1.18487,-2.09892 0.74478,-0.82941 1.84502,-1.2695 1.1087,-0.4401 2.41206,-0.4401 1.35414,0 2.42899,0.44856 1.08331,0.4401 1.83655,1.26104 z m -0.15234,4.85798 q 0,-2.45438 -1.10024,-3.78313 -1.10024,-1.33721 -3.0045,-1.33721 -1.92118,0 -3.02142,1.33721 -1.09178,1.32875 -1.09178,3.78313 0,2.47977 1.11717,3.80006 1.11716,1.31182 2.99603,1.31182 1.87887,0 2.98758,-1.31182 1.11716,-1.32029 1.11716,-3.80006 z" />
    <path
       id="path4618"
       style="font-size:17.33300018px;fill:#ffffff"
       d="m 195.86106,156.51906 q -1.03254,0.47395 -2.25973,0.82941 -1.21872,0.347 -2.36128,0.347 -1.47263,0 -2.69982,-0.40625 -1.22719,-0.40624 -2.09045,-1.21872 -0.87173,-0.82095 -1.34568,-2.04814 -0.47395,-1.23565 -0.47395,-2.88601 0,-3.02143 1.76039,-4.76489 1.76884,-1.75192 4.84951,-1.75192 1.07485,0 2.19202,0.26237 1.12563,0.2539 2.42052,0.87173 v 1.98889 h -0.15234 q -0.26236,-0.20312 -0.7617,-0.53319 -0.49934,-0.33007 -0.98175,-0.55012 -0.58398,-0.26237 -1.32875,-0.43163 -0.73632,-0.17773 -1.67575,-0.17773 -2.11585,0 -3.3515,1.3626 -1.22719,1.35414 -1.22719,3.67311 0,2.44591 1.28643,3.80852 1.28644,1.35414 3.50384,1.35414 0.81249,0 1.61651,-0.16081 0.81248,-0.1608 1.42184,-0.4147 v -3.08914 h -3.37688 v -1.47262 h 5.03571 z" />
    <path
       id="path4620"
       style="font-size:17.33300018px;fill:#ffffff"
       d="m 208.18374,146.29529 q 0.77016,0.84634 1.17641,2.07353 0.4147,1.22719 0.4147,2.78445 0,1.55727 -0.42317,2.79292 -0.4147,1.22719 -1.16794,2.04814 -0.77863,0.8548 -1.84502,1.28643 -1.05792,0.43163 -2.42053,0.43163 -1.32875,0 -2.42052,-0.44009 -1.08332,-0.4401 -1.84502,-1.27797 -0.7617,-0.83788 -1.17641,-2.0566 -0.40624,-1.21873 -0.40624,-2.78446 0,-1.54033 0.40624,-2.75906 0.40624,-1.22719 1.18487,-2.09892 0.74478,-0.82941 1.84502,-1.2695 1.1087,-0.4401 2.41206,-0.4401 1.35414,0 2.42899,0.44856 1.08332,0.4401 1.83656,1.26104 z m -0.15234,4.85798 q 0,-2.45438 -1.10024,-3.78313 -1.10024,-1.33721 -3.0045,-1.33721 -1.92119,0 -3.02143,1.33721 -1.09178,1.32875 -1.09178,3.78313 0,2.47977 1.11717,3.80006 1.11717,1.31182 2.99604,1.31182 1.87887,0 2.98757,-1.31182 1.11717,-1.32029 1.11717,-3.80006 z" />
  </g>
</svg>
