<?xml version="1.0" encoding="UTF-8" standalone="no"?>
<!-- Created with Inkscape (http://www.inkscape.org/) -->

<svg
   xmlns="http://www.w3.org/2000/svg"
   width="240"
   height="60"
   version="1.1"
   viewBox="0 0 210 297"
   id="svg4667">
  <defs
     id="defs4671" />
  <g
     style="fill:#ffffff"
     transform="matrix(0.28457055,0,0,0.28457055,-400.98142,97.991302)"
     id="contrast_test">
    <g
       style="fill:#ffffff"
       transform="matrix(1.9113,0,0,1.9113,-112.62,-138.69)"
       id="symbol">
      <path
         style="fill:#ffffff"
         id="path4657"
         d="m 279,103.94 a 187.67,187.67 0 0 0 -73.29,1.35 184.41,184.41 0 0 0 -21,-69.7 A 186,186 0 0 0 160,0 185,185 0 0 0 114.3,105.3 187.43,187.43 0 0 0 41,103.94 183.65,183.65 0 0 0 0,116.41 a 186.12,186.12 0 0 0 26,34.24 185.86,185.86 0 0 0 59.74,41.71 184.39,184.39 0 0 0 -24.06,69.69 186.62,186.62 0 0 0 -1.62,24.6 q 0,8.94 0.83,17.65 a 184.62,184.62 0 0 0 40.6,-14 186.51,186.51 0 0 0 58.51,-44.42 186.51,186.51 0 0 0 58.52,44.38 184.25,184.25 0 0 0 40.58,14 q 0.82,-8.71 0.83,-17.64 a 188.34,188.34 0 0 0 -1.62,-24.6 184.52,184.52 0 0 0 -24.07,-69.68 185.59,185.59 0 0 0 59.76,-41.69 186.39,186.39 0 0 0 26,-34.23 184.19,184.19 0 0 0 -41,-12.48 z M 189.3,138 v 2.85 q -5.82,-4.59 -12,-8.73 5.73,-2 11.69,-3.48 c 0.19,3.12 0.31,6.23 0.31,9.36 z M 160,218.09 a 122.62,122.62 0 0 1 -7.93,-10.45 c 2.63,0.12 5.28,0.17 7.93,0.17 2.65,0 5.3,-0.05 7.93,-0.17 A 122.62,122.62 0 0 1 160,218.09 Z m 0,-25.36 a 125,125 0 0 1 -17.18,-1.18 122.64,122.64 0 0 1 -10.22,-31.81 124,124 0 0 1 27.4,-20 124,124 0 0 1 27.4,20 122.64,122.64 0 0 1 -10.22,31.81 125,125 0 0 1 -17.18,1.18 z M 130.7,138 c 0,-3.15 0.12,-6.26 0.35,-9.36 4,1 7.87,2.14 11.67,3.48 -4.11,2.74 -8.1,5.66 -12,8.71 -0.01,-0.92 -0.02,-1.83 -0.02,-2.83 z m -5.6,49.73 a 123.24,123.24 0 0 1 -11.87,-4.13 120.39,120.39 0 0 1 7.17,-10.29 q 2.05,7.36 4.7,14.44 z m 74.5,-14.42 a 120.39,120.39 0 0 1 7.17,10.29 123.24,123.24 0 0 1 -11.87,4.13 q 2.64,-7.06 4.7,-14.4 z M 160,58 A 123.5,123.5 0 0 1 186.27,110.74 182.49,182.49 0 0 0 160,121.92 182.85,182.85 0 0 0 133.74,110.7 123.59,123.59 0 0 1 160,58 Z M 54.64,134.21 a 123.66,123.66 0 0 1 46.77,-9.12 c 4.07,0 8.11,0.2 12.09,0.59 a 185.91,185.91 0 0 0 2.5,28.11 186,186 0 0 0 -19,21.75 124.57,124.57 0 0 1 -42.36,-41.33 z m 40.22,124.32 c -0.22,-3.09 -0.35,-6.21 -0.35,-9.36 a 123.78,123.78 0 0 1 10.35,-49.68 184.37,184.37 0 0 0 28.14,6.37 186.34,186.34 0 0 0 14.86,24.72 123.66,123.66 0 0 1 -53,27.95 z m 130.63,-9.36 c 0,3.15 -0.13,6.27 -0.35,9.36 a 123.66,123.66 0 0 1 -53,-27.95 186.34,186.34 0 0 0 14.86,-24.72 184.37,184.37 0 0 0 28.11,-6.37 123.78,123.78 0 0 1 10.38,49.68 z M 223,175.54 a 186.68,186.68 0 0 0 -19,-21.74 184.76,184.76 0 0 0 2.53,-28.12 c 4,-0.39 8,-0.59 12.09,-0.59 a 123.66,123.66 0 0 1 46.77,9.12 124.36,124.36 0 0 1 -42.39,41.33 z" />
    </g>
  </g>
  <g
     aria-label="CUSTOMER WIDE LOGO"
     style="font-size:71.9895401px;line-height:1.25;font-family:'Source Sans Pro';letter-spacing:0px;word-spacing:0px;fill:#ffffff;stroke-width:4.15332222"
     id="text4663"
     transform="matrix(0.97843884,0,0,0.97843884,6.7699401,1.896173)">
    <path
       d="m -178.42274,173.16674 q -1.93332,0.84362 -3.51512,1.5818 -1.54665,0.73817 -4.07753,1.54665 -2.14422,0.66787 -4.6751,1.12483 -2.49573,0.49212 -5.51873,0.49212 -5.69449,0 -10.36959,-1.5818 -4.63995,-1.61695 -8.08476,-5.02662 -3.37451,-3.33935 -5.27267,-8.47142 -1.89816,-5.16722 -1.89816,-11.98654 0,-6.46781 1.82786,-11.56473 1.82785,-5.09691 5.27267,-8.61203 3.33936,-3.40966 8.04961,-5.20237 4.7454,-1.7927 10.51019,-1.7927 4.21814,0 8.40112,1.01938 4.21814,1.01938 9.35021,3.58542 v 8.26051 h -0.52727 q -4.32359,-3.62056 -8.57688,-5.27267 -4.25329,-1.6521 -9.10414,-1.6521 -3.97208,0 -7.17084,1.30059 -3.1636,1.26544 -5.65933,3.97208 -2.42543,2.63634 -3.79633,6.67872 -1.33574,4.00723 -1.33574,9.2799 0,5.51873 1.47635,9.49081 1.5115,3.97208 3.86663,6.46781 2.46058,2.60118 5.72963,3.86662 3.30421,1.23029 6.95993,1.23029 5.02661,0 9.4205,-1.7224 4.3939,-1.72241 8.22537,-5.16722 h 0.49212 z"
       style="font-size:71.9895401px;fill:#ffffff;stroke-width:4.15332222"
       id="path4680" />
    <path
       d="m -129.10569,155.94268 q 0,5.69448 -1.26544,9.94777 -1.23029,4.21814 -4.07753,7.03023 -2.70664,2.67148 -6.32721,3.90177 -3.62057,1.23029 -8.43627,1.23029 -4.92116,0 -8.57688,-1.30059 -3.65572,-1.30059 -6.15145,-3.83147 -2.84724,-2.8824 -4.11268,-6.95993 -1.23029,-4.07753 -1.23029,-10.01807 v -31.31967 h 6.95992 v 31.67118 q 0,4.25328 0.56242,6.71386 0.59757,2.46058 1.96846,4.4642 1.54665,2.28482 4.18299,3.44481 2.67149,1.15999 6.39751,1.15999 3.76117,0 6.39751,-1.12484 2.63633,-1.15998 4.21813,-3.47996 1.3709,-2.00362 1.93332,-4.56965 0.59757,-2.60118 0.59757,-6.43266 v -31.84693 h 6.95992 z"
       style="font-size:71.9895401px;fill:#ffffff;stroke-width:4.15332222"
       id="path4682" />
    <path
       d="m -77.749864,162.02382 q 0,3.05815 -1.441197,6.046 -1.406046,2.98785 -3.972079,5.06176 -2.812092,2.24968 -6.573264,3.51512 -3.726021,1.26544 -8.998692,1.26544 -5.659334,0 -10.193834,-1.05453 -4.49934,-1.05454 -9.17445,-3.12846 v -8.71748 h 0.49212 q 3.97208,3.30421 9.17445,5.09692 5.20237,1.7927 9.772016,1.7927 6.46781,0 10.053227,-2.42542 3.620567,-2.42543 3.620567,-6.46782 0,-3.47996 -1.722406,-5.13206 -1.687255,-1.65211 -5.167218,-2.56604 -2.636335,-0.70302 -5.729636,-1.15998 -3.05815,-0.45697 -6.50296,-1.15999 -6.95993,-1.47635 -10.33444,-5.02661 -3.33936,-3.58542 -3.33936,-9.31506 0,-6.57326 5.55388,-10.75625 5.55389,-4.21813 14.095613,-4.21813 5.518729,0 10.123529,1.05453 4.6048,1.05453 8.155065,2.60119 v 8.22536 h -0.492116 q -2.987847,-2.53088 -7.873856,-4.18298 -4.850857,-1.68726 -9.947773,-1.68726 -5.589032,0 -8.998692,2.31998 -3.37451,2.31997 -3.37451,5.97569 0,3.26906 1.68725,5.13207 1.68726,1.86301 5.94055,2.84724 2.24967,0.49212 6.397506,1.19514 4.147834,0.70302 7.030228,1.4412 5.83509,1.54665 8.787786,4.6751 2.952696,3.12845 2.952696,8.75263 z"
       style="font-size:71.9895401px;fill:#ffffff;stroke-width:4.15332222"
       id="path4684" />
    <path
       d="m -29.241294,130.80961 h -18.700407 v 46.15345 h -6.959927 v -46.15345 h -18.700408 v -6.1866 h 44.360742 z"
       style="font-size:71.9895401px;fill:#ffffff;stroke-width:4.15332222"
       id="path4686" />
    <path
       d="m 15.189751,130.63385 q 3.198754,3.51512 4.886009,8.61203 1.722406,5.09692 1.722406,11.56473 0,6.46781 -1.757557,11.59988 -1.722406,5.09691 -4.850858,8.50657 -3.233905,3.55027 -7.6629491,5.34298 -4.3938928,1.7927 -10.0532268,1.7927 -5.5187294,0 -10.0532271,-1.82786 -4.499346,-1.82785 -7.662949,-5.30782 -3.163603,-3.47996 -4.886009,-8.54173 -1.687254,-5.06176 -1.687254,-11.56472 0,-6.39751 1.687254,-11.45927 1.687255,-5.09692 4.92116,-8.71749 3.093301,-3.44481 7.662949,-5.27267 4.6048001,-1.82786 10.0180761,-1.82786 5.6241828,0 10.0883779,1.86301 4.499346,1.82786 7.627798,5.23752 z m -0.632721,20.17676 q 0,-10.19383 -4.5696481,-15.71256 -4.5696486,-5.55388 -12.4786556,-5.55388 -7.9793093,0 -12.5489583,5.55388 -4.534497,5.51873 -4.534497,15.71256 0,10.29928 4.639951,15.78286 4.639951,5.44843 12.4435043,5.44843 7.8035536,0 12.4083533,-5.44843 4.6399504,-5.48358 4.6399504,-15.78286 z"
       style="font-size:71.9895401px;fill:#ffffff;stroke-width:4.15332222"
       id="path4688" />
    <path
       d="M 79.446048,176.96306 H 72.486122 V 131.86414 L 57.933549,162.55109 H 53.785714 L 39.338595,131.86414 v 45.09892 h -6.502962 v -52.34005 h 9.490809 l 13.955003,29.14029 13.498039,-29.14029 h 9.666564 z"
       style="font-size:71.9895401px;fill:#ffffff;stroke-width:4.15332222"
       id="path4690" />
    <path
       d="M 128.06008,176.96306 H 93.576814 v -52.34005 h 34.483266 v 6.1866 h -27.52334 v 14.34166 h 27.52334 v 6.18661 h -27.52334 v 19.43858 h 27.52334 z"
       style="font-size:71.9895401px;fill:#ffffff;stroke-width:4.15332222"
       id="path4692" />
    <path
       d="m 182.4389,176.96306 h -9.03384 l -17.50527,-20.80948 h -9.80717 v 20.80948 h -6.95993 v -52.34005 h 14.65803 q 4.7454,0 7.909,0.63272 3.16361,0.59757 5.69449,2.17937 2.84724,1.79271 4.42904,4.5345 1.61696,2.70663 1.61696,6.88962 0,5.65933 -2.84725,9.49081 -2.84724,3.79632 -7.8387,5.72963 z m -16.27498,-37.61172 q 0,-2.24968 -0.80848,-3.97208 -0.77332,-1.75756 -2.60118,-2.9527 -1.5115,-1.01938 -3.58542,-1.40604 -2.07391,-0.42182 -4.88601,-0.42182 h -8.19021 v 19.75494 h 7.03023 q 3.3042,0 5.76478,-0.56241 2.46058,-0.59757 4.18299,-2.17938 1.5818,-1.47634 2.31997,-3.37451 0.77333,-1.93331 0.77333,-4.886 z"
       style="font-size:71.9895401px;fill:#ffffff;stroke-width:4.15332222"
       id="path4694" />
    <path
       d="m 275.41367,124.62301 -13.6035,52.34005 h -7.8387 l -11.00231,-43.44681 -10.75625,43.44681 h -7.66295 l -13.84955,-52.34005 h 7.13568 l 11.00231,43.51711 10.82655,-43.51711 h 7.06538 l 10.93201,43.93893 10.932,-43.93893 z"
       style="font-size:71.9895401px;fill:#ffffff;stroke-width:4.15332222"
       id="path4696" />
    <path
       d="m 304.09699,176.96306 h -20.66887 v -5.34298 h 6.85447 v -41.6541 h -6.85447 v -5.34297 h 20.66887 v 5.34297 h -6.85447 v 41.6541 h 6.85447 z"
       style="font-size:71.9895401px;fill:#ffffff;stroke-width:4.15332222"
       id="path4698" />
    <path
       d="m 360.23338,150.84576 q 0,7.13568 -3.12845,12.93562 -3.0933,5.79994 -8.26052,8.99869 -3.58541,2.21452 -8.01446,3.19876 -4.39389,0.98423 -11.59987,0.98423 h -13.21683 v -52.34005 h 13.07622 q 7.66295,0 12.1623,1.12483 4.53449,1.08969 7.66294,3.023 5.34298,3.33936 8.33083,8.89324 2.98784,5.55388 2.98784,13.18168 z m -7.27628,-0.10545 q 0,-6.15145 -2.14422,-10.36959 -2.14422,-4.21814 -6.39751,-6.64357 -3.0933,-1.75755 -6.57326,-2.42543 -3.47997,-0.70302 -8.33083,-0.70302 h -6.53811 v 40.38866 h 6.53811 q 5.02662,0 8.75264,-0.73817 3.76117,-0.73817 6.88962,-2.74179 3.90178,-2.49573 5.83509,-6.57326 1.96847,-4.07754 1.96847,-10.19383 z"
       style="font-size:71.9895401px;fill:#ffffff;stroke-width:4.15332222"
       id="path4700" />
    <path
       d="m 406.03533,176.96306 h -34.48327 v -52.34005 h 34.48327 v 6.1866 h -27.52334 v 14.34166 h 27.52334 v 6.18661 h -27.52334 v 19.43858 h 27.52334 z"
       style="font-size:71.9895401px;fill:#ffffff;stroke-width:4.15332222"
       id="path4702" />
    <path
       d="m 475.52913,176.96306 h -33.11238 v -52.34005 h 6.95993 v 46.15345 h 26.15245 z"
       style="font-size:71.9895401px;fill:#ffffff;stroke-width:4.15332222"
       id="path4704" />
    <path
       d="m 520.80378,130.63385 q 3.19875,3.51512 4.88601,8.61203 1.7224,5.09692 1.7224,11.56473 0,6.46781 -1.75755,11.59988 -1.72241,5.09691 -4.85086,8.50657 -3.23391,3.55027 -7.66295,5.34298 -4.39389,1.7927 -10.05323,1.7927 -5.51873,0 -10.05322,-1.82786 -4.49935,-1.82785 -7.66295,-5.30782 -3.1636,-3.47996 -4.88601,-8.54173 -1.68726,-5.06176 -1.68726,-11.56472 0,-6.39751 1.68726,-11.45927 1.68725,-5.09692 4.92116,-8.71749 3.0933,-3.44481 7.66295,-5.27267 4.6048,-1.82786 10.01807,-1.82786 5.62419,0 10.08838,1.86301 4.49935,1.82786 7.6278,5.23752 z m -0.63272,20.17676 q 0,-10.19383 -4.56965,-15.71256 -4.56965,-5.55388 -12.47865,-5.55388 -7.97931,0 -12.54896,5.55388 -4.5345,5.51873 -4.5345,15.71256 0,10.29928 4.63995,15.78286 4.63995,5.44843 12.44351,5.44843 7.80355,0 12.40835,-5.44843 4.63995,-5.48358 4.63995,-15.78286 z"
       style="font-size:71.9895401px;fill:#ffffff;stroke-width:4.15332222"
       id="path4706" />
    <path
       d="m 582.10737,173.09643 q -4.28844,1.96847 -9.38536,3.44481 -5.06176,1.4412 -9.80717,1.4412 -6.1163,0 -11.21321,-1.68725 -5.09692,-1.68726 -8.68233,-5.06177 -3.62057,-3.40966 -5.58904,-8.50657 -1.96846,-5.13207 -1.96846,-11.98654 0,-12.54896 7.31144,-19.7901 7.34659,-7.27628 20.1416,-7.27628 4.4642,0 9.10415,1.08968 4.6751,1.05454 10.05322,3.62057 v 8.26052 h -0.63272 q -1.08968,-0.84363 -3.1636,-2.21452 -2.07392,-1.3709 -4.07753,-2.28483 -2.42543,-1.08968 -5.51873,-1.79271 -3.05815,-0.73817 -6.95993,-0.73817 -8.78778,0 -13.91985,5.65933 -5.09691,5.62419 -5.09691,15.2556 0,10.15868 5.34297,15.81801 5.34297,5.62419 14.55257,5.62419 3.37451,0 6.71387,-0.66788 3.37451,-0.66787 5.90539,-1.7224 v -12.83017 h -14.0253 v -6.1163 h 20.91493 z"
       style="font-size:71.9895401px;fill:#ffffff;stroke-width:4.15332222"
       id="path4708" />
    <path
       d="m 633.28742,130.63385 q 3.19876,3.51512 4.88601,8.61203 1.72241,5.09692 1.72241,11.56473 0,6.46781 -1.75756,11.59988 -1.72241,5.09691 -4.85086,8.50657 -3.2339,3.55027 -7.66295,5.34298 -4.39389,1.7927 -10.05322,1.7927 -5.51873,0 -10.05323,-1.82786 -4.49935,-1.82785 -7.66295,-5.30782 -3.1636,-3.47996 -4.88601,-8.54173 -1.68725,-5.06176 -1.68725,-11.56472 0,-6.39751 1.68725,-11.45927 1.68726,-5.09692 4.92116,-8.71749 3.0933,-3.44481 7.66295,-5.27267 4.6048,-1.82786 10.01808,-1.82786 5.62418,0 10.08837,1.86301 4.49935,1.82786 7.6278,5.23752 z m -0.63272,20.17676 q 0,-10.19383 -4.56965,-15.71256 -4.56965,-5.55388 -12.47865,-5.55388 -7.97931,0 -12.54896,5.55388 -4.5345,5.51873 -4.5345,15.71256 0,10.29928 4.63995,15.78286 4.63995,5.44843 12.44351,5.44843 7.80355,0 12.40835,-5.44843 4.63995,-5.48358 4.63995,-15.78286 z"
       style="font-size:71.9895401px;fill:#ffffff;stroke-width:4.15332222"
       id="path4710" />
  </g>
</svg>
