<?xml version="1.0" encoding="UTF-8" standalone="no"?>
<!-- Created with Inkscape (http://www.inkscape.org/) -->

<svg
   xmlns="http://www.w3.org/2000/svg"
   width="24"
   height="24"
   viewBox="0 0 24 24"
   version="1.1"
   id="svg8">
  <defs
     id="defs2" />
  <g
     id="layer1"
     transform="translate(0,-290.65)"
     style="display:none">
    <circle
       style="opacity:1;vector-effect:none;fill:none;fill-opacity:1;fill-rule:nonzero;stroke:#000000;stroke-width:0.05;stroke-linecap:butt;stroke-linejoin:miter;stroke-miterlimit:4;stroke-dasharray:none;stroke-dashoffset:0;stroke-opacity:1"
       id="path4752"
       cx="12"
       cy="302.64999"
       r="7.4103026" />
    <rect
       style="opacity:1;vector-effect:none;fill:none;fill-opacity:1;fill-rule:nonzero;stroke:#000000;stroke-width:0.05;stroke-linecap:butt;stroke-linejoin:miter;stroke-miterlimit:4;stroke-dasharray:none;stroke-dashoffset:0;stroke-opacity:1"
       id="rect4754"
       width="36"
       height="36"
       x="-6"
       y="284.64999" />
    <circle
       style="opacity:1;vector-effect:none;fill:none;fill-opacity:1;fill-rule:nonzero;stroke:#000000;stroke-width:0.05;stroke-linecap:butt;stroke-linejoin:miter;stroke-miterlimit:4;stroke-dasharray:none;stroke-dashoffset:0;stroke-opacity:1"
       id="path4756"
       cx="12"
       cy="302.64999"
       r="18" />
    <rect
       style="opacity:1;vector-effect:none;fill:none;fill-opacity:1;fill-rule:nonzero;stroke:#000000;stroke-width:0.05;stroke-linecap:butt;stroke-linejoin:miter;stroke-miterlimit:4;stroke-dasharray:none;stroke-dashoffset:0;stroke-opacity:1"
       id="rect4760"
       width="12"
       height="12"
       x="6"
       y="296.64999" />
  </g>
  <g id="layer2">
    <g
       style="display:inline"
       id="g9955"
       transform="matrix(6.0391487,0,0,6.0391487,-119.85093,-878.96692)">
      <g
         transform="matrix(0.78000873,0,0,0.78000873,14.174438,91.504898)"
         id="g9309">
        <path
           style="fill-opacity:1;fill-rule:evenodd;stroke:none;stroke-width:0.26458344"
           d="m 11.919504,73.551082 -0.374121,0.37412 -1.044046,-1.044051 c -0.6758276,0.48128 -1.6077306,0.364241 -2.1435589,-0.26921 -0.5358292,-0.63344 -0.4967263,-1.57185 0.08994,-2.15852 0.5866714,-0.586671 1.5250793,-0.625771 2.1585249,-0.0899 0.633444,0.53582 0.750484,1.467731 0.26921,2.143551 z M 9.5837607,70.53112 c -0.5845022,0 -1.0583345,0.47384 -1.0583345,1.058341 0,0.5845 0.4738323,1.05833 1.0583345,1.05833 0.5845013,0 1.0583343,-0.47383 1.0583343,-1.05833 0,-0.584501 -0.473833,-1.058341 -1.0583343,-1.058341 z"
           id="search_icon-4" />
      </g>
      <rect
         style="opacity:1;fill:none;fill-opacity:1;stroke:none;stroke-width:0.22207864;stroke-miterlimit:4;stroke-dasharray:none;stroke-opacity:1"
         id="rect10299"
         width="4.3518348"
         height="6.5277534"
         x="19.595903"
         y="144.19772" />
    </g>
  </g>
</svg>
