<svg width="420" height="240" version="1.1" viewBox="0 0 420 240" xml:space="preserve" xmlns="http://www.w3.org/2000/svg"><style type="text/css">
	.st0{fill:#F7F7F9;}
	.st1{fill:#FFFFFF;}
	.st2{fill:#6C7283;}
	.st3{fill:#F7F7F9;stroke:#6C7283;stroke-width:2;}
	.st4{opacity:0.3;fill:#D4D9E8;enable-background:new    ;}
	.st5{fill:#F2F3F7;stroke:#6C7283;stroke-width:2;}
	.st6{fill:none;stroke:#6C7283;stroke-width:3;stroke-linecap:round;}
	.st7{opacity:0.48;fill:#FFFFFF;}
	.st8{fill:#525462;}
	.st9{fill:#EAEDF5;stroke:#6C7283;stroke-width:0.799;stroke-miterlimit:10;}
	.st10{fill:#FFE77F;}
</style><path class="st0" d="m144 110c0-6.6 5.4-12 12-12s12 5.4 12 12-5.4 12-12 12-12-5.4-12-12z" fill="#f7f7f9"/><g fill="#6c7283"><path class="st2" d="m348 198.5h4v17h-4z"/><path class="st2" d="m350 177-7 30h14z"/><path class="st2" d="m336 184.4h4v14h-4z"/><path class="st2" d="m338 162-7 30h14z"/></g><path class="st3" d="m359 227.5s-60.5-93-81.9-93-74.1 93-74.1 93z" fill="#f7f7f9" stroke="#6c7283" stroke-width="2"/><path class="st4" d="m203 226s17.8-32.1 36.9-58.4c21.7 23.9 42.3 52.8 46.4 58.4z" enable-background="new" fill="#d4d9e8" opacity=".3"/><path class="st5" d="m270 227.5s-65-142-90.9-142-83.1 142-83.1 142z" fill="#f7f7f9" stroke="#6c7283" stroke-width="2"/><g fill="none" stroke="#6c7283" stroke-linecap="round" stroke-width="3"><path class="st6" d="m35 227.5h6"/><path class="st6" d="m53 227.5h23"/><path class="st6" d="m88 227.5h288"/></g><g fill="#6c7283"><path class="st2" d="m160 219h4v7h-4z"/><path class="st2" d="m160.5 206.9c0.9-0.5 2.1-0.5 3 0l4.8 2.8c0.9 0.5 1.5 1.5 1.5 2.6v5.5c0 1.1-0.6 2.1-1.5 2.6l-4.8 2.8c-0.9 0.5-2.1 0.5-3 0l-4.8-2.8c-0.9-0.6-1.5-1.5-1.5-2.6v-5.6c0-1.1 0.6-2.1 1.5-2.6z"/><path class="st2" d="m182.1 216h4v10h-4z"/><path class="st2" d="m182.6 196.8c0.9-0.5 2.1-0.5 3 0l7.4 4.3c0.9 0.5 1.5 1.5 1.5 2.6v8.5c0 1.1-0.6 2.1-1.5 2.6l-7.4 4.3c-0.9 0.5-2.1 0.5-3 0l-7.4-4.3c-0.9-0.5-1.5-1.5-1.5-2.6v-8.5c0-1.1 0.6-2.1 1.5-2.6z"/></g><path class="st7" d="m108 66 58.2 28c1.6 0.2 3.2 0.8 4.6 1.7 9.4 5.9 9 23.3-0.8 39s-25.3 23.7-34.7 17.8c-1.6-1-3-2.4-4-4l-0.3 0.5-30-78z" fill="#fff" opacity=".48"/><path class="st1" d="m94.5 52c21.3 0 38.5 0.7 38.5 1.5s-17.2 1.5-38.5 1.5-38.5-0.7-38.5-1.5 17.2-1.5 38.5-1.5z" fill="#fff"/><g fill="#525462"><path class="st8" d="m76.9 79.9c0-0.6 0.4-1 1-1l33 0.2c0.6 0 1 0.4 1 1s-0.4 1-1 1l-33-0.2c-0.5 0-1-0.5-1-1z"/><path class="st8" d="m49 60h33l-1 9-32-5.5z"/><path class="st8" d="m84 71.9h3v7h-3z"/><path class="st8" d="m100 74h3v5h-3z"/></g><path class="st1" d="m48 52c5.5 0 10 4.5 10 10s-4.5 10-10 10-10-4.5-10-10 4.5-10 10-10zm-8 10c0 4.4 3.6 8 8 8s8-3.6 8-8-3.6-8-8-8-8 3.6-8 8z" fill="#fff"/><g fill="#525462"><path class="st8" d="m48 59c1.7 0 3 1.3 3 3s-1.3 3-3 3-3-1.3-3-3c0-1.6 1.3-3 2.9-3h0.1z"/><path class="st8" d="m91.9 55h2.4v3h-2.4z"/><path class="st8" d="m93.1 51c0.7 0 1.3 0.2 1.9 0.4l0.1 0.6h-4l0.1-0.6c0.6-0.2 1.2-0.4 1.9-0.4z"/></g><path class="st2" d="m77 60h24c2.5 0.1 10 0.8 10 7.6 0 8-10.8 7.4-10.8 7.4-3.1 0-14.6-0.4-18.7-3-4.7-3-4.5-12-4.5-12z" fill="#6c7283"/><path class="st1" d="m103.4 61.2c3.5 0.1 6.4 2.9 6.6 6.4 0 3-2.6 4.7-6.1 4.7-3 0-0.5-2.5-0.5-4.5 0-3.1-3-6.6 0-6.6z" fill="#fff"/><path class="st8" d="m98.4 60.2h-10.4c0-1.2 2-2.2 3.2-2.2h4.1c1.1 0 3.1 1 3.1 2.2z" fill="#525462"/></svg>
