<svg xmlns="http://www.w3.org/2000/svg" width="24" height="25" viewBox="0 0 24 25"><path d="M19.537 13.704a1.642 1.642 0 00-.859-.487l-1.376-6.956c.377-.413.607-.97.603-1.58-.01-1.265-1.013-2.281-2.241-2.272-1.229.01-2.217 1.042-2.207 2.306.004.547.194 1.046.508 1.438l-7.293 11.95a2.067 2.067 0 00-.56-.074c-1.175.01-2.12.997-2.112 2.207.01 1.21.97 2.182 2.145 2.173 1.175-.01 2.12-.997 2.112-2.207a2.218 2.218 0 00-.508-1.402l7.272-11.917a2.163 2.163 0 001.115.054l1.292 6.53a1.65 1.65 0 00-.23.184 1.726 1.726 0 00-.043 2.398c.634.677 1.681.7 2.339.052a1.726 1.726 0 00.043-2.397z"/></svg>