<svg xmlns="http://www.w3.org/2000/svg" width="24" height="24" viewBox="0 0 24 24"><path fill-rule="evenodd" d="M11.457 3.127a.527.527 0 11.947.317l-.002.002-.01.013-.004.003a1.045 1.045 0 00-.137 1.22l.007.009v.001l1.422 2.462a5.161 5.161 0 00-.58-.166l-.002-.003-.002-.005a.096.096 0 00-.005-.012l-.917-1.58h-.003a.215.215 0 00-.192-.12c-.091 0-.154.056-.2.138l-.888 1.556.002.003a.092.092 0 00-.004.01l-.001.004-.002.002a5.208 5.208 0 00-.596.169l1.417-2.455a.277.277 0 00.016-.035l.001-.004a1.046 1.046 0 00-.147-1.191l-.01-.014a.522.522 0 01-.11-.324zm-7.112 4.96a1.043 1.043 0 011.128.506l.003.008 1.445 2.503c.041-.234.098-.462.17-.683L6.203 8.9c-.048-.081-.065-.164-.019-.244a.217.217 0 01.202-.107l.002-.003 1.794-.004c.138-.152.286-.293.44-.428H5.749a.286.286 0 01-.05-.005 1.045 1.045 0 01-.945-.713L4.75 7.39l-.009-.017a.527.527 0 10-.423.721h.008l.006-.002.014-.004zm.4 8.54a.528.528 0 01-.94.057.527.527 0 01.528-.784h.014l.01.001a1.049 1.049 0 001.106-.48h.001v-.002a.117.117 0 01.007-.009.077.077 0 00.01-.011l1.44-2.499c.04.223.093.44.16.652l-.88 1.504c-.047.082-.064.165-.018.245a.217.217 0 00.202.107l.002.002 1.758.005c.146.163.303.317.468.461H5.76l-.034-.003a1.048 1.048 0 00-.971.725l-.003.011a.116.116 0 01-.002.01.03.03 0 01-.002.004.027.027 0 00-.001.003zm15.414.079a.527.527 0 00-.538-.784h-.014a1.048 1.048 0 01-1.106-.48H18.5v-.003a.085.085 0 00-.008-.008.071.071 0 01-.008-.011l-1.451-2.514a5.07 5.07 0 01-.153.63l.91 1.584-.002.003c.043.067.05.153.009.226-.046.08-.125.107-.22.106l-.58-.003-1.212-.007a5.213 5.213 0 01-.467.453h2.884l.01-.001.02-.002h.008a1.052 1.052 0 01.972.735l.002.007.005.013a.527.527 0 00.94.056zm-8.19 4.692a.527.527 0 00.42-.842v-.002l-.001-.002-.002-.003a.13.13 0 00-.007-.005 1.046 1.046 0 01-.152-1.212l.019-.029.003-.004 1.413-2.447c-.188.065-.381.12-.579.163v.002l-.001.002-.917 1.58h-.003a.215.215 0 01-.192.12c-.092 0-.154-.056-.201-.137l-.487-.855-.4-.702.002-.003-.002-.004a5.07 5.07 0 01-.61-.174l1.421 2.461a.3.3 0 01.023.05 1.043 1.043 0 01-.147 1.17l-.005.009a.18.18 0 01-.007.01l-.003.005a.527.527 0 00.415.849zm6.744-13.453c-.143.083-.305.13-.47.138a.308.308 0 01-.056.006h-2.885c.165.14.322.29.468.45a.239.239 0 01.057-.01l.001-.003 1.792-.01c.094 0 .173.026.22.105a.216.216 0 01-.009.227l.002.003-.91 1.584a.236.236 0 01-.038.045c.058.188.104.38.141.576l1.433-2.482.005-.01a.15.15 0 01.012-.026 1.05 1.05 0 011.114-.478l.008.002.002.001.004.001a.522.522 0 00.534-.783.527.527 0 00-.943.065l-.008.014a1.047 1.047 0 01-.474.585zM14.292 15.9a.29.29 0 00-.085.048 4.507 4.507 0 01-2.229.588A4.54 4.54 0 017.443 12a4.537 4.537 0 014.535-4.535A4.54 4.54 0 0116.513 12a4.537 4.537 0 01-2.221 3.899zm5.975-.433a1.116 1.116 0 00-.719-.14h-.005a.332.332 0 00-.055.007.442.442 0 01-.474-.204l-.008-.01a.128.128 0 01-.006-.01l-1.689-2.922a.458.458 0 01.02-.421.295.295 0 00.032-.09l1.622-2.81a.078.078 0 00.006-.013l.003-.007a.444.444 0 01.47-.198h.005l.009.003a.923.923 0 00.067.012 1.118 1.118 0 00.702-.143c.26-.15.447-.393.524-.684a1.13 1.13 0 00-2.135-.714v.004a.346.346 0 00-.022.05.445.445 0 01-.413.308l-.015.002-.01.001H14.72a.461.461 0 01-.263-.19L12.78 4.393a.086.086 0 00-.007-.01.44.44 0 01.058-.513v-.002l.002-.002.007-.007a.198.198 0 00.02-.02l.025-.032a1.129 1.129 0 00-.9-1.806 1.129 1.129 0 00-.89 1.82.121.121 0 00.011.013l.008.008.007.012.01.015a.445.445 0 01.055.526.134.134 0 01-.004.008L9.555 7.22a.293.293 0 00-.059.07.458.458 0 01-.337.224h-3.4l-.01-.001-.014-.002a.442.442 0 01-.413-.309.303.303 0 00-.023-.05v-.003l-.001-.003a1.12 1.12 0 00-.481-.552 1.12 1.12 0 00-.856-.112 1.12 1.12 0 00-.684.525 1.12 1.12 0 00-.113.856c.078.29.264.534.525.685a1.117 1.117 0 00.702.142l.042-.006a.102.102 0 00.025-.006.4.4 0 01.009-.003h.004a.445.445 0 01.473.205l.006.012 1.716 2.973a.46.46 0 01-.018.308l-1.683 2.915a.297.297 0 01-.005.007l-.01.013a.445.445 0 01-.474.203.283.283 0 00-.058-.006h-.002a1.13 1.13 0 10-.153 2.244 1.121 1.121 0 001.036-.686l.016-.04a.172.172 0 00.008-.028l.001-.008.002-.002a.447.447 0 01.408-.309l.007.001.013.002h3.371a.46.46 0 01.373.227l1.67 2.891a.111.111 0 01.003.01.44.44 0 01.06.226c0 .11-.041.217-.115.298l-.01.015a.082.082 0 01-.006.012l-.02.022a1.129 1.129 0 101.79.013l-.028-.034a.046.046 0 00-.01-.01l-.01-.006a.022.022 0 01-.002-.006l-.004-.006a.444.444 0 01-.062-.508l.005-.007a.048.048 0 00.006-.008l1.67-2.891a.04.04 0 01.004-.005.458.458 0 01.362-.212h3.41l.011-.002h.009a.444.444 0 01.407.308l.001.001.002.008a.21.21 0 00.009.03l.015.038a1.124 1.124 0 001.036.687 1.129 1.129 0 00.566-2.104zm-5.274-4.4l-2.19-.157-.825-2.057-.825 2.057-2.19.157 1.68 1.428-.529 2.154 1.864-1.175 1.863 1.175-.529-2.154 1.681-1.428z" clip-rule="evenodd"/></svg>