<svg xmlns="http://www.w3.org/2000/svg" width="24" height="25" viewBox="0 0 24 25"><path fill-rule="evenodd" d="M11.457 3.537a.527.527 0 11.947.316l-.002.003-.01.012-.004.003a1.045 1.045 0 00-.137 1.22l.007.01 1.422 2.462a5.161 5.161 0 00-.58-.166l-.002-.003-.002-.004a.096.096 0 00-.005-.013l-.917-1.58h-.003a.215.215 0 00-.192-.12c-.091 0-.154.056-.2.138L10.89 7.37l.002.003a.092.092 0 00-.004.01l-.001.004-.002.002a5.208 5.208 0 00-.596.169l1.417-2.455a.277.277 0 00.016-.035l.001-.004a1.046 1.046 0 00-.147-1.191l-.01-.014a.522.522 0 01-.11-.323zM4.345 8.496a1.043 1.043 0 011.128.506l.003.008 1.445 2.503c.041-.234.098-.462.17-.683l-.888-1.52c-.048-.081-.065-.164-.019-.244a.217.217 0 01.202-.107l.002-.003 1.794-.004c.138-.152.286-.293.44-.428H5.749a.286.286 0 01-.05-.005 1.045 1.045 0 01-.945-.713l-.004-.008-.009-.017a.527.527 0 10-.419.72l.005.001.006-.002a.086.086 0 01.014-.004zm.4 8.54a.528.528 0 01-.94.058.527.527 0 01.528-.785h.014l.01.001a1.049 1.049 0 001.106-.48h.001v-.002l.007-.008.01-.012 1.441-2.498c.04.223.093.44.16.652l-.88 1.504c-.047.082-.064.165-.018.245a.217.217 0 00.202.107l.002.003 1.758.004c.146.164.303.317.468.461H5.76a.213.213 0 00-.034-.003 1.05 1.05 0 00-.974.736c0 .003 0 .006-.002.01a.03.03 0 01-.002.004.035.035 0 00-.001.003zm15.414.079a.527.527 0 00-.528-.785h-.024a1.041 1.041 0 01-1.106-.478l-.001-.002v-.002a.097.097 0 00-.008-.008.076.076 0 01-.008-.011l-1.451-2.513a5.075 5.075 0 01-.153.629l.91 1.584-.002.003c.043.067.05.153.009.226-.046.08-.125.107-.22.106l-.58-.003-1.212-.007a5.213 5.213 0 01-.467.453h2.884l.01-.001a.143.143 0 01.02-.002h.008a1.052 1.052 0 01.97.725l.002.01.002.007.005.013a.527.527 0 00.94.056zm-8.19 4.693a.527.527 0 00.42-.843v-.002l-.001-.002-.002-.002a.097.097 0 00-.007-.006l-.01-.01a1.045 1.045 0 01-.123-1.23l.003-.005 1.413-2.447c-.188.065-.381.12-.579.164v.002h-.001l-.917 1.58h-.003a.215.215 0 01-.192.12c-.092 0-.154-.055-.201-.136l-.487-.855-.4-.702.002-.003-.002-.004a5.07 5.07 0 01-.61-.174l1.421 2.461a.3.3 0 01.023.05 1.043 1.043 0 01-.147 1.17l-.005.009a.18.18 0 01-.007.01l-.003.006a.527.527 0 00.415.849zm6.744-13.454c-.143.083-.305.13-.47.138a.308.308 0 01-.056.006h-2.885c.165.14.322.29.468.45a.239.239 0 01.057-.01l.001-.003 1.792-.01c.094 0 .173.026.22.106a.216.216 0 01-.009.226l.002.003-.91 1.584a.233.233 0 01-.038.045c.058.188.104.38.141.576l1.433-2.482.005-.01a.15.15 0 01.012-.026 1.05 1.05 0 011.122-.476l.002.001.004.001a.522.522 0 00.534-.783.527.527 0 00-.943.065l-.008.014a1.047 1.047 0 01-.474.585zm-4.421 7.954a.293.293 0 00-.085.048 4.507 4.507 0 01-2.229.588 4.54 4.54 0 01-4.535-4.535 4.537 4.537 0 014.535-4.535 4.54 4.54 0 014.535 4.535 4.537 4.537 0 01-2.221 3.899zm5.975-.433a1.115 1.115 0 00-.719-.14h-.005a.311.311 0 00-.055.007.442.442 0 01-.474-.204l-.008-.01a.105.105 0 01-.006-.01l-1.689-2.922a.459.459 0 01.02-.421.293.293 0 00.032-.09l1.622-2.81a.079.079 0 00.006-.013l.003-.007a.444.444 0 01.473-.198h.002l.009.003a.923.923 0 00.067.012 1.118 1.118 0 00.702-.143c.26-.15.447-.393.524-.684a1.13 1.13 0 00-2.135-.714v.004a.346.346 0 00-.022.05.445.445 0 01-.413.308l-.015.002-.01.001H14.72a.461.461 0 01-.263-.19L12.779 4.8a.085.085 0 00-.007-.01.44.44 0 01.058-.513v-.002l.002-.002.007-.007.02-.02.025-.032a1.129 1.129 0 00-.9-1.807 1.129 1.129 0 00-.89 1.821.122.122 0 00.011.013.22.22 0 01.008.008l.007.012.01.016a.445.445 0 01.055.525.134.134 0 01-.004.008L9.555 7.63a.293.293 0 00-.059.07.458.458 0 01-.337.224h-3.4l-.01-.001-.014-.002a.442.442 0 01-.413-.309.303.303 0 00-.023-.053l-.001-.003a1.12 1.12 0 00-.481-.552 1.12 1.12 0 00-.856-.112 1.12 1.12 0 00-.684.525 1.12 1.12 0 00-.113.856c.078.29.264.534.525.685a1.117 1.117 0 00.702.142l.042-.006a.102.102 0 00.025-.006.4.4 0 01.009-.003h.004a.445.445 0 01.47.198l.003.008.006.011 1.716 2.973a.46.46 0 01-.018.308l-1.683 2.915-.005.007a.44.44 0 01-.167.166.444.444 0 01-.317.05.29.29 0 00-.055-.005h-.003l-.002-.001a1.13 1.13 0 10-.153 2.244 1.122 1.122 0 001.036-.686l.016-.04a.19.19 0 00.01-.036v-.002a.447.447 0 01.409-.309l.007.001.013.002h3.371a.46.46 0 01.373.227l1.67 2.891a.11.11 0 01.003.01.44.44 0 01.06.226c0 .11-.041.217-.115.298l-.01.015a.023.023 0 01-.006.012l-.02.022a1.129 1.129 0 101.79.013l-.028-.034-.01-.01a.051.051 0 01-.01-.006.023.023 0 01-.002-.006l-.004-.006a.444.444 0 01-.062-.508l.005-.007a.048.048 0 00.006-.008l1.67-2.89a.04.04 0 01.004-.006.458.458 0 01.362-.212h3.41c.003 0 .007 0 .011-.002h.009a.444.444 0 01.407.308l.001.001.002.008a.21.21 0 00.009.03l.015.038a1.124 1.124 0 001.036.687 1.128 1.128 0 00.566-2.104zm-5.274-4.4l-2.19-.157-.825-2.057-.825 2.057-2.19.157 1.68 1.428-.529 2.154 1.864-1.174 1.863 1.174-.529-2.154 1.681-1.428z" clip-rule="evenodd"/></svg>