<svg xmlns="http://www.w3.org/2000/svg" width="24" height="24" viewBox="0 0 24 24"><path fill-rule="evenodd" d="M10.213 17.892a6.217 6.217 0 01-1.276-.546.856.856 0 01-.344-1.124.703.703 0 00-.126-.8.749.749 0 00-.796-.144.858.858 0 01-1.115-.373 6.126 6.126 0 01-.513-1.29.86.86 0 01.54-1.031.706.706 0 00.471-.652.686.686 0 00-.42-.65l-.013-.005c-.365-.155-.675-.602-.54-1.055.135-.451.32-.885.551-1.29a.844.844 0 011.097-.356c.302.126.626.082.827-.113a.703.703 0 00.145-.797.858.858 0 01.372-1.114c.41-.22.85-.395 1.304-.518a.852.852 0 01.182-.027l-6.176-3.21a.264.264 0 00-.17-.027.542.542 0 00-.439.534v17.392c0 .265.189.486.439.534a.27.27 0 00.17-.027l6.285-3.266c-.137.03-.283.007-.455-.045zm4.01-4.945a2.403 2.403 0 01-1.322 1.297 2.41 2.41 0 01-1.851-.015 2.422 2.422 0 01-1.283-3.173 2.422 2.422 0 013.173-1.282 2.422 2.422 0 011.282 3.173zm2.611-2.496a5.001 5.001 0 00-.274-.69c-.627.194-1.363.02-1.824-.45a1.791 1.791 0 01-.498-1.393l-.805-.418a1.794 1.794 0 01-1.364.637h-.022c-.652-.01-1.283-.418-1.578-.998-.24.075-.475.168-.701.278a1.79 1.79 0 01-.454 1.825c-.472.46-1.173.608-1.831.4a5.095 5.095 0 00-.298.698 1.785 1.785 0 01-.037 3.182c.075.236.166.467.274.69.628-.194 1.365-.02 1.824.452.475.486.627 1.2.407 1.835a5.08 5.08 0 00.682.29 1.795 1.795 0 011.578-.952h.022c.54.007 1.065.29 1.397.716l.803-.418a1.786 1.786 0 01.533-1.403 1.81 1.81 0 011.835-.407c.115-.222.214-.455.296-.694a1.786 1.786 0 01-.957-1.603c.008-.671.4-1.28.992-1.577zm4.794 1.307l-3.896-2.024c.08.204.15.412.207.624a.859.859 0 01-.54 1.032.707.707 0 00-.47.652.708.708 0 00.44.657c.413.176.653.648.532 1.052a6.163 6.163 0 01-.184.523l3.91-2.032a.273.273 0 000-.484zM15.71 8.683l-.067-.034a.737.737 0 00.067.034zm-3.714 1.986a1.334 1.334 0 011.225 1.853 1.334 1.334 0 01-1.748.706 1.334 1.334 0 01-.706-1.748c.215-.507.71-.811 1.229-.811z" clip-rule="evenodd"/></svg>