<svg xmlns="http://www.w3.org/2000/svg" width="24" height="24" viewBox="0 0 24 24"><path d="M19.264 16.5c.49 0 .903.18 1.24.54.336.36.502.78.496 1.26L14.132 21l-5.987-1.8v-8.1h1.668l6.218 2.421c.445.186.667.522.667 1.008 0 .282-.097.528-.29.738-.195.21-.44.321-.736.333h-2.395l-1.497-.603-.282.846 1.779.657h5.987zM15.843 4.107C16.447 3.369 17.217 3 18.152 3c.775 0 1.431.3 1.967.9.536.6.821 1.29.855 2.07 0 .618-.285 1.356-.855 2.214-.57.858-1.132 1.575-1.685 2.151-.553.576-1.417 1.431-2.591 2.565a107.45 107.45 0 01-2.617-2.565c-.56-.576-1.12-1.293-1.685-2.151-.565-.858-.841-1.596-.83-2.214 0-.816.277-1.506.83-2.07a2.9 2.9 0 012.001-.9c.912 0 1.68.369 2.3 1.107zM3 11.1h3.435V21H3v-9.9z"/></svg>