<svg xmlns="http://www.w3.org/2000/svg" width="24" height="25" viewBox="0 0 24 25"><path fill-rule="evenodd" d="M4.051 10.85h-.727v11.362h17.453V10.85h-.728v10.635H4.051V10.85z" clip-rule="evenodd"/><path fill-rule="evenodd" d="M4.251 10.65v10.635H19.85V10.65h1.128v11.762H3.123V10.65H4.25zm15.798.2h.727v11.362H3.324V10.85h.727v10.635H20.05V10.85zm-6.817-5.893h-2.363v.727h2.363v-.727zm5.636.727h1.181v2.909H4.051V5.684h1.182v-.727H3.324V9.32h17.453V4.957h-1.91v.727z" clip-rule="evenodd"/><path fill-rule="evenodd" d="M13.432 4.757v1.127h-2.763V4.757h2.763zm5.236 1.127V4.757h2.309V9.52H3.123V4.757h2.309v1.127H4.251v2.509H19.85V5.884h-1.181zm-13.435-.2H4.051v2.909H20.05V5.684h-1.181v-.727h1.909V9.32H3.323V4.957h1.909v.727zm5.636-.727h2.363v.727h-2.363v-.727z" clip-rule="evenodd"/><path d="M9.142 3.866a1.09 1.09 0 00-2.182 0v2.181a1.09 1.09 0 102.182 0V3.866z"/><path fill-rule="evenodd" d="M8.05 3.15a.716.716 0 00-.715.716v2.181a.716.716 0 101.432 0V3.866a.716.716 0 00-.716-.716zm-1.465.716a1.466 1.466 0 012.932 0v2.181a1.466 1.466 0 11-2.932 0V3.866z" clip-rule="evenodd"/><path d="M17.14 3.866a1.09 1.09 0 00-2.181 0v2.181a1.09 1.09 0 002.182 0V3.866z"/><path fill-rule="evenodd" d="M16.05 3.15a.716.716 0 00-.716.716v2.181a.716.716 0 001.432 0V3.866a.716.716 0 00-.716-.716zm-1.466.716a1.466 1.466 0 012.932 0v2.181a1.466 1.466 0 01-2.932 0V3.866zm.375 7.294l1.796 1.796-5.795 5.795-3.614-3.614 1.796-1.796 1.818 1.818 3.999-4z" clip-rule="evenodd"/><path d="M14.959 10.63l2.326 2.326-6.325 6.326-4.145-4.145 2.327-2.326 1.818 1.818 3.999-4z"/></svg>