<svg xmlns="http://www.w3.org/2000/svg" width="24" height="24" viewBox="0 0 24 24"><path fill-rule="evenodd" d="M4.051 10.441h-.727v11.362h17.453V10.441h-.728v10.635H4.051V10.441z" clip-rule="evenodd"/><path fill-rule="evenodd" d="M4.251 10.241v10.635H19.85V10.241h1.128v11.762H3.123V10.241H4.25zm15.798.2h.727v11.362H3.324V10.441h.727v10.635H20.05V10.441zm-6.817-5.893h-2.363v.727h2.363v-.727zm5.636.727h1.181v2.909H4.051v-2.91h1.182v-.726H3.324V8.91h17.453V4.548h-1.91v.727z" clip-rule="evenodd"/><path fill-rule="evenodd" d="M13.432 4.348v1.127h-2.763V4.348h2.763zm5.236 1.127V4.348h2.309V9.11H3.123V4.348h2.309v1.127H4.251v2.509H19.85v-2.51h-1.181zm-13.435-.2H4.051v2.909H20.05v-2.91h-1.181v-.726h1.909V8.91H3.323V4.548h1.909v.727zm5.636-.727h2.363v.727h-2.363v-.727z" clip-rule="evenodd"/><path d="M9.142 3.457a1.09 1.09 0 00-2.182 0v2.181a1.09 1.09 0 002.182 0V3.457z"/><path fill-rule="evenodd" d="M8.05 2.741a.716.716 0 00-.715.716v2.181a.716.716 0 001.432 0V3.457a.716.716 0 00-.716-.716zm-1.465.716a1.466 1.466 0 012.932 0v2.181a1.466 1.466 0 11-2.932 0V3.457z" clip-rule="evenodd"/><path d="M17.14 3.457a1.09 1.09 0 00-2.181 0v2.181a1.09 1.09 0 002.182 0V3.457z"/><path fill-rule="evenodd" d="M16.05 2.741a.716.716 0 00-.716.716v2.181a.716.716 0 001.432 0V3.457a.716.716 0 00-.716-.716zm-1.466.716a1.466 1.466 0 012.932 0v2.181a1.466 1.466 0 01-2.932 0V3.457zm.375 7.293l1.796 1.797-5.795 5.795-3.614-3.614 1.796-1.796 1.818 1.818 3.999-4z" clip-rule="evenodd"/><path d="M14.959 10.22l2.326 2.327-6.325 6.325-4.145-4.144 2.327-2.326 1.818 1.818 3.999-4z"/></svg>