<svg xmlns="http://www.w3.org/2000/svg" width="24" height="25" viewBox="0 0 24 25"><path fill-rule="evenodd" d="M17.188 20.036v-4.6l3.732-1.947v4.6l-3.732 1.947zm0-10.377l3.732-1.898v4.648l-3.732 1.899V9.659zm-4.222-3.142l3.732-1.898 4.108 1.898-3.781 1.997-4.059-1.997zM8.22 4.193L12 2.409l3.781 1.735-3.78 1.882L8.22 4.193zm-1.294 4.32L3.195 6.567l3.993-1.898 3.78 1.833-4.042 2.013zm-.114 5.795L3.08 12.409V7.761l3.732 1.898v4.649zm0 5.728L3.08 18.137v-4.599l3.732 1.899v4.599zm9.493-6.023l-3.732-1.899V7.466l3.732 1.899v4.648zm-4.845 8.396l-3.732-1.898v-4.583l3.732 1.898v4.583zm.54-9.59l4.059 2.045L12 17.024l-4.059-2.16L12 12.818zm-.605-.54l-3.732 1.898V9.529l3.732-1.899v4.648zm4.877 8.232l-3.732 1.898V17.81l3.732-1.898v4.598z" clip-rule="evenodd"/></svg>