<svg xmlns="http://www.w3.org/2000/svg" width="24" height="24" viewBox="0 0 24 24"><path fill-rule="evenodd" d="M17.188 19.627v-4.6l3.732-1.947v4.6l-3.732 1.947zm0-10.377l3.732-1.898V12l-3.732 1.899V9.25zm-4.222-3.142l3.732-1.899 4.108 1.899-3.781 1.997-4.059-1.997zM8.22 3.784L12 2l3.781 1.735-3.78 1.882L8.22 3.784zm-1.294 4.32L3.195 6.158 7.188 4.26l3.78 1.833-4.042 2.013zM6.812 13.9L3.08 12V7.352L6.812 9.25v4.65zm0 5.728l-3.732-1.9V13.13l3.732 1.899v4.599zm9.493-6.023l-3.732-1.899V7.057l3.732 1.899v4.648zM11.46 22l-3.732-1.898v-4.583l3.732 1.898V22zm.54-9.59l4.059 2.045L12 16.615l-4.059-2.16L12 12.409zm-.605-.54l-3.732 1.898V9.119l3.732-1.898v4.648zm4.877 8.232L12.54 22v-4.599l3.732-1.899v4.6z" clip-rule="evenodd"/></svg>