<svg xmlns="http://www.w3.org/2000/svg" width="24" height="24" viewBox="0 0 24 24"><path fill-rule="evenodd" d="M21.08 6.685C19.332 3.888 16.185 2 12.69 2h-.21l-.278.007a9.816 9.816 0 00-5.637 2.067h.015l.535-.06c4.359-.461 6.442.688 7.727 2.644l.157.25c.05.083.1.169.149.256l.142.264.135.272.13.279.185.43.118.295.115.3.1.277a.533.533 0 00.463.062l4.335-1.958.066-.038c.224-.149.273-.405.144-.662zM6.564 4.075a10.032 10.032 0 00-3.67 5.887 7.708 7.708 0 010 .001 10.04 10.04 0 00-.206 1.897 10.011 10.011 0 001.233 4.962 9.973 9.973 0 009.01 5.175l-.247.003.247-.003c3.399-.082 6.44-1.88 8.149-4.613.14-.28.07-.559-.21-.699l-3.66-1.626-.746-.332-.07-.02c-.139-.035-.275-.032-.386.05l-.03.027c-2.239 3.12-5.556 4.475-9.18 3.391 3.624 1.084 6.941-.271 9.18-3.391l.028-.026a.438.438 0 00-.101.11c-.84.908-1.958 1.468-3.287 1.468-2.447 0-4.406-1.958-4.406-4.336s1.959-4.336 4.406-4.336c.412 0 .817.06 1.204.172a6.569 6.569 0 00-.001 0 4.45 4.45 0 012.154 1.367.588.588 0 00.097.078l-.1-.277-.115-.3-.118-.295-.185-.43-.13-.28-.135-.27-.142-.265a8.704 8.704 0 00-.149-.257l-.157-.248c-1.285-1.956-3.368-3.106-7.727-2.645l-.536.06h-.014zm14.89 7.952a1.426 1.426 0 00-2.69-.656h-.001a.482.482 0 01-.427.239H14.15c-.155 0-.284-.105-.373-.234l-.024-.04a1.426 1.426 0 10-.145 1.595l.017-.02a1.7 1.7 0 00.1-.144l.017-.03a.497.497 0 01.428-.264h4.146a.5.5 0 01.447.235c.051.09.114.175.189.255a1.426 1.426 0 002.502-.935z" clip-rule="evenodd"/></svg>