<svg xmlns="http://www.w3.org/2000/svg" width="24" height="25" viewBox="0 0 24 25"><path fill-rule="evenodd" d="M19.81 10.187c-.932 0-1.729.575-2.059 1.389h-3.03a3.886 3.886 0 00-1.298-2.144l1.076-1.498a1.663 1.663 0 001.978-1.636 1.667 1.667 0 10-2.937 1.077l-1.058 1.472a3.875 3.875 0 00-2.848-.108L8.122 6.122a2.21 2.21 0 00.577-1.49 2.222 2.222 0 10-2.222 2.222c.047 0 .093-.005.14-.008l1.599 2.771a3.878 3.878 0 00-1.143 2.236H5.825a1.666 1.666 0 100 1.112h1.248c.124.863.53 1.635 1.124 2.217l-1.61 2.788c-.037-.002-.073-.005-.11-.005a2.222 2.222 0 101.627.711l1.505-2.606a3.878 3.878 0 002.873-.099l1.058 1.472a1.667 1.667 0 10.96-.56l-1.077-1.497a3.886 3.886 0 001.297-2.144h3.031a2.222 2.222 0 102.06-3.055" clip-rule="evenodd"/></svg>