<svg xmlns="http://www.w3.org/2000/svg" width="24" height="25" viewBox="0 0 24 25"><path d="M5.703 14.127l.066-.002 1.37 3.596h-.301c-.94 0-1.703.789-1.703 1.758v2.344c0 .324.254.586.568.586h9.08a.577.577 0 00.568-.586v-1.172c0-1.616-1.273-2.93-2.838-2.93H10.81v-.586a.577.577 0 00-.567-.586.577.577 0 00-.568.586v.586H8.36l-1.536-4.03c.357-.323.582-.796.582-1.322 0-.3-.073-.582-.202-.83l4.184-4.32.862.891c-.724 1.126-.619 2.676.361 3.688l.803.829a.555.555 0 00.803 0l5.618-5.801a.6.6 0 000-.83l-.803-.828a2.776 2.776 0 00-3.571-.373l-1.646-1.699a2.219 2.219 0 00-3.21 0 2.401 2.401 0 00-.02 3.294l-4.22 4.359a1.646 1.646 0 00-.661-.138c-.94 0-1.703.788-1.703 1.758s.764 1.758 1.703 1.758zm8.513 6.524v.586H6.27V19.48c0-.323.255-.586.568-.586h5.675c.939 0 1.703.789 1.703 1.758zm4.013-14.654l.4.414-4.815 4.973-.401-.415a1.798 1.798 0 010-2.486l2.408-2.486a1.667 1.667 0 012.408 0zm-6.823-2.072a1.11 1.11 0 011.606 0l1.605 1.657-1.605 1.658c-1.55-1.632-1.34-1.398-1.606-1.658a1.2 1.2 0 010-1.657zm-5.703 7.858c.313 0 .567.263.567.586a.578.578 0 01-.567.586.578.578 0 01-.568-.586c0-.323.255-.586.568-.586zm12.931-2.594l.363.386a.092.092 0 01-.001.126l-2.379 2.359a.084.084 0 01-.12-.003l-.364-.386a.092.092 0 01.002-.126l2.378-2.358a.084.084 0 01.121.002z"/></svg>