<svg xmlns="http://www.w3.org/2000/svg" width="24" height="25" viewBox="0 0 24 25"><path fill-rule="evenodd" d="M19.778 2.41h.042a1.667 1.667 0 011.624 1.624v16.751a1.667 1.667 0 01-1.624 1.623l-.042.001H5.834a3.333 3.333 0 01-3.278-3.279v-7.586a.833.833 0 01.802-.8h.03l2.5-.002V4.076l.001-.043A1.667 1.667 0 017.514 2.41h12.264zm-.556 1.666H8.112a.556.556 0 00-.556.528v12.805l-.001.042a1.667 1.667 0 01-1.624 1.624h-.042V12.41H4.222v6.154A2.222 2.222 0 006.4 20.742h12.85a.556.556 0 00.527-.527V4.604a.556.556 0 00-.526-.528h-.029zm-1.11 11.11a.556.556 0 01.027 1.111H9.222a.556.556 0 01-.027-1.11h8.917zm0-2.221a.556.556 0 01.027 1.11H9.222a.556.556 0 01-.027-1.11h8.917zm0-2.223a.556.556 0 01.027 1.11l-.028.002H9.222a.556.556 0 01-.027-1.11l.027-.002h8.89zM12.555 8.52a.556.556 0 01.027 1.11l-.027.001H9.222a.556.556 0 01-.027-1.11h3.361z" clip-rule="evenodd"/></svg>