<svg xmlns="http://www.w3.org/2000/svg" width="24" height="24" viewBox="0 0 24 24"><path fill-rule="evenodd" d="M22 13.13a4.12 4.12 0 00-.356-1.712l-.356-8.085-.518 1.49a.364.364 0 00-.007.013c-.036.088-.214.516-.72.969l.089-2.189-.563.73-.01.01c-.104.127-1.082 1.308-2.14 1.464-.163.03-.386 0-.638-.045l-.06-.008c-.587-.074-1.369-.173-2.386.187-1.405.494-2.198 2.232-2.315 2.487l-.013.029a1.027 1.027 0 01-.013-.029c-.116-.255-.909-1.993-2.314-2.487-1.006-.361-1.803-.26-2.39-.186l-.056.007-.158.02c-.191.025-.363.048-.48.025-1.045-.156-2.037-1.34-2.14-1.464l-.01-.01-.578-.73.089 2.189c-.549-.477-.726-.953-.726-.983l-.52-1.489-.355 8.085A4.438 4.438 0 002 13.145c0 .476.074.938.222 1.37l-.178 4.392.134.089c.03.03.83.58 2.239.61.416 0 .831-.097 1.26-.198h.001l.043-.01c.682-.179 1.468-.372 2.52-.268 1.53.137 3.385 1.852 3.716 2.157v.001l.05.045c.045-.044 2.106-2.07 3.766-2.203 1.043-.087 1.802.095 2.472.256h.001l.048.012c.46.119.89.223 1.304.208 1.409-.03 2.21-.58 2.239-.61l.133-.09-.192-4.406c.133-.432.222-.894.222-1.37zm-.608 0c0 2.084-1.69 3.781-3.766 3.781-2.075 0-3.765-1.697-3.765-3.781 0-2.085 1.69-3.782 3.765-3.782 2.076 0 3.766 1.697 3.766 3.782zM4.64 6.95c-.682-.312-1.142-.699-1.438-1.056l-.193 4.466c.815-.982 2.016-1.608 3.38-1.608a4.378 4.378 0 014.314 3.722c.238-.52.697-.7 1.335-.7.608 0 1.052.15 1.29.611a4.37 4.37 0 014.299-3.648c1.364 0 2.58.626 3.38 1.608l-.192-4.451a4.3 4.3 0 01-1.439 1.057c-.967.441-1.572.345-2.216.242l-.022-.004c-.534-.09-1.082-.179-1.972.03-.845.208-2.639 2.054-3.158 2.635-.519-.58-2.313-2.427-3.158-2.635-.89-.209-1.438-.12-1.972-.03-.637.12-1.245.223-2.238-.238zm-2.03 6.18c0-2.085 1.69-3.782 3.765-3.782s3.766 1.697 3.766 3.782c0 2.084-1.676 3.796-3.751 3.796a3.785 3.785 0 01-3.78-3.796zm16.975 5.88c.904-.014 1.512-.282 1.764-.416l-.133-2.978a4.365 4.365 0 01-3.603 1.906 4.366 4.366 0 01-4.21-3.216c-.356 1.191-1.38 2.352-1.38 2.352s-1.082-1.235-1.408-2.456a4.378 4.378 0 01-4.24 3.32 4.365 4.365 0 01-3.603-1.906l-.133 2.978c.252.134.86.402 1.764.417.341 0 .727-.09 1.157-.194l.105-.025c.678-.16 1.51-.357 2.623-.258 1.645.15 3.261 1.653 3.706 2.114.445-.461 2.046-1.965 3.707-2.114 1.17-.104 2.03.105 2.727.283l.04.01c.427.1.786.184 1.117.184zM7.878 12.389a.719.719 0 01-.658.444.718.718 0 01-.718-.719c0-.306.183-.55.443-.657a1.615 1.615 0 00-.612-.123A1.67 1.67 0 004.667 13a1.67 1.67 0 001.666 1.667A1.67 1.67 0 008 13a1.63 1.63 0 00-.122-.612zm10.675.444a.72.72 0 00.658-.444c.077.184.107.398.122.612a1.67 1.67 0 01-1.666 1.667A1.67 1.67 0 0116 13c0-.918.75-1.667 1.667-1.667.214 0 .428.046.611.123a.703.703 0 00-.443.657c0 .398.321.719.718.719z" clip-rule="evenodd"/></svg>