<svg xmlns="http://www.w3.org/2000/svg" width="24" height="24" viewBox="0 0 24 24"><path fill-rule="evenodd" d="M17 20.65L22 12l-5-8.65H7L2 12l5 8.65h10zm-.596-12.944c-.456-.792-.86-1.477-.898-1.522-.066-.077-.644-.083-3.644-.083h-.601c-2.352 0-2.624 0-2.72.135a.405.405 0 00-.034.06.36.36 0 01-.022.044c-.026.049-.476.825-1 1.726a707.115 707.115 0 00-1.711 2.959l-.539.934.088.128c.086.126.634 1.078 1.162 2.017a449.42 449.42 0 001.158 2.054c.099.164.48.835.534.94.032.062.154.269.27.46l.211.347h6.705l.102-.106c.055-.059.344-.532.64-1.051.296-.52.71-1.239.917-1.599.209-.36.38-.673.38-.696 0-.024-.625-.042-1.427-.042h-1.79l-.3.449c-.223.331-.327.449-.401.45-.562.012-3.451-.011-3.494-.029-.031-.012-.234-.367-.452-.788a21.61 21.61 0 00-.486-.908.567.567 0 01-.092-.225c0-.075.068-.082.79-.082h.79l.31-.171c.171-.094.392-.218.492-.275l.83-.473c.356-.203.642-.39.633-.415-.008-.025-.514-.313-1.124-.64l-1.11-.593-.806.012c-.799.012-.805.011-.805-.09 0-.057.038-.16.084-.228.046-.069.274-.492.506-.94l.423-.814h3.71l.069.177c.037.097.112.278.167.401l.099.224h1.874c1.591 0 1.605-.002 1.424-.21-.047-.053-.457-.745-.912-1.537z" clip-rule="evenodd"/></svg>