<svg xmlns="http://www.w3.org/2000/svg" width="24" height="24" viewBox="0 0 24 24"><path fill-rule="evenodd" d="M5.763 3.274a.563.563 0 00-.563.563v16.307c0 .31.252.562.563.562h3.884v1.875H5.763a2.437 2.437 0 01-2.438-2.437V3.837a2.437 2.437 0 012.438-2.438h7.392c.264 0 .516.112.694.308l5.302 5.845a.938.938 0 01.242.63v3.644h-1.875V9.12h-4.363a.937.937 0 01-.938-.938V3.274H5.763zm3.731 5.587H7.251v1.894h2.243V8.86zm-2.243 3.535h8.226v1.894H7.251v-1.894zm0 5.43V15.93h5.235v.938l-1.329.956H7.251zm12.52-4.737a.44.44 0 01.63-.001l.948.96a.46.46 0 01.002.643l-.996 1.019-1.58-1.602.995-1.019zm-1.518 1.553l1.58 1.601-6.545 6.699-1.583.01.002-1.611 6.546-6.699z" clip-rule="evenodd"/></svg>