<svg xmlns="http://www.w3.org/2000/svg" width="24" height="25" viewBox="0 0 24 25"><path fill-rule="evenodd" d="M19.5 3.16l-.123.003h-2.432a1.971 1.971 0 00-.257 0L5 3.16c-.824 0-1.5.672-1.5 1.5l-.034 3.397-.25-.25a.677.677 0 00-.998 0 .686.686 0 000 1.003l1.623 1.63a.677.677 0 00.998 0l1.498-1.63a.76.76 0 000-1.067c-.291-.292-.832-.23-1.123.063l-.25.25c0-2.815.03-3.317.035-3.386h11.782c.09.005.185.005.289 0h.04L19 4.66v3.5c0 1 1.5 1 1.5 0v-4c0-.5-.5-1-1-1zM4.994 4.668c.002 0 .007-.012.006-.01v.01h-.006zm0 0zM10 8.46a2 2 0 104 0 2 2 0 00-4 0zm2 6.573c1.405 0 3.063-.562 3.5-1v-1c0-.875-.625-1.5-1.5-1.5h-4c-.875 0-1.5.625-1.5 1.5v1c.437.438 2.095 1 3.5 1zm4.95 3.616l-4.45.01c-2.12 0-6 3-6 3v-3h-2c-.412 0-1-.587-1-1v-4.5c0-1 1.5-1 1.5 0v4h2l1.116-.015v1.716c1.554-1.153 3.256-1.7 4.384-1.7H18l.205-.005c.293-.004.796-.013.796-.014h.008v-.286c-.003-.474-.009-1.583-.009-3.696l-.212.353c-.291.292-.832.355-1.123.062a.76.76 0 010-1.066l1.497-1.63a.677.677 0 01.998 0l1.622 1.63a.685.685 0 010 1.004.677.677 0 01-.998 0l-.284-.353v4a1.49 1.49 0 01-1.492 1.493H17.04c-.032 0-.062 0-.092-.002z" clip-rule="evenodd"/></svg>