<svg xmlns="http://www.w3.org/2000/svg" width="24" height="24" viewBox="0 0 24 24"><path fill-rule="evenodd" d="M7.085 17.887L9.851 9.7a2.8 2.8 0 012.683-1.917l-1 2.985a.106.106 0 00.028.11.124.124 0 00.096.04h1.465c.068 0 .137-.054.164-.123L16.764.5l-2.697 4.12a7.712 7.712 0 00-2.122-.287c-4.23.028-7.666 3.519-7.612 7.763a7.649 7.649 0 002.752 5.79zm4.792 1.78c4.23.054 7.735-3.355 7.79-7.585a7.665 7.665 0 00-2.752-5.969L14.15 14.3a2.86 2.86 0 01-2.697 1.93l1.163-3.436c.014-.041.014-.068-.014-.11-.027-.027-.054-.054-.095-.054h-1.465c-.082 0-.137.054-.165.123L7.236 23.5l2.683-4.12a7.6 7.6 0 001.958.287z" clip-rule="evenodd"/></svg>