<svg xmlns="http://www.w3.org/2000/svg" width="24" height="25" viewBox="0 0 24 25"><path fill-rule="evenodd" d="M6.184 5.137l2.355 2.378v-.006l3.647 3.712.46-.472a1.914 1.914 0 00.288-2.369L8.056 3.371a1.256 1.256 0 00-1.906-.05L4.545 4.935a1.29 1.29 0 011.639.203zm3.832 9.078a1.302 1.302 0 00-.118.119 1.305 1.305 0 00-.31.851c-.013.704.559 1.286 1.278 1.3a1.267 1.267 0 001.049-.563l3.21-3.27a1.315 1.315 0 00.049-1.941l.01-.013-1.593-1.623a1.352 1.352 0 01-.2 1.673l-3.375 3.467zm9.371-9.353l-1.879 1.685a7.684 7.684 0 011.986 5.235 7.761 7.761 0 01-.313 2.126l.024.025-.024-.025c-.888 3.203-3.85 5.432-7.24 5.448-4.223-.117-7.551-3.56-7.438-7.693a7.672 7.672 0 012.15-5.285l-.495-.5a1.813 1.813 0 00-1.992-.482A10.25 10.25 0 002 11.643c-.044 5.624 4.398 10.22 9.92 10.266 5.522.046 10.034-4.483 10.08-10.107a10.25 10.25 0 00-2.613-6.94z" clip-rule="evenodd"/></svg>