<svg xmlns="http://www.w3.org/2000/svg" width="24" height="24" viewBox="0 0 24 24"><path fill-rule="evenodd" d="M18.75 12c1.788 0 3.25 1.512 3.25 3.375v.75c0 1.863-1.45 3.375-3.25 3.375h-5.875c-1.787 0-3.375-1.512-3.375-3.375v-.375c0-.412.338-.75.75-.75s.75.338.75.75v.375c0 1.038.912 1.875 1.875 1.875h5.875c.962 0 1.75-.837 1.75-1.875v-.75c0-1.037-.788-1.875-1.75-1.875h-3.488a.752.752 0 01-.75-.75c0-.412.338-.75.75-.75h3.488zM8.238 18c.412 0 .75.337.75.75s-.338.75-.75.75H5.25C3.462 19.5 2 17.988 2 16.125v-.75C2 13.512 3.45 12 5.25 12h5.875c1.787 0 3.375 1.512 3.375 3.375v.375c0 .413-.338.75-.75.75a.752.752 0 01-.75-.75v-.375c0-1.037-.912-1.875-1.875-1.875H5.25c-.963 0-1.75.838-1.75 1.875v.75C3.5 17.163 4.287 18 5.25 18h2.988zM16.25 5.5c-.963 0-1.75.787-1.75 1.75S15.287 9 16.25 9C17.212 9 18 8.213 18 7.25s-.788-1.75-1.75-1.75zm0 5A3.26 3.26 0 0113 7.25 3.26 3.26 0 0116.25 4a3.26 3.26 0 013.25 3.25 3.26 3.26 0 01-3.25 3.25zm-8.5-5C6.787 5.5 6 6.287 6 7.25S6.787 9 7.75 9 9.5 8.213 9.5 7.25 8.713 5.5 7.75 5.5zm0 5A3.26 3.26 0 014.5 7.25 3.26 3.26 0 017.75 4 3.26 3.26 0 0111 7.25a3.26 3.26 0 01-3.25 3.25z" clip-rule="evenodd"/></svg>