<svg xmlns="http://www.w3.org/2000/svg" width="24" height="25" viewBox="0 0 24 25"><path fill-rule="evenodd" d="M10.18 9.007L6.706 7.896a.278.278 0 01.17-.53l3.472 1.112a.278.278 0 01-.17.529zm0 1.944l-3.473-1.11a.278.278 0 01.17-.53l3.472 1.111a.278.278 0 01-.17.53zm0 1.945l-3.473-1.111a.278.278 0 01.17-.53l3.472 1.112a.278.278 0 01-.17.529zm0 1.944l-3.473-1.11a.278.278 0 01.17-.53l3.472 1.111a.278.278 0 01-.17.53zm1.148-7.884L5.998 5.42a.557.557 0 00-.665.551v8.965a.56.56 0 00.447.551l5.942 1.589V7.488c0-.245-.16-.46-.394-.532zm-7.384.12a.833.833 0 00-.833.833v9.722h1.111V8.187h.556V7.076h-.834zm16.112 0h-.834v1.11h.556v9.445h1.11V7.91a.833.833 0 00-.832-.833zm-2.763.82L13.82 9.007a.278.278 0 01-.17-.53l3.473-1.11a.278.278 0 01.169.529zm0 1.944l-3.472 1.111a.278.278 0 01-.17-.53l3.473-1.11a.278.278 0 01.169.53zm0 1.945l-3.472 1.11a.278.278 0 01-.17-.53l3.473-1.11a.278.278 0 01.169.53zm0 1.944L13.82 14.84a.278.278 0 01-.17-.53l3.473-1.11a.278.278 0 01.169.53zm.71-8.309l-5.331 1.536a.556.556 0 00-.394.532v9.588l5.942-1.589a.56.56 0 00.447-.55V5.97a.557.557 0 00-.665-.55zM14.21 18.2l7.333.01a.416.416 0 01.457.371l-.02.856c0 .23-.186.416-.416.416H2.416A.416.416 0 012 19.438v-.834c0-.23.186-.416.416-.416l7.354.008v.13c0 .23.186.417.416.417h3.608c.23 0 .416-.186.416-.416V18.2z" clip-rule="evenodd"/></svg>