<svg xmlns="http://www.w3.org/2000/svg" width="24" height="25" viewBox="0 0 24 25"><path d="M20.458 15.935v-7c.547-.105.876-.526.876-.947 0-.526-.493-1-1.04-1-.384 0-.603.158-.822.421l-6.514-3.631c.055-.106.055-.264.055-.369 0-.526-.493-1-1.04-1-.548 0-1.04.474-1.04 1 0 .158.054.263.054.369L4.528 7.304c-.219-.263-.547-.421-.821-.421a1.02 1.02 0 00-1.04 1c0 .526.438.895.876.947v7.105c-.548.106-.876.527-.876.948 0 .526.492 1 1.04 1 .383 0 .602-.158.821-.421l6.46 3.579c-.055.105-.055.263-.055.368 0 .526.492 1 1.04 1 .547 0 1.04-.474 1.04-1 0-.316-.164-.579-.438-.79l3.449-5.63 3.12 1.736v.105c0 .527.493 1 1.04 1a1.02 1.02 0 001.04-1c0-.503-.354-.895-.766-.895zm-.329-7v6.895L17.83 12.2l2.08-3.369c.055.053.11.053.22.105zm-.82-1.368c-.056.105-.056.263-.056.368 0 .316.165.58.438.79l-1.97 3.21-4.927-7.842.055-.052 6.46 3.526zm-7.5-3.158l5.31 8.369-.767 1.263L8.415 9.62l3.23-5.264c.054 0 .109.053.164.053zm-.493-.21l-3.23 5.263-3.394-1.895 6.405-3.526c.11.052.164.105.219.158zM3.87 15.935v-7h.11l2.244 3.685-2.135 3.473c-.055-.105-.11-.105-.219-.158zm1.26-7.052l2.517 1.42-.82 1.317L5.13 8.883zm-.439 8.42c.055-.104.055-.262.055-.368 0-.315-.164-.578-.438-.79l2.025-3.315 4.872 7.895-.054.105-6.46-3.526zm7.664 3.211c-.055 0-.11-.052-.164-.052l-5.2-8.58.875-1.473 7.992 4.526-3.503 5.58zm4.927-7.368l1.478 2.368-2.19-1.21.712-1.158z"/><path fill-rule="evenodd" d="M4.309 16.146c.274.21.438.474.438.79 0 .105 0 .263-.055.368l6.46 3.526.054-.105-4.872-7.895-2.025 3.316zm2.026-2.934l-1.767 2.893c.23.22.379.497.379.83v.003a1.943 1.943 0 01-.017.268l5.836 3.186-4.43-7.18zM4.09 16.093l2.135-3.473-2.244-3.685h-.11v7c.024.012.045.02.064.029.069.029.112.047.155.13zm-.019-.35l1.92-3.124-1.92-3.15v6.273zm13.759-3.544l2.3 3.631V8.935a1.107 1.107 0 00-.141-.056.229.229 0 01-.079-.049l-2.08 3.37zM12.849 4.04l-.055.052 4.927 7.842 1.97-3.21c-.273-.21-.438-.474-.438-.79 0-.105 0-.263.055-.368l-6.46-3.526zm.443.47l4.427 7.045 1.713-2.79c-.23-.22-.379-.498-.379-.83v-.003c0-.052 0-.126.008-.202a.557.557 0 01.01-.066L13.292 4.51zm6.637 4.67l-1.863 3.016 1.863 2.943V9.18zm-4.07 5.754L7.867 10.41l-.876 1.474 5.2 8.579c.028 0 .055.013.083.026a.201.201 0 00.082.026l3.503-5.579zm-3.567 5.306l3.287-5.235-7.64-4.326-.714 1.202 5.067 8.359zm3.732-5.253l3.12 1.737v.105c0 .527.493 1 1.04 1a1.02 1.02 0 001.04-1c0-.503-.354-.895-.766-.895v-7c.547-.105.876-.526.876-.947 0-.526-.493-1-1.04-1-.384 0-.603.158-.822.421l-6.514-3.631c.055-.106.055-.264.055-.369 0-.526-.493-1-1.04-1-.548 0-1.04.474-1.04 1 0 .087.016.158.031.222.012.052.023.1.023.147L4.528 7.304c-.219-.263-.547-.421-.821-.421a1.02 1.02 0 00-1.04 1c0 .526.438.895.876.947v7.105c-.548.106-.876.527-.876.948 0 .526.492 1 1.04 1 .383 0 .602-.158.821-.421l6.46 3.579c-.055.105-.055.263-.055.368 0 .526.492 1 1.04 1 .547 0 1.04-.474 1.04-1 0-.316-.164-.579-.438-.79l3.449-5.63zm-3.19 5.59l3.26-5.322 2.85 1.587c.007.638.594 1.187 1.24 1.187.712 0 1.24-.563 1.24-1.2 0-.513-.32-.965-.766-1.071V9.09c.537-.168.875-.622.875-1.103 0-.644-.59-1.2-1.24-1.2-.22 0-.406.046-.569.137a1.274 1.274 0 00-.294.232L13.196 3.68l.009-.067c.008-.076.008-.15.008-.202v-.003c0-.644-.59-1.2-1.24-1.2s-1.24.556-1.24 1.2c0 .103.018.187.032.25l.002.006v.005l-6.2 3.384c-.244-.23-.567-.371-.86-.371-.712 0-1.24.562-1.24 1.2 0 .574.42.982.876 1.11v6.787c-.538.168-.876.622-.876 1.103 0 .644.59 1.2 1.24 1.2.221 0 .406-.046.57-.137a1.32 1.32 0 00.294-.232l6.179 3.424a1.104 1.104 0 00-.01.066c-.007.076-.007.15-.007.202v.003c0 .644.59 1.2 1.24 1.2s1.24-.556 1.24-1.2c0-.333-.148-.61-.379-.83zM7.648 10.305L5.13 8.883l1.697 2.737.821-1.316zm-.82.937l.54-.866L5.71 9.44l1.117 1.801zm4.883-6.612L8.694 9.546l7.587 4.226.602-.992-5.171-8.15zm5.407 8.149l-.766 1.263L8.415 9.62l3.23-5.264a.2.2 0 01.081.027.2.2 0 00.082.026l5.31 8.369zm-5.802-8.58c-.055-.052-.11-.105-.22-.157L4.693 7.567l3.394 1.895 3.23-5.263zm-3.3 4.996l2.992-4.876-5.903 3.25 2.911 1.626zm9.267 3.952l-.712 1.158 2.19 1.21-1.478-2.368zm0 .38l-.432.704 1.332.736-.9-1.44z" clip-rule="evenodd"/></svg>