<svg xmlns="http://www.w3.org/2000/svg" width="24" height="24" viewBox="0 0 24 24"><path fill-rule="evenodd" d="M10.875 2l3.375 1.688-3.375 2.25v-1.1c-3.46.287-6.188 3.192-6.188 6.724a6.752 6.752 0 003.36 5.835.841.841 0 01.17 1.323l-.002.003a.848.848 0 01-1.029.129 8.437 8.437 0 013.689-15.706V2zm9.878 17.685l-2.783-2.783a8.402 8.402 0 001.905-5.34 8.434 8.434 0 00-4.278-7.341.848.848 0 00-.962.083l-.003.003a.843.843 0 00.123 1.38 6.752 6.752 0 013.432 5.875c0 3.533-2.728 6.438-6.187 6.725v-1.1l-3.375 2.25L12 21.125v-1.146a8.398 8.398 0 004.777-1.884l2.783 2.783a.84.84 0 001.193 0 .843.843 0 000-1.193zm-9.316-8.122a1.688 1.688 0 100-3.376 1.688 1.688 0 000 3.376zm-1.687.562h3.375c.621 0 1.125.504 1.125 1.125v1.213a8.56 8.56 0 01-5.625 0V13.25c0-.621.504-1.125 1.125-1.125z" clip-rule="evenodd"/></svg>