<svg xmlns="http://www.w3.org/2000/svg" width="24" height="24" viewBox="0 0 24 24"><path fill-rule="evenodd" d="M5.116 3.59a.558.558 0 101.116 0 .558.558 0 00-1.116 0zM4 3.59a1.674 1.674 0 113.347 0A1.674 1.674 0 014 3.59zm6.137 0a.558.558 0 101.115 0 .558.558 0 00-1.115 0zm-1.116 0a1.674 1.674 0 113.347 0 1.674 1.674 0 01-3.347 0zm6.694.558a.558.558 0 110-1.116.558.558 0 010 1.116zm0-2.231a1.674 1.674 0 100 3.347 1.674 1.674 0 000-3.347zm-.558 6.694a.558.558 0 101.116 0 .558.558 0 00-1.116 0zm-1.115 0a1.674 1.674 0 113.347 0 1.674 1.674 0 01-3.347 0zm-8.368.558a.558.558 0 110-1.116.558.558 0 010 1.116zm0-2.232a1.674 1.674 0 100 3.348 1.674 1.674 0 000-3.348zm8.368 13.947a3.91 3.91 0 003.905-3.905v-3.905a.558.558 0 00-1.116 0v1.116a.558.558 0 01-1.116 0v-1.674a.558.558 0 00-1.115 0v1.674a.558.558 0 01-1.116 0v-2.232a.558.558 0 00-1.116 0v2.232a.558.558 0 01-1.116 0V8.61a.558.558 0 00-1.116 0v8.486l-1.523-1.524a.559.559 0 00-.789.79l3.265 3.17c.151.175.317.336.493.48l.058.052.009.008.02.008.063.047a3.873 3.873 0 002.31.756zm2.526-9.268a1.676 1.676 0 012.495 1.458v3.905A5.026 5.026 0 0114.041 22a4.98 4.98 0 01-2.926-.941 1.086 1.086 0 01-.256-.196 5.088 5.088 0 01-.598-.58l-3.22-3.126a1.677 1.677 0 01-.007-2.373 1.676 1.676 0 011.986-.285V8.61c0-.923.75-1.674 1.673-1.674s1.674.751 1.674 1.674v1.77a1.673 1.673 0 011.968.678 1.673 1.673 0 012.231.558z" clip-rule="evenodd"/></svg>