<svg xmlns="http://www.w3.org/2000/svg" width="24" height="24" viewBox="0 0 24 24"><path fill-rule="evenodd" d="M7.5 6.5C7.5 7.878 6.378 9 5 9a2.503 2.503 0 01-2.5-2.5C2.5 5.122 3.622 4 5 4s2.5 1.122 2.5 2.5zM6 6.5a1.001 1.001 0 00-2 0 1.001 1.001 0 002 0zm8.5 0C14.5 7.878 13.379 9 12 9a2.503 2.503 0 01-2.5-2.5C9.5 5.122 10.621 4 12 4s2.5 1.122 2.5 2.5zm-1.5 0a1.001 1.001 0 00-2 0 1.001 1.001 0 002 0zM19 9c1.378 0 2.5-1.122 2.5-2.5S20.378 4 19 4a2.503 2.503 0 00-2.5 2.5C16.5 7.878 17.622 9 19 9zm0-3.5a1.001 1.001 0 010 2 1.001 1.001 0 010-2z" clip-rule="evenodd"/><path d="M16.5 12.5c0-1.379 1.122-2.5 2.5-2.5s2.5 1.121 2.5 2.5v2.25a.75.75 0 01-1.5 0V12.5a1.001 1.001 0 00-2 0v5c0 1.378-1.122 2.5-2.5 2.5a2.503 2.503 0 01-2.5-2.5v-5a1.001 1.001 0 00-2 0v5.25h-.013A2.503 2.503 0 018.5 20 2.503 2.503 0 016 17.5v-5a1.001 1.001 0 00-2 0v2.25a.75.75 0 01-1.5 0v-2.5h.013A2.503 2.503 0 015 10c1.378 0 2.5 1.121 2.5 2.5v5a1.001 1.001 0 002 0v-5c0-1.379 1.121-2.5 2.5-2.5s2.5 1.121 2.5 2.5v5a1.001 1.001 0 002 0v-5z"/></svg>