<svg xmlns="http://www.w3.org/2000/svg" width="24" height="25" viewBox="0 0 24 25"><path fill-rule="evenodd" d="M7.5 6.91c0 1.378-1.122 2.5-2.5 2.5a2.503 2.503 0 01-2.5-2.5c0-1.38 1.122-2.5 2.5-2.5s2.5 1.12 2.5 2.5zm-1.5 0a1.001 1.001 0 00-2 0 1.001 1.001 0 002 0zm8.5 0c0 1.378-1.121 2.5-2.5 2.5a2.503 2.503 0 01-2.5-2.5c0-1.38 1.121-2.5 2.5-2.5s2.5 1.12 2.5 2.5zm-1.5 0a1.001 1.001 0 00-2 0 1.001 1.001 0 002 0zm6 2.5c1.378 0 2.5-1.122 2.5-2.5 0-1.38-1.122-2.5-2.5-2.5a2.503 2.503 0 00-2.5 2.5c0 1.378 1.122 2.5 2.5 2.5zm0-3.5a1.001 1.001 0 010 2 1.001 1.001 0 010-2z" clip-rule="evenodd"/><path d="M16.5 12.91c0-1.38 1.122-2.5 2.5-2.5s2.5 1.12 2.5 2.5v2.25a.75.75 0 01-1.5 0v-2.25a1.001 1.001 0 00-2 0v5c0 1.378-1.122 2.5-2.5 2.5a2.503 2.503 0 01-2.5-2.5v-5a1.001 1.001 0 00-2 0v5.25h-.013A2.503 2.503 0 018.5 20.41a2.503 2.503 0 01-2.5-2.5v-5a1.001 1.001 0 00-2 0v2.25a.75.75 0 01-1.5 0v-2.5h.013A2.503 2.503 0 015 10.41c1.378 0 2.5 1.12 2.5 2.5v5a1.001 1.001 0 002 0v-5c0-1.38 1.121-2.5 2.5-2.5s2.5 1.12 2.5 2.5v5a1.001 1.001 0 002 0v-5z"/></svg>