<svg xmlns="http://www.w3.org/2000/svg" width="24" height="24" viewBox="0 0 24 24"><path fill-rule="evenodd" d="M7.263 6.21a2.635 2.635 0 01-2.631 2.632A2.635 2.635 0 012 6.21a2.635 2.635 0 012.632-2.63 2.635 2.635 0 012.631 2.63zm-1.579 0a1.054 1.054 0 00-2.105 0 1.054 1.054 0 002.105 0zm8.948 0A2.635 2.635 0 0112 8.842 2.635 2.635 0 019.368 6.21 2.635 2.635 0 0112 3.58a2.635 2.635 0 012.632 2.631zm-1.58 0a1.054 1.054 0 00-2.105 0 1.054 1.054 0 002.106 0zm6.316 2.632A2.635 2.635 0 0022 6.21a2.635 2.635 0 00-2.632-2.631 2.635 2.635 0 00-2.631 2.631 2.635 2.635 0 002.631 2.632zm0-3.684a1.054 1.054 0 010 2.105 1.054 1.054 0 010-2.105z" clip-rule="evenodd"/><path d="M16.737 12.526a2.635 2.635 0 012.631-2.631A2.635 2.635 0 0122 12.526v2.369a.79.79 0 01-1.579 0v-2.369a1.054 1.054 0 00-2.105 0v5.263a2.635 2.635 0 01-2.632 2.632 2.635 2.635 0 01-2.631-2.632v-5.263a1.054 1.054 0 00-2.106 0v5.526h-.013a2.635 2.635 0 01-2.618 2.369 2.635 2.635 0 01-2.632-2.632v-5.263a1.054 1.054 0 00-2.105 0v2.369a.79.79 0 01-1.579 0v-2.632h.013a2.635 2.635 0 012.619-2.368 2.635 2.635 0 012.631 2.631v5.263a1.054 1.054 0 002.105 0v-5.263A2.635 2.635 0 0112 9.895a2.635 2.635 0 012.632 2.631v5.263a1.054 1.054 0 002.105 0v-5.263z"/></svg>