<svg xmlns="http://www.w3.org/2000/svg" width="24" height="24" viewBox="0 0 24 24"><path d="M3.25 16.653c0-.473.392-.857.875-.857h7c.483 0 .875.384.875.857v.49a.866.866 0 01-.875.857h-7a.866.866 0 01-.875-.857v-.49zm10 0c0-.473.392-.857.875-.857h4.5c.483 0 .875.384.875.857v.49a.866.866 0 01-.875.857h-4.5a.866.866 0 01-.875-.857v-.49zm-7.5-4.898c0-.473.392-.857.875-.857h14.5c.483 0 .875.384.875.857v.49a.866.866 0 01-.875.857h-14.5a.866.866 0 01-.875-.857v-.49zM2 6.857C2 6.384 2.392 6 2.875 6h3.25c.483 0 .875.384.875.857v.49a.866.866 0 01-.875.857h-3.25A.866.866 0 012 7.347v-.49zm6.25 0c0-.473.392-.857.875-.857h7c.483 0 .875.384.875.857v.49a.866.866 0 01-.875.857h-7a.866.866 0 01-.875-.857v-.49z"/></svg>