<svg xmlns="http://www.w3.org/2000/svg" width="24" height="25" viewBox="0 0 24 25"><path fill-rule="evenodd" d="M14.813 11.284a1.688 1.688 0 110-3.375 1.688 1.688 0 010 3.375zm0-6.187L7.16 12.748a5.347 5.347 0 014.5 4.5l7.652-7.651C21 7.909 21 5.3 21 3.409c-1.892 0-4.5 0-6.187 1.688zm-8.438 7.312L9.75 9.034c-2.39 0-4.5.563-6.187 3.375h2.812zM12 18.034l3.375-3.375c0 2.39-.562 4.5-3.375 6.188v-2.813zm-8.273 2.648a.561.561 0 00.796 0l4.5-4.5a.562.562 0 10-.796-.796l-4.5 4.5a.562.562 0 000 .796zm-.164-2.648a.561.561 0 01-.398-.96l3.375-3.375a.562.562 0 11.795.795L3.96 17.87a.561.561 0 01-.397.165zm2.977 3.21a.56.56 0 00.795 0l3.375-3.375a.562.562 0 10-.795-.795L6.54 20.449a.562.562 0 000 .795z" clip-rule="evenodd"/></svg>