<svg xmlns="http://www.w3.org/2000/svg" width="24" height="25" viewBox="0 0 24 25"><path fill-rule="evenodd" d="M12 2.41c-5.523 0-10 4.476-10 10 0 5.522 4.477 10 10 10s10-4.478 10-10c0-5.524-4.477-10-10-10zM9.647 18.29a.59.59 0 00.588-.588V7.115a.59.59 0 00-.588-.588.59.59 0 00-.588.588v10.588a.59.59 0 00.588.588zm4.706-1.176a.59.59 0 00.588-.588V8.29a.59.59 0 00-.588-.588.59.59 0 00-.588.588v8.236a.59.59 0 00.588.588zm2.941-2.353a.59.59 0 01-.588.588.59.59 0 01-.588-.588v-4.706a.59.59 0 01.588-.588.59.59 0 01.588.588v4.706zm1.765-1.177a.59.59 0 01-.588-.588V11.82a.59.59 0 01.588-.588.59.59 0 01.588.588v1.176a.59.59 0 01-.588.588zm-6.47 1.765a.59.59 0 01-.589.588.59.59 0 01-.588-.588V9.468A.59.59 0 0112 8.88a.59.59 0 01.588.588v5.882zm-4.707-.588a.59.59 0 01-.588.588.59.59 0 01-.588-.588v-4.706a.59.59 0 01.588-.588.59.59 0 01.588.588v4.706zm-2.94-1.177a.59.59 0 00.587-.588V11.82a.59.59 0 00-.588-.588.59.59 0 00-.588.588v1.176a.59.59 0 00.588.588z" clip-rule="evenodd"/></svg>