<svg xmlns="http://www.w3.org/2000/svg" width="24" height="25" viewBox="0 0 24 25"><path fill-rule="evenodd" d="M15.936 3.218a9.96 9.96 0 00-4.592-.788c-4.981.32-9.002 4.342-9.323 9.323a9.961 9.961 0 00.787 4.592c.15.35.598.47.895.232a2.95 2.95 0 01.42-.28.587.587 0 00.27-.737 8.203 8.203 0 01-.604-3.79c.307-4.023 3.549-7.265 7.572-7.572a8.2 8.2 0 013.79.604.588.588 0 00.737-.27c.082-.148.175-.288.28-.42a.584.584 0 00-.232-.894zM8.47 8.88c0-.65 1.58-1.177 3.529-1.177 1.95 0 3.53.527 3.53 1.177v1.176c0 .65-1.58 1.177-3.53 1.177-1.95 0-3.53-.527-3.53-1.177V8.88zm0 2.353c0 .65 1.58 1.176 3.529 1.176 1.95 0 3.53-.527 3.53-1.176v1.764c0 .65-1.58 1.177-3.53 1.177-1.95 0-3.53-.527-3.53-1.177v-1.764zM12 15.35c-1.95 0-3.53-.527-3.53-1.176v1.764c0 .65 1.58 1.177 3.53 1.177 1.95 0 3.53-.527 3.53-1.176v-1.765c0 .65-1.58 1.176-3.53 1.176zm3.15 4.666a.586.586 0 01.737.267c.081.15.176.29.281.423a.584.584 0 01-.23.894c-1.21.52-2.54.81-3.938.81a9.937 9.937 0 01-3.938-.81.584.584 0 01-.23-.894c.105-.132.2-.274.281-.423a.585.585 0 01.737-.267 8.18 8.18 0 003.15.628c1.116 0 2.18-.224 3.15-.628zm4.723-11.494c.15-.081.292-.176.424-.281a.583.583 0 01.893.23c.52 1.209.81 2.54.81 3.938a9.94 9.94 0 01-.81 3.938.583.583 0 01-.893.23 2.93 2.93 0 00-.424-.281.585.585 0 01-.266-.737 8.18 8.18 0 00.628-3.15 8.18 8.18 0 00-.628-3.15.585.585 0 01.267-.737zm-14.35 8.003a2.355 2.355 0 100 4.71 2.355 2.355 0 000-4.71zm10.645 2.355a2.355 2.355 0 114.71 0 2.355 2.355 0 01-4.71 0zm2.355-15.355a2.355 2.355 0 100 4.71 2.355 2.355 0 000-4.71z" clip-rule="evenodd"/></svg>