<svg xmlns="http://www.w3.org/2000/svg" width="24" height="24" viewBox="0 0 24 24"><path fill-rule="evenodd" d="M16.706 3.107v5.441l-6.117-6.426c2.063-.333 4.205.022 6.117.985zM10.823 6.13H3.915c1.199-1.69 3.18-2.938 5.144-3.628l3.53 3.628h-1.766zM3.176 7.294h5.883l-6.872 6.813a10.54 10.54 0 01.989-6.813zm14.706 5.09l3.58-3.68a10.282 10.282 0 00-3.58-4.985v8.665zm-2.497 9.176l-3.58-3.678h8.427a10.046 10.046 0 01-4.847 3.678zm2.497-7.626l-.343.354-2.354 2.418h5.64A10.457 10.457 0 0022 11.869c0-.676-.065-1.335-.186-1.975l-3.932 4.04zM2.588 15.198l3.53-3.627v8.464c-1.717-1.238-2.839-2.759-3.53-4.837zm7.258 2.57l-.346-.356-2.206-2.266v5.723a9.737 9.737 0 006.485.939l-3.933-4.04z" clip-rule="evenodd"/></svg>