<svg xmlns="http://www.w3.org/2000/svg" width="24" height="25" viewBox="0 0 24 25"><path fill-rule="evenodd" d="M8.9 13.76a9.03 9.03 0 01-1.157-.367l-.007.006-3.023-1.187a.324.324 0 00-.046-.013v-9.79h8.202c3.063 0 5.544 2.5 5.544 5.589a5.596 5.596 0 01-2.481 4.661l-1.892.747a8.605 8.605 0 01-3.149.594 8.24 8.24 0 01-.8-.04 10.76 10.76 0 01-.794-.114c-.133-.027-.265-.053-.397-.087zm4.981-5.316c0-1.58-1.27-2.86-2.838-2.86-1.567 0-2.837 1.28-2.837 2.86 0 1.58 1.27 2.861 2.838 2.861 1.567 0 2.837-1.28 2.837-2.86zM6.83 22.41H4.667v-8.936l3.208 2.24L6.83 22.41zm7.065-6.695l1.051 6.695H20l-3.565-8.47-2.54 1.775zm-5.18 6.695l.853-1.48a1.52 1.52 0 012.64 0l.853 1.48H8.715z" clip-rule="evenodd"/></svg>