<svg xmlns="http://www.w3.org/2000/svg" width="24" height="24" viewBox="0 0 24 24"><path fill-rule="evenodd" d="M8.9 13.35a8.98 8.98 0 01-1.157-.366l-.007.006-3.023-1.187a.324.324 0 00-.046-.013V2h8.202c3.063 0 5.544 2.5 5.544 5.589a5.596 5.596 0 01-2.481 4.661l-1.892.747a8.597 8.597 0 01-3.149.594 8.24 8.24 0 01-.8-.04 10.76 10.76 0 01-.794-.114 8.5 8.5 0 01-.397-.086zm4.981-5.315c0-1.58-1.27-2.86-2.838-2.86-1.567 0-2.837 1.28-2.837 2.86 0 1.58 1.27 2.861 2.838 2.861 1.567 0 2.837-1.28 2.837-2.86zM6.83 22H4.667v-8.936l3.208 2.24L6.83 22zm7.065-6.695L14.946 22H20l-3.565-8.47-2.54 1.775zM8.715 22l.853-1.48a1.52 1.52 0 012.64 0L13.06 22H8.715z" clip-rule="evenodd"/></svg>