<svg xmlns="http://www.w3.org/2000/svg" width="24" height="25" viewBox="0 0 24 25"><path fill-rule="evenodd" d="M13.03 2.423l-.08-.012a.54.54 0 00-.572.416c-.066.29.12.578.414.645l1.519.343-7.276 4.12-.145.086a4.604 4.604 0 00-1.563 6.278c1.316 2.236 4.215 3.011 6.474 1.732l2.833-1.604.07-.046a.708.708 0 00.192-.933.738.738 0 00-.996-.267l-2.832 1.604-.135.073a3.321 3.321 0 01-4.347-1.272A3.188 3.188 0 017.768 9.18l7.275-4.12-.455 1.462-.018.078a.542.542 0 00.38.597.544.544 0 00.683-.352l.954-3.065.005-.028.008-.07v-.04l-.006-.055-.016-.075-.026-.07-.037-.069-.043-.057-.056-.058-.058-.045-.053-.03a.555.555 0 00-.092-.038l-.029-.008-3.155-.714zm5.643 8.886c-1.316-2.235-4.215-3.01-6.474-1.731l-2.833 1.604-.07.046a.708.708 0 00-.193.933.738.738 0 00.997.266l2.832-1.604.135-.072a3.321 3.321 0 014.347 1.271 3.188 3.188 0 01-1.183 4.406l-4.852 2.747a1.847 1.847 0 00-1.992-.117 1.771 1.771 0 00-.657 2.448 1.845 1.845 0 002.49.666 1.772 1.772 0 00.893-1.75l4.852-2.748.145-.086a4.603 4.603 0 001.563-6.279z" clip-rule="evenodd"/></svg>