<svg xmlns="http://www.w3.org/2000/svg" width="24" height="25" viewBox="0 0 24 25"><path d="M9.5 12.41c0 1.374 1.125 2.5 2.5 2.5s2.5-1.126 2.5-2.5c0-1.376-1.125-2.5-2.5-2.5a2.507 2.507 0 00-2.5 2.5z"/><path fill-rule="evenodd" d="M20.465 11.66h.785a.75.75 0 010 1.5h-.785a8.512 8.512 0 01-7.715 7.714v.785a.75.75 0 01-1.5 0v-.785a8.512 8.512 0 01-7.715-7.715H2.75a.75.75 0 010-1.5h.785a8.511 8.511 0 017.715-7.715V3.16a.75.75 0 011.5 0v.785a8.511 8.511 0 017.715 7.715zM5 12.41c0 3.859 3.14 7 7 7s7-3.141 7-7c0-3.86-3.14-7-7-7s-7 3.14-7 7z" clip-rule="evenodd"/></svg>