<svg xmlns="http://www.w3.org/2000/svg" width="24" height="24" viewBox="0 0 24 24"><path fill-rule="evenodd" d="M8.357 12.235A3.656 3.656 0 0111.15 8.45v1.63a2.1 2.1 0 101.7 0V4a.6.6 0 00-.6-.6h-.121c-4.717 0-8.656 3.746-8.728 8.466C3.328 16.67 7.213 20.6 12 20.6c4.46 0 8.138-3.413 8.56-7.764a.852.852 0 00-.847-.936.852.852 0 00-.846.773 6.908 6.908 0 01-7.426 6.205c-3.288-.26-5.963-2.864-6.303-6.145-.398-3.838 2.373-7.132 6.012-7.58v1.564a5.357 5.357 0 00-4.485 5.694 5.365 5.365 0 004.924 4.924 5.358 5.358 0 005.69-4.46.847.847 0 00-.842-.975.85.85 0 00-.838.708 3.656 3.656 0 01-3.834 3.035 3.67 3.67 0 01-3.408-3.408z" clip-rule="evenodd"/><path fill-rule="evenodd" d="M18 8.6a2.1 2.1 0 100-4.2 2.1 2.1 0 000 4.2z" clip-rule="evenodd"/></svg>