<svg xmlns="http://www.w3.org/2000/svg" width="24" height="24" viewBox="0 0 24 24"><path d="M9.5 12c0 1.375 1.125 2.5 2.5 2.5s2.5-1.125 2.5-2.5-1.125-2.5-2.5-2.5A2.507 2.507 0 009.5 12z"/><path fill-rule="evenodd" d="M20.465 11.25h.785a.75.75 0 010 1.5h-.785a8.511 8.511 0 01-7.715 7.715v.785a.75.75 0 01-1.5 0v-.785a8.511 8.511 0 01-7.715-7.715H2.75a.75.75 0 010-1.5h.785a8.511 8.511 0 017.715-7.715V2.75a.75.75 0 011.5 0v.785a8.511 8.511 0 017.715 7.715zM5 12c0 3.86 3.14 7 7 7s7-3.14 7-7-3.14-7-7-7-7 3.14-7 7z" clip-rule="evenodd"/></svg>