<svg xmlns="http://www.w3.org/2000/svg" width="24" height="24" viewBox="0 0 24 24"><path fill-rule="evenodd" d="M12 6.86c-1.66 0-3.14.686-4.23 1.763-.16.16-.297.343-.433.503L5.745 8.21a7.735 7.735 0 015.345-3.09V3.333h1.796V5.12a7.796 7.796 0 014.618 2.221c.25.275.5.573.728.87l-1.57.916a4.564 4.564 0 00-.432-.503C15.139 7.546 13.638 6.86 12 6.86zM5.745 17.552l-1.524.893-.888-1.557 1.524-.893a7.935 7.935 0 010-6.228l1.57.916a6.39 6.39 0 00-.41 2.199c0 1.67.683 3.16 1.752 4.258a6.03 6.03 0 003.321 1.695v1.831a7.763 7.763 0 01-4.595-2.244 8.918 8.918 0 01-.75-.87zm13.398-1.557l1.524.893-.91 1.557-1.524-.893c-.228.298-.478.596-.728.87-1.229 1.214-2.82 2.038-4.618 2.244v-1.831a6.02 6.02 0 003.344-1.695c1.07-1.099 1.752-2.587 1.752-4.258a6.39 6.39 0 00-.41-2.199l1.57-.916a7.936 7.936 0 010 6.228zm-9.418-5.38A3.171 3.171 0 0112 9.675c.819 0 1.638.298 2.252.94.637.618.933 1.442.933 2.267 0 .824-.296 1.648-.933 2.29A3.177 3.177 0 0112 16.11c-.819 0-1.638-.32-2.275-.939a3.313 3.313 0 01-.932-2.29c0-.824.318-1.648.932-2.266z" clip-rule="evenodd"/></svg>