<svg xmlns="http://www.w3.org/2000/svg" width="24" height="24" viewBox="0 0 24 24"><path fill-rule="evenodd" d="M15.218 12.406c.575-.56 1.51-1.217 2.729-1.217.743 0 1.418.249 1.977.567-.244-1.3-.81-3.045-2.118-4.386C16.43 5.959 14.477 5.243 12 5.243c-2.482 0-4.438.719-5.814 2.136-1.316 1.355-1.879 3.105-2.118 4.403.57-.33 1.253-.593 1.986-.593 1.167 0 2.12.673 2.711 1.232A4.822 4.822 0 0112 11.189c1.51 0 2.58.658 3.217 1.217zm-2.406-8.758c2.56.15 4.632 1.021 6.166 2.6 2.85 2.936 2.758 7.217 2.752 7.397a.81.81 0 01-1.44.487c-.01-.012-1.098-1.321-2.343-1.321-1.185 0-2.013 1.236-2.02 1.249a.811.811 0 01-.676.372h-.007a.81.81 0 01-.674-.36A3.228 3.228 0 0012 12.81a3.228 3.228 0 00-2.572 1.266.817.817 0 01-.665.353H8.76a.811.811 0 01-.664-.34c-.255-.354-1.122-1.28-2.041-1.28-.968 0-2.058.997-2.363 1.345a.81.81 0 01-1.42-.51c-.006-.18-.098-4.461 2.752-7.396 1.534-1.58 3.606-2.451 6.166-2.601V2.81a.81.81 0 011.622 0v.837zM8.217 19.703A2.3 2.3 0 0010.514 22a2.3 2.3 0 002.298-2.297v-5a.81.81 0 00-1.622 0v5a.676.676 0 01-1.351 0v-.27a.81.81 0 00-1.622 0v.27z" clip-rule="evenodd"/></svg>