<svg xmlns="http://www.w3.org/2000/svg" width="24" height="25" viewBox="0 0 24 25"><path fill-rule="evenodd" d="M20.903 9.47a.396.396 0 01-.396.396H18.36v1.907h2.148c.219 0 .396.178.396.396v.48a.396.396 0 01-.396.396H18.36v1.908h2.148c.219 0 .396.177.396.396v.48a.396.396 0 01-.396.396H18.36v.17a2.374 2.374 0 01-2.374 2.374h-.17v2.148a.396.396 0 01-.395.396h-.48a.396.396 0 01-.397-.396v-2.148h-1.907v2.148a.396.396 0 01-.396.396h-.48a.396.396 0 01-.396-.396v-2.148H9.456v2.148a.396.396 0 01-.396.396h-.48a.396.396 0 01-.396-.396v-2.148h-.17a2.374 2.374 0 01-2.374-2.374v-.17H3.492a.396.396 0 01-.396-.396v-.48c0-.219.177-.396.396-.396H5.64v-1.908H3.492a.396.396 0 01-.396-.395v-.481c0-.219.177-.396.396-.396H5.64V9.866H3.492a.396.396 0 01-.396-.396v-.48c0-.22.177-.396.396-.396H5.64v-.17A2.374 2.374 0 018.014 6.05h.17V3.902c0-.219.177-.396.395-.396h.48c.22 0 .397.177.397.396V6.05h1.908V3.902c0-.219.177-.396.395-.396h.48c.22 0 .396.177.396.396V6.05h1.908V3.902c0-.219.178-.396.396-.396h.48a.396.396 0 01.396.396V6.05h.17a2.374 2.374 0 012.374 2.374v.17h2.148c.219 0 .396.177.396.395v.48zm-4.918 8.033a1.11 1.11 0 001.108-1.108V8.424a1.11 1.11 0 00-1.108-1.108h-7.97a1.11 1.11 0 00-1.109 1.108v7.97a1.11 1.11 0 001.108 1.109h7.971zM8.962 8.528h6.074a.846.846 0 01.844.844v6.074a.846.846 0 01-.844.844H8.962a.846.846 0 01-.844-.844V9.372a.846.846 0 01.844-.844zm6.124 3.577v-2.022h-.169l-1.691-.006h.016-.158.142c-.065.003-.233.02-.262.05a.173.173 0 00-.05.121v.462a.17.17 0 00.17.172h.629L12.192 12.6a.085.085 0 01-.06.028.085.085 0 01-.063-.025l-.725-.735a.167.167 0 00-.238 0l-2.164 2.194a.173.173 0 000 .242l.362.367a.168.168 0 00.238 0l1.613-1.632a.1.1 0 01.143 0l.74.75a.168.168 0 00.246-.008l2.008-2.3v.623c0 .094.075.17.168.171h.457a.17.17 0 00.17-.171z" clip-rule="evenodd"/></svg>