<svg xmlns="http://www.w3.org/2000/svg" width="24" height="24" viewBox="0 0 24 24"><path fill-rule="evenodd" d="M11.52 18.972V22a11.96 11.96 0 01-1.372-.19l1.371-2.838zm.976.047l1.372 2.792a6.8 6.8 0 01-1.372.142v-2.934zM11.992 2C17.556 2 22 6.496 22 12.016c0 4.542-3.026 8.344-7.124 9.668l-2.049-4.305a1.14 1.14 0 00.347-.789c0-.63-.488-1.12-1.072-1.12-.141 0-.299.047-.44.095l3.277-1.909.394.631c.142.237.442.331.678.19l.883-.49a.497.497 0 00.189-.678L14.15 8.278c-.142-.237-.441-.331-.677-.19l-.93.49c-.237.094-.331.394-.19.63l.048.048.946 1.75c.157.237.047.537-.19.679-.094.047-.141.047-.236.047a.504.504 0 01-.441-.237l-.583-1.12-5.517 3.17a.5.5 0 00-.189.68l.347.583-3.325 1.908C2.44 15.36 2 13.688 2 11.984 2 6.464 6.492 1.97 11.992 2zm-.662 13.55c-.252.205-.441.536-.441.883s.142.631.3.884l-2.05 4.353a10.042 10.042 0 01-4.885-3.28l3.215-1.862.3.489c.141.236.44.331.677.19l2.884-1.657zM2.3 16.921a.47.47 0 01.677.142l.835 1.325a.471.471 0 01-.141.678c-.048.048-.142.048-.237.048a.504.504 0 01-.441-.237l-.835-1.325c-.158-.236-.048-.536.141-.63zm16.122-9.558c-.189 0-.535.93-.725 1.025-.204.095-1.182-.236-1.276-.047-.158.3.678.789.678 1.025 0 .237-.584 1.025-.395 1.167.237.19.978-.394 1.214-.347.3 0 .788.773.977.726.19-.095-.094-1.073.063-1.262.095-.142 1.025-.489.977-.678-.047-.205-1.071-.3-1.166-.394-.157-.095-.157-1.168-.347-1.215zm-6.95-3.675c-1.907 0-3.562.694-4.933 1.861l-.047.047v.048a.21.21 0 00.047.142c.047 0 .095-.048.095-.048a7.115 7.115 0 014.05-1.167c2.396 0 4.444 1.136 5.816 2.792a.524.524 0 00.44.237c.348 0 .584-.237.584-.537a.55.55 0 00-.142-.394l-.027-.027-.02-.02c-1.371-1.72-3.467-2.887-5.863-2.934z" clip-rule="evenodd"/></svg>