<svg xmlns="http://www.w3.org/2000/svg" width="24" height="24" viewBox="0 0 24 24"><path d="M12 18.552c.571 0 1.034.463 1.034 1.034v1.38a1.035 1.035 0 01-2.069 0v-1.38c0-.571.464-1.034 1.035-1.034zm-4.633-1.92a1.034 1.034 0 010 1.464l-.975.975a1.034 1.034 0 11-1.463-1.463l.975-.975a1.034 1.034 0 011.463 0zm10.729 0l.975.976a1.034 1.034 0 11-1.463 1.463l-.975-.975a1.034 1.034 0 111.463-1.463zM12 7.518a4.483 4.483 0 110 8.966 4.483 4.483 0 010-8.966zm0 2.07a2.414 2.414 0 100 4.827 2.414 2.414 0 000-4.828zm-7.586 1.379a1.035 1.035 0 010 2.069h-1.38a1.035 1.035 0 010-2.07h1.38zm16.552 0a1.035 1.035 0 010 2.069h-1.38a1.035 1.035 0 010-2.07h1.38zM6.391 4.929l.975.975a1.034 1.034 0 01-1.463 1.463l-.975-.975a1.034 1.034 0 011.463-1.463zm12.68 0a1.034 1.034 0 010 1.463l-.976.975a1.034 1.034 0 11-1.463-1.463l.975-.975a1.035 1.035 0 011.463 0zM12 2c.571 0 1.034.463 1.034 1.034v1.38a1.035 1.035 0 01-2.069 0v-1.38A1.037 1.037 0 0112 2z"/></svg>