<svg xmlns="http://www.w3.org/2000/svg" width="24" height="24" viewBox="0 0 24 24"><path fill-rule="evenodd" d="M22 12c0 5.523-4.477 10-10 10S2 17.523 2 12 6.477 2 12 2s10 4.477 10 10zm-10 8a7.984 7.984 0 006.19-2.931.126.126 0 00-.04.031c-.85-.65-1.8-1.163-2.85-1.538A9.745 9.745 0 0012 15c-1.15 0-2.25.187-3.3.562-1.05.375-2 .888-2.85 1.538a.143.143 0 00-.043-.035A7.984 7.984 0 0012 20zm-2.488-8.012C10.187 12.663 11.017 13 12 13c.983 0 1.813-.337 2.488-1.012S15.5 10.483 15.5 9.5c0-.983-.337-1.813-1.012-2.488S12.983 6 12 6c-.983 0-1.813.337-2.488 1.012S8.5 8.517 8.5 9.5c0 .983.337 1.813 1.012 2.488z" clip-rule="evenodd"/></svg>