<svg xmlns="http://www.w3.org/2000/svg" width="24" height="24" viewBox="0 0 24 24"><path fill-rule="evenodd" d="M16 6h4c.55 0 1.021.196 1.413.588.391.391.587.862.587 1.412v10a1.93 1.93 0 01-.587 1.413A1.928 1.928 0 0120 20H4c-.55 0-1.02-.196-1.412-.587A1.927 1.927 0 012 18V8c0-.55.196-1.02.588-1.412A1.923 1.923 0 014 6h4V4c0-.55.196-1.021.588-1.413A1.925 1.925 0 0110 2h4c.55 0 1.021.196 1.413.587.391.392.587.863.587 1.413v2zm-6-2v2h4V4h-4zM4.001 8.003l.002-.002L4.004 8h15.993l.002.002.001.001v9.994l-.001.002-.002.001H4.003v-.001L4 17.997V8.004h.001z" clip-rule="evenodd"/></svg>