<svg xmlns="http://www.w3.org/2000/svg" width="24" height="24" viewBox="0 0 24 24"><path d="M12 15a3 3 0 100-6 3 3 0 000 6z"/><path fill-rule="evenodd" d="M23 12s-4.373 8-11 8-11-8-11-8 4.373-8 11-8 11 8 11 8zm-2.437.12l.082-.12-.082-.12a19.777 19.777 0 00-2.02-2.494C16.757 7.527 14.5 6 12 6 9.501 6 7.243 7.527 5.457 9.386A19.765 19.765 0 003.355 12l.082.12c.47.686 1.155 1.594 2.02 2.494C7.243 16.473 9.5 18 12 18c2.499 0 4.757-1.527 6.543-3.386a19.85 19.85 0 002.02-2.494z" clip-rule="evenodd"/></svg>