<svg xmlns="http://www.w3.org/2000/svg" width="24" height="24" viewBox="0 0 24 24"><path d="M20 18h3v2h-3v3h-2v-3h-3v-2h3v-3h2v3z"/><path d="M12.5.67c3.666 2.935 6.172 7.347 6.47 12.33a5.97 5.97 0 00-3.462 1.122 13.94 13.94 0 00-.588-3.962c-1.02 1.37-2.85 2.22-4.62 2.58-1.76.36-2.81 1.5-2.81 3.12 0 1.74 1.44 3.14 3.22 3.14.841 0 1.631-.219 2.32-.6a5.977 5.977 0 00.549 3.172A7.998 7.998 0 013 14a13.763 13.763 0 013.23-8.89l-.03.36c0 2.06 1.56 3.73 3.63 3.73 2.059 0 3.41-1.67 3.41-3.73 0-2.15-.741-4.8-.741-4.8z"/></svg>