<svg xmlns="http://www.w3.org/2000/svg" width="24" height="24" viewBox="0 0 24 24"><path d="M12 2c1.383 0 2.684.262 3.9.787a10.106 10.106 0 013.175 2.138c.9.9 1.612 1.958 2.137 3.175A9.735 9.735 0 0122 12c0 .491-.034.971-.1 1.441a5.991 5.991 0 00-1.908-1.101c.004-.113.008-.226.008-.34 0-2.217-.78-4.104-2.338-5.663C16.104 4.779 14.217 4 12 4s-4.104.779-5.663 2.337C4.779 7.896 4 9.783 4 12s.779 4.104 2.337 5.663C7.896 19.221 9.783 20 12 20c.114 0 .227-.004.34-.008.248.706.625 1.35 1.101 1.907-.47.067-.95.101-1.441.101a9.735 9.735 0 01-3.9-.788 10.091 10.091 0 01-3.175-2.137c-.9-.9-1.612-1.958-2.137-3.175A9.734 9.734 0 012 12c0-1.383.263-2.684.788-3.9a10.092 10.092 0 012.137-3.175c.9-.9 1.958-1.613 3.175-2.138A9.745 9.745 0 0112 2z"/><path fill-rule="evenodd" d="M19.223 15.26c.19.085.371.19.539.311l1.327-.22.75 1.298-.855 1.04a3.053 3.053 0 010 .622l.855 1.04-.75 1.298-1.327-.22a2.996 2.996 0 01-.54.311L18.75 22h-1.5l-.473-1.26a2.996 2.996 0 01-.539-.311l-1.327.22-.75-1.298.855-1.04a3.053 3.053 0 010-.622l-.855-1.04.75-1.298 1.327.22a3 3 0 01.54-.311L17.25 14h1.5l.473 1.26zM18 17a1 1 0 100 2 1 1 0 000-2z" clip-rule="evenodd"/><path d="M13 12.4l-4.3 4.3-1.4-1.4 3.7-3.7V7h2v5.4z"/></svg>