<svg xmlns="http://www.w3.org/2000/svg" width="24" height="24" viewBox="0 0 24 24"><path fill-rule="evenodd" d="M12 14a2 2 0 100-4 2 2 0 000 4zm0 2a4 4 0 100-8 4 4 0 000 8z" clip-rule="evenodd"/><path fill-rule="evenodd" d="M19.5 11.662v.676c0 .108-.008.22-.025.337l2.575 1.95-2.75 4.75-2.975-1.25c-.183.133-.37.258-.562.375a3.807 3.807 0 01-.613.3l-.4 3.2h-5.5l-.4-3.2c-.2-.083-.4-.183-.6-.3a6.83 6.83 0 01-.575-.375L4.7 19.375l-2.75-4.75 2.575-1.95a2.384 2.384 0 01-.025-.337v-.676c0-.108.009-.22.025-.337L1.95 9.375l2.75-4.75 2.975 1.25c.184-.133.375-.258.575-.375.2-.117.4-.217.6-.3l.4-3.2h5.5l.4 3.2c.217.083.421.183.613.3.191.117.379.242.562.375l2.975-1.25 2.75 4.75-2.575 1.95c.017.117.025.229.025.337zm-13 .676c0 .005 0 .023.005.054l.167 1.166-2.105 1.594.982 1.697 2.39-1.005.913.664c.127.093.263.18.406.264.128.075.249.135.361.182l1.072.446.325 2.6h1.969l.33-2.637 1.117-.43a1.81 1.81 0 00.291-.142 5.73 5.73 0 00.426-.284l.912-.663 2.39 1.005.983-1.697-2.105-1.594.166-1.166a.402.402 0 00.005-.054v-.676c0-.005 0-.023-.005-.054l-.166-1.166 2.105-1.594-.982-1.697-2.391 1.005-.912-.664a6.316 6.316 0 00-.425-.283 1.812 1.812 0 00-.292-.142l-1.118-.43L12.984 4h-1.968l-.325 2.6-1.072.446a3.039 3.039 0 00-.361.182 4.811 4.811 0 00-.406.264l-.912.664L5.549 7.15l-.982 1.697 2.105 1.594-.167 1.166a.405.405 0 00-.005.054v.676z" clip-rule="evenodd"/></svg>