<svg xmlns="http://www.w3.org/2000/svg" width="24" height="24" viewBox="0 0 24 24"><path d="M5 21a1.93 1.93 0 01-1.413-.587A1.928 1.928 0 013 19v-4h2v4h4v2H5zm10 0v-2h4v-4h2v4a1.93 1.93 0 01-.587 1.413A1.928 1.928 0 0119 21h-4zm-3-6a2.893 2.893 0 01-2.125-.875A2.893 2.893 0 019 12c0-.833.292-1.542.875-2.125A2.893 2.893 0 0112 9c.833 0 1.542.292 2.125.875S15 11.167 15 12s-.292 1.542-.875 2.125A2.893 2.893 0 0112 15zM3 9V5c0-.55.196-1.021.587-1.413A1.928 1.928 0 015 3h4v2H5v4H3zm16 0V5h-4V3h4c.55 0 1.021.196 1.413.587.391.392.587.863.587 1.413v4h-2z"/></svg>