<svg xmlns="http://www.w3.org/2000/svg" width="24" height="25" viewBox="0 0 24 25"><path fill-rule="evenodd" d="M16 6.41h4c.55 0 1.021.195 1.413.587.391.391.587.862.587 1.412v11a1.93 1.93 0 01-.587 1.413A1.928 1.928 0 0120 21.41H4c-.55 0-1.02-.196-1.412-.587A1.927 1.927 0 012 19.41v-11c0-.55.196-1.02.588-1.412A1.923 1.923 0 014 6.41h4v-2c0-.55.196-1.02.588-1.413A1.925 1.925 0 0110 2.41h4c.55 0 1.021.196 1.413.587.391.392.587.863.587 1.413v2zm-6-2v2h4v-2h-4zM4.001 8.411l.002-.002h15.994l.002.001.001.001v10.995h-.001l-.002.002H4.003v-.001L4 19.406V8.413h.001z" clip-rule="evenodd"/></svg>