<svg xmlns="http://www.w3.org/2000/svg" width="24" height="25" viewBox="0 0 24 25"><path fill-rule="evenodd" d="M22 12.41c0 5.522-4.477 10-10 10s-10-4.478-10-10c0-5.524 4.477-10 10-10s10 4.476 10 10zm-10 8a7.984 7.984 0 006.19-2.932.124.124 0 00-.04.031c-.85-.65-1.8-1.163-2.85-1.538a9.745 9.745 0 00-3.3-.562c-1.15 0-2.25.187-3.3.562-1.05.375-2 .888-2.85 1.538a.143.143 0 00-.043-.035A7.984 7.984 0 0012 20.409zm-2.488-8.013c.675.675 1.505 1.012 2.488 1.012.983 0 1.813-.337 2.488-1.012S15.5 10.892 15.5 9.91c0-.983-.337-1.813-1.012-2.488S12.983 6.41 12 6.41c-.983 0-1.813.337-2.488 1.012S8.5 8.926 8.5 9.91c0 .983.337 1.813 1.012 2.488z" clip-rule="evenodd"/></svg>