<svg xmlns="http://www.w3.org/2000/svg" width="24" height="25" viewBox="0 0 24 25"><path d="M21 7.41v12c0 .55-.196 1.02-.587 1.412A1.928 1.928 0 0119 21.41H5a1.93 1.93 0 01-1.413-.587A1.928 1.928 0 013 19.41v-14c0-.55.196-1.02.587-1.413A1.928 1.928 0 015 3.41h12l4 4zm-9 11c.833 0 1.542-.293 2.125-.876A2.893 2.893 0 0015 15.41c0-.833-.292-1.542-.875-2.125A2.893 2.893 0 0012 12.41c-.833 0-1.542.292-2.125.875A2.893 2.893 0 009 15.41c0 .833.292 1.542.875 2.125A2.893 2.893 0 0012 18.41zm-6-8h9v-4H6v4z"/></svg>