<svg xmlns="http://www.w3.org/2000/svg" width="24" height="25" viewBox="0 0 24 25"><path d="M18 22.41a2.893 2.893 0 01-2.125-.876A2.893 2.893 0 0115 19.41c0-.117.008-.238.025-.363s.042-.237.075-.337l-7.05-4.1c-.283.25-.6.446-.95.587a2.9 2.9 0 01-1.1.213 2.893 2.893 0 01-2.125-.875A2.893 2.893 0 013 12.41c0-.833.292-1.542.875-2.125A2.893 2.893 0 016 9.41c.383 0 .75.07 1.1.212.35.142.667.338.95.588l7.05-4.1a1.843 1.843 0 01-.075-.337A2.75 2.75 0 0115 5.41c0-.833.292-1.542.875-2.125A2.893 2.893 0 0118 2.41c.833 0 1.542.292 2.125.875S21 4.576 21 5.41s-.292 1.542-.875 2.125A2.893 2.893 0 0118 8.41c-.383 0-.75-.07-1.1-.213a3.284 3.284 0 01-.95-.587l-7.05 4.1c.033.1.058.212.075.337a2.753 2.753 0 010 .725 1.838 1.838 0 01-.075.338l7.05 4.1c.283-.25.6-.446.95-.588a2.91 2.91 0 011.1-.212c.833 0 1.542.292 2.125.875S21 18.576 21 19.41s-.292 1.542-.875 2.125A2.893 2.893 0 0118 22.41z"/></svg>