<svg xmlns="http://www.w3.org/2000/svg" width="24" height="25" viewBox="0 0 24 25"><path d="M12 21.41c-2.3 0-4.304-.764-6.012-2.289C4.279 17.596 3.3 15.692 3.05 13.41H5.1c.233 1.733 1.004 3.167 2.312 4.3 1.309 1.133 2.838 1.7 4.588 1.7 1.95 0 3.604-.68 4.962-2.038C18.321 16.013 19 14.36 19 12.41c0-1.95-.68-3.604-2.038-4.963C15.604 6.088 13.95 5.41 12 5.41a6.75 6.75 0 00-3.225.8 7.431 7.431 0 00-2.525 2.2H9v2H3v-6h2v2.35a8.73 8.73 0 013.113-2.475A8.927 8.927 0 0112 3.41a8.71 8.71 0 013.513.712 9.168 9.168 0 012.85 1.925 9.167 9.167 0 011.925 2.85A8.716 8.716 0 0121 12.41c0 1.25-.237 2.42-.712 3.512a9.151 9.151 0 01-1.925 2.85 9.162 9.162 0 01-2.85 1.926A8.717 8.717 0 0112 21.41zm2.8-4.8l-3.8-3.8v-5.4h2v4.6l3.2 3.2-1.4 1.4z"/></svg>