<svg xmlns="http://www.w3.org/2000/svg" width="24" height="24" viewBox="0 0 24 24"><path d="M15.3 16.7l1.4-1.4-3.7-3.7V7h-2v5.4l4.3 4.3zM12 22a9.733 9.733 0 01-3.9-.788 10.092 10.092 0 01-3.175-2.137c-.9-.9-1.612-1.958-2.137-3.175A9.733 9.733 0 012 12a9.74 9.74 0 01.788-3.9 10.092 10.092 0 012.137-3.175c.9-.9 1.958-1.613 3.175-2.138A9.743 9.743 0 0112 2a9.74 9.74 0 013.9.787 10.105 10.105 0 013.175 2.138c.9.9 1.612 1.958 2.137 3.175A9.733 9.733 0 0122 12a9.733 9.733 0 01-.788 3.9 10.092 10.092 0 01-2.137 3.175c-.9.9-1.958 1.612-3.175 2.137A9.733 9.733 0 0112 22zm0-2c2.217 0 4.104-.779 5.663-2.337C19.221 16.104 20 14.217 20 12s-.779-4.104-2.337-5.663C16.104 4.779 14.217 4 12 4s-4.104.779-5.662 2.337C4.779 7.896 4 9.783 4 12s.78 4.104 2.338 5.663C7.896 19.221 9.783 20 12 20z"/></svg>