<svg xmlns="http://www.w3.org/2000/svg" width="24" height="24" viewBox="0 0 24 24"><path d="M12 3c5.523 0 10 4.477 10 10a9.98 9.98 0 01-.567 3.324l-1.7-1.275c.09-.341.157-.692.203-1.049H18v-2h1.936a7.956 7.956 0 00-1.618-3.904L16.95 9.465 15.535 8.05l1.368-1.37A7.957 7.957 0 0013 5.064V7h-2V5.063a7.958 7.958 0 00-3.904 1.618L8.465 8.05 7.05 9.465l-1.37-1.37A7.957 7.957 0 004.065 12H6v2H4.063a7.979 7.979 0 002.65 5H15l2.666 2H5.999A9.985 9.985 0 012 13C2 7.477 6.477 3 12 3z"/><path d="M12 11a2 2 0 011.983 2.238L20.6 18.2l-1.2 1.6-6.615-4.961A2 2 0 1112 11z"/></svg>