<svg xmlns="http://www.w3.org/2000/svg" width="24" height="24" viewBox="0 0 24 24"><path fill-rule="evenodd" d="M12 3c5.523 0 10 4.477 10 10a9.985 9.985 0 01-3.999 8H5.999A9.985 9.985 0 012 13C2 7.477 6.477 3 12 3zm0 8a2 2 0 10.785 3.839l5.365 4.023a8.53 8.53 0 001.202-1.598l-5.369-4.026c.01-.078.017-.157.017-.238a2 2 0 00-2-2zm-8.44 1a8.69 8.69 0 00-.06 1c0 .338.022.672.06 1H6v-2H3.56zM18 12v2h2.44a8.69 8.69 0 00.06-1 8.69 8.69 0 00-.06-1H18zM6.74 6.325c-.526.415-1 .89-1.415 1.414L7.05 9.465 8.465 8.05 6.739 6.325zm8.795 1.725l1.415 1.415 1.724-1.726c-.415-.525-.89-1-1.414-1.414L15.535 8.05zM12 4.5a8.47 8.47 0 00-1 .06V7h2V4.56a8.584 8.584 0 00-1-.06z" clip-rule="evenodd"/></svg>