<svg xmlns="http://www.w3.org/2000/svg" width="24" height="25" viewBox="0 0 24 25"><path fill-rule="evenodd" d="M12 11.41a1 1 0 100-2.001 1 1 0 000 2zm0 2a3 3 0 100-6 3 3 0 000 6z" clip-rule="evenodd"/><path d="M12 19.76c2.033-1.868 3.542-3.564 4.525-5.089C17.508 13.146 18 11.792 18 10.61c0-1.817-.58-3.304-1.738-4.463C15.104 4.988 13.683 4.41 12 4.41c-1.683 0-3.104.58-4.263 1.737C6.579 7.305 6 8.792 6 10.61c0 1.183.492 2.537 1.475 4.062.983 1.525 2.492 3.221 4.525 5.088zm0 2.65c-2.683-2.284-4.687-4.405-6.012-6.364C4.663 14.088 4 12.276 4 10.61c0-2.5.804-4.492 2.413-5.975C8.021 3.151 9.883 2.41 12 2.41c2.117 0 3.979.742 5.587 2.225C19.196 6.117 20 8.11 20 10.61c0 1.667-.662 3.48-1.987 5.437-1.325 1.959-3.33 4.08-6.013 6.363z"/></svg>