<svg xmlns="http://www.w3.org/2000/svg" width="24" height="24" viewBox="0 0 24 24"><path d="M9.25 22l-.4-3.2a3.771 3.771 0 01-.612-.3 8.194 8.194 0 01-.563-.375L4.7 19.375l-2.75-4.75 2.575-1.95a2.39 2.39 0 01-.025-.338v-.675c0-.108.009-.22.025-.337L1.95 9.375l2.75-4.75 2.975 1.25c.184-.133.375-.258.575-.375.2-.117.4-.217.6-.3l.4-3.2h5.5l.4 3.2c.217.083.421.183.613.3.191.117.379.242.562.375l2.975-1.25 2.75 4.75-2.575 1.95c.017.117.025.229.025.337v.675c0 .109-.017.221-.05.338l2.575 1.95-2.75 4.75-2.95-1.25a6.826 6.826 0 01-.575.375c-.2.117-.4.217-.6.3l-.4 3.2h-5.5zm2.8-6.5c.967 0 1.792-.342 2.475-1.025A3.372 3.372 0 0015.55 12c0-.967-.341-1.792-1.025-2.475A3.372 3.372 0 0012.05 8.5c-.983 0-1.813.342-2.488 1.025A3.394 3.394 0 008.55 12c0 .967.338 1.792 1.012 2.475.676.683 1.505 1.025 2.488 1.025z"/></svg>