<svg xmlns="http://www.w3.org/2000/svg" width="24" height="24" viewBox="0 0 24 24"><path d="M9 20c-.55 0-1.02-.196-1.412-.587A1.927 1.927 0 017 18c0-.55.196-1.021.588-1.413A1.925 1.925 0 019 16c.55 0 1.021.196 1.413.587.391.392.587.863.587 1.413s-.196 1.021-.587 1.413A1.928 1.928 0 019 20zm6 0c-.55 0-1.02-.196-1.412-.587A1.927 1.927 0 0113 18c0-.55.196-1.021.588-1.413A1.925 1.925 0 0115 16c.55 0 1.021.196 1.413.587.391.392.587.863.587 1.413s-.196 1.021-.587 1.413A1.928 1.928 0 0115 20zm-6-6c-.55 0-1.02-.196-1.412-.588A1.923 1.923 0 017 12c0-.55.196-1.021.588-1.413A1.925 1.925 0 019 10c.55 0 1.021.196 1.413.587.391.392.587.863.587 1.413s-.196 1.02-.587 1.412A1.927 1.927 0 019 14zm6 0c-.55 0-1.02-.196-1.412-.588A1.923 1.923 0 0113 12c0-.55.196-1.021.588-1.413A1.925 1.925 0 0115 10c.55 0 1.021.196 1.413.587.391.392.587.863.587 1.413s-.196 1.02-.587 1.412A1.927 1.927 0 0115 14zM9 8c-.55 0-1.02-.196-1.412-.588A1.923 1.923 0 017 6c0-.55.196-1.02.588-1.412A1.923 1.923 0 019 4c.55 0 1.021.196 1.413.588.391.391.587.862.587 1.412 0 .55-.196 1.02-.587 1.412A1.927 1.927 0 019 8zm6 0c-.55 0-1.02-.196-1.412-.588A1.923 1.923 0 0113 6c0-.55.196-1.02.588-1.412A1.923 1.923 0 0115 4c.55 0 1.021.196 1.413.588.391.391.587.862.587 1.412 0 .55-.196 1.02-.587 1.412A1.927 1.927 0 0115 8z"/></svg>