<svg xmlns="http://www.w3.org/2000/svg" width="24" height="24" viewBox="0 0 24 24"><path d="M17.703 9.532l-.002.008-.21.633c-.131.39-.066.823.172 1.153l.145.205.729 1.014.43.6-.112.028a1.2 1.2 0 00-.454.214 1.262 1.262 0 00-.523 1.028v3.162l.028.28.192 1.813h-4.186a.926.926 0 01-.902-.712.51.51 0 01-.028-.12l-.962.311-1.056.34c.033.14.075.28.131.414a3.247 3.247 0 002.34 2.014 3.256 3.256 0 00.71.079h4.21c.067 0 .137-.004.202-.011l.026-.003h.005a2.11 2.11 0 001.586-1.037l.035-.06a2.61 2.61 0 00.117-.261c.08-.228.126-.47.126-.721 0-.056 0-.107-.01-.163l-.009-.107v-.051a.118.118 0 00-.004-.019l-.215-2.046v-2.288l.817-.205c.416-.102.748-.4.893-.8h-.005c.15-.396.089-.837-.159-1.181h.005l-1.551-2.166v-.007l-.337-.465.238-.702a9.116 9.116 0 00-9.006-7.707C6.087 1.996 2 6.066 2 11.066a9.69 9.69 0 00.045.886h1.592a7.388 7.388 0 01.003-.421c.116-3.647 2.896-6.651 6.455-7.135.22-.033.44-.056.664-.065.117-.005.233-.01.35-.01.117 0 .234.005.346.01h.037a6.166 6.166 0 01.766.088 6.767 6.767 0 015.445 5.113z"/><path d="M10.888 6.421l1.009 1.841c.36.665.915 1.216 1.587 1.58l1.849 1.004-1.85 1.004c-.667.36-1.22.911-1.586 1.58l-1.009 1.841-1.008-1.84a3.946 3.946 0 00-1.587-1.58l-1.849-1.005 1.849-1.004a3.946 3.946 0 001.587-1.58l1.008-1.84zm-3.814 8.341l-.63-1.15-.63 1.15a2.466 2.466 0 01-.992.988l-1.156.628 1.156.627c.42.228.766.572.992.988l.63 1.15.63-1.15c.23-.419.575-.763.992-.988l1.156-.627-1.156-.628a2.466 2.466 0 01-.992-.988z"/></svg>