<svg xmlns="http://www.w3.org/2000/svg" width="24" height="24" viewBox="0 0 24 24"><path d="M17.701 9.544l.002-.007a6.767 6.767 0 00-5.445-5.114 6.158 6.158 0 00-.766-.088h-.037a8.35 8.35 0 00-.346-.01c-.117 0-.233.005-.35.01-.224.01-.444.032-.664.065-3.56.484-6.339 3.488-6.455 7.135-.005.079-.005.153-.005.232 0 .064 0 .127.002.19H2.045a9.03 9.03 0 01-.031-.422A7.619 7.619 0 012 11.07C2 6.07 6.087 2 11.11 2a9.116 9.116 0 019.006 7.707l-.239.702.337.465v.007l1.551 2.165h-.004c.247.345.308.787.158 1.182h.005c-.145.4-.476.698-.892.8l-.818.205v2.288l.215 2.046s.005.014.005.019v.051l.01.107a.99.99 0 01.009.163c0 .251-.047.493-.127.72a2.622 2.622 0 01-.116.261l-.035.06-.018.032-.017.03a2.109 2.109 0 01-1.55.977l-.006-.001-.029.003a1.807 1.807 0 01-.2.011h-4.237a3.26 3.26 0 01-.682-.08 3.247 3.247 0 01-2.34-2.013 2.652 2.652 0 01-.131-.414l1.055-.34.963-.311a.505.505 0 00.028.12.926.926 0 00.901.712h4.186l-.191-1.814-.028-.279V14.42c0-.419.2-.796.523-1.028.13-.103.285-.172.453-.214l.112-.028-.43-.6-.728-1.014-.145-.205a1.283 1.283 0 01-.173-1.153l.21-.633z"/><path d="M11.897 9.372l-1.008-1.84-1.009 1.84a3.944 3.944 0 01-1.587 1.58l-1.849 1.005 1.85 1.004a3.946 3.946 0 011.586 1.58l1.009 1.84 1.008-1.84c.366-.67.92-1.221 1.587-1.58l1.849-1.005-1.849-1.004a3.947 3.947 0 01-1.587-1.58z"/></svg>