<svg xmlns="http://www.w3.org/2000/svg" width="24" height="24" viewBox="0 0 24 24"><path d="M19.95 21c-2.15 0-4.246-.48-6.287-1.438a19.045 19.045 0 01-5.425-3.8 19.045 19.045 0 01-3.8-5.425C3.479 8.296 3 6.2 3 4.05c0-.3.1-.55.3-.75.2-.2.45-.3.75-.3H8.1a.96.96 0 01.625.225.88.88 0 01.325.575l.65 3.5c.033.233.03.446-.012.637a1.027 1.027 0 01-.288.513L7 10.9c.7 1.2 1.575 2.325 2.625 3.375A18.293 18.293 0 0013.1 17l2.35-2.35a1.4 1.4 0 01.588-.338c.241-.075.479-.095.712-.062l3.45.7c.233.05.425.162.575.337.15.175.225.38.225.613v4.05c0 .3-.1.55-.3.75-.2.2-.45.3-.75.3z"/></svg>