<svg xmlns="http://www.w3.org/2000/svg" width="24" height="24" viewBox="0 0 24 24"><path fill-rule="evenodd" d="M7.463 21.275c.041.11.088.207.142.292.044.07.092.13.145.183L9 23l7-7V3H6c-.383 0-.75.117-1.1.35-.35.233-.6.517-.75.85l-3 7.05A2.014 2.014 0 001 12v2c0 .533.2 1 .6 1.4.4.4.867.6 1.4.6h5.45l-1.1 4.35v.35c0 .183.038.375.113.575zm2.15-1.716L11.02 14H3.03a.553.553 0 01-.03-.029v-1.956l.001-.008L5.962 5.05a.5.5 0 01.07-.05H14v10.172l-4.387 4.386zM18 16h4V3h-4v13z" clip-rule="evenodd"/></svg>