<svg xmlns="http://www.w3.org/2000/svg" width="24" height="24" viewBox="0 0 24 24"><path fill-rule="evenodd" d="M16.65 3.65V3.3c0-.183-.037-.375-.112-.575a1.588 1.588 0 00-.143-.292 1.066 1.066 0 00-.145-.183L15 1 8 8v13h10c.383 0 .75-.117 1.1-.35.35-.233.6-.517.75-.85l3-7.05A2.017 2.017 0 0023 12v-2c0-.533-.2-1-.6-1.4-.4-.4-.867-.6-1.4-.6h-5.45l1.1-4.35zm1.388 15.3l2.96-6.957.002-.008v-1.956a.555.555 0 00-.029-.029h-7.99l1.406-5.558L10 8.828V19h7.968a.514.514 0 00.07-.05zM6 8H2v13h4V8z" clip-rule="evenodd"/></svg>