<svg xmlns="http://www.w3.org/2000/svg" width="24" height="24" viewBox="0 0 24 24"><path d="M15.05 4.725l4.25 4.2L20.725 7.5a1.81 1.81 0 00.55-1.387 1.983 1.983 0 00-.6-1.388l-1.4-1.4a1.92 1.92 0 00-1.412-.575 1.92 1.92 0 00-1.413.575l-1.4 1.4z"/><path fill-rule="evenodd" d="M19.3 8.925L20.725 7.5a1.81 1.81 0 00.55-1.387 1.983 1.983 0 00-.6-1.388l-1.4-1.4a1.92 1.92 0 00-1.412-.575 1.92 1.92 0 00-1.399.56l-.014.015-1.4 1.4 4.25 4.2zM17.85 10.4L7.25 21H3v-4.25l10.6-10.6 4.25 4.25zM13.6 8.978l1.422 1.422-8.6 8.6H5v-1.422l8.6-8.6z" clip-rule="evenodd"/></svg>