<svg xmlns="http://www.w3.org/2000/svg" width="24" height="24" viewBox="0 0 24 24"><path d="M7.1 4c.233 0 .441.075.625.225a.88.88 0 01.325.575l.65 3.5c.034.233.03.445-.012.637a1.03 1.03 0 01-.288.513L6 11.9a16.61 16.61 0 002.625 3.375A18.295 18.295 0 0012.1 18l2.35-2.35a1.4 1.4 0 01.588-.338c.241-.075.479-.095.712-.062l3.45.7c.233.05.425.163.575.337.15.175.225.38.225.613v4.05c0 .3-.1.55-.3.75-.2.2-.45.3-.75.3-2.15 0-4.246-.48-6.287-1.439a19.043 19.043 0 01-5.425-3.8 19.042 19.042 0 01-3.8-5.424C2.48 9.296 2 7.2 2 5.05c0-.3.1-.55.3-.75.2-.2.45-.3.75-.3H7.1z"/><path fill-rule="evenodd" d="M17 2a5 5 0 110 10 5 5 0 010-10zm-.5 5.207l2.146 2.147.707-.708L17.5 6.793V4.5h-1v2.707z" clip-rule="evenodd"/></svg>