<svg xmlns="http://www.w3.org/2000/svg" width="24" height="24" viewBox="0 0 24 24"><path d="M7.964 5.765l.005.007 1.616 2.389h5.72c.18 0 .35.045.5.123a1.1 1.1 0 01.752.78l.001.004 1.405 5.424a1.119 1.119 0 01-.767 1.364 1.076 1.076 0 01-1.323-.78l-.001-.004-.285-1.097-1.371 7.098A1.11 1.11 0 0113.13 22h-1.416a1.11 1.11 0 01-1.084-.92L8.585 10.587l-2.39-3.53A1.14 1.14 0 016.464 5.5a1.06 1.06 0 011.501.265zM12.155 2c1.345 0 2.436 1.128 2.436 2.52 0 1.391-1.09 2.52-2.436 2.52-1.345 0-2.436-1.129-2.436-2.52C9.72 3.128 10.81 2 12.155 2z"/></svg>