<svg xmlns="http://www.w3.org/2000/svg" width="24" height="25" viewBox="0 0 24 25"><path fill-rule="evenodd" d="M18 17.41v-2h2v2h2v2h-2v2h-2v-2h-2v-2h2zm-7-2c-4.42 0-8-1.79-8-4v-3c0 2.21 3.58 4 8 4s8-1.79 8-4v4c-1.995.082-3.992 1.145-5.02 2.713-.921.184-1.927.286-2.98.286zm2.108 1.859a6.034 6.034 0 00.178 2.975c-.724.107-1.492.165-2.286.165-4.42 0-8-1.79-8-4v-3c0 2.21 3.58 4 8 4 .73 0 1.437-.049 2.108-.14zM11 2.409c4.42 0 8 1.79 8 4s-3.58 4-8 4-8-1.79-8-4 3.58-4 8-4z" clip-rule="evenodd"/></svg>