<svg xmlns="http://www.w3.org/2000/svg" width="24" height="24" viewBox="0 0 24 24"><path fill-rule="evenodd" d="M12 22a1.54 1.54 0 01-1.13-.47 1.541 1.541 0 01-.47-1.13h3.2c0 .44-.157.817-.47 1.13-.313.313-.69.47-1.13.47zm-5.19-7a6.113 6.113 0 001.99 2.076V18.8h6.4v-1.724A6.12 6.12 0 0017.19 15c.54-.92.81-1.92.81-3 0-1.667-.584-3.083-1.75-4.25C15.083 6.583 13.667 6 12 6c-1.667 0-3.083.583-4.25 1.75C6.583 8.917 6 10.333 6 12c0 1.08.27 2.08.81 3zM12 17h-.75v-3.2H9L12 9h.75v3.2H15L12 17z" clip-rule="evenodd"/><path d="M11.5 2h1v3h-1V2zm6.621 2l.707.707-2.121 2.121L16 6.121 18.12 4zM5.707 4L5 4.707l2.12 2.121.707-.707L5.707 4z"/></svg>