<svg xmlns="http://www.w3.org/2000/svg" width="24" height="25" viewBox="0 0 24 25"><g clip-path="url(#a)"><path fill-rule="evenodd" d="M7.172 5.41L11.248.75l1.505 1.318-2.157 2.466a8 8 0 016.352 1.588L20 3.41l1.329 1.495-2.975 2.644a8 8 0 01.721 8.597l-1.769-.934a6 6 0 00-.452-6.33l-8.926 7.935a5.999 5.999 0 004.632 1.567l-2.267-2.267 1.414-1.414 4.707 4.707-4.707 4.707-1.414-1.414 2.316-2.316a8.001 8.001 0 01-6.181-2.237l-3.1 2.755L2 19.409l3.177-2.824a8 8 0 01-.24-7.932l1.765.94a6 6 0 00.002 5.635L15.42 7.48a6 6 0 00-4.612-.951l1.944 2.222-1.505 1.317-4.076-4.659zm2.672.016l-.008-.024-.007.007.015.017z" clip-rule="evenodd"/></g><defs><clipPath id="a"><path d="M0 .41h24v24H0z"/></clipPath></defs></svg>