<svg xmlns="http://www.w3.org/2000/svg" width="24" height="24" viewBox="0 0 24 24"><path fill-rule="evenodd" d="M17.855 18L16 16.145 17.145 15 19 16.855 20.855 15 22 16.145 20.145 18 22 19.855 20.855 21 19 19.145 17.145 21 16 19.855 17.855 18zM11 15c-4.42 0-8-1.79-8-4V8c0 2.21 3.58 4 8 4s8-1.79 8-4v4c-1.995.083-3.992 1.146-5.02 2.714-.921.184-1.927.286-2.98.286zm2.108 1.86a6.032 6.032 0 00.178 2.974A15.54 15.54 0 0111 20c-4.42 0-8-1.79-8-4v-3c0 2.21 3.58 4 8 4 .73 0 1.437-.049 2.108-.14zM11 2c4.42 0 8 1.79 8 4s-3.58 4-8 4-8-1.79-8-4 3.58-4 8-4z" clip-rule="evenodd"/></svg>