<svg xmlns="http://www.w3.org/2000/svg" width="24" height="24" viewBox="0 0 24 24"><path fill-rule="evenodd" d="M7.04 9.89L4.93 12A5 5 0 0012 19.07l2.111-2.11 5.69 5.69 1.4-1.4L2.8 2.85l-1.4 1.4 5.64 5.64zm1.414 1.413l1.414 1.415-2.11 2.11 1.414 1.415 2.11-2.111 1.415 1.414-2.11 2.11a3 3 0 11-4.243-4.242l2.11-2.11z" clip-rule="evenodd"/><path d="M17.657 6.343a3 3 0 00-4.243 0l-2.12 2.121L9.878 7.05 12 4.928A5 5 0 0119.071 12l-2.121 2.122-1.414-1.414 2.121-2.122a3 3 0 000-4.242z"/><path d="M14.829 7.757l-2.11 2.11 1.414 1.415 2.11-2.11-1.414-1.415z"/></svg>