<svg xmlns="http://www.w3.org/2000/svg" width="24" height="25" viewBox="0 0 24 25"><path d="M22.5 15.41c0-1.25-.237-2.422-.712-3.514a9.157 9.157 0 00-1.926-2.85 9.152 9.152 0 00-2.85-1.925A8.709 8.709 0 0013.5 6.41a8.71 8.71 0 00-3.513.712 9.167 9.167 0 00-2.85 1.925 9.153 9.153 0 00-1.924 2.85A8.705 8.705 0 004.5 15.41v.15l-1.55-1.55-1.45 1.4 4 4 4-4-1.45-1.4-1.55 1.55v-.15c0-1.95.679-3.604 2.037-4.962C9.896 9.088 11.55 8.41 13.5 8.41c1.95 0 3.604.68 4.962 2.038 1.359 1.358 2.038 3.012 2.038 4.962h2z"/></svg>