<svg xmlns="http://www.w3.org/2000/svg" width="24" height="24" viewBox="0 0 24 24"><path d="M18.364 10h-4.546v1.364h4.546V10zm-4.546 3.182h4.546v1.364h-4.546v-1.364zm-3.408-2.5a1.59 1.59 0 11-3.182 0 1.59 1.59 0 013.181 0zM5.636 14.66c0-1.059 2.12-1.592 3.182-1.592 1.062 0 3.182.533 3.182 1.591v.795H5.636v-.795z"/><path fill-rule="evenodd" d="M3.818 5A1.818 1.818 0 002 6.818v10.91c0 1.003.814 1.817 1.818 1.817h16.364A1.818 1.818 0 0022 17.727V6.818A1.818 1.818 0 0020.182 5H3.818zm16.364 1.364H3.818a.455.455 0 00-.454.454v10.91c0 .25.203.454.454.454h16.364a.455.455 0 00.454-.455V6.818a.455.455 0 00-.454-.454z" clip-rule="evenodd"/></svg>