<svg xmlns="http://www.w3.org/2000/svg" width="24" height="25" viewBox="0 0 24 25"><path fill-rule="evenodd" d="M17.943 19.766A7.979 7.979 0 0112 22.41c-4.42 0-8-3.58-8-8 0-2.47.646-4.795 1.782-6.804l-3.49-3.489 1.415-1.414 18 18-1.414 1.414-2.35-2.35zm-6.622-6.621l-.021.004c-1.76.36-2.81 1.5-2.81 3.12 0 1.74 1.44 3.14 3.22 3.14 1.6 0 3.017-.783 3.889-1.987l-4.278-4.277z" clip-rule="evenodd"/><path d="M20 14.41c0 .785-.113 1.544-.324 2.261l-3.212-3.212a13.82 13.82 0 00-.544-2.89c-.325.437-.732.82-1.194 1.152l-2.433-2.433c1.212-.582 1.947-1.89 1.947-3.409 0-2.15-.74-4.8-.74-4.8C17.41 4.21 20 9.02 20 14.41z"/></svg>