<svg xmlns="http://www.w3.org/2000/svg" width="24" height="25" viewBox="0 0 24 25"><path d="M19.25 16.859l-1.5-1.55a3.05 3.05 0 001.625-1.063A2.867 2.867 0 0020 12.409c0-.834-.292-1.542-.875-2.125A2.893 2.893 0 0017 9.409h-4v-2h4c1.383 0 2.563.487 3.538 1.462.975.975 1.462 2.154 1.462 3.538 0 .95-.246 1.825-.737 2.625a4.79 4.79 0 01-2.013 1.825zm-3.4-3.45l-2-2H16v2h-.15zm3.95 9.6L1.4 4.609l1.4-1.4 18.4 18.4-1.4 1.4zm-8.8-5.6H7c-1.383 0-2.562-.488-3.537-1.463C2.488 14.97 2 13.792 2 12.409c0-1.15.35-2.175 1.05-3.075.7-.9 1.6-1.492 2.7-1.775l1.85 1.85H7c-.833 0-1.542.292-2.125.875A2.893 2.893 0 004 12.409c0 .833.292 1.541.875 2.125A2.893 2.893 0 007 15.409h4v2zm-3-4v-2h1.625l1.975 2H8z"/></svg>