<svg xmlns="http://www.w3.org/2000/svg" width="24" height="24" viewBox="0 0 24 24"><path d="M10.656 16l2.594-9h.869l-2.594 9h-.869zM4 15.107V8.101h1.325l2.271 3.942.746 1.49h.045c-.03-.358-.067-.747-.111-1.168a13.927 13.927 0 01-.056-1.222V8.101h1.236v7.006H8.131l-2.272-3.942-.746-1.49H5.07c.03.372.063.761.1 1.168.045.408.067.807.067 1.2v3.064H4z"/><path fill-rule="evenodd" d="M16.114 8.101l-2.372 7.006h1.314l.568-1.896h2.45l.568 1.896H20l-2.372-7.006h-1.514zm-.19 4.135l.257-.857c.119-.371.23-.75.334-1.135.111-.393.215-.786.312-1.179h.044l.312 1.168c.111.393.226.775.345 1.146l.256.857h-1.86z" clip-rule="evenodd"/><path fill-rule="evenodd" d="M1 6a2 2 0 012-2h18a2 2 0 012 2v12a2 2 0 01-2 2H3a2 2 0 01-2-2V6zm2-.5h18a.5.5 0 01.5.5v12a.5.5 0 01-.5.5H3a.5.5 0 01-.5-.5V6a.5.5 0 01.5-.5z" clip-rule="evenodd"/></svg>