<svg xmlns="http://www.w3.org/2000/svg" width="24" height="24" viewBox="0 0 24 24"><path fill-rule="evenodd" d="M17.943 19.357A7.979 7.979 0 0112 22c-4.42 0-8-3.58-8-8 0-2.47.646-4.795 1.782-6.804l-3.49-3.489 1.415-1.414 18 18-1.414 1.414-2.35-2.35zm-6.622-6.621l-.021.004c-1.76.36-2.81 1.5-2.81 3.12 0 1.74 1.44 3.14 3.22 3.14 1.6 0 3.017-.783 3.889-1.987l-4.278-4.277z" clip-rule="evenodd"/><path d="M20 14a8 8 0 01-.324 2.262l-3.212-3.212c-.08-.99-.262-1.958-.544-2.89a5.43 5.43 0 01-1.194 1.152L12.293 8.88c1.212-.582 1.947-1.89 1.947-3.409 0-2.15-.74-4.8-.74-4.8C17.41 3.8 20 8.61 20 14z"/></svg>