<svg xmlns="http://www.w3.org/2000/svg" width="24" height="25" viewBox="0 0 24 25"><g clip-path="url(#a)"><path fill-rule="evenodd" d="M7.172 5.41l4.076 4.658 1.505-1.317-1.944-2.222a6 6 0 016.497 8.682l1.769.934a8 8 0 00-8.48-11.611l2.158-2.466L11.248.75 7.172 5.409zm2.664-.008l.008.024-.015-.017.007-.007z" clip-rule="evenodd"/><path d="M4.936 8.653a8 8 0 007.673 11.733l-2.316 2.316 1.414 1.414 4.707-4.707-4.707-4.707-1.414 1.414 2.267 2.267a6 6 0 01-5.858-8.79l-1.766-.94z"/></g><defs><clipPath id="a"><path d="M0 .41h24v24H0z"/></clipPath></defs></svg>