<svg xmlns="http://www.w3.org/2000/svg" width="24" height="24" viewBox="0 0 24 24"><path d="M12 21c-2.5 0-4.625-.875-6.375-2.625S3 14.5 3 12s.875-4.625 2.625-6.375S9.5 3 12 3a9.304 9.304 0 011.35.1 5.292 5.292 0 00-1.637 1.887A5.31 5.31 0 0011.1 7.5c0 1.5.525 2.775 1.575 3.825C13.725 12.375 15 12.9 16.5 12.9a5.28 5.28 0 002.525-.613A5.322 5.322 0 0020.9 10.65 8.505 8.505 0 0121 12c0 2.5-.875 4.625-2.625 6.375S14.5 21 12 21zm0-2c1.467 0 2.783-.404 3.95-1.212a7.012 7.012 0 002.55-3.163c-.333.083-.667.15-1 .2-.333.05-.667.075-1 .075-2.05 0-3.796-.72-5.238-2.162C9.821 11.296 9.1 9.55 9.1 7.5c0-.333.025-.667.075-1 .05-.333.117-.667.2-1a7.013 7.013 0 00-3.162 2.55C5.404 9.217 5 10.533 5 12c0 1.933.683 3.583 2.05 4.95C8.417 18.317 10.067 19 12 19z"/></svg>