<svg xmlns="http://www.w3.org/2000/svg" width="24" height="24" viewBox="0 0 24 24"><path fill-rule="evenodd" d="M6.688 4.188C5.229 5.646 4.5 7.417 4.5 9.5c0 1.35.338 2.6 1.013 3.75A7.642 7.642 0 008 15.845V18h8v-2.155a7.65 7.65 0 002.488-2.595A7.28 7.28 0 0019.5 9.5c0-2.083-.73-3.854-2.188-5.312C15.854 2.729 14.083 2 12 2s-3.854.73-5.312 2.188zm10.075 8.05c.492-.84.737-1.74.737-2.738 0-1.559-.523-2.819-1.602-3.897C14.82 4.523 13.558 4 12 4c-1.559 0-2.819.523-3.897 1.602C7.023 6.68 6.5 7.942 6.5 9.5c0 .998.245 1.898.738 2.737a5.645 5.645 0 001.844 1.927l.918.59V16h4v-1.246l.918-.59a5.65 5.65 0 001.845-1.926zM11.998 20H10c0 .55.196 1.021.588 1.413.391.391.862.587 1.412.587a1.93 1.93 0 001.413-.587A1.93 1.93 0 0014 20h-2.002z" clip-rule="evenodd"/></svg>