<svg xmlns="http://www.w3.org/2000/svg" width="24" height="25" viewBox="0 0 24 25"><path fill-rule="evenodd" d="M11 15.41c-4.42 0-8-1.79-8-4v-3c0 2.21 3.58 4 8 4s8-1.79 8-4v4c-1.995.082-3.992 1.145-5.02 2.713-.921.184-1.927.286-2.98.286zm2.108 1.859a6.034 6.034 0 00.178 2.975c-.724.107-1.492.165-2.286.165-4.42 0-8-1.79-8-4v-3c0 2.21 3.58 4 8 4 .73 0 1.437-.049 2.108-.14zM11 2.409c4.42 0 8 1.79 8 4s-3.58 4-8 4-8-1.79-8-4 3.58-4 8-4zm6.778 18.74a3 3 0 01-.54-.311l-1.327.22-.75-1.299.855-1.039a3.046 3.046 0 010-.622l-.855-1.04.75-1.299 1.327.221a3 3 0 01.54-.312l.472-1.259h1.5l.472 1.26a3 3 0 01.54.311l1.327-.22.75 1.299-.855 1.039a3.047 3.047 0 010 .622l.855 1.04-.75 1.299-1.327-.221a3 3 0 01-.54.312l-.472 1.26h-1.5l-.472-1.26zM19 19.41a1 1 0 100-2 1 1 0 000 2z" clip-rule="evenodd"/></svg>