<svg xmlns="http://www.w3.org/2000/svg" width="24" height="24" viewBox="0 0 24 24"><path d="M3.692 2.59h6.116c.382 0 .692.31.692.693V9.4c0 .382-.31.692-.692.692H3.692A.692.692 0 013 9.399V3.283c0-.382.31-.692.692-.692zm10.558 0h6.058c.382 0 .692.31.692.693V9.4c0 .382-.31.692-.692.692H14.25a.692.692 0 01-.692-.692V3.283c0-.382.31-.692.692-.692zM9.808 13.149H3.692A.692.692 0 003 13.84v6.057c0 .383.31.693.692.693h6.116c.382 0 .692-.31.692-.693V13.84a.692.692 0 00-.692-.692zm4.442 0h6.058c.382 0 .692.31.692.692v6.057c0 .383-.31.693-.692.693H14.25a.692.692 0 01-.692-.693v-6.057c0-.382.31-.692.692-.692z"/></svg>