<svg xmlns="http://www.w3.org/2000/svg" width="24" height="24" viewBox="0 0 24 24"><path fill-rule="evenodd" d="M13.681 14.543C12.123 13.515 9.546 13 8 13c-2.33 0-7 1.17-7 3.5V19h14v-2.5c0-.505-.219-.955-.586-1.35a3.756 3.756 0 00-.554-.484 5.127 5.127 0 00-.178-.123zM13 17v-.43a.96.96 0 00-.122-.13c-.228-.21-.64-.464-1.247-.707C10.413 15.246 8.915 15 8 15c-.915 0-2.413.246-3.63.733-.608.243-1.02.497-1.248.707a.957.957 0 00-.122.13V17h10zm-10.02-.397s.001-.004.006-.011a.037.037 0 01-.006.01zm10.04 0l-.006-.011.006.01zm2.94-2.726a5.84 5.84 0 00-.93-.827h.007c.348-.03.675-.05.963-.05.554 0 1.24.066 1.965.198C20.287 13.622 23 14.724 23 16.5V19h-6v-2.5c0-.531-.104-1.018-.292-1.462a4.157 4.157 0 00-.749-1.16zm2.953 1.605c.057.324.087.663.087 1.018v.5h2v-.43a.96.96 0 00-.122-.13c-.228-.21-.64-.464-1.247-.707a9.085 9.085 0 00-.718-.251zm2.107 1.12s-.003-.003-.006-.01l.006.01zM16 9c.547 0 .99-.436.99-1A.996.996 0 1015 8c0 .555.445 1 1 1zM8 9c.547 0 .99-.436.99-1A.996.996 0 107 8c0 .555.445 1 1 1zm10.99-1c0 1.66-1.33 3-2.99 3-1.66 0-3-1.34-3-3s1.34-3 3-3 2.99 1.34 2.99 3zm-8 0c0 1.66-1.33 3-2.99 3-1.66 0-3-1.34-3-3s1.34-3 3-3 2.99 1.34 2.99 3z" clip-rule="evenodd"/></svg>