<svg xmlns="http://www.w3.org/2000/svg" width="24" height="25" viewBox="0 0 24 25"><path fill-rule="evenodd" d="M12 22.41a1.54 1.54 0 01-1.13-.47 1.541 1.541 0 01-.47-1.13h3.2c0 .44-.157.816-.47 1.13-.313.313-.69.47-1.13.47zm-5.19-7a6.112 6.112 0 001.99 2.075v1.724h6.4v-1.724a6.12 6.12 0 001.99-2.076c.54-.92.81-1.92.81-3 0-1.667-.584-3.083-1.75-4.25-1.167-1.166-2.583-1.75-4.25-1.75-1.667 0-3.083.584-4.25 1.75C6.583 9.326 6 10.742 6 12.41c0 1.08.27 2.08.81 3zm5.19 2h-.75v-3.2H9l3-4.8h.75v3.2H15l-3 4.8z" clip-rule="evenodd"/><path d="M11.5 2.41h1v3h-1v-3zm6.621 2l.707.706-2.121 2.121L16 6.53l2.121-2.12zm-12.414 0L5 5.115l2.12 2.122.707-.707-2.121-2.12z"/></svg>