<svg xmlns="http://www.w3.org/2000/svg" width="24" height="24" viewBox="0 0 24 24"><path fill-rule="evenodd" d="M13.406 1.335s.694 2.485.694 4.5c0 1.932-1.266 3.498-3.197 3.498-1.94 0-3.403-1.566-3.403-3.497l.028-.338A12.91 12.91 0 004.5 13.834a7.499 7.499 0 007.5 7.501c4.144 0 7.5-3.357 7.5-7.501 0-5.054-2.428-9.564-6.094-12.499zm-1.678 17.187c-1.669 0-3.019-1.313-3.019-2.944 0-1.52.985-2.588 2.635-2.926 1.66-.337 3.375-1.134 4.331-2.419.366 1.21.553 2.485.553 3.788a4.502 4.502 0 01-4.5 4.501z" clip-rule="evenodd"/></svg>