<svg xmlns="http://www.w3.org/2000/svg" width="24" height="25" viewBox="0 0 24 25"><path d="M9.241 9.45L3.4 3.61 2 5.01l6.707 6.706a4.984 4.984 0 001.464 3.522l1.029-1.029 2.122 2.122-1.736 1.735a3 3 0 01-4.37-4.107 5.018 5.018 0 01-.297-2.54l-.99.99A5 5 0 0013 19.48l1.736-1.735 5.664 5.664 1.4-1.4-5.677-5.677-1.423-1.424L10.79 11 9.241 9.45zm2.638-.162l-1.414-1.415L13 5.338a5 5 0 017.071 7.071l-1.06 1.06c.12-.85.022-1.725-.295-2.535a3 3 0 00-4.302-4.182L11.88 9.288z"/><path d="M15.26 12.669l1.837 1.837a4.999 4.999 0 00-2.046-5.562l-1.464 1.464a3.01 3.01 0 011.673 2.261z"/></svg>