<svg xmlns="http://www.w3.org/2000/svg" width="24" height="24" viewBox="0 0 24 24"><path d="M2 2.667a.667.667 0 00-.667.666V6c0 .368.299.667.667.667h6.667A.667.667 0 009.333 6V3.333a.667.667 0 00-.666-.666H2zM2 10a.667.667 0 00-.667.667v2.666c0 .368.299.667.667.667h6.667a.667.667 0 00.666-.667v-2.666A.667.667 0 008.667 10H2zm-.667 8c0-.368.299-.667.667-.667h6.667c.368 0 .666.299.666.667v2.667a.667.667 0 01-.666.666H2a.667.667 0 01-.667-.666V18zM12.667 2.667a.667.667 0 00-.667.666v17.334c0 .368.299.666.667.666H22a.667.667 0 00.667-.666V3.333A.667.667 0 0022 2.667h-9.333z"/></svg>