<svg xmlns="http://www.w3.org/2000/svg" width="24" height="24" viewBox="0 0 24 24"><path d="M12 22a9.676 9.676 0 01-3.875-.788 10.144 10.144 0 01-3.188-2.15 10.142 10.142 0 01-2.15-3.187A9.676 9.676 0 012 12c0-1.383.27-2.683.813-3.9a10.13 10.13 0 012.2-3.175A10.48 10.48 0 018.25 2.788 9.979 9.979 0 0112.2 2c1.333 0 2.592.23 3.775.688a9.918 9.918 0 013.112 1.9 9.092 9.092 0 012.125 2.875A8.273 8.273 0 0122 11.05c0 1.917-.583 3.387-1.75 4.412C19.083 16.489 17.667 17 16 17h-1.85c-.15 0-.254.042-.313.125a.47.47 0 00-.087.275c0 .2.125.488.375.863.25.374.375.804.375 1.287 0 .833-.23 1.45-.688 1.85-.458.4-1.062.6-1.812.6zm-5.5-9c.433 0 .792-.142 1.075-.425.283-.283.425-.642.425-1.075 0-.433-.142-.792-.425-1.075C7.292 10.142 6.933 10 6.5 10c-.433 0-.792.142-1.075.425-.283.283-.425.642-.425 1.075 0 .433.142.792.425 1.075.283.283.642.425 1.075.425zm3-4c.433 0 .792-.142 1.075-.425.283-.283.425-.642.425-1.075 0-.433-.142-.792-.425-1.075C10.292 6.142 9.933 6 9.5 6c-.433 0-.792.142-1.075.425C8.142 6.708 8 7.067 8 7.5c0 .433.142.792.425 1.075.283.283.642.425 1.075.425zm5 0c.433 0 .792-.142 1.075-.425.283-.283.425-.642.425-1.075 0-.433-.142-.792-.425-1.075C15.292 6.142 14.933 6 14.5 6c-.433 0-.792.142-1.075.425-.283.283-.425.642-.425 1.075 0 .433.142.792.425 1.075.283.283.642.425 1.075.425zm3 4c.433 0 .792-.142 1.075-.425.283-.283.425-.642.425-1.075 0-.433-.142-.792-.425-1.075-.283-.283-.642-.425-1.075-.425-.433 0-.792.142-1.075.425-.283.283-.425.642-.425 1.075 0 .433.142.792.425 1.075.283.283.642.425 1.075.425zM12 20c.15 0 .27-.042.363-.125a.419.419 0 00.137-.325c0-.233-.125-.508-.375-.825-.25-.317-.375-.792-.375-1.425 0-.7.242-1.258.725-1.675.483-.417 1.075-.625 1.775-.625H16c1.1 0 2.042-.32 2.825-.963C19.608 13.396 20 12.4 20 11.05c0-2.017-.77-3.696-2.313-5.038C16.146 4.671 14.317 4 12.2 4 9.933 4 8 4.775 6.4 6.325 4.8 7.875 4 9.767 4 12c0 2.217.78 4.104 2.338 5.663C7.896 19.22 9.783 20 12 20z"/></svg>