<svg xmlns="http://www.w3.org/2000/svg" width="24" height="25" viewBox="0 0 24 25"><path d="M11 22.41c-.55 0-1.02-.197-1.412-.588A1.926 1.926 0 019 20.409v-4H6c-.55 0-1.02-.196-1.412-.587A1.926 1.926 0 014 14.409v-7c0-1.1.392-2.042 1.175-2.825C5.958 3.801 6.9 3.41 8 3.41h12v11c0 .55-.196 1.02-.587 1.413A1.926 1.926 0 0118 16.41h-3v4c0 .55-.196 1.02-.588 1.413A1.926 1.926 0 0113 22.41h-2zm-5-12h12v-5h-1v4h-2v-4h-1v2h-2v-2H8c-.55 0-1.02.195-1.412.587A1.926 1.926 0 006 7.409v3zm0 4h12v-2H6v2z"/></svg>