<svg xmlns="http://www.w3.org/2000/svg" width="24" height="24" viewBox="0 0 24 24"><path fill-rule="evenodd" d="M15 7.41L10.41 12 15 16.59 13.59 18 9 13.41 4.41 18 3 16.59 7.59 12 3 7.41 4.41 6 9 10.59 13.59 6 15 7.41zm5.85 13.62h-4.88v-1l.89-.8c.76-.65 1.32-1.19 1.7-1.63.37-.44.56-.85.57-1.24a.898.898 0 00-.27-.7c-.18-.16-.47-.28-.86-.28-.31 0-.58.06-.84.18l-.66.38-.45-1.17c.27-.21.59-.39.98-.53s.82-.24 1.29-.24c.78.04 1.38.25 1.78.66.4.41.62.93.62 1.57-.01.56-.19 1.08-.54 1.55-.34.47-.76.92-1.27 1.36l-.64.52v.02h2.58v1.35z" clip-rule="evenodd"/></svg>