<svg xmlns="http://www.w3.org/2000/svg" width="24" height="24" viewBox="0 0 24 24"><path fill-rule="evenodd" d="M6 2h8l6 6v12a2 2 0 01-2 2H6a2 2 0 01-2-2V4a2 2 0 012-2zm7 1.5V9h5.5L13 3.5zM8.878 14.77h.897a2.309 2.309 0 00-.197-.751 1.753 1.753 0 00-.393-.553 1.653 1.653 0 00-.555-.347A1.88 1.88 0 007.954 13c-.369 0-.7.098-.995.294-.295.195-.529.479-.7.85-.173.373-.259.824-.259 1.355 0 .529.085.98.254 1.351.17.372.403.657.696.853.295.196.63.295 1.004.295.269 0 .51-.047.723-.14.214-.096.399-.224.553-.385.156-.163.28-.348.37-.554.094-.207.152-.423.175-.646l-.897-.005a1.13 1.13 0 01-.11.347.83.83 0 01-.469.418.966.966 0 01-.33.055.91.91 0 01-.56-.18 1.163 1.163 0 01-.377-.535 2.515 2.515 0 01-.133-.874c0-.338.045-.624.133-.86.09-.238.214-.418.375-.542a.898.898 0 01.568-.187.904.904 0 01.608.23.905.905 0 01.194.27c.05.105.084.225.1.36zm3.809-.304a.63.63 0 00-.211-.447c-.125-.106-.293-.16-.506-.16a.848.848 0 00-.367.072.528.528 0 00-.23.193.515.515 0 00-.077.28.452.452 0 00.192.396c.062.046.133.087.213.122.08.033.167.061.258.085l.377.105c.183.047.351.11.504.19.153.079.286.176.398.292.112.115.198.252.26.408.063.157.095.337.096.54a1.502 1.502 0 01-.197.774 1.298 1.298 0 01-.557.506c-.242.119-.533.178-.874.178a2.03 2.03 0 01-.885-.18 1.348 1.348 0 01-.586-.535c-.14-.238-.212-.531-.22-.881h.859c.01.163.05.3.12.408.073.108.17.19.29.245.121.054.258.08.411.08.15 0 .28-.025.392-.075a.61.61 0 00.26-.212.54.54 0 00.092-.31.446.446 0 00-.084-.276.644.644 0 00-.242-.19 2.234 2.234 0 00-.387-.143l-.457-.133c-.353-.1-.633-.256-.837-.468-.205-.212-.307-.498-.306-.857a1.421 1.421 0 01.203-.772c.138-.22.327-.392.567-.516.24-.123.514-.185.82-.185.311 0 .583.062.815.185.233.124.415.296.545.516.13.22.197.475.2.765h-.85zM15 13l.962 3.762h.039L17.017 13H18l-1.446 5H15.41l-1.396-5H15z" clip-rule="evenodd"/></svg>