<svg xmlns="http://www.w3.org/2000/svg" width="24" height="24" viewBox="0 0 24 24"><path d="M12 22c-1.25 0-2.42-.237-3.512-.712a9.142 9.142 0 01-2.85-1.926 9.143 9.143 0 01-1.926-2.85A8.709 8.709 0 013 13h2c0 1.95.68 3.604 2.038 4.962C8.396 19.321 10.05 20 12 20c1.95 0 3.604-.68 4.962-2.038C18.321 16.604 19 14.95 19 13c0-1.95-.68-3.604-2.038-4.963C15.604 6.679 13.95 6 12 6h-.15l1.55 1.55L12 9 8 5l4-4 1.4 1.45L11.85 4H12c1.25 0 2.421.238 3.513.713a9.154 9.154 0 012.85 1.924 9.167 9.167 0 011.925 2.85A8.715 8.715 0 0121 13c0 1.25-.237 2.42-.712 3.512a9.151 9.151 0 01-1.925 2.85 9.158 9.158 0 01-2.85 1.926A8.715 8.715 0 0112 22z"/></svg>