<svg xmlns="http://www.w3.org/2000/svg" width="24" height="25" viewBox="0 0 24 25"><path d="M12 21.41a8.71 8.71 0 01-3.512-.713 9.145 9.145 0 01-2.85-1.926 9.143 9.143 0 01-1.926-2.85A8.709 8.709 0 013 12.41h2c0 1.95.68 3.604 2.038 4.962C8.396 18.73 10.05 19.41 12 19.41c1.95 0 3.604-.68 4.962-2.038C18.321 16.013 19 14.36 19 12.41c0-1.95-.68-3.604-2.038-4.963C15.604 6.088 13.95 5.41 12 5.41h-.15l1.55 1.55L12 8.41l-4-4 4-4 1.4 1.45-1.55 1.55H12c1.25 0 2.421.238 3.513.713a9.154 9.154 0 012.85 1.924 9.167 9.167 0 011.925 2.85A8.716 8.716 0 0121 12.41c0 1.25-.237 2.42-.712 3.512a9.151 9.151 0 01-1.925 2.85 9.162 9.162 0 01-2.85 1.926A8.717 8.717 0 0112 21.41z"/></svg>