<svg xmlns="http://www.w3.org/2000/svg" width="24" height="25" viewBox="0 0 24 25"><path d="M12 20.41c-2.233 0-4.125-.776-5.675-2.326C4.775 16.534 4 14.642 4 12.41c0-2.233.775-4.125 2.325-5.675C7.875 5.184 9.767 4.41 12 4.41c1.15 0 2.25.238 3.3.713A7.617 7.617 0 0118 7.16V4.41h2v7h-7v-2h4.2a5.837 5.837 0 00-2.187-2.2A5.93 5.93 0 0012 6.41c-1.667 0-3.083.583-4.25 1.75C6.583 9.326 6 10.742 6 12.41c0 1.667.583 3.083 1.75 4.25 1.167 1.167 2.583 1.75 4.25 1.75a5.863 5.863 0 003.475-1.1 5.81 5.81 0 002.175-2.9h2.1c-.467 1.767-1.417 3.208-2.85 4.325S13.833 20.41 12 20.41z"/></svg>