<svg xmlns="http://www.w3.org/2000/svg" width="24" height="24" viewBox="0 0 24 24"><path fill-rule="evenodd" d="M12 10.85a1.333 1.333 0 110 2.666 1.333 1.333 0 010-2.666zm5.333 0a1.333 1.333 0 110 2.666 1.333 1.333 0 010-2.666zm-10.666 0a1.333 1.333 0 110 2.666 1.333 1.333 0 010-2.666zm5.333-6a1.333 1.333 0 110 2.666 1.333 1.333 0 010-2.666zm5.333 0a1.333 1.333 0 110 2.666 1.333 1.333 0 010-2.666zm-10.666 0a1.333 1.333 0 110 2.666 1.333 1.333 0 010-2.666zm5.333 12a1.333 1.333 0 110 2.666 1.333 1.333 0 010-2.666zm5.333 0a1.333 1.333 0 110 2.666 1.333 1.333 0 010-2.666zm-10.666 0a1.333 1.333 0 110 2.666 1.333 1.333 0 010-2.666z" clip-rule="evenodd"/></svg>