<svg xmlns="http://www.w3.org/2000/svg" width="24" height="24" viewBox="0 0 24 24"><path d="M12 20c-2.233 0-4.125-.775-5.675-2.325C4.775 16.125 4 14.233 4 12c0-2.233.775-4.125 2.325-5.675C7.875 4.775 9.767 4 12 4c1.15 0 2.25.238 3.3.713A7.617 7.617 0 0118 6.75V4h2v7h-7V9h4.2a5.837 5.837 0 00-2.187-2.2A5.93 5.93 0 0012 6c-1.667 0-3.083.583-4.25 1.75C6.583 8.917 6 10.333 6 12c0 1.667.583 3.083 1.75 4.25C8.917 17.417 10.333 18 12 18a5.863 5.863 0 003.475-1.1A5.81 5.81 0 0017.65 14h2.1c-.467 1.767-1.417 3.208-2.85 4.325S13.833 20 12 20z"/></svg>