<svg xmlns="http://www.w3.org/2000/svg" width="24" height="25" viewBox="0 0 24 25"><path d="M11 17.41h2v-6h-2v6zm1-8a.968.968 0 00.713-.289A.967.967 0 0013 8.41a.97.97 0 00-.287-.713A.97.97 0 0012 7.41a.967.967 0 00-.712.287.968.968 0 00-.288.713c0 .283.096.52.288.712A.965.965 0 0012 9.41zm0 13a9.733 9.733 0 01-3.9-.789 10.092 10.092 0 01-3.175-2.137c-.9-.9-1.612-1.958-2.137-3.175A9.733 9.733 0 012 12.41a9.74 9.74 0 01.788-3.9 10.092 10.092 0 012.137-3.175c.9-.9 1.958-1.613 3.175-2.138A9.743 9.743 0 0112 2.41a9.74 9.74 0 013.9.787 10.105 10.105 0 013.175 2.138c.9.9 1.612 1.958 2.137 3.175a9.733 9.733 0 01.788 3.9 9.733 9.733 0 01-.788 3.9 10.093 10.093 0 01-2.137 3.175c-.9.9-1.958 1.612-3.175 2.137a9.733 9.733 0 01-3.9.788zm0-2c2.233 0 4.125-.776 5.675-2.326C19.225 16.534 20 14.642 20 12.41c0-2.233-.775-4.125-2.325-5.675C16.125 5.184 14.233 4.41 12 4.41c-2.233 0-4.125.775-5.675 2.325C4.775 8.284 4 10.176 4 12.41c0 2.233.775 4.125 2.325 5.675 1.55 1.55 3.442 2.325 5.675 2.325z"/></svg>