<svg xmlns="http://www.w3.org/2000/svg" width="24" height="24" viewBox="0 0 24 24"><path d="M11.95 18c.35 0 .646-.121.888-.363.241-.241.362-.537.362-.887s-.12-.646-.362-.887a1.208 1.208 0 00-.888-.363c-.35 0-.646.121-.888.363a1.206 1.206 0 00-.362.887c0 .35.12.646.362.887.242.242.538.363.888.363zm-.9-3.85h1.85c0-.55.063-.983.188-1.3.125-.317.479-.75 1.062-1.3a7.483 7.483 0 001.025-1.238c.25-.391.375-.862.375-1.412 0-.933-.342-1.65-1.025-2.15-.683-.5-1.492-.75-2.425-.75-.95 0-1.72.25-2.312.75-.592.5-1.005 1.1-1.238 1.8l1.65.65c.083-.3.271-.625.563-.975.291-.35.737-.525 1.337-.525.533 0 .933.146 1.2.437.267.292.4.613.4.963 0 .333-.1.646-.3.937-.2.292-.45.563-.75.813-.733.65-1.183 1.142-1.35 1.475-.167.333-.25.942-.25 1.825zM12 22a9.733 9.733 0 01-3.9-.788 10.092 10.092 0 01-3.175-2.137c-.9-.9-1.612-1.958-2.137-3.175A9.733 9.733 0 012 12a9.74 9.74 0 01.788-3.9 10.092 10.092 0 012.137-3.175c.9-.9 1.958-1.613 3.175-2.138A9.743 9.743 0 0112 2a9.74 9.74 0 013.9.787 10.105 10.105 0 013.175 2.138c.9.9 1.612 1.958 2.137 3.175A9.733 9.733 0 0122 12a9.733 9.733 0 01-.788 3.9 10.092 10.092 0 01-2.137 3.175c-.9.9-1.958 1.612-3.175 2.137A9.733 9.733 0 0112 22z"/></svg>