<svg xmlns="http://www.w3.org/2000/svg" width="24" height="25" viewBox="0 0 24 25"><path d="M12 17.41a.968.968 0 00.713-.289.967.967 0 00.287-.712.97.97 0 00-.287-.713.97.97 0 00-.713-.287.967.967 0 00-.712.287.968.968 0 00-.288.713c0 .283.096.52.288.712a.965.965 0 00.712.288zm-1-4h2v-6h-2v6zm1 9a9.733 9.733 0 01-3.9-.789 10.092 10.092 0 01-3.175-2.137c-.9-.9-1.612-1.958-2.137-3.175A9.733 9.733 0 012 12.41a9.74 9.74 0 01.788-3.9 10.092 10.092 0 012.137-3.175c.9-.9 1.958-1.613 3.175-2.138A9.743 9.743 0 0112 2.41a9.74 9.74 0 013.9.787 10.105 10.105 0 013.175 2.138c.9.9 1.612 1.958 2.137 3.175a9.733 9.733 0 01.788 3.9 9.733 9.733 0 01-.788 3.9 10.093 10.093 0 01-2.137 3.175c-.9.9-1.958 1.612-3.175 2.137a9.733 9.733 0 01-3.9.788z"/></svg>