<svg xmlns="http://www.w3.org/2000/svg" width="24" height="24" viewBox="0 0 24 24"><path fill-rule="evenodd" d="M18.3 17.89c1.32-2.1.7-4.89-1.41-6.21a4.52 4.52 0 00-6.21 1.41C9.36 15.2 10 18 12.09 19.3c1.47.92 3.33.92 4.8 0L20 22.39 21.39 21l-3.09-3.11zm-2-.62c-.98.98-2.56.97-3.54 0-.97-.98-.97-2.56.01-3.54.97-.97 2.55-.97 3.53 0 .96.99.95 2.57-.03 3.54h.03zM18 4H4a2 2 0 00-2 2v12a2 2 0 002 2h5.81a6.3 6.3 0 01-1.31-2H4v-4h4.18c.16-.71.43-1.39.82-2H4V8h6v2.81a6.3 6.3 0 012-1.31V8h6v2a6.499 6.499 0 012 2V6a2 2 0 00-2-2z" clip-rule="evenodd"/></svg>