<svg xmlns="http://www.w3.org/2000/svg" width="42" height="42" viewBox="0 0 42 42"><g fill-rule="nonzero"><path d="M20.001 14c.63 0 .999.37.999 1.004V21h3.143c1.575 0 2.857.937 2.857 2.52v1.61A2.867 2.867 0 0124.143 28h-4C19.512 28 19 27.486 19 26.852V15.004c0-.634.37-1.004 1.001-1.004zm-8.319 2h2.461C15.718 16 17 17.304 17 18.907v6.923c0 1.282-1.025 2.17-2.286 2.17h-3.57C9.884 28 9 27.112 9 25.83v-1.341C9 22.565 10.538 21 12.429 21h2.576v-2.418a.577.577 0 00-.571-.581h-2.577a.565.565 0 00-.403.17 1.129 1.129 0 01-1.616 0 1.177 1.177 0 010-1.644c.54-.55 1.257-.527 2.02-.527zm3.323 7.008h-2.857c-.63 0-1.143.521-1.143 1.163v1.834h4v-2.997zm9.42 0H21v2.997h3.424a.573.573 0 00.572-.574v-1.85a.573.573 0 00-.572-.573zM33 12v3a1 1 0 01-1 1h-2.001v1H33v2h-5v-4.017c0-.543.44-.983.983-.983H29l2-.001V13h-3v-2h4a1 1 0 011 1z"/></g></svg>