<svg width="24" height="24" version="1.1" viewBox="0 0 24 24" xmlns="http://www.w3.org/2000/svg">
 <g transform="translate(0,-290.65)" display="none">
  <path d="m11.892 294.65a8 8 89.237 0 0-7.8926 8.1074 8 8 89.237 0 0 8.1074 7.8926 8 8 89.237 0 0 7.8926-8.1074 8 8 89.237 0 0-8.1074-7.8926zm0.10742 1a7 7 0 0 1 7 7 7 7 0 0 1-7 7 7 7 0 0 1-7-7 7 7 0 0 1 7-7z"/>
  <path transform="translate(0,290.65)" d="m7 4.0195v0.98047h-2v2h-0.95703v10h0.95703v2h2v1h10v-1h2v-2h1v-10h-1v-2h-2v-0.98047z" fill-opacity=".27451" opacity=".544"/>
  <rect x="-6" y="284.65" width="36" height="36" fill="none" stroke="#000" stroke-width=".05"/>
  <circle cx="12" cy="302.65" r="18" fill="none" stroke="#000" stroke-width=".05"/>
 </g>
 <g>
  <g id="Notifications" transform="matrix(.66667 0 0 .61111 4.007 6.729)" fill-rule="evenodd">
   <g id="RTE_parts_temp" transform="translate(-868,-5720)" fill-rule="nonzero">
    <g id="RTE/icons" transform="translate(0,5161)">
     <g id="icon/rich_editor/breakline/normal" transform="translate(859,547)">
      <path id="Combined-Shape" d="m27 25c0.55228 0 1 0.44772 1 1v2c0 1.0544-0.81588 1.9182-1.8507 1.9945l-0.14926 0.005486h-10c-1.0544 0-1.9182-0.81588-1.9945-1.8507l-0.005486-0.14926v-2c0-0.55228 0.44772-1 1-1s1 0.44772 1 1v2h10v-2c0-0.55228 0.44772-1 1-1zm-17-5h22c0.55228 0 1 0.44772 1 1s-0.44772 1-1 1h-22c-0.55228 0-1-0.44772-1-1s0.44772-1 1-1zm16-8c1.0544 0 1.9182 0.81588 1.9945 1.8507l0.005486 0.14926v2c0 0.55228-0.44772 1-1 1s-1-0.44772-1-1v-2h-10v2c0 0.55228-0.44772 1-1 1s-1-0.44772-1-1v-2c0-1.0544 0.81588-1.9182 1.8507-1.9945l0.14926-0.005486z"/>
     </g>
    </g>
   </g>
  </g>
 </g>
</svg>
