<svg xmlns="http://www.w3.org/2000/svg" width="18" height="18" viewBox="0 0 18 18"><path fill-rule="evenodd" d="M3 9.093a6.121 6.121 0 010-.186L1.55 7.271a1 1 0 01-.118-1.163l1.28-2.216a1 1 0 011.066-.48l2.14.439c.054-.033.108-.064.163-.094l.691-2.073A1 1 0 017.721 1h2.558a1 1 0 01.949.684l.69 2.073c.056.03.11.061.163.094l2.141-.439a1 1 0 011.067.48l1.279 2.216a1 1 0 01-.118 1.163L15 8.907a6.12 6.12 0 010 .186l1.45 1.636a1 1 0 01.118 1.163l-1.28 2.216a1 1 0 01-1.066.48l-2.14-.439a5.994 5.994 0 01-.163.094l-.691 2.073a1 1 0 01-.949.684H7.721a1 1 0 01-.949-.684l-.69-2.073a5.994 5.994 0 01-.163-.094l-2.141.439a1 1 0 01-1.067-.48l-1.279-2.216a1 1 0 01.118-1.163L3 9.093zM9 12a3 3 0 100-6 3 3 0 000 6z"/></svg>