<?xml version="1.0" encoding="utf-8"?>
<!-- Generator: Adobe Illustrator 22.0.1, SVG Export Plug-In . SVG Version: 6.00 Build 0)  -->
<svg version="1.1" id="menu_logo" xmlns="http://www.w3.org/2000/svg" xmlns:xlink="http://www.w3.org/1999/xlink" x="0px" y="0px"
	 viewBox="0 0 128 60" style="enable-background:new 0 0 128 60;" xml:space="preserve">
<style type="text/css">
	.st0{display:none;fill:none;}
	.st1{display:none;fill:#2C2D30;}
	.st2{fill:#FFFFFF;}
</style>
<rect id="logo_bg" class="st0" width="128" height="60"/>
<rect class="st1" width="128" height="60"/>
<path class="st2" d="M30,15c-8.2999992,0-15,6.7000008-15,15s6.7000008,15,15,15s15-6.7000008,15-15S38.2999992,15,30,15z M30,43
	c-7.2000008,0-13-5.7999992-13-13s5.7999992-13,13-13s13,5.7999992,13,13S37.2000008,43,30,43z"/>
<path class="st2" d="M36.9000015,22.5L21.1000004,30c-0.2000008,0.1000004-0.2999992,0.3999996-0.2000008,0.6000004
	C21,30.7000008,21.1000004,30.8000011,21.1999989,30.8000011l7,1.1999989l0.7999992,6.7999992
	c0,0.2000008,0.2000008,0.4000015,0.3999996,0.4000015c0.2000008,0,0.3999996-0.0999985,0.5-0.2000008l7.5999985-15.7999992
	c0.0999985-0.2000008,0.0999985-0.3999996-0.0999985-0.5C37.2000008,22.5,37,22.5,36.9000015,22.5L36.9000015,22.5z"/>
<g>
	<path class="st2" d="M57.5444336,29.0375977h3.105957l2.3344727,11.3881836l2.4155273-11.3881836h3.0253906l0.3037109,16.4428711
		h-2.2324219l-0.2441406-11.4287109L63.918457,45.4804688h-1.8066406l-2.375-11.4697266l-0.2231445,11.4697266h-2.253418
		L57.5444336,29.0375977z"/>
	<path class="st2" d="M71.9628906,29.0375977h6.9023438v2.1108398h-3.9179688v4.7304688h3.0849609v2.0908203h-3.0849609v5.4599609
		h3.9580078v2.0507812h-6.9423828V29.0375977z"/>
	<path class="st2" d="M81.4482422,29.0375977h2.0908203l3.9990234,9.378418v-9.378418h2.4765625v16.4428711h-1.9892578
		l-4.0195312-9.8251953v9.8251953h-2.5576172V29.0375977z"/>
	<path class="st2" d="M95.0136719,45.0537109c-0.6767578-0.4326172-1.1503906-1.0478516-1.4208984-1.8466797
		s-0.40625-1.8134766-0.40625-3.0449219V29.0375977h2.9238281v11.4692383c0,0.9482422,0.1113281,1.6787109,0.3349609,2.1923828
		c0.2226562,0.5146484,0.6796875,0.7714844,1.3701172,0.7714844c0.703125,0,1.1669922-0.2568359,1.390625-0.7714844
		c0.2226562-0.5136719,0.3349609-1.2441406,0.3349609-2.1923828V29.0375977h2.9023438v11.1245117
		c0,1.2177734-0.1347656,2.2294922-0.4052734,3.0341797c-0.2714844,0.8056641-0.7451172,1.4248047-1.421875,1.8574219
		c-0.6767578,0.4335938-1.6103516,0.6503906-2.8007812,0.6503906
		C96.6240234,45.7041016,95.6904297,45.4873047,95.0136719,45.0537109z"/>
</g>
<g>
	<path class="st2" d="M58.8655853,11.7236023H57v-0.7284851h4.6093864v0.7284851h-1.8169594v9.2728672h-0.9268417V11.7236023z"/>
	<path class="st2" d="M62.5541534,20.8362026c-0.2763634-0.1813679-0.4797935-0.4732647-0.609787-0.8766956
		c-0.1299973-0.403429-0.1949959-0.9510498-0.1949959-1.6423569v-1.8026257c0-0.6993456,0.0669823-1.2489758,0.2009468-1.648386
		c0.1344604-0.3989086,0.3418617-0.6852789,0.6221924-0.8581057c0.2803345-0.1728268,0.6440277-0.2592411,1.0910721-0.2592411
		c0.4877319,0,0.8638229,0.1050024,1.1282806,0.3150072c0.2639618,0.2095032,0.4465485,0.5245094,0.5487595,0.944519
		c0.1012192,0.419507,0.1523285,0.9837065,0.1523285,1.6915932v0.6420727h-2.8534546v1.2469654
		c0,0.6832695,0.0769043,1.160553,0.2317085,1.4318504c0.1543083,0.271801,0.414299,0.4079533,0.780468,0.4079533
		c0.3086166,0,0.5462799-0.0989742,0.7129898-0.2964191c0.1667175-0.1979465,0.2500687-0.5556583,0.2500687-1.0741386V18.564333
		h0.8658142v0.3948879c0,0.691309-0.1424026,1.2223492-0.4267044,1.5926208
		c-0.2847977,0.3707733-0.7521896,0.5556583-1.4021683,0.5556583C63.1961937,21.1075001,62.8305168,21.017067,62.5541534,20.8362026
		z M64.6147308,16.823v-0.5923328c0-0.4280481-0.0223236-0.7656641-0.0669785-1.012846
		c-0.0446548-0.2466803-0.1359482-0.4401064-0.2743835-0.5802765c-0.1384277-0.1396685-0.3453293-0.2095022-0.6216965-0.2095022
		c-0.2520523,0-0.4515114,0.0552635-0.5973816,0.1662951c-0.1463699,0.1115341-0.2520523,0.3049593-0.3170509,0.5802765
		c-0.0654945,0.2763224-0.097744,0.6651821-0.097744,1.1670837V16.823H64.6147308z"/>
	<path class="st2" d="M66.743248,10.9951172h0.890625v10.0013523h-0.890625V10.9951172z"/>
	<path class="st2" d="M69.810379,20.8362026c-0.2768631-0.1813679-0.4792938-0.4732647-0.6092911-0.8766956
		c-0.1309891-0.403429-0.195488-0.9510498-0.195488-1.6423569v-1.8026257c0-0.6993456,0.0674744-1.2489758,0.2014389-1.648386
		c0.1339645-0.3989086,0.341362-0.6852789,0.6212006-0.8581057c0.2808304-0.1728268,0.6450195-0.2592411,1.091568-0.2592411
		c0.4882278,0,0.8643265,0.1050024,1.1282883,0.3150072c0.2639542,0.2095032,0.4465485,0.5245094,0.5487595,0.944519
		c0.1012115,0.419507,0.151825,0.9837065,0.151825,1.6915932v0.6420727h-2.8529587v1.2469654
		c0,0.6832695,0.0774002,1.160553,0.2312164,1.4318504c0.1548004,0.271801,0.4147949,0.4079533,0.7809601,0.4079533
		c0.3086166,0,0.5467758-0.0989742,0.7134933-0.2964191c0.1667099-0.1979465,0.2500687-0.5556583,0.2500687-1.0741386V18.564333
		h0.8653107v0.3948879c0,0.691309-0.1419067,1.2223492-0.4267044,1.5926208
		c-0.2847977,0.3707733-0.7521896,0.5556583-1.4021683,0.5556583C70.4524231,21.1075001,70.0862503,21.017067,69.810379,20.8362026z
		 M71.87146,16.823v-0.5923328c0-0.4280481-0.0228271-0.7656641-0.067482-1.012846
		c-0.0446548-0.2466803-0.1359482-0.4401064-0.2738876-0.5802765c-0.1389236-0.1396685-0.3463211-0.2095022-0.6221924-0.2095022
		c-0.2520523,0-0.4515076,0.0552635-0.5973816,0.1662951c-0.1468658,0.1115341-0.2520523,0.3049593-0.317543,0.5802765
		c-0.0645065,0.2763224-0.0972519,0.6651821-0.0972519,1.1670837V16.823H71.87146z"/>
	<path class="st2" d="M74.3321915,20.5644016c-0.3373947-0.3622341-0.530899-0.8560963-0.5795212-1.4815884l0.7432556-0.234623
		c0.0496216,0.5430984,0.1756439,0.9425087,0.3780823,1.197731c0.2034302,0.2552204,0.4882278,0.3828316,0.8544006,0.3828316
		c0.3086166,0,0.545784-0.0884228,0.7124939-0.2657719c0.1667099-0.1768456,0.2500687-0.4260387,0.2500687-0.7470741
		c0-0.4692459-0.2848053-0.9465294-0.8534088-1.432354l-0.9635544-0.8395157
		c-0.3334274-0.2798386-0.5765457-0.5556583-0.7313538-0.8269577c-0.1548004-0.2717991-0.2312088-0.5928354-0.2312088-0.9631071
		c0-0.5019016,0.151825-0.8952837,0.4564743-1.179142c0.3056335-0.2838583,0.7134857-0.4260387,1.2255325-0.4260387
		c0.5209732,0,0.9208832,0.168808,1.2017136,0.506423c0.2798386,0.337616,0.4366226,0.794301,0.4693756,1.3700552
		l-0.6341019,0.2100048c-0.0486298-0.9384899-0.3820496-1.4072323-1.0002747-1.4072323
		c-0.2758713,0-0.4951706,0.0758629-0.6579132,0.2280912c-0.1627426,0.15273-0.2441177,0.3642426-0.2441177,0.6360426
		c0,0.2220631,0.0406876,0.4154882,0.1220551,0.5802765c0.0813751,0.1647882,0.2312164,0.3456545,0.4515152,0.5430994
		l0.9992752,0.9013119c0.3820496,0.3456535,0.6728058,0.6692009,0.872261,0.9696388
		c0.1984711,0.3004379,0.2986984,0.6686993,0.2986984,1.1047859c0,0.5430984-0.1627426,0.9651165-0.4882278,1.2655544
		c-0.3244934,0.3004379-0.7640991,0.4506569-1.3168259,0.4506569C75.114151,21.1075001,74.6685944,20.9266338,74.3321915,20.5644016
		z"/>
	<path class="st2" d="M78.9506683,20.7558174c-0.2758713-0.234623-0.4614334-0.5516396-0.554718-0.9510498
		c-0.093277-0.3989086-0.1399155-0.9028206-0.1399155-1.5122356V16.625555c0-0.6913071,0.0545731-1.2429457,0.1647263-1.6544142
		c0.1091537-0.4114695,0.3006744-0.7179356,0.5725784-0.9199018c0.2728882-0.2014637,0.6569214-0.3024473,1.1530914-0.3024473
		c0.6906586,0,1.1620178,0.1914158,1.4140701,0.5742483c0.2520523,0.3828316,0.3780823,0.9525576,0.3780823,1.7096786v0.3461571
		h-0.8295898v-0.3461571c0-0.4195061-0.0297699-0.7445612-0.091301-0.9751644
		c-0.0605316-0.2306032-0.1607513-0.3928804-0.2986908-0.487834c-0.1379318-0.0944519-0.3294525-0.1416779-0.5725708-0.1416779
		c-0.2768631,0-0.4862442,0.065814-0.6281509,0.197444c-0.1428986,0.1316299-0.2401428,0.3396254-0.2927399,0.6234837
		c-0.0535812,0.2838573-0.0793839,0.6933165-0.0793839,1.2283764v2.0000706c0,0.4943638,0.0287781,0.881216,0.0853424,1.1610546
		s0.1587677,0.4813023,0.3046417,0.6048946c0.1468658,0.1235905,0.3542633,0.1853867,0.6221924,0.1853867
		c0.2758713,0,0.4812851-0.0597858,0.6152496-0.1793594c0.1349564-0.1190681,0.2242661-0.2984276,0.2689209-0.5370693
		s0.0664902-0.5717354,0.0664902-1.0002861v-0.3948879h0.8295898v0.3456535c0,0.535059-0.0466385,0.9776764-0.1399231,1.3273506
		c-0.0942688,0.3501759-0.2709045,0.6234818-0.530899,0.8209267c-0.2599869,0.1979485-0.6340942,0.2964191-1.1213303,0.2964191
		C79.6254501,21.1075001,79.2275238,20.9904404,78.9506683,20.7558174z"/>
	<path class="st2" d="M83.4141846,20.4468384c-0.2768631-0.4401054-0.4148026-1.1173458-0.4148026-2.0307159v-1.9759541
		c0-0.9133692,0.1379395-1.5906096,0.4148026-2.030715c0.2758636-0.440608,0.7640915-0.6606617,1.4626923-0.6606617
		c0.7075348,0,1.1997375,0.2200537,1.4756012,0.6606617c0.2768631,0.4401054,0.4147949,1.1173458,0.4147949,2.030715v1.9759541
		c0,0.9133701-0.1379318,1.5906105-0.4147949,2.0307159c-0.2758636,0.440609-0.7680664,0.6606617-1.4756012,0.6606617
		C84.1782761,21.1075001,83.6900482,20.8874474,83.4141846,20.4468384z M85.5298386,20.1941299
		c0.1418991-0.1562481,0.2331924-0.3682613,0.27388-0.6360435c0.0406876-0.2672787,0.0615234-0.6315212,0.0615234-1.0927277
		V16.390934c0-0.4607048-0.0208359-0.8249474-0.0615234-1.0927286c-0.0406876-0.2672787-0.1319809-0.4792929-0.27388-0.635541
		c-0.1428986-0.1567497-0.3602219-0.234622-0.6529617-0.234622c-0.2927322,0-0.5080719,0.0778723-0.6460037,0.234622
		c-0.1379395,0.1562481-0.2272491,0.3682623-0.2679291,0.635541c-0.0406876,0.2677813-0.0615311,0.6320238-0.0615311,1.0927286
		v2.0744247c0,0.4612064,0.0208435,0.825449,0.0615311,1.0927277c0.0406799,0.2677822,0.1299896,0.4797955,0.2679291,0.6360435
		c0.1379318,0.1562481,0.3532715,0.234623,0.6460037,0.234623C85.1696167,20.4287529,85.38694,20.350378,85.5298386,20.1941299z"/>
	<path class="st2" d="M87.998764,13.8598232h0.8901215v0.5928364c0.3661652-0.469245,0.8166885-0.7038679,1.3535385-0.7038679
		c0.6182251,0,1.0389786,0.2572308,1.2622528,0.7716923s0.3354034,1.2037601,0.3354034,2.0678949v1.5067081
		c0,0.9796867-0.1260223,1.7262592-0.3780746,2.2407207s-0.6906662,0.7716923-1.3168259,0.7716923
		c-0.4396057,0-0.8583679-0.2260818-1.2562943-0.6787472v2.9134388H87.998764V13.8598232z M90.7604218,19.8605328
		c0.12603-0.3536911,0.189537-0.9339676,0.189537-1.7408276v-1.5313263c0-0.7651615-0.0635071-1.3127813-0.189537-1.6418562
		c-0.1260223-0.3290749-0.3840332-0.4938631-0.7740173-0.4938631c-0.3661728,0-0.7313538,0.184885-1.0975189,0.5556583v4.8647766
		c0.3254852,0.3456535,0.6995926,0.5184803,1.1223297,0.5184803C90.3843307,20.3915749,90.6343994,20.2147274,90.7604218,19.8605328
		z"/>
	<path class="st2" d="M93.8013535,20.8362026c-0.2768631-0.1813679-0.4793015-0.4732647-0.6092911-0.8766956
		c-0.1309891-0.403429-0.1954956-0.9510498-0.1954956-1.6423569v-1.8026257c0-0.6993456,0.067482-1.2489758,0.2014465-1.648386
		c0.1339645-0.3989086,0.341362-0.6852789,0.6212006-0.8581057c0.2808304-0.1728268,0.6450195-0.2592411,1.091568-0.2592411
		c0.4882278,0,0.8643188,0.1050024,1.1282806,0.3150072c0.2639618,0.2095032,0.4465485,0.5245094,0.5487595,0.944519
		c0.1012192,0.419507,0.1518326,0.9837065,0.1518326,1.6915932v0.6420727h-2.8529587v1.2469654
		c0,0.6832695,0.0774002,1.160553,0.2312088,1.4318504c0.154808,0.271801,0.4147949,0.4079533,0.7809677,0.4079533
		c0.3086166,0,0.5467758-0.0989742,0.7134857-0.2964191c0.1667175-0.1979465,0.2500687-0.5556583,0.2500687-1.0741386V18.564333
		h0.8653183v0.3948879c0,0.691309-0.1419067,1.2223492-0.4267044,1.5926208
		c-0.2847977,0.3707733-0.7521896,0.5556583-1.4021683,0.5556583C94.4433899,21.1075001,94.0772171,21.017067,93.8013535,20.8362026
		z M95.8624268,16.823v-0.5923328c0-0.4280481-0.0228195-0.7656641-0.0674744-1.012846
		c-0.0446548-0.2466803-0.1359558-0.4401064-0.2738876-0.5802765c-0.1389236-0.1396685-0.3463211-0.2095022-0.6221924-0.2095022
		c-0.2520523,0-0.4515076,0.0552635-0.5973816,0.1662951c-0.1468658,0.1115341-0.2520523,0.3049593-0.3175507,0.5802765
		c-0.0644989,0.2763224-0.0972443,0.6651821-0.0972443,1.1670837V16.823H95.8624268z"/>
	<path class="st2" d="M100.0779495,10.9951172h0.9754639l2.0977936,10.0013523h-0.9149323l-0.4882278-2.6793194h-2.3528214
		l-0.5001373,2.6793194h-0.9020309L100.0779495,10.9951172z M101.6269836,17.6378994l-1.0488968-5.3953133l-1.0488968,5.3953133
		H101.6269836z"/>
	<path class="st2" d="M103.9933167,10.9951172h0.9268417v10.0013523h-0.9268417V10.9951172z"/>
</g>
</svg>
