<?xml version="1.0" encoding="UTF-8"?>
<!-- Generator: Adobe Illustrator 22.0.1, SVG Export Plug-In . SVG Version: 6.00 Build 0)  -->
<svg id="video_logo" enable-background="new 0 0 128 60" version="1.1" viewBox="0 0 128 60" xml:space="preserve" xmlns="http://www.w3.org/2000/svg"><style type="text/css">
	.st0{fill:none;stroke:#333333;stroke-miterlimit:10;}
	.st1{display:none;fill:#333333;}
	.st2{fill:#FFFFFF;}
</style><rect class="st1" width="128" height="60"/><g id="symbol_1_"><polygon class="st2" points="27 36 36 30 27 25"/><path class="st2" d="m30 14c-8.8 0-16 7.2-16 16s7.2 16 16 16 16-7.2 16-16-7.2-16-16-16zm0 29c-7.2 0-13-5.8-13-13s5.8-13 13-13 13 5.8 13 13-5.8 13-13 13z"/></g><path class="st2" d="m56.529 29.038h2.6392l2.1719 11.632 2.0503-11.632h2.7002l-3.3091 16.443h-2.9434l-3.3091-16.443z"/><path class="st2" d="m68.856 29.038h2.9639v16.443h-2.9639v-16.443z"/><path class="st2" d="m75.357 29.038h3.877c1.3262 0 2.3682 0.1792 3.127 0.5376 0.75781 0.35889 1.2949 0.90723 1.6133 1.6445 0.31836 0.73828 0.47754 1.7158 0.47754 2.9336v5.9883c0 1.2451-0.15918 2.2529-0.47754 3.0244s-0.84961 1.3506-1.5938 1.7363-1.752 0.57812-3.0244 0.57812h-3.999v-16.443zm3.918 14.352c0.66309 0 1.1436-0.11523 1.4414-0.34473 0.29785-0.23047 0.4873-0.55176 0.56836-0.96484 0.081055-0.41211 0.12207-1.0244 0.12207-1.8369v-6.293c0-0.73047-0.047852-1.2852-0.14258-1.6641s-0.29395-0.66016-0.59863-0.84277-0.78125-0.27441-1.4316-0.27441h-0.89258v12.221h0.93359z"/><path class="st2" d="m87.665 29.038h6.9023v2.1108h-3.918v4.7305h3.085v2.0908h-3.085v5.46h3.958v2.0508h-6.9424v-16.443z"/><path class="st2" d="m98.185 44.334c-0.73047-0.91406-1.0957-2.25-1.0957-4.0098v-6.1709c0-1.7461 0.36523-3.0654 1.0957-3.959 0.73145-0.89307 1.9492-1.3394 3.6543-1.3394 1.6914 0 2.9033 0.44629 3.6338 1.3394 0.73047 0.89355 1.0957 2.2129 1.0957 3.959v6.1709c0 1.7461-0.36816 3.0791-1.1055 3.999-0.73828 0.9209-1.9463 1.3809-3.624 1.3809-1.7051 0-2.9229-0.45703-3.6543-1.3701zm4.9941-1.4727c0.22949-0.41895 0.34473-1.0283 0.34473-1.8262v-7.5723c0-0.79785-0.11133-1.4004-0.33496-1.8066-0.22266-0.40625-0.67285-0.6084-1.3496-0.6084s-1.1299 0.20605-1.3604 0.61914c-0.23047 0.41211-0.34473 1.0117-0.34473 1.7959v7.5723c0 0.79785 0.11426 1.4072 0.34473 1.8262 0.23047 0.41992 0.68359 0.62988 1.3604 0.62988 0.66309 0 1.1094-0.20996 1.3398-0.62988z"/><path class="st2" d="m58.866 11.724h-1.8656v-0.72849h4.6094v0.72849h-1.817v9.2729h-0.92684v-9.2729z"/><path class="st2" d="m62.554 20.836c-0.27636-0.18137-0.47979-0.47326-0.60979-0.8767-0.13-0.40343-0.195-0.95105-0.195-1.6424v-1.8026c0-0.69935 0.066982-1.249 0.20095-1.6484 0.13446-0.39891 0.34186-0.68528 0.62219-0.85811 0.28033-0.17283 0.64403-0.25924 1.0911-0.25924 0.48773 0 0.86382 0.105 1.1283 0.31501 0.26396 0.2095 0.44655 0.52451 0.54876 0.94452 0.10122 0.41951 0.15233 0.98371 0.15233 1.6916v0.64207h-2.8535v1.247c0 0.68327 0.076904 1.1606 0.23171 1.4319 0.15431 0.2718 0.4143 0.40795 0.78047 0.40795 0.30862 0 0.54628-0.098974 0.71299-0.29642 0.16672-0.19795 0.25007-0.55566 0.25007-1.0741v-0.49386h0.86581v0.39489c0 0.69131-0.1424 1.2223-0.4267 1.5926-0.2848 0.37077-0.75219 0.55566-1.4022 0.55566-0.45548 1e-7 -0.82116-0.090433-1.0975-0.2713zm2.0606-4.0132v-0.59233c0-0.42805-0.022324-0.76566-0.066978-1.0128-0.044655-0.24668-0.13595-0.44011-0.27438-0.58028-0.13843-0.13967-0.34533-0.2095-0.6217-0.2095-0.25205 0-0.45151 0.055264-0.59738 0.1663-0.14637 0.11153-0.25205 0.30496-0.31705 0.58028-0.065494 0.27632-0.097744 0.66518-0.097744 1.1671v0.4813h1.9752z"/><path class="st2" d="m66.743 10.995h0.89062v10.001h-0.89062v-10.001z"/><path class="st2" d="m69.81 20.836c-0.27686-0.18137-0.47929-0.47326-0.60929-0.8767-0.13099-0.40343-0.19549-0.95105-0.19549-1.6424v-1.8026c0-0.69935 0.067474-1.249 0.20144-1.6484 0.13396-0.39891 0.34136-0.68528 0.6212-0.85811 0.28083-0.17283 0.64502-0.25924 1.0916-0.25924 0.48823 0 0.86433 0.105 1.1283 0.31501 0.26395 0.2095 0.44655 0.52451 0.54876 0.94452 0.10121 0.41951 0.15182 0.98371 0.15182 1.6916v0.64207h-2.853v1.247c0 0.68327 0.0774 1.1606 0.23122 1.4319 0.1548 0.2718 0.41479 0.40795 0.78096 0.40795 0.30862 0 0.54678-0.098974 0.71349-0.29642 0.16671-0.19795 0.25007-0.55566 0.25007-1.0741v-0.49386h0.86531v0.39489c0 0.69131-0.14191 1.2223-0.4267 1.5926-0.2848 0.37077-0.75219 0.55566-1.4022 0.55566-0.45547 1e-7 -0.82165-0.090433-1.0975-0.2713zm2.0611-4.0132v-0.59233c0-0.42805-0.022827-0.76566-0.067482-1.0128-0.044655-0.24668-0.13595-0.44011-0.27389-0.58028-0.13892-0.13967-0.34632-0.2095-0.62219-0.2095-0.25205 0-0.45151 0.055264-0.59738 0.1663-0.14687 0.11153-0.25205 0.30496-0.31754 0.58028-0.064506 0.27632-0.097252 0.66518-0.097252 1.1671v0.4813h1.9757z"/><path class="st2" d="m74.332 20.564c-0.33739-0.36223-0.5309-0.8561-0.57952-1.4816l0.74326-0.23462c0.049622 0.5431 0.17564 0.94251 0.37808 1.1977 0.20343 0.25522 0.48823 0.38283 0.8544 0.38283 0.30862 0 0.54578-0.088423 0.71249-0.26577 0.16671-0.17685 0.25007-0.42604 0.25007-0.74707 0-0.46925-0.28481-0.94653-0.85341-1.4324l-0.96355-0.83952c-0.33343-0.27984-0.57655-0.55566-0.73135-0.82696-0.1548-0.2718-0.23121-0.59284-0.23121-0.96311 0-0.5019 0.15182-0.89528 0.45647-1.1791 0.30563-0.28386 0.71349-0.42604 1.2255-0.42604 0.52097 0 0.92088 0.16881 1.2017 0.50642 0.27984 0.33762 0.43662 0.7943 0.46938 1.3701l-0.6341 0.21c-0.04863-0.93849-0.38205-1.4072-1.0003-1.4072-0.27587 0-0.49517 0.075863-0.65791 0.22809-0.16274 0.15273-0.24412 0.36424-0.24412 0.63604 0 0.22206 0.040688 0.41549 0.12206 0.58028 0.081375 0.16479 0.23122 0.34565 0.45152 0.5431l0.99928 0.90131c0.38205 0.34565 0.67281 0.6692 0.87226 0.96964 0.19847 0.30044 0.2987 0.6687 0.2987 1.1048 0 0.5431-0.16274 0.96512-0.48823 1.2656-0.32449 0.30044-0.7641 0.45066-1.3168 0.45066-0.55273 2e-7 -0.99829-0.18087-1.3347-0.5431z"/><path class="st2" d="m78.951 20.756c-0.27587-0.23462-0.46143-0.55164-0.55472-0.95105-0.093277-0.39891-0.13992-0.90282-0.13992-1.5122v-1.667c0-0.69131 0.054573-1.2429 0.16473-1.6544 0.10915-0.41147 0.30067-0.71794 0.57258-0.9199 0.27289-0.20146 0.65692-0.30245 1.1531-0.30245 0.69066 0 1.162 0.19142 1.4141 0.57425 0.25205 0.38283 0.37808 0.95256 0.37808 1.7097v0.34616h-0.82959v-0.34616c0-0.41951-0.02977-0.74456-0.091301-0.97516-0.060532-0.2306-0.16075-0.39288-0.29869-0.48783-0.13793-0.094452-0.32945-0.14168-0.57257-0.14168-0.27686 0-0.48624 0.065814-0.62815 0.19744-0.1429 0.13163-0.24014 0.33963-0.29274 0.62348-0.053581 0.28386-0.079384 0.69332-0.079384 1.2284v2.0001c0 0.49436 0.028778 0.88122 0.085342 1.1611s0.15877 0.4813 0.30464 0.60489c0.14687 0.12359 0.35426 0.18539 0.62219 0.18539 0.27587 0 0.48129-0.059786 0.61525-0.17936 0.13496-0.11907 0.22427-0.29843 0.26892-0.53707s0.06649-0.57174 0.06649-1.0003v-0.39489h0.82959v0.34565c0 0.53506-0.046638 0.97768-0.13992 1.3274-0.094269 0.35018-0.2709 0.62348-0.5309 0.82093-0.25999 0.19795-0.63409 0.29642-1.1213 0.29642-0.52098 0-0.91891-0.11706-1.1958-0.35168z"/><path class="st2" d="m83.414 20.447c-0.27686-0.44011-0.4148-1.1173-0.4148-2.0307v-1.976c0-0.91337 0.13794-1.5906 0.4148-2.0307 0.27586-0.44061 0.76409-0.66066 1.4627-0.66066 0.70753 0 1.1997 0.22005 1.4756 0.66066 0.27686 0.44011 0.41479 1.1173 0.41479 2.0307v1.976c0 0.91337-0.13793 1.5906-0.41479 2.0307-0.27586 0.44061-0.76807 0.66066-1.4756 0.66066-0.6986 0-1.1868-0.22005-1.4627-0.66066zm2.1157-0.25271c0.1419-0.15625 0.23319-0.36826 0.27388-0.63604 0.040688-0.26728 0.061523-0.63152 0.061523-1.0927v-2.0744c0-0.4607-0.020836-0.82495-0.061523-1.0927-0.040688-0.26728-0.13198-0.47929-0.27388-0.63554-0.1429-0.15675-0.36022-0.23462-0.65296-0.23462-0.29273 0-0.50807 0.077872-0.646 0.23462-0.13794 0.15625-0.22725 0.36826-0.26793 0.63554-0.040688 0.26778-0.061531 0.63202-0.061531 1.0927v2.0744c0 0.46121 0.020844 0.82545 0.061531 1.0927 0.04068 0.26778 0.12999 0.4798 0.26793 0.63604 0.13793 0.15625 0.35327 0.23462 0.646 0.23462 0.29274 0 0.51006-0.078375 0.65296-0.23462z"/><path class="st2" d="m87.999 13.86h0.89012v0.59284c0.36617-0.46924 0.81669-0.70387 1.3535-0.70387 0.61823 0 1.039 0.25723 1.2623 0.77169s0.3354 1.2038 0.3354 2.0679v1.5067c0 0.97969-0.12602 1.7263-0.37807 2.2407s-0.69067 0.77169-1.3168 0.77169c-0.43961 0-0.85837-0.22608-1.2563-0.67875v2.9134h-0.89012v-9.4824zm2.7617 6.0007c0.12603-0.35369 0.18954-0.93397 0.18954-1.7408v-1.5313c0-0.76516-0.063507-1.3128-0.18954-1.6419-0.12602-0.32907-0.38403-0.49386-0.77402-0.49386-0.36617 0-0.73135 0.18488-1.0975 0.55566v4.8648c0.32549 0.34565 0.69959 0.51848 1.1223 0.51848 0.37312 1e-7 0.62318-0.17685 0.74921-0.53104z"/><path class="st2" d="m93.801 20.836c-0.27686-0.18137-0.4793-0.47326-0.60929-0.8767-0.13099-0.40343-0.1955-0.95105-0.1955-1.6424v-1.8026c0-0.69935 0.067482-1.249 0.20145-1.6484 0.13396-0.39891 0.34136-0.68528 0.6212-0.85811 0.28083-0.17283 0.64502-0.25924 1.0916-0.25924 0.48823 0 0.86432 0.105 1.1283 0.31501 0.26396 0.2095 0.44655 0.52451 0.54876 0.94452 0.10122 0.41951 0.15183 0.98371 0.15183 1.6916v0.64207h-2.853v1.247c0 0.68327 0.0774 1.1606 0.23121 1.4319 0.15481 0.2718 0.41479 0.40795 0.78097 0.40795 0.30862 0 0.54678-0.098974 0.71349-0.29642 0.16672-0.19795 0.25007-0.55566 0.25007-1.0741v-0.49386h0.86532v0.39489c0 0.69131-0.14191 1.2223-0.4267 1.5926-0.2848 0.37077-0.75219 0.55566-1.4022 0.55566-0.45548 1e-7 -0.82166-0.090433-1.0975-0.2713zm2.0611-4.0132v-0.59233c0-0.42805-0.02282-0.76566-0.067474-1.0128-0.044655-0.24668-0.13596-0.44011-0.27389-0.58028-0.13892-0.13967-0.34632-0.2095-0.62219-0.2095-0.25205 0-0.45151 0.055264-0.59738 0.1663-0.14687 0.11153-0.25205 0.30496-0.31755 0.58028-0.064499 0.27632-0.097244 0.66518-0.097244 1.1671v0.4813h1.9757z"/><path class="st2" d="m100.08 10.995h0.97546l2.0978 10.001h-0.91493l-0.48823-2.6793h-2.3528l-0.50014 2.6793h-0.90203l2.0849-10.001zm1.549 6.6428l-1.0489-5.3953-1.0489 5.3953h2.0978z"/><path class="st2" d="m103.99 10.995h0.92684v10.001h-0.92684v-10.001z"/></svg>
