<?xml version="1.0" encoding="UTF-8" standalone="no"?>
<svg
   xmlns:dc="http://purl.org/dc/elements/1.1/"
   xmlns:cc="http://creativecommons.org/ns#"
   xmlns:rdf="http://www.w3.org/1999/02/22-rdf-syntax-ns#"
   xmlns:svg="http://www.w3.org/2000/svg"
   xmlns="http://www.w3.org/2000/svg"
   xmlns:sodipodi="http://sodipodi.sourceforge.net/DTD/sodipodi-0.dtd"
   xmlns:inkscape="http://www.inkscape.org/namespaces/inkscape"
   width="889"
   height="889"
   viewBox="0 0 889 889"
   version="1.1"
>
  <g
     id="Templates"
     style="fill:none;fill-rule:evenodd;stroke:none;stroke-width:1"
     transform="translate(0,119.619)">
    <g
       id="Error/Internet-explorer-(1201+)-"
       transform="translate(-159,-201)">
      <g
         id="Internet-explorer-is-not-supported"
         transform="translate(159,188)">
        <rect
           id="Rectangle"
           x="12"
           y="0"
           width="860"
           height="564"
           style="fill:#bd10e0;fill-opacity:0" />
        <path
           d="m 553.3134,481.04587 c 0,0 11.2,0.3 18.9,0 7.7,-0.3 18.3,1 18.3,-4.4 0,-5.4 -5.7,-4.8 -5.7,-4.8 0,0 -9.7,0.5 -9.7,-4.6 0,-6.1 8.8,-5.3 16.8,-5.1 8,0.2 26.3,0.2 41.7,0 14.7,-0.1 17.1,1.2 17.2,4.9 0.1,3.6 -2.8,4.2 -7.2,4.5 -5.6,0.4 -13.7,-0.5 -13.6,4.8 0,2.5 1.1,4.6 5.8,4.6 3.3,0 32.6,-0.1 38.9,-0.1 5.4,0.1 6.8,2.6 6.8,4.4 0,5.2 -4.4,5.2 -4.4,5.2 0,0 -34,-0.1 -42.4,0 -7.4,0.1 -10,-0.5 -12.3,2.8 -2.9,5 -2.3,6.5 -4.4,10.5 -2.5,4.6 -12.2,4.4 -16.5,4.5 -0.3,0 -24.3,0 -27.4,0 -5.3,-0.1 -15.9,0.6 -16.4,-3.6 -0.3,-2.5 0.6,-4.7 3.9,-5.1 4.9,-0.6 6,-1.3 6,-4.4 0,-2.6 -2.4,-3.5 -3.1,-3.7 -4.1,-0.9 -8.6,-0.5 -10.5,-0.4 -3.5,0.1 -8.3,0 -8,-5.4 0.2,-5.2 7.3,-4.6 7.3,-4.6 z"
           id="Shape"
           inkscape:connector-curvature="0"
           style="fill:#ffffff;fill-rule:nonzero" />
        <path
           d="m 699.6,250.36304 h 40.3 c 0,0 18,-1.9 18.7,7.6 0.9,12 -48.7,8.4 -62.2,8.9 -13.5,0.5 -46.5,-0.7 -46.5,-0.7 0,0 -12.9,-1.8 -12.9,8.3 0,9.5 14.6,7.7 27.2,8 18.1,0.5 57.8,-3.8 62.4,11.1 4.6,14.8 10.1,18.1 21.1,18.4 11,0.3 93.6,0 93.6,0 0,0 10,1 10,-6.9 0,-7.9 -7.2,-9 -22,-8.4 -14.8,0.5 -42.5,3.1 -43,-6.1 -0.5,-9.2 10.2,-7.7 25.1,-7.9 14.9,-0.2 68.7,-0.4 68.7,-0.4 0,0 8.2,1.6 8.2,-7.6 0,-5.1 -2.9,-7.3 -13.5,-7.9 -8.4,-0.5 -24.2,-0.5 -36.5,-1 -8.2,-0.3 -10,-2.8 -10.2,-7.2 -0.2,-4.4 3.3,-8.3 11,-8.2 7.7,0.1 12.7,-3.2 12.2,-9.6 -0.5,-6.4 -1.5,-10.1 -28.6,-9.3 l -111,-0.1 c -14.1,-0.3 -35.6,-2.4 -35.5,8.3 -0.2,8.9 4.9,10.7 23.4,10.7 z"
           id="path8"
           inkscape:connector-curvature="0"
           style="fill:#ffffff;fill-rule:nonzero" />
        <path
           d="M 62.7,88.2 H 103 c 0,0 18,-1.9 18.7,7.6 0.9,12 -48.7,8.4 -62.2,8.9 C 46,105.2 13,104 13,104 c 0,0 -12.9,-1.8 -12.9,8.3 0,9.5 14.6,7.7 27.2,8 18.1,0.5 57.8,-3.8 62.4,11.1 4.6,14.8 10.1,18.1 21.1,18.4 11,0.3 93.6,0 93.6,0 0,0 10,1 10,-6.9 0,-7.9 -7.2,-9 -22,-8.4 -14.8,0.5 -42.5,3.1 -43,-6.1 -0.5,-9.2 10.2,-7.7 25.1,-7.9 14.8,-0.3 68.7,-0.4 68.7,-0.4 0,0 8.2,1.6 8.2,-7.6 0,-5.1 -3,-7.3 -13.5,-7.9 -8.4,-0.5 -24.2,-0.5 -36.5,-1 -8.2,-0.3 -10,-2.8 -10.2,-7.2 -0.2,-4.4 3.3,-8.3 11,-8.2 7.7,0.1 12.7,-3.2 12.2,-9.6 -0.5,-6.4 -1.5,-10 -28.6,-9.3 l -111,-0.1 c -14.1,-0.3 -35.6,-2.4 -35.6,8.3 -0.1,8.9 5,10.7 23.5,10.7 z"
           id="path10"
           inkscape:connector-curvature="0"
           style="fill:#ffffff;fill-rule:nonzero" />
        <g
           id="Group"
           transform="translate(204,550)"
           style="fill:#a8a9b4;fill-rule:nonzero">
          <path
             d="M 412.8,3.6 H 29.8 C 29,3.6 28.3,3.2 28.3,2.7 V 1 c 0,-0.5 0.7,-0.9 1.5,-0.9 h 383 c 0.8,0 1.5,0.4 1.5,0.9 v 1.7 c 0,0.5 -0.6,0.9 -1.5,0.9 z"
             id="path12"
             inkscape:connector-curvature="0" />
          <path
             d="m 460.5,3.6 h -31.3 c -0.8,0 -1.5,-0.4 -1.5,-0.9 V 1 c 0,-0.5 0.7,-0.9 1.5,-0.9 h 31.3 c 0.8,0 1.5,0.4 1.5,0.9 v 1.7 c 0,0.5 -0.7,0.9 -1.5,0.9 z"
             id="path14"
             inkscape:connector-curvature="0" />
          <path
             d="M 14.9,3.6 H 1.5 C 0.7,3.6 0,3.2 0,2.7 V 1 C 0,0.5 0.7,0.1 1.5,0.1 h 13.4 c 0.8,0 1.5,0.4 1.5,0.9 v 1.7 c 0,0.5 -0.7,0.9 -1.5,0.9 z"
             id="path16"
             inkscape:connector-curvature="0" />
        </g>
        <g
           id="Internet-explorer"
           transform="translate(258,184)"
           style="fill:#525462">
          <g
             id="internet-explorer"
             style="fill-rule:nonzero">
            <path
               d="m 236.23122,174.55865 h 75.9496 C 312.76576,169.3208 313,163.96841 313,158.49699 313,132.82867 306.07075,108.75315 293.97673,88.019987 306.48581,54.964933 306.03986,26.91031 289.2933,10.143449 273.3685,-5.6238387 230.6411,-3.0641103 182.33967,18.206593 178.76693,17.937822 175.15945,17.799596 171.51786,17.799596 105.22147,17.799596 49.597599,63.168863 34.223638,124.3003 55.02041,97.821827 76.899556,78.623863 106.12752,64.643267 103.46985,67.119804 87.963326,82.450018 85.355203,85.045582 8.2794746,161.66977 -16.026327,261.76411 10.126332,287.77671 c 19.879778,19.76559 55.907011,16.4277 97.290128,-3.72696 19.24271,9.74553 41.0234,15.23998 64.09946,15.23998 62.14,0 114.80117,-39.7769 133.87722,-95.1739 h -76.5339 c -10.53159,19.31955 -31.12824,32.46951 -54.76672,32.46951 -23.63849,0 -44.23642,-13.14996 -54.76737,-32.46951 -4.68149,-8.72739 -7.37263,-18.73465 -7.37263,-29.32681 v -0.23037 z M 112.06642,137.4349 c 1.75548,-31.0719 27.73504,-55.86095 59.4495,-55.86095 31.71318,0 57.69338,24.78841 59.44822,55.86095 z M 288.60025,25.768031 c 10.78706,10.84045 10.51743,30.785214 1.29087,55.681133 C 274.08215,57.481146 251.11419,38.59419 223.99885,27.810054 252.99129,15.447206 276.57573,13.80962 288.60025,25.768031 Z M 30.078183,282.84348 c -13.765201,-13.69263 -9.615885,-42.43262 8.117163,-77.05807 11.038673,30.80377 32.547161,56.66279 60.275762,73.3215 -30.704165,13.86093 -55.835582,16.21396 -68.392925,3.73657 z"
               id="path19"
               inkscape:connector-curvature="0" />
          </g>
          <polygon
             id="Path-15"
             points="306.22949,159.44444 302,134 384.06152,77 396.06152,94 " />
          <path
             d="m 392.71227,70.302851 c 2.14784,-0.584736 4.37083,-0.544362 6.4332,0.04453 0.10116,-0.136696 0.2111,-0.269087 0.32984,-0.396424 L 411.06928,57.51794 c 1.69496,-1.81762 4.54247,-1.917057 6.36009,-0.222099 1.81762,1.694958 1.91705,4.542464 0.2221,6.360084 l -11.40559,12.230996 c 0.10397,0.180428 0.20385,0.364507 0.29947,0.552179 0.0964,0.189123 0.18723,0.3796 0.27266,0.571251 0.4193,-0.196279 0.87627,-0.330677 1.36071,-0.39016 l 16.87329,-2.071779 c 2.46676,-0.30288 4.71199,1.451289 5.01487,3.918046 0.30288,2.466756 -1.45129,4.71199 -3.91805,5.014869 l -16.87328,2.071779 c -0.67433,0.0828 -1.33211,0.01187 -1.93819,-0.185313 -0.32031,1.056325 -0.78531,2.068196 -1.38455,3.003472 l 14.06537,5.682777 c 2.30431,0.931002 3.4176,3.553744 2.4866,5.858057 -0.93101,2.304311 -3.55375,3.417601 -5.85806,2.486601 l -15.76213,-6.368316 c -1.04019,-0.420266 -1.83769,-1.185262 -2.314,-2.110083 -5.71012,2.316844 -12.34198,-0.08513 -15.19141,-5.677448 -1.92721,-3.78236 -1.6567,-8.106708 0.33863,-11.517605 -0.004,-0.07462 -0.006,-0.149716 -0.006,-0.225248 v -17 c 0,-2.485281 2.01472,-4.5 4.5,-4.5 2.48528,0 4.5,2.014719 4.5,4.5 z"
             id="Combined-Shape"
             inkscape:connector-curvature="0" />
        </g>
        <rect
           id="rect25"
           x="532"
           y="13"
           width="241"
           height="100"
           rx="6"
           style="fill:#ff8468"
           ry="6" />
        <text
           id="Ooops!"
           font-size="48"
           font-weight="normal"
           letter-spacing="0.2666667"
           style="font-weight:normal;font-size:48px;font-family:SourceSansPro-Regular, 'Source Sans Pro';letter-spacing:0.26666671;fill:#525462">
          <tspan
             x="579.43597"
             y="80"
             id="tspan27">Ooops!</tspan>
        </text>
        <path
           d="M 654.06152,113 652.5,298.5"
           id="Path-17"
           inkscape:connector-curvature="0"
           style="stroke:#c0c3ce;stroke-width:7" />
        <path
           d="m 343.283,672.216 c -1.656,0 -3.114,-0.684 -4.14,-1.746 l 0.9,-1.044 c 0.846,0.882 2.034,1.476 3.258,1.476 1.548,0 2.466,-0.774 2.466,-1.926 0,-1.206 -0.846,-1.584 -1.962,-2.088 l -1.692,-0.738 c -1.116,-0.468 -2.394,-1.314 -2.394,-3.042 0,-1.8 1.566,-3.132 3.708,-3.132 1.404,0 2.646,0.594 3.492,1.458 l -0.81,0.972 c -0.72,-0.684 -1.584,-1.116 -2.682,-1.116 -1.314,0 -2.196,0.666 -2.196,1.728 0,1.134 1.026,1.566 1.962,1.962 l 1.674,0.72 c 1.368,0.594 2.43,1.404 2.43,3.15 0,1.872 -1.53,3.366 -4.014,3.366 z m 9.594,0 c -2.142,0 -4.05,-1.674 -4.05,-4.572 0,-2.934 1.908,-4.608 4.05,-4.608 2.142,0 4.05,1.674 4.05,4.608 0,2.898 -1.908,4.572 -4.05,4.572 z m 0,-1.224 c 1.512,0 2.52,-1.35 2.52,-3.348 0,-2.016 -1.008,-3.384 -2.52,-3.384 -1.494,0 -2.52,1.368 -2.52,3.384 0,1.998 1.026,3.348 2.52,3.348 z m 6.354,1.008 v -8.748 h 1.224 l 0.126,1.584 h 0.054 c 0.594,-1.098 1.494,-1.8 2.484,-1.8 0.378,0 0.648,0.054 0.936,0.18 l -0.288,1.296 c -0.288,-0.09 -0.486,-0.144 -0.846,-0.144 -0.738,0 -1.62,0.54 -2.214,2.016 V 672 Z m 6.246,0 v -8.748 h 1.224 l 0.126,1.584 h 0.054 c 0.594,-1.098 1.494,-1.8 2.484,-1.8 0.378,0 0.648,0.054 0.936,0.18 l -0.288,1.296 c -0.288,-0.09 -0.486,-0.144 -0.846,-0.144 -0.738,0 -1.62,0.54 -2.214,2.016 V 672 Z m 6.84,3.762 c -0.396,0 -0.738,-0.072 -1.026,-0.18 l 0.288,-1.17 c 0.18,0.054 0.45,0.126 0.666,0.126 0.99,0 1.62,-0.792 1.98,-1.872 l 0.198,-0.648 -3.51,-8.766 h 1.53 l 1.782,4.842 c 0.27,0.756 0.576,1.656 0.846,2.466 h 0.072 c 0.252,-0.792 0.504,-1.692 0.738,-2.466 l 1.566,-4.842 h 1.44 l -3.294,9.468 c -0.612,1.728 -1.512,3.042 -3.276,3.042 z m 16.128,-16.506 -0.324,1.134 c -0.324,-0.144 -0.666,-0.216 -0.99,-0.216 -0.828,0 -1.224,0.576 -1.224,1.692 v 1.386 h 1.854 v 1.206 h -1.854 V 672 h -1.476 v -7.542 h -1.188 v -1.116 l 1.188,-0.09 v -1.386 c 0,-1.782 0.81,-2.898 2.556,-2.898 0.54,0 1.062,0.126 1.458,0.288 z m 4.212,12.96 c -2.142,0 -4.05,-1.674 -4.05,-4.572 0,-2.934 1.908,-4.608 4.05,-4.608 2.142,0 4.05,1.674 4.05,4.608 0,2.898 -1.908,4.572 -4.05,4.572 z m 0,-1.224 c 1.512,0 2.52,-1.35 2.52,-3.348 0,-2.016 -1.008,-3.384 -2.52,-3.384 -1.494,0 -2.52,1.368 -2.52,3.384 0,1.998 1.026,3.348 2.52,3.348 z m 6.354,1.008 v -8.748 h 1.224 l 0.126,1.584 h 0.054 c 0.594,-1.098 1.494,-1.8 2.484,-1.8 0.378,0 0.648,0.054 0.936,0.18 l -0.288,1.296 c -0.288,-0.09 -0.486,-0.144 -0.846,-0.144 -0.738,0 -1.62,0.54 -2.214,2.016 V 672 Z m 12.6,0.216 c -1.872,0 -2.502,-1.188 -2.502,-2.916 v -4.842 h -1.296 v -1.116 l 1.368,-0.09 0.18,-2.448 h 1.242 v 2.448 h 2.358 v 1.206 h -2.358 v 4.86 c 0,1.08 0.342,1.692 1.35,1.692 0.306,0 0.702,-0.126 0.99,-0.234 l 0.288,1.116 c -0.486,0.162 -1.08,0.324 -1.62,0.324 z m 3.33,-0.216 v -12.816 h 1.476 v 3.492 l -0.054,1.8 c 0.828,-0.792 1.71,-1.44 2.916,-1.44 1.836,0 2.664,1.188 2.664,3.42 V 672 h -1.476 v -5.346 c 0,-1.638 -0.504,-2.34 -1.656,-2.34 -0.9,0 -1.512,0.468 -2.394,1.35 V 672 Z m 13.338,0.216 c -2.34,0 -4.194,-1.71 -4.194,-4.572 0,-2.862 1.926,-4.608 3.924,-4.608 2.232,0 3.492,1.602 3.492,4.104 0,0.306 -0.018,0.63 -0.054,0.846 h -5.904 c 0.108,1.854 1.242,3.042 2.916,3.042 0.828,0 1.53,-0.27 2.178,-0.684 l 0.522,0.972 c -0.756,0.486 -1.692,0.9 -2.88,0.9 z m -2.754,-5.292 h 4.68 c 0,-1.764 -0.792,-2.718 -2.16,-2.718 -1.224,0 -2.34,0.99 -2.52,2.718 z M 437.261,672 v -8.748 h 1.476 V 672 Z m 0.756,-10.548 c -0.576,0 -1.026,-0.396 -1.026,-0.954 0,-0.576 0.45,-0.954 1.026,-0.954 0.576,0 1.026,0.378 1.026,0.954 0,0.558 -0.45,0.954 -1.026,0.954 z M 441.689,672 v -8.748 h 1.224 l 0.126,1.26 h 0.054 c 0.828,-0.828 1.728,-1.476 2.934,-1.476 1.836,0 2.664,1.188 2.664,3.42 V 672 h -1.476 v -5.346 c 0,-1.638 -0.504,-2.34 -1.656,-2.34 -0.9,0 -1.512,0.468 -2.394,1.35 V 672 Z m 13.302,0.216 c -2.322,0 -4.104,-1.674 -4.104,-4.572 0,-2.934 1.962,-4.608 4.212,-4.608 1.152,0 1.944,0.468 2.556,1.026 l -0.756,0.972 c -0.504,-0.45 -1.044,-0.774 -1.746,-0.774 -1.584,0 -2.736,1.368 -2.736,3.384 0,1.998 1.098,3.348 2.7,3.348 0.81,0 1.512,-0.396 2.052,-0.882 l 0.648,0.99 c -0.792,0.702 -1.782,1.116 -2.826,1.116 z m 7.776,0 c -2.142,0 -4.05,-1.674 -4.05,-4.572 0,-2.934 1.908,-4.608 4.05,-4.608 2.142,0 4.05,1.674 4.05,4.608 0,2.898 -1.908,4.572 -4.05,4.572 z m 0,-1.224 c 1.512,0 2.52,-1.35 2.52,-3.348 0,-2.016 -1.008,-3.384 -2.52,-3.384 -1.494,0 -2.52,1.368 -2.52,3.384 0,1.998 1.026,3.348 2.52,3.348 z m 6.354,1.008 v -8.748 h 1.224 l 0.126,1.26 h 0.054 c 0.828,-0.828 1.728,-1.476 2.934,-1.476 1.836,0 2.664,1.188 2.664,3.42 V 672 h -1.476 v -5.346 c 0,-1.638 -0.504,-2.34 -1.656,-2.34 -0.9,0 -1.512,0.468 -2.394,1.35 V 672 Z m 11.736,0 -3.15,-8.748 h 1.53 l 1.656,4.968 c 0.252,0.864 0.54,1.746 0.81,2.574 h 0.072 c 0.252,-0.828 0.54,-1.71 0.792,-2.574 l 1.656,-4.968 h 1.458 L 482.585,672 Z m 6.516,0 v -8.748 h 1.476 V 672 Z m 0.756,-10.548 c -0.576,0 -1.026,-0.396 -1.026,-0.954 0,-0.576 0.45,-0.954 1.026,-0.954 0.576,0 1.026,0.378 1.026,0.954 0,0.558 -0.45,0.954 -1.026,0.954 z M 491.801,672 v -8.748 h 1.224 l 0.126,1.26 h 0.054 c 0.828,-0.828 1.728,-1.476 2.934,-1.476 1.836,0 2.664,1.188 2.664,3.42 V 672 h -1.476 v -5.346 c 0,-1.638 -0.504,-2.34 -1.656,-2.34 -0.9,0 -1.512,0.468 -2.394,1.35 V 672 Z m 9.846,0 v -8.748 h 1.476 V 672 Z m 0.756,-10.548 c -0.576,0 -1.026,-0.396 -1.026,-0.954 0,-0.576 0.45,-0.954 1.026,-0.954 0.576,0 1.026,0.378 1.026,0.954 0,0.558 -0.45,0.954 -1.026,0.954 z m 7.218,10.764 c -2.34,0 -4.194,-1.71 -4.194,-4.572 0,-2.862 1.926,-4.608 3.924,-4.608 2.232,0 3.492,1.602 3.492,4.104 0,0.306 -0.018,0.63 -0.054,0.846 h -5.904 c 0.108,1.854 1.242,3.042 2.916,3.042 0.828,0 1.53,-0.27 2.178,-0.684 l 0.522,0.972 c -0.756,0.486 -1.692,0.9 -2.88,0.9 z m -2.754,-5.292 h 4.68 c 0,-1.764 -0.792,-2.718 -2.16,-2.718 -1.224,0 -2.34,0.99 -2.52,2.718 z m 8.136,5.076 v -8.748 h 1.224 l 0.126,1.26 h 0.054 c 0.828,-0.828 1.728,-1.476 2.934,-1.476 1.836,0 2.664,1.188 2.664,3.42 V 672 h -1.476 v -5.346 c 0,-1.638 -0.504,-2.34 -1.656,-2.34 -0.9,0 -1.512,0.468 -2.394,1.35 V 672 Z m 13.302,0.216 c -2.322,0 -4.104,-1.674 -4.104,-4.572 0,-2.934 1.962,-4.608 4.212,-4.608 1.152,0 1.944,0.468 2.556,1.026 l -0.756,0.972 c -0.504,-0.45 -1.044,-0.774 -1.746,-0.774 -1.584,0 -2.736,1.368 -2.736,3.384 0,1.998 1.098,3.348 2.7,3.348 0.81,0 1.512,-0.396 2.052,-0.882 l 0.648,0.99 c -0.792,0.702 -1.782,1.116 -2.826,1.116 z m 7.92,0 c -2.34,0 -4.194,-1.71 -4.194,-4.572 0,-2.862 1.926,-4.608 3.924,-4.608 2.232,0 3.492,1.602 3.492,4.104 0,0.306 -0.018,0.63 -0.054,0.846 h -5.904 c 0.108,1.854 1.242,3.042 2.916,3.042 0.828,0 1.53,-0.27 2.178,-0.684 l 0.522,0.972 c -0.756,0.486 -1.692,0.9 -2.88,0.9 z m -2.754,-5.292 h 4.68 c 0,-1.764 -0.792,-2.718 -2.16,-2.718 -1.224,0 -2.34,0.99 -2.52,2.718 z m 8.91,5.292 c -0.594,0 -1.08,-0.468 -1.08,-1.116 0,-0.684 0.486,-1.152 1.08,-1.152 0.576,0 1.062,0.468 1.062,1.152 0,0.648 -0.486,1.116 -1.062,1.116 z"
           id="Sorry-for-the-inconv"
           inkscape:connector-curvature="0"
           style="fill:#2c2f3c" />
        <path
           d="m 73.664,633 v -27.468 h 4.872 V 633 Z m 11.844,0 v -27.468 h 4.998 l 8.568,15.456 2.814,5.838 h 0.168 c -0.21,-2.814 -0.63,-6.3 -0.63,-9.366 v -11.928 h 4.662 V 633 h -4.998 l -8.568,-15.456 -2.814,-5.838 H 89.54 c 0.21,2.898 0.63,6.216 0.63,9.282 V 633 Z m 33.096,0 v -23.352 h -7.938 v -4.116 h 20.748 v 4.116 h -7.938 V 633 Z m 17.388,0 v -27.468 h 16.548 v 4.116 h -11.676 v 7.014 h 9.87 v 4.116 h -9.87 v 8.106 H 152.96 V 633 Z m 27.468,-23.562 v 8.946 h 3.906 c 3.738,0 5.796,-1.596 5.796,-4.704 0,-3.15 -2.058,-4.242 -5.796,-4.242 z M 179.042,633 h -5.46 l -5.922,-10.752 h -4.2 V 633 h -4.872 v -27.468 h 9.282 c 5.712,0 10.08,2.016 10.08,8.148 0,4.2 -2.184,6.72 -5.46,7.854 z m 4.41,0 v -27.468 h 4.998 l 8.568,15.456 2.814,5.838 H 200 c -0.21,-2.814 -0.63,-6.3 -0.63,-9.366 v -11.928 h 4.662 V 633 h -4.998 l -8.568,-15.456 -2.814,-5.838 h -0.168 c 0.21,2.898 0.63,6.216 0.63,9.282 V 633 Z m 27.552,0 v -27.468 h 16.548 v 4.116 h -11.676 v 7.014 h 9.87 v 4.116 h -9.87 v 8.106 h 12.096 V 633 Z m 28.14,0 v -23.352 h -7.938 v -4.116 h 20.748 v 4.116 h -7.938 V 633 Z m 25.788,0 v -27.468 h 16.548 v 4.116 h -11.676 v 7.014 h 9.87 v 4.116 h -9.87 v 8.106 H 281.9 V 633 Z m 19.656,0 7.812,-14.154 -7.308,-13.314 h 5.418 l 3.024,6.09 c 0.672,1.26 1.26,2.562 2.1,4.2 h 0.168 c 0.672,-1.638 1.218,-2.94 1.848,-4.2 l 2.898,-6.09 h 5.166 l -7.308,13.524 7.812,13.944 H 300.8 l -3.36,-6.468 c -0.714,-1.428 -1.386,-2.814 -2.226,-4.494 h -0.168 c -0.714,1.68 -1.344,3.066 -2.016,4.494 L 289.754,633 Z m 25.662,0 v -27.468 h 8.652 c 6.09,0 10.626,2.1 10.626,8.484 0,6.09 -4.536,8.904 -10.458,8.904 h -3.948 V 633 Z m 4.872,-13.986 h 3.57 c 4.074,0 6.048,-1.638 6.048,-4.998 0,-3.444 -2.142,-4.578 -6.216,-4.578 h -3.402 z M 334.694,633 v -27.468 h 4.872 v 23.352 H 350.99 V 633 Z m 30.45,0.504 c -7.14,0 -12.096,-5.46 -12.096,-14.364 0,-8.862 4.956,-14.112 12.096,-14.112 7.182,0 12.138,5.25 12.138,14.112 0,8.904 -4.956,14.364 -12.138,14.364 z m 0,-4.242 c 4.326,0 7.098,-3.948 7.098,-10.122 0,-6.132 -2.772,-9.87 -7.098,-9.87 -4.326,0 -7.098,3.738 -7.098,9.87 0,6.174 2.772,10.122 7.098,10.122 z m 22.512,-19.824 v 8.946 h 3.906 c 3.738,0 5.796,-1.596 5.796,-4.704 0,-3.15 -2.058,-4.242 -5.796,-4.242 z M 403.238,633 h -5.46 l -5.922,-10.752 h -4.2 V 633 h -4.872 v -27.468 h 9.282 c 5.712,0 10.08,2.016 10.08,8.148 0,4.2 -2.184,6.72 -5.46,7.854 z m 4.41,0 v -27.468 h 16.548 v 4.116 H 412.52 v 7.014 h 9.87 v 4.116 h -9.87 v 8.106 h 12.096 V 633 Z m 27.468,-23.562 v 8.946 h 3.906 c 3.738,0 5.796,-1.596 5.796,-4.704 0,-3.15 -2.058,-4.242 -5.796,-4.242 z M 450.698,633 h -5.46 l -5.922,-10.752 h -4.2 V 633 h -4.872 v -27.468 h 9.282 c 5.712,0 10.08,2.016 10.08,8.148 0,4.2 -2.184,6.72 -5.46,7.854 z m 12.81,0 v -27.468 h 4.872 V 633 Z m 19.866,0.504 c -3.696,0 -7.308,-1.47 -9.912,-4.032 l 2.856,-3.318 c 1.974,1.848 4.62,3.108 7.14,3.108 3.108,0 4.788,-1.386 4.788,-3.528 0,-2.268 -1.764,-2.982 -4.242,-4.032 l -3.78,-1.638 c -2.688,-1.134 -5.544,-3.276 -5.544,-7.308 0,-4.368 3.864,-7.728 9.24,-7.728 3.192,0 6.3,1.344 8.442,3.486 l -2.478,3.108 c -1.764,-1.47 -3.612,-2.352 -5.964,-2.352 -2.604,0 -4.326,1.218 -4.326,3.234 0,2.142 2.1,2.94 4.368,3.864 l 3.738,1.554 c 3.234,1.386 5.544,3.444 5.544,7.434 0,4.452 -3.696,8.148 -9.87,8.148 z M 506.642,633 v -27.468 h 4.998 l 8.568,15.456 2.814,5.838 h 0.168 c -0.21,-2.814 -0.63,-6.3 -0.63,-9.366 v -11.928 h 4.662 V 633 h -4.998 l -8.568,-15.456 -2.814,-5.838 h -0.168 c 0.21,2.898 0.63,6.216 0.63,9.282 V 633 Z m 38.22,0.504 c -7.14,0 -12.096,-5.46 -12.096,-14.364 0,-8.862 4.956,-14.112 12.096,-14.112 7.182,0 12.138,5.25 12.138,14.112 0,8.904 -4.956,14.364 -12.138,14.364 z m 0,-4.242 c 4.326,0 7.098,-3.948 7.098,-10.122 0,-6.132 -2.772,-9.87 -7.098,-9.87 -4.326,0 -7.098,3.738 -7.098,9.87 0,6.174 2.772,10.122 7.098,10.122 z M 566.954,633 v -23.352 h -7.938 v -4.116 h 20.748 v 4.116 h -7.938 V 633 Z m 33.81,0.504 c -3.696,0 -7.308,-1.47 -9.912,-4.032 l 2.856,-3.318 c 1.974,1.848 4.62,3.108 7.14,3.108 3.108,0 4.788,-1.386 4.788,-3.528 0,-2.268 -1.764,-2.982 -4.242,-4.032 l -3.78,-1.638 c -2.688,-1.134 -5.544,-3.276 -5.544,-7.308 0,-4.368 3.864,-7.728 9.24,-7.728 3.192,0 6.3,1.344 8.442,3.486 l -2.478,3.108 c -1.764,-1.47 -3.612,-2.352 -5.964,-2.352 -2.604,0 -4.326,1.218 -4.326,3.234 0,2.142 2.1,2.94 4.368,3.864 l 3.738,1.554 c 3.234,1.386 5.544,3.444 5.544,7.434 0,4.452 -3.696,8.148 -9.87,8.148 z m 25.158,0 c -6.342,0 -10.416,-3.528 -10.416,-12.558 v -15.414 h 4.872 v 15.792 c 0,5.964 2.226,7.938 5.544,7.938 3.36,0 5.712,-1.974 5.712,-7.938 v -15.792 h 4.662 v 15.414 c 0,9.03 -3.99,12.558 -10.374,12.558 z M 643.142,633 v -27.468 h 8.652 c 6.09,0 10.626,2.1 10.626,8.484 0,6.09 -4.536,8.904 -10.458,8.904 h -3.948 V 633 Z m 4.872,-13.986 h 3.57 c 4.074,0 6.048,-1.638 6.048,-4.998 0,-3.444 -2.142,-4.578 -6.216,-4.578 h -3.402 z M 667.586,633 v -27.468 h 8.652 c 6.09,0 10.626,2.1 10.626,8.484 0,6.09 -4.536,8.904 -10.458,8.904 h -3.948 V 633 Z m 4.872,-13.986 h 3.57 c 4.074,0 6.048,-1.638 6.048,-4.998 0,-3.444 -2.142,-4.578 -6.216,-4.578 h -3.402 z m 30.24,14.49 c -7.14,0 -12.096,-5.46 -12.096,-14.364 0,-8.862 4.956,-14.112 12.096,-14.112 7.182,0 12.138,5.25 12.138,14.112 0,8.904 -4.956,14.364 -12.138,14.364 z m 0,-4.242 c 4.326,0 7.098,-3.948 7.098,-10.122 0,-6.132 -2.772,-9.87 -7.098,-9.87 -4.326,0 -7.098,3.738 -7.098,9.87 0,6.174 2.772,10.122 7.098,10.122 z m 22.512,-19.824 v 8.946 h 3.906 c 3.738,0 5.796,-1.596 5.796,-4.704 0,-3.15 -2.058,-4.242 -5.796,-4.242 z M 740.792,633 h -5.46 l -5.922,-10.752 h -4.2 V 633 h -4.872 v -27.468 h 9.282 c 5.712,0 10.08,2.016 10.08,8.148 0,4.2 -2.184,6.72 -5.46,7.854 z m 9.282,0 v -23.352 h -7.938 v -4.116 h 20.748 v 4.116 h -7.938 V 633 Z m 17.388,0 v -27.468 h 16.548 v 4.116 h -11.676 v 7.014 h 9.87 v 4.116 h -9.87 v 8.106 H 784.43 V 633 Z m 22.596,0 v -27.468 h 7.35 c 8.4,0 13.356,4.536 13.356,13.608 0,9.114 -4.956,13.86 -13.104,13.86 z m 4.872,-3.948 h 2.142 c 5.544,0 8.694,-3.15 8.694,-9.912 0,-6.72 -3.15,-9.66 -8.694,-9.66 h -2.142 z"
           id="Internet-Explorer-is"
           inkscape:connector-curvature="0"
           style="fill:#2c2f3c" />
      </g>
    </g>
  </g>
</svg>
