<?xml version="1.0" encoding="UTF-8" standalone="no"?>
<svg
   xmlns="http://www.w3.org/2000/svg"
   width="24"
   height="24"
   viewBox="0 0 24 24"
   version="1.1"
   id="svg8">
  <defs
     id="defs2" />
  <g
     id="layer1"
     transform="translate(0,-290.65)">
    <path
       style="opacity:1;vector-effect:none;fill-opacity:1;fill-rule:nonzero;stroke:none;stroke-width:0.05397888;stroke-linecap:butt;stroke-linejoin:miter;stroke-miterlimit:4;stroke-dasharray:none;stroke-dashoffset:0;stroke-opacity:1"
       d="m 11.891847,294.64927 a 7.9999938,8.000001 89.236689 0 0 -7.8925778,8.10742 7.9999938,8.000001 89.236689 0 0 8.1074218,7.89258 7.9999938,8.000001 89.236689 0 0 7.892578,-8.10742 7.9999938,8.000001 89.236689 0 0 -8.107422,-7.89258 z m 0.107422,1 a 7,7 0 0 1 7,7 7,7 0 0 1 -7,7 7,7 0 0 1 -6.9999998,-7 7,7 0 0 1 6.9999998,-7 z"
       id="path4752" />
    <path
       style="opacity:0.544;vector-effect:none;fill-opacity:0.2745098;fill-rule:nonzero;stroke:none;stroke-width:0.0526733;stroke-linecap:butt;stroke-linejoin:miter;stroke-miterlimit:4;stroke-dasharray:none;stroke-dashoffset:0;stroke-opacity:1"
       d="M 7 4.0195312 L 7 5 L 5 5 L 5 7 L 4.0429688 7 L 4.0429688 17 L 5 17 L 5 19 L 7 19 L 7 20 L 17 20 L 17 19 L 19 19 L 19 17 L 20 17 L 20 7 L 19 7 L 19 5 L 17 5 L 17 4.0195312 L 7 4.0195312 z "
       transform="translate(0,290.65)"
       id="rect4760-2" />
    <rect
       style="opacity:1;vector-effect:none;fill:none;fill-opacity:1;fill-rule:nonzero;stroke:#000000;stroke-width:0.05;stroke-linecap:butt;stroke-linejoin:miter;stroke-miterlimit:4;stroke-dasharray:none;stroke-dashoffset:0;stroke-opacity:1"
       id="rect4754"
       width="36"
       height="36"
       x="-6"
       y="284.64999" />
    <circle
       style="opacity:1;vector-effect:none;fill:none;fill-opacity:1;fill-rule:nonzero;stroke:#000000;stroke-width:0.05;stroke-linecap:butt;stroke-linejoin:miter;stroke-miterlimit:4;stroke-dasharray:none;stroke-dashoffset:0;stroke-opacity:1"
       id="path4756"
       cx="12"
       cy="302.64999"
       r="18" />
  </g>
  <g
     id="layer2"
     style="display:inline" />
</svg>
