<?xml version="1.0" encoding="UTF-8" standalone="no"?>
<!-- Created with Inkscape (http://www.inkscape.org/) -->

<svg
   xmlns="http://www.w3.org/2000/svg"
   width="20"
   height="20"
   viewBox="0 0 20 20"
   version="1.1"
   id="svg8">
  <defs
     id="defs2" />
  <g
     id="layer1"
     transform="translate(0,-294.65)">
    <path
       style="opacity:0.544;vector-effect:none;fill-opacity:0.2745098;fill-rule:nonzero;stroke:none;stroke-width:0.04617934;stroke-linecap:butt;stroke-linejoin:miter;stroke-miterlimit:4;stroke-dasharray:none;stroke-dashoffset:0;stroke-opacity:1"
       d="m 6,297.65 v 1 H 4 v 2 H 3 v 8 h 1 v 2 h 2 v 1 h 8 v -1 h 2 v -2 h 1 v -8 h -1 v -2 h -2 v -1 z"
       id="rect4760-2" />
    <path
       style="opacity:1;vector-effect:none;fill-opacity:1;fill-rule:nonzero;stroke:none;stroke-width:0.04491999;stroke-linecap:butt;stroke-linejoin:miter;stroke-miterlimit:4;stroke-dasharray:none;stroke-dashoffset:0;stroke-opacity:1"
       d="m 9.9099985,297.99198 a 6.6574118,6.6574211 89.505533 0 0 -6.568026,6.74681 6.6574118,6.6574211 89.505533 0 0 6.7468145,6.56803 6.6574118,6.6574211 89.505533 0 0 6.568026,-6.74681 6.6574118,6.6574211 89.505533 0 0 -6.7468145,-6.56803 z m 0.089396,0.83218 a 5.8252427,5.8252398 0 0 1 5.8252405,5.82523 5.8252427,5.8252398 0 0 1 -5.8252405,5.82525 5.8252427,5.8252398 0 0 1 -5.8252426,-5.82525 5.8252427,5.8252398 0 0 1 5.8252426,-5.82523 z"
       id="path4752" />
    <rect
       style="opacity:1;vector-effect:none;fill:none;fill-opacity:1;fill-rule:nonzero;stroke:#000000;stroke-width:0.04160887;stroke-linecap:butt;stroke-linejoin:miter;stroke-miterlimit:4;stroke-dasharray:none;stroke-dashoffset:0;stroke-opacity:1"
       id="rect4754"
       width="29.958391"
       height="29.958376"
       x="-4.9791937"
       y="289.67081" />
    <ellipse
       style="opacity:1;vector-effect:none;fill:none;fill-opacity:1;fill-rule:nonzero;stroke:#000000;stroke-width:0.04160887;stroke-linecap:butt;stroke-linejoin:miter;stroke-miterlimit:4;stroke-dasharray:none;stroke-dashoffset:0;stroke-opacity:1"
       id="path4756"
       cx="10"
       cy="304.65002"
       rx="14.979196"
       ry="14.979188" />
  </g>
  <g
     id="layer2"
     style="display:inline"
     transform="translate(0,-4)" />
</svg>
