<svg xmlns="http://www.w3.org/2000/svg" width="18" height="18" fill="none" viewBox="0 0 18 18">
  <path fill="#6C6F80" d="M14.653 9.97a1.23 1.23 0 0 0-.644-.364l-1.032-5.217a1.74 1.74 0 0 0 .452-1.186c-.007-.948-.76-1.71-1.681-1.703-.921.007-1.662.781-1.655 1.73.003.41.146.784.38 1.078l-5.47 8.963a1.55 1.55 0 0 0-.419-.056c-.881.007-1.59.748-1.584 1.655.007.907.727 1.637 1.609 1.63.881-.007 1.59-.748 1.584-1.655a1.663 1.663 0 0 0-.381-1.052l5.454-8.938a1.623 1.623 0 0 0 .836.041l.97 4.897a1.19 1.19 0 0 0-.173.138 1.295 1.295 0 0 0-.032 1.799 1.22 1.22 0 0 0 1.753.04 1.295 1.295 0 0 0 .033-1.8Z"/>
</svg>
