<svg xmlns="http://www.w3.org/2000/svg" width="18" height="18" fill="none" viewBox="0 0 18 18">
  <path fill="#6C6F80" fill-rule="evenodd" d="M3.039 7.83h-.546v8.522h13.09V7.831h-.546v7.976H3.039V7.831Z" clip-rule="evenodd"/>
  <path fill="#6C6F80" fill-rule="evenodd" d="M3.189 7.68v7.977h11.698V7.681h.845v8.821H2.343V7.681h.846Zm11.848.15h.545v8.522H2.493V7.831h.546v7.976h11.998V7.831ZM9.924 3.41H8.152v.546h1.772v-.545Zm4.227.546h.886v2.182H3.039V3.956h.886v-.545H2.493v3.272h13.09V3.411H14.15v.545Z" clip-rule="evenodd"/>
  <path fill="#6C6F80" fill-rule="evenodd" d="M10.074 3.26v.846H8.002v-.845h2.072ZM14 4.107v-.845h1.731v3.572H2.343V3.261h1.732v.845h-.886v1.882h11.698V4.106H14Zm-10.076-.15h-.886v2.182h11.998V3.956h-.886v-.545h1.431v3.272H2.493V3.411h1.432v.545Zm4.227-.545h1.772v.545H8.152v-.545Z" clip-rule="evenodd"/>
  <path fill="#6C6F80" d="M6.856 2.593a.818.818 0 0 0-1.636 0v1.636a.818.818 0 1 0 1.636 0V2.593Z"/>
  <path fill="#6C6F80" fill-rule="evenodd" d="M6.038 2.056a.537.537 0 0 0-.537.537v1.636a.537.537 0 1 0 1.074 0V2.593a.537.537 0 0 0-.537-.537Zm-1.1.537a1.1 1.1 0 1 1 2.2 0v1.636a1.1 1.1 0 0 1-2.2 0V2.593Z" clip-rule="evenodd"/>
  <path fill="#6C6F80" d="M12.855 2.593a.818.818 0 0 0-1.636 0v1.636a.818.818 0 0 0 1.636 0V2.593Z"/>
  <path fill="#6C6F80" fill-rule="evenodd" d="M12.037 2.056a.537.537 0 0 0-.537.537v1.636a.537.537 0 1 0 1.074 0V2.593a.537.537 0 0 0-.537-.537Zm-1.099.537a1.1 1.1 0 1 1 2.199 0v1.636a1.1 1.1 0 0 1-2.199 0V2.593Zm.282 5.47 1.346 1.347-4.346 4.347-2.71-2.71 1.346-1.348 1.364 1.364 3-3Z" clip-rule="evenodd"/>
  <path fill="#6C6F80" d="m11.22 7.665 1.744 1.745-4.744 4.744-3.108-3.108 1.744-1.744 1.364 1.363 3-3Z"/>
</svg>
