<svg xmlns="http://www.w3.org/2000/svg" width="18" height="18" fill="none" viewBox="0 0 18 18">
  <path fill="#6C6F80" fill-rule="evenodd" d="M14.858 7.333c-.7 0-1.297.431-1.544 1.042H11.04c-.14-.64-.489-1.2-.973-1.608l.808-1.123a1.248 1.248 0 0 0 1.483-1.227 1.25 1.25 0 1 0-2.203.807l-.793 1.104a2.906 2.906 0 0 0-2.137-.08L6.092 4.284a1.667 1.667 0 1 0-1.234.549c.035 0 .07-.003.104-.005l1.2 2.078a2.908 2.908 0 0 0-.857 1.677h-.936a1.25 1.25 0 1 0 0 .834h.936a2.91 2.91 0 0 0 .843 1.663L4.94 13.17c-.027 0-.054-.003-.082-.003a1.667 1.667 0 1 0 1.22.534l1.129-1.955a2.91 2.91 0 0 0 2.155-.074l.793 1.103a1.25 1.25 0 1 0 .72-.42l-.808-1.122a2.91 2.91 0 0 0 .973-1.608h2.274a1.666 1.666 0 1 0 1.544-2.292Z" clip-rule="evenodd"/>
</svg>
