<svg width="18" height="18" viewBox="0 0 18 18" fill="none" xmlns="http://www.w3.org/2000/svg">
<g id="18/internal-logo/datahub">
<path id="icon" fill-rule="evenodd" clip-rule="evenodd" d="M14.8581 7.33333C14.1588 7.33333 13.5611 7.76448 13.3137 8.375H11.0403C10.9006 7.73531 10.5512 7.17427 10.0674 6.76729L10.8747 5.64406C10.9504 5.65844 11.0282 5.66667 11.1081 5.66667C11.7984 5.66667 12.3581 5.10698 12.3581 4.41667C12.3581 3.72635 11.7984 3.16667 11.1081 3.16667C10.4178 3.16667 9.85807 3.72635 9.85807 4.41667C9.85807 4.7249 9.97016 5.00656 10.1552 5.22448L9.36172 6.32844C9.00339 6.17125 8.60776 6.08333 8.19141 6.08333C7.85276 6.08333 7.52786 6.14177 7.22547 6.24781L6.09182 4.28437C6.35995 3.98865 6.52474 3.5974 6.52474 3.16667C6.52474 2.24625 5.77859 1.5 4.85807 1.5C3.93766 1.5 3.19141 2.24625 3.19141 3.16667C3.19141 4.08708 3.93766 4.83333 4.85807 4.83333C4.89328 4.83333 4.92766 4.83021 4.96234 4.82802L6.16214 6.90604C5.70932 7.3449 5.39849 7.92896 5.30484 8.58333H4.3688C4.19693 8.09823 3.73547 7.75 3.19141 7.75C2.50109 7.75 1.94141 8.30969 1.94141 9C1.94141 9.69031 2.50109 10.25 3.19141 10.25C3.73547 10.25 4.19693 9.90177 4.3688 9.41667H5.30484C5.39755 10.0642 5.70255 10.6428 6.14755 11.0801L4.94047 13.1708C4.91297 13.1695 4.88589 13.1667 4.85807 13.1667C3.93766 13.1667 3.19141 13.9128 3.19141 14.8333C3.19141 15.7539 3.93766 16.5 4.85807 16.5C5.77859 16.5 6.52474 15.7539 6.52474 14.8333C6.52474 14.3953 6.35443 13.9979 6.07807 13.7005L7.20661 11.7457C7.51432 11.8561 7.84578 11.9167 8.19141 11.9167C8.60776 11.9167 9.00339 11.8287 9.36172 11.6716L10.1552 12.7754C9.97016 12.9934 9.85807 13.2751 9.85807 13.5833C9.85807 14.2736 10.4178 14.8333 11.1081 14.8333C11.7984 14.8333 12.3581 14.2736 12.3581 13.5833C12.3581 12.893 11.7984 12.3333 11.1081 12.3333C11.0282 12.3333 10.9504 12.3416 10.8747 12.3559L10.0674 11.2327C10.5512 10.8257 10.9006 10.2647 11.0403 9.625H13.3137C13.5611 10.2355 14.1588 10.6667 14.8581 10.6667C15.7786 10.6667 16.5247 9.92052 16.5247 9C16.5247 8.07948 15.7786 7.33333 14.8581 7.33333Z" fill="#6C6F80"/>
</g>
</svg>
