<svg xmlns="http://www.w3.org/2000/svg" width="18" height="18" fill="none" viewBox="0 0 18 18">
  <path fill="#6C6F80" fill-rule="evenodd" d="M14.833 1.5h.032a1.25 1.25 0 0 1 1.218 1.219v12.563a1.25 1.25 0 0 1-1.218 1.218H4.375a2.5 2.5 0 0 1-2.458-2.46V8.353a.625.625 0 0 1 .601-.6l.024-.001 1.875-.001V2.718A1.25 1.25 0 0 1 5.635 1.5h9.198Zm-.416 1.25H6.083a.417.417 0 0 0-.416.396v9.636A1.25 1.25 0 0 1 4.446 14h-.03V9h-1.25v4.616A1.667 1.667 0 0 0 4.8 15.25h9.637a.417.417 0 0 0 .396-.395V3.146a.417.417 0 0 0-.395-.395l-.021-.001Zm-.834 8.333a.417.417 0 0 1 .021.833H6.917a.417.417 0 0 1-.021-.832h6.687Zm0-1.666a.417.417 0 0 1 .021.832l-.02.001H6.916a.417.417 0 0 1-.021-.833h6.688Zm0-1.667a.417.417 0 0 1 .021.833H6.917a.417.417 0 0 1-.021-.832l.02-.001h6.667ZM9.417 6.083a.417.417 0 0 1 .02.833h-2.52a.417.417 0 0 1-.021-.832h2.52Z" clip-rule="evenodd"/>
</svg>
