<svg width="18" height="18" viewBox="0 0 18 18" fill="none" xmlns="http://www.w3.org/2000/svg">
<g id="18/internal-logo/employment_verification_letter">
<path id="icon" fill-rule="evenodd" clip-rule="evenodd" d="M14.8333 1.5L14.8651 1.5004C15.5303 1.51699 16.0666 2.05342 16.0829 2.71872L16.0833 2.75V15.25L16.0829 15.2818C16.0663 15.947 15.5299 16.4833 14.8646 16.4996L14.8333 16.5H4.41663L4.37528 16.4997C3.02724 16.4778 1.93859 15.389 1.91695 14.0409L1.91663 14V8.375L1.91706 8.35158C1.9291 8.02513 2.19181 7.76326 2.51821 7.75117L2.54163 7.75073L4.41663 7.75V2.75L4.41702 2.71823C4.43362 2.05299 4.97004 1.51673 5.63535 1.50038L5.66663 1.5H14.8333ZM14.4166 2.75H6.0833C5.86017 2.75 5.67798 2.92543 5.66715 3.14587L5.66664 3.16667V12.75L5.66624 12.7818C5.64964 13.447 5.11322 13.9833 4.44792 13.9996L4.41664 14V9H3.16664V13.5833L3.16695 13.6161C3.18421 14.5105 3.90582 15.2322 4.8001 15.2497L4.8333 15.25H14.4166L14.4374 15.2495C14.6508 15.239 14.8219 15.068 14.8328 14.8548L14.8333 14.8333V3.16667L14.8328 3.14587C14.8223 2.93254 14.6513 2.76136 14.4381 2.75054L14.4166 2.75ZM13.5833 11.0833C13.8134 11.0833 14 11.2699 14 11.5C14 11.7231 13.8245 11.9053 13.6041 11.9162L13.5833 11.9167H6.91664C6.68653 11.9167 6.49997 11.7301 6.49997 11.5C6.49997 11.2769 6.6754 11.0947 6.89584 11.0838L6.91664 11.0833H13.5833ZM13.5833 9.41667C13.8134 9.41667 14 9.60323 14 9.83333C14 10.0565 13.8245 10.2387 13.6041 10.2495L13.5833 10.25H6.91664C6.68653 10.25 6.49997 10.0634 6.49997 9.83333C6.49997 9.6102 6.6754 9.42801 6.89584 9.41718L6.91664 9.41667H13.5833ZM13.5833 7.75C13.8134 7.75 14 7.93656 14 8.16667C14 8.3898 13.8245 8.57199 13.6041 8.58282L13.5833 8.58333H6.91664C6.68653 8.58333 6.49997 8.39677 6.49997 8.16667C6.49997 7.94354 6.6754 7.76135 6.89584 7.75051L6.91664 7.75H13.5833ZM9.41664 6.08333C9.64674 6.08333 9.8333 6.2699 9.8333 6.5C9.8333 6.72313 9.65788 6.90532 9.43743 6.91616L9.41664 6.91667H6.91664C6.68653 6.91667 6.49997 6.7301 6.49997 6.5C6.49997 6.27687 6.6754 6.09468 6.89584 6.08384L6.91664 6.08333H9.41664Z" fill="#6C6F80"/>
</g>
</svg>
