<svg xmlns="http://www.w3.org/2000/svg" width="18" height="18" fill="none" viewBox="0 0 18 18">
  <path fill="#6C6F80" fill-rule="evenodd" d="M6.685 16.19A7.528 7.528 0 0 1 1.5 9.028C1.5 4.87 4.858 1.5 9 1.5c4.142 0 7.5 3.37 7.5 7.528a7.528 7.528 0 0 1-5.185 7.162.663.663 0 0 0-.66-.63h-.993v-1.993a.664.664 0 0 0-.441-.627V8.364h3.306l-1.164 3.1h-.047a1.652 1.652 0 0 0 2.799 0h.005l-1.27-3.1h1.003c.244 0 .307-.34.08-.428L9.22 6.109v-.883A.664.664 0 0 0 9 3.936a.664.664 0 0 0-.22 1.29v.883L4.067 7.936c-.228.088-.165.428.08.428H5.2l-1.164 3.1H3.99a1.652 1.652 0 0 0 2.8 0h.004l-1.27-3.1H8.78v4.576a.664.664 0 0 0-.44.627v1.993h-.993a.663.663 0 0 0-.661.63Zm2.094-9.607v1.338H5.33l3.45-1.338Zm.442 1.338V6.583l3.449 1.338H9.22ZM9 4.931a.331.331 0 1 1 .001-.662.331.331 0 0 1-.001.663Zm-4.735 6.532 1.1-2.91 1.2 2.91h-2.3Zm7.326 0 1.1-2.91 1.2 2.91h-2.3Z" clip-rule="evenodd"/>
</svg>
