<svg xmlns="http://www.w3.org/2000/svg" width="18" height="18" fill="none" viewBox="0 0 18 18">
  <path fill="#6C6F80" fill-rule="evenodd" d="m4.638 3.546 1.767 1.783v-.004L9.14 8.109l.345-.354A1.436 1.436 0 0 0 9.7 5.978L6.04 2.221a.942.942 0 0 0-1.43-.037l-1.2 1.21a.967.967 0 0 1 1.229.152Zm2.874 6.809a.959.959 0 0 0-.132.147.979.979 0 0 0-.188.58.966.966 0 0 0 .957.975.94.94 0 0 0 .543-.173.968.968 0 0 0 .244-.25l2.407-2.452a.986.986 0 0 0 .037-1.456l.008-.01L10.193 6.5c.249.402.187.919-.15 1.254l-2.531 2.6Zm7.028-7.016-1.409 1.265a5.762 5.762 0 0 1 1.49 3.926 5.82 5.82 0 0 1-.236 1.594l.019.02-.018-.02c-.666 2.402-2.888 4.074-5.43 4.086-3.167-.087-5.664-2.67-5.579-5.77A5.754 5.754 0 0 1 4.99 4.477l-.37-.374a1.36 1.36 0 0 0-1.494-.362A7.687 7.687 0 0 0 1.5 8.426c-.033 4.217 3.299 7.664 7.44 7.699 4.142.035 7.525-3.362 7.56-7.58a7.69 7.69 0 0 0-1.96-5.206Z" clip-rule="evenodd"/>
</svg>
