<svg xmlns="http://www.w3.org/2000/svg" width="18" height="18" fill="none" viewBox="0 0 18 18">
  <path fill="#6C6F80" fill-rule="evenodd" d="m6.149 9.101-.296.296A4.167 4.167 0 1 0 11.73 3.52l-.296.296a3.75 3.75 0 1 1-5.286 5.286Zm3.06-4.934A.208.208 0 0 0 9 3.958a2.711 2.711 0 0 0-2.708 2.709.208.208 0 1 0 .416 0A2.294 2.294 0 0 1 9 4.375a.208.208 0 0 0 .208-.208Zm3.112-1.238a5 5 0 0 1-2.904 8.719v.435h1.666a.417.417 0 0 1 0 .834H6.917a.417.417 0 1 1 0-.834h1.666v-.435a4.987 4.987 0 0 1-3.688-2.126l.903-.903a3.75 3.75 0 0 1 5.154-5.154l.302-.302.601-.601c.163.113.318.235.466.367ZM2.333 6.042c0-.345.28-.625.625-.625h1.875v.833H3.167v7.083h-.834V6.042Zm8.324 7.718 5.5.007a.312.312 0 0 1 .343.279l-.015.642c0 .172-.14.312-.312.312H1.813a.312.312 0 0 1-.313-.312v-.625c0-.173.14-.313.312-.313l5.515.007v.097c0 .173.14.313.313.313h2.705c.173 0 .312-.14.312-.313v-.094Zm4.385-8.343h-.625v.833h.416v7.083h.834V6.042a.625.625 0 0 0-.625-.625Z" clip-rule="evenodd"/>
</svg>
