<svg xmlns="http://www.w3.org/2000/svg" width="18" height="18" fill="none" viewBox="0 0 18 18">
  <path fill="#6C6F80" fill-rule="evenodd" d="m8.156 1.5 2.531 1.266-2.53 1.687v-.825a5.068 5.068 0 0 0-4.641 5.044 5.064 5.064 0 0 0 2.52 4.375c.358.21.42.7.127.993l-.002.002a.636.636 0 0 1-.772.097 6.327 6.327 0 0 1 2.767-11.78V1.5Zm7.409 13.264-2.088-2.088a6.325 6.325 0 0 0-1.78-9.51.636.636 0 0 0-.72.062l-.003.002a.632.632 0 0 0 .093 1.036 5.064 5.064 0 0 1 2.574 4.406A5.068 5.068 0 0 1 9 13.715v-.824l-2.531 1.687L9 15.844v-.86a6.299 6.299 0 0 0 3.583-1.413l2.087 2.087a.63.63 0 0 0 .895 0 .633.633 0 0 0 0-.894ZM8.578 8.672a1.266 1.266 0 1 0 0-2.531 1.266 1.266 0 0 0 0 2.53Zm-1.265.422h2.53c.467 0 .845.378.845.844v.91a6.421 6.421 0 0 1-4.22 0v-.91c0-.466.379-.844.845-.844Z" clip-rule="evenodd"/>
</svg>
