<svg width="18" height="18" viewBox="0 0 18 18" fill="none" xmlns="http://www.w3.org/2000/svg">
<g id="18/internal-logo/password">
<path id="icon" fill-rule="evenodd" clip-rule="evenodd" d="M3.83684 2.69272C3.83684 2.92378 4.02418 3.11112 4.25524 3.11112C4.4863 3.11112 4.67365 2.92378 4.67365 2.69272C4.67365 2.46166 4.4863 2.27432 4.25524 2.27432C4.02418 2.27432 3.83684 2.46166 3.83684 2.69272ZM3 2.69271C3 1.99952 3.56202 1.4375 4.25521 1.4375C4.9484 1.4375 5.51042 1.99952 5.51042 2.69271C5.51042 3.3859 4.9484 3.94792 4.25521 3.94792C3.56202 3.94792 3 3.3859 3 2.69271ZM7.60247 2.69272C7.60247 2.92378 7.78981 3.11112 8.02087 3.11112C8.25194 3.11112 8.43927 2.92378 8.43927 2.69272C8.43927 2.46166 8.25194 2.27432 8.02087 2.27432C7.78981 2.27432 7.60247 2.46166 7.60247 2.69272ZM6.7656 2.69271C6.7656 1.99952 7.32762 1.4375 8.02081 1.4375C8.71399 1.4375 9.27601 1.99952 9.27601 2.69271C9.27601 3.3859 8.71399 3.94792 8.02081 3.94792C7.32762 3.94792 6.7656 3.3859 6.7656 2.69271ZM11.7864 3.11112C11.5553 3.11112 11.368 2.92378 11.368 2.69272C11.368 2.46166 11.5553 2.27432 11.7864 2.27432C12.0175 2.27432 12.2048 2.46166 12.2048 2.69272C12.2048 2.92378 12.0175 3.11112 11.7864 3.11112ZM11.7865 1.4375C11.0933 1.4375 10.5313 1.99952 10.5313 2.69271C10.5313 3.3859 11.0933 3.94792 11.7865 3.94792C12.4797 3.94792 13.0417 3.3859 13.0417 2.69271C13.0417 1.99952 12.4797 1.4375 11.7865 1.4375ZM11.368 6.45833C11.368 6.68939 11.5553 6.87673 11.7864 6.87673C12.0175 6.87673 12.2048 6.68939 12.2048 6.45833C12.2048 6.22726 12.0175 6.03992 11.7864 6.03992C11.5553 6.03992 11.368 6.22726 11.368 6.45833ZM10.5313 6.45833C10.5313 5.76514 11.0933 5.20312 11.7865 5.20312C12.4797 5.20312 13.0417 5.76514 13.0417 6.45833C13.0417 7.15152 12.4797 7.71354 11.7865 7.71354C11.0933 7.71354 10.5313 7.15152 10.5313 6.45833ZM4.25524 6.87673C4.02418 6.87673 3.83684 6.68939 3.83684 6.45833C3.83684 6.22726 4.02418 6.03992 4.25524 6.03992C4.4863 6.03992 4.67365 6.22726 4.67365 6.45833C4.67365 6.68939 4.4863 6.87673 4.25524 6.87673ZM4.25521 5.20312C3.56202 5.20312 3 5.76514 3 6.45833C3 7.15152 3.56202 7.71354 4.25521 7.71354C4.9484 7.71354 5.51042 7.15152 5.51042 6.45833C5.51042 5.76514 4.9484 5.20312 4.25521 5.20312ZM10.5312 15.6632C12.1462 15.6632 13.46 14.3493 13.46 12.7344V9.80555C13.46 9.5748 13.2724 9.38715 13.0416 9.38715C12.8109 9.38715 12.6232 9.5748 12.6232 9.80555V10.6424C12.6232 10.8734 12.4359 11.0608 12.2048 11.0608C11.9738 11.0608 11.7864 10.8734 11.7864 10.6424V9.80555V9.38715C11.7864 9.1564 11.5988 8.96874 11.368 8.96874C11.1373 8.96874 10.9496 9.1564 10.9496 9.38715V10.6424C10.9496 10.8734 10.7623 11.0608 10.5312 11.0608C10.3002 11.0608 10.1128 10.8734 10.1128 10.6424V9.38715V8.96874C10.1128 8.73799 9.92517 8.55034 9.69442 8.55034C9.46367 8.55034 9.27601 8.73799 9.27601 8.96874V10.6424C9.27601 10.8734 9.08867 11.0608 8.85761 11.0608C8.62655 11.0608 8.43921 10.8734 8.43921 10.6424V8.96874V6.45833C8.43921 6.22758 8.25155 6.03992 8.0208 6.03992C7.79006 6.03992 7.6024 6.22758 7.6024 6.45833V12.8228L6.45964 11.6798C6.29667 11.5167 6.03119 11.5167 5.86791 11.6798C5.70474 11.843 5.70484 12.1084 5.86802 12.2716L8.31662 14.6498C8.43021 14.7808 8.55469 14.9018 8.6869 15.0091L8.73021 15.0488L8.73669 15.0551L8.75144 15.0606L8.79903 15.0956C9.30426 15.467 9.9031 15.6632 10.5312 15.6632ZM12.4258 8.71206C12.608 8.60913 12.818 8.55034 13.0417 8.55034C13.7338 8.55034 14.2969 9.11341 14.2969 9.80555V12.7344C14.2969 14.8108 12.6077 16.5 10.5312 16.5C9.73732 16.5 8.97939 16.2561 8.33672 15.7939C8.27281 15.7602 8.21047 15.7121 8.14499 15.647C7.98516 15.5157 7.83443 15.3694 7.69635 15.2116L5.28081 12.8677C4.78688 12.3738 4.78688 11.5774 5.27631 11.0882C5.67881 10.6855 6.28937 10.614 6.76562 10.8739V6.45833C6.76562 5.76619 7.32868 5.20312 8.02082 5.20312C8.71297 5.20312 9.27603 5.76619 9.27603 6.45833V7.78529C9.40699 7.73875 9.54789 7.71354 9.69444 7.71354C10.1383 7.71354 10.529 7.94502 10.7522 8.29365C10.9344 8.19073 11.1444 8.13194 11.368 8.13194C11.8119 8.13194 12.2027 8.36342 12.4258 8.71206Z" fill="#6C6F80"/>
</g>
</svg>
