<svg xmlns="http://www.w3.org/2000/svg" width="18" height="18" fill="none" viewBox="0 0 18 18">
  <path fill="#6C6F80" fill-rule="evenodd" d="M3.837 2.693a.418.418 0 1 0 .837 0 .418.418 0 0 0-.837 0Zm-.837 0a1.255 1.255 0 1 1 2.51 0 1.255 1.255 0 0 1-2.51 0Zm4.602 0a.418.418 0 1 0 .837 0 .418.418 0 0 0-.837 0Zm-.836 0a1.255 1.255 0 1 1 2.51 0 1.255 1.255 0 0 1-2.51 0Zm5.02.418a.418.418 0 1 1 0-.837.418.418 0 0 1 0 .837Zm0-1.674a1.255 1.255 0 1 0 0 2.511 1.255 1.255 0 0 0 0-2.51Zm-.418 5.021a.418.418 0 1 0 .837 0 .418.418 0 0 0-.837 0Zm-.837 0a1.255 1.255 0 1 1 2.51 0 1.255 1.255 0 0 1-2.51 0Zm-6.276.419a.418.418 0 1 1 0-.837.418.418 0 0 1 0 .837Zm0-1.674a1.255 1.255 0 1 0 0 2.51 1.255 1.255 0 0 0 0-2.51Zm6.276 10.46a2.932 2.932 0 0 0 2.929-2.929V9.806a.419.419 0 0 0-.837 0v.836a.418.418 0 0 1-.837 0V9.387a.419.419 0 0 0-.836 0v1.255a.418.418 0 0 1-.837 0V8.97a.419.419 0 0 0-.837 0v1.673a.418.418 0 0 1-.837 0V6.46a.419.419 0 0 0-.837 0v6.364L6.46 11.68a.419.419 0 0 0-.592.592l2.449 2.378c.113.13.238.252.37.36l.043.039.007.006.014.006.048.035a2.904 2.904 0 0 0 1.732.567Zm1.895-6.95a1.257 1.257 0 0 1 1.871 1.093v2.928A3.77 3.77 0 0 1 10.53 16.5a3.734 3.734 0 0 1-2.194-.706.813.813 0 0 1-.192-.147 3.82 3.82 0 0 1-.449-.435L5.28 12.868a1.258 1.258 0 0 1-.005-1.78 1.257 1.257 0 0 1 1.49-.214V6.458c0-.692.563-1.255 1.255-1.255s1.255.563 1.255 1.255v1.327a1.255 1.255 0 0 1 1.476.508 1.255 1.255 0 0 1 1.674.418Z" clip-rule="evenodd"/>
</svg>
