<svg xmlns="http://www.w3.org/2000/svg" width="18" height="18" fill="none" viewBox="0 0 18 18">
  <path fill="#6C6F80" d="M2.438 12.49a.65.65 0 0 1 .656-.643h5.25A.65.65 0 0 1 9 12.49v.367a.65.65 0 0 1-.656.643h-5.25a.65.65 0 0 1-.656-.643v-.367Zm7.5 0a.65.65 0 0 1 .656-.643h3.375a.65.65 0 0 1 .656.643v.367a.65.65 0 0 1-.656.643h-3.375a.65.65 0 0 1-.656-.643v-.367ZM4.313 8.816a.65.65 0 0 1 .656-.643h10.875a.65.65 0 0 1 .656.643v.368a.65.65 0 0 1-.656.643H4.969a.65.65 0 0 1-.657-.643v-.368ZM1.5 5.143a.65.65 0 0 1 .656-.643h2.438a.65.65 0 0 1 .656.643v.367a.65.65 0 0 1-.656.643H2.156A.65.65 0 0 1 1.5 5.51v-.367Zm4.688 0a.65.65 0 0 1 .656-.643h5.25a.65.65 0 0 1 .656.643v.367a.65.65 0 0 1-.656.643h-5.25a.65.65 0 0 1-.656-.643v-.367Z"/>
</svg>
