<svg xmlns="http://www.w3.org/2000/svg" width="18" height="18" fill="none" viewBox="0 0 18 18">
  <path fill="#6C6F80" fill-rule="evenodd" d="M11.78 6.22h3.97a3.97 3.97 0 0 0-3.97-3.97v3.97Zm-9.133 4.765h3.574v-3.97H2.647a.397.397 0 0 0-.397.397v3.176c0 .22.178.397.397.397Zm8.338 0h-3.97v-3.97h3.97v3.97Zm.794 0v-3.97h3.971a3.97 3.97 0 0 1-3.97 3.97Zm-.794-4.764h-3.97V2.647c0-.22.177-.397.397-.397h3.573v3.97ZM7.412 15.75h3.176c.22 0 .397-.178.397-.397v-3.574h-3.97v3.574c0 .22.177.397.397.397Z" clip-rule="evenodd"/>
</svg>
