<svg xmlns="http://www.w3.org/2000/svg" width="18" height="18" fill="none" viewBox="0 0 18 18">
  <path fill="#6C6F80" fill-rule="evenodd" d="M11.11 8.156a1.266 1.266 0 1 1 0-2.531 1.266 1.266 0 0 1 0 2.531Zm0-4.64L5.37 9.254a4.01 4.01 0 0 1 3.376 3.375l5.738-5.738C15.75 5.625 15.75 3.669 15.75 2.25c-1.419 0-3.375 0-4.64 1.266ZM4.78 9l2.532-2.531c-1.792 0-3.374.421-4.64 2.531h2.11ZM9 13.219l2.53-2.531c0 1.792-.422 3.374-2.531 4.64v-2.11Zm-6.206 1.986a.42.42 0 0 0 .597 0l3.375-3.376a.422.422 0 1 0-.596-.596l-3.376 3.375a.422.422 0 0 0 0 .596Zm-.123-1.986a.42.42 0 0 1-.298-.72l2.53-2.532a.422.422 0 1 1 .597.597l-2.53 2.531a.42.42 0 0 1-.3.124Zm2.233 2.407a.42.42 0 0 0 .596 0l2.532-2.53a.422.422 0 1 0-.597-.597l-2.531 2.53a.422.422 0 0 0 0 .597Z" clip-rule="evenodd"/>
</svg>
