<svg xmlns="http://www.w3.org/2000/svg" width="18" height="18" fill="none" viewBox="0 0 18 18">
  <path fill="#6C6F80" fill-rule="evenodd" d="M9 1.5a7.5 7.5 0 1 0 0 15 7.5 7.5 0 0 0 0-15ZM7.235 13.412a.443.443 0 0 0 .441-.441V5.029a.442.442 0 0 0-.44-.44.442.442 0 0 0-.442.44v7.942c0 .242.199.44.441.44Zm3.53-.883a.442.442 0 0 0 .44-.44V5.911a.442.442 0 0 0-.44-.441.443.443 0 0 0-.442.44v6.177c0 .243.2.441.442.441Zm2.206-1.764a.442.442 0 0 1-.442.44.443.443 0 0 1-.44-.44v-3.53a.441.441 0 0 1 .882 0v3.53Zm1.323-.883a.443.443 0 0 1-.441-.44v-.883a.442.442 0 0 1 .882-.001v.883a.442.442 0 0 1-.44.441Zm-4.853 1.324a.443.443 0 0 1-.441.441.443.443 0 0 1-.441-.441V6.794a.442.442 0 0 1 .882 0v4.412Zm-3.53-.441a.442.442 0 0 1-.44.44.442.442 0 0 1-.442-.44v-3.53a.442.442 0 0 1 .882 0v3.53Zm-2.205-.883a.442.442 0 0 0 .441-.44v-.883a.442.442 0 0 0-.441-.441.442.442 0 0 0-.441.44v.883c0 .243.198.441.44.441Z" clip-rule="evenodd"/>
</svg>
