<svg xmlns="http://www.w3.org/2000/svg" width="18" height="18" fill="none" viewBox="0 0 18 18">
  <path fill="#6C6F80" d="M7.125 9A1.88 1.88 0 0 0 9 10.875 1.88 1.88 0 0 0 10.875 9 1.88 1.88 0 0 0 9 7.125 1.88 1.88 0 0 0 7.125 9Z"/>
  <path fill="#6C6F80" fill-rule="evenodd" d="M15.349 8.438h.588a.563.563 0 0 1 0 1.124h-.588a6.384 6.384 0 0 1-5.787 5.787v.588a.563.563 0 0 1-1.124 0v-.588A6.384 6.384 0 0 1 2.65 9.562h-.588a.563.563 0 0 1 0-1.124h.588A6.384 6.384 0 0 1 8.438 2.65v-.588a.563.563 0 0 1 1.124 0v.588a6.384 6.384 0 0 1 5.787 5.787ZM3.75 9A5.256 5.256 0 0 0 9 14.25 5.256 5.256 0 0 0 14.25 9 5.256 5.256 0 0 0 9 3.75 5.256 5.256 0 0 0 3.75 9Z" clip-rule="evenodd"/>
</svg>
