<svg width="18" height="18" viewBox="0 0 18 18" fill="none" xmlns="http://www.w3.org/2000/svg">
<g id="18/internal-logo/staffing">
<g id="icon">
<path d="M7.125 9C7.125 10.0312 7.96875 10.875 9 10.875C10.0312 10.875 10.875 10.0312 10.875 9C10.875 7.96875 10.0312 7.125 9 7.125C7.96875 7.125 7.125 7.96875 7.125 9Z" fill="#6C6F80"/>
<path fill-rule="evenodd" clip-rule="evenodd" d="M15.3488 8.4375H15.9375C16.2481 8.4375 16.5 8.68941 16.5 9C16.5 9.31059 16.2481 9.5625 15.9375 9.5625H15.3488C15.0792 12.6295 12.6295 15.0792 9.5625 15.3488V15.9375C9.5625 16.2481 9.31059 16.5 9 16.5C8.68941 16.5 8.4375 16.2481 8.4375 15.9375V15.3488C5.37047 15.0792 2.92078 12.6295 2.65125 9.5625H2.0625C1.75191 9.5625 1.5 9.31059 1.5 9C1.5 8.68941 1.75191 8.4375 2.0625 8.4375H2.65125C2.92078 5.37047 5.37047 2.92078 8.4375 2.65125V2.0625C8.4375 1.75191 8.68941 1.5 9 1.5C9.31059 1.5 9.5625 1.75191 9.5625 2.0625V2.65125C12.6295 2.92078 15.0792 5.37047 15.3488 8.4375ZM3.75 9C3.75 11.8949 6.10509 14.25 9 14.25C11.8949 14.25 14.25 11.8949 14.25 9C14.25 6.10509 11.8949 3.75 9 3.75C6.10509 3.75 3.75 6.10509 3.75 9Z" fill="#6C6F80"/>
</g>
</g>
</svg>
