<svg xmlns="http://www.w3.org/2000/svg" width="18" height="18" fill="none" viewBox="0 0 18 18">
  <path fill="#6C6F80" d="M12.327 4.441a5.6 5.6 0 0 0-2.846-1.063V1.5a7.464 7.464 0 0 1 4.178 1.607l-1.332 1.334Zm-.499 1.73-2.347 4.226-.147-.147a1.16 1.16 0 0 1-.557.147 1.174 1.174 0 0 1-1.174-1.174c.001-.195.052-.387.147-.557l-.147-.147 4.225-2.348Zm-8.45 2.817a5.63 5.63 0 0 0 11.183.94h1.897A7.508 7.508 0 1 1 8.072 1.54v1.898a5.631 5.631 0 0 0-4.694 5.55Zm9.977-3.581 1.328-1.328a7.471 7.471 0 0 1 1.817 4.44h-1.878a5.6 5.6 0 0 0-1.267-3.112Z"/>
</svg>
