<svg xmlns="http://www.w3.org/2000/svg" width="18" height="18" fill="none" viewBox="0 0 18 18">
  <path fill="#6C6F80" fill-rule="evenodd" d="M1.35 5.973a.69.69 0 0 0 .453.612l2.623.955v2.585c0 .805.535 1.499 1.357 1.983.825.485 1.96.776 3.224.776 1.264 0 2.4-.291 3.225-.776.823-.484 1.359-1.178 1.359-1.983v-2.59l.099-.036a.39.39 0 0 0 .233-.501c-.14-.31-.5-.234-.5-.234L10.057 7.99a3.159 3.159 0 0 1-2.168-.019L2.28 5.927l6.125-2.904c.377-.18.813-.18 1.19 0l6.127 2.904-.213.077a.39.39 0 0 0 .267.735l.423-.154a.686.686 0 0 0 .058-1.267l-6.326-3a2.166 2.166 0 0 0-1.86 0l-6.325 3a.686.686 0 0 0-.394.653v.002Zm3.857 4.152v-2.3l2.467.898a3.886 3.886 0 0 0 2.65.003l2.484-.906v2.305c0 .493-.391.985-1.094 1.364-.695.373-1.658.613-2.707.613s-2.012-.24-2.707-.614c-.702-.378-1.093-.87-1.093-1.363Zm8.474 5.655a.244.244 0 0 0 .113-.026l1.868-.982a.24.24 0 0 0 .123-.265l-.362-1.624.362 1.624a.24.24 0 0 1-.123.265l-1.868.982a.244.244 0 0 1-.113.026Zm.584-2.755-.283 2.085.283-2.085Zm-.58-.41-.39 2.873a.388.388 0 0 0 .386.442c.06 0 .12-.012.18-.042l1.871-.983a.39.39 0 0 0 .2-.43l-.418-1.875v-.433a.915.915 0 0 0-.488-.812V6.322a.39.39 0 0 0-.324-.384H14.7L8.68 4.875a.39.39 0 0 0-.138.77l5.7 1.006v4.671a.918.918 0 0 0-.557.845v.448Zm1.196-.367h-.568v-.081c0-.157.128-.285.284-.285.156 0 .284.128.284.285v.08Zm-.712 2.594.247-1.815h.395l.293 1.324-.934.49Z" clip-rule="evenodd"/>
</svg>
