<svg xmlns="http://www.w3.org/2000/svg" width="18" height="18" fill="none" viewBox="0 0 18 18">
  <path fill="#6C6F80" d="M9 13.914c.428 0 .776.347.776.776v1.034a.776.776 0 1 1-1.552 0V14.69c0-.429.348-.776.776-.776Zm-3.475-1.44a.776.776 0 0 1 0 1.098l-.731.731a.776.776 0 1 1-1.097-1.097l.731-.731a.776.776 0 0 1 1.097 0Zm8.047 0 .731.732a.776.776 0 1 1-1.097 1.097l-.731-.731a.776.776 0 1 1 1.097-1.097ZM9 5.639a3.362 3.362 0 1 1 0 6.724 3.362 3.362 0 0 1 0-6.724ZM9 7.19a1.81 1.81 0 1 0 0 3.62 1.81 1.81 0 0 0 0-3.62ZM3.31 8.224a.776.776 0 1 1 0 1.552H2.276a.776.776 0 0 1 0-1.552H3.31Zm12.414 0a.776.776 0 1 1 0 1.552H14.69a.776.776 0 1 1 0-1.552h1.034ZM4.794 3.697l.731.731a.776.776 0 1 1-1.097 1.097l-.731-.731a.776.776 0 0 1 1.097-1.097Zm9.51 0a.776.776 0 0 1 0 1.097l-.732.731a.776.776 0 1 1-1.097-1.097l.731-.731a.776.776 0 0 1 1.097 0ZM9 1.5c.428 0 .776.347.776.776V3.31a.776.776 0 1 1-1.552 0V2.276c0-.429.348-.776.776-.776Z"/>
</svg>
