<svg width="18" height="18" viewBox="0 0 18 18" fill="none" xmlns="http://www.w3.org/2000/svg">
<g id="18/internal-logo/video">
<path id="icon" fill-rule="evenodd" clip-rule="evenodd" d="M9 16.5C4.85786 16.5 1.5 13.1421 1.5 9C1.5 4.85786 4.85786 1.5 9 1.5C13.1421 1.5 16.5 4.85786 16.5 9C16.5 13.1421 13.1421 16.5 9 16.5ZM9 14.8333C12.2217 14.8333 14.8333 12.2217 14.8333 9C14.8333 5.77834 12.2217 3.16667 9 3.16667C5.77834 3.16667 3.16667 5.77834 3.16667 9C3.16667 12.2217 5.77834 14.8333 9 14.8333ZM6.91667 6.5L12.3333 9.23251L6.91667 11.9167V6.5Z" fill="#6C6F80"/>
</g>
</svg>
