<svg xmlns="http://www.w3.org/2000/svg" width="13" height="12" fill="none" viewBox="0 0 13 12">
  <g clip-path="url(#a)">
    <path fill="#6C6F80" d="M10 8.5v1H4v-1s0-2 3-2 3 2 3 2ZM8.5 4a1.5 1.5 0 1 0-3 0 1.5 1.5 0 0 0 3 0Zm1.6 2.53A2.8 2.8 0 0 1 11 8.5v1h1.5v-1s0-1.725-2.4-1.97ZM9.5 2.5c-.151 0-.301.024-.445.07a2.5 2.5 0 0 1 0 2.86A1.5 1.5 0 1 0 9.5 2.5ZM4.5 5H3V3.5H2V5H.5v1H2v1.5h1V6h1.5V5Z"/>
  </g>
  <defs>
    <clipPath id="a">
      <path fill="#fff" d="M.5 0h12v12H.5z"/>
    </clipPath>
  </defs>
</svg>
