<svg width="12" height="12" viewBox="0 0 12 12" fill="none" xmlns="http://www.w3.org/2000/svg">
<path d="M9.5 8.5V9.5H3.5V8.5C3.5 8.5 3.5 6.5 6.5 6.5C9.5 6.5 9.5 8.5 9.5 8.5ZM8 4C8 3.70333 7.91203 3.41332 7.7472 3.16665C7.58238 2.91997 7.34811 2.72771 7.07403 2.61418C6.79994 2.50065 6.49834 2.47094 6.20736 2.52882C5.91639 2.5867 5.64912 2.72956 5.43934 2.93934C5.22956 3.14912 5.0867 3.41639 5.02882 3.70737C4.97094 3.99834 5.00065 4.29994 5.11418 4.57403C5.22771 4.84811 5.41997 5.08238 5.66664 5.2472C5.91332 5.41203 6.20333 5.5 6.5 5.5C6.89782 5.5 7.27936 5.34197 7.56066 5.06066C7.84196 4.77936 8 4.39783 8 4ZM9.6 6.53C9.87332 6.78215 10.0937 7.08622 10.2482 7.42446C10.4027 7.76269 10.4883 8.12832 10.5 8.5V9.5H12V8.5C12 8.5 12 6.775 9.6 6.53ZM9 2.5C8.84893 2.50009 8.6988 2.52371 8.555 2.57C8.84753 2.98949 9.00437 3.48859 9.00437 4C9.00437 4.51141 8.84753 5.01052 8.555 5.43C8.6988 5.47629 8.84893 5.49991 9 5.5C9.39782 5.5 9.77936 5.34197 10.0607 5.06066C10.342 4.77936 10.5 4.39783 10.5 4C10.5 3.60218 10.342 3.22064 10.0607 2.93934C9.77936 2.65804 9.39782 2.5 9 2.5ZM4 5H2.5V3.5H1.5V5H0V6H1.5V7.5H2.5V6H4V5Z" fill="#6C6F80"/>
</svg>
