<?xml version="1.0" encoding="UTF-8"?>
<svg width="12px" height="12px" viewBox="0 0 12 12" version="1.1" xmlns="http://www.w3.org/2000/svg" xmlns:xlink="http://www.w3.org/1999/xlink">
    <title>Icons/12/action-language</title>
    <g id="Icons/12/action-language" stroke="none" stroke-width="1" fill="none" fill-rule="evenodd">
        <path d="M5.995,1 C3.235,1 1,3.24 1,6 C1,8.76 3.235,11 5.995,11 C8.76,11 11,8.76 11,6 C11,3.24 8.76,1 5.995,1 Z M9.46,4 L7.985,4 C7.825,3.375 7.595,2.775 7.295,2.22 C8.215,2.535 8.98,3.175 9.46,4 Z M6,2.02 C6.415,2.62 6.74,3.285 6.955,4 L5.045,4 C5.26,3.285 5.585,2.62 6,2.02 Z M2.13,7 C2.05,6.68 2,6.345 2,6 C2,5.655 2.05,5.32 2.13,5 L3.82,5 C3.78,5.33 3.75,5.66 3.75,6 C3.75,6.34 3.78,6.67 3.82,7 L2.13,7 Z M2.54,8 L4.015,8 C4.175,8.625 4.405,9.225 4.705,9.78 C3.785,9.465 3.02,8.83 2.54,8 Z M4.015,4 L2.54,4 C3.02,3.17 3.785,2.535 4.705,2.22 C4.405,2.775 4.175,3.375 4.015,4 Z M6,9.98 C5.585,9.38 5.26,8.715 5.045,8 L6.955,8 C6.74,8.715 6.415,9.38 6,9.98 Z M7.17,7 L4.83,7 C4.785,6.67 4.75,6.34 4.75,6 C4.75,5.66 4.785,5.325 4.83,5 L7.17,5 C7.215,5.325 7.25,5.66 7.25,6 C7.25,6.34 7.215,6.67 7.17,7 Z M7.295,9.78 C7.595,9.225 7.825,8.625 7.985,8 L9.46,8 C8.98,8.825 8.215,9.465 7.295,9.78 Z M8.18,7 C8.22,6.67 8.25,6.34 8.25,6 C8.25,5.66 8.22,5.33 8.18,5 L9.87,5 C9.95,5.32 10,5.655 10,6 C10,6.345 9.95,6.68 9.87,7 L8.18,7 Z" id="icon" fill="#45FF00"></path>
    </g>
</svg>