<svg width="12" height="12" viewBox="0 0 12 12" fill="none" xmlns="http://www.w3.org/2000/svg">
<path fill-rule="evenodd" clip-rule="evenodd" d="M6 9C6.55228 9 7 8.55228 7 8C7 7.445 6.55 7 6 7C5.44772 7 5 7.44772 5 8C5 8.55228 5.44772 9 6 9ZM3 5V4C3 2.34315 4.34315 1 6 1C7.65685 1 9 2.34315 9 4V5C9.55228 5 10 5.38376 10 5.85714V10.1429C10 10.6162 9.55228 11 9 11H3C2.44772 11 2 10.6162 2 10.1429V5.85714C2 5.38143 2.45 5 3 5ZM4 5H8V4C8 2.89543 7.10457 2 6 2C4.89543 2 4 2.89543 4 4V5Z" fill="#6C6F80"/>
</svg>
