<svg xmlns="http://www.w3.org/2000/svg" width="13" height="12" fill="none" viewBox="0 0 13 12">
  <path fill="#6C6F80" fill-rule="evenodd" d="M6.495 1A4.998 4.998 0 0 0 1.5 6c0 2.76 2.235 5 4.995 5A5.003 5.003 0 0 0 11.5 6c0-2.76-2.24-5-5.005-5ZM9.96 4H8.485a7.825 7.825 0 0 0-.69-1.78c.92.315 1.685.955 2.165 1.78ZM6.5 2.02c.415.6.74 1.265.955 1.98h-1.91c.215-.715.54-1.38.955-1.98ZM2.63 7a4.12 4.12 0 0 1-.13-1c0-.345.05-.68.13-1h1.69c-.04.33-.07.66-.07 1 0 .34.03.67.07 1H2.63Zm.41 1h1.475c.16.625.39 1.225.69 1.78A3.993 3.993 0 0 1 3.04 8Zm1.475-4H3.04a3.993 3.993 0 0 1 2.165-1.78c-.3.555-.53 1.155-.69 1.78ZM6.5 9.98A7.043 7.043 0 0 1 5.545 8h1.91A7.043 7.043 0 0 1 6.5 9.98ZM7.67 7H5.33c-.045-.33-.08-.66-.08-1 0-.34.035-.675.08-1h2.34c.045.325.08.66.08 1 0 .34-.035.67-.08 1Zm.125 2.78c.3-.555.53-1.155.69-1.78H9.96a4.015 4.015 0 0 1-2.165 1.78ZM8.68 7c.04-.33.07-.66.07-1 0-.34-.03-.67-.07-1h1.69c.08.32.13.655.13 1s-.05.68-.13 1H8.68Z" clip-rule="evenodd"/>
</svg>
