<svg width="12" height="12" viewBox="0 0 12 12" fill="none" xmlns="http://www.w3.org/2000/svg">
<path fill-rule="evenodd" clip-rule="evenodd" d="M7 4V5C7.55228 5 8 5.38376 8 5.85714V10.1429C8 10.6162 7.55228 11 7 11H1C0.447715 11 0 10.6162 0 10.1429V5.85714C0 5.38143 0.45 5 1 5H6V4C6 2.34315 7.34315 1 9 1C10.6569 1 12 2.34315 12 4V5H11V4C11 2.89543 10.1046 2 9 2C7.89543 2 7 2.89543 7 4ZM5 8C5 8.55228 4.55228 9 4 9C3.44772 9 3 8.55228 3 8C3 7.44772 3.44772 7 4 7C4.55 7 5 7.445 5 8Z" fill="#6C6F80"/>
</svg>
