<?xml version="1.0" encoding="UTF-8"?>
<svg width="12px" height="12px" viewBox="0 0 12 12" version="1.1" xmlns="http://www.w3.org/2000/svg" xmlns:xlink="http://www.w3.org/1999/xlink">
    <title>Icons/12/action-calendar</title>
    <g id="Icons/12/action-calendar" stroke="none" stroke-width="1" fill="none" fill-rule="evenodd">
        <path d="M10,2 L9,2 L9,1 L8,1 L8,2 L4,2 L4,1 L3,1 L3,2 L2,2 C1.45,2 1,2.45 1,3 L1,10 C1,10.55 1.45,11 2,11 L10,11 C10.55,11 11,10.55 11,10 L11,3 C11,2.45 10.55,2 10,2 Z M10,10 L2,10 L2,4 L10,4 L10,10 Z" id="icon" fill="#45FF00"></path>
    </g>
</svg>