<svg xmlns="http://www.w3.org/2000/svg" width="13" height="12" fill="none" viewBox="0 0 13 12">
  <path fill="#6C6F80" fill-rule="evenodd" d="M8.5 3h2c.275 0 .51.098.707.294A.962.962 0 0 1 11.5 4v5.5c0 .275-.098.51-.293.707a.964.964 0 0 1-.707.293h-8a.962.962 0 0 1-.706-.293A.963.963 0 0 1 1.5 9.5V4c0-.275.098-.51.294-.706A.962.962 0 0 1 2.5 3h2V2c0-.275.098-.51.294-.706A.963.963 0 0 1 5.5 1h2c.275 0 .51.098.707.294A.964.964 0 0 1 8.5 2v1Zm-3-1v1h2V2h-2Zm-3 2.002L2.502 4h7.996l.001.001h.001V9.5l-.001.001H2.502L2.5 9.497V4.002Z" clip-rule="evenodd"/>
</svg>
