<svg width="12" height="12" viewBox="0 0 12 12" fill="none" xmlns="http://www.w3.org/2000/svg">
<g clip-path="url(#clip0_1700_384)">
<path fill-rule="evenodd" clip-rule="evenodd" d="M2.5957 3.30168L0.979641 1.68562L1.68675 0.978516L11.0201 10.3118L10.313 11.019L8.55094 9.25692C7.7768 9.69625 6.91217 9.99935 6 9.99935C2.68629 9.99935 0 5.99935 0 5.99935C0 5.99935 1.02761 4.4692 2.5957 3.30168ZM4.27709 4.98307C4.10103 5.28089 4 5.62832 4 5.99935C4 7.10392 4.89543 7.99935 6 7.99935C6.37103 7.99935 6.71846 7.89832 7.01628 7.72226L6.2594 6.96538C6.17667 6.98753 6.08972 6.99935 6 6.99935C5.44772 6.99935 5 6.55163 5 5.99935C5 5.90963 5.01181 5.82268 5.03397 5.73995L4.27709 4.98307Z" fill="#6C6F80"/>
<path d="M6.041 3.99976L4.35527 2.31403C4.87793 2.11784 5.42967 1.99935 6 1.99935C9.31371 1.99935 12 5.99935 12 5.99935C12 5.99935 11.2846 7.06456 10.1368 8.09559L7.99959 5.95835C7.97803 4.88634 7.11301 4.02132 6.041 3.99976Z" fill="#6C6F80"/>
</g>
<defs>
<clipPath id="clip0_1700_384">
<rect width="12" height="12" fill="white"/>
</clipPath>
</defs>
</svg>
