<?xml version="1.0" encoding="UTF-8"?>
<svg width="12px" height="12px" viewBox="0 0 12 12" version="1.1" xmlns="http://www.w3.org/2000/svg" xmlns:xlink="http://www.w3.org/1999/xlink">
    <title>Icons/12/action-eye</title>
    <g id="Icons/12/action-eye" stroke="none" stroke-width="1" fill="none" fill-rule="evenodd">
        <path d="M6,2 C8.209139,2 10.209139,3.33333333 12,6 C10.209139,8.66666667 8.209139,10 6,10 C3.790861,10 1.790861,8.66666667 2.22044605e-14,6 C1.790861,3.33333333 3.790861,2 6,2 Z M6,4 C4.8954305,4 4,4.8954305 4,6 C4,7.1045695 4.8954305,8 6,8 C7.1045695,8 8,7.1045695 8,6 C8,4.8954305 7.1045695,4 6,4 Z M6,5 C6.55228475,5 7,5.44771525 7,6 C7,6.55228475 6.55228475,7 6,7 C5.44771525,7 5,6.55228475 5,6 C5,5.44771525 5.44771525,5 6,5 Z" id="icon" fill="#45FF00"></path>
    </g>
</svg>