<svg width="12" height="12" viewBox="0 0 12 12" fill="none" xmlns="http://www.w3.org/2000/svg">
<path fill-rule="evenodd" clip-rule="evenodd" d="M2.01613 6.36139C2.00547 6.24235 2.00002 6.12181 2.00002 6C2.00002 5.87819 2.00547 5.75765 2.01613 5.63861L1.1759 4.36603L2.1759 2.63397L3.70201 2.72558C3.89666 2.58872 4.10406 2.46878 4.32209 2.36789L5.00603 1H7.00603L7.69362 2.37517C7.90627 2.4747 8.10872 2.59239 8.29898 2.72624L9.83616 2.63397L10.8362 4.36603L9.98533 5.65467C9.99506 5.76849 10 5.88366 10 6C10 6.11634 9.99506 6.23151 9.98533 6.34533L10.8362 7.63397L9.83616 9.36602L8.29898 9.27376C8.10872 9.40761 7.90627 9.5253 7.69362 9.62483L7.00603 11H5.00603L4.32209 9.63211C4.10406 9.53122 3.89666 9.41128 3.70201 9.27442L2.1759 9.36602L1.1759 7.63397L2.01613 6.36139ZM6.00002 8C7.10459 8 8.00002 7.10457 8.00002 6C8.00002 4.89543 7.10459 4 6.00002 4C4.89546 4 4.00002 4.89543 4.00002 6C4.00002 7.10457 4.89546 8 6.00002 8Z" fill="#6C6F80"/>
</svg>
