<?xml version="1.0" encoding="UTF-8"?>
<svg width="12px" height="12px" viewBox="0 0 12 12" version="1.1" xmlns="http://www.w3.org/2000/svg" xmlns:xlink="http://www.w3.org/1999/xlink">
    <title>Icons/12/action-drag_indicator</title>
    <g id="Icons/12/action-drag_indicator" stroke="none" stroke-width="1" fill="none" fill-rule="evenodd">
        <path d="M5.5,9 C5.5,9.55 5.05,10 4.5,10 C3.95,10 3.5,9.55 3.5,9 C3.5,8.45 3.95,8 4.5,8 C5.05,8 5.5,8.45 5.5,9 Z M4.5,5 C3.95,5 3.5,5.45 3.5,6 C3.5,6.55 3.95,7 4.5,7 C5.05,7 5.5,6.55 5.5,6 C5.5,5.45 5.05,5 4.5,5 Z M4.5,2 C3.95,2 3.5,2.45 3.5,3 C3.5,3.55 3.95,4 4.5,4 C5.05,4 5.5,3.55 5.5,3 C5.5,2.45 5.05,2 4.5,2 Z M7.5,4 C8.05,4 8.5,3.55 8.5,3 C8.5,2.45 8.05,2 7.5,2 C6.95,2 6.5,2.45 6.5,3 C6.5,3.55 6.95,4 7.5,4 Z M7.5,5 C6.95,5 6.5,5.45 6.5,6 C6.5,6.55 6.95,7 7.5,7 C8.05,7 8.5,6.55 8.5,6 C8.5,5.45 8.05,5 7.5,5 Z M7.5,8 C6.95,8 6.5,8.45 6.5,9 C6.5,9.55 6.95,10 7.5,10 C8.05,10 8.5,9.55 8.5,9 C8.5,8.45 8.05,8 7.5,8 Z" id="icon" fill="#45FF00"></path>
    </g>
</svg>