<svg xmlns="http://www.w3.org/2000/svg" width="13" height="12" fill="none" viewBox="0 0 13 12">
  <path fill="#6C6F80" d="M3 10.5a.964.964 0 0 1-.707-.293A.964.964 0 0 1 2 9.5v-2h1v2h2v1H3Zm5 0v-1h2v-2h1v2c0 .275-.098.51-.293.707A.964.964 0 0 1 10 10.5H8Zm-1.5-3c-.417 0-.77-.146-1.063-.438A1.447 1.447 0 0 1 5 6c0-.417.146-.77.438-1.063A1.447 1.447 0 0 1 6.5 4.5c.417 0 .77.146 1.063.438C7.854 5.229 8 5.582 8 6c0 .417-.146.77-.438 1.063A1.447 1.447 0 0 1 6.5 7.5ZM2 4.5v-2c0-.275.098-.51.293-.706A.964.964 0 0 1 3 1.5h2v1H3v2H2Zm8 0v-2H8v-1h2c.275 0 .51.098.707.294A.964.964 0 0 1 11 2.5v2h-1Z"/>
</svg>
