<?xml version="1.0" encoding="UTF-8"?>
<svg width="12px" height="12px" viewBox="0 0 12 12" version="1.1" xmlns="http://www.w3.org/2000/svg" xmlns:xlink="http://www.w3.org/1999/xlink">
    <title>Icons/12/action-tune</title>
    <g id="Icons/12/action-tune" stroke="none" stroke-width="1" fill="none" fill-rule="evenodd">
        <path d="M1,9 L1,10 L5,10 L5,9 L1,9 L1,9 Z M1,2 L1,3 L7,3 L7,2 L1,2 L1,2 Z M7,11 L7,10 L11,10 L11,9 L7,9 L7,8 L6,8 L6,11 L7,11 L7,11 Z M3,4.5 L3,5.5 L1,5.5 L1,6.5 L3,6.5 L3,7.5 L4,7.5 L4,4.5 L3,4.5 L3,4.5 Z M11,6.5 L11,5.5 L5,5.5 L5,6.5 L11,6.5 L11,6.5 Z M8,4 L9,4 L9,3 L11,3 L11,2 L9,2 L9,1 L8,1 L8,4 Z" id="icon" fill="#45FF00"></path>
    </g>
</svg>