<?xml version="1.0" encoding="UTF-8"?>
<svg width="12px" height="12px" viewBox="0 0 12 12" version="1.1" xmlns="http://www.w3.org/2000/svg" xmlns:xlink="http://www.w3.org/1999/xlink">
    <title>Icons/12/action-settings</title>
    <g id="Icons/12/action-settings" stroke="none" stroke-width="1" fill="none" fill-rule="evenodd">
        <path d="M2.01610513,6.36139416 C2.00544508,6.24235462 2,6.12181319 2,6 C2,5.87818681 2.00544508,5.75764538 2.01610513,5.63860584 L1.17587876,4.3660254 L2.17587876,2.6339746 L3.70198945,2.72557648 C3.89663728,2.58871933 4.10403993,2.46877827 4.32206089,2.36788978 L5.00600578,1 L7.00600578,1 L7.69359325,2.37517495 C7.90624404,2.47470064 8.10869679,2.59238806 8.29895505,2.72624076 L9.8361328,2.6339746 L10.8361328,4.3660254 L9.98530086,5.6546687 C9.99503347,5.7684855 10,5.88366275 10,6 C10,6.11633725 9.99503347,6.2315145 9.98530086,6.3453313 L10.8361328,7.6339746 L9.8361328,9.3660254 L8.29895505,9.27375924 C8.10869679,9.40761194 7.90624404,9.52529936 7.69359325,9.62482505 L7.00600578,11 L5.00600578,11 L4.32206089,9.63211022 C4.10403993,9.53122173 3.89663728,9.41128067 3.70198945,9.27442352 L2.17587876,9.3660254 L1.17587876,7.6339746 L2.01610513,6.36139416 L2.01610513,6.36139416 Z M6,8 C7.1045695,8 8,7.1045695 8,6 C8,4.8954305 7.1045695,4 6,4 C4.8954305,4 4,4.8954305 4,6 C4,7.1045695 4.8954305,8 6,8 Z" id="icon" fill="#45FF00"></path>
    </g>
</svg>