<svg xmlns="http://www.w3.org/2000/svg" width="13" height="12" fill="none" viewBox="0 0 13 12">
  <path fill="#6C6F80" d="M6.5 7.5a1.5 1.5 0 1 0 0-3 1.5 1.5 0 0 0 0 3Z"/>
  <path fill="#6C6F80" fill-rule="evenodd" d="M12 6s-2.186 4-5.5 4S1 6 1 6s2.186-4 5.5-4S12 6 12 6Zm-1.219.06.041-.06-.04-.06a9.88 9.88 0 0 0-1.01-1.247C8.879 3.763 7.749 3 6.5 3c-1.25 0-2.379.763-3.272 1.693A9.884 9.884 0 0 0 2.178 6l.04.06c.235.343.578.797 1.01 1.247C4.121 8.237 5.251 9 6.5 9c1.25 0 2.379-.763 3.272-1.693a9.88 9.88 0 0 0 1.01-1.247Z" clip-rule="evenodd"/>
</svg>
