<svg width="12" height="12" viewBox="0 0 12 12" fill="none" xmlns="http://www.w3.org/2000/svg">
<g clip-path="url(#clip0_2005_751)">
<path d="M10.42 11.365L9.05499 10H1.49999V9.5L2.49999 8.5V5.5C2.49999 4.93 2.64499 4.365 2.91499 3.86L0.554993 1.5L1.19499 0.864998L11.055 10.73L10.42 11.365ZM9.49999 7.9V5.5C9.49999 3.95 8.48499 2.585 6.99999 2.145C6.99999 2.095 6.99999 2.05 6.99999 2C6.99999 1.73478 6.89464 1.48043 6.7071 1.29289C6.51956 1.10535 6.26521 0.999998 5.99999 0.999998C5.73478 0.999998 5.48042 1.10535 5.29289 1.29289C5.10535 1.48043 4.99999 1.73478 4.99999 2C4.99999 2.05 4.99999 2.095 4.99999 2.145C4.69499 2.235 4.39999 2.37 4.12999 2.545L9.49999 7.9ZM5.99999 11.5C6.26521 11.5 6.51956 11.3946 6.7071 11.2071C6.89464 11.0196 6.99999 10.7652 6.99999 10.5H4.99999C4.99999 10.7652 5.10535 11.0196 5.29289 11.2071C5.48042 11.3946 5.73478 11.5 5.99999 11.5Z" fill="#6C6F80"/>
</g>
<defs>
<clipPath id="clip0_2005_751">
<rect width="12" height="12" fill="white"/>
</clipPath>
</defs>
</svg>
