<svg width="12" height="12" viewBox="0 0 12 12" fill="none" xmlns="http://www.w3.org/2000/svg">
<path d="M10.5 9.5V10H1.5V9.5L2.5 8.5V5.5C2.5 3.95 3.515 2.585 5 2.145C5 2.095 5 2.05 5 2C5 1.73478 5.10536 1.48043 5.29289 1.29289C5.48043 1.10536 5.73478 1 6 1C6.26522 1 6.51957 1.10536 6.70711 1.29289C6.89464 1.48043 7 1.73478 7 2C7 2.05 7 2.095 7 2.145C8.485 2.585 9.5 3.95 9.5 5.5V8.5L10.5 9.5ZM7 10.5C7 10.7652 6.89464 11.0196 6.70711 11.2071C6.51957 11.3946 6.26522 11.5 6 11.5C5.73478 11.5 5.48043 11.3946 5.29289 11.2071C5.10536 11.0196 5 10.7652 5 10.5" fill="#6C6F80"/>
</svg>
