<svg width="12" height="12" viewBox="0 0 12 12" fill="none" xmlns="http://www.w3.org/2000/svg">
<g clip-path="url(#clip0_2005_749)">
<path d="M11.055 10.73L1.19499 0.864998L0.554993 1.5L2.91499 3.86C2.64499 4.365 2.49999 4.93 2.49999 5.5V8.5L1.49999 9.5V10H9.05499L10.42 11.365L11.055 10.73ZM3.49999 9V5.5C3.49999 5.195 3.55499 4.895 3.66999 4.615L8.05499 9H3.49999ZM4.99999 10.5H6.99999C6.99999 10.7652 6.89464 11.0196 6.7071 11.2071C6.51956 11.3946 6.26521 11.5 5.99999 11.5C5.73478 11.5 5.48042 11.3946 5.29289 11.2071C5.10535 11.0196 4.99999 10.7652 4.99999 10.5ZM4.14499 2.545C4.40999 2.375 4.69999 2.25 4.99999 2.145C4.99999 2.095 4.99999 2.05 4.99999 2C4.99999 1.73478 5.10535 1.48043 5.29289 1.29289C5.48042 1.10535 5.73478 0.999998 5.99999 0.999998C6.26521 0.999998 6.51956 1.10535 6.7071 1.29289C6.89464 1.48043 6.99999 1.73478 6.99999 2C6.99999 2.05 6.99999 2.095 6.99999 2.145C8.48499 2.585 9.49999 3.95 9.49999 5.5V7.9L8.49999 6.9V5.5C8.49999 4.83696 8.2366 4.20107 7.76776 3.73223C7.29892 3.26339 6.66303 3 5.99999 3C5.60999 3 5.22499 3.1 4.87999 3.28L4.14499 2.545Z" fill="#6C6F80"/>
</g>
<defs>
<clipPath id="clip0_2005_749">
<rect width="12" height="12" fill="white"/>
</clipPath>
</defs>
</svg>
