<svg width="12" height="12" viewBox="0 0 12 12" fill="none" xmlns="http://www.w3.org/2000/svg">
<path d="M6 1C7.32608 1 8.59785 1.52678 9.53553 2.46447C10.4732 3.40215 11 4.67392 11 6C11 7.32608 10.4732 8.59785 9.53553 9.53553C8.59785 10.4732 7.32608 11 6 11C4.67392 11 3.40215 10.4732 2.46447 9.53553C1.52678 8.59785 1 7.32608 1 6C1 4.67392 1.52678 3.40215 2.46447 2.46447C3.40215 1.52678 4.67392 1 6 1V1ZM6 1.83333C5.45283 1.83333 4.91101 1.94111 4.40549 2.1505C3.89996 2.3599 3.44063 2.66681 3.05372 3.05372C2.27232 3.83512 1.83333 4.89493 1.83333 6C1.83333 7 2.1875 7.91667 2.775 8.6375L8.6375 2.775C7.91667 2.1875 7 1.83333 6 1.83333ZM6 10.1667C7.10507 10.1667 8.16488 9.72768 8.94628 8.94628C9.72768 8.16488 10.1667 7.10507 10.1667 6C10.1667 5 9.8125 4.08333 9.225 3.3625L3.3625 9.225C4.08333 9.8125 5 10.1667 6 10.1667Z" fill="#6C6F80"/>
</svg>
