<svg xmlns="http://www.w3.org/2000/svg" width="13" height="12" fill="none" viewBox="0 0 13 12">
  <path fill="#6C6F80" fill-rule="evenodd" d="M4.02 4.945 2.965 6A2.5 2.5 0 1 0 6.5 9.535L7.555 8.48l2.845 2.845.7-.7-9.2-9.2-.7.7 2.82 2.82Zm.707.707.707.707L4.38 7.414l.707.707 1.055-1.055.707.707-1.055 1.055a1.5 1.5 0 1 1-2.121-2.121l1.055-1.055Z" clip-rule="evenodd"/>
  <path fill="#6C6F80" d="M9.329 3.171a1.5 1.5 0 0 0-2.122 0l-1.06 1.061-.708-.707L6.5 2.465A2.5 2.5 0 1 1 10.036 6L8.975 7.06l-.707-.707 1.06-1.06a1.5 1.5 0 0 0 0-2.122Z"/>
  <path fill="#6C6F80" d="M7.914 3.879 6.86 4.934l.707.707 1.056-1.055-.708-.707Z"/>
</svg>
