<svg xmlns="http://www.w3.org/2000/svg" width="13" height="12" fill="none" viewBox="0 0 13 12">
  <path fill="#6C6F80" d="M5.12 4.52 2.2 1.6l-.7.7 3.354 3.354c.001.637.245 1.274.732 1.76L6.1 6.9l1.06 1.06-.867.868a1.5 1.5 0 0 1-2.185-2.053 2.509 2.509 0 0 1-.149-1.27L3.465 6A2.5 2.5 0 1 0 7 9.536l.868-.868L10.7 11.5l.7-.7-2.839-2.839-.711-.711-1.955-1.955-.774-.774Zm1.32-.08-.708-.708L7 2.464A2.5 2.5 0 0 1 10.536 6l-.53.53c.06-.425.01-.863-.148-1.267a1.5 1.5 0 0 0-2.15-2.091l-1.27 1.267Z"/>
  <path fill="#6C6F80" d="m8.13 6.13.919.918a2.5 2.5 0 0 0-1.024-2.78L7.293 5a1.498 1.498 0 0 1 .837 1.13Z"/>
</svg>
