<svg xmlns="http://www.w3.org/2000/svg" width="13" height="12" fill="none" viewBox="0 0 13 12">
  <path fill="#6C6F80" d="M6.5 2.465A2.5 2.5 0 0 1 10.036 6l-.53.53c.06-.425.01-.863-.148-1.267a1.5 1.5 0 0 0-2.15-2.091L5.792 4.586a1.5 1.5 0 0 0-.035 2.085l.035.036-.707.707a2.5 2.5 0 0 1 0-3.535L6.5 2.465Z"/>
  <path fill="#6C6F80" d="m2.965 6 .494-.495c-.06.426-.01.865.149 1.27A1.5 1.5 0 0 0 5.793 8.83l1.414-1.415A1.5 1.5 0 0 0 6.793 5l.732-.732a2.5 2.5 0 0 1 .389 3.854L6.5 9.536A2.5 2.5 0 0 1 2.965 6Z"/>
</svg>
