<?xml version="1.0" encoding="UTF-8"?>
<svg width="12px" height="12px" viewBox="0 0 12 12" version="1.1" xmlns="http://www.w3.org/2000/svg" xmlns:xlink="http://www.w3.org/1999/xlink">
    <title>Icons/12/copy_content</title>
    <g id="Icons/12/copy_content" stroke="none" stroke-width="1" fill="none" fill-rule="evenodd">
        <path d="M10,10 L4,10 L4,4 L10,4 M4,3 C3.44771525,3 3,3.44771525 3,4 L3,10 C3,10.5522847 3.44771525,11 4,11 L10,11 C10.5522847,11 11,10.5522847 11,10 L11,4 C11,3.44771525 10.5522847,3 10,3 L4,3 Z M7,1 L2,1 C1.44771525,1 1,1.44771525 1,2 L1,7 L2,7 L2,2 L7,2 L7,1 Z" id="icon" fill="#45FF00"></path>
    </g>
</svg>