<svg width="12" height="12" viewBox="0 0 12 12" fill="none" xmlns="http://www.w3.org/2000/svg">
<path d="M5.2981 10.9842C5.12206 10.9315 5 10.7564 5 10.5567V7H3.40505C3.25955 7 3.12523 6.9146 3.05316 6.77631C2.98111 6.63799 2.98238 6.46803 3.05648 6.33101L6.24636 1.2175C6.33933 1.04564 6.52585 0.96308 6.7019 1.01574C6.87791 1.06848 7 1.24353 7 1.44325V5L8.59495 5C8.74045 5 8.87477 5.08539 8.94684 5.22368C9.01889 5.362 9.01762 5.53196 8.94352 5.66898L5.75364 10.7825C5.66085 10.954 5.47455 11.0371 5.2981 10.9842Z" fill="#6C6F80"/>
</svg>
