<svg width="12" height="12" viewBox="0 0 12 12" fill="none" xmlns="http://www.w3.org/2000/svg">
<path fill-rule="evenodd" clip-rule="evenodd" d="M6 11C8.76142 11 11 8.76142 11 6C11 3.23858 8.76142 1 6 1C3.23858 1 1 3.23858 1 6C1 8.76142 3.23858 11 6 11ZM3.26304 8.36647C3.51432 8.45549 3.77663 8.5 4.04995 8.5C4.32769 8.5 4.58559 8.44659 4.82365 8.33976C5.06611 8.23294 5.27993 8.0727 5.46508 7.85905L4.86994 7.13798C4.77736 7.24036 4.66494 7.32938 4.53268 7.40504C4.40484 7.47626 4.25715 7.51187 4.08963 7.51187C3.81189 7.51187 3.58706 7.40282 3.41513 7.18472C3.24761 6.96662 3.16384 6.65282 3.16384 6.24332C3.16384 6.04748 3.18809 5.87166 3.23659 5.71588C3.28949 5.56009 3.35782 5.42878 3.44158 5.32196C3.52975 5.21513 3.62894 5.13279 3.73915 5.07493C3.85378 5.01706 3.97501 4.98813 4.10286 4.98813C4.24834 4.98813 4.37618 5.01929 4.4864 5.0816C4.60102 5.13947 4.71123 5.21513 4.81703 5.30861L5.41218 4.57418C5.25788 4.4184 5.06832 4.28487 4.84348 4.17359C4.61865 4.05786 4.36296 4 4.0764 4C3.80308 4 3.54077 4.05119 3.28949 4.15356C3.04261 4.25593 2.82219 4.40504 2.62821 4.60089C2.43865 4.79228 2.28655 5.03042 2.17193 5.31528C2.05731 5.5957 2 5.9184 2 6.28338C2 6.65282 2.05511 6.97774 2.16532 7.25816C2.27553 7.53412 2.42322 7.76558 2.60837 7.95252C2.79794 8.13501 3.01616 8.273 3.26304 8.36647ZM5.58525 4.08012L6.8549 8.41988H8.23035L9.5 4.08012H8.33616L7.89971 5.97626C7.8424 6.20772 7.7895 6.43694 7.74101 6.66395C7.69692 6.8865 7.64402 7.11573 7.5823 7.35163H7.55585C7.49413 7.11573 7.44123 6.8865 7.39714 6.66395C7.35306 6.43694 7.30016 6.20772 7.23844 5.97626L6.78877 4.08012H5.58525Z" fill="#6C6F80"/>
</svg>
