<svg xmlns="http://www.w3.org/2000/svg" width="13" height="12" fill="none" viewBox="0 0 13 12">
  <path fill="#6C6F80" fill-rule="evenodd" d="M9.5 8.5v-1h1v1h1v1h-1v1h-1v-1h-1v-1h1ZM6 7.5c-2.21 0-4-.895-4-2V4c0 1.105 1.79 2 4 2s4-.895 4-2v2c-.997.042-1.996.573-2.51 1.357-.46.092-.963.143-1.49.143Zm1.054.93a3.015 3.015 0 0 0 .089 1.487A7.79 7.79 0 0 1 6 10c-2.21 0-4-.895-4-2V6.5c0 1.105 1.79 2 4 2 .365 0 .718-.024 1.054-.07ZM6 1c2.21 0 4 .895 4 2S8.21 5 6 5s-4-.895-4-2 1.79-2 4-2Z" clip-rule="evenodd"/>
</svg>
