<svg xmlns="http://www.w3.org/2000/svg" width="13" height="12" fill="none" viewBox="0 0 13 12">
  <path fill="#6C6F80" fill-rule="evenodd" d="M11 9.5v-1H4v1h7Zm0-3v-1H4v1h7Zm-7-3h7v-1H4v1Zm-2-1v1h1v-1H2Zm-.5 0A.5.5 0 0 1 2 2h1a.5.5 0 0 1 .5.5v1A.5.5 0 0 1 3 4H2a.5.5 0 0 1-.5-.5v-1Zm.5 3v1h1v-1H2Zm-.5 0A.5.5 0 0 1 2 5h1a.5.5 0 0 1 .5.5v1A.5.5 0 0 1 3 7H2a.5.5 0 0 1-.5-.5v-1Zm.5 3v1h1v-1H2Zm-.5 0A.5.5 0 0 1 2 8h1a.5.5 0 0 1 .5.5v1a.5.5 0 0 1-.5.5H2a.5.5 0 0 1-.5-.5v-1Z" clip-rule="evenodd"/>
</svg>
