<svg xmlns="http://www.w3.org/2000/svg" width="13" height="12" fill="none" viewBox="0 0 13 12">
  <path fill="#6C6F80" fill-rule="evenodd" d="M8 3.705 5.705 6 8 8.295 7.295 9 5 6.705 2.705 9 2 8.295 4.295 6 2 3.705 2.705 3 5 5.295 7.295 3 8 3.705Zm2.925.795h-2.44V4l.445-.41c.38-.32.66-.59.85-.815.185-.22.28-.425.285-.615a.442.442 0 0 0-.135-.35c-.09-.095-.235-.14-.43-.145-.155.005-.29.035-.42.085l-.33.195-.225-.585c.135-.11.295-.195.49-.265S9.425 1 9.66 1c.39 0 .69.1.89.305.2.195.31.465.31.785-.005.28-.095.54-.27.775-.17.24-.38.465-.635.68l-.32.26v.01h1.29V4.5Z" clip-rule="evenodd"/>
</svg>
