<svg width="12" height="12" viewBox="0 0 12 12" fill="none" xmlns="http://www.w3.org/2000/svg">
<path fill-rule="evenodd" clip-rule="evenodd" d="M0.322874 10.8823C0.114594 11.0906 0.114594 11.4283 0.322874 11.6366C0.53115 11.8449 0.868844 11.8449 1.07712 11.6366L9.08 3.63372C9.5548 4.3062 9.83333 5.12574 9.83333 6.01072C9.83333 8.29647 7.98166 10.1471 5.7 10.1471C5.40544 10.1471 5.16666 10.3859 5.16666 10.6804C5.16666 10.9749 5.40544 11.2137 5.7 11.2137C8.57113 11.2137 10.9 8.8852 10.9 6.01072C10.9 4.83166 10.5059 3.74296 9.84306 2.87067L11.6366 1.07712C11.8449 0.868843 11.8449 0.531153 11.6366 0.322874C11.4283 0.114595 11.0906 0.114594 10.8823 0.322873L2.53447 8.67074C1.93018 7.95147 1.56666 7.02427 1.56666 6.01072C1.56666 3.73146 3.41788 1.88042 5.7 1.88042C5.99455 1.88042 6.23333 1.64163 6.23333 1.34708C6.23333 1.05253 5.99455 0.813749 5.7 0.813749C2.82934 0.813749 0.499997 3.1418 0.499997 6.01072C0.499997 7.31827 0.982484 8.51367 1.77798 9.4272L0.322874 10.8823Z" fill="#6C6F80"/>
</svg>
