<svg xmlns="http://www.w3.org/2000/svg" width="13" height="12" fill="none" viewBox="0 0 13 12">
  <path fill="#6C6F80" fill-rule="evenodd" d="M8.75 1.5c-.87 0-1.705.405-2.25 1.045A2.994 2.994 0 0 0 4.25 1.5C2.71 1.5 1.5 2.71 1.5 4.25c0 1.89 1.7 3.43 4.275 5.77l.725.655.725-.66C9.8 7.68 11.5 6.14 11.5 4.25c0-1.54-1.21-2.75-2.75-2.75Zm-2.2 7.775-.05.05-.05-.05C4.07 7.12 2.5 5.695 2.5 4.25c0-1 .75-1.75 1.75-1.75.77 0 1.52.495 1.785 1.18h.935c.26-.685 1.01-1.18 1.78-1.18 1 0 1.75.75 1.75 1.75 0 1.445-1.57 2.87-3.95 5.025Z" clip-rule="evenodd"/>
</svg>
