<?xml version="1.0" encoding="UTF-8"?>
<svg width="12px" height="12px" viewBox="0 0 12 12" version="1.1" xmlns="http://www.w3.org/2000/svg" xmlns:xlink="http://www.w3.org/1999/xlink">
    <title>Icons/12/file-attachment</title>
    <g id="Icons/12/file-attachment" stroke="none" stroke-width="1" fill="none" fill-rule="evenodd">
        <path d="M9.27272727,8.18181818 L3,8.18181818 C1.79454545,8.18181818 0.818181818,7.20545455 0.818181818,6 C0.818181818,4.79454545 1.79454545,3.81818182 3,3.81818182 L9.81818182,3.81818182 C10.5709091,3.81818182 11.1818182,4.42909091 11.1818182,5.18181818 C11.1818182,5.93454545 10.5709091,6.54545455 9.81818182,6.54545455 L4.09090909,6.54545455 C3.79090909,6.54545455 3.54545455,6.3 3.54545455,6 C3.54545455,5.7 3.79090909,5.45454545 4.09090909,5.45454545 L9.27272727,5.45454545 L9.27272727,4.63636364 L4.09090909,4.63636364 C3.33818182,4.63636364 2.72727273,5.24727273 2.72727273,6 C2.72727273,6.75272727 3.33818182,7.36363636 4.09090909,7.36363636 L9.81818182,7.36363636 C11.0236364,7.36363636 12,6.38727273 12,5.18181818 C12,3.97636364 11.0236364,3 9.81818182,3 L3,3 C1.34181818,3 0,4.34181818 0,6 C0,7.65818182 1.34181818,9 3,9 L9.27272727,9 L9.27272727,8.18181818 Z" id="icon" fill="#45FF00" transform="translate(6.000000, 6.000000) rotate(-90.000000) translate(-6.000000, -6.000000) "></path>
    </g>
</svg>