<svg width="12" height="12" viewBox="0 0 12 12" fill="none" xmlns="http://www.w3.org/2000/svg">
<path fill-rule="evenodd" clip-rule="evenodd" d="M8.18182 2.72727V9C8.18182 10.2055 7.20545 11.1818 6 11.1818C4.79455 11.1818 3.81818 10.2055 3.81818 9L3.81818 2.18182C3.81818 1.42909 4.42909 0.818182 5.18182 0.818182C5.93455 0.818182 6.54545 1.42909 6.54545 2.18182V7.90909C6.54545 8.20909 6.3 8.45455 6 8.45455C5.7 8.45455 5.45455 8.20909 5.45455 7.90909V2.72727H4.63636L4.63636 7.90909C4.63636 8.66182 5.24727 9.27273 6 9.27273C6.75273 9.27273 7.36364 8.66182 7.36364 7.90909L7.36364 2.18182C7.36364 0.976363 6.38727 0 5.18182 0C3.97636 0 3 0.976363 3 2.18182L3 9C3 10.6582 4.34182 12 6 12C7.65818 12 9 10.6582 9 9V2.72727H8.18182Z" fill="#6C6F80"/>
</svg>
