<svg xmlns="http://www.w3.org/2000/svg" width="13" height="12" fill="none" viewBox="0 0 13 12">
  <path fill="#6C6F80" fill-rule="evenodd" d="M6.5 5.694a.667.667 0 1 1 0 1.334.667.667 0 0 1 0-1.334Zm2.667 0a.667.667 0 1 1 0 1.334.667.667 0 0 1 0-1.334Zm-5.334 0a.667.667 0 1 1 0 1.334.667.667 0 0 1 0-1.334Zm2.667-3a.667.667 0 1 1 0 1.334.667.667 0 0 1 0-1.334Zm2.667 0a.667.667 0 1 1 0 1.334.667.667 0 0 1 0-1.334Zm-5.334 0a.667.667 0 1 1 0 1.334.667.667 0 0 1 0-1.334Zm2.667 6a.667.667 0 1 1 0 1.334.667.667 0 0 1 0-1.334Zm2.667 0a.667.667 0 1 1 0 1.334.667.667 0 0 1 0-1.334Zm-5.334 0a.667.667 0 1 1 0 1.334.667.667 0 0 1 0-1.334Z" clip-rule="evenodd"/>
</svg>
