<svg width="12" height="12" viewBox="0 0 12 12" fill="none" xmlns="http://www.w3.org/2000/svg">
<path d="M6.84344 7.2549C7.2319 7.87615 7.46516 8.75576 7.45567 9.7647C7.76179 9.7647 12.0474 6 10.2107 0.666664C8.06791 1.29412 5.00673 3.80392 4.70062 5.37255C5.238 5.52329 5.82414 5.92862 6.2312 6.31372C6.53732 5.37255 7.76179 4.11764 8.68015 3.49019C7.76179 4.7451 7.14956 5.68627 6.84344 7.2549Z" fill="#6C6F80"/>
<path d="M1.33331 6.00001C1.63943 8.82354 3.17002 11.0196 5.61896 11.3333C5.61896 9.76471 3.78225 7.56864 3.17002 7.25491C5.00672 7.56864 6.23119 9.13726 6.84342 11.0196C6.84342 11.0196 7.14954 4.74511 1.33331 6.00001Z" fill="#6C6F80"/>
</svg>
