<svg width="12" height="12" viewBox="0 0 12 12" fill="none" xmlns="http://www.w3.org/2000/svg">
<g clip-path="url(#clip0_6885_14780)">
<path d="M0.857117 6.51503H2.14283C2.1786 6.78044 2.24173 7.03742 2.33011 7.28388L1.21064 7.93055C1.02967 7.48609 0.907619 7.01004 0.857117 6.51503Z" fill="#6C6F80"/>
<path d="M1.90715 2.82456C2.19754 2.4475 2.54054 2.11258 2.92141 1.83032L3.56532 2.94673C3.36963 3.10471 3.18866 3.27955 3.02663 3.47123L1.90715 2.82456Z" fill="#6C6F80"/>
<path d="M6.60601 2.14628V0.857147C9.1606 1.16469 11.1428 3.34063 11.1386 5.9821C11.1386 8.8321 8.83023 11.1429 5.98314 11.1429C5.24664 11.1429 4.54381 10.987 3.90832 10.7068L4.55223 9.59042C4.99623 9.76736 5.48022 9.86426 5.98524 9.86426C8.1253 9.86426 9.86553 8.12224 9.86553 5.97999C9.86553 4.0505 8.45146 2.44329 6.60601 2.14628Z" fill="#6C6F80"/>
<path d="M5.36448 0.857147V2.14628C5.11618 2.18631 4.87629 2.25161 4.64482 2.33586L3.9988 1.21735C4.42808 1.0383 4.88681 0.914021 5.36448 0.857147Z" fill="#6C6F80"/>
<path d="M0.878159 5.27434C0.945496 4.78775 1.08017 4.32434 1.27166 3.89041L2.38482 4.53498C2.29013 4.7709 2.21648 5.01735 2.17019 5.27434H0.878159Z" fill="#6C6F80"/>
<path d="M1.81246 9.01536L2.92773 8.37079C3.09607 8.58354 3.28335 8.77944 3.48746 8.95428L2.84145 10.0749C2.45006 9.77157 2.10285 9.41559 1.81246 9.01536Z" fill="#6C6F80"/>
<path d="M3.57226 5.88817L5.43621 7.71428L8.25442 4.64144L7.54299 3.83998L5.43621 6.22958L4.28566 5.14285L3.57226 5.88817Z" fill="#6C6F80"/>
</g>
<defs>
<clipPath id="clip0_6885_14780">
<rect width="12" height="12" fill="white"/>
</clipPath>
</defs>
</svg>
