<svg width="12" height="12" viewBox="0 0 12 12" fill="none" xmlns="http://www.w3.org/2000/svg">
<path d="M6 1C5.07174 1 4.1815 1.36875 3.52513 2.02513C2.86875 2.6815 2.5 3.57174 2.5 4.5C2.5 5.69 3.095 6.735 4 7.37V8.5C4 8.63261 4.05268 8.75979 4.14645 8.85355C4.24021 8.94732 4.36739 9 4.5 9H7.5C7.63261 9 7.75979 8.94732 7.85355 8.85355C7.94732 8.75979 8 8.63261 8 8.5V7.37C8.905 6.735 9.5 5.69 9.5 4.5C9.5 3.57174 9.13125 2.6815 8.47487 2.02513C7.8185 1.36875 6.92826 1 6 1V1ZM4.5 10.5C4.5 10.6326 4.55268 10.7598 4.64645 10.8536C4.74021 10.9473 4.86739 11 5 11H7C7.13261 11 7.25979 10.9473 7.35355 10.8536C7.44732 10.7598 7.5 10.6326 7.5 10.5V10H4.5V10.5Z" fill="#6C6F80"/>
</svg>
