<svg width="12" height="12" viewBox="0 0 12 12" fill="none" xmlns="http://www.w3.org/2000/svg">
<path d="M9.52047 9.52067H8.03879V7.20021C8.03879 6.64687 8.02891 5.93456 7.26816 5.93456C6.49644 5.93456 6.37837 6.53744 6.37837 7.15993V9.52052H4.89668V4.74871H6.3191V5.40083H6.33901C6.48136 5.15743 6.68707 4.95719 6.93421 4.82145C7.18135 4.68572 7.46068 4.61955 7.74245 4.63001C9.2442 4.63001 9.52109 5.61784 9.52109 6.90294L9.52047 9.52067ZM3.22485 4.09643C3.05479 4.09646 2.88854 4.04606 2.74712 3.9516C2.6057 3.85715 2.49547 3.72287 2.43036 3.56576C2.36526 3.40865 2.3482 3.23577 2.38134 3.06896C2.41449 2.90216 2.49635 2.74893 2.61658 2.62865C2.73681 2.50837 2.89001 2.42645 3.0568 2.39324C3.22358 2.36003 3.39647 2.37703 3.5536 2.44209C3.71073 2.50714 3.84503 2.61733 3.93954 2.75871C4.03405 2.9001 4.08451 3.06634 4.08454 3.23641C4.08456 3.34933 4.06234 3.46115 4.01914 3.56548C3.97595 3.66981 3.91263 3.76461 3.8328 3.84447C3.75297 3.92433 3.6582 3.98769 3.55388 4.03092C3.44957 4.07415 3.33776 4.09641 3.22485 4.09643ZM3.96569 9.52067H2.48246V4.74871H3.96569V9.52067ZM10.2592 1.00068H1.73791C1.5445 0.998498 1.35814 1.07319 1.21977 1.20835C1.08141 1.34351 1.00236 1.52807 1 1.72148V10.2784C1.00228 10.4719 1.08128 10.6566 1.21964 10.7919C1.358 10.9272 1.54441 11.002 1.73791 10.9999H10.2592C10.453 11.0024 10.64 10.9277 10.7789 10.7925C10.9178 10.6572 10.9973 10.4723 11 10.2784V1.72087C10.9972 1.52707 10.9177 1.3423 10.7787 1.20714C10.6398 1.07199 10.4529 0.997508 10.2592 1.00006V1.00068Z" fill="#6C6F80"/>
</svg>
