<svg xmlns="http://www.w3.org/2000/svg" width="13" height="12" fill="none" viewBox="0 0 13 12">
  <path fill="#6C6F80" d="M10.02 9.52H8.54V7.2c0-.553-.01-1.265-.77-1.265-.773 0-.89.602-.89 1.225v2.36H5.396V4.75h1.422v.65h.02a1.559 1.559 0 0 1 1.403-.771c1.502 0 1.78.988 1.78 2.273L10.02 9.52ZM3.726 4.097a.86.86 0 1 1 0-1.72.86.86 0 0 1 0 1.72Zm.74 5.425H2.983V4.749h1.484V9.52ZM10.76 1H2.238a.73.73 0 0 0-.738.72v8.557a.73.73 0 0 0 .738.722h8.521a.732.732 0 0 0 .741-.722V1.721a.731.731 0 0 0-.74-.72Z"/>
</svg>
