<svg xmlns="http://www.w3.org/2000/svg" width="13" height="12" fill="none" viewBox="0 0 13 12">
  <path fill="#6C6F80" d="M10.095 4.385c-.153 0-.297-.028-.43-.085a1.112 1.112 0 0 1-.58-.58A1.088 1.088 0 0 1 9 3.29a1.075 1.075 0 0 1 .32-.77c.1-.1.215-.178.345-.235a.982.982 0 0 1 .43-.085.97.97 0 0 1 .425.085 1.096 1.096 0 0 1 .585 1.435 1.113 1.113 0 0 1-.585.58 1.075 1.075 0 0 1-.425.085Zm0-1.56a.5.5 0 0 0-.345.135.468.468 0 0 0-.125.33c0 .13.042.242.125.335.1.083.215.125.345.125a.47.47 0 0 0 .33-.125.427.427 0 0 0 .14-.335c0-.13-.047-.24-.14-.33a.449.449 0 0 0-.33-.135Zm1.405 2.34V7.5c0 .21-.04.41-.12.6a1.55 1.55 0 0 1-.835.83 1.537 1.537 0 0 1-.605.125A1.36 1.36 0 0 1 9.56 9a1.123 1.123 0 0 1-.355-.125A2.483 2.483 0 0 1 8.3 10.15c-.21.153-.442.27-.695.35a2.478 2.478 0 0 1-1.695-.03 2.534 2.534 0 0 1-.75-.47 2.5 2.5 0 0 1-.83-1.55H1.915a.415.415 0 0 1-.295-.125.395.395 0 0 1-.12-.29v-4.17a.412.412 0 0 1 .415-.415H5.5a1.452 1.452 0 0 1 .28-1.66c.133-.13.29-.233.47-.31a1.32 1.32 0 0 1 .56-.115c.203 0 .393.038.57.115.177.077.332.18.465.31a1.452 1.452 0 0 1 .425 1.035c0 .2-.038.39-.115.57-.073.177-.177.33-.31.46a1.49 1.49 0 0 1-.465.315 1.416 1.416 0 0 1-.88.08v.45h4.53c.13 0 .242.045.335.135.09.09.135.2.135.33ZM6.815 2a.81.81 0 0 0-.595.235.832.832 0 0 0-.175.915c.043.1.102.188.175.265a.92.92 0 0 0 .28.18.74.74 0 0 0 .315.065c.113 0 .22-.022.32-.065a.848.848 0 0 0 .515-.77.848.848 0 0 0-.515-.77.922.922 0 0 0-.32-.055ZM4.39 5.09h.94v-.78H2.67v.78h.94v2.5h.78v-2.5Zm4.3 3.045v-2.81H6.5v2.71c0 .113-.04.21-.12.29a.415.415 0 0 1-.295.125H4.96a1.968 1.968 0 0 0 .645 1.12c.16.137.343.245.55.325.203.07.423.105.66.105.257 0 .498-.045.725-.135a1.87 1.87 0 0 0 1-1c.1-.227.15-.47.15-.73Zm2.185-.635V5.325h-1.56V8.18a.855.855 0 0 0 .285.19c.1.04.213.06.34.06.13 0 .252-.025.365-.075a.961.961 0 0 0 .295-.2.847.847 0 0 0 .2-.3.87.87 0 0 0 .075-.355Z"/>
</svg>
