<svg xmlns="http://www.w3.org/2000/svg" width="13" height="12" fill="none" viewBox="0 0 13 12">
  <path fill="#6C6F80" d="M10.094 4.401c.604 0 1.094-.492 1.094-1.099s-.49-1.1-1.094-1.1A1.099 1.099 0 0 0 9 3.303c0 .607.49 1.1 1.094 1.1Z"/>
  <path fill="#6C6F80" fill-rule="evenodd" d="M9.767 8.172V5.187a.472.472 0 0 0-.468-.472h1.732c.257 0 .469.213.469.472v2.336a1.576 1.576 0 0 1-1.886 1.538l-.01-.003c.105-.276.163-.575.163-.886ZM6.083 3.459H1.917a.42.42 0 0 0-.417.419v4.188c0 .23.188.418.417.418h4.166a.42.42 0 0 0 .417-.418V3.878a.42.42 0 0 0-.417-.419ZM4.31 5.022h.934v-.62H2.757v.62h.939V7.54h.614V5.02Z" clip-rule="evenodd"/>
  <path fill="#6C6F80" fill-rule="evenodd" d="M5.494 3.459h1.044a.42.42 0 0 1 .416.419v.412a1.463 1.463 0 0 0 1.317-1.46c0-.809-.653-1.465-1.458-1.465-.806 0-1.459.656-1.459 1.466 0 .225.05.438.14.628Zm-1.063 5.48a2.266 2.266 0 0 0 .219.488 2.499 2.499 0 0 0 2.164 1.256c1.37 0 2.498-1.133 2.498-2.511V5.187a.472.472 0 0 0-.468-.472h-1.89V8.52a.42.42 0 0 1-.416.419H4.43Z" clip-rule="evenodd"/>
</svg>
