<svg width="12" height="12" viewBox="0 0 12 12" fill="none" xmlns="http://www.w3.org/2000/svg">
<path fill-rule="evenodd" clip-rule="evenodd" d="M1.33333 2.8C1.03878 2.8 0.8 3.03878 0.8 3.33333V8.66667C0.8 8.96122 1.03878 9.2 1.33333 9.2H10.6667C10.9612 9.2 11.2 8.96122 11.2 8.66667V3.33333C11.2 3.03878 10.9612 2.8 10.6667 2.8H1.33333ZM0 3.33333C0 2.59695 0.596954 2 1.33333 2H10.6667C11.403 2 12 2.59695 12 3.33333V8.66667C12 9.40305 11.403 10 10.6667 10H1.33333C0.596954 10 0 9.40305 0 8.66667V3.33333Z" fill="#6C6F80"/>
<path d="M2.39583 7.66687V4.17887H3.0305L4.1185 6.14154L4.47583 6.88287H4.49717C4.48295 6.70153 4.46517 6.50777 4.44383 6.30154C4.42605 6.09177 4.41717 5.8891 4.41717 5.69354V4.17887H5.00917V7.66687H4.3745L3.2865 5.70421L2.92917 4.96287H2.90783C2.92205 5.14777 2.93805 5.34154 2.95583 5.54421C2.97717 5.74687 2.98783 5.94599 2.98783 6.14154V7.66687H2.39583Z" fill="#6C6F80"/>
<path d="M5.51717 8.5202L6.75987 3.88021H7.1758L5.93317 8.5202H5.51717Z" fill="#6C6F80"/>
<path d="M8.23027 5.81087L8.1076 6.23754H8.99827L8.8756 5.81087C8.81873 5.62599 8.7636 5.43577 8.71027 5.24021C8.66053 5.04465 8.61073 4.85087 8.56093 4.65887H8.5396C8.48987 4.85443 8.44007 5.04999 8.39027 5.24554C8.34053 5.43754 8.2872 5.62599 8.23027 5.81087ZM7.06227 7.66687L8.19827 4.17887H8.9236L10.0596 7.66687H9.40893L9.13693 6.72287H7.9636L7.6916 7.66687H7.06227Z" fill="#6C6F80"/>
</svg>
