<?xml version="1.0" encoding="UTF-8"?>
<svg width="12px" height="12px" viewBox="0 0 12 12" version="1.1" xmlns="http://www.w3.org/2000/svg" xmlns:xlink="http://www.w3.org/1999/xlink">
    <title>Icons/12/navigation-more_vert</title>
    <g id="Icons/12/navigation-more_vert" stroke="none" stroke-width="1" fill="none" fill-rule="evenodd">
        <path d="M6,4 C6.55,4 7,3.55 7,3 C7,2.45 6.55,2 6,2 C5.45,2 5,2.45 5,3 C5,3.55 5.45,4 6,4 Z M6,5 C5.45,5 5,5.45 5,6 C5,6.55 5.45,7 6,7 C6.55,7 7,6.55 7,6 C7,5.45 6.55,5 6,5 Z M6,8 C5.45,8 5,8.45 5,9 C5,9.55 5.45,10 6,10 C6.55,10 7,9.55 7,9 C7,8.45 6.55,8 6,8 Z" id="icon" fill="#45FF00"></path>
    </g>
</svg>