<svg xmlns="http://www.w3.org/2000/svg" width="13" height="12" fill="none" viewBox="0 0 13 12">
  <path fill="#6C6F80" d="M6.5 10c-1.117 0-2.063-.387-2.837-1.162C2.888 8.063 2.5 7.117 2.5 6s.388-2.063 1.163-2.837C4.438 2.388 5.383 2 6.5 2c.575 0 1.125.119 1.65.357A3.8 3.8 0 0 1 9.5 3.375V2h1v3.5H7v-1h2.1a2.919 2.919 0 0 0-1.093-1.1A2.965 2.965 0 0 0 6.5 3c-.833 0-1.542.292-2.125.875A2.893 2.893 0 0 0 3.5 6c0 .833.292 1.542.875 2.125A2.893 2.893 0 0 0 6.5 9c.642 0 1.22-.183 1.738-.55.516-.367.879-.85 1.087-1.45h1.05A3.948 3.948 0 0 1 8.95 9.162 3.88 3.88 0 0 1 6.5 10Z"/>
</svg>
