<?xml version="1.0" encoding="UTF-8"?>
<svg width="12px" height="12px" viewBox="0 0 12 12" version="1.1" xmlns="http://www.w3.org/2000/svg" xmlns:xlink="http://www.w3.org/1999/xlink">
    <title>Icons/12/navigation-refresh</title>
    <g id="Icons/12/navigation-refresh" stroke="none" stroke-width="1" fill="none" fill-rule="evenodd">
        <path d="M8.82426517,3.175 C8.09881176,2.45 7.10318949,2 5.99749844,2 C3.78611632,2 2,3.79 2,6 C2,8.21 3.78611632,10 5.99749844,10 C7.86366479,10 9.41963727,8.725 9.86491557,7 L8.82426517,7 C8.41400876,8.165 7.30331457,9 5.99749844,9 C4.34146341,9 2.99562226,7.655 2.99562226,6 C2.99562226,4.345 4.34146341,3 5.99749844,3 C6.82801751,3 7.5684803,3.345 8.10881801,3.89 L6.49781113,5.5 L10,5.5 L10,2 L8.82426517,3.175 Z" id="icon" fill="#45FF00"></path>
    </g>
</svg>