<?xml version="1.0" encoding="UTF-8"?>
<svg width="12px" height="12px" viewBox="0 0 12 12" version="1.1" xmlns="http://www.w3.org/2000/svg" xmlns:xlink="http://www.w3.org/1999/xlink">
    <title>Icons/12/navigation-more_horiz</title>
    <g id="Icons/12/navigation-more_horiz" stroke="none" stroke-width="1" fill="none" fill-rule="evenodd">
        <path d="M3,5 C2.45,5 2,5.45 2,6 C2,6.55 2.45,7 3,7 C3.55,7 4,6.55 4,6 C4,5.45 3.55,5 3,5 Z M9,5 C8.45,5 8,5.45 8,6 C8,6.55 8.45,7 9,7 C9.55,7 10,6.55 10,6 C10,5.45 9.55,5 9,5 Z M6,5 C5.45,5 5,5.45 5,6 C5,6.55 5.45,7 6,7 C6.55,7 7,6.55 7,6 C7,5.45 6.55,5 6,5 Z" id="icon" fill="#45FF00"></path>
    </g>
</svg>