<svg width="12" height="12" viewBox="0 0 12 12" fill="none" xmlns="http://www.w3.org/2000/svg">
<path fill-rule="evenodd" clip-rule="evenodd" d="M1.33333 2.8C1.03878 2.8 0.8 3.03878 0.8 3.33333V8.66667C0.8 8.96122 1.03878 9.2 1.33333 9.2H10.6667C10.9612 9.2 11.2 8.96122 11.2 8.66667V3.33333C11.2 3.03878 10.9612 2.8 10.6667 2.8H1.33333ZM0 3.33333C0 2.59695 0.596954 2 1.33333 2H10.6667C11.403 2 12 2.59695 12 3.33333V8.66667C12 9.40305 11.403 10 10.6667 10H1.33333C0.596954 10 0 9.40305 0 8.66667V3.33333Z" fill="#6C6F80"/>
<path fill-rule="evenodd" clip-rule="evenodd" d="M7.0842 4.22206C7.26647 4.03981 7.56193 4.03981 7.7442 4.22206C7.92647 4.40431 7.92647 4.69978 7.7442 4.88203L6.65997 5.96626L7.7442 7.05047C7.92647 7.23273 7.92647 7.5282 7.7442 7.71047C7.56193 7.89267 7.26647 7.89267 7.0842 7.71047L6 6.62623L4.91577 7.71047C4.73353 7.89267 4.43805 7.89267 4.25581 7.71047C4.07356 7.5282 4.07356 7.23273 4.25581 7.05047L5.34003 5.96626L4.25581 4.88203C4.07356 4.69978 4.07356 4.40431 4.2558 4.22206C4.43805 4.03981 4.73353 4.03981 4.91577 4.22206L6 5.30629L7.0842 4.22206Z" fill="#6C6F80"/>
</svg>
