<svg width="12" height="12" viewBox="0 0 12 12" fill="none" xmlns="http://www.w3.org/2000/svg">
<path fill-rule="evenodd" clip-rule="evenodd" d="M8.82067 3.7627C9.30853 4.37664 9.6 5.15319 9.6 5.99698C9.6 7.98834 7.98693 9.6 6 9.6C5.15497 9.6 4.37756 9.30847 3.7631 8.82027L8.82067 3.7627ZM8.0408 3.03407L3.03446 8.0404C2.63436 7.45987 2.4 6.756 2.4 5.99698C2.4 4.01255 4.01216 2.4 6 2.4C6.75767 2.4 7.46073 2.63426 8.0408 3.03407ZM10.6667 5.99698C10.6667 3.42289 8.5764 1.33334 6 1.33334C3.42361 1.33334 1.33333 3.42289 1.33333 5.99698C1.33333 8.57707 3.42361 10.6667 6 10.6667C8.5764 10.6667 10.6667 8.57707 10.6667 5.99698Z" fill="#6C6F80"/>
</svg>
