<svg xmlns="http://www.w3.org/2000/svg" width="13" height="12" fill="none" viewBox="0 0 13 12">
  <path fill="#6C6F80" d="M6 8.5h1v-3H6v3Zm.5-4c.142 0 .26-.048.356-.144A.483.483 0 0 0 7 4a.485.485 0 0 0-.144-.357A.485.485 0 0 0 6.5 3.5a.483.483 0 0 0-.356.143A.484.484 0 0 0 6 4c0 .142.048.26.144.356A.483.483 0 0 0 6.5 4.5Zm0 6.5a4.866 4.866 0 0 1-1.95-.394 5.045 5.045 0 0 1-1.587-1.069A5.043 5.043 0 0 1 1.894 7.95 4.866 4.866 0 0 1 1.5 6c0-.692.131-1.342.394-1.95a5.046 5.046 0 0 1 1.069-1.587c.45-.45.979-.807 1.587-1.07A4.871 4.871 0 0 1 6.5 1c.692 0 1.342.131 1.95.393a5.053 5.053 0 0 1 1.588 1.07c.45.45.806.979 1.068 1.587.263.608.394 1.258.394 1.95s-.131 1.342-.394 1.95a5.045 5.045 0 0 1-1.069 1.587c-.45.45-.979.807-1.587 1.069A4.866 4.866 0 0 1 6.5 11Z"/>
</svg>
