<?xml version="1.0" encoding="UTF-8"?>
<svg width="12px" height="12px" viewBox="0 0 12 12" version="1.1" xmlns="http://www.w3.org/2000/svg" xmlns:xlink="http://www.w3.org/1999/xlink">
    <title>Icons/12/notification-help-fill</title>
    <g id="Icons/12/notification-help-fill" stroke="none" stroke-width="1" fill="none" fill-rule="evenodd">
        <path d="M6,1 C3.24,1 1,3.24 1,6 C1,8.76 3.24,11 6,11 C8.76,11 11,8.76 11,6 C11,3.24 8.76,1 6,1 Z M6.5,9.5 L5.5,9.5 L5.5,8.5 L6.5,8.5 L6.5,9.5 Z M7.535,5.625 L7.085,6.085 C6.725,6.45 6.5,6.75 6.5,7.5 L5.5,7.5 L5.5,7.25 C5.5,6.7 5.725,6.2 6.085,5.835 L6.705,5.205 C6.89,5.025 7,4.775 7,4.5 C7,3.95 6.55,3.5 6,3.5 C5.45,3.5 5,3.95 5,4.5 L4,4.5 C4,3.395 4.895,2.5 6,2.5 C7.105,2.5 8,3.395 8,4.5 C8,4.94 7.82,5.34 7.535,5.625 Z" id="icon" fill="#45FF00"></path>
    </g>
</svg>