<svg width="12" height="12" viewBox="0 0 12 12" fill="none" xmlns="http://www.w3.org/2000/svg">
<g clip-path="url(#clip0_6885_14779)">
<path d="M2.14283 6.51503H0.857117C0.907619 7.01004 1.02967 7.48609 1.21064 7.93055L2.33011 7.28388C2.24173 7.03742 2.1786 6.78044 2.14283 6.51503ZM2.92141 1.83032C2.54054 2.11258 2.19754 2.4475 1.90715 2.82456L3.02663 3.47123C3.18866 3.27955 3.36963 3.10471 3.56532 2.94673L2.92141 1.83032ZM6.60601 0.857147V2.14628C8.45146 2.44329 9.86553 4.0505 9.86553 5.97999C9.86553 8.12224 8.1253 9.86426 5.98524 9.86426C5.48022 9.86426 4.99623 9.76736 4.55223 9.59042L3.90832 10.7068C4.54381 10.987 5.24664 11.1429 5.98314 11.1429C8.83023 11.1429 11.1386 8.8321 11.1386 5.9821C11.1428 3.34063 9.1606 1.16469 6.60601 0.857147ZM5.36448 2.14628V0.857147C4.88681 0.914021 4.42808 1.0383 3.9988 1.21735L4.64482 2.33586C4.87629 2.25161 5.11618 2.18631 5.36448 2.14628ZM1.27166 3.89041C1.08017 4.32434 0.945496 4.78775 0.878159 5.27434H2.17019C2.21648 5.01735 2.29013 4.7709 2.38482 4.53498L1.27166 3.89041ZM2.92773 8.37079L1.81246 9.01536C2.10285 9.41559 2.45006 9.77157 2.84145 10.0749L3.48746 8.95428C3.28335 8.77944 3.09607 8.58354 2.92773 8.37079Z" fill="#6C6F80"/>
</g>
<defs>
<clipPath id="clip0_6885_14779">
<rect width="12" height="12" fill="white"/>
</clipPath>
</defs>
</svg>
