<svg xmlns="http://www.w3.org/2000/svg" width="13" height="12" fill="none" viewBox="0 0 13 12">
  <path fill="#6C6F80" fill-rule="evenodd" d="M6.5 11a.77.77 0 0 1-.565-.235.77.77 0 0 1-.235-.565h1.6a.77.77 0 0 1-.235.565A.771.771 0 0 1 6.5 11ZM3.905 7.5c.25.426.582.772.995 1.038V9.4h3.2v-.862A3.06 3.06 0 0 0 9.095 7.5c.27-.46.405-.96.405-1.5 0-.833-.292-1.542-.875-2.125A2.892 2.892 0 0 0 6.5 3c-.833 0-1.542.292-2.125.875A2.892 2.892 0 0 0 3.5 6c0 .54.135 1.04.405 1.5Zm2.595 1h-.375V6.9H5l1.5-2.4h.375v1.6H8L6.5 8.5Z" clip-rule="evenodd"/>
  <path fill="#6C6F80" d="M6.25 1h.5v1.5h-.5V1Zm3.31 1 .354.354-1.06 1.06-.354-.353L9.56 2ZM3.353 2 3 2.354l1.06 1.06.354-.353L3.354 2Z"/>
</svg>
