<svg width="12" height="12" viewBox="0 0 12 12" fill="none" xmlns="http://www.w3.org/2000/svg">
<path fill-rule="evenodd" clip-rule="evenodd" d="M6.13551 1C5.9873 1 5.86714 1.12015 5.86714 1.26837V2.34186C5.86714 2.49008 5.9873 2.61024 6.13551 2.61024C6.28373 2.61024 6.40389 2.49008 6.40389 2.34186V1.26837C6.40389 1.12015 6.28373 1 6.13551 1ZM3.43571 6.1607C3.43571 4.66279 4.64977 3.44873 6.14769 3.44873C7.64558 3.44873 8.8597 4.66279 8.8597 6.1607C8.8597 7.12405 8.36689 7.71784 7.85391 8.33588C7.56464 8.68448 7.269 9.04074 7.05165 9.47536H5.2437C5.02638 9.04074 4.73072 8.68448 4.44145 8.33588C3.92851 7.71784 3.43571 7.12405 3.43571 6.1607ZM6.14769 5.85937V4.35272L4.94237 6.46204H6.14769V7.96868L7.35302 5.85937H6.14769ZM5.2437 10.3793V10.078H7.05165V10.3793C7.05165 10.7123 6.78891 10.9432 6.44902 10.982C6.44902 10.982 6.29751 11 6.13109 11C5.96466 11 5.84636 10.982 5.84636 10.982C5.49887 10.9067 5.2437 10.7123 5.2437 10.3793ZM2.44574 3.44787C2.31122 3.38562 2.25264 3.22611 2.31489 3.0916C2.37714 2.95709 2.53664 2.8985 2.67116 2.96075L3.64539 3.41158C3.7799 3.47383 3.83849 3.63334 3.77624 3.76785C3.71399 3.90236 3.55448 3.96095 3.41997 3.8987L2.44574 3.44787ZM9.68042 3.09177C9.61823 2.95725 9.45871 2.89866 9.32416 2.9609L8.34993 3.41169C8.21539 3.47393 8.15685 3.63344 8.21904 3.76795C8.2813 3.90247 8.44082 3.96106 8.57529 3.89882L9.5496 3.44803C9.68407 3.38579 9.74268 3.22629 9.68042 3.09177Z" fill="#6C6F80"/>
</svg>
