<svg xmlns="http://www.w3.org/2000/svg" width="13" height="12" fill="none" viewBox="0 0 13 12">
  <path fill="#6C6F80" d="M6.5 11c-.683 0-1.33-.131-1.938-.394A5.07 5.07 0 0 1 2.97 9.531a5.072 5.072 0 0 1-1.075-1.594A4.838 4.838 0 0 1 1.5 6c0-.692.135-1.342.406-1.95a5.065 5.065 0 0 1 1.1-1.587 5.24 5.24 0 0 1 1.619-1.07A4.99 4.99 0 0 1 6.6 1a5.18 5.18 0 0 1 1.888.344c.591.229 1.11.546 1.556.95.446.404.8.883 1.062 1.437a4.13 4.13 0 0 1 .394 1.794c0 .958-.292 1.694-.875 2.206-.583.513-1.292.769-2.125.769h-.925c-.075 0-.127.02-.156.063a.235.235 0 0 0-.044.137c0 .1.063.244.188.431.125.188.187.402.187.644 0 .417-.115.725-.344.925-.229.2-.531.3-.906.3ZM3.75 6.5a.728.728 0 0 0 .75-.75.728.728 0 0 0-.75-.75.728.728 0 0 0-.75.75.728.728 0 0 0 .75.75Zm1.5-2A.728.728 0 0 0 6 3.75.728.728 0 0 0 5.25 3a.728.728 0 0 0-.75.75.728.728 0 0 0 .75.75Zm2.5 0a.728.728 0 0 0 .75-.75.728.728 0 0 0-.75-.75.728.728 0 0 0-.75.75.728.728 0 0 0 .75.75Zm1.5 2a.728.728 0 0 0 .75-.75.728.728 0 0 0-.75-.75.728.728 0 0 0-.75.75.728.728 0 0 0 .75.75ZM6.5 10c.075 0 .135-.02.181-.063a.21.21 0 0 0 .069-.162c0-.117-.063-.254-.188-.412-.125-.159-.187-.396-.187-.713 0-.35.12-.63.362-.838.242-.208.538-.312.888-.312H8.5c.55 0 1.02-.16 1.412-.481.392-.321.588-.819.588-1.494 0-1.008-.385-1.848-1.156-2.519C8.573 2.336 7.658 2 6.6 2c-1.133 0-2.1.388-2.9 1.163-.8.775-1.2 1.72-1.2 2.837 0 1.108.39 2.052 1.169 2.831C4.448 9.611 5.392 10 6.5 10Z"/>
</svg>
