<svg xmlns="http://www.w3.org/2000/svg" width="13" height="12" fill="none" viewBox="0 0 13 12">
  <path fill="#6C6F80" fill-rule="evenodd" d="M4.25 3.25a1.25 1.25 0 1 1-2.5 0 1.25 1.25 0 0 1 2.5 0Zm-.75 0a.5.5 0 1 0-1.001.001A.5.5 0 0 0 3.5 3.25Zm4.25 0a1.25 1.25 0 1 1-2.5 0 1.25 1.25 0 0 1 2.5 0Zm-.75 0a.5.5 0 1 0-1.001.001A.5.5 0 0 0 7 3.25Zm3 1.25A1.25 1.25 0 1 0 10 2a1.25 1.25 0 0 0 0 2.5Zm0-1.75a.5.5 0 1 1-.001 1.001A.5.5 0 0 1 10 2.75Z" clip-rule="evenodd"/>
  <path fill="#6C6F80" d="M8.75 6.25a1.25 1.25 0 0 1 2.5 0v1.125a.375.375 0 0 1-.75 0V6.25a.5.5 0 0 0-1 0v2.5a1.25 1.25 0 0 1-2.5 0v-2.5a.5.5 0 0 0-1 0v2.625h-.006A1.252 1.252 0 0 1 4.75 10c-.69 0-1.25-.56-1.25-1.25v-2.5a.5.5 0 0 0-1 0v1.125a.375.375 0 0 1-.75 0v-1.25h.006A1.252 1.252 0 0 1 3 5c.69 0 1.25.56 1.25 1.25v2.5a.5.5 0 0 0 1 0v-2.5a1.25 1.25 0 0 1 2.5 0v2.5a.5.5 0 0 0 1 0v-2.5Z"/>
</svg>
