<svg xmlns="http://www.w3.org/2000/svg" width="13" height="12" fill="none" viewBox="0 0 13 12">
  <path fill="#6C6F80" fill-rule="evenodd" d="M1.5 5.922A5.013 5.013 0 0 0 6.51 11a5.014 5.014 0 0 0 4.988-4.514.443.443 0 1 0-.88-.084 4.13 4.13 0 0 1-8.211.035 4.125 4.125 0 0 1 3.662-4.531v.964a3.094 3.094 0 0 0-2.644 3.294 3.1 3.1 0 0 0 2.848 2.842A3.098 3.098 0 0 0 9.564 6.43a.44.44 0 0 0-.437-.505h-.001a.44.44 0 0 0-.435.368 2.213 2.213 0 0 1-2.322 1.834 2.22 2.22 0 0 1-2.064-2.06 2.21 2.21 0 0 1 1.764-2.303v1.07a1.177 1.177 0 0 0 .442 2.268 1.178 1.178 0 0 0 .442-2.267V1.294A.294.294 0 0 0 6.658 1h-.071C3.837 1 1.543 3.179 1.5 5.922ZM9.017 4.75c.651 0 1.179-.527 1.179-1.176a1.178 1.178 0 0 0-2.358 0c0 .65.528 1.176 1.179 1.176Z" clip-rule="evenodd"/>
</svg>
