<svg width="12" height="12" viewBox="0 0 12 12" fill="none" xmlns="http://www.w3.org/2000/svg">
<path d="M3.98219 2.60686C3.983 2.60803 3.98381 2.6092 3.9846 2.61039L4.79273 3.80444L7.65294 3.80502C7.74262 3.80502 7.8273 3.82698 7.90214 3.86595C8.07909 3.91748 8.22694 4.06023 8.27852 4.25607C8.27872 4.25681 8.27891 4.25755 8.27911 4.25829L8.98163 6.97013C9.05854 7.26703 8.88698 7.57186 8.59785 7.65199C8.31027 7.73169 8.01416 7.55716 7.93646 7.26217C7.93627 7.26143 7.93607 7.26069 7.93588 7.25995L7.79345 6.71185L7.10792 10.5368C7.0598 10.8051 6.83171 11 6.56568 11H5.85736C5.59255 11 5.36514 10.8069 5.31571 10.54L4.29236 5.01778L3.09776 3.25267C2.92638 2.99952 2.98612 2.65196 3.23157 2.47418C3.47457 2.2982 3.81063 2.3576 3.98219 2.60686ZM6.07756 1C6.75022 1 7.29552 1.56402 7.29552 2.25977C7.29552 2.95552 6.75022 3.51953 6.07756 3.51953C5.40489 3.51953 4.85959 2.95552 4.85959 2.25977C4.85959 1.56402 5.40489 1 6.07756 1Z" fill="#6C6F80"/>
</svg>
