<svg xmlns="http://www.w3.org/2000/svg" width="13" height="12" fill="none" viewBox="0 0 13 12">
  <path fill="#6C6F80" d="M11 3.5v6c0 .275-.098.51-.293.707A.964.964 0 0 1 10 10.5H3a.964.964 0 0 1-.707-.293A.964.964 0 0 1 2 9.5v-7c0-.275.098-.51.293-.706A.964.964 0 0 1 3 1.5h6l2 2ZM6.5 9c.417 0 .77-.146 1.063-.438C7.854 8.271 8 7.918 8 7.5c0-.417-.146-.77-.438-1.063A1.447 1.447 0 0 0 6.5 6c-.417 0-.77.146-1.063.438A1.447 1.447 0 0 0 5 7.5c0 .417.146.77.438 1.063.291.291.645.437 1.062.437Zm-3-4H8V3H3.5v2Z"/>
</svg>
