<svg xmlns="http://www.w3.org/2000/svg" width="13" height="12" fill="none" viewBox="0 0 13 12">
  <path fill="#6C6F80" fill-rule="evenodd" d="M9.471 9.678A3.999 3.999 0 0 1 2.5 7c0-1.234.323-2.396.89-3.401L1.647 1.854l.708-.708 9 9-.707.707L9.47 9.678Zm-3.31-3.31a2.03 2.03 0 0 1-.011.002c-.88.18-1.405.75-1.405 1.56 0 .87.72 1.57 1.61 1.57A2.4 2.4 0 0 0 8.3 8.507l-2.14-2.14Z" clip-rule="evenodd"/>
  <path fill="#6C6F80" d="M10.5 7c0 .393-.056.772-.162 1.13L8.732 6.526A6.907 6.907 0 0 0 8.46 5.08c-.162.218-.366.41-.597.576L6.646 4.439c.607-.29.974-.944.974-1.704 0-1.075-.37-2.4-.37-2.4C9.205 1.9 10.5 4.305 10.5 7Z"/>
</svg>
