<svg xmlns="http://www.w3.org/2000/svg" width="13" height="12" fill="none" viewBox="0 0 13 12">
  <path fill="#6C6F80" fill-rule="evenodd" d="M4.4 1h4.2c1.6 0 2.9 1.3 2.9 2.9v4.2A2.9 2.9 0 0 1 8.6 11H4.4c-1.6 0-2.9-1.3-2.9-2.9V3.9A2.9 2.9 0 0 1 4.4 1Zm-.1 1a1.8 1.8 0 0 0-1.8 1.8v4.4c0 .995.805 1.8 1.8 1.8h4.4a1.8 1.8 0 0 0 1.8-1.8V3.8c0-.995-.805-1.8-1.8-1.8H4.3Zm4.825.75a.625.625 0 1 1 0 1.25.625.625 0 0 1 0-1.25ZM6.5 3.5a2.5 2.5 0 1 1 0 5 2.5 2.5 0 0 1 0-5Zm0 1a1.5 1.5 0 1 0 0 3 1.5 1.5 0 0 0 0-3Z" clip-rule="evenodd"/>
</svg>
