<svg xmlns="http://www.w3.org/2000/svg" width="13" height="12" fill="none" viewBox="0 0 13 12">
  <path fill="#6C6F80" d="M9.5 11c-.417 0-.77-.146-1.063-.438A1.447 1.447 0 0 1 8.05 9.15L4.525 7.1c-.142.125-.3.223-.475.294a1.45 1.45 0 0 1-.55.106c-.417 0-.77-.146-1.063-.438A1.447 1.447 0 0 1 2 6c0-.417.146-.77.438-1.063A1.447 1.447 0 0 1 3.5 4.5c.192 0 .375.035.55.106.175.071.333.169.475.294L8.05 2.85a.918.918 0 0 1-.038-.168 1.447 1.447 0 0 1 .425-1.244A1.447 1.447 0 0 1 9.5 1c.417 0 .77.146 1.063.438.291.291.437.645.437 1.062 0 .417-.146.77-.438 1.063A1.447 1.447 0 0 1 9.5 4a1.45 1.45 0 0 1-.55-.107 1.642 1.642 0 0 1-.475-.293L4.95 5.65a.8.8 0 0 1 .037.168 1.378 1.378 0 0 1 0 .363.918.918 0 0 1-.037.169L8.475 8.4c.142-.125.3-.223.475-.294.175-.07.358-.106.55-.106.417 0 .77.146 1.063.438.291.291.437.645.437 1.062 0 .417-.146.77-.438 1.063A1.446 1.446 0 0 1 9.5 11Z"/>
</svg>
