<svg xmlns="http://www.w3.org/2000/svg" width="13" height="12" fill="none" viewBox="0 0 13 12">
  <path fill="#6C6F80" fill-rule="evenodd" d="M7.495 3.18 5.27 8.737C5.26 8.777 4.8 10 3.255 10a.504.504 0 0 1-.51-.497c0-.278.23-.497.51-.497.796 0 1.036-.557 1.061-.616l.189-.503-1.97-4.702a.494.494 0 0 1 .281-.646.515.515 0 0 1 .669.274L5.05 6.555l1.495-3.737a.522.522 0 0 1 .673-.284.49.49 0 0 1 .276.646Zm2.53.224a.393.393 0 0 0-.255.094S7.627 4.985 7.73 5.144c.096.159 2.463-.92 2.468-.935a.402.402 0 0 0 .276-.382c0-.234-.194-.423-.45-.423Zm.393 5.2a.512.512 0 0 0-.225-.19s-2.377-1.078-2.464-.92C7.632 7.66 9.77 9.14 9.77 9.14a.42.42 0 0 0 .48.04.419.419 0 0 0 .169-.577Zm.867-2.695a.459.459 0 0 0-.29-.05s-2.608.264-2.603.448c.006.184 2.607.388 2.612.388a.436.436 0 0 0 .444-.21.426.426 0 0 0-.163-.576Z" clip-rule="evenodd"/>
</svg>
