<svg xmlns="http://www.w3.org/2000/svg" width="13" height="12" fill="none" viewBox="0 0 13 12">
  <path fill="#6C6F80" fill-rule="evenodd" d="M4.086 2.448 6.124.12l.753.659-1.08 1.233a4 4 0 0 1 3.177.794L10.5 1.448l.664.748-1.487 1.322a4 4 0 0 1 .36 4.298l-.884-.467a3 3 0 0 0-.226-3.165L4.464 8.152a3 3 0 0 0 2.316.783L5.646 7.802l.708-.707 2.353 2.353-2.353 2.354-.708-.707 1.159-1.158a4 4 0 0 1-3.091-1.119l-1.55 1.378-.664-.748 1.588-1.412a4 4 0 0 1-.12-3.966l.883.47a3 3 0 0 0 0 2.818l4.36-3.875a3 3 0 0 0-2.307-.475l.973 1.111-.753.659-2.038-2.33Zm1.336.008-.004-.011-.003.003.007.008Z" clip-rule="evenodd"/>
</svg>
