<svg width="12" height="16" viewBox="0 0 12 16" xmlns="http://www.w3.org/2000/svg">
<path fill-rule="evenodd" d="M6.72547 0.978484L6.66903 0.969934C6.48185 0.955326 6.30808 1.07717 6.26615 1.2623C6.22002 1.46594 6.35088 1.66904 6.55843 1.71594L7.62841 1.95749L2.50146 4.85411L2.39912 4.91432C0.886478 5.84058 0.390431 7.79136 1.29769 9.32907C2.22511 10.901 4.2677 11.446 5.85995 10.5464L7.85588 9.41878L7.90587 9.38661C8.11153 9.23669 8.17356 8.95488 8.04108 8.73032C7.8984 8.4885 7.58415 8.40465 7.33919 8.54304L5.34326 9.67068L5.24803 9.72162C4.16076 10.2713 2.80849 9.88504 2.18477 8.8279C1.54271 7.73967 1.91583 6.35263 3.01815 5.72985L8.14404 2.83334L7.82392 3.86088L7.81125 3.91545C7.78319 4.09761 7.89448 4.27836 8.0793 4.33537C8.28259 4.39808 8.49786 4.28732 8.56012 4.08798L9.23225 1.93248L9.23618 1.91269L9.2412 1.86327V1.83508L9.23765 1.79707L9.22596 1.74393L9.20771 1.69516L9.18129 1.64671L9.1513 1.60619L9.1117 1.56585L9.07063 1.53436L9.03362 1.51256C9.0133 1.50208 8.99175 1.49323 8.9691 1.48625L8.94853 1.4805L6.72547 0.978484ZM10.7023 7.22681C9.77489 5.65492 7.7323 5.1099 6.14006 6.00947L4.14413 7.13711L4.09414 7.16928C3.88847 7.3192 3.82644 7.60101 3.95893 7.82557C4.10161 8.06739 4.41586 8.15124 4.66082 8.01285L6.65675 6.88521L6.75197 6.83427C7.83925 6.28457 9.19152 6.67085 9.81523 7.72799C10.4573 8.81622 10.0842 10.2033 8.98185 10.826L5.56283 12.7574C5.16363 12.4676 4.61355 12.4183 4.15893 12.6751C3.54653 13.0211 3.33924 13.7917 3.69594 14.3962C4.05264 15.0008 4.83825 15.2104 5.45066 14.8645C5.90528 14.6076 6.13664 14.1168 6.07975 13.6336L9.49854 11.7018L9.60089 11.6416C11.1135 10.7153 11.6096 8.76453 10.7023 7.22681Z" clip-rule="evenodd"/></svg>
