<svg width="19" height="18" viewBox="0 0 19 18" xmlns="http://www.w3.org/2000/svg">
<path fill-rule="evenodd" clip-rule="evenodd" d="M10.7652 10.8824C11.3479 11.8142 11.6978 13.1336 11.6835 14.6471C12.1427 14.6471 18.5712 9 15.8161 1C12.6019 1.94118 8.01013 5.70588 7.55095 8.05882C8.35704 8.28494 9.23625 8.89294 9.84684 9.47059C10.306 8.05882 12.1427 6.17647 13.5202 5.23529C12.1427 7.11765 11.2244 8.52941 10.7652 10.8824ZM2.5 9.00001C2.95918 13.2353 5.25506 16.5294 8.92846 17C8.92846 14.6471 6.17341 11.353 5.25506 10.8824C8.01011 11.353 9.84682 13.7059 10.7652 16.5294C10.7652 16.5294 11.2243 7.11766 2.5 9.00001Z"/>
</svg>
