<?xml version="1.0" encoding="UTF-8"?>
<svg width="168px" height="60px" version="1.1" viewBox="0 0 168 60" xmlns="http://www.w3.org/2000/svg">
 <title>logo/UUI</title>
 <rect id="bg" width="168" height="60" fill-rule="evenodd" opacity="0"/>
 <path id="UnifiedUI" d="m65.443 32c3.3358 0 5.4206-1.8411 5.4206-6.5534v-8.0438h-2.436v8.2411c0 3.1123-1.229 4.1425-2.9846 4.1425-1.7337 0-2.8969-1.0301-2.8969-4.1425v-8.2411h-2.5457v8.0438c0 4.7123 2.1287 6.5534 5.4426 6.5534zm11.302-0.26301v-7.5178c0.89978-0.87671 1.5143-1.337 2.4579-1.337 1.1851 0 1.6898 0.65753 1.6898 2.4329v6.4219h2.5238v-6.7507c0-2.7178-1.0095-4.274-3.3138-4.274-1.4704 0-2.5677 0.76712-3.5333 1.7096h-0.08778l-0.17557-1.4466h-2.0849v10.762zm11.039-12.647c0.89978 0 1.5582-0.59178 1.5582-1.4247 0-0.85479-0.65838-1.4466-1.5582-1.4466-0.89978 0-1.5582 0.59178-1.5582 1.4466 0 0.83288 0.65838 1.4247 1.5582 1.4247zm1.2509 12.647v-10.762h-2.5238v10.762zm6.1887 0v-8.7671h2.1068v-1.9945h-2.1068v-1.1616c0-1.2493 0.48281-1.8192 1.3606-1.8192 0.37308 0 0.79005 0.08767 1.1851 0.26301l0.48281-1.8849c-0.48281-0.19726-1.207-0.3726-1.9751-0.3726-2.5457 0-3.5772 1.6219-3.5772 3.8575v1.1178l-1.4484 0.10959v1.8849h1.4484v8.7671zm5.267-12.647c0.89979 0 1.5582-0.59178 1.5582-1.4247 0-0.85479-0.65837-1.4466-1.5582-1.4466-0.89978 0-1.5582 0.59178-1.5582 1.4466 0 0.83288 0.65838 1.4247 1.5582 1.4247zm1.2509 12.647v-10.762h-2.5238v10.762zm7.8347 0.26301c1.3606 0 2.6554-0.48219 3.6869-1.1616l-0.85589-1.5781c-0.79005 0.50411-1.5801 0.78904-2.5018 0.78904-1.7337 0-2.9627-1.0959-3.1822-3.0027h6.8471c0.0658-0.26301 0.10973-0.7452 0.10973-1.2274 0-3.0027-1.5362-5.1068-4.455-5.1068-2.5238 0-4.9598 2.1479-4.9598 5.6548 0 3.5507 2.3263 5.6329 5.3109 5.6329zm1.9093-6.663h-4.7842c0.21945-1.7315 1.3168-2.674 2.5896-2.674 1.4704 0 2.1946 1.0082 2.1946 2.674zm8.3833 6.663c1.1631 0 2.2604-0.63562 3.0505-1.4247h0.0878l0.17557 1.1616h2.0849v-15.474h-2.5238v3.9014l0.0878 1.7315c-0.83398-0.72329-1.6021-1.1836-2.831-1.1836-2.3482 0-4.5647 2.1479-4.5647 5.6548 0 3.5507 1.7337 5.6329 4.4331 5.6329zm0.61448-2.0822c-1.5582 0-2.436-1.2493-2.436-3.5726 0-2.2575 1.1192-3.5507 2.5018-3.5507 0.72421 0 1.4484 0.2411 2.1946 0.89863v5.0192c-0.72421 0.83288-1.4265 1.2055-2.2604 1.2055zm17.974 2.0822c3.3358 0 5.4206-1.8411 5.4206-6.5534v-8.0438h-2.436v8.2411c0 3.1123-1.229 4.1425-2.9846 4.1425-1.7337 0-2.8968-1.0301-2.8968-4.1425v-8.2411h-2.5457v8.0438c0 4.7123 2.1288 6.5534 5.4426 6.5534zm11.544-0.26301v-14.334h-2.5457v14.334z" opacity=".9"/>
 <g id="digital_platform" transform="translate(60,38)" fill-rule="evenodd">
  <g>
   <path id="Digital_Platform" d="m0 7.0133v-6.672h1.64c2.02 0 3.1 1.282 3.1 3.362 0 2.09-1.08 3.31-3.06 3.31zm0.83-0.68h0.75c1.53 0 2.3-0.97 2.3-2.63 0-1.65-0.77-2.682-2.3-2.682h-0.75zm5.1916 0.68v-4.86h0.82v4.86zm0.48627-5.9533c-0.32 0-0.57-0.22-0.57-0.53 0-0.32 0.25-0.53 0.57-0.53s0.57 0.21 0.57 0.53c0 0.31-0.25 0.53-0.57 0.53zm3.4954 7.9757c-1.19 0-1.9999-0.42567-1.9999-1.2657 0-0.41 0.27-0.8 0.71-1.1v-0.04c-0.24-0.15-0.43-0.41-0.43-0.79 0-0.41 0.28-0.73 0.53-0.9v-0.04c-0.32-0.26-0.63-0.57668-0.63-1.1567 0-1.06 0.84-1.73 1.83-1.73 0.27 0 0.51 0.05 0.69 0.12h1.69v0.63h-1c0.23 0.22 0.4 0.59 0.4 1 0 1.04-0.79 1.5367-1.78 1.5367-0.24 0-0.51-0.06-0.73-0.17-0.17 0.15-0.31 0.31-0.31 0.58 0 0.31 0.2 0.53 0.86 0.53h0.94c1.13 0 1.7 0.35 1.7 1.16 0 0.9-0.96005 1.6357-2.4701 1.6357zm0.010054-4.2857c0.56 0 1.03-0.29668 1.03-1.0067s-0.46-1.13-1.03-1.13-1.03 0.42-1.03 1.13 0.47 1.0067 1.03 1.0067zm0.10995 3.7157c0.93 0 1.5501-0.43567 1.5501-0.94567 0-0.45-0.35-0.6-0.98-0.6h-0.84c-0.19 0-0.42-0.02-0.63-0.08-0.35 0.25-0.5 0.54-0.5 0.82 0 0.52 0.51995 0.80567 1.3999 0.80567zm3.8863-1.5457v-4.86h0.82v4.86zm0.37957-5.86c-0.32 0-0.57-0.22-0.57-0.53 0-0.32 0.25-0.53 0.57-0.53s0.57 0.21 0.57 0.53c0 0.31-0.25 0.53-0.57 0.53zm4.0059 5.9633c-1.04 0-1.39-0.66-1.39-1.62v-2.69h-0.72v-0.62l0.76-0.05 0.1-1.03h0.69v1.03h1.1729v0.67h-1.1729v2.7c0 0.6 0.19 0.94 0.75 0.94 0.17 0 0.39-0.07 0.55-0.13l0.16 0.62c-0.27 0.09-0.6 0.18-0.9 0.18zm3.2134 0.036679c-0.81 0-1.42-0.51-1.42-1.38 0-1.06 0.91-1.59 2.98-1.82 0-0.62-0.2-1.22-1-1.22-0.56 0-1.07 0.26-1.45 0.52l-0.32-0.57c0.45-0.29 1.13-0.63 1.91-0.63 1.19 0 1.69 0.79 1.69 2v2.98h-0.68l-0.07-0.58h-0.03c-0.46 0.38-1 0.7-1.61 0.7zm0.24-0.66c0.47 0 0.85-0.23 1.32-0.65v-1.35c-1.62 0.2-2.18 0.6-2.18 1.22 0 0.55 0.38 0.78 0.86 0.78zm4.236 0.54c-0.62 0-0.87-0.39-0.87-1.1l-0.10971-5.84h0.82l0.10971 5.9c0 0.26 0.11 0.36 0.23 0.36 0.05 0 0.09 0 0.18-0.02l0.11 0.62c-0.11 0.05-0.25 0.08-0.47 0.08zm4.9858 0.063321v-6.92h1.87c1.47 0 2.46 0.59 2.46 2.03 0 1.38-0.98 1.84-2.42 1.84h-1.08v3.05zm0.83-3.73h0.98c1.14 0 1.69-0.23 1.69-1.16 0-0.95-0.58-1.36-1.73-1.36h-0.94zm6.0069 3.72c-0.62 0-0.87-0.39-0.87-1.1v-5.88h0.82v5.94c0 0.26 0.11 0.36 0.23 0.36 0.05 0 0.09 0 0.18-0.02l0.11 0.62c-0.11 0.05-0.25 0.08-0.47 0.08zm2.6962 0.02c-0.81 0-1.42-0.51-1.42-1.38 0-1.06 0.91-1.59 2.98-1.82 0-0.62-0.2-1.22-1-1.22-0.56 0-1.07 0.26-1.45 0.52l-0.32-0.57c0.45-0.29 1.13-0.63 1.91-0.63 1.19 0 1.69 0.79 1.69 2v2.98h-0.68l-0.07-0.58h-0.03c-0.46 0.38-1 0.7-1.61 0.7zm0.24-0.66c0.47 0 0.85-0.23 1.32-0.65v-1.35c-1.62 0.2-2.18 0.6-2.18 1.22 0 0.55 0.38 0.78 0.86 0.78zm5.5533 0.67c-1.04 0-1.39-0.66-1.39-1.62v-2.69h-0.72v-0.62l0.76-0.05 0.1-1.03h0.69v1.03h1.1729v0.67h-1.1729v2.7c0 0.6 0.19 0.94 0.75 0.94 0.17 0 0.39-0.07 0.55-0.13l0.16 0.62c-0.27 0.09-0.6 0.18-0.9 0.18zm4.6334-6.78 0.09457 0.63c-0.18-0.08-0.37-0.12-0.55-0.12-0.46 0-0.68 0.32-0.68 0.94v0.46h1.03v0.67h-1.03v4.19h-0.82v-4.19h-0.66v-0.62l0.66-0.05v-0.46c0-0.99 0.45-1.61 1.42-1.61 0.3 0 0.31544 0.07 0.53544 0.16zm3.471 6.77c-1.19 0-2.25-0.93-2.25-2.54 0-1.63 1.06-2.56 2.25-2.56s2.25 0.93 2.25 2.56c0 1.61-1.06 2.54-2.25 2.54zm0-0.68c0.84 0 1.4-0.75 1.4-1.86 0-1.12-0.56-1.88-1.4-1.88-0.83 0-1.4 0.76-1.4 1.88 0 1.11 0.57 1.86 1.4 1.86zm3.4807 0.69v-4.86h0.68l0.07 0.88h0.03c0.33-0.61 0.83-1 1.38-1 0.21 0 0.36 0.03 0.52 0.1l-0.16 0.72c-0.16-0.05-0.27-0.08-0.47-0.08-0.41 0-0.9 0.3-1.23 1.12v3.12zm4.1392-0.01v-4.86h0.68l0.07 0.7h0.03c0.42-0.46 0.93-0.82 1.51-0.82 0.74 0 1.14 0.35 1.34 0.93 0.51-0.55 1.01-0.93 1.6-0.93 1 0 1.48 0.66 1.48 1.9v3.08h-0.82v-2.97c0-0.91-0.29-1.3-0.9-1.3-0.38 0-0.77 0.25-1.22 0.75v3.52h-0.82v-2.97c0-0.91-0.29-1.3-0.91-1.3-0.36 0-0.77 0.25-1.22 0.75v3.52z"/>
   <path d="m0 7.0133v-6.672h1.64c2.02 0 3.1 1.282 3.1 3.362 0 2.09-1.08 3.31-3.06 3.31zm0.83-0.68h0.75c1.53 0 2.3-0.97 2.3-2.63 0-1.65-0.77-2.682-2.3-2.682h-0.75zm5.1916 0.68v-4.86h0.82v4.86zm0.48627-5.9533c-0.32 0-0.57-0.22-0.57-0.53 0-0.32 0.25-0.53 0.57-0.53s0.57 0.21 0.57 0.53c0 0.31-0.25 0.53-0.57 0.53zm3.4954 7.9757c-1.19 0-1.9999-0.42567-1.9999-1.2657 0-0.41 0.27-0.8 0.71-1.1v-0.04c-0.24-0.15-0.43-0.41-0.43-0.79 0-0.41 0.28-0.73 0.53-0.9v-0.04c-0.32-0.26-0.63-0.57668-0.63-1.1567 0-1.06 0.84-1.73 1.83-1.73 0.27 0 0.51 0.05 0.69 0.12h1.69v0.63h-1c0.23 0.22 0.4 0.59 0.4 1 0 1.04-0.79 1.5367-1.78 1.5367-0.24 0-0.51-0.06-0.73-0.17-0.17 0.15-0.31 0.31-0.31 0.58 0 0.31 0.2 0.53 0.86 0.53h0.94c1.13 0 1.7 0.35 1.7 1.16 0 0.9-0.96005 1.6357-2.4701 1.6357zm0.010054-4.2857c0.56 0 1.03-0.29668 1.03-1.0067s-0.46-1.13-1.03-1.13-1.03 0.42-1.03 1.13 0.47 1.0067 1.03 1.0067zm0.10995 3.7157c0.93 0 1.5501-0.43567 1.5501-0.94567 0-0.45-0.35-0.6-0.98-0.6h-0.84c-0.19 0-0.42-0.02-0.63-0.08-0.35 0.25-0.5 0.54-0.5 0.82 0 0.52 0.51995 0.80567 1.3999 0.80567zm3.8863-1.5457v-4.86h0.82v4.86zm0.37957-5.86c-0.32 0-0.57-0.22-0.57-0.53 0-0.32 0.25-0.53 0.57-0.53s0.57 0.21 0.57 0.53c0 0.31-0.25 0.53-0.57 0.53zm4.0059 5.9633c-1.04 0-1.39-0.66-1.39-1.62v-2.69h-0.72v-0.62l0.76-0.05 0.1-1.03h0.69v1.03h1.1729v0.67h-1.1729v2.7c0 0.6 0.19 0.94 0.75 0.94 0.17 0 0.39-0.07 0.55-0.13l0.16 0.62c-0.27 0.09-0.6 0.18-0.9 0.18zm3.2134 0.036679c-0.81 0-1.42-0.51-1.42-1.38 0-1.06 0.91-1.59 2.98-1.82 0-0.62-0.2-1.22-1-1.22-0.56 0-1.07 0.26-1.45 0.52l-0.32-0.57c0.45-0.29 1.13-0.63 1.91-0.63 1.19 0 1.69 0.79 1.69 2v2.98h-0.68l-0.07-0.58h-0.03c-0.46 0.38-1 0.7-1.61 0.7zm0.24-0.66c0.47 0 0.85-0.23 1.32-0.65v-1.35c-1.62 0.2-2.18 0.6-2.18 1.22 0 0.55 0.38 0.78 0.86 0.78zm4.236 0.54c-0.62 0-0.87-0.39-0.87-1.1l-0.10971-5.84h0.82l0.10971 5.9c0 0.26 0.11 0.36 0.23 0.36 0.05 0 0.09 0 0.18-0.02l0.11 0.62c-0.11 0.05-0.25 0.08-0.47 0.08zm4.9858 0.063321v-6.92h1.87c1.47 0 2.46 0.59 2.46 2.03 0 1.38-0.98 1.84-2.42 1.84h-1.08v3.05zm0.83-3.73h0.98c1.14 0 1.69-0.23 1.69-1.16 0-0.95-0.58-1.36-1.73-1.36h-0.94zm6.0069 3.72c-0.62 0-0.87-0.39-0.87-1.1v-5.88h0.82v5.94c0 0.26 0.11 0.36 0.23 0.36 0.05 0 0.09 0 0.18-0.02l0.11 0.62c-0.11 0.05-0.25 0.08-0.47 0.08zm2.6962 0.02c-0.81 0-1.42-0.51-1.42-1.38 0-1.06 0.91-1.59 2.98-1.82 0-0.62-0.2-1.22-1-1.22-0.56 0-1.07 0.26-1.45 0.52l-0.32-0.57c0.45-0.29 1.13-0.63 1.91-0.63 1.19 0 1.69 0.79 1.69 2v2.98h-0.68l-0.07-0.58h-0.03c-0.46 0.38-1 0.7-1.61 0.7zm0.24-0.66c0.47 0 0.85-0.23 1.32-0.65v-1.35c-1.62 0.2-2.18 0.6-2.18 1.22 0 0.55 0.38 0.78 0.86 0.78zm5.5533 0.67c-1.04 0-1.39-0.66-1.39-1.62v-2.69h-0.72v-0.62l0.76-0.05 0.1-1.03h0.69v1.03h1.1729v0.67h-1.1729v2.7c0 0.6 0.19 0.94 0.75 0.94 0.17 0 0.39-0.07 0.55-0.13l0.16 0.62c-0.27 0.09-0.6 0.18-0.9 0.18zm4.6334-6.78 0.09457 0.63c-0.18-0.08-0.37-0.12-0.55-0.12-0.46 0-0.68 0.32-0.68 0.94v0.46h1.03v0.67h-1.03v4.19h-0.82v-4.19h-0.66v-0.62l0.66-0.05v-0.46c0-0.99 0.45-1.61 1.42-1.61 0.3 0 0.31544 0.07 0.53544 0.16zm3.471 6.77c-1.19 0-2.25-0.93-2.25-2.54 0-1.63 1.06-2.56 2.25-2.56s2.25 0.93 2.25 2.56c0 1.61-1.06 2.54-2.25 2.54zm0-0.68c0.84 0 1.4-0.75 1.4-1.86 0-1.12-0.56-1.88-1.4-1.88-0.83 0-1.4 0.76-1.4 1.88 0 1.11 0.57 1.86 1.4 1.86zm3.4807 0.69v-4.86h0.68l0.07 0.88h0.03c0.33-0.61 0.83-1 1.38-1 0.21 0 0.36 0.03 0.52 0.1l-0.16 0.72c-0.16-0.05-0.27-0.08-0.47-0.08-0.41 0-0.9 0.3-1.23 1.12v3.12zm4.1392-0.01v-4.86h0.68l0.07 0.7h0.03c0.42-0.46 0.93-0.82 1.51-0.82 0.74 0 1.14 0.35 1.34 0.93 0.51-0.55 1.01-0.93 1.6-0.93 1 0 1.48 0.66 1.48 1.9v3.08h-0.82v-2.97c0-0.91-0.29-1.3-0.9-1.3-0.38 0-0.77 0.25-1.22 0.75v3.52h-0.82v-2.97c0-0.91-0.29-1.3-0.91-1.3-0.36 0-0.77 0.25-1.22 0.75v3.52z"/>
  </g>
 </g>
 <path id="Path" d="m18.126 21.731s0.24718 3.7841 0 8.9037c-0.24718 5.1196 1.7306 19.365 1.7306 19.365s26.205-0.4452 26.452-2.6711c0.24718-2.2259-2.225-24.708-1.9777-25.598 0.24728-0.8904-26.205 8.7e-5 -26.205 8.7e-5z" fill="#009ecc" fill-rule="evenodd"/>
 <path id="Shape" d="m31.704 9.3731c-4.2255 1.356-2.7043 7.6269-2.7043 7.6269s-1.1832-0.33892-2.1973-1.5253c-1.0141-1.1864-5.9157-5.0846-7.0989 1.4383s8.2821 5.0022 8.2821 5.0022v2.7118h5.3126s-0.58006-5.5931 1.6172-7.6269c2.1973-2.0338 1.0142-8.9828-3.2114-7.6269zm-9.9723 8.6439c-0.84505-1.5253 2.0282-1.8644 3.8875-1.104 0 0 1.6902 0.76505 2.1807 2.4599 0.49032 1.6947-5.2231 0.1694-6.0682-1.356zm11.998-2.3729c-0.1717 2.0338-3.2088 1.0169-3.2088-1.5253 0-2.5422 2.1973-2.5422 2.1973-2.5422 1.0986-0.31791 1.183 2.0338 1.0115 4.0676z"/>
 <polyline transform="matrix(.3014 0 0 .51751 18.09 37.482)" points="0.22157 0.054503 5.4571 4.359 10.653 0.054503 16.427 4.359 22.201 0.054503 26.243 4.8652 34.326 0.054503 39.811 4.8652 48.712 0.054503 52.513 4.8652 59.153 1.9403 64.638 4.8652 72.143 0.054503 76.185 4.8652 83.114 0.054503 89.753 4.8652" fill="none" stroke="#c4eaf5" stroke-linejoin="round" stroke-width="5.6186"/>
 <polyline transform="matrix(.3014 0 0 .41574 18.171 24.912)" points="0.22157 10.352 5.4571 14.656 10.653 10.352 16.427 14.656 22.201 10.352 26.243 15.162 34.326 10.352 39.811 15.162 48.712 10.352 52.513 15.162 59.153 12.238 64.638 15.162 72.143 10.352 76.185 15.162 83.114 10.352 89.753 15.162" fill="none" stroke="#c4eaf5" stroke-linejoin="round" stroke-width="5.6183"/>
 <path d="m29.222 50-1.2385-28.056 5.0931-1.3052s0.04101 9.5813 0.49102 15.816c0.45001 6.2343 1.2498 13.545 1.2498 13.545z" fill-rule="evenodd"/>
</svg>
