<svg width="24" height="24" version="1.1" viewBox="0 0 24 24" xmlns="http://www.w3.org/2000/svg">
 <g transform="translate(0,-290.65)" display="none">
  <path d="m11.892 294.65a8 8 89.237 0 0-7.8926 8.1074 8 8 89.237 0 0 8.1074 7.8926 8 8 89.237 0 0 7.8926-8.1074 8 8 89.237 0 0-8.1074-7.8926zm0.10742 1a7 7 0 0 1 7 7 7 7 0 0 1-7 7 7 7 0 0 1-7-7 7 7 0 0 1 7-7z"/>
  <path transform="translate(0,290.65)" d="m7 4.0195v0.98047h-2v2h-0.95703v10h0.95703v2h2v1h10v-1h2v-2h1v-10h-1v-2h-2v-0.98047z" fill-opacity=".27451" opacity=".544"/>
  <rect x="-6" y="284.65" width="36" height="36" fill="none" stroke="#000" stroke-width=".05"/>
  <circle cx="12" cy="302.65" r="18" fill="none" stroke="#000" stroke-width=".05"/>
 </g>
 <g>
  <g id="Notifications" transform="matrix(.45 0 0 .45 -1.7082 -1.301)" fill-rule="evenodd">
   <g id="RTE_parts_temp" transform="translate(-1033,-850)" style="">
    <g id="RTE_note" transform="translate(73,634)" style="">
     <g transform="translate(665,67)" style="">
      <g id="RTE/styles/note-note_zone" transform="translate(55,149)" style="">
       <g id="note_zone" style="">
        <g id="RTE_icon_note" transform="translate(240)" style="">
         <path id="claim" d="m30 44c1.1046 0 2 0.89543 2 2s-0.89543 2-2 2c-1.1046 0-2-0.89543-2-2s0.89543-2 2-2zm0-32c1.1046 0 2 0.89543 2 2v24c0 1.1046-0.89543 2-2 2-1.1046 0-2-0.89543-2-2v-24c0-1.1046 0.89543-2 2-2z" style=""/>
        </g>
       </g>
      </g>
     </g>
    </g>
   </g>
  </g>
 </g>
</svg>
