<svg xmlns="http://www.w3.org/2000/svg" width="24" height="24" viewBox="0 0 24 24"><path d="M19.288 7.29h-4.606v1.375h4.606V7.291z"/><path fill-rule="evenodd" d="M8.809 17.796s3.545.113 3.545-3.295c0 0 .155-2.771-2.09-2.771 0 0 1.703-.128 1.703-2.125 0-1.997-1.393-2.972-3.158-2.972H3v11.163h5.809zm0-4.967H5.56v2.984h3.086c.463-.01 1.34-.146 1.34-1.45 0-1.55-1.176-1.534-1.176-1.534zm0-4.211s.79 0 .79 1.16c0 1.161-.465 1.33-.991 1.33H5.559v-2.49h3.25zm6.376 5.701h5.785s.632-4.845-3.886-4.845c-4.293 0-4.289 4.288-4.289 4.288s-.295 4.268 4.289 4.268c0 0 3.82.218 3.82-2.97H18.94s.065 1.202-1.79 1.202c0 0-1.964.13-1.964-1.943zm-.024-1.49s.24-1.721 1.964-1.721c1.725 0 1.702 1.721 1.702 1.721H15.16z" clip-rule="evenodd"/></svg>