<svg xmlns="http://www.w3.org/2000/svg" width="24" height="24" viewBox="0 0 24 24"><path fill-rule="evenodd" d="M9.321 9.757a2.273 2.273 0 1 0 0 4.546h2.335V9.757H9.321Zm5.715-1.106h.062a2.273 2.273 0 1 0 0-4.545h-2.336V8.65h2.274Zm1.915.553A3.38 3.38 0 0 0 15.098 3H9.32a3.38 3.38 0 0 0-1.853 6.204A3.375 3.375 0 0 0 5.94 12.03c0 1.182.607 2.222 1.527 2.826A3.375 3.375 0 0 0 5.94 17.68c0 1.87 1.533 3.38 3.395 3.38 1.88 0 3.426-1.523 3.426-3.41v-3.12a3.37 3.37 0 0 0 2.274.879h.062a3.38 3.38 0 0 0 1.853-6.205Zm-1.854.553h-.061a2.273 2.273 0 1 0 0 4.546h.062a2.273 2.273 0 1 0 0-4.546Zm-8.05 7.925a2.273 2.273 0 0 1 2.274-2.273h2.335v2.242a2.317 2.317 0 0 1-2.32 2.303 2.286 2.286 0 0 1-2.288-2.273Zm4.61-9.03H9.32a2.273 2.273 0 1 1 0-4.546h2.335V8.65Z"/></svg>