<svg xmlns="http://www.w3.org/2000/svg" width="24" height="25" viewBox="0 0 24 25"><path fill-rule="evenodd" d="M8.22 3.41h7.56c2.88 0 5.22 2.34 5.22 5.22v7.56a5.22 5.22 0 01-5.22 5.22H8.22C5.34 21.41 3 19.07 3 16.19V8.63a5.22 5.22 0 015.22-5.22zm-.18 1.8A3.24 3.24 0 004.8 8.45v7.92a3.238 3.238 0 003.24 3.24h7.92a3.24 3.24 0 003.24-3.24V8.45a3.238 3.238 0 00-3.24-3.24H8.04zm8.685 1.35a1.125 1.125 0 110 2.25 1.125 1.125 0 010-2.25zM12 7.91a4.5 4.5 0 110 9 4.5 4.5 0 010-9zm0 1.8a2.7 2.7 0 100 5.399 2.7 2.7 0 000-5.4z" clip-rule="evenodd"/></svg>