<svg xmlns="http://www.w3.org/2000/svg" width="13" height="12" fill="none" viewBox="0 0 13 12">
  <path fill="#6C6F80" fill-rule="evenodd" d="M6.289 1.12a.25.25 0 0 1 .427 0l.45.932a.595.595 0 0 1-.09.732l-.398.394a.25.25 0 0 1-.351 0l-.397-.394a.595.595 0 0 1-.091-.732l.45-.931ZM2.515 3.06a.25.25 0 0 1 .302-.303l.977.34a.595.595 0 0 1 .453.582l-.002.56a.25.25 0 0 1-.248.248l-.56.003a.595.595 0 0 1-.582-.454l-.34-.976Zm7.665-.292a.25.25 0 0 1 .302.302l-.34.977a.595.595 0 0 1-.582.453L9 4.497a.25.25 0 0 1-.247-.248l-.003-.56a.595.595 0 0 1 .453-.581l.977-.34Zm.615 4.933a.25.25 0 0 1-.302.302l-.977-.34a.595.595 0 0 1-.453-.582l.002-.56a.25.25 0 0 1 .248-.248l.56-.002a.595.595 0 0 1 .582.453l.34.977Zm-8.235.302a.25.25 0 0 1-.303-.302l.34-.977a.595.595 0 0 1 .582-.453l.56.002a.25.25 0 0 1 .248.248l.003.56a.595.595 0 0 1-.454.582l-.976.34Zm5.837-2.957a.25.25 0 0 1 .053.357l-.825 1.06a2.25 2.25 0 0 0-.459 1.642L7.503 11h-2l.336-2.895a2.25 2.25 0 0 0-.46-1.641l-.824-1.06a.25.25 0 0 1 .053-.358c.112-.08.268-.045.352.063l.786 1.011a.188.188 0 0 0 .334-.093l.255-2.192a.188.188 0 0 1 .335 0l.255 2.192c.02.166.231.226.334.093l.786-1.01c.084-.109.24-.143.352-.064Zm-6.081.428.385.216a.49.49 0 0 0 .539-.045l.22-.186a.106.106 0 0 0 0-.168l-.22-.186a.49.49 0 0 0-.54-.045l-.385.216c-.085.047-.085.151 0 .198Zm7.988.216.385-.216c.085-.047.085-.151 0-.198l-.385-.216a.49.49 0 0 0-.539.045l-.22.186a.106.106 0 0 0 0 .168l.22.186c.144.12.37.14.54.045ZM8.791 8.937l-.006-.442a.49.49 0 0 0-.308-.444l-.272-.098a.106.106 0 0 0-.146.084l-.05.284a.49.49 0 0 0 .23.49l.38.225c.083.05.173-.003.172-.1Zm-4.57-.442-.007.442c0 .096.09.149.173.099l.379-.226a.49.49 0 0 0 .23-.489l-.05-.284a.106.106 0 0 0-.146-.084l-.272.098a.49.49 0 0 0-.308.444Zm-.007-6.737.006.441a.49.49 0 0 0 .308.445l.272.098a.106.106 0 0 0 .146-.084l.05-.284a.49.49 0 0 0-.23-.49l-.38-.225c-.083-.05-.173.002-.172.1Zm4.57.441.007-.44c.001-.098-.09-.15-.172-.1l-.38.226a.49.49 0 0 0-.23.489l.05.284c.013.071.078.11.146.084l.272-.098a.49.49 0 0 0 .308-.445Z" clip-rule="evenodd"/>
</svg>
