<svg xmlns="http://www.w3.org/2000/svg" width="13" height="12" fill="none" viewBox="0 0 13 12">
  <path fill="#6C6F80" fill-rule="evenodd" d="M2.526 5.22h-.364v5.682h8.726V5.22h-.363v5.317h-8V5.221Z" clip-rule="evenodd"/>
  <path fill="#6C6F80" fill-rule="evenodd" d="M2.626 5.12v5.318h7.799V5.121h.563V11H2.062V5.12h.564Zm7.899.1h.363v5.682H2.162V5.22h.364v5.317h7.999V5.221ZM7.116 2.274H5.934v.364h1.182v-.364Zm2.818.364h.59v1.454H2.527V2.638h.59v-.364h-.954v2.181h8.726V2.274h-.954v.364Z" clip-rule="evenodd"/>
  <path fill="#6C6F80" fill-rule="evenodd" d="M7.216 2.174v.564H5.834v-.564h1.382Zm2.618.564v-.564h1.154v2.381H2.062V2.174h1.154v.564h-.59v1.254h7.799V2.738h-.591Zm-6.718-.1h-.59v1.454h7.999V2.638h-.591v-.364h.954v2.181H2.162V2.274h.954v.364Zm2.818-.364h1.182v.364H5.934v-.364Z" clip-rule="evenodd"/>
  <path fill="#6C6F80" d="M5.07 1.728a.545.545 0 0 0-1.09 0V2.82a.545.545 0 0 0 1.09 0V1.73Z"/>
  <path fill="#6C6F80" fill-rule="evenodd" d="M4.525 1.37a.358.358 0 0 0-.357.358V2.82a.358.358 0 1 0 .715 0V1.73a.358.358 0 0 0-.358-.358Zm-.733.358a.733.733 0 0 1 1.466 0V2.82a.733.733 0 1 1-1.466 0V1.73Z" clip-rule="evenodd"/>
  <path fill="#6C6F80" d="M9.07 1.728a.545.545 0 1 0-1.09 0V2.82a.545.545 0 1 0 1.09 0V1.73Z"/>
  <path fill="#6C6F80" fill-rule="evenodd" d="M8.525 1.37a.358.358 0 0 0-.358.358V2.82a.358.358 0 1 0 .716 0V1.73a.358.358 0 0 0-.358-.358Zm-.733.358a.733.733 0 1 1 1.466 0V2.82a.733.733 0 1 1-1.466 0V1.73Zm.188 3.647.897.898L5.98 9.171 4.173 7.364l.898-.898.909.91 2-2Z" clip-rule="evenodd"/>
  <path fill="#6C6F80" d="m7.98 5.11 1.163 1.163L5.98 9.436 3.908 7.364 5.07 6.201l.909.91 2-2Z"/>
</svg>
