<svg xmlns="http://www.w3.org/2000/svg" width="13" height="12" fill="none" viewBox="0 0 13 12">
  <path fill="#6C6F80" fill-rule="evenodd" d="M9.094 9.813v-2.3l1.866-.973v2.3l-1.866.973Zm0-5.188 1.866-.95V6l-1.866.95V4.624ZM6.983 3.054l1.866-.95 2.054.95-1.89.998-2.03-.998ZM4.61 1.892 6.5 1l1.89.867-1.89.942-1.89-.917Zm-.647 2.16L2.097 3.08l1.997-.95 1.89.917-2.02 1.006ZM3.906 6.95 2.04 6V3.676l1.866.95v2.323Zm0 2.864-1.866-.95v-2.3l1.866.95v2.3Zm4.746-3.011-1.865-.95V3.53l1.865.949v2.324ZM6.23 11l-1.866-.95V7.76l1.866.949V11Zm.27-4.795 2.03 1.023-2.03 1.08-2.03-1.08L6.5 6.205Zm-.303-.27-1.866.949V4.56l1.866-.95v2.325Zm2.439 4.116L6.77 11V8.7l1.866-.949v2.3Z" clip-rule="evenodd"/>
</svg>
