<svg xmlns="http://www.w3.org/2000/svg" width="13" height="12" fill="none" viewBox="0 0 13 12">
  <path fill="#6C6F80" fill-rule="evenodd" d="M10.405 4.889a1.11 1.11 0 0 0-1.03.694H7.86a1.943 1.943 0 0 0-.648-1.071l.538-.75a.832.832 0 0 0 .989-.818.833.833 0 1 0-1.469.539l-.529.736a1.937 1.937 0 0 0-1.424-.054L4.56 2.856a1.111 1.111 0 1 0-.823.366c.024 0 .047-.002.07-.003l.8 1.385c-.302.293-.51.682-.572 1.118h-.624a.833.833 0 1 0 0 .556h.624c.062.431.266.817.562 1.109L3.794 8.78l-.055-.003a1.111 1.111 0 1 0 .813.356l.752-1.304a1.94 1.94 0 0 0 1.437-.049l.529.736a.833.833 0 1 0 .48-.28l-.538-.749a1.94 1.94 0 0 0 .648-1.071h1.516a1.11 1.11 0 1 0 1.03-1.528Z" clip-rule="evenodd"/>
</svg>
