<svg xmlns="http://www.w3.org/2000/svg" width="13" height="12" fill="none" viewBox="0 0 13 12">
  <path fill="#6C6F80" fill-rule="evenodd" d="m10.011 5.113-1.886 1.89a1.72 1.72 0 0 1-1.166.495c-.439 0-.85-.172-1.166-.488a.396.396 0 0 1 0-.584.394.394 0 0 1 .583 0 .835.835 0 0 0 1.166 0L9.428 4.53a.851.851 0 0 0 .24-.584.85.85 0 0 0-.24-.584l-.288-.289a.848.848 0 0 0-.583-.24.848.848 0 0 0-.583.24l-.823.825a.394.394 0 0 1-.583 0 .396.396 0 0 1 0-.584l.823-.825a1.633 1.633 0 0 1 2.332 0l.288.289a1.64 1.64 0 0 1 0 2.337Zm-3.36.44a.835.835 0 0 0-1.167 0L3.57 7.471a.84.84 0 0 0 0 1.168l.288.289a.835.835 0 0 0 1.167 0l.898-.9a.394.394 0 0 1 .583 0 .396.396 0 0 1 0 .584l-.898.9a1.633 1.633 0 0 1-2.333 0l-.288-.289a1.666 1.666 0 0 1 0-2.357l1.914-1.897a1.633 1.633 0 0 1 2.332 0l.288.289a.396.396 0 0 1 0 .584.394.394 0 0 1-.583 0l-.288-.289Z" clip-rule="evenodd"/>
</svg>
