<svg xmlns="http://www.w3.org/2000/svg" width="13" height="12" fill="none" viewBox="0 0 13 12">
  <path fill="#6C6F80" fill-rule="evenodd" d="M6.355 6.225a.258.258 0 0 0 .293-.424.258.258 0 0 0-.293.424Zm-.202-.994V1l.684.407 3.05 1.753a.86.86 0 0 1 1.355.704c0 .34-.199.634-.487.773v3.9l-3.89 2.234-.357.205V11l-.353-.203-3.894-2.236-.01-3.827A.858.858 0 0 1 2.62 3.1a.858.858 0 0 1 .344 1.645l.01 3.406 3.18 1.827v-3.18a.858.858 0 0 1 0-1.567Zm.712 1.564v3.157l3.177-1.825V4.653a.858.858 0 0 1-.519-.884L6.865 2.242v2.993a.858.858 0 0 1 0 1.56Zm3.257-2.931a.258.258 0 1 0 .516-.001.258.258 0 0 0-.516.001Zm-7.762.094a.258.258 0 0 0 .517 0 .258.258 0 0 0-.259-.257.258.258 0 0 0-.258.257Z" clip-rule="evenodd"/>
</svg>
