<svg xmlns="http://www.w3.org/2000/svg" width="13" height="12" fill="none" viewBox="0 0 13 12">
  <path fill="#6C6F80" fill-rule="evenodd" d="m5.59 4.299-1.736-.556a.139.139 0 0 1 .084-.264l1.736.555a.139.139 0 0 1-.084.265Zm0 .972-1.736-.555a.139.139 0 0 1 .084-.265l1.736.556a.139.139 0 0 1-.084.264Zm0 .972-1.736-.555a.139.139 0 0 1 .084-.265l1.736.556a.139.139 0 0 1-.084.264Zm0 .973L3.854 6.66a.139.139 0 0 1 .084-.265l1.736.556a.139.139 0 0 1-.084.265Zm.574-3.943L3.5 2.506a.279.279 0 0 0-.332.275v4.483a.28.28 0 0 0 .223.275l2.971.794V3.54c0-.122-.08-.23-.197-.266Zm-3.692.06a.417.417 0 0 0-.416.417v4.861h.555V3.89h.278v-.556h-.417Zm8.056 0h-.417v.556h.278V8.61h.555V3.75a.417.417 0 0 0-.416-.417Zm-1.382.41L7.41 4.3a.14.14 0 0 1-.085-.265l1.737-.555a.139.139 0 0 1 .084.264Zm0 .973L7.41 5.27a.14.14 0 0 1-.085-.265l1.737-.555a.14.14 0 0 1 .084.265Zm0 .972-1.736.555a.14.14 0 0 1-.085-.265l1.737-.555a.14.14 0 0 1 .084.265Zm0 .972-1.736.556a.14.14 0 0 1-.085-.265l1.737-.556a.14.14 0 0 1 .084.265Zm.355-4.154-2.665.767a.278.278 0 0 0-.197.266v4.794L9.61 7.54a.28.28 0 0 0 .223-.275V2.78c0-.177-.16-.31-.332-.275Zm-1.896 6.39 3.667.004a.208.208 0 0 1 .228.186l-.01.428a.208.208 0 0 1-.208.208H1.708a.208.208 0 0 1-.208-.208v-.417c0-.115.093-.208.208-.208l3.677.004v.065c0 .115.093.209.208.209h1.804a.208.208 0 0 0 .208-.209v-.062Z" clip-rule="evenodd"/>
</svg>
