<svg xmlns="http://www.w3.org/2000/svg" width="13" height="12" fill="none" viewBox="0 0 13 12">
  <path fill="#6C6F80" fill-rule="evenodd" d="M3.058 1.795a.279.279 0 1 0 .558 0 .279.279 0 0 0-.558 0Zm-.558 0a.837.837 0 1 1 1.674 0 .837.837 0 0 1-1.674 0Zm3.068 0a.279.279 0 1 0 .558 0 .279.279 0 0 0-.558 0Zm-.558 0a.837.837 0 1 1 1.674 0 .837.837 0 0 1-1.674 0Zm3.348.279a.279.279 0 1 1 0-.558.279.279 0 0 1 0 .558Zm0-1.116a.837.837 0 1 0 0 1.674.837.837 0 0 0 0-1.674Zm-.28 3.347a.279.279 0 1 0 .559 0 .279.279 0 0 0-.558 0Zm-.557 0a.837.837 0 1 1 1.674 0 .837.837 0 0 1-1.674 0Zm-4.184.28a.279.279 0 1 1 0-.558.279.279 0 0 1 0 .557Zm0-1.116a.837.837 0 1 0 0 1.673.837.837 0 0 0 0-1.673Zm4.184 6.973a1.955 1.955 0 0 0 1.952-1.953V6.537a.28.28 0 0 0-.558 0v.558a.279.279 0 0 1-.557 0v-.837a.28.28 0 0 0-.558 0v.837a.279.279 0 0 1-.558 0V5.979a.28.28 0 0 0-.558 0v1.116a.279.279 0 0 1-.558 0v-2.79a.28.28 0 0 0-.558 0v4.243l-.762-.762a.28.28 0 0 0-.394.395l1.632 1.585c.076.088.16.168.247.24l.03.026.003.005.01.003.032.024a1.94 1.94 0 0 0 1.155.378Zm1.263-4.634a.838.838 0 0 1 1.247.729v1.952a2.513 2.513 0 0 1-3.973 2.04.54.54 0 0 1-.128-.098 2.543 2.543 0 0 1-.3-.29L4.02 8.578a.838.838 0 0 1 .99-1.33V4.306a.838.838 0 0 1 1.674 0v.885a.837.837 0 0 1 .984.339.837.837 0 0 1 1.116.279Z" clip-rule="evenodd"/>
</svg>
