<svg xmlns="http://www.w3.org/2000/svg" width="13" height="12" fill="none" viewBox="0 0 13 12">
  <path fill="#6C6F80" fill-rule="evenodd" d="M8.353 4.147H11A2.647 2.647 0 0 0 8.353 1.5v2.647ZM2.265 7.324h2.382V4.676H2.265A.265.265 0 0 0 2 4.941V7.06c0 .146.119.265.265.265Zm5.559 0H5.176V4.676h2.648v2.648Zm.529 0V4.676H11a2.647 2.647 0 0 1-2.647 2.648Zm-.53-3.177H5.177V1.765c0-.146.119-.265.265-.265h2.383v2.647ZM5.442 10.5H7.56a.265.265 0 0 0 .265-.265V7.853H5.176v2.382c0 .147.119.265.265.265Z" clip-rule="evenodd"/>
</svg>
