<svg xmlns="http://www.w3.org/2000/svg" width="13" height="12" fill="none" viewBox="0 0 13 12">
  <path fill="#6C6F80" fill-rule="evenodd" d="M7.906 5.438a.844.844 0 1 1 0-1.688.844.844 0 0 1 0 1.688Zm0-3.094L4.08 6.17a2.673 2.673 0 0 1 2.25 2.25l3.826-3.826C11 3.75 11 2.446 11 1.5c-.946 0-2.25 0-3.094.844ZM3.688 6l1.687-1.688c-1.195 0-2.25.282-3.094 1.688h1.407ZM6.5 8.813l1.688-1.688c0 1.195-.282 2.25-1.688 3.094V8.813Zm-4.136 1.323a.28.28 0 0 0 .397 0l2.25-2.25a.281.281 0 1 0-.397-.397l-2.25 2.25a.281.281 0 0 0 0 .397ZM2.28 8.813a.28.28 0 0 1-.199-.48L3.77 6.644a.281.281 0 1 1 .398.398L2.48 8.73a.28.28 0 0 1-.199.082Zm1.489 1.605a.28.28 0 0 0 .398 0L5.855 8.73a.281.281 0 1 0-.398-.398L3.77 10.02a.281.281 0 0 0 0 .398Z" clip-rule="evenodd"/>
</svg>
