<svg xmlns="http://www.w3.org/2000/svg" width="13" height="12" fill="none" viewBox="0 0 13 12">
  <path fill="#6C6F80" fill-rule="evenodd" d="M6.5 1a5 5 0 1 0 0 10 5 5 0 0 0 0-10ZM5.324 8.941a.295.295 0 0 0 .294-.294V3.353a.295.295 0 0 0-.294-.294.295.295 0 0 0-.295.294v5.294c0 .162.133.294.295.294Zm2.352-.588a.295.295 0 0 0 .295-.294V3.94a.295.295 0 0 0-.295-.294.295.295 0 0 0-.294.294v4.12c0 .162.133.294.294.294Zm1.471-1.177a.295.295 0 0 1-.294.295.295.295 0 0 1-.294-.295V4.824c0-.162.132-.295.294-.295.162 0 .294.133.294.295v2.352Zm.882-.588a.295.295 0 0 1-.294-.294v-.588a.294.294 0 0 1 .588 0v.588a.295.295 0 0 1-.294.294Zm-3.235.883a.295.295 0 0 1-.294.294.295.295 0 0 1-.294-.294V4.529c0-.161.132-.294.294-.294.162 0 .294.133.294.294v2.942Zm-2.353-.295a.295.295 0 0 1-.294.295.295.295 0 0 1-.294-.295V4.824c0-.162.132-.295.294-.295.162 0 .294.133.294.295v2.352Zm-1.47-.588a.295.295 0 0 0 .294-.294v-.588a.295.295 0 0 0-.294-.294.295.295 0 0 0-.295.294v.588c0 .162.133.294.295.294Z" clip-rule="evenodd"/>
</svg>
