<svg xmlns="http://www.w3.org/2000/svg" width="13" height="12" fill="none" viewBox="0 0 13 12">
  <path fill="#6C6F80" fill-rule="evenodd" d="M8.468 1.404a4.98 4.98 0 0 0-2.296-.393 5.013 5.013 0 0 0-4.661 4.661 4.98 4.98 0 0 0 .393 2.296.292.292 0 0 0 .448.116c.065-.052.136-.1.21-.14a.294.294 0 0 0 .135-.368 4.101 4.101 0 0 1-.302-1.896A4.13 4.13 0 0 1 6.18 1.895a4.1 4.1 0 0 1 1.896.302.294.294 0 0 0 .368-.135 1.42 1.42 0 0 1 .14-.21.292.292 0 0 0-.116-.448ZM4.735 4.235c0-.325.79-.588 1.765-.588.975 0 1.765.263 1.765.588v.589c0 .324-.79.588-1.765.588-.975 0-1.765-.264-1.765-.588v-.589Zm0 1.177c0 .325.79.588 1.765.588.975 0 1.765-.263 1.765-.588v.882c0 .325-.79.588-1.765.588-.975 0-1.765-.263-1.765-.588v-.882ZM6.5 7.47c-.975 0-1.765-.264-1.765-.589v.883c0 .325.79.588 1.765.588.975 0 1.765-.263 1.765-.588v-.883c0 .325-.79.589-1.765.589Zm1.575 2.333a.293.293 0 0 1 .368.133c.041.075.088.145.141.212a.292.292 0 0 1-.115.446c-.605.26-1.27.405-1.97.405a4.968 4.968 0 0 1-1.968-.405.292.292 0 0 1-.115-.446c.053-.067.1-.137.14-.212a.293.293 0 0 1 .369-.133 4.09 4.09 0 0 0 3.15 0Zm2.362-5.747a1.46 1.46 0 0 0 .212-.141.292.292 0 0 1 .446.115 4.982 4.982 0 0 1 0 3.939.292.292 0 0 1-.446.114 1.467 1.467 0 0 0-.212-.14.293.293 0 0 1-.133-.369A4.089 4.089 0 0 0 10.617 6a4.07 4.07 0 0 0-.315-1.575.293.293 0 0 1 .134-.368ZM3.26 8.058a1.178 1.178 0 1 0 0 2.355 1.178 1.178 0 0 0 0-2.355Zm5.323 1.177a1.178 1.178 0 1 1 2.355 0 1.178 1.178 0 0 1-2.355 0ZM9.76 1.558a1.178 1.178 0 1 0 0 2.355 1.178 1.178 0 0 0 0-2.355Z" clip-rule="evenodd"/>
</svg>
