<svg xmlns="http://www.w3.org/2000/svg" width="13" height="12" fill="none" viewBox="0 0 13 12">
  <path fill="#6C6F80" fill-rule="evenodd" d="M6.528.938a3.187 3.187 0 0 0-3.15 2.691.312.312 0 1 0 .618.097 2.563 2.563 0 0 1 5.063 0 .312.312 0 1 0 .617-.097A3.188 3.188 0 0 0 6.528.937Zm-.823 2.244a.312.312 0 0 1-.41-.472 1.875 1.875 0 0 1 2.456-.004.313.313 0 0 1-.408.473 1.25 1.25 0 0 0-1.638.003Zm3.92 2.435h-6.25a.125.125 0 0 0-.125.125v4.25c0 .07.056.125.125.125h6.25a.125.125 0 0 0 .125-.125v-4.25a.125.125 0 0 0-.125-.125Zm-6.25-.625a.75.75 0 0 0-.75.75v4.25c0 .415.336.75.75.75h6.25a.75.75 0 0 0 .75-.75v-4.25a.75.75 0 0 0-.75-.75h-6.25Zm3.43 3.262a.813.813 0 1 0-.626-.007v.706a.312.312 0 1 0 .625 0v-.7ZM6.001 3.95l.321.322a.218.218 0 0 0 .309 0l.321-.322a.218.218 0 0 0-.05-.348.936.936 0 0 0-.855 0 .221.221 0 0 0-.046.348Z" clip-rule="evenodd"/>
</svg>
