<svg xmlns="http://www.w3.org/2000/svg" width="13" height="12" fill="none" viewBox="0 0 13 12">
  <path fill="#6C6F80" fill-rule="evenodd" d="M6.5 3.43c-.83 0-1.57.343-2.116.881-.08.08-.147.172-.216.252l-.796-.458A3.867 3.867 0 0 1 6.045 2.56v-.892h.899v.893a3.898 3.898 0 0 1 2.308 1.11c.125.138.25.286.364.435l-.784.458a2.283 2.283 0 0 0-.217-.252A3.022 3.022 0 0 0 6.5 3.43ZM3.372 8.776l-.762.447-.443-.779.762-.446a3.968 3.968 0 0 1 0-3.114l.784.458c-.125.343-.204.71-.204 1.099 0 .836.34 1.58.875 2.13a3.015 3.015 0 0 0 1.661.846v.916a3.882 3.882 0 0 1-2.297-1.122 4.459 4.459 0 0 1-.376-.435Zm6.7-.778.761.446-.455.779-.762-.447a6.67 6.67 0 0 1-.364.435 3.913 3.913 0 0 1-2.308 1.122v-.916a3.01 3.01 0 0 0 1.671-.847 3.04 3.04 0 0 0 .876-2.13c0-.388-.08-.755-.205-1.098l.785-.458a3.968 3.968 0 0 1 0 3.114Zm-4.71-2.69c.32-.321.728-.47 1.138-.47.41 0 .819.149 1.126.47.318.308.466.72.466 1.133 0 .412-.148.824-.466 1.145a1.589 1.589 0 0 1-1.126.469c-.41 0-.819-.16-1.137-.47a1.656 1.656 0 0 1-.467-1.144c0-.412.16-.825.467-1.134Z" clip-rule="evenodd"/>
</svg>
