<svg xmlns="http://www.w3.org/2000/svg" width="13" height="12" fill="none" viewBox="0 0 13 12">
  <path fill="#6C6F80" fill-rule="evenodd" d="M10.951 4.53c0 .11-.088.198-.197.198H9.68v.954h1.074c.109 0 .197.089.197.198v.24c0 .11-.088.198-.197.198H9.68v.954h1.074c.109 0 .197.089.197.198v.24a.198.198 0 0 1-.197.198H9.68v.085c0 .655-.532 1.187-1.187 1.187h-.085v1.074c0 .11-.089.198-.198.198h-.24a.198.198 0 0 1-.198-.198V9.18h-.954v1.074c0 .11-.089.198-.198.198h-.24a.198.198 0 0 1-.198-.198V9.18h-.954v1.074c0 .11-.089.198-.198.198h-.24a.198.198 0 0 1-.198-.198V9.18h-.085A1.187 1.187 0 0 1 3.32 7.993v-.085H2.246a.198.198 0 0 1-.198-.198v-.24c0-.11.089-.198.198-.198H3.32v-.954H2.246a.198.198 0 0 1-.198-.198v-.24c0-.11.089-.198.198-.198H3.32v-.954H2.246a.198.198 0 0 1-.198-.198v-.24c0-.11.089-.198.198-.198H3.32v-.085c0-.655.532-1.187 1.187-1.187h.085V1.746c0-.109.089-.197.198-.197h.24c.11 0 .198.088.198.197V2.82h.954V1.746c0-.109.088-.197.198-.197h.24c.11 0 .198.088.198.197V2.82h.954V1.746c0-.109.088-.197.198-.197h.24a.198.198 0 0 1 .198.197V2.82h.085c.655 0 1.187.532 1.187 1.187v.085h1.074c.109 0 .197.089.197.198v.24ZM8.493 8.547a.555.555 0 0 0 .553-.554V4.007a.555.555 0 0 0-.553-.553H4.507a.555.555 0 0 0-.554.553v3.986c0 .306.248.553.554.554h3.986ZM4.98 4.06h3.037c.233 0 .422.189.422.422v3.037a.423.423 0 0 1-.422.422H4.981a.423.423 0 0 1-.422-.422V4.482c0-.233.19-.422.422-.422Zm3.062 1.788V4.837h-.084l-.846-.003h.008-.079.071c-.032.002-.116.01-.13.025a.086.086 0 0 0-.026.06v.232c0 .047.038.085.085.085h.315l-.761.86a.042.042 0 0 1-.061.002l-.363-.368a.084.084 0 0 0-.12 0L4.972 6.827a.087.087 0 0 0 0 .121l.181.184a.084.084 0 0 0 .12 0l.805-.816a.05.05 0 0 1 .072 0l.37.374a.084.084 0 0 0 .123-.004l1.004-1.149v.311c0 .047.038.085.084.086h.229a.085.085 0 0 0 .084-.086Z" clip-rule="evenodd"/>
</svg>
