<svg xmlns="http://www.w3.org/2000/svg" width="13" height="12" fill="none" viewBox="0 0 13 12">
  <path fill="#6C6F80" d="M8.718 2.961a3.733 3.733 0 0 0-1.897-.709V1a4.976 4.976 0 0 1 2.785 1.071l-.888.89Zm-.332 1.153L6.82 6.931l-.098-.098a.773.773 0 0 1-.372.098.782.782 0 0 1-.782-.782.76.76 0 0 1 .098-.372l-.098-.098 2.817-1.565ZM2.752 5.992a3.754 3.754 0 0 0 7.455.626h1.265a5.006 5.006 0 1 1-5.59-5.59v1.264a3.754 3.754 0 0 0-3.13 3.7Zm6.651-2.387.886-.886A4.98 4.98 0 0 1 11.5 5.68h-1.252a3.734 3.734 0 0 0-.845-2.074Z"/>
</svg>
