<svg xmlns="http://www.w3.org/2000/svg" width="13" height="12" fill="none" viewBox="0 0 13 12">
  <path fill="#6C6F80" fill-rule="evenodd" d="M1.4 3.982a.46.46 0 0 0 .302.408l1.748.637V6.75c0 .537.357.999.905 1.322.55.323 1.307.517 2.15.517s1.6-.194 2.15-.517c.548-.323.906-.785.906-1.322V5.023l.066-.024a.26.26 0 0 0 .155-.334c-.094-.206-.333-.156-.333-.156l-2.244.818c-.47.17-.978.158-1.446-.013L2.02 3.951l4.083-1.936a.918.918 0 0 1 .794 0l4.084 1.936-.142.052a.26.26 0 0 0 .178.49l.282-.103a.458.458 0 0 0 .04-.845l-4.218-2a1.444 1.444 0 0 0-1.24 0l-4.217 2a.457.457 0 0 0-.263.435v.002ZM3.972 6.75V5.216l1.645.6a2.59 2.59 0 0 0 1.766.001l1.656-.604V6.75c0 .329-.26.657-.729.909-.463.25-1.105.409-1.804.409-.7 0-1.341-.16-1.805-.41-.468-.251-.729-.58-.729-.908Zm5.65 3.77a.16.16 0 0 0 .075-.018l1.246-.654-1.246.654a.162.162 0 0 1-.075.018Zm.077-1.915-.236 1.733a.16.16 0 0 0 .017.096l.379-.633-.037.272.037-.272.13-.217-.042.31.623-.327-.154-.695.113-.189h-.518l-.152 1.118.152-1.118h-.127a.26.26 0 0 1-.185-.078Zm.723-.44h-.379v-.054a.19.19 0 0 1 .19-.19.19.19 0 0 1 .189.19v.054Zm.422.235.278 1.25a.26.26 0 0 1-.133.287l-1.247.655a.263.263 0 0 1-.269-.019.259.259 0 0 1-.11-.248l.261-1.915v-.3c0-.251.153-.469.372-.562V4.434l-3.8-.67a.26.26 0 0 1 .091-.514l4.015.709a.26.26 0 0 1 .216.256V7.57a.61.61 0 0 1 .326.54v.29Zm-.428.472-.041-.187h-.264l-.122.899.427-.712Z" clip-rule="evenodd"/>
</svg>
