<svg xmlns="http://www.w3.org/2000/svg" width="13" height="12" fill="none" viewBox="0 0 13 12">
  <path fill="#6C6F80" d="M6.5 9.276c.286 0 .517.231.517.517v.69a.517.517 0 0 1-1.034 0v-.69c0-.286.231-.517.517-.517Zm-2.316-.96a.517.517 0 0 1 0 .732l-.488.488a.517.517 0 1 1-.732-.732l.488-.488a.517.517 0 0 1 .732 0Zm5.364 0 .488.488a.517.517 0 0 1-.732.732l-.488-.488a.517.517 0 0 1 .732-.732ZM6.5 3.76a2.241 2.241 0 1 1 0 4.482 2.241 2.241 0 0 1 0-4.482Zm0 1.034a1.207 1.207 0 1 0 0 2.414 1.207 1.207 0 0 0 0-2.414Zm-3.793.69a.517.517 0 0 1 0 1.034h-.69a.517.517 0 0 1 0-1.034h.69Zm8.276 0a.517.517 0 0 1 0 1.034h-.69a.517.517 0 1 1 0-1.034h.69Zm-7.287-3.02.488.488a.517.517 0 0 1-.732.732l-.488-.488a.517.517 0 1 1 .732-.732Zm6.34 0a.517.517 0 0 1 0 .732l-.488.488a.517.517 0 0 1-.732-.732l.488-.488a.517.517 0 0 1 .732 0ZM6.5 1c.286 0 .517.232.517.517v.69a.517.517 0 0 1-1.034 0v-.69c0-.285.231-.517.517-.517Z"/>
</svg>
