<svg xmlns="http://www.w3.org/2000/svg" width="13" height="12" fill="none" viewBox="0 0 13 12">
  <path fill="#6C6F80" d="M8.795 10.847H7.778a2.43 2.43 0 0 1-2.421-2.678 2.412 2.412 0 0 1-1.065-1.997 2.429 2.429 0 0 1 2.435-2.418h2.068c.72 0 1.306.581 1.306 1.296 0 .715-.586 1.296-1.306 1.296H7.778A2.1 2.1 0 0 0 5.723 8c.298.162.64.255 1.004.255h2.068c.72 0 1.306.58 1.306 1.295s-.586 1.296-1.306 1.296ZM5.68 8.355l-.002.076c0 1.149.942 2.084 2.1 2.084h1.017c.535 0 .97-.432.97-.963a.967.967 0 0 0-.97-.962H6.727c-.375 0-.73-.084-1.047-.235Zm1.047-4.266a2.093 2.093 0 0 0-2.1 2.084c0 .662.312 1.252.798 1.633A2.436 2.436 0 0 1 7.78 6.013h1.017c.535 0 .97-.431.97-.962a.967.967 0 0 0-.97-.962h-2.07ZM3.81 10.45a.909.909 0 0 1-.91-.904c0-.498.408-.904.91-.904s.911.406.911.904a.909.909 0 0 1-.91.904Zm0-1.475a.573.573 0 0 0-.575.571c0 .315.258.571.575.571a.573.573 0 0 0 .575-.57.573.573 0 0 0-.575-.572Zm5-6.014a.909.909 0 0 1-.91-.904c0-.498.408-.904.91-.904s.911.406.911.904a.909.909 0 0 1-.91.904Zm0-1.475a.573.573 0 0 0-.575.571c0 .315.258.57.575.57a.573.573 0 0 0 .575-.57.573.573 0 0 0-.575-.57Z"/>
  <path fill="#6C6F80" fill-rule="evenodd" d="M6.79 4.242h-.063A1.94 1.94 0 0 0 4.78 6.173c0 .532.217 1.015.57 1.364A2.591 2.591 0 0 1 7.78 5.86h1.017a.814.814 0 0 0 .817-.81.814.814 0 0 0-.817-.808H6.79ZM5.474 7.65a2.438 2.438 0 0 1 2.305-1.636h1.017c.535 0 .97-.431.97-.962a.967.967 0 0 0-.97-.962H6.727a2.093 2.093 0 0 0-2.1 2.084 2.068 2.068 0 0 0 .798 1.633c.015-.053.031-.105.049-.157ZM8.795 11H7.778a2.582 2.582 0 0 1-2.582-2.757A2.563 2.563 0 0 1 4.14 6.172a2.582 2.582 0 0 1 2.588-2.57h2.068c.803 0 1.459.648 1.459 1.448 0 .8-.655 1.449-1.459 1.449H7.778c-.896 0-1.652.603-1.878 1.42.25.118.531.184.827.184h2.068c.803 0 1.459.648 1.459 1.448 0 .8-.655 1.449-1.459 1.449ZM5.723 8.001a2.1 2.1 0 0 1 2.055-1.655h1.017c.72 0 1.306-.581 1.306-1.296 0-.715-.586-1.296-1.306-1.296H6.727a2.429 2.429 0 0 0-2.435 2.418 2.41 2.41 0 0 0 1.065 1.997 2.43 2.43 0 0 0 2.421 2.678h1.017c.72 0 1.306-.58 1.306-1.296 0-.715-.586-1.295-1.306-1.295H6.727c-.364 0-.706-.093-1.004-.255Zm-.043.522a2.095 2.095 0 0 0 2.098 1.992h1.017c.535 0 .97-.432.97-.963a.967.967 0 0 0-.97-.962H6.727a2.437 2.437 0 0 1-1.047-.235 2.233 2.233 0 0 0 0 .168Zm.157.064c.08.99.92 1.774 1.94 1.774h1.018a.814.814 0 0 0 .817-.809.814.814 0 0 0-.817-.81H6.727c-.312 0-.612-.054-.89-.155ZM3.81 10.603a1.062 1.062 0 0 1-1.064-1.057c0-.584.479-1.057 1.064-1.057.586 0 1.064.473 1.064 1.057s-.478 1.057-1.064 1.057Zm0-1.474a.42.42 0 0 0-.422.417c0 .23.188.418.422.418a.42.42 0 0 0 .422-.418.42.42 0 0 0-.422-.417Zm5-6.015a1.062 1.062 0 0 1-1.064-1.057C7.746 1.473 8.225 1 8.81 1c.586 0 1.064.473 1.064 1.057S9.396 3.114 8.81 3.114Zm0-1.475a.42.42 0 0 0-.422.418c0 .23.188.418.422.418a.42.42 0 0 0 .422-.418.42.42 0 0 0-.422-.418ZM2.9 9.546c0 .498.408.904.91.904s.911-.405.911-.904a.909.909 0 0 0-.91-.904.909.909 0 0 0-.912.904Zm.335 0c0-.315.258-.57.575-.57.318 0 .575.255.575.57a.573.573 0 0 1-.575.571.573.573 0 0 1-.575-.57ZM7.9 2.057c0 .498.41.904.911.904a.91.91 0 0 0 .911-.904.909.909 0 0 0-.91-.904.909.909 0 0 0-.912.904Zm.336 0c0-.315.258-.57.575-.57.318 0 .575.255.575.57 0 .315-.257.57-.575.57a.573.573 0 0 1-.575-.57Z" clip-rule="evenodd"/>
</svg>
