<?xml version="1.0" encoding="UTF-8"?>
<svg width="18px" height="18px" viewBox="0 0 18 18" version="1.1" xmlns="http://www.w3.org/2000/svg" xmlns:xlink="http://www.w3.org/1999/xlink">
    <!-- Generator: Sketch 52.5 (67469) - http://www.bohemiancoding.com/sketch -->
    <title>N/A active</title>
    <desc>Created with Sketch.</desc>
    <g id="N/A-active" stroke="none" stroke-width="1" fill="none" fill-rule="evenodd">
        <rect id="Rectangle" fill="#D8D8D8" opacity="0" x="0" y="0" width="18" height="18"></rect>
        <g transform="translate(1.000000, 1.000000)">
            <circle id="Oval" fill="#6C7283" cx="8" cy="8" r="8"></circle>
            <path d="M3.148,10 L3.148,6.112 L3.692,6.112 L3.748,6.672 L3.772,6.672 C4.14,6.304 4.54,6.016 5.076,6.016 C5.892,6.016 6.26,6.544 6.26,7.536 L6.26,10 L5.604,10 L5.604,7.624 C5.604,6.896 5.38,6.584 4.868,6.584 C4.468,6.584 4.196,6.792 3.804,7.184 L3.804,10 L3.148,10 Z M6.948,11.28 L9.084,4.32 L9.564,4.32 L7.428,11.28 L6.948,11.28 Z M11.028,10.096 C10.38,10.096 9.892,9.688 9.892,8.992 C9.892,8.144 10.62,7.72 12.276,7.536 C12.276,7.04 12.116,6.56 11.476,6.56 C11.028,6.56 10.62,6.768 10.316,6.976 L10.06,6.52 C10.42,6.288 10.964,6.016 11.588,6.016 C12.54,6.016 12.94,6.648 12.94,7.616 L12.94,10 L12.396,10 L12.34,9.536 L12.316,9.536 C11.948,9.84 11.516,10.096 11.028,10.096 Z M11.22,9.568 C11.596,9.568 11.9,9.384 12.276,9.048 L12.276,7.968 C10.98,8.128 10.532,8.448 10.532,8.944 C10.532,9.384 10.836,9.568 11.22,9.568 Z" id="n/a" fill="#FFFFFF"></path>
        </g>
    </g>
</svg>