<?xml version="1.0" encoding="UTF-8"?>
<svg width="24" height="24" version="1.1" viewBox="0 0 24 24" xmlns="http://www.w3.org/2000/svg">
 <g transform="translate(0,-290.65)" display="none">
  <path d="m11.892 294.65a8 8 89.237 0 0-7.8926 8.1074 8 8 89.237 0 0 8.1074 7.8926 8 8 89.237 0 0 7.8926-8.1074 8 8 89.237 0 0-8.1074-7.8926zm0.10742 1a7 7 0 0 1 7 7 7 7 0 0 1-7 7 7 7 0 0 1-7-7 7 7 0 0 1 7-7z"/>
  <path transform="translate(0,290.65)" d="m7 4.0195v0.98047h-2v2h-0.95703v10h0.95703v2h2v1h10v-1h2v-2h1v-10h-1v-2h-2v-0.98047z" fill-opacity=".27451" opacity=".544"/>
  <rect x="-6" y="284.65" width="36" height="36" fill="none" stroke="#000000" stroke-width=".05"/>
  <circle cx="12" cy="302.65" r="18" fill="none" stroke="#000000" stroke-width=".05"/>
 </g>
 <g>
  <g transform="matrix(1.3327 0 0 1.2222 -1.3237 -1.5556)">
   <g transform="translate(0,-290.65)" display="none" fill="none" stroke="#000000">
    <circle cx="9.0642" cy="302.68" r="4.9517" stroke-width=".033411"/>
    <rect x="-8.9358" y="284.68" width="36" height="36" stroke-width=".05"/>
    <circle cx="9.0642" cy="302.68" r="18" stroke-width=".05"/>
    <rect x="5.0323" y="298.65" width="7.9623" height="7.9802" stroke-width=".033214"/>
   </g>
   <g>
    <path d="m15 7-7 7-3-3-1 1 4 4 8-8z"/>
   </g>
  </g>
 </g>
</svg>
