<?xml version="1.0" encoding="UTF-8"?>
<svg width="24" height="24" version="1.1" viewBox="0 0 24 24" xmlns="http://www.w3.org/2000/svg">
 <g transform="translate(0,-290.65)" display="none">
  <path d="m11.892 294.65a8 8 89.237 0 0-7.8926 8.1074 8 8 89.237 0 0 8.1074 7.8926 8 8 89.237 0 0 7.8926-8.1074 8 8 89.237 0 0-8.1074-7.8926zm0.10742 1a7 7 0 0 1 7 7 7 7 0 0 1-7 7 7 7 0 0 1-7-7 7 7 0 0 1 7-7z"/>
  <path transform="translate(0,290.65)" d="m7 4.0195v0.98047h-2v2h-0.95703v10h0.95703v2h2v1h10v-1h2v-2h1v-10h-1v-2h-2v-0.98047z" fill-opacity=".27451" opacity=".544"/>
  <rect x="-6" y="284.65" width="36" height="36" fill="none" stroke="#000000" stroke-width=".05"/>
  <circle cx="12" cy="302.65" r="18" fill="none" stroke="#000000" stroke-width=".05"/>
 </g>
 <g>
  <g transform="translate(-1089,-791)" fill-rule="evenodd">
   <path d="m1097 795v2h2v-2zm6 0v2h2v-2zm-9 2v13h14v-13h-2v1h-4v-1h-2v1h-4v-1zm2 3h10v8h-10zm4 1v2h2v-2zm3 0v2h2v-2zm-6 3v2h2v-2zm3 0v2h2v-2zm-3-3v2h2v-2z" fill-rule="evenodd"/>
  </g>
 </g>
</svg>
