<?xml version="1.0" encoding="UTF-8"?>
<svg width="20" height="20" version="1.1" viewBox="0 0 20 20" xmlns="http://www.w3.org/2000/svg">
 <g transform="translate(0,-294.65)" display="none">
  <path d="m6 297.65v1h-2v2h-1v8h1v2h2v1h8v-1h2v-2h1v-8h-1v-2h-2v-1z" fill-opacity=".27451" opacity=".544"/>
  <path d="m9.91 297.99a6.6574 6.6574 89.506 0 0-6.568 6.7468 6.6574 6.6574 89.506 0 0 6.7468 6.568 6.6574 6.6574 89.506 0 0 6.568-6.7468 6.6574 6.6574 89.506 0 0-6.7468-6.568zm0.089396 0.83218a5.8252 5.8252 0 0 1 5.8252 5.8252 5.8252 5.8252 0 0 1-5.8252 5.8252 5.8252 5.8252 0 0 1-5.8252-5.8252 5.8252 5.8252 0 0 1 5.8252-5.8252z"/>
  <rect x="-4.9792" y="289.67" width="29.958" height="29.958" fill="none" stroke="#000000" stroke-width=".041609"/>
  <ellipse cx="10" cy="304.65" rx="14.979" ry="14.979" fill="none" stroke="#000000" stroke-width=".041609"/>
 </g>
 <g transform="translate(0,-4)">
  <path id="calendar_icon" d="m8 9h4v1h3v-1h1v11h-12v-11h1v1h3zm-3 2v8h10v-8zm1-4h1v2h-1zm7 0h1v2h-1zm-7 5h2v2h-2zm3 0h2v2h-2zm3 0h2v2h-2zm-6 3h2v2h-2zm3 0h2v2h-2z" fill-rule="evenodd"/>
 </g>
</svg>
