<?xml version="1.0" encoding="UTF-8"?>
<svg width="24" height="24" version="1.1" viewBox="0 0 24 24" xmlns="http://www.w3.org/2000/svg">
 <g transform="translate(0,-290.65)" display="none">
  <path d="m11.892 294.65a8 8 89.237 0 0-7.8926 8.1074 8 8 89.237 0 0 8.1074 7.8926 8 8 89.237 0 0 7.8926-8.1074 8 8 89.237 0 0-8.1074-7.8926zm0.10742 1a7 7 0 0 1 7 7 7 7 0 0 1-7 7 7 7 0 0 1-7-7 7 7 0 0 1 7-7z"/>
  <path transform="translate(0,290.65)" d="m7 4.0195v0.98047h-2v2h-0.95703v10h0.95703v2h2v1h10v-1h2v-2h1v-10h-1v-2h-2v-0.98047z" fill-opacity=".27451" opacity=".544"/>
  <rect x="-6" y="284.65" width="36" height="36" fill="none" stroke="#000000" stroke-width=".05"/>
  <circle cx="12" cy="302.65" r="18" fill="none" stroke="#000000" stroke-width=".05"/>
 </g>
 <g>
  <path id="export_icon" d="m15.535 4.6069a2.0218 1.9806 0 0 0-0.68833-0.42857 2.1128 2.0697 0 0 0-0.805-0.17829h-8.1667a0.87267 0.85486 0 0 0-0.875 0.85714v14.286a0.87267 0.85486 0 0 0 0.25667 0.60686 0.86333 0.84571 0 0 0 0.61833 0.25029h12.25a0.87383 0.856 0 0 0 0.875-0.85714v-10.286a2.1828 2.1383 0 0 0-0.175-0.78628 2.1443 2.1006 0 0 0-0.44333-0.67771zm-0.82833 0.8 2.8583 2.7943a1.0138 0.99314 0 0 1 0.19833 0.36686h-3.43v-3.3577a0.98583 0.96571 0 0 1 0.37333 0.19657zm-8.54 13.447v-13.714h7v3.7143a0.87267 0.85486 0 0 0 0.25667 0.60686 0.84467 0.82743 0 0 0 0.61833 0.25029h3.7917v9.1428zm3.3717-2.0891 1.7617-2.5269-1.715-2.4286h-0.63v-0.94628h2.6483v0.95543h-0.68833l0.95667 1.4194a0.95317 0.93371 0 0 1 0.16333 0.20571 0.68133 0.66743 0 0 1 0.04667 0.08914h0.01167l0.02333-0.02743c0.01167-0.024 0.04667-0.064 0.08167-0.12a1.2122 1.1874 0 0 1 0.09333-0.14743l0.93333-1.4194h-0.67667v-0.95543h2.5433v0.95543h-0.60667l-1.785 2.5143 1.75 2.4377h0.63v0.94971h-2.66v-0.94628h0.7l-0.98-1.4377a0.43633 0.42743 0 0 0-0.05833-0.07657 0.78517 0.76914 0 0 0-0.05833-0.07086c-0.01167-0.02057-0.02333-0.04343-0.035-0.06743a0.224 0.21943 0 0 1-0.04667-0.08914h-0.02333a0.17383 0.17029 0 0 0-0.02333 0.03543 0.39783 0.38971 0 0 0-0.07 0.12114c-0.035 0.056-0.07 0.10514-0.09333 0.14743l-0.945 1.4377h0.68833v0.94628h-2.555v-0.94628h0.61833z" stroke-width="1.1547"/>
 </g>
</svg>
