<?xml version="1.0" encoding="UTF-8"?>
<svg width="24" height="24" version="1.1" viewBox="0 0 24 24" xmlns="http://www.w3.org/2000/svg">
 <g transform="translate(0,-290.65)" display="none">
  <path d="m11.892 310.65a8 8 0.76331 0 1-7.8926-8.1074 8 8 0.76331 0 1 8.1074-7.8926 8 8 0.76331 0 1 7.8926 8.1074 8 8 0.76331 0 1-8.1074 7.8926zm0.10742-1a7 7 0 0 0 7-7 7 7 0 0 0-7-7 7 7 0 0 0-7 7 7 7 0 0 0 7 7z"/>
  <path d="m7 310.63v-0.98047h-2v-2h-0.95703v-10h0.95703v-2h2v-1h10v1h2v2h1v10h-1v2h-2v0.98047z" fill-opacity=".27451" opacity=".544"/>
  <rect transform="scale(1,-1)" x="-6" y="-320.65" width="36" height="36" fill="none" stroke="#000000" stroke-width=".05"/>
  <circle transform="scale(1,-1)" cx="12" cy="-302.65" r="18" fill="none" stroke="#000000" stroke-width=".05"/>
 </g>
 <g>
  <g transform="matrix(1.5,0,0,1.5,-6,-6)">
   <path d="m12 14-4-4h8z" stroke-width=".43644"/>
  </g>
 </g>
</svg>
