<?xml version="1.0" encoding="UTF-8"?>
<svg width="24" height="24" version="1.1" viewBox="0 0 24 24" xmlns="http://www.w3.org/2000/svg">
 <g transform="translate(0,-290.65)" display="none">
  <path d="m11.892 294.65a8 8 89.237 0 0-7.8926 8.1074 8 8 89.237 0 0 8.1074 7.8926 8 8 89.237 0 0 7.8926-8.1074 8 8 89.237 0 0-8.1074-7.8926zm0.10742 1a7 7 0 0 1 7 7 7 7 0 0 1-7 7 7 7 0 0 1-7-7 7 7 0 0 1 7-7z"/>
  <path transform="translate(0,290.65)" d="m7 4.0195v0.98047h-2v2h-0.95703v10h0.95703v2h2v1h10v-1h2v-2h1v-10h-1v-2h-2v-0.98047z" fill-opacity=".27451" opacity=".544"/>
  <rect x="-6" y="284.65" width="36" height="36" fill="none" stroke="#000000" stroke-width=".05"/>
  <circle cx="12" cy="302.65" r="18" fill="none" stroke="#000000" stroke-width=".05"/>
 </g>
 <g>
  <g transform="matrix(.035475 0 0 .035156 2.9183 3)">
   <path d="m448.01 256c0-12-1.25-23.656-3.344-35.031l65.031-37.531-64-110.88-65.031 37.563c-17.719-15.126-38.25-27.032-60.656-34.97v-75.156h-128v75.156c-22.422 7.938-42.938 19.844-60.656 34.969l-65.047-37.562-64 110.88 65.047 37.562c-2.109 11.344-3.344 23-3.344 35 0 11.969 1.234 23.625 3.344 35l-65.047 37.562 64 110.88 65.063-37.562c17.719 15.156 38.219 27.031 60.641 34.969v75.156h128v-75.156c22.406-7.938 42.939-19.812 60.625-34.969l65.064 37.562 64-110.88-65.031-37.53c2.091-11.376 3.341-23.063 3.341-35.032zm-192 96c-53.031 0-96-42.969-96-96s42.969-96 96-96c53.032 0 96 42.969 96 96s-42.968 96-96 96z"/>
  </g>
 </g>
</svg>
