<?xml version="1.0" encoding="UTF-8"?>
<svg width="24" height="24" version="1.1" viewBox="0 0 24 24" xmlns="http://www.w3.org/2000/svg">
 <g transform="translate(0,-290.65)" display="none">
  <path d="m11.892 294.65a8 8 89.237 0 0-7.8926 8.1074 8 8 89.237 0 0 8.1074 7.8926 8 8 89.237 0 0 7.8926-8.1074 8 8 89.237 0 0-8.1074-7.8926zm0.10742 1a7 7 0 0 1 7 7 7 7 0 0 1-7 7 7 7 0 0 1-7-7 7 7 0 0 1 7-7z"/>
  <path transform="translate(0,290.65)" d="m7 4.0195v0.98047h-2v2h-0.95703v10h0.95703v2h2v1h10v-1h2v-2h1v-10h-1v-2h-2v-0.98047z" fill-opacity=".27451" opacity=".544"/>
  <rect x="-6" y="284.65" width="36" height="36" fill="none" stroke="#000000" stroke-width=".05"/>
  <circle cx="12" cy="302.65" r="18" fill="none" stroke="#000000" stroke-width=".05"/>
 </g>
 <g>
  <g transform="matrix(1.3333 0 0 1.3333 1.3333 1.3333)">
   <g transform="translate(0,-298.65)" display="none" fill="#666666">
    <rect x="-3.9834" y="294.67" width="23.967" height="23.967" stroke="#000000" stroke-width=".033287"/>
    <circle cx="8" cy="306.65" r="11.983" stroke="#000000" stroke-width=".033287"/>
    <path d="m5 300.65v1h-1v1h-1v1h-1v6h1v1h1v1h1v1h6v-1h1v-1h1v-1h1v-6h-1v-1h-1v-1h-1v-1z" fill-opacity=".14902"/>
   </g>
   <g transform="translate(0,-8)">
    <path class="st1" d="m7.4 19.6h1.2v-1.2h-1.2zm0.6-9.6c-3.3 0-6 2.7-6 6s2.7 6 6 6 6-2.7 6-6-2.7-6-6-6zm0 10.8c-2.64 0-4.8-2.16-4.8-4.8s2.16-4.8 4.8-4.8 4.8 2.16 4.8 4.8-2.16 4.8-4.8 4.8zm0-8.4c-1.32 0-2.4 1.08-2.4 2.4h1.2c0-0.66 0.54-1.2 1.2-1.2s1.2 0.54 1.2 1.2c0 1.2-1.8 1.08-1.8 3h1.2c0-1.32 1.8-1.5 1.8-3 0-1.32-1.08-2.4-2.4-2.4z" stroke-width=".6"/>
   </g>
  </g>
 </g>
</svg>
