<?xml version="1.0" encoding="UTF-8"?>
<svg width="16" height="16" version="1.1" viewBox="0 0 16 16" xmlns="http://www.w3.org/2000/svg">
 <g transform="translate(0,-298.65)" display="none" fill="#666666">
  <rect x="-3.9834" y="294.67" width="23.967" height="23.967" stroke="#000000" stroke-width=".033287"/>
  <circle cx="8" cy="306.65" r="11.983" stroke="#000000" stroke-width=".033287"/>
  <path d="m5 300.65v1h-1v1h-1v1h-1v6h1v1h1v1h1v1h6v-1h1v-1h1v-1h1v-6h-1v-1h-1v-1h-1v-1z" fill-opacity=".14902"/>
 </g>
 <g transform="translate(0,-8)">
  <path class="st1" d="m7.4 19.6h1.2v-1.2h-1.2zm0.6-9.6c-3.3 0-6 2.7-6 6s2.7 6 6 6 6-2.7 6-6-2.7-6-6-6zm0 10.8c-2.64 0-4.8-2.16-4.8-4.8s2.16-4.8 4.8-4.8 4.8 2.16 4.8 4.8-2.16 4.8-4.8 4.8zm0-8.4c-1.32 0-2.4 1.08-2.4 2.4h1.2c0-0.66 0.54-1.2 1.2-1.2s1.2 0.54 1.2 1.2c0 1.2-1.8 1.08-1.8 3h1.2c0-1.32 1.8-1.5 1.8-3 0-1.32-1.08-2.4-2.4-2.4z" stroke-width=".6"/>
 </g>
</svg>
