<?xml version="1.0" encoding="UTF-8"?>
<svg width="24" height="24" version="1.1" viewBox="0 0 24 24" xmlns="http://www.w3.org/2000/svg">
 <g transform="translate(0,-290.65)" display="none" fill="none" stroke="#000000" stroke-width=".05">
  <circle cx="12" cy="302.65" r="7.4103"/>
  <rect x="-6" y="284.65" width="36" height="36"/>
  <circle cx="12" cy="302.65" r="18"/>
  <rect x="6" y="296.65" width="12" height="12"/>
 </g>
 <g>
  <g transform="matrix(6.0391 0 0 6.0391 -119.85 -878.97)">
   <g transform="matrix(.78001 0 0 .78001 14.174 91.505)">
    <path d="m11.92 73.551-0.37412 0.37412-1.044-1.0441c-0.67583 0.48128-1.6077 0.36424-2.1436-0.26921-0.53583-0.63344-0.49673-1.5718 0.08994-2.1585 0.58667-0.58667 1.5251-0.62577 2.1585-0.0899 0.63344 0.53582 0.75048 1.4677 0.26921 2.1436zm-2.3357-3.02c-0.5845 0-1.0583 0.47384-1.0583 1.0583 0 0.5845 0.47383 1.0583 1.0583 1.0583 0.5845 0 1.0583-0.47383 1.0583-1.0583 0-0.5845-0.47383-1.0583-1.0583-1.0583z" fill-rule="evenodd"/>
   </g>
   <rect x="19.596" y="144.2" width="4.3518" height="6.5278" fill="none"/>
  </g>
 </g>
</svg>
