<?xml version="1.0" encoding="UTF-8"?>
<svg width="24" height="24" version="1.1" viewBox="0 0 24 24" xmlns="http://www.w3.org/2000/svg">
 <g transform="translate(0,-290.65)" display="none" fill="none" stroke="#000000" stroke-width=".05">
  <circle cx="12" cy="302.65" r="7.4103"/>
  <rect x="-6" y="284.65" width="36" height="36"/>
  <circle cx="12" cy="302.65" r="18"/>
  <rect x="6" y="296.65" width="12" height="12"/>
 </g>
 <g>
  <path d="m8.5717 17.843 0.86471-0.86471-2.3347-2.3347-0.86471 0.95118v1.0377h1.2971v1.2106zm5.0153-8.993c0-0.086471-0.08647-0.17294-0.25941-0.17294 0 0-0.08647 0-0.08647 0.086471l-5.2748 5.1883c-0.086472 0.08647-0.086472 0.08647-0.086472 0.17294 0 0.08647 0.086472 0.17294 0.25941 0.17294h0.17294l5.1883-5.2747c0.08647 0 0.08647-0.086471 0.08647-0.17294zm-0.51883-1.8159 3.9777 3.9777-8.0418 8.0418h-3.9777v-3.9777zm6.5718 0.95118c0 0.25941-0.08647 0.6053-0.34589 0.86471l-1.643 1.5565-3.9777-3.9777 1.643-1.643c0.17294-0.17294 0.51883-0.34589 0.86471-0.34589 0.25941 0 0.6053 0.17294 0.86471 0.34589l2.2483 2.2483c0.25941 0.25941 0.34589 0.6053 0.34589 0.95118z" fill-rule="evenodd"/>
 </g>
</svg>
