<?xml version="1.0" encoding="UTF-8"?>
<svg width="24" height="24" version="1.1" viewBox="0 0 24 24" xmlns="http://www.w3.org/2000/svg">
 <g transform="translate(0,-290.65)" display="none" fill="none" stroke="#000000" stroke-width=".05">
  <circle cx="12" cy="302.65" r="7.4103"/>
  <rect x="-6" y="284.65" width="36" height="36"/>
  <circle cx="12" cy="302.65" r="18"/>
  <rect x="6" y="296.65" width="12" height="12"/>
 </g>
 <g>
  <path id="settings_icon.svg" class="cls-1" d="m12.52 16.227a1.9711 1.9711 0 0 1-3.7316 0h-2.7987v-1.3327h2.7987a1.9711 1.9711 0 0 1 3.7316 0h5.4641v1.3327zm2.1323-2.6654a1.9817 1.9817 0 0 1-1.8658-1.3327h-6.7968v-1.3327h6.7968a1.9711 1.9711 0 0 1 3.7316 0h1.466v1.3327h-1.466a1.9817 1.9817 0 0 1-1.8658 1.3327zm-5.3309-3.9982a1.9817 1.9817 0 0 1-1.8658-1.3327h-1.466v-1.3327h1.466a1.9711 1.9711 0 0 1 3.7316 0h6.7968v1.3327h-6.7968a1.9817 1.9817 0 0 1-1.8658 1.3327z" stroke-width="1.3327"/>
 </g>
</svg>
