<?xml version="1.0" encoding="UTF-8"?>
<svg width="24" height="24" version="1.1" viewBox="0 0 24 24" xmlns="http://www.w3.org/2000/svg">
 <g transform="translate(0,-290.65)" display="none" fill="none" stroke="#000000" stroke-width=".05">
  <circle cx="12" cy="302.65" r="7.4103"/>
  <rect x="-6" y="284.65" width="36" height="36"/>
  <circle cx="12" cy="302.65" r="18"/>
  <rect x="6" y="296.65" width="12" height="12"/>
 </g>
 <g>
  <path d="m18.975 9.0501h-1.0168v9.9835c0.09244 0.55464-0.4622 1.0168-1.0168 1.0168h-9.9836c-0.55464 0-1.0168-0.4622-0.9244-1.0168v-9.9835h-1.0168c-1.3866 0-1.3866-2.0337 0-2.0337h2.9581v-1.9412c0-0.55464 0.4622-1.0168 1.0168-1.0168h6.0086c0.55464 0 1.0168 0.4622 1.0168 1.0168v1.9412h2.9581c1.2942 0 1.2942 2.0337 0 2.0337zm-9.9836 7.9499h2.0337v-6.933h-2.0337zm4.9918-10.908h-3.9749v0.9244h3.9749zm1.0168 3.9749h-2.0337v6.933h2.0337z"/>
 </g>
</svg>
