<?xml version="1.0" standalone="no"?>
<!DOCTYPE svg PUBLIC "-//W3C//DTD SVG 20010904//EN"
 "http://www.w3.org/TR/2001/REC-SVG-20010904/DTD/svg10.dtd">
<svg version="1.0" xmlns="http://www.w3.org/2000/svg"
 width="700.000000pt" height="700.000000pt" viewBox="0 0 700.000000 700.000000"
 preserveAspectRatio="xMidYMid meet">
<metadata>
Created by potrace 1.11, written by Peter Selinger 2001-2013
</metadata>
<g transform="translate(0.000000,700.000000) scale(0.100000,-0.100000)"
fill="#000000" stroke="none">
<path d="M3358 6338 c-79 -44 -170 -94 -203 -112 -121 -67 -161 -90 -235 -131
-41 -23 -100 -56 -130 -72 -30 -17 -98 -54 -150 -83 -52 -29 -120 -66 -150
-83 -30 -16 -59 -33 -65 -37 -5 -4 -41 -24 -80 -45 -38 -21 -164 -91 -280
-155 -115 -64 -235 -130 -265 -147 -62 -34 -215 -119 -275 -153 -22 -13 -67
-37 -100 -55 -33 -18 -166 -92 -294 -164 -129 -72 -239 -131 -243 -131 -11 0
-10 29 -12 -448 -1 -284 2 -436 9 -442 5 -4 55 -31 110 -60 55 -29 147 -79
205 -110 170 -92 318 -170 324 -170 3 0 7 188 8 418 l3 417 480 267 c264 147
507 282 540 299 33 18 77 43 97 55 21 13 40 24 42 24 2 0 35 17 73 39 37 21
88 49 113 63 59 32 412 229 492 274 122 68 127 70 173 44 22 -12 60 -33 85
-46 25 -13 448 -248 940 -521 l895 -498 3 -424 c2 -335 5 -421 15 -413 6 5 62
35 122 67 61 32 115 61 120 65 6 4 72 39 147 79 76 39 163 86 195 104 l58 33
0 436 0 437 -125 70 c-69 39 -146 81 -170 94 -25 13 -144 79 -265 147 -121 68
-242 135 -270 150 -27 15 -129 72 -225 125 -96 54 -197 110 -225 125 -27 15
-341 189 -697 387 l-647 360 -143 -79z"/>
<path d="M3328 4576 c-95 -51 -207 -110 -248 -133 -41 -22 -118 -63 -170 -91
-52 -27 -124 -65 -160 -84 -36 -20 -126 -68 -200 -108 -74 -39 -137 -76 -140
-80 -3 -4 -5 -268 -4 -585 l0 -577 60 -32 c32 -18 104 -56 159 -86 55 -29 127
-67 160 -85 33 -18 101 -54 150 -80 50 -26 117 -62 150 -80 33 -18 105 -56
160 -85 162 -86 209 -112 220 -121 18 -17 48 -9 129 35 44 24 117 63 161 86
109 57 239 127 305 163 30 17 69 37 85 45 17 9 112 60 213 114 101 54 187 98
191 98 4 0 16 8 27 18 18 18 19 37 18 595 0 317 -2 578 -5 580 -7 7 -151 87
-155 87 -3 0 -58 29 -122 64 -64 35 -157 85 -207 111 -49 26 -117 62 -150 80
-33 18 -109 58 -170 90 -60 32 -149 80 -197 106 l-87 47 -173 -92z"/>
<path d="M875 2700 c0 -419 4 -652 10 -659 9 -9 131 -78 345 -196 52 -29 154
-85 225 -125 72 -40 155 -86 185 -103 30 -17 132 -73 225 -125 94 -52 195
-108 225 -125 30 -16 69 -38 85 -47 36 -21 80 -46 172 -96 37 -20 118 -65 178
-99 61 -34 142 -79 180 -100 39 -21 126 -69 195 -108 69 -38 148 -82 175 -97
28 -15 68 -38 90 -50 22 -13 69 -39 105 -58 36 -20 82 -46 102 -59 21 -13 41
-23 45 -23 5 0 24 -11 44 -24 l36 -24 49 27 c27 15 74 41 104 58 163 91 241
133 245 133 3 0 11 5 18 10 9 8 799 449 1357 757 291 160 792 441 820 458 l35
22 0 652 c0 358 -2 651 -4 651 -3 0 -122 -63 -341 -179 -47 -26 -136 -73 -198
-106 l-112 -59 -2 -290 -3 -289 -340 -189 c-187 -104 -509 -283 -715 -398
-206 -114 -493 -273 -638 -354 -144 -80 -266 -146 -272 -146 -5 0 -269 145
-587 321 -318 177 -600 334 -628 349 -27 15 -129 71 -225 125 -96 53 -200 111
-230 127 -75 41 -142 79 -225 126 l-70 40 -3 289 -2 289 -58 31 c-31 17 -102
54 -157 83 -55 29 -119 63 -143 76 -79 44 -289 154 -293 154 -2 0 -4 -292 -4
-650z"/>
</g>
</svg>
