<svg width="42" height="42" viewBox="0 0 42 42" xmlns="http://www.w3.org/2000/svg"><path fill-rule="evenodd" transform="translate(9.000000, 9.000000)" d="M3,5 L5,5 L5,11 L9,11 L9,5 L11,5 L11,19 L9,19 L9,13 L5,13 L5,19 L3,19 L3,5 M21,19 L15,19 C13.8954305,19 13,18.1045695 13,17 C13,16.47 13.2,16 13.54,15.64 L18.41,10.41 C18.78,10.05 19,9.55 19,9 C19,7.8954305 18.1045695,7 17,7 C15.8954305,7 15,7.8954305 15,9 L13,9 C13,6.790861 14.790861,5 17,5 C19.209139,5 21,6.790861 21,9 C21,10.1 20.55,11.1 19.83,11.83 L15,17 L21,17 L21,19 Z"/></svg>