<?xml version="1.0" encoding="UTF-8"?>
<svg width="42px" height="42px" viewBox="0 0 42 42" version="1.1" xmlns="http://www.w3.org/2000/svg" xmlns:xlink="http://www.w3.org/1999/xlink">
    <!-- Generator: Sketch 59.1 (86144) - https://sketch.com -->
    <title>icon_richEditor_infoBlock_quote_normal</title>
    <desc>Created with Sketch.</desc>
    <g id="icon_richEditor_infoBlock_quote_normal" stroke="none" stroke-width="1" fill="none" fill-rule="evenodd">
        <path d="M30.8181818,11 C32.0231667,11 33,11.9949228 33,13.2222222 L33,28.7777778 C33,30.0050772 32.0231667,31 30.8181818,31 L11.1818182,31 C9.97683327,31 9,30.0050772 9,28.7777778 L9,13.2222222 C9,11.9949228 9.97683327,11 11.1818182,11 L30.8181818,11 Z" id="Rectangle" fill="#6C7283" fill-rule="nonzero"></path>
        <path d="M21.625,16 L25.7425,26 L24.055,26 L23.215,23.9977443 L18.5275,23.9977443 L17.6875,26 L16,26 L20.125,16 L21.625,16 Z M20.875,17.9071429 L19.09,22.5691728 L22.66,22.5691728 L20.875,17.9071429 Z" id="Combined-Shape" fill="#E1E3EB"></path>
    </g>
</svg>