<svg xmlns="http://www.w3.org/2000/svg" width="42" height="42" viewBox="0 0 42 42"><path fill-rule="evenodd" d="M19.707 22.293a.892.892 0 010 1.301.924.924 0 01-1.301 0 4.587 4.587 0 010-6.48l3.245-3.246a4.587 4.587 0 016.48 0 4.587 4.587 0 010 6.481l-1.365 1.366a6.332 6.332 0 00-.367-2.218l.431-.44a2.733 2.733 0 000-3.887 2.733 2.733 0 00-3.887 0l-3.235 3.236a2.733 2.733 0 000 3.887zm2.585-3.887a.924.924 0 011.302 0 4.587 4.587 0 010 6.48l-3.245 3.246a4.587 4.587 0 01-6.48 0 4.587 4.587 0 010-6.481l1.365-1.366c-.009.752.11 1.503.367 2.228l-.431.43a2.733 2.733 0 000 3.887 2.733 2.733 0 003.887 0l3.236-3.236a2.733 2.733 0 000-3.886.892.892 0 010-1.302z"/></svg>