<?xml version="1.0" encoding="UTF-8"?>
<svg width="42px" height="42px" viewBox="0 0 42 42" version="1.1" xmlns="http://www.w3.org/2000/svg" xmlns:xlink="http://www.w3.org/1999/xlink">
    <path d="M22,18 L27.5,18 L22,12.5 L22,18 L22,18 Z M15,11 L23,11 L29,17 L29,29 C29,30.1045695 28.1045695,31 27,31 L15,31 C13.8954305,31 13,30.1045695 13,29 L13,13 C13,11.8954305 13.8954305,11 15,11 L15,11 Z M19.1,20.4 C19.08,20.44 18.81,22.16 17,25.09 C17,25.09 13.5,26.91 14.33,28.27 C15,29.35 16.65,28.23 18.07,25.59 C18.07,25.59 19.89,24.95 22.31,24.77 C22.31,24.77 26.17,26.5 26.7,24.66 C27.22,22.8 23.64,23.22 23,23.41 C23,23.41 21,22.06 20.5,20.2 C20.5,20.2 21.64,16.25 19.89,16.3 C18.14,16.35 18.8,19.43 19.1,20.4 L19.1,20.4 Z M19.91,21.44 C19.94,21.45 20.38,22.65 21.8,23.9 C21.8,23.9 19.47,24.36 18.41,24.8 C18.41,24.8 19.41,23.07 19.91,21.44 L19.91,21.44 Z M23.84,24.16 C24.42,24 26.17,24.31 26.1,24.64 C26.04,24.97 23.84,24.16 23.84,24.16 L23.84,24.16 Z M16.77,26 C16.24,27.24 15.33,28 15.1,28 C14.87,28 15.8,26.4 16.77,26 L16.77,26 Z M19.91,19.07 C19.91,19 19.55,16.87 19.91,16.92 C20.45,17 19.91,19 19.91,19.07 Z" id="icon"></path>
</svg>