<svg xmlns="http://www.w3.org/2000/svg" width="42" height="42" viewBox="0 0 42 42"><path fill-rule="nonzero" d="M22 25v3h7v-1h2v1a2 2 0 01-2 2H13a2 2 0 01-2-2v-2h2v2h7v-3h2zm5.5-6.498a.5.5 0 01.492.41l.008.09V20h3a1 1 0 01.117 1.993L31 22h-3v1a.5.5 0 01-.723.447L27.2 23.4l-2.666-2a.5.5 0 01-.067-.74l.067-.06 2.666-1.998a.5.5 0 01.3-.1zm-13 0a.5.5 0 01.3.1l2.666 1.998a.5.5 0 010 .8l-2.666 2a.5.5 0 01-.8-.4v-1h-3a1 1 0 010-2h3v-.998a.5.5 0 01.5-.5zM29 12a2 2 0 012 2v1h-2v-1h-7v3h-2v-3h-7v2h-2v-2a2 2 0 012-2h16z"/></svg>