<svg xmlns="http://www.w3.org/2000/svg" width="24" height="25" fill="none" viewBox="0 0 24 25">
  <path fill="#6C6F80" fill-rule="evenodd" d="M11.578 2.65a.499.499 0 0 1 .854 0l.9 1.863a1.19 1.19 0 0 1-.181 1.463l-.795.788a.499.499 0 0 1-.702 0l-.795-.788a1.19 1.19 0 0 1-.182-1.463l.9-1.863ZM4.03 6.528a.499.499 0 0 1 .604-.604l1.954.68c.535.132.91.611.907 1.164L7.49 8.887a.498.498 0 0 1-.497.496l-1.119.005a1.19 1.19 0 0 1-1.163-.906l-.68-1.954Zm15.33-.583a.499.499 0 0 1 .604.604l-.68 1.954a1.19 1.19 0 0 1-1.163.906L17 9.404a.498.498 0 0 1-.496-.496l-.005-1.12a1.19 1.19 0 0 1 .906-1.163l1.954-.68Zm1.23 9.866a.499.499 0 0 1-.605.604l-1.954-.68a1.19 1.19 0 0 1-.906-1.164l.005-1.119a.498.498 0 0 1 .497-.496l1.119-.005a1.19 1.19 0 0 1 1.163.906l.68 1.954Zm-16.47.604a.499.499 0 0 1-.605-.604l.68-1.954a1.19 1.19 0 0 1 1.164-.906l1.119.005a.498.498 0 0 1 .496.496l.005 1.12a1.19 1.19 0 0 1-.906 1.163l-1.954.68ZM15.793 10.5a.5.5 0 0 1 .106.715l-1.65 2.12a4.5 4.5 0 0 0-.918 3.283l.673 5.79h-4l.673-5.79a4.5 4.5 0 0 0-.918-3.282l-1.65-2.121a.5.5 0 0 1 .106-.715c.223-.158.536-.089.704.127l1.572 2.021c.206.265.63.147.669-.187l.509-4.382a.375.375 0 0 1 .67 0l.51 4.382a.375.375 0 0 0 .668.187l1.572-2.021c.168-.216.481-.285.704-.127Zm-12.162.857.77.43a.98.98 0 0 0 1.077-.089l.443-.371a.213.213 0 0 0 0-.338l-.443-.371a.98.98 0 0 0-1.077-.09l-.77.431c-.17.095-.17.303 0 .398Zm15.976.43.77-.43c.17-.095.17-.303 0-.398l-.77-.43a.98.98 0 0 0-1.077.089l-.442.371a.213.213 0 0 0 0 .338l.442.371a.98.98 0 0 0 1.077.09Zm-3.027 6.494-.012-.882a.98.98 0 0 0-.616-.888l-.542-.198a.213.213 0 0 0-.293.169l-.1.569a.98.98 0 0 0 .46.978l.76.451c.166.1.346-.005.343-.199Zm-9.14-.882-.012.882c-.003.194.178.298.344.2l.758-.452a.98.98 0 0 0 .462-.978l-.1-.57a.213.213 0 0 0-.293-.168l-.543.198a.98.98 0 0 0-.616.888ZM7.429 3.926l.012.882a.98.98 0 0 0 .616.888l.543.198a.213.213 0 0 0 .292-.17l.1-.568a.98.98 0 0 0-.46-.978l-.759-.451c-.166-.1-.347.005-.344.199Zm9.14.882.012-.882c.003-.194-.177-.298-.344-.2l-.758.452a.98.98 0 0 0-.461.978l.1.569a.213.213 0 0 0 .293.169l.542-.198a.98.98 0 0 0 .616-.888Z" clip-rule="evenodd"/>
</svg>
