<svg xmlns="http://www.w3.org/2000/svg" width="24" height="25" fill="none" viewBox="0 0 24 25">
  <path fill="#6C6F80" fill-rule="evenodd" d="M4.051 10.85h-.727v11.362h17.453V10.85h-.728v10.635H4.051V10.85Z" clip-rule="evenodd"/>
  <path fill="#6C6F80" fill-rule="evenodd" d="M4.251 10.65v10.635H19.85V10.65h1.128v11.762H3.123V10.65H4.25Zm15.798.2h.727v11.362H3.324V10.85h.727v10.635H20.05V10.85Zm-6.817-5.893h-2.363v.727h2.363v-.727Zm5.636.727h1.181v2.909H4.051V5.684h1.182v-.727H3.324V9.32h17.453V4.957h-1.91v.727Z" clip-rule="evenodd"/>
  <path fill="#6C6F80" fill-rule="evenodd" d="M13.432 4.757v1.127h-2.763V4.757h2.763Zm5.236 1.127V4.757h2.309V9.52H3.123V4.757h2.309v1.127H4.251v2.509H19.85V5.884h-1.181Zm-13.435-.2H4.051v2.909H20.05V5.684h-1.181v-.727h1.909V9.32H3.323V4.957h1.909v.727Zm5.636-.727h2.363v.727h-2.363v-.727Z" clip-rule="evenodd"/>
  <path fill="#6C6F80" d="M9.142 3.866a1.09 1.09 0 0 0-2.182 0v2.181a1.09 1.09 0 1 0 2.182 0V3.866Z"/>
  <path fill="#6C6F80" fill-rule="evenodd" d="M8.05 3.15a.716.716 0 0 0-.715.716v2.181a.716.716 0 1 0 1.432 0V3.866a.716.716 0 0 0-.716-.716Zm-1.465.716a1.466 1.466 0 0 1 2.932 0v2.181a1.466 1.466 0 1 1-2.932 0V3.866Z" clip-rule="evenodd"/>
  <path fill="#6C6F80" d="M17.14 3.866a1.09 1.09 0 0 0-2.181 0v2.181a1.09 1.09 0 0 0 2.182 0V3.866Z"/>
  <path fill="#6C6F80" fill-rule="evenodd" d="M16.05 3.15a.716.716 0 0 0-.716.716v2.181a.716.716 0 0 0 1.432 0V3.866a.716.716 0 0 0-.716-.716Zm-1.466.716a1.466 1.466 0 0 1 2.932 0v2.181a1.466 1.466 0 0 1-2.932 0V3.866Zm.375 7.294 1.796 1.796-5.795 5.795-3.614-3.614 1.796-1.796 1.818 1.818 3.999-4Z" clip-rule="evenodd"/>
  <path fill="#6C6F80" d="m14.959 10.63 2.326 2.326-6.325 6.326-4.145-4.145 2.327-2.326 1.818 1.818 3.999-4Z"/>
</svg>
