<svg xmlns="http://www.w3.org/2000/svg" width="24" height="25" fill="none" viewBox="0 0 24 25">
  <path fill="#6C6F80" fill-rule="evenodd" d="M8.913 21.996A10.038 10.038 0 0 1 2 12.446C2 6.903 6.477 2.41 12 2.41s10 4.494 10 10.037c0 4.463-2.9 8.245-6.913 9.55a.884.884 0 0 0-.881-.84h-1.324v-2.658a.886.886 0 0 0-.588-.835v-6.102h4.409l-1.553 4.133h-.062a2.203 2.203 0 0 0 3.732.001l.007-.001-1.694-4.133h1.338c.325 0 .41-.453.106-.57l-6.283-2.437V7.377A.886.886 0 0 0 12 5.657a.886.886 0 0 0-.294 1.72v1.177L5.423 10.99c-.303.118-.22.57.106.57h1.406l-1.553 4.134H5.32a2.203 2.203 0 0 0 3.732.001l.007-.001-1.693-4.133h4.34v6.102a.886.886 0 0 0-.588.835v2.657H9.794a.884.884 0 0 0-.881.841Zm2.793-12.81v1.784h-4.6l4.6-1.783Zm.588 1.784V9.187l4.6 1.783h-4.6ZM12 6.985a.442.442 0 1 1 .002-.884.442.442 0 0 1-.002.884Zm-6.313 8.709 1.466-3.88 1.6 3.88H5.687Zm9.767 0 1.467-3.88 1.6 3.88h-3.067Z" clip-rule="evenodd"/>
</svg>
