<svg xmlns="http://www.w3.org/2000/svg" width="24" height="25" fill="none" viewBox="0 0 24 25">
  <path fill="#6C6F80" fill-rule="evenodd" d="m7.512 17.784 2.526-7.475a2.556 2.556 0 0 1 2.45-1.75l-.913 2.725a.097.097 0 0 0 .025.1c.025.025.05.038.088.038h1.337c.063 0 .125-.05.15-.113l3.175-9.4-2.463 3.763a7.042 7.042 0 0 0-1.937-.263c-3.863.025-7 3.213-6.95 7.088a6.984 6.984 0 0 0 2.512 5.287Zm4.375 1.625c3.863.05 7.063-3.062 7.113-6.925a6.998 6.998 0 0 0-2.512-5.45l-2.525 7.475a2.61 2.61 0 0 1-2.463 1.763l1.063-3.138c.012-.037.012-.062-.013-.1-.025-.025-.05-.05-.088-.05h-1.337c-.075 0-.125.05-.15.113L7.65 22.909l2.45-3.762c.563.162 1.162.25 1.787.262Z" clip-rule="evenodd"/>
</svg>
