<svg xmlns="http://www.w3.org/2000/svg" width="24" height="25" fill="none" viewBox="0 0 24 25">
  <path fill="#6C6F80" fill-rule="evenodd" d="m6.184 5.137 2.355 2.378v-.006l3.647 3.712.46-.472a1.914 1.914 0 0 0 .288-2.369L8.056 3.371a1.256 1.256 0 0 0-1.906-.05L4.545 4.935a1.29 1.29 0 0 1 1.639.203Zm3.832 9.078a1.302 1.302 0 0 0-.118.119 1.305 1.305 0 0 0-.31.851c-.013.704.559 1.286 1.278 1.3a1.267 1.267 0 0 0 1.049-.563l3.21-3.27a1.315 1.315 0 0 0 .049-1.941l.01-.013-1.593-1.623a1.352 1.352 0 0 1-.2 1.673l-3.375 3.467Zm9.371-9.353-1.879 1.685a7.684 7.684 0 0 1 1.986 5.235 7.761 7.761 0 0 1-.313 2.126l.024.025-.024-.025c-.888 3.203-3.85 5.432-7.24 5.448-4.223-.117-7.551-3.56-7.438-7.693a7.672 7.672 0 0 1 2.15-5.285l-.495-.5a1.813 1.813 0 0 0-1.992-.482A10.25 10.25 0 0 0 2 11.643c-.044 5.624 4.398 10.22 9.92 10.266 5.522.046 10.034-4.483 10.08-10.107a10.25 10.25 0 0 0-2.613-6.94Z" clip-rule="evenodd"/>
</svg>
