<svg xmlns="http://www.w3.org/2000/svg" width="24" height="25" fill="none" viewBox="0 0 24 25">
  <path fill="#6C6F80" fill-rule="evenodd" d="M18.75 12.41c1.788 0 3.25 1.512 3.25 3.374v.75c0 1.863-1.45 3.375-3.25 3.375h-5.875c-1.787 0-3.375-1.512-3.375-3.375v-.375c0-.412.338-.75.75-.75s.75.338.75.75v.375c0 1.038.912 1.875 1.875 1.875h5.875c.962 0 1.75-.837 1.75-1.875v-.75c0-1.037-.788-1.875-1.75-1.875h-3.488a.752.752 0 0 1-.75-.75c0-.412.338-.75.75-.75h3.488Zm-10.512 6c.412 0 .75.337.75.75 0 .412-.338.75-.75.75H5.25C3.462 19.91 2 18.396 2 16.533v-.75c0-1.862 1.45-3.375 3.25-3.375h5.875c1.787 0 3.375 1.513 3.375 3.375v.375c0 .413-.338.75-.75.75a.752.752 0 0 1-.75-.75v-.375c0-1.037-.912-1.875-1.875-1.875H5.25c-.963 0-1.75.838-1.75 1.875v.75c0 1.038.787 1.875 1.75 1.875h2.988Zm8.012-12.5c-.963 0-1.75.787-1.75 1.75 0 .962.787 1.75 1.75 1.75.962 0 1.75-.788 1.75-1.75 0-.963-.788-1.75-1.75-1.75Zm0 5A3.26 3.26 0 0 1 13 7.66a3.26 3.26 0 0 1 3.25-3.25 3.26 3.26 0 0 1 3.25 3.25 3.26 3.26 0 0 1-3.25 3.25Zm-8.5-5C6.787 5.91 6 6.696 6 7.66c0 .962.787 1.75 1.75 1.75S9.5 8.621 9.5 7.66c0-.963-.787-1.75-1.75-1.75Zm0 5A3.26 3.26 0 0 1 4.5 7.66a3.26 3.26 0 0 1 3.25-3.25A3.26 3.26 0 0 1 11 7.66a3.26 3.26 0 0 1-3.25 3.25Z" clip-rule="evenodd"/>
</svg>
