<svg xmlns="http://www.w3.org/2000/svg" width="24" height="25" fill="none" viewBox="0 0 24 25">
  <path fill="#6C6F80" fill-rule="evenodd" d="M11.71 12.86a.517.517 0 0 0 .586-.849.517.517 0 0 0-.805.428.51.51 0 0 0 .22.42Zm-.403-1.988-.003-8.463 1.37.815 6.102 3.504c.279-.193.618-.307.984-.307a1.72 1.72 0 0 1 1.725 1.716c0 .68-.398 1.268-.975 1.546v7.799l-7.78 4.469-.714.41v.048l-.706-.406-7.787-4.473-.02-7.652a1.715 1.715 0 0 1-.988-1.552A1.72 1.72 0 0 1 4.239 6.61a1.72 1.72 0 0 1 1.725 1.716c0 .704-.426 1.309-1.036 1.573l.02 6.813 6.361 3.653-.001-6.358a1.716 1.716 0 0 1-1.023-1.568c0-.698.42-1.3 1.022-1.567Zm1.423 3.127v6.314l6.354-3.65V9.716a1.716 1.716 0 0 1-1.038-1.769L12.73 4.893v5.987a1.716 1.716 0 0 1 1.004 1.559c0 .692-.411 1.288-1.004 1.56Zm6.513-5.862a.516.516 0 0 0 .517.515.516.516 0 1 0 0-1.03.516.516 0 0 0-.517.515ZM3.72 8.326c0 .284.232.514.518.514.286 0 .517-.23.517-.514a.516.516 0 0 0-.517-.515.516.516 0 0 0-.518.515Z" clip-rule="evenodd"/>
</svg>
