<svg xmlns="http://www.w3.org/2000/svg" width="24" height="25" fill="none" viewBox="0 0 24 25">
  <path fill="#6C6F80" fill-rule="evenodd" d="m8.198 12.544-.394.394a5.556 5.556 0 1 0 7.836-7.836l-.394.394a5 5 0 1 1-7.047 7.047Zm4.08-6.58A.278.278 0 0 0 12 5.688a3.615 3.615 0 0 0-3.611 3.611.278.278 0 1 0 .555 0A3.059 3.059 0 0 1 12 6.242a.278.278 0 0 0 .278-.277Zm4.15-1.65a6.666 6.666 0 0 1-3.872 11.625v.581h2.222a.555.555 0 1 1 0 1.111H9.222a.556.556 0 0 1 0-1.11h2.222v-.582a6.648 6.648 0 0 1-4.918-2.834L7.73 11.9a5 5 0 0 1 6.873-6.873l.402-.402.802-.802a6.6 6.6 0 0 1 .62.49ZM3.11 8.465c0-.46.373-.833.833-.833h2.5v1.111H4.222v9.445h-1.11V8.465Zm11.1 10.292 7.333.009a.416.416 0 0 1 .457.372l-.02.855c0 .23-.186.417-.416.417H2.416A.416.416 0 0 1 2 19.992v-.833c0-.23.186-.417.416-.417l7.354.009v.13c0 .23.186.417.416.417h3.608c.23 0 .416-.187.416-.417v-.125Zm5.846-11.125h-.834v1.111h.556v9.445h1.11V8.465a.833.833 0 0 0-.832-.834Z" clip-rule="evenodd"/>
</svg>
