<svg xmlns="http://www.w3.org/2000/svg" width="24" height="25" fill="none" viewBox="0 0 24 25">
  <path fill="#6C6F80" d="M3.25 17.062c0-.473.392-.857.875-.857h7c.483 0 .875.384.875.857v.49a.866.866 0 0 1-.875.857h-7a.866.866 0 0 1-.875-.857v-.49Zm10 0c0-.473.392-.857.875-.857h4.5c.483 0 .875.384.875.857v.49a.866.866 0 0 1-.875.857h-4.5a.866.866 0 0 1-.875-.857v-.49Zm-7.5-4.898c0-.473.392-.857.875-.857h14.5c.483 0 .875.384.875.857v.49a.866.866 0 0 1-.875.857h-14.5a.866.866 0 0 1-.875-.857v-.49ZM2 7.266c0-.473.392-.857.875-.857h3.25c.483 0 .875.384.875.857v.49a.866.866 0 0 1-.875.857h-3.25A.866.866 0 0 1 2 7.756v-.49Zm6.25 0c0-.473.392-.857.875-.857h7c.483 0 .875.384.875.857v.49a.866.866 0 0 1-.875.857h-7a.866.866 0 0 1-.875-.857v-.49Z"/>
</svg>
