<svg xmlns="http://www.w3.org/2000/svg" width="24" height="25" fill="none" viewBox="0 0 24 25">
  <path fill="#6C6F80" fill-rule="evenodd" d="M15.706 8.703H21a5.294 5.294 0 0 0-5.294-5.294v5.294ZM3.529 15.056h4.765V9.762H3.53a.53.53 0 0 0-.529.53v4.235c0 .292.237.53.53.53Zm11.118 0H9.353V9.762h5.294v5.294Zm1.059 0V9.762H21a5.294 5.294 0 0 1-5.294 5.294Zm-1.059-6.353H9.353V3.938a.53.53 0 0 1 .53-.529h4.764v5.294ZM9.882 21.41h4.236a.53.53 0 0 0 .53-.53v-4.764H9.352v4.765c0 .292.237.53.53.53Z" clip-rule="evenodd"/>
</svg>
