<svg xmlns="http://www.w3.org/2000/svg" width="24" height="25" fill="none" viewBox="0 0 24 25">
  <path fill="#6C6F80" fill-rule="evenodd" d="M14.813 11.284a1.688 1.688 0 1 1 0-3.375 1.688 1.688 0 0 1 0 3.375Zm0-6.187L7.16 12.748a5.347 5.347 0 0 1 4.5 4.5l7.652-7.651C21 7.909 21 5.3 21 3.409c-1.892 0-4.5 0-6.187 1.688Zm-8.438 7.312L9.75 9.034c-2.39 0-4.5.563-6.187 3.375h2.812ZM12 18.034l3.375-3.375c0 2.39-.562 4.5-3.375 6.188v-2.813Zm-8.273 2.648a.561.561 0 0 0 .796 0l4.5-4.5a.562.562 0 1 0-.796-.796l-4.5 4.5a.562.562 0 0 0 0 .796Zm-.164-2.648a.561.561 0 0 1-.398-.96l3.375-3.375a.562.562 0 1 1 .795.795L3.96 17.87a.561.561 0 0 1-.397.165Zm2.977 3.21a.56.56 0 0 0 .795 0l3.375-3.375a.562.562 0 1 0-.795-.795L6.54 20.449a.562.562 0 0 0 0 .795Z" clip-rule="evenodd"/>
</svg>
