<svg xmlns="http://www.w3.org/2000/svg" width="24" height="25" fill="none" viewBox="0 0 24 25">
  <path fill="#6C6F80" fill-rule="evenodd" d="M12 2.41c-5.523 0-10 4.476-10 10 0 5.522 4.477 10 10 10s10-4.478 10-10c0-5.524-4.477-10-10-10ZM9.647 18.29a.59.59 0 0 0 .588-.588V7.115a.59.59 0 0 0-.588-.588.59.59 0 0 0-.588.588v10.588a.59.59 0 0 0 .588.588Zm4.706-1.176a.59.59 0 0 0 .588-.588V8.29a.59.59 0 0 0-.588-.588.59.59 0 0 0-.588.588v8.236a.59.59 0 0 0 .588.588Zm2.941-2.353a.59.59 0 0 1-.588.588.59.59 0 0 1-.588-.588v-4.706a.59.59 0 0 1 .588-.588.59.59 0 0 1 .588.588v4.706Zm1.765-1.177a.59.59 0 0 1-.588-.588V11.82a.59.59 0 0 1 .588-.588.59.59 0 0 1 .588.588v1.176a.59.59 0 0 1-.588.588Zm-6.47 1.765a.59.59 0 0 1-.589.588.59.59 0 0 1-.588-.588V9.468A.59.59 0 0 1 12 8.88a.59.59 0 0 1 .588.588v5.882Zm-4.707-.588a.59.59 0 0 1-.588.588.59.59 0 0 1-.588-.588v-4.706a.59.59 0 0 1 .588-.588.59.59 0 0 1 .588.588v4.706Zm-2.94-1.177a.59.59 0 0 0 .587-.588V11.82a.59.59 0 0 0-.588-.588.59.59 0 0 0-.588.588v1.176a.59.59 0 0 0 .588.588Z" clip-rule="evenodd"/>
</svg>
