<svg xmlns="http://www.w3.org/2000/svg" width="24" height="25" fill="none" viewBox="0 0 24 25">
  <path fill="#6C6F80" fill-rule="evenodd" d="M17.824 9.762V6.056h1.588c0 1.588-.53 3.177-1.588 3.706Zm-3.85 2.01L12 10.528l-1.973 1.244.56-2.281-1.78-1.512 2.32-.166L12 5.635l.873 2.178 2.32.166-1.78 1.512.56 2.28Zm-7.798-2.01c-1.058-.53-1.588-2.118-1.588-3.706h1.588v3.706Zm13.236-5.294h-.53l-.198.002c-.293.005-.8.014-.86-.002V3.409H6.175v1.059H4.588C3.53 4.468 3 5.413 3 6.056c0 2.413.908 4.349 2.647 5.25.454.235.557.53.677.873.081.233.17.488.382.76.907 1.55 2.08 2.609 5.294 2.609 3.214 0 4.235-1.021 5.294-2.61.612-.918.645-.946 1.765-1.925l.11-.095c.77-.673 1.447-1.436 1.619-2.445.183-1.071.188-1.294.21-2.35L21 6.056c0-.643-.53-1.588-1.588-1.588ZM14.647 19.29H9.353c-1.059 0-2.118 1.06-2.118 2.118h9.53c0-1.059-1.059-2.118-2.118-2.118Zm-.53-1.852a.796.796 0 0 1-.794.794h-2.647a.796.796 0 0 1-.794-.794c0-.437.358-.795.794-.795h2.647c.437 0 .795.358.795.795Z" clip-rule="evenodd"/>
</svg>
