<svg xmlns="http://www.w3.org/2000/svg" width="24" height="25" fill="none" viewBox="0 0 24 25">
  <path fill="#6C6F80" fill-rule="evenodd" d="M16.706 3.516v5.441l-6.117-6.426c2.063-.333 4.205.022 6.117.985Zm-5.883 3.023H3.915C5.114 4.849 7.095 3.6 9.059 2.91l3.53 3.628h-1.766ZM3.176 7.703h5.883l-6.872 6.813a10.54 10.54 0 0 1 .989-6.813Zm14.706 5.09 3.58-3.68a10.282 10.282 0 0 0-3.58-4.985v8.665Zm-2.497 9.177-3.58-3.679h8.427a10.047 10.047 0 0 1-4.847 3.678Zm2.497-7.627-.343.354-2.354 2.418h5.64A10.457 10.457 0 0 0 22 12.278a10.6 10.6 0 0 0-.186-1.975l-3.932 4.04ZM2.588 15.607l3.53-3.627v8.464c-1.717-1.237-2.839-2.759-3.53-4.837Zm7.258 2.57L9.5 17.82l-2.206-2.266v5.723a9.737 9.737 0 0 0 6.485.939l-3.933-4.04Z" clip-rule="evenodd"/>
</svg>
