<svg xmlns="http://www.w3.org/2000/svg" width="24" height="25" fill="none" viewBox="0 0 24 25">
  <path fill="#6C6F80" fill-rule="evenodd" d="M8.357 12.644a3.656 3.656 0 0 1 2.793-3.785v1.63a2.1 2.1 0 1 0 1.7 0v-6.08a.6.6 0 0 0-.6-.6h-.121c-4.717 0-8.656 3.746-8.728 8.466C3.328 17.078 7.213 21.01 12 21.01c4.46 0 8.138-3.413 8.56-7.764a.852.852 0 0 0-.847-.936.852.852 0 0 0-.846.773c-.356 3.67-3.6 6.508-7.426 6.205-3.288-.26-5.963-2.864-6.303-6.145-.398-3.838 2.373-7.132 6.012-7.58v1.565a5.357 5.357 0 0 0-4.485 5.693 5.365 5.365 0 0 0 4.924 4.924 5.358 5.358 0 0 0 5.69-4.46.847.847 0 0 0-.842-.975.85.85 0 0 0-.838.708 3.656 3.656 0 0 1-3.834 3.035 3.67 3.67 0 0 1-3.408-3.408Z" clip-rule="evenodd"/>
  <path fill="#6C6F80" fill-rule="evenodd" d="M18 9.01a2.1 2.1 0 1 0 0-4.2 2.1 2.1 0 0 0 0 4.2Z" clip-rule="evenodd"/>
</svg>
