<svg xmlns="http://www.w3.org/2000/svg" width="24" height="25" fill="none" viewBox="0 0 24 25">
  <path fill="#6C6F80" fill-rule="evenodd" d="M12 7.269c-1.66 0-3.14.686-4.23 1.763-.16.16-.297.343-.433.503L5.745 8.62a7.735 7.735 0 0 1 5.346-3.091V3.742h1.796v1.786a7.796 7.796 0 0 1 4.618 2.221c.25.275.5.573.728.87l-1.57.916a4.564 4.564 0 0 0-.432-.503C15.139 7.955 13.638 7.269 12 7.269ZM5.745 17.962l-1.524.892-.888-1.557 1.524-.893a7.936 7.936 0 0 1 0-6.227l1.57.915c-.25.687-.41 1.42-.41 2.198 0 1.672.683 3.16 1.752 4.26a6.03 6.03 0 0 0 3.321 1.694v1.831a7.762 7.762 0 0 1-4.595-2.244 8.917 8.917 0 0 1-.75-.87Zm13.398-1.558 1.524.893-.91 1.557-1.524-.892c-.228.297-.478.595-.728.87-1.229 1.213-2.82 2.037-4.618 2.243v-1.831a6.02 6.02 0 0 0 3.344-1.695c1.07-1.099 1.752-2.587 1.752-4.258 0-.779-.16-1.512-.41-2.199l1.57-.915a7.935 7.935 0 0 1 0 6.227Zm-9.418-5.38a3.171 3.171 0 0 1 2.275-.94c.819 0 1.638.299 2.252.94.637.618.933 1.442.933 2.267 0 .824-.296 1.648-.933 2.29a3.177 3.177 0 0 1-2.252.938c-.819 0-1.638-.32-2.275-.939a3.313 3.313 0 0 1-.932-2.29c0-.824.318-1.648.932-2.266Z" clip-rule="evenodd"/>
</svg>
