<svg xmlns="http://www.w3.org/2000/svg" width="24" height="25" fill="none" viewBox="0 0 24 25">
  <path fill="#6C6F80" fill-rule="evenodd" d="M20.333 12.686s0 .556-.555.556H18.11v-4.32c0-1.072-.594-1.667-1.667-1.667H7.556V5.464s0-.556.555-.556h11.667c.555 0 .555.556.555.556v7.222Zm-2.222 4.153v-1.93h2.222c.556 0 1.667-.595 1.667-1.667V4.908c0-1.072-1.111-1.666-1.667-1.666H7.556c-.556 0-1.667.594-1.667 1.666v2.347H3.667C2.594 7.255 2 7.85 2 8.922v7.917c0 1.072.872 1.944 1.944 1.944h.278v1.415c0 .552.313 1.036.815 1.264a1.377 1.377 0 0 0 1.488-.22l2.207-2.459h7.435a1.947 1.947 0 0 0 1.944-1.944Zm-1.667 0v-1.93H7.556c-.556 0-1.667-.595-1.667-1.667v-4.32H4.222c-.153 0-.555 0-.555.556v7.36c0 .154.124.278.277.278H5.89v2.414l2.157-2.414h8.12a.278.278 0 0 0 .278-.277Zm-8.333-3.597h8.333V9.478c0-.556-.402-.556-.555-.556H7.556v3.764s0 .556.555.556Zm1.667-1.667a.555.555 0 1 0 0-1.111.555.555 0 0 0 0 1.111Zm2.778-.555a.556.556 0 1 1-1.112 0 .556.556 0 0 1 1.112 0Zm1.666.555a.556.556 0 1 0 0-1.111.556.556 0 0 0 0 1.111Z" clip-rule="evenodd"/>
</svg>
