<svg xmlns="http://www.w3.org/2000/svg" width="24" height="25" fill="none" viewBox="0 0 24 25">
  <path fill="#6C6F80" d="M16.436 6.331a7.467 7.467 0 0 0-3.795-1.418V2.41a9.952 9.952 0 0 1 5.571 2.143L16.436 6.33Zm-.665 2.306-3.13 5.634-.196-.196a1.548 1.548 0 0 1-.743.196c-.864 0-1.565-.7-1.565-1.565.002-.26.07-.515.196-.743l-.196-.196 5.634-3.13ZM4.504 12.393a7.508 7.508 0 0 0 14.91 1.252h2.53a10.011 10.011 0 0 1-19.935-.83 10.012 10.012 0 0 1 8.754-10.351v2.53a7.508 7.508 0 0 0-6.26 7.4Zm13.303-4.775 1.77-1.77A9.96 9.96 0 0 1 22 11.768h-2.504a7.467 7.467 0 0 0-1.69-4.15Z"/>
</svg>
