<svg xmlns="http://www.w3.org/2000/svg" width="24" height="25" fill="none" viewBox="0 0 24 25">
  <path fill="#6C6F80" fill-rule="evenodd" d="M1.801 8.372a.92.92 0 0 0 .603.817L5.9 10.463v3.446c0 1.074.713 1.998 1.81 2.643 1.099.648 2.613 1.035 4.298 1.035 1.686 0 3.2-.387 4.3-1.035 1.098-.645 1.812-1.57 1.812-2.643v-3.454l.132-.048a.52.52 0 0 0 .311-.668c-.187-.412-.666-.312-.666-.312l-4.488 1.636c-.94.342-1.957.316-2.891-.025l-7.48-2.727 8.166-3.87a1.837 1.837 0 0 1 1.588 0l8.168 3.87-.284.104a.52.52 0 0 0 .356.98l.564-.206a.915.915 0 0 0 .078-1.69L13.24 3.5a2.889 2.889 0 0 0-2.48 0l-8.434 4a.915.915 0 0 0-.525.871v.002Zm5.141 5.537v-3.067l3.29 1.198a5.181 5.181 0 0 0 3.533.003l3.312-1.207v3.073c0 .657-.522 1.314-1.459 1.818-.926.499-2.21.817-3.609.817s-2.682-.318-3.608-.817c-.938-.504-1.459-1.16-1.459-1.818Zm11.3 7.54c.05 0 .099-.01.15-.035l2.491-1.309a.32.32 0 0 0 .164-.353l-.483-2.165.483 2.165a.32.32 0 0 1-.164.354l-2.49 1.308a.325.325 0 0 1-.152.035Zm.777-3.673-.377 2.78.377-2.78Zm-.773-.547-.52 3.83a.518.518 0 0 0 .515.59c.08 0 .16-.016.24-.056l2.495-1.31a.52.52 0 0 0 .266-.575l-.557-2.499v-.578c0-.47-.263-.877-.65-1.082V8.84a.52.52 0 0 0-.433-.512l-8.03-1.418a.521.521 0 0 0-.183 1.027l7.6 1.34v6.23a1.224 1.224 0 0 0-.743 1.125v.598Zm1.595-.49h-.757v-.108a.38.38 0 1 1 .757 0v.108Zm-.948 3.46.328-2.42h.527l.39 1.764-1.245.655Z" clip-rule="evenodd"/>
</svg>
