<svg xmlns="http://www.w3.org/2000/svg" width="24" height="25" fill="none" viewBox="0 0 24 25">
  <path fill="#6C6F80" fill-rule="evenodd" d="M19.824 6.98a.675.675 0 0 0-1.239-.146l-.801 1.435 1.178.66.802-1.436a.673.673 0 0 0 .06-.514ZM18.46 9.826l-1.178-.66-3.444 6.17 1.179.66 3.443-6.17Zm-4.148 6.922-.746-.417-.132 1.113.878-.696Zm6.625-6.143-2.462 4.408a.497.497 0 1 1-.868-.486l2.218-3.974-.48-.269-3.705 6.637-.002.002a.492.492 0 0 1-.071.095l-.016.015a.452.452 0 0 1-.056.048l-2.388 1.894a.498.498 0 0 1-.736-.138.278.278 0 0 1-.026-.032c-.054-.085-.099-.175-.147-.264a7.33 7.33 0 0 0-.203-.363 3.104 3.104 0 0 0-.138-.21c-.001-.003-.003-.004-.005-.006-.02-.024-.04-.049-.062-.073a3.384 3.384 0 0 0-.078.148c-.058.114-.112.23-.175.34-.148.263-.354.517-.66.593-.377.093-.674-.144-.847-.457-.06-.109-.11-.224-.163-.336-.005-.009-.01-.017-.013-.025-.102.182-.182.376-.303.546-.2.282-.51.513-.875.42-.226-.057-.395-.236-.493-.44-.2-.418-.255-.89-.345-1.34a5.385 5.385 0 0 0-.165-.67 1.176 1.176 0 0 0-.027-.077l-.032-.067a.245.245 0 0 1-.01.01c-.026.026-.048.054-.072.082l-.005.007-.042.06a3.136 3.136 0 0 0-.242.45 5.731 5.731 0 0 0-.048.108c-.02.05-.042.102-.061.153a9.62 9.62 0 0 0-.23.678c-.076.248-.146.5-.202.753-.055.245-.324.365-.551.313-.244-.056-.364-.323-.313-.552l.014-.059c.085-.36.188-.716.307-1.065.175-.512.38-1.03.719-1.456.324-.406.921-.613 1.327-.19.33.343.418.883.507 1.332.046.238.088.477.143.713l.045.18c.054-.1.104-.203.158-.304.142-.265.343-.54.653-.612.389-.09.691.154.868.48.062.112.112.231.168.347.121-.207.206-.434.342-.633.203-.296.528-.507.897-.365.188.073.338.187.465.327l.212-1.783a.455.455 0 0 1 .013-.076c0-.007.002-.013.003-.02a.521.521 0 0 1 .044-.112l.001-.002 3.948-7.072 1.045-1.87a1.67 1.67 0 1 1 2.915 1.633l-.801 1.435.914.512a.499.499 0 0 1 .192.678ZM6.06 13.598a.498.498 0 0 0 0 .997h4.99a.498.498 0 0 0 0-.997H6.06Zm7.378-2.879a.498.498 0 0 0-.498-.498H6.06a.498.498 0 0 0 0 .997h6.88a.498.498 0 0 0 .498-.499Zm1.094-3.377a.498.498 0 0 0-.497-.498H6.06a.498.498 0 0 0 0 .997h7.975a.498.498 0 0 0 .497-.499Zm2.562 12.03v.188a1.848 1.848 0 0 1-1.845 1.848H4.845A1.849 1.849 0 0 1 3 19.561V5.258c0-1.02.828-1.849 1.845-1.849H15.25c1.018 0 1.845.83 1.845 1.849a.498.498 0 1 1-.995 0 .852.852 0 0 0-.85-.852H4.845a.852.852 0 0 0-.85.852V19.56c0 .47.382.851.85.851H15.25c.469 0 .85-.382.85-.851v-.189a.498.498 0 1 1 .995 0Z" clip-rule="evenodd"/>
</svg>
