<svg xmlns="http://www.w3.org/2000/svg" width="18" height="18" fill="none" viewBox="0 0 18 18">
  <path fill="#6C6F80" d="M3.75 15.75c-.413 0-.766-.147-1.06-.44a1.446 1.446 0 0 1-.44-1.06v-3h1.5v3h3v1.5h-3Zm7.5 0v-1.5h3v-3h1.5v3c0 .412-.147.766-.44 1.06a1.45 1.45 0 0 1-1.06.44h-3ZM9 11.25a2.17 2.17 0 0 1-1.594-.656A2.17 2.17 0 0 1 6.75 9c0-.625.219-1.156.656-1.594A2.17 2.17 0 0 1 9 6.75a2.17 2.17 0 0 1 1.594.656c.437.438.656.969.656 1.594a2.17 2.17 0 0 1-.656 1.594A2.17 2.17 0 0 1 9 11.25Zm-6.75-4.5v-3c0-.413.147-.766.44-1.06.294-.293.647-.44 1.06-.44h3v1.5h-3v3h-1.5Zm12 0v-3h-3v-1.5h3c.412 0 .766.147 1.06.44.293.294.44.647.44 1.06v3h-1.5Z"/>
</svg>
