<svg width="18" height="18" viewBox="0 0 18 18" fill="none" xmlns="http://www.w3.org/2000/svg">
<g id="18/action-currency_off">
<path id="icon" fill-rule="evenodd" clip-rule="evenodd" d="M2.25 3.2025L3.21 2.25L15.75 14.79L14.7975 15.75L12.045 12.9975C11.58 13.5 10.905 13.9125 10.125 14.115V15.75H7.875V14.115C6.3525 13.7325 5.25 12.5925 5.25 11.25H6.75C6.75 12.06 7.7775 12.75 9 12.75C9.8475 12.75 10.605 12.42 10.9875 11.94L8.76 9.7125C7.185 9.315 5.25 8.8125 5.25 6.75C5.25 6.5775 5.25 6.4125 5.3025 6.255L2.25 3.2025ZM7.875 3.885V2.25H10.125V3.885C11.6475 4.2675 12.75 5.4075 12.75 6.75H11.25C11.25 5.94 10.2225 5.25 9 5.25C8.7225 5.25 8.46 5.2875 8.2125 5.3475L7.05 4.185L7.875 3.885Z" fill="#6C6F80"/>
</g>
</svg>
