<svg width="18" height="18" viewBox="0 0 18 18" fill="none" xmlns="http://www.w3.org/2000/svg">
<g id="18/action-search">
<path id="icon" fill-rule="evenodd" clip-rule="evenodd" d="M12.9899 11.9292L16.0607 15L15 16.0607L11.9292 12.9899C10.9132 13.7797 9.63653 14.25 8.25 14.25C4.93629 14.25 2.25 11.5637 2.25 8.25C2.25 4.93629 4.93629 2.25 8.25 2.25C11.5637 2.25 14.25 4.93629 14.25 8.25C14.25 9.63653 13.7797 10.9132 12.9899 11.9292ZM8.25 12.75C10.7353 12.75 12.75 10.7353 12.75 8.25C12.75 5.76472 10.7353 3.75 8.25 3.75C5.76472 3.75 3.75 5.76472 3.75 8.25C3.75 10.7353 5.76472 12.75 8.25 12.75Z" fill="#6C6F80"/>
</g>
</svg>
