<svg width="18" height="18" viewBox="0 0 18 18" fill="none" xmlns="http://www.w3.org/2000/svg">
<g id="18/action-currency">
<path id="icon" fill-rule="evenodd" clip-rule="evenodd" d="M5.25 11.25H6.75C6.75 12.06 7.7775 12.75 9 12.75C10.2225 12.75 11.25 12.06 11.25 11.25C11.25 10.425 10.47 10.125 8.82 9.7275C7.23 9.33 5.25 8.835 5.25 6.75C5.25 5.4075 6.3525 4.2675 7.875 3.885V2.25H10.125V3.885C11.6475 4.2675 12.75 5.4075 12.75 6.75H11.25C11.25 5.94 10.2225 5.25 9 5.25C7.7775 5.25 6.75 5.94 6.75 6.75C6.75 7.575 7.53 7.875 9.18 8.2725C10.77 8.67 12.75 9.165 12.75 11.25C12.75 12.5925 11.6475 13.7325 10.125 14.115V15.75H7.875V14.115C6.3525 13.7325 5.25 12.5925 5.25 11.25Z" fill="#6C6F80"/>
</g>
</svg>
