<?xml version="1.0" encoding="UTF-8"?>
<svg width="18px" height="18px" viewBox="0 0 18 18" version="1.1" xmlns="http://www.w3.org/2000/svg" xmlns:xlink="http://www.w3.org/1999/xlink">
    <title>Icons/18/action-lock-fill</title>
    <g id="Icons/18/action-lock-fill" stroke="none" stroke-width="1" fill="none" fill-rule="evenodd">
        <path d="M5,7 L5,5 C5,2.790861 6.790861,1 9,1 C11.209139,1 13,2.790861 13,5 L13,7 C14.1045695,7 15,7.8954305 15,9 L15,15 C15,16.1045695 14.1045695,17 13,17 L5,17 C3.8954305,17 3,16.1045695 3,15 L3,9 C3,7.8954305 3.8954305,7 5,7 Z M7,7 L11,7 L11,5 C11,3.8954305 10.1045695,3 9,3 C7.8954305,3 7,3.8954305 7,5 L7,7 Z M9,14 C10.1045695,14 11,13.1045695 11,12 C11,10.8954305 10.1045695,10 9,10 C7.8954305,10 7,10.8954305 7,12 C7,13.1045695 7.8954305,14 9,14 Z" id="icon" fill="#45FF00"></path>
    </g>
</svg>