<?xml version="1.0" encoding="UTF-8"?>
<svg width="18px" height="18px" viewBox="0 0 18 18" version="1.1" xmlns="http://www.w3.org/2000/svg" xmlns:xlink="http://www.w3.org/1999/xlink">
    <title>Icons/18/action-drag_corner</title>
    <g id="Icons/18/action-drag_corner" stroke="none" stroke-width="1" fill="none" fill-rule="evenodd">
        <path d="M16,16 L13,16 L13,13 L16,13 L16,16 L16,16 Z M16,10.5 L13,10.5 L13,7.5 L16,7.5 L16,10.5 L16,10.5 Z M10.5,16 L7.5,16 L7.5,13 L10.5,13 L10.5,16 L10.5,16 Z M10.5,10.5 L7.5,10.5 L7.5,7.5 L10.5,7.5 L10.5,10.5 L10.5,10.5 Z M5,16 L2,16 L2,13 L5,13 L5,16 L5,16 Z M16,5 L13,5 L13,2 L16,2 L16,5 Z" id="icon" fill="#45FF00"></path>
    </g>
</svg>