<?xml version="1.0" encoding="UTF-8"?>
<svg width="18px" height="18px" viewBox="0 0 18 18" version="1.1" xmlns="http://www.w3.org/2000/svg" xmlns:xlink="http://www.w3.org/1999/xlink">
    <title>Icons/18/action-tune</title>
    <g id="Icons/18/action-tune" stroke="none" stroke-width="1" fill="none" fill-rule="evenodd">
        <path d="M10,12 L10,13 L16,13 L16,15 L10,15 L10,16 L8,16 L8,12 L10,12 Z M6,13 L6,15 L2,15 L2,13 L6,13 Z M6,11 L4,11 L4,10 L2,10 L2,8 L4,8 L4,7 L6,7 L6,11 Z M16,8 L16,10 L8,10 L8,8 L16,8 Z M14,2 L14,3 L16,3 L16,5 L14,5 L14,6 L12,6 L12,2 L14,2 Z M10,3 L10,5 L2,5 L2,3 L10,3 Z" id="icon" fill="#45FF00"></path>
    </g>
</svg>