<svg width="18" height="18" viewBox="0 0 18 18" fill="none" xmlns="http://www.w3.org/2000/svg">
<g id="18/action-lock_open-outline">
<g id="icon">
<path d="M6 12C6 12.825 6.6675 13.5 7.5 13.5C8.32843 13.5 9 12.8284 9 12C9 11.1716 8.32843 10.5 7.5 10.5C6.6675 10.5 6 11.1675 6 12Z" fill="#6C6F80"/>
<path fill-rule="evenodd" clip-rule="evenodd" d="M17.25 5.25V6.75H15.75V5.25C15.75 4.00736 14.7426 3 13.5 3C12.2574 3 11.25 4.00736 11.25 5.25V6.75H12C12.8284 6.75 13.5 7.42157 13.5 8.25V15.75C13.5 16.5784 12.8284 17.25 12 17.25H3C2.1675 17.25 1.5 16.575 1.5 15.75V8.25C1.5 7.4175 2.1675 6.75 3 6.75H9.75V5.25C9.75 3.17893 11.4289 1.5 13.5 1.5C15.5711 1.5 17.25 3.17893 17.25 5.25ZM12 8.25V15.75H3V8.25H12Z" fill="#6C6F80"/>
</g>
</g>
</svg>
