<svg xmlns="http://www.w3.org/2000/svg" width="18" height="18" fill="none" viewBox="0 0 18 18">
  <path fill="#6C6F80" fill-rule="evenodd" d="m13.988 12.975-2.4-2.475-2.926-2.925-1.2-1.125-4.95-4.95-1.05 1.05L3.99 5.077C1.947 6.811.75 9 .75 9S4.03 15 9 15c1.398 0 2.661-.474 3.756-1.156l2.732 2.731 1.05-1.05-2.55-2.55Zm-2.326-.226c-.828.463-1.722.751-2.662.751-1.874 0-3.568-1.145-4.907-2.54A14.832 14.832 0 0 1 2.517 9a14.952 14.952 0 0 1 1.576-1.96c.303-.316.624-.619.961-.898l1.907 1.906a2.25 2.25 0 0 0 2.99 2.99l1.71 1.711Z" clip-rule="evenodd"/>
  <path fill="#6C6F80" d="M17.25 9s-.791 1.448-2.186 2.921l-1.045-1.077A14.922 14.922 0 0 0 15.483 9l-.06-.09a14.82 14.82 0 0 0-1.516-1.87C12.568 5.644 10.874 4.5 9 4.5c-.419 0-.829.057-1.228.162L6.585 3.475A6.541 6.541 0 0 1 9 3c4.97 0 8.25 6 8.25 6Z"/>
</svg>
