<svg width="18" height="18" viewBox="0 0 18 18" fill="none" xmlns="http://www.w3.org/2000/svg">
<g id="18/action-lock_open-fill">
<path id="icon" fill-rule="evenodd" clip-rule="evenodd" d="M11 7V5C11 3.89543 11.8954 3 13 3C14.1046 3 15 3.89543 15 5V7H17V5C17 2.79086 15.2091 1 13 1C10.7909 1 9 2.79086 9 5V7H3C1.89543 7 1 7.89543 1 9V15C1 16.1046 1.89543 17 3 17H11C12.1046 17 13 16.1046 13 15V9C13 7.89543 12.1046 7 11 7ZM7 14C8.10457 14 9 13.1046 9 12C9 10.8954 8.10457 10 7 10C5.89543 10 5 10.8954 5 12C5 13.1046 5.89543 14 7 14Z" fill="#6C6F80"/>
</g>
</svg>
