<?xml version="1.0" encoding="UTF-8"?>
<svg width="18px" height="18px" viewBox="0 0 18 18" version="1.1" xmlns="http://www.w3.org/2000/svg" xmlns:xlink="http://www.w3.org/1999/xlink">
    <title>Icons/18/action-search</title>
    <g id="Icons/18/action-search" stroke="none" stroke-width="1" fill="none" fill-rule="evenodd">
        <path d="M8.5,2 C12.0898509,2 15,4.91014913 15,8.5 C15,9.93371063 14.5358211,11.2590065 13.7495478,12.3338028 L16.4142136,15 L15,16.4142136 L12.3338028,13.7495478 C11.2590065,14.5358211 9.93371063,15 8.5,15 C4.91014913,15 2,12.0898509 2,8.5 C2,4.91014913 4.91014913,2 8.5,2 Z M8.5,4 C6.01471863,4 4,6.01471863 4,8.5 C4,10.9852814 6.01471863,13 8.5,13 C10.9852814,13 13,10.9852814 13,8.5 C13,6.01471863 10.9852814,4 8.5,4 Z" id="icon" fill="#45FF00"></path>
    </g>
</svg>