<svg width="18" height="18" viewBox="0 0 18 18" fill="none" xmlns="http://www.w3.org/2000/svg">
<path fill-rule="evenodd" clip-rule="evenodd" d="M9.993 2C13.864 2 17 5.136 17 9C17 12.864 13.864 16 9.993 16C8.17077 16 6.51201 15.3026 5.26779 14.1602L6.76491 12.8132C7.63675 13.5535 8.766 14 10 14C12.7625 14 15 11.7625 15 9C15 6.2375 12.7625 4 10 4C7.2375 4 5 6.2375 5 9H3C3 5.136 6.129 2 9.993 2ZM7 9L4 12L1 9H7ZM10 9.7169L12.2572 11.0713L11.7428 11.9287L9 10.2831V6H10V9.7169Z" fill="#6C6F80"/>
</svg>
