<svg width="18" height="18" viewBox="0 0 18 18" fill="none" xmlns="http://www.w3.org/2000/svg">
<g id="18/action-schedule-outline">
<path id="icon" d="M11.475 12.525L12.525 11.475L9.75 8.7V5.25H8.25V9.3L11.475 12.525ZM9 16.5C7.9625 16.5 6.9875 16.303 6.075 15.909C5.1625 15.5155 4.36875 14.9813 3.69375 14.3063C3.01875 13.6313 2.4845 12.8375 2.091 11.925C1.697 11.0125 1.5 10.0375 1.5 9C1.5 7.9625 1.697 6.9875 2.091 6.075C2.4845 5.1625 3.01875 4.36875 3.69375 3.69375C4.36875 3.01875 5.1625 2.48425 6.075 2.09025C6.9875 1.69675 7.9625 1.5 9 1.5C10.0375 1.5 11.0125 1.69675 11.925 2.09025C12.8375 2.48425 13.6313 3.01875 14.3063 3.69375C14.9813 4.36875 15.5155 5.1625 15.909 6.075C16.303 6.9875 16.5 7.9625 16.5 9C16.5 10.0375 16.303 11.0125 15.909 11.925C15.5155 12.8375 14.9813 13.6313 14.3063 14.3063C13.6313 14.9813 12.8375 15.5155 11.925 15.909C11.0125 16.303 10.0375 16.5 9 16.5ZM9 15C10.6625 15 12.0782 14.4158 13.2472 13.2472C14.4158 12.0782 15 10.6625 15 9C15 7.3375 14.4158 5.92175 13.2472 4.75275C12.0782 3.58425 10.6625 3 9 3C7.3375 3 5.922 3.58425 4.7535 4.75275C3.5845 5.92175 3 7.3375 3 9C3 10.6625 3.5845 12.0782 4.7535 13.2472C5.922 14.4158 7.3375 15 9 15Z" fill="#6C6F80"/>
</g>
</svg>
