<svg width="18" height="18" viewBox="0 0 18 18" fill="none" xmlns="http://www.w3.org/2000/svg">
<g id="18/action-eye-outline">
<g id="icon">
<path d="M9 11.25C10.2426 11.25 11.25 10.2426 11.25 9C11.25 7.75736 10.2426 6.75 9 6.75C7.75736 6.75 6.75 7.75736 6.75 9C6.75 10.2426 7.75736 11.25 9 11.25Z" fill="#6C6F80"/>
<path fill-rule="evenodd" clip-rule="evenodd" d="M17.25 9C17.25 9 13.9706 15 9 15C4.02944 15 0.75 9 0.75 9C0.75 9 4.02944 3 9 3C13.9706 3 17.25 9 17.25 9ZM15.4222 9.09011C15.4432 9.05941 15.4636 9.02936 15.4834 9C15.4636 8.97064 15.4432 8.94059 15.4222 8.90989C15.0703 8.39586 14.5563 7.71468 13.9073 7.03924C12.568 5.64524 10.8741 4.5 9 4.5C7.12585 4.5 5.43203 5.64524 4.09269 7.03924C3.44375 7.71468 2.92971 8.39586 2.57779 8.90989C2.55677 8.94059 2.53637 8.97064 2.51658 9C2.53637 9.02936 2.55677 9.05941 2.57779 9.09011C2.92971 9.60414 3.44375 10.2853 4.09269 10.9608C5.43203 12.3548 7.12585 13.5 9 13.5C10.8741 13.5 12.568 12.3548 13.9073 10.9608C14.5563 10.2853 15.0703 9.60414 15.4222 9.09011Z" fill="#6C6F80"/>
</g>
</g>
</svg>
