<svg width="18" height="18" viewBox="0 0 18 18" fill="none" xmlns="http://www.w3.org/2000/svg">
<g id="18/action-map_pin-outline">
<g id="icon">
<path fill-rule="evenodd" clip-rule="evenodd" d="M9 8.25C9.41421 8.25 9.75 7.91421 9.75 7.5C9.75 7.08579 9.41421 6.75 9 6.75C8.58579 6.75 8.25 7.08579 8.25 7.5C8.25 7.91421 8.58579 8.25 9 8.25ZM9 9.75C10.2426 9.75 11.25 8.74264 11.25 7.5C11.25 6.25736 10.2426 5.25 9 5.25C7.75736 5.25 6.75 6.25736 6.75 7.5C6.75 8.74264 7.75736 9.75 9 9.75Z" fill="#6C6F80"/>
<path d="M9 14.5125C10.525 13.1125 11.6562 11.8405 12.3937 10.6965C13.1312 9.553 13.5 8.5375 13.5 7.65C13.5 6.2875 13.0655 5.17175 12.1965 4.30275C11.328 3.43425 10.2625 3 9 3C7.7375 3 6.67175 3.43425 5.80275 4.30275C4.93425 5.17175 4.5 6.2875 4.5 7.65C4.5 8.5375 4.86875 9.553 5.60625 10.6965C6.34375 11.8405 7.475 13.1125 9 14.5125ZM9 16.5C6.9875 14.7875 5.4845 13.1967 4.491 11.7277C3.497 10.2592 3 8.9 3 7.65C3 5.775 3.60325 4.28125 4.80975 3.16875C6.01575 2.05625 7.4125 1.5 9 1.5C10.5875 1.5 11.9843 2.05625 13.1903 3.16875C14.3967 4.28125 15 5.775 15 7.65C15 8.9 14.5033 10.2592 13.5098 11.7277C12.5157 13.1967 11.0125 14.7875 9 16.5Z" fill="#6C6F80"/>
</g>
</g>
</svg>
