<svg width="18" height="18" viewBox="0 0 18 18" fill="none" xmlns="http://www.w3.org/2000/svg">
<g id="18/action-lock_open_alt">
<path id="icon" fill-rule="evenodd" clip-rule="evenodd" d="M4.5 6H11.25V4.5C11.25 3.875 11.0312 3.34375 10.5938 2.90625C10.1562 2.46875 9.625 2.25 9 2.25C8.375 2.25 7.84375 2.46875 7.40625 2.90625C7.37956 2.93294 7.35368 2.95998 7.32862 2.98737L6.26854 1.92729C6.29429 1.90016 6.32052 1.87323 6.34725 1.8465C7.07825 1.1155 7.9625 0.75 9 0.75C10.0375 0.75 10.922 1.1155 11.6535 1.8465C12.3845 2.578 12.75 3.4625 12.75 4.5V6H13.5C13.9125 6 14.2657 6.14675 14.5597 6.44025C14.8533 6.73425 15 7.0875 15 7.5V15C15 15.4125 14.8533 15.7657 14.5597 16.0597C14.2657 16.3532 13.9125 16.5 13.5 16.5H4.5C4.0875 16.5 3.7345 16.3532 3.441 16.0597C3.147 15.7657 3 15.4125 3 15V7.5C3 7.0875 3.147 6.73425 3.441 6.44025C3.7345 6.14675 4.0875 6 4.5 6ZM9 12.75C9.4125 12.75 9.76575 12.6033 10.0598 12.3097C10.3533 12.0157 10.5 11.6625 10.5 11.25C10.5 10.8375 10.3533 10.4843 10.0598 10.1903C9.76575 9.89675 9.4125 9.75 9 9.75C8.5875 9.75 8.2345 9.89675 7.941 10.1903C7.647 10.4843 7.5 10.8375 7.5 11.25C7.5 11.6625 7.647 12.0157 7.941 12.3097C8.2345 12.6033 8.5875 12.75 9 12.75Z" fill="#6C6F80"/>
</g>
</svg>
