<?xml version="1.0" encoding="UTF-8"?>
<svg width="18px" height="18px" viewBox="0 0 18 18" version="1.1" xmlns="http://www.w3.org/2000/svg" xmlns:xlink="http://www.w3.org/1999/xlink">
    <title>Icons/18/action-delete forever</title>
    <g id="Icons/18/action-delete-forever" stroke="none" stroke-width="1" fill="none" fill-rule="evenodd">
        <path d="M14,6 L14,14 C14,15.1045695 13.1045695,16 12,16 L6,16 C4.8954305,16 4,15.1045695 4,14 L4,6 L14,6 Z M11,2 L12,3 L15,3 L15,5 L3,5 L3,3 L6,3 L7,2 L11,2 Z M10.76,14.1 L9,12.36 L7.24,14.1 L6.08,12.94 L7.82,11.18 L6.04,9.38 L7.24,8.2 L9,10 L10.76,8.2 L11.94,9.38 L10.18,11.18 L11.94,12.94 L10.76,14.1 Z" id="icon" fill="#45FF00"></path>
    </g>
</svg>