<?xml version="1.0" encoding="UTF-8"?>
<svg width="18px" height="18px" viewBox="0 0 18 18" version="1.1" xmlns="http://www.w3.org/2000/svg" xmlns:xlink="http://www.w3.org/1999/xlink">
    <title>Icons/18/action-snapshot</title>
    <g id="Icons/18/action-snapshot" stroke="none" stroke-width="1" fill="none" fill-rule="evenodd">
        <path d="M16,11 L16,15 C16,15.5522847 15.5522847,16 15,16 L11,16 L11,14 L14,14 L14,11 L16,11 Z M4,11 L4,14 L7,14 L7,16 L3,16 C2.44771525,16 2,15.5522847 2,15 L2,11 L4,11 Z M9,7 C10.1045695,7 11,7.8954305 11,9 C11,10.1045695 10.1045695,11 9,11 C7.8954305,11 7,10.1045695 7,9 C7,7.8954305 7.8954305,7 9,7 Z M7,2 L7,4 L4,4 L4,7 L2,7 L2,3 C2,2.44771525 2.44771525,2 3,2 L7,2 Z M15,2 C15.5522847,2 16,2.44771525 16,3 L16,7 L14,7 L14,4 L11,4 L11,2 L15,2 Z" id="icon" fill="#45FF00"></path>
    </g>
</svg>