<?xml version="1.0" encoding="UTF-8"?>
<svg width="18px" height="18px" viewBox="0 0 18 18" version="1.1" xmlns="http://www.w3.org/2000/svg" xmlns:xlink="http://www.w3.org/1999/xlink">
    <title>Icons/18/action-lock_open-fill</title>
    <g id="Icons/18/action-lock_open-fill" stroke="none" stroke-width="1" fill="none" fill-rule="evenodd">
        <path d="M11,7 C12.1045695,7 13,7.8954305 13,9 L13,15 C13,16.1045695 12.1045695,17 11,17 L3,17 C1.8954305,17 1,16.1045695 1,15 L1,9 C1,7.8954305 1.8954305,7 3,7 L11,7 Z M7,10 C5.8954305,10 5,10.8954305 5,12 C5,13.1045695 5.8954305,14 7,14 C8.1045695,14 9,13.1045695 9,12 C9,10.8954305 8.1045695,10 7,10 Z M13,3 C11.8954305,3 11,3.8954305 11,5 L11,7 L9,7 L9,5 C9,2.790861 10.790861,1 13,1 C15.209139,1 17,2.790861 17,5 L17,7 L15,7 L15,5 C15,3.8954305 14.1045695,3 13,3 Z" id="icon" fill="#45FF00"></path>
    </g>
</svg>