<?xml version="1.0" encoding="UTF-8"?>
<svg width="18px" height="18px" viewBox="0 0 18 18" version="1.1" xmlns="http://www.w3.org/2000/svg" xmlns:xlink="http://www.w3.org/1999/xlink">
    <title>Icons/18/action-account</title>
    <g id="Icons/18/action-account" stroke="none" stroke-width="1" fill="none" fill-rule="evenodd">
        <path d="M9,1 C4.584,1 1,4.584 1,9 C1,13.416 4.584,17 9,17 C13.416,17 17,13.416 17,9 C17,4.584 13.416,1 9,1 Z M9,3.4 C10.328,3.4 11.4,4.472 11.4,5.8 C11.4,7.128 10.328,8.2 9,8.2 C7.672,8.2 6.6,7.128 6.6,5.8 C6.6,4.472 7.672,3.4 9,3.4 Z M9,14.76 C7,14.76 5.232,13.736 4.2,12.184 C4.224,10.592 7.4,9.72 9,9.72 C10.592,9.72 13.776,10.592 13.8,12.184 C12.768,13.736 11,14.76 9,14.76 Z" id="icon" fill="#45FF00"></path>
    </g>
</svg>