<svg xmlns="http://www.w3.org/2000/svg" width="18" height="18" fill="none" viewBox="0 0 18 18">
  <path fill="#6C6F80" fill-rule="evenodd" d="M9 6a3 3 0 1 0 0 6 3 3 0 1 0 0-6Zm6.705 2.25A6.746 6.746 0 0 0 9.75 2.295V.75h-1.5v1.545A6.746 6.746 0 0 0 2.295 8.25H.75v1.5h1.545a6.746 6.746 0 0 0 5.955 5.955v1.545h1.5v-1.545a6.746 6.746 0 0 0 5.955-5.955h1.545v-1.5h-1.545ZM9 14.25A5.246 5.246 0 0 1 3.75 9 5.246 5.246 0 0 1 9 3.75 5.246 5.246 0 0 1 14.25 9 5.246 5.246 0 0 1 9 14.25Z" clip-rule="evenodd"/>
</svg>
