<svg width="18" height="18" viewBox="0 0 18 18" fill="none" xmlns="http://www.w3.org/2000/svg">
<g id="18/action-photo">
<path id="icon" fill-rule="evenodd" clip-rule="evenodd" d="M5.3775 3.75L6.75 2.25H11.25L12.6225 3.75H15C15.825 3.75 16.5 4.425 16.5 5.25V14.25C16.5 15.075 15.825 15.75 15 15.75H3C2.175 15.75 1.5 15.075 1.5 14.25V5.25C1.5 4.425 2.175 3.75 3 3.75H5.3775ZM5.25 9.75C5.25 11.82 6.93 13.5 9 13.5C11.07 13.5 12.75 11.82 12.75 9.75C12.75 7.68 11.07 6 9 6C6.93 6 5.25 7.68 5.25 9.75Z" fill="#6C6F80"/>
</g>
</svg>
