<?xml version="1.0" encoding="UTF-8"?>
<svg width="18px" height="18px" viewBox="0 0 18 18" version="1.1" xmlns="http://www.w3.org/2000/svg" xmlns:xlink="http://www.w3.org/1999/xlink">
    <title>Icons/18/action-schedule</title>
    <g id="Icons/18/action-schedule" stroke="none" stroke-width="1" fill="none" fill-rule="evenodd">
        <path d="M8.992,1 C4.576,1 1,4.584 1,9 C1,13.416 4.576,17 8.992,17 C13.416,17 17,13.416 17,9 C17,4.584 13.416,1 8.992,1 Z M9,15 C5.685,15 3,12.315 3,9 C3,5.685 5.685,3 9,3 C12.315,3 15,5.685 15,9 C15,12.315 12.315,15 9,15 Z M12.7236068,11.5527864 L12.2763932,12.4472136 L8,10.309017 L8,5 L9,5 L9,9.69098301 L12.7236068,11.5527864 Z" id="icon" fill="#45FF00"></path>
    </g>
</svg>