<?xml version="1.0" encoding="UTF-8"?>
<svg width="18px" height="18px" viewBox="0 0 18 18" version="1.1" xmlns="http://www.w3.org/2000/svg" xmlns:xlink="http://www.w3.org/1999/xlink">
    <title>Icons/18/action-deactivate</title>
    <g id="Icons/18/action-deactivate" stroke="none" stroke-width="1" fill="none" fill-rule="evenodd">
        <path d="M9,1 C13.418278,1 17,4.581722 17,9 C17,13.418278 13.418278,17 9,17 C4.581722,17 1,13.418278 1,9 C1,4.581722 4.581722,1 9,1 Z M13.8906459,5.52332235 L5.52332235,13.8906459 C6.50416765,14.589169 7.70410647,15 9,15 C12.3137085,15 15,12.3137085 15,9 C15,7.70410647 14.589169,6.50416765 13.8906459,5.52332235 Z M9,3 C5.6862915,3 3,5.6862915 3,9 C3,10.2958935 3.41083098,11.4958324 4.10935412,12.4766776 L12.4766776,4.10935412 C11.4958324,3.41083098 10.2958935,3 9,3 Z" id="Deactivate" fill="#45FF00"></path>
    </g>
</svg>