<svg width="18" height="18" viewBox="0 0 18 18" fill="none" xmlns="http://www.w3.org/2000/svg">
<path fill-rule="evenodd" clip-rule="evenodd" d="M17 9C17 13.4183 13.4183 17 9 17C4.58172 17 1 13.4183 1 9C1 4.58172 4.58172 1 9 1C13.4183 1 17 4.58172 17 9ZM15 9C15 12.3137 12.3137 15 9 15C7.70417 15 6.50428 14.5892 5.52347 13.8907L13.8907 5.52347C14.5892 6.50428 15 7.70417 15 9ZM12.4765 4.10925C11.4957 3.41079 10.2958 3 9 3C5.68629 3 3 5.68629 3 9C3 10.2958 3.41079 11.4957 4.10925 12.4765L12.4765 4.10925Z" fill="#6C6F80"/>
</svg>
