<?xml version="1.0" encoding="UTF-8"?>
<svg width="18px" height="18px" viewBox="0 0 18 18" version="1.1" xmlns="http://www.w3.org/2000/svg" xmlns:xlink="http://www.w3.org/1999/xlink">
    <title>Icons/18/action-drag_indicator</title>
    <g id="Icons/18/action-drag_indicator" stroke="none" stroke-width="1" fill="none" fill-rule="evenodd">
        <path d="M8,13.5 C8,14.325 7.325,15 6.5,15 C5.675,15 5,14.325 5,13.5 C5,12.675 5.675,12 6.5,12 C7.325,12 8,12.675 8,13.5 Z M6.5,7.5 C5.675,7.5 5,8.175 5,9 C5,9.825 5.675,10.5 6.5,10.5 C7.325,10.5 8,9.825 8,9 C8,8.175 7.325,7.5 6.5,7.5 Z M6.5,3 C5.675,3 5,3.675 5,4.5 C5,5.325 5.675,6 6.5,6 C7.325,6 8,5.325 8,4.5 C8,3.675 7.325,3 6.5,3 Z M11.5,6 C12.325,6 13,5.325 13,4.5 C13,3.675 12.325,3 11.5,3 C10.675,3 10,3.675 10,4.5 C10,5.325 10.675,6 11.5,6 Z M11.5,7.5 C10.675,7.5 10,8.175 10,9 C10,9.825 10.675,10.5 11.5,10.5 C12.325,10.5 13,9.825 13,9 C13,8.175 12.325,7.5 11.5,7.5 Z M11.5,12 C10.675,12 10,12.675 10,13.5 C10,14.325 10.675,15 11.5,15 C12.325,15 13,14.325 13,13.5 C13,12.675 12.325,12 11.5,12 Z" id="icon" fill="#45FF00"></path>
    </g>
</svg>