<svg width="18" height="18" viewBox="0 0 18 18" fill="none" xmlns="http://www.w3.org/2000/svg">
<path fill-rule="evenodd" clip-rule="evenodd" d="M9 1C4.584 1 1 4.584 1 9C1 13.416 4.584 17 9 17C13.416 17 17 13.416 17 9C17 4.584 13.416 1 9 1ZM9 3.4C10.328 3.4 11.4 4.472 11.4 5.8C11.4 7.128 10.328 8.2 9 8.2C7.672 8.2 6.6 7.128 6.6 5.8C6.6 4.472 7.672 3.4 9 3.4ZM9 14.76C7 14.76 5.232 13.736 4.2 12.184C4.224 10.592 7.4 9.72 9 9.72C10.592 9.72 13.776 10.592 13.8 12.184C12.768 13.736 11 14.76 9 14.76Z" fill="#6C6F80"/>
</svg>
