<?xml version="1.0" encoding="UTF-8"?>
<svg width="18px" height="18px" viewBox="0 0 18 18" version="1.1" xmlns="http://www.w3.org/2000/svg" xmlns:xlink="http://www.w3.org/1999/xlink">
    <title>Icons/18/action-move_to</title>
    <g id="Icons/18/action-move_to" stroke="none" stroke-width="1" fill="none" fill-rule="evenodd">
        <path d="M9.75,1.5 L3.75,1.5 C2.925,1.5 2.25,2.175 2.25,3 L2.25,15 C2.25,15.3075 2.34,15.6 2.505,15.84 C2.5575,15.9225 2.625,15.9975 2.6925,16.0575 C2.9625,16.335 3.3375,16.5 3.75,16.5 L9.3975,16.5 C9,16.065 8.7075,15.5625 8.5125,15 L3.75,15 L3.75,3 L9,3 L9,6.75 L12.75,6.75 L12.75,9 C13.275,9 13.7775,9.09 14.25,9.255 L14.25,6 L9.75,1.5 M12.75,17.25 L16.5,13.875 L14.25,11.85 L12.75,10.5 L12.75,12.75 L9.75,12.75 L9.75,15 L12.75,15 L12.75,17.25 Z" id="icon" fill="#45FF00"></path>
    </g>
</svg>