<svg width="18" height="18" viewBox="0 0 18 18" fill="none" xmlns="http://www.w3.org/2000/svg">
<g id="18/action-search-fill">
<g id="icon">
<path fill-rule="evenodd" clip-rule="evenodd" d="M12.6898 11.6292L16.125 15L15 16.125L11.6292 12.6898C10.6132 13.4796 9.33648 13.95 7.94995 13.95C4.63624 13.95 1.94995 11.2637 1.94995 7.94995C1.94995 4.63624 4.63624 1.94995 7.94995 1.94995C11.2637 1.94995 13.95 4.63624 13.95 7.94995C13.95 9.33648 13.4796 10.6132 12.6898 11.6292ZM7.94995 12.45C10.4352 12.45 12.45 10.4352 12.45 7.94995C12.45 5.46467 10.4352 3.44995 7.94995 3.44995C5.46467 3.44995 3.44995 5.46467 3.44995 7.94995C3.44995 10.4352 5.46467 12.45 7.94995 12.45Z" fill="#6C6F80"/>
<path d="M10.9499 7.94906C10.9499 9.60591 9.60678 10.9491 7.94993 10.9491C6.29307 10.9491 4.94993 9.60591 4.94993 7.94906C4.94993 6.2922 6.29307 4.94906 7.94993 4.94906C9.60678 4.94906 10.9499 6.2922 10.9499 7.94906Z" fill="#6C6F80"/>
</g>
</g>
</svg>
