<svg width="18" height="18" viewBox="0 0 18 18" fill="none" xmlns="http://www.w3.org/2000/svg">
<path fill-rule="evenodd" clip-rule="evenodd" d="M9.75 1.5H3.75C2.925 1.5 2.25 2.175 2.25 3V15C2.25 15.3075 2.34 15.6 2.505 15.84C2.5575 15.9225 2.625 15.9975 2.6925 16.0575C2.9625 16.335 3.3375 16.5 3.75 16.5H9.3975C9 16.065 8.7075 15.5625 8.5125 15H3.75V3H9V6.75H12.75V9C13.275 9 13.7775 9.09 14.25 9.255V6L9.75 1.5ZM12.75 17.25L16.5 13.875L12.75 10.5V12.75H9.75V15H12.75V17.25Z" fill="#6C6F80"/>
</svg>
