<?xml version="1.0" encoding="UTF-8"?>
<svg width="18px" height="18px" viewBox="0 0 18 18" version="1.1" xmlns="http://www.w3.org/2000/svg" xmlns:xlink="http://www.w3.org/1999/xlink">
    <title>Icons/18/action-copy_content</title>
    <g id="Icons/18/action-copy_content" stroke="none" stroke-width="1" fill="none" fill-rule="evenodd">
        <path d="M15,15 L7,15 L7,7 L15,7 L15,15 Z M7,5 L15,5 C16.1045695,5 17,5.8954305 17,7 L17,15 C17,16.1045695 16.1045695,17 15,17 L7,17 C5.8954305,17 5,16.1045695 5,15 L5,7 C5,5.8954305 5.8954305,5 7,5 Z M11,1 L3,1 C1.8954305,1 1,1.8954305 1,3 L1,11 L3,11 L3,3 L11,3 L11,1 Z" id="icon" fill="#45FF00"></path>
    </g>
</svg>