<?xml version="1.0" encoding="UTF-8"?>
<svg width="18px" height="18px" viewBox="0 0 18 18" version="1.1" xmlns="http://www.w3.org/2000/svg" xmlns:xlink="http://www.w3.org/1999/xlink">
    <title>Icons/18/action-language</title>
    <g id="Icons/18/action-language" stroke="none" stroke-width="1" fill="none" fill-rule="evenodd">
        <path d="M9,1 C13.418278,1 17,4.581722 17,9 C17,13.418278 13.418278,17 9,17 C4.581722,17 1,13.418278 1,9 C1,4.581722 4.581722,1 9,1 Z M10.4885729,12.0011796 L7.51142715,12.0011796 C7.84288546,12.9646973 8.33729561,13.8948654 9,14.7964807 C9.66270439,13.8948654 10.1571145,12.9646973 10.4885729,12.0011796 Z M5.493452,12.0004696 L3.80325037,12.000963 C4.48303673,13.1756078 5.54965347,14.0984056 6.8288875,14.5951432 C6.24349316,13.759071 5.79799139,12.8945107 5.493452,12.0004696 Z M14.1967496,12.000963 L12.506548,12.0004696 C12.2020086,12.8945107 11.7565068,13.759071 11.1700427,14.5941506 C12.4503465,14.0984056 13.5169633,13.1756078 14.1967496,12.000963 Z M5.05228731,8.00063334 L3.08292631,8.00019152 C3.02838765,8.32533963 3,8.65935467 3,9 C3,9.34099399 3.02844579,9.67534412 3.08309386,10.0008069 L5.05239343,10.0003691 C5.01746448,9.67056524 5,9.33710887 5,9 C5,8.66323268 5.0174291,8.33011046 5.05228731,8.00063334 Z M10.9596982,8.00002279 L7.04030184,8.00002279 C7.01338977,8.29624932 7,8.59561551 7,8.89824035 C7,9.27046642 7.02025712,9.63776256 7.06101795,10.0003502 L10.9389821,10.0003502 C10.9797429,9.63776256 11,9.27046642 11,8.89824035 C11,8.59561551 10.9866102,8.29624932 10.9596982,8.00002279 Z M14.9170737,8.00019152 L12.9477127,8.00063334 C12.9825709,8.33011046 13,8.66323268 13,9 C13,9.33710887 12.9825355,9.67056524 12.9476066,10.0003691 L14.9169061,10.0008069 C14.9715542,9.67534412 15,9.34099399 15,9 C15,8.65935467 14.9716124,8.32533963 14.9170737,8.00019152 Z M6.82995733,3.40584944 L6.66452923,3.47150974 C5.45798665,3.98183422 4.45311332,4.87559781 3.80267039,6.00003939 L5.49311304,6.00052565 C5.79766077,5.10613096 6.24327553,4.24123889 6.82995733,3.40584944 Z M9,3 C8.29030343,3.96554857 7.77361471,4.96384291 7.44337245,6.00077419 L10.5566275,6.00077419 C10.2632922,5.07972735 9.82285519,4.1891641 9.23071826,3.32495591 L9,3 L9,3 Z M11.1711125,3.40485681 L11.3469388,3.66507643 C11.8470767,4.41982463 12.2337261,5.19830771 12.506887,6.00052565 L14.1973296,6.00003939 C13.51757,4.82491719 12.4507104,3.90173573 11.1711125,3.40485681 Z" id="icon" fill="#45FF00"></path>
    </g>
</svg>