<?xml version="1.0" encoding="UTF-8"?>
<svg width="18px" height="18px" viewBox="0 0 18 18" version="1.1" xmlns="http://www.w3.org/2000/svg" xmlns:xlink="http://www.w3.org/1999/xlink">
    <title>Icons/18/action-update</title>
    <g id="Icons/18/action-update" stroke="none" stroke-width="1" fill="none" fill-rule="evenodd">
        <path d="M10.993,2 C14.864,2 18,5.136 18,9 C18,12.864 14.864,16 10.993,16 C9.17077273,16 7.51200797,15.3025599 6.26779054,14.1602329 L7.76490617,12.8132355 C8.63675181,13.5535313 9.7659969,14 11,14 C13.7625,14 16,11.7625 16,9 C16,6.2375 13.7625,4 11,4 C8.2375,4 6,6.2375 6,9 L4,9 L4,9 C4,5.136 7.129,2 10.993,2 Z M8,9 L5,12 L2,9 L8,9 Z" id="icon" fill="#45FF00" transform="translate(10.000000, 9.000000) scale(-1, 1) translate(-10.000000, -9.000000) "></path>
    </g>
</svg>