<?xml version="1.0" encoding="UTF-8"?>
<svg width="18px" height="18px" viewBox="0 0 18 18" version="1.1" xmlns="http://www.w3.org/2000/svg" xmlns:xlink="http://www.w3.org/1999/xlink">
    <title>Icons/18/action-target</title>
    <g id="Icons/18/action-target" stroke="none" stroke-width="1" fill="none" fill-rule="evenodd">
        <path d="M8,14.9170416 C5.48749513,14.4955231 3.50447689,12.5125049 3.08295844,10 L1,10 L1,8 L3.08295844,8 C3.50447689,5.48749513 5.48749513,3.50447689 8,3.08295844 L8,1 L10,1 L10,3.08295844 C12.5125049,3.50447689 14.4955231,5.48749513 14.9170416,8 L17,8 L17,10 L14.9170416,10 C14.4955231,12.5125049 12.5125049,14.4955231 10,14.9170416 L10,17 L8,17 L8,14.9170416 Z M9,13 C11.2114286,13 13,11.2114286 13,9 C13,6.78857143 11.2114286,5 9,5 C6.78857143,5 5,6.78857143 5,9 C5,11.2114286 6.78857143,13 9,13 Z M9,7 C10.105,7 11,7.895 11,9 C11,10.105 10.105,11 9,11 C7.895,11 7,10.105 7,9 C7,7.895 7.895,7 9,7 Z" id="icon" fill="#45FF00"></path>
    </g>
</svg>