<svg width="18" height="18" viewBox="0 0 18 18" fill="none" xmlns="http://www.w3.org/2000/svg">
<g id="18/action-eye">
<g id="icon">
<path d="M9 10.5C9.82843 10.5 10.5 9.82843 10.5 9C10.5 8.17157 9.82843 7.5 9 7.5C8.17157 7.5 7.5 8.17157 7.5 9C7.5 9.82843 8.17157 10.5 9 10.5Z" fill="#6C6F80"/>
<path fill-rule="evenodd" clip-rule="evenodd" d="M17.25 9C17.25 9 13.9706 15 9 15C4.02944 15 0.75 9 0.75 9C0.75 9 4.02944 3 9 3C13.9706 3 17.25 9 17.25 9ZM12 9C12 10.6569 10.6569 12 9 12C7.34315 12 6 10.6569 6 9C6 7.34315 7.34315 6 9 6C10.6569 6 12 7.34315 12 9Z" fill="#6C6F80"/>
</g>
</g>
</svg>
