<svg width="18" height="18" viewBox="0 0 18 18" fill="none" xmlns="http://www.w3.org/2000/svg">
<path fill-rule="evenodd" clip-rule="evenodd" d="M3.0007 9.0927C3.00023 9.06186 3 9.03096 3 9C3 8.96904 3.00023 8.93814 3.0007 8.9073L1.55 7.27133C1.26442 6.94928 1.21696 6.48062 1.43217 6.10785L2.71141 3.89214C2.92663 3.51938 3.35623 3.32615 3.77792 3.41245L5.91877 3.85054C5.97235 3.81841 6.02648 3.78709 6.08113 3.7566L6.77207 1.68377C6.90819 1.27543 7.29033 1 7.72076 1H10.2792C10.7097 1 11.0918 1.27543 11.2279 1.68377L11.9189 3.7566C11.9735 3.78709 12.0276 3.81841 12.0812 3.85054L14.2221 3.41245C14.6438 3.32615 15.0734 3.51938 15.2886 3.89214L16.5678 6.10785C16.783 6.48062 16.7356 6.94928 16.45 7.27133L14.9993 8.9073C14.9998 8.93814 15 8.96904 15 9C15 9.03096 14.9998 9.06186 14.9993 9.0927L16.45 10.7287C16.7356 11.0507 16.783 11.5194 16.5678 11.8921L15.2886 14.1079C15.0734 14.4806 14.6438 14.6738 14.2221 14.5876L12.0812 14.1495C12.0276 14.1816 11.9735 14.2129 11.9189 14.2434L11.2279 16.3162C11.0918 16.7246 10.7097 17 10.2792 17H7.72076C7.29033 17 6.90819 16.7246 6.77207 16.3162L6.08113 14.2434C6.02648 14.2129 5.97235 14.1816 5.91877 14.1495L3.77792 14.5876C3.35623 14.6738 2.92663 14.4806 2.71141 14.1079L1.43217 11.8921C1.21696 11.5194 1.26442 11.0507 1.55 10.7287L3.0007 9.0927ZM9 12C10.6569 12 12 10.6569 12 9C12 7.34315 10.6569 6 9 6C7.34314 6 6 7.34315 6 9C6 10.6569 7.34314 12 9 12Z" fill="#6C6F80"/>
</svg>
