<?xml version="1.0" encoding="UTF-8"?>
<svg width="18px" height="18px" viewBox="0 0 18 18" version="1.1" xmlns="http://www.w3.org/2000/svg" xmlns:xlink="http://www.w3.org/1999/xlink">
    <title>Icons/18/action-settings</title>
    <g id="Icons/18/action-settings" stroke="none" stroke-width="1" fill="none" fill-rule="evenodd">
        <path d="M3.00070159,9.09270037 C3.00023442,9.06185612 3,9.03095544 3,9 C3,8.96904456 3.00023442,8.93814388 3.00070159,8.90729963 L1.54999886,7.27132497 C1.26442121,6.94927567 1.21696118,6.48061868 1.43217638,6.10785501 L2.71141716,3.89214499 C2.92663236,3.51938132 3.35623124,3.32615442 3.77792293,3.41244727 L5.91876894,3.85053913 C5.97235309,3.81840749 6.02648032,3.78708853 6.08113357,3.75659928 L6.77207592,1.68377223 C6.90818997,1.27543009 7.29032881,1 7.72075922,1 L10.2792408,1 C10.7096712,1 11.09181,1.27543009 11.2279241,1.68377223 L11.9188664,3.75659928 C11.9735197,3.78708853 12.0276469,3.81840749 12.0812311,3.85053913 L14.2220771,3.41244727 C14.6437688,3.32615442 15.0733676,3.51938132 15.2885828,3.89214499 L16.5678236,6.10785501 C16.7830388,6.48061868 16.7355788,6.94927567 16.4500011,7.27132497 L14.9992984,8.90729963 C14.9997656,8.93814388 15,8.96904456 15,9 C15,9.03095544 14.9997656,9.06185612 14.9992984,9.09270037 L16.4500011,10.728675 C16.7355788,11.0507243 16.7830388,11.5193813 16.5678236,11.892145 L15.2885828,14.107855 C15.0733676,14.4806187 14.6437688,14.6738456 14.2220771,14.5875527 L12.0812311,14.1494609 C12.0276469,14.1815925 11.9735197,14.2129115 11.9188664,14.2434007 L11.2279241,16.3162278 C11.09181,16.7245699 10.7096712,17 10.2792408,17 L7.72075922,17 C7.29032881,17 6.90818997,16.7245699 6.77207592,16.3162278 L6.08113357,14.2434007 C6.02648032,14.2129115 5.97235309,14.1815925 5.91876894,14.1494609 L3.77792293,14.5875527 C3.35623124,14.6738456 2.92663236,14.4806187 2.71141716,14.107855 L1.43217638,11.892145 C1.21696118,11.5193813 1.26442121,11.0507243 1.54999886,10.728675 L3.00070159,9.09270037 Z M9,12 C10.6568542,12 12,10.6568542 12,9 C12,7.34314575 10.6568542,6 9,6 C7.34314575,6 6,7.34314575 6,9 C6,10.6568542 7.34314575,12 9,12 Z" id="icon" fill="#45FF00"></path>
    </g>
</svg>