<svg width="18" height="18" viewBox="0 0 18 18" fill="none" xmlns="http://www.w3.org/2000/svg">
<path fill-rule="evenodd" clip-rule="evenodd" d="M9 17C4.58172 17 1 13.4183 1 9C1 4.58172 4.58172 1 9 1C13.4183 1 17 4.58172 17 9C17 13.4183 13.4183 17 9 17ZM11.1687 14.5961C12.4493 14.0994 13.5171 13.1758 14.1973 12H12.5067C12.2019 12.8949 11.7559 13.7603 11.1687 14.5961ZM12.9476 10H14.917C14.9716 9.67479 15 9.34071 15 9C15 8.65929 14.9716 8.32521 14.917 8H12.9476C12.9825 8.32968 13 8.66302 13 9C13 9.33698 12.9825 9.67032 12.9476 10ZM10.9597 8C10.9866 8.29623 11 8.59561 11 8.89824C11 9.27035 10.9798 9.63753 10.939 10H7.06098C7.02024 9.63753 7 9.27035 7 8.89824C7 8.59561 7.01339 8.29623 7.0403 8H10.9597ZM12.5067 6H14.1973C13.5171 4.82415 12.4493 3.90056 11.1687 3.40391C11.7559 4.23974 12.2019 5.1051 12.5067 6ZM9 3C9.70952 3.96531 10.2261 4.96335 10.5564 6H7.44362C7.77387 4.96335 8.29048 3.96531 9 3ZM6.83132 3.40391C5.55065 3.90056 4.48288 4.82415 3.80269 6H5.49329C5.79807 5.1051 6.24408 4.23974 6.83132 3.40391ZM5.05235 8H3.08296C3.0284 8.32521 3 8.65929 3 9C3 9.34071 3.0284 9.67479 3.08296 10H5.05235C5.01745 9.67032 5 9.33698 5 9C5 8.66302 5.01745 8.32968 5.05235 8ZM5.49329 12H3.80269C4.48289 13.1758 5.55066 14.0994 6.83132 14.5961C6.24408 13.7603 5.79807 12.8949 5.49329 12ZM7.51102 12C7.84248 12.9639 8.33703 13.8945 9 14.7965C9.66297 13.8945 10.1575 12.9639 10.489 12H7.51102Z" fill="#6C6F80"/>
</svg>
