<svg width="18" height="18" viewBox="0 0 18 18" fill="none" xmlns="http://www.w3.org/2000/svg">
<path fill-rule="evenodd" clip-rule="evenodd" d="M8 14.917C5.4875 14.4955 3.50448 12.5125 3.08296 10H1V8H3.08296C3.50448 5.4875 5.4875 3.50448 8 3.08296V1H10V3.08296C12.5125 3.50448 14.4955 5.4875 14.917 8H17V10H14.917C14.4955 12.5125 12.5125 14.4955 10 14.917V17H8V14.917ZM9 13C11.2114 13 13 11.2114 13 9C13 6.78857 11.2114 5 9 5C6.78857 5 5 6.78857 5 9C5 11.2114 6.78857 13 9 13ZM9 7C10.105 7 11 7.895 11 9C11 10.105 10.105 11 9 11C7.895 11 7 10.105 7 9C7 7.895 7.895 7 9 7Z" fill="#6C6F80"/>
</svg>
