<svg width="18" height="18" viewBox="0 0 18 18" fill="none" xmlns="http://www.w3.org/2000/svg">
<path fill-rule="evenodd" clip-rule="evenodd" d="M3.85308 4.98374L1.4343 2.56497L2.56568 1.43359L16.5657 15.4336L15.4343 16.565L12.7812 13.9119C11.6316 14.5571 10.3505 15 9 15C4.02944 15 0 9 0 9C0 9 1.52375 6.73108 3.85308 4.98374ZM5.663 6.79366C5.24401 7.42609 5 8.18455 5 9C5 11.2091 6.79086 13 9 13C9.81545 13 10.5739 12.756 11.2063 12.337L9.73139 10.862C9.50485 10.9511 9.25814 11 9 11C7.89543 11 7 10.1046 7 9C7 8.74186 7.0489 8.49515 7.13795 8.26861L5.663 6.79366Z" fill="#6C6F80"/>
<path d="M8.45148 5.0373L6.79335 3.37916C7.49942 3.14076 8.23867 3 9 3C13.9706 3 18 9 18 9C18 9 17.0034 10.484 15.3901 11.9759L12.9627 9.54852C12.9873 9.36919 13 9.18608 13 9C13 6.79086 11.2091 5 9 5C8.81392 5 8.63081 5.01271 8.45148 5.0373Z" fill="#6C6F80"/>
</svg>
