<svg width="18" height="18" viewBox="0 0 18 18" fill="none" xmlns="http://www.w3.org/2000/svg">
<g id="18/action-mic">
<path id="icon" fill-rule="evenodd" clip-rule="evenodd" d="M9 10.5C10.245 10.5 11.2425 9.495 11.2425 8.25L11.25 3.75C11.25 2.505 10.245 1.5 9 1.5C7.755 1.5 6.75 2.505 6.75 3.75V8.25C6.75 9.495 7.755 10.5 9 10.5ZM12.975 8.25C12.975 10.5 11.07 12.075 9 12.075C6.93 12.075 5.025 10.5 5.025 8.25H3.75C3.75 10.8075 5.79 12.9225 8.25 13.29V15.75H9.75V13.29C12.21 12.93 14.25 10.815 14.25 8.25H12.975Z" fill="#6C6F80"/>
</g>
</svg>
