<svg xmlns="http://www.w3.org/2000/svg" width="18" height="18" fill="none" viewBox="0 0 18 18">
  <path fill="#6C6F80" fill-rule="evenodd" d="M4.5 6h6.75V4.5a2.17 2.17 0 0 0-.656-1.594A2.17 2.17 0 0 0 9 2.25a2.17 2.17 0 0 0-1.671.737l-1.06-1.06.078-.08C7.078 1.115 7.962.75 9 .75c1.037 0 1.922.365 2.653 1.097A3.616 3.616 0 0 1 12.75 4.5V6h.75c.412 0 .766.147 1.06.44.293.294.44.647.44 1.06V15c0 .412-.147.766-.44 1.06a1.45 1.45 0 0 1-1.06.44h-9c-.412 0-.765-.147-1.059-.44A1.445 1.445 0 0 1 3 15V7.5c0-.412.147-.766.441-1.06C3.735 6.147 4.088 6 4.5 6ZM9 12.75a1.45 1.45 0 0 0 1.06-.44 1.45 1.45 0 0 0 .44-1.06 1.45 1.45 0 0 0-.44-1.06A1.446 1.446 0 0 0 9 9.75c-.412 0-.765.147-1.059.44a1.445 1.445 0 0 0-.441 1.06c0 .412.147.766.441 1.06.294.293.647.44 1.059.44Z" clip-rule="evenodd"/>
</svg>
