<svg width="18" height="18" viewBox="0 0 18 18" fill="none" xmlns="http://www.w3.org/2000/svg">
<path d="M7 4H4V7H2V3C2 2.44772 2.44772 2 3 2H7V4Z" fill="#6C6F80"/>
<path d="M15 2C15.5523 2 16 2.44772 16 3V7H14V4H11V2H15Z" fill="#6C6F80"/>
<path d="M16 15V11H14V14H11V16H15C15.5523 16 16 15.5523 16 15Z" fill="#6C6F80"/>
<path d="M7 14V16H3C2.44772 16 2 15.5523 2 15V11H4V14H7Z" fill="#6C6F80"/>
<path d="M9 11C10.1046 11 11 10.1046 11 9C11 7.89543 10.1046 7 9 7C7.89543 7 7 7.89543 7 9C7 10.1046 7.89543 11 9 11Z" fill="#6C6F80"/>
</svg>
