<svg width="18" height="18" viewBox="0 0 18 18" fill="none" xmlns="http://www.w3.org/2000/svg">
<g id="18/action-delete forever-outline">
<g id="icon">
<path fill-rule="evenodd" clip-rule="evenodd" d="M11.625 7.625L10.75 6.75L9 8.5L7.25 6.75L6.375 7.625L8.125 9.375L6.375 11.125L7.25 12L9 10.25L10.75 12L11.625 11.125L9.875 9.375L11.625 7.625Z" fill="#6C6F80"/>
<path d="M6.75 2.25V3H3V4.5H3.75V14.25C3.75 14.6478 3.90804 15.0294 4.18934 15.3107C4.47064 15.592 4.85218 15.75 5.25 15.75H12.75C13.1478 15.75 13.5294 15.592 13.8107 15.3107C14.092 15.0294 14.25 14.6478 14.25 14.25V4.5H15V3H11.25V2.25H6.75ZM5.25 4.5H12.75V14.25H5.25V4.5Z" fill="#6C6F80"/>
</g>
</g>
</svg>
