<svg width="18" height="18" viewBox="0 0 18 18" fill="none" xmlns="http://www.w3.org/2000/svg">
<g id="18/add_page">
<g id="icon">
<path d="M3 13.5H9.75V15H3C2.5875 15 2.23425 14.8532 1.94025 14.5597C1.64675 14.2657 1.5 13.9125 1.5 13.5V3C1.5 2.5875 1.64675 2.23425 1.94025 1.94025C2.23425 1.64675 2.5875 1.5 3 1.5H13.5C13.9125 1.5 14.2657 1.64675 14.5597 1.94025C14.8532 2.23425 15 2.5875 15 3V9.75H13.5V3H3V13.5Z" fill="#6C6F80"/>
<path d="M4.5 12H9.75V10.5H4.5V12Z" fill="#6C6F80"/>
<path d="M12 9H4.5V7.5H12V9Z" fill="#6C6F80"/>
<path d="M4.5 6H12V4.5H4.5V6Z" fill="#6C6F80"/>
<path d="M15 17.25H13.5V15H11.25V13.5H13.5V11.25H15V13.5H17.25V15H15V17.25Z" fill="#6C6F80"/>
</g>
</g>
</svg>
