<svg width="18" height="18" viewBox="0 0 18 18" fill="none" xmlns="http://www.w3.org/2000/svg">
<g id="18/add_space">
<g id="icon">
<path d="M1.941 14.5597C2.2345 14.8533 2.5875 15 3 15H9.75V13.5H3V6H15V9.75H16.5V6C16.5 5.5875 16.3532 5.2345 16.0597 4.941C15.7657 4.647 15.4125 4.5 15 4.5H9L7.5 3H3C2.5875 3 2.2345 3.147 1.941 3.441C1.647 3.7345 1.5 4.0875 1.5 4.5V13.5C1.5 13.9125 1.647 14.2657 1.941 14.5597Z" fill="#6C6F80"/>
<path d="M13.5 17.25H15V15H17.25V13.5H15V11.25H13.5V13.5H11.25V15H13.5V17.25Z" fill="#6C6F80"/>
</g>
</g>
</svg>
