<svg xmlns="http://www.w3.org/2000/svg" width="18" height="18" fill="none" viewBox="0 0 18 18">
  <path fill="#6C6F80" d="m13.5 11.363-7.35-7.35c.25-.188.519-.36.806-.516.288-.156.594-.272.919-.347v-.525c0-.313.11-.578.328-.796A1.08 1.08 0 0 1 9 1.5c.312 0 .578.11.796.329.22.218.329.484.329.796v.525a4.45 4.45 0 0 1 2.419 1.565c.637.794.956 1.723.956 2.785v3.863ZM3 14.25v-1.5h1.5V7.5a4.554 4.554 0 0 1 .075-.825L1.05 3.15 2.1 2.1l13.8 13.8-1.05 1.05-2.738-2.7H3Zm6 2.25c-.413 0-.766-.147-1.06-.44A1.445 1.445 0 0 1 7.5 15h3c0 .412-.147.766-.44 1.06A1.45 1.45 0 0 1 9 16.5Z"/>
</svg>
