<svg width="18" height="18" viewBox="0 0 18 18" fill="none" xmlns="http://www.w3.org/2000/svg">
<path d="M15.75 14.25V15H2.25V14.25L3.75 12.75V8.25C3.75 5.925 5.2725 3.8775 7.5 3.2175C7.5 3.1425 7.5 3.075 7.5 3C7.5 2.60218 7.65804 2.22064 7.93934 1.93934C8.22064 1.65804 8.60218 1.5 9 1.5C9.39782 1.5 9.77936 1.65804 10.0607 1.93934C10.342 2.22064 10.5 2.60218 10.5 3C10.5 3.075 10.5 3.1425 10.5 3.2175C12.7275 3.8775 14.25 5.925 14.25 8.25V12.75L15.75 14.25ZM10.5 15.75C10.5 16.1478 10.342 16.5294 10.0607 16.8107C9.77936 17.092 9.39782 17.25 9 17.25C8.60218 17.25 8.22064 17.092 7.93934 16.8107C7.65804 16.5294 7.5 16.1478 7.5 15.75" fill="#6C6F80"/>
</svg>
