<svg width="18" height="18" viewBox="0 0 18 18" fill="none" xmlns="http://www.w3.org/2000/svg">
<path d="M15.63 17.0475L13.5825 15H2.25002V14.25L3.75002 12.75V8.24999C3.75002 7.39499 3.96752 6.54748 4.37252 5.78998L0.83252 2.24999L1.79252 1.29749L16.5825 16.095L15.63 17.0475ZM14.25 11.85V8.24999C14.25 5.92499 12.7275 3.87749 10.5 3.21749C10.5 3.14249 10.5 3.07499 10.5 2.99999C10.5 2.60216 10.342 2.22063 10.0607 1.93933C9.77938 1.65802 9.39785 1.49999 9.00002 1.49999C8.6022 1.49999 8.22067 1.65802 7.93936 1.93933C7.65806 2.22063 7.50002 2.60216 7.50002 2.99999C7.50002 3.07499 7.50002 3.14249 7.50002 3.21749C7.04252 3.35249 6.60002 3.55499 6.19502 3.81749L14.25 11.85ZM9.00002 17.25C9.39785 17.25 9.77938 17.0919 10.0607 16.8106C10.342 16.5293 10.5 16.1478 10.5 15.75H7.50002C7.50002 16.1478 7.65806 16.5293 7.93936 16.8106C8.22067 17.0919 8.6022 17.25 9.00002 17.25Z" fill="#6C6F80"/>
</svg>
