<svg width="18" height="18" viewBox="0 0 18 18" fill="none" xmlns="http://www.w3.org/2000/svg">
<path d="M16.5825 16.095L1.79252 1.29749L0.83252 2.24999L4.37252 5.78998C3.96752 6.54748 3.75002 7.39499 3.75002 8.24999V12.75L2.25002 14.25V15H13.5825L15.63 17.0475L16.5825 16.095ZM5.25002 13.5V8.24999C5.25002 7.79249 5.33252 7.34248 5.50502 6.92248L12.0825 13.5H5.25002ZM7.50002 15.75H10.5C10.5 16.1478 10.342 16.5293 10.0607 16.8106C9.77938 17.0919 9.39785 17.25 9.00002 17.25C8.6022 17.25 8.22067 17.0919 7.93936 16.8106C7.65806 16.5293 7.50002 16.1478 7.50002 15.75ZM6.21752 3.81749C6.61502 3.56249 7.05002 3.37499 7.50002 3.21749C7.50002 3.14249 7.50002 3.07499 7.50002 2.99999C7.50002 2.60216 7.65806 2.22063 7.93936 1.93933C8.22067 1.65802 8.6022 1.49999 9.00002 1.49999C9.39785 1.49999 9.77938 1.65802 10.0607 1.93933C10.342 2.22063 10.5 2.60216 10.5 2.99999C10.5 3.07499 10.5 3.14249 10.5 3.21749C12.7275 3.87749 14.25 5.92499 14.25 8.24999V11.85L12.75 10.35V8.24999C12.75 7.25542 12.3549 6.3016 11.6517 5.59833C10.9484 4.89507 9.99458 4.49999 9.00002 4.49999C8.41502 4.49999 7.83752 4.64999 7.32002 4.91999L6.21752 3.81749Z" fill="#6C6F80"/>
</svg>
