<svg width="18" height="18" viewBox="0 0 18 18" fill="none" xmlns="http://www.w3.org/2000/svg">
<path d="M9 1.5C10.9891 1.5 12.8968 2.29018 14.3033 3.6967C15.7098 5.10322 16.5 7.01088 16.5 9C16.5 10.9891 15.7098 12.8968 14.3033 14.3033C12.8968 15.7098 10.9891 16.5 9 16.5C7.01088 16.5 5.10322 15.7098 3.6967 14.3033C2.29018 12.8968 1.5 10.9891 1.5 9C1.5 7.01088 2.29018 5.10322 3.6967 3.6967C5.10322 2.29018 7.01088 1.5 9 1.5V1.5ZM9 2.75C8.17924 2.75 7.36651 2.91166 6.60823 3.22575C5.84994 3.53984 5.16095 4.00022 4.58058 4.58058C3.40848 5.75269 2.75 7.3424 2.75 9C2.75 10.5 3.28125 11.875 4.1625 12.9562L12.9562 4.1625C11.875 3.28125 10.5 2.75 9 2.75ZM9 15.25C10.6576 15.25 12.2473 14.5915 13.4194 13.4194C14.5915 12.2473 15.25 10.6576 15.25 9C15.25 7.5 14.7187 6.125 13.8375 5.04375L5.04375 13.8375C6.125 14.7187 7.5 15.25 9 15.25Z" fill="#6C6F80"/>
</svg>
