<svg width="18" height="18" viewBox="0 0 18 18" fill="none" xmlns="http://www.w3.org/2000/svg">
<g id="18/blacklist">
<path id="icon" fill-rule="evenodd" clip-rule="evenodd" d="M16.5 9C16.5 13.1421 13.1421 16.5 9 16.5C4.85786 16.5 1.5 13.1421 1.5 9C1.5 4.85786 4.85786 1.5 9 1.5C13.1421 1.5 16.5 4.85786 16.5 9ZM15 9C15 12.3137 12.3137 15 9 15C7.61345 15 6.33675 14.5297 5.32073 13.7399L13.7399 5.32074C14.5297 6.33676 15 7.61345 15 9ZM4.26008 12.6792L12.6792 4.26009C11.6632 3.4703 10.3865 3 9 3C5.68629 3 3 5.68629 3 9C3 10.3865 3.4703 11.6632 4.26008 12.6792Z" fill="#6C6F80"/>
</g>
</svg>
