<svg width="18" height="18" viewBox="0 0 18 18" fill="none" xmlns="http://www.w3.org/2000/svg">
<path d="M10.8318 4.85656C9.28646 4.12939 7.56614 3.85692 5.87176 4.07097C4.17737 4.28502 2.57886 4.97676 1.26294 6.06539L2.53779 7.60641C3.56128 6.7597 4.80457 6.22169 6.12242 6.0552C7.44028 5.88872 8.7783 6.10064 9.98021 6.66622C10.626 6.97009 11.2181 7.36931 11.7382 7.84764L9.00001 10.5859L6.00001 7.58586L1.29291 12.293L2.70712 13.7072L6.00001 10.4143L9.00001 13.4143L13.0073 9.40702C13.6562 10.492 13.9998 11.7335 13.9998 13H15.9998C15.9998 11.2922 15.5138 9.61955 14.5987 8.17756C14.552 8.10391 14.5042 8.031 14.4554 7.95888L16.7071 5.70718L15.2929 4.29297L13.1534 6.43247C12.47 5.79216 11.6875 5.25925 10.8318 4.85656Z" fill="#6C6F80"/>
</svg>
