<?xml version="1.0" encoding="UTF-8"?>
<svg width="18px" height="18px" viewBox="0 0 18 18" version="1.1" xmlns="http://www.w3.org/2000/svg" xmlns:xlink="http://www.w3.org/1999/xlink">
    <title>Icons/18/communication-telescope</title>
    <g id="Icons/18/communication-telescope" stroke="none" stroke-width="1" fill="none" fill-rule="evenodd">
        <path d="M8.61544523,14.5667198 L8.61544523,16.9875236 C8.22458629,16.9496985 7.8715524,16.9118734 7.51851852,16.8362233 L7.51851852,16.8362233 L8.61544523,14.5667198 Z M9.39716312,14.6045448 L10.4940898,16.8362233 C10.1410559,16.9118734 9.75019701,16.9496985 9.39716312,16.9496985 L9.39716312,16.9496985 L9.39716312,14.6045448 Z M8.99369582,1 C13.4444444,1 17,4.59351253 17,9.00643609 C17,12.6376418 14.5791962,15.6762548 11.3010244,16.7353565 L11.3010244,16.7353565 L9.66193853,13.2932761 C9.82584712,13.1293675 9.9393223,12.9024172 9.9393223,12.6628585 C9.9393223,12.1585243 9.54846336,11.7676654 9.08195429,11.7676654 C8.96847912,11.7676654 8.84239559,11.8054905 8.72892041,11.8433155 L8.72892041,11.8433155 L11.3514578,10.3177048 L11.6666667,10.8220389 C11.7801418,11.0111642 12.0197006,11.0868143 12.2088258,10.9733392 L12.2088258,10.9733392 L12.9148936,10.5824802 C13.1040189,10.469005 13.179669,10.2294463 13.0661939,10.040321 L13.0661939,10.040321 L10.7210402,6.01825642 C10.607565,5.82913113 10.3680063,5.75348101 10.178881,5.86695618 L10.178881,5.86695618 L9.43498818,6.25781513 C9.24586288,6.33346525 9.17021277,6.57302395 9.28368794,6.76214925 L9.28368794,6.76214925 L9.32092199,6.79938329 L9.32092199,6.79938329 L9.321513,6.79997431 L10.0780142,8.1995015 C10.2040977,8.38862679 10.1158392,8.6281855 9.92671395,8.74166068 C9.85106383,8.77948574 9.81323877,8.77948574 9.73758865,8.77948574 C9.57368006,8.77948574 9.46020489,8.70383562 9.38455477,8.59036044 L9.38455477,8.59036044 L8.91804571,7.69516737 L4.50512214,10.2294463 C4.31599685,10.3429215 4.24034673,10.5824802 4.35382191,10.7716055 L4.35382191,10.7716055 L4.63120567,11.2381146 L1.97084318,12.7637253 C1.35303388,11.6794069 1,10.3429215 1,8.98121938 C1,4.56829582 4.59338061,0.974915207 8.99369582,1 Z M8.464145,11.8307072 C8.26241135,11.9946158 8.11111111,12.2593912 8.11111111,12.5367749 C8.11111111,12.8141587 8.22458629,13.0411091 8.35066982,13.2428427 L8.35066982,13.2428427 L6.71158392,16.7227481 C5.14814815,16.2436307 3.82427108,15.3484377 2.80299448,14.1002107 L2.80299448,14.1002107 L5.3750985,12.6124251 L5.61465721,13.003284 C5.72813239,13.1924093 5.9676911,13.2680594 6.15681639,13.1545842 L6.15681639,13.1545842 Z M1.23955871,12.9276339 C1.428684,12.8015504 1.66824271,12.8519838 1.78171789,13.0411091 L1.78171789,13.0411091 L2.4499606,14.1002107 C2.57604413,14.289336 2.52561072,14.5288947 2.33648542,14.6423699 C2.29866036,14.680195 2.22301024,14.680195 2.14736013,14.680195 C1.98345154,14.680195 1.86997636,14.6045448 1.79432624,14.4910697 L1.79432624,14.4910697 L1.12608353,13.431968 C1,13.2428427 1.08825847,13.003284 1.23955871,12.9276339 Z M14.1379039,5.28697194 C13.9866036,5.28697194 13.7092199,6.03086477 13.5579196,6.10651489 C13.394011,6.18216501 12.6122931,5.9173896 12.536643,6.06868983 C12.4105595,6.30824854 13.0788022,6.69910748 13.0788022,6.88823278 C13.0788022,7.07735808 12.6122931,7.70777573 12.7635934,7.8212509 C12.9527187,7.97255114 13.5453113,7.50604208 13.7344366,7.54386714 C13.9739953,7.54386714 14.3648542,8.16167644 14.5161545,8.12385138 C14.6674547,8.04820126 14.4405043,7.26648337 14.5665879,7.11518313 C14.642238,7.00170796 15.3861308,6.72432419 15.3483058,6.57302395 C15.3104807,6.40911536 14.4909377,6.33346525 14.4152876,6.25781513 C14.2892041,6.18216501 14.2892041,5.324797 14.1379039,5.28697194 Z M8.57762017,2.34922569 C7.05200946,2.34922569 5.72813239,2.90399322 4.63120567,3.83701135 L4.63120567,3.83701135 L4.59338061,3.87483641 L4.59338061,3.91266146 C4.59338061,3.98831158 4.63120567,4.02613664 4.63120567,4.02613664 C4.66903073,4.02613664 4.70685579,3.98831158 4.70685579,3.98831158 C5.69030733,3.35789393 6.73680063,3.0426851 7.94720252,3.05529346 C9.86367218,3.05529346 11.5027581,3.96309488 12.5996848,5.28697194 C12.6753349,5.40044712 12.8014184,5.47609724 12.9527187,5.47609724 C13.2301024,5.47609724 13.4192277,5.28697194 13.4192277,5.04741324 C13.4192277,4.92132971 13.3814027,4.80785453 13.3057526,4.73220441 L13.3057526,4.73220441 L13.2726556,4.69910748 C13.2679275,4.69437935 13.2679275,4.69437935 13.2679275,4.69437935 C12.1710008,3.32006887 10.4940898,2.38705075 8.57762017,2.34922569 Z" id="icon" fill="#45FF00"></path>
    </g>
</svg>