<svg width="18" height="18" viewBox="0 0 18 18" fill="none" xmlns="http://www.w3.org/2000/svg">
<g id="18/communication-communication-chat_alt">
<path id="icon" d="M4.5 12H10.5V10.5H4.5V12ZM4.5 9H13.5V7.5H4.5V9ZM4.5 6H13.5V4.5H4.5V6ZM1.5 17.25V3.75C1.5 3.3375 1.647 2.98425 1.941 2.69025C2.2345 2.39675 2.5875 2.25 3 2.25H15C15.4125 2.25 15.7657 2.39675 16.0597 2.69025C16.3533 2.98425 16.5 3.3375 16.5 3.75V12.75C16.5 13.1625 16.3533 13.5157 16.0597 13.8097C15.7657 14.1033 15.4125 14.25 15 14.25H4.5L1.5 17.25Z" fill="#6C6F80"/>
</g>
</svg>
