<svg width="18" height="18" viewBox="0 0 18 18" fill="none" xmlns="http://www.w3.org/2000/svg">
<g id="18/communication-chat-outline">
<path id="icon " fill-rule="evenodd" clip-rule="evenodd" d="M13.5 13.5L16.5 16.5V3C16.5 2.5875 16.3532 2.23425 16.0597 1.94025C15.7657 1.64675 15.4125 1.5 15 1.5H3C2.5875 1.5 2.2345 1.64675 1.941 1.94025C1.647 2.23425 1.5 2.5875 1.5 3V12C1.5 12.4125 1.647 12.7657 1.941 13.0597C2.2345 13.3533 2.5875 13.5 3 13.5H13.5ZM14.9982 3H3.00257L3.00166 3.00091L3 3.00258V11.9974L3.00166 11.9991L3.00257 12H14.1213L15 12.8787V3.00184L14.9991 3.00092L14.9982 3Z" fill="#6C6F80"/>
</g>
</svg>
