<?xml version="1.0" encoding="UTF-8"?>
<svg width="18px" height="18px" viewBox="0 0 18 18" version="1.1" xmlns="http://www.w3.org/2000/svg" xmlns:xlink="http://www.w3.org/1999/xlink">
    <title>Icons/18/communication-skype</title>
    <g id="Icons/18/communication-skype" stroke="none" stroke-width="1" fill="none" fill-rule="evenodd">
        <path d="M13.6666667,4.33333333 C15.2766667,5.92 15.8833333,8.13666667 15.5022222,10.2055556 C15.8211111,10.7655556 16,11.4188889 16,12.1111111 C16,14.2588851 14.2588851,16 12.1111111,16 C11.4188889,16 10.7655556,15.8211111 10.2055556,15.5022222 C8.13666667,15.8833333 5.92,15.2766667 4.33333333,13.6666667 C2.72333333,12.08 2.11666667,9.86333333 2.49777778,7.79444444 C2.17888889,7.23444444 2,6.58111111 2,5.88888889 C2,3.74111486 3.74111486,2 5.88888889,2 C6.58111111,2 7.23444444,2.17888889 7.79444444,2.49777778 C9.86333333,2.11666667 12.08,2.72333333 13.6666667,4.33333333 L13.6666667,4.33333333 Z M9.03111111,13.0133333 C11.2633333,13.0133333 12.3755556,11.94 12.3755556,10.4933333 C12.3755556,9.56777778 11.94,8.58 10.2522222,8.19888889 L8.70444444,7.85666667 C8.11333333,7.72444444 7.44444444,7.54555556 7.44444444,6.99333333 C7.44444444,6.43333333 7.91111111,6.04444444 8.76666667,6.04444444 C10.5011111,6.04444444 10.3377778,7.23444444 11.2011111,7.23444444 C11.6522222,7.23444444 12.0411111,6.97 12.0411111,6.51111111 C12.0411111,5.44555556 10.3377778,4.64444444 8.89111111,4.64444444 C7.32777778,4.64444444 5.65555556,5.31333333 5.65555556,7.08666667 C5.65555556,7.94222222 5.95888889,8.85222222 7.63888889,9.27222222 L9.73111111,9.80111111 C10.3611111,9.95666667 10.5166667,10.3066667 10.5166667,10.6333333 C10.5166667,11.1622222 9.98777778,11.6833333 9.03111111,11.6833333 C7.15666667,11.6833333 7.41333333,10.2444444 6.41,10.2444444 C5.95888889,10.2444444 5.63222222,10.5555556 5.63222222,10.9988889 C5.63222222,11.8622222 6.66666667,13.0133333 9.03111111,13.0133333 Z" id="icon" fill="#45FF00"></path>
    </g>
</svg>