<svg width="18" height="18" viewBox="0 0 18 18" fill="none" xmlns="http://www.w3.org/2000/svg">
<path fill-rule="evenodd" clip-rule="evenodd" d="M4.81556 8.05889C5.93556 10.26 7.74 12.0567 9.94111 13.1844L11.6522 11.4733C11.8622 11.2633 12.1733 11.1933 12.4456 11.2867C13.3167 11.5744 14.2578 11.73 15.2222 11.73C15.65 11.73 16 12.08 16 12.5078V15.2222C16 15.65 15.65 16 15.2222 16C7.91889 16 2 10.0811 2 2.77778C2 2.35 2.35 2 2.77778 2H5.5C5.92778 2 6.27778 2.35 6.27778 2.77778C6.27778 3.75 6.43333 4.68333 6.72111 5.55444C6.80667 5.82667 6.74444 6.13 6.52667 6.34778L4.81556 8.05889Z" fill="#6C6F80"/>
</svg>
