<?xml version="1.0" encoding="UTF-8"?>
<svg width="18px" height="18px" viewBox="0 0 18 18" version="1.1" xmlns="http://www.w3.org/2000/svg" xmlns:xlink="http://www.w3.org/1999/xlink">
    <title>Icons/18/communication-skype_business</title>
    <g id="Icons/18/communication-skype_business" stroke="none" stroke-width="1" fill="none" fill-rule="evenodd">
        <path d="M9.02333333,12.5233333 C6.95444444,12.5233333 6.02888889,11.5044444 6.02888889,10.7422222 C6.02888889,10.3533333 6.31666667,10.0733333 6.71333333,10.0733333 C7.6,10.0733333 7.37444444,11.3333333 9.02333333,11.3333333 C9.87111111,11.3333333 10.3455556,10.89 10.3455556,10.4155556 C10.3455556,10.1355556 10.2055556,9.82444444 9.64555556,9.68444444 L7.80222222,9.22555556 C6.31666667,8.85222222 6.04444444,8.05111111 6.04444444,7.29666667 C6.04444444,5.72555556 7.52222222,5.13444444 8.90666667,5.13444444 C10.1666667,5.13444444 11.6911111,5.84222222 11.6911111,6.78333333 C11.6911111,7.18777778 11.3333333,7.42111111 10.9444444,7.42111111 C10.1666667,7.42111111 10.3222222,6.37111111 8.79777778,6.37111111 C8.04333333,6.37111111 7.62333333,6.71333333 7.62333333,7.20333333 C7.62333333,7.69333333 8.22222222,7.83333333 8.73555556,7.97333333 L10.1044444,8.27666667 C11.5977778,8.61111111 11.9788889,9.48222222 11.9788889,10.2988889 C11.9788889,11.5744444 10.9988889,12.5233333 9.02333333,12.5233333 L9.02333333,12.5233333 Z M13.6666667,4.33333333 C15.2766667,5.92 15.8833333,8.13666667 15.5022222,10.2055556 C15.8211111,10.7655556 16,11.4188889 16,12.1111111 C16,14.2588851 14.2588851,16 12.1111111,16 C11.4188889,16 10.7655556,15.8211111 10.2055556,15.5022222 C8.13666667,15.8833333 5.92,15.2766667 4.33333333,13.6666667 C2.72333333,12.08 2.11666667,9.86333333 2.49777778,7.79444444 C2.17888889,7.23444444 2,6.58111111 2,5.88888889 C2,3.74111486 3.74111486,2 5.88888889,2 C6.58111111,2 7.23444444,2.17888889 7.79444444,2.49777778 C9.86333333,2.11666667 12.08,2.72333333 13.6666667,4.33333333 L13.6666667,4.33333333 Z M5.88888889,3.55555556 C4.60022447,3.55555556 3.55555556,4.60022447 3.55555556,5.88888889 C3.55555556,6.50333333 3.78888889,7.05555556 4.17777778,7.47555556 C3.63333333,9.21777778 4.04555556,11.1933333 5.42222222,12.5777778 C6.80666667,13.9544444 8.78222222,14.3666667 10.5244444,13.8222222 C10.9444444,14.2111111 11.4966667,14.4444444 12.1111111,14.4444444 C13.3997755,14.4444444 14.4444444,13.3997755 14.4444444,12.1111111 C14.4444444,11.4966667 14.2111111,10.9444444 13.8222222,10.5244444 C14.3666667,8.78222222 13.9544444,6.80666667 12.5777778,5.42222222 C11.1933333,4.04555556 9.21777778,3.63333333 7.47555556,4.17777778 C7.05555556,3.78888889 6.50333333,3.55555556 5.88888889,3.55555556 Z" id="icon" fill="#45FF00"></path>
    </g>
</svg>