<?xml version="1.0" encoding="UTF-8"?>
<svg width="18px" height="18px" viewBox="0 0 18 18" version="1.1" xmlns="http://www.w3.org/2000/svg" xmlns:xlink="http://www.w3.org/1999/xlink">
    <title>Icons/18/communication-phone</title>
    <g id="Icons/18/communication-phone" stroke="none" stroke-width="1" fill="none" fill-rule="evenodd">
        <path d="M4.81555556,8.05888889 C5.93555556,10.26 7.74,12.0566667 9.94111111,13.1844444 L11.6522222,11.4733333 C11.8622222,11.2633333 12.1733333,11.1933333 12.4455556,11.2866667 C13.3166667,11.5744444 14.2577778,11.73 15.2222222,11.73 C15.65,11.73 16,12.08 16,12.5077778 L16,15.2222222 C16,15.65 15.65,16 15.2222222,16 C7.91888889,16 2,10.0811111 2,2.77777778 C2,2.35 2.35,2 2.77777778,2 L5.5,2 C5.92777778,2 6.27777778,2.35 6.27777778,2.77777778 C6.27777778,3.75 6.43333333,4.68333333 6.72111111,5.55444444 C6.80666667,5.82666667 6.74444444,6.13 6.52666667,6.34777778 L4.81555556,8.05888889 Z" id="icon" fill="#45FF00"></path>
    </g>
</svg>