<svg width="18" height="18" viewBox="0 0 18 18" fill="none" xmlns="http://www.w3.org/2000/svg">
<g id="18/communication-mail-outline">
<path id="icon" fill-rule="evenodd" clip-rule="evenodd" d="M15 15C15.4125 15 15.7657 14.8533 16.0597 14.5597C16.3532 14.2657 16.5 13.9125 16.5 13.5V4.5C16.5 4.0875 16.3532 3.7345 16.0597 3.441C15.7657 3.147 15.4125 3 15 3H3C2.5875 3 2.2345 3.147 1.941 3.441C1.647 3.7345 1.5 4.0875 1.5 4.5V13.5C1.5 13.9125 1.647 14.2657 1.941 14.5597C2.2345 14.8533 2.5875 15 3 15H15ZM3.00256 4.50076L3.00332 4.5H14.9974L14.9984 4.50099L9 8.25L3.00256 4.50076ZM3 6.36116V13.4974L3.00166 13.4991L3.00257 13.5H14.9982L14.9991 13.4991L15 13.4982V6.36116L9 10.1112L3 6.36116Z" fill="#6C6F80"/>
</g>
</svg>
