<svg width="18" height="18" viewBox="0 0 18 18" fill="none" xmlns="http://www.w3.org/2000/svg">
<g id="18/communication-geo_tag">
<path id="icon" fill-rule="evenodd" clip-rule="evenodd" d="M4.491 11.7277C5.4845 13.1968 6.9875 14.7875 9 16.5C11.0125 14.7875 12.5157 13.1968 13.5098 11.7277C14.5033 10.2592 15 8.9 15 7.65C15 5.775 14.3967 4.28125 13.1903 3.16875C11.9843 2.05625 10.5875 1.5 9 1.5C7.4125 1.5 6.01575 2.05625 4.80975 3.16875C3.60325 4.28125 3 5.775 3 7.65C3 8.9 3.497 10.2592 4.491 11.7277ZM9 9.75C10.2426 9.75 11.25 8.74264 11.25 7.5C11.25 6.25736 10.2426 5.25 9 5.25C7.75736 5.25 6.75 6.25736 6.75 7.5C6.75 8.74264 7.75736 9.75 9 9.75Z" fill="#6C6F80"/>
</g>
</svg>
