<?xml version="1.0" encoding="UTF-8"?>
<svg width="18px" height="18px" viewBox="0 0 18 18" version="1.1" xmlns="http://www.w3.org/2000/svg" xmlns:xlink="http://www.w3.org/1999/xlink">
    <title>Icons/18/content-link</title>
    <g id="Icons/18/content-link" stroke="none" stroke-width="1" fill="none" fill-rule="evenodd">
        <path d="M7.9425,10.0575 C8.25,10.35 8.25,10.83 7.9425,11.1225 C7.65,11.415 7.17,11.415 6.8775,11.1225 C5.415,9.66 5.415,7.2825 6.8775,5.82 L6.8775,5.82 L9.5325,3.165 C10.995,1.7025 13.3725,1.7025 14.835,3.165 C16.2975,4.6275 16.2975,7.005 14.835,8.4675 L13.7175,9.585 C13.725,8.97 13.6275,8.355 13.4175,7.77 L13.77,7.41 C14.655,6.5325 14.655,5.1075 13.77,4.23 C12.8925,3.345 11.4675,3.345 10.59,4.23 L7.9425,6.8775 C7.0575,7.755 7.0575,9.18 7.9425,10.0575 L7.9425,10.0575 Z M10.0575,6.8775 C10.35,6.585 10.83,6.585 11.1225,6.8775 C12.585,8.34 12.585,10.7175 11.1225,12.18 L11.1225,12.18 L8.4675,14.835 C7.005,16.2975 4.6275,16.2975 3.165,14.835 C1.7025,13.3725 1.7025,10.995 3.165,9.5325 L4.2825,8.415 C4.275,9.03 4.3725,9.645 4.5825,10.2375 L4.23,10.59 C3.345,11.4675 3.345,12.8925 4.23,13.77 C5.1075,14.655 6.5325,14.655 7.41,13.77 L10.0575,11.1225 C10.9425,10.245 10.9425,8.82 10.0575,7.9425 C9.75,7.65 9.75,7.17 10.0575,6.8775 Z" id="icon" fill="#45FF00"></path>
    </g>
</svg>