<svg xmlns="http://www.w3.org/2000/svg" width="18" height="18" fill="none" viewBox="0 0 18 18">
  <path fill="#6C6F80" d="M10.06 4.758a2.25 2.25 0 0 1 3.183 3.182l-1.591 1.59 1.06 1.061 1.591-1.59A3.75 3.75 0 0 0 9 3.696L7.41 5.288l1.06 1.06 1.59-1.59Z"/>
  <path fill="#6C6F80" d="M12.182 6.88 6.88 12.182l-1.06-1.061 5.303-5.303 1.06 1.06Z"/>
  <path fill="#6C6F80" d="m6.349 8.47-1.591 1.591a2.25 2.25 0 0 0 3.182 3.182l1.59-1.59 1.061 1.06-1.59 1.59A3.75 3.75 0 1 1 3.696 9l1.591-1.59 1.06 1.06Z"/>
</svg>
