<svg width="18" height="18" viewBox="0 0 18 18" fill="none" xmlns="http://www.w3.org/2000/svg">
<path fill-rule="evenodd" clip-rule="evenodd" d="M1.5 3.95249L2.46 2.99999L15 15.54L14.0475 16.5L10.425 12.8775L8.4675 14.835C7.005 16.2975 4.6275 16.2975 3.165 14.835C1.7025 13.3725 1.7025 10.995 3.165 9.53249L4.2825 8.41499C4.275 9.02999 4.3725 9.64499 4.5825 10.2375L4.23 10.59C3.345 11.4675 3.345 12.8925 4.23 13.77C5.1075 14.655 6.5325 14.655 7.41 13.77L9.375 11.82L8.16 10.6125C8.1525 10.7925 8.0775 10.98 7.9425 11.1225C7.65 11.415 7.17 11.415 6.8775 11.1225C6.09 10.3275 5.7225 9.27749 5.79 8.24999L1.5 3.95249ZM9.5325 3.16499C10.995 1.70249 13.3725 1.70249 14.835 3.16499C16.2975 4.62749 16.2975 7.00499 14.835 8.46749L13.7175 9.58499C13.725 8.96999 13.6275 8.35499 13.4175 7.76999L13.77 7.40999C14.655 6.53249 14.655 5.10749 13.77 4.22999C12.8925 3.34499 11.4675 3.34499 10.59 4.22999L8.0925 6.72749L7.035 5.66249L9.5325 3.16499ZM10.0575 6.87749C10.35 6.58499 10.83 6.58499 11.1225 6.87749C12.15 7.90499 12.4575 9.37499 12.045 10.6725L10.71 9.34499C10.6725 8.83499 10.455 8.33249 10.0575 7.94249C9.75 7.64999 9.75 7.16999 10.0575 6.87749Z" fill="#6C6F80"/>
</svg>
