<svg xmlns="http://www.w3.org/2000/svg" width="18" height="18" fill="none" viewBox="0 0 18 18">
  <path fill="#6C6F80" d="M9 3.697A3.75 3.75 0 1 1 14.303 9l-.795.796a3.763 3.763 0 0 0-.221-1.902 2.25 2.25 0 0 0-3.226-3.136L7.939 6.879a2.25 2.25 0 0 0-.053 3.127l.053.055-1.06 1.06a3.75 3.75 0 0 1 0-5.303l2.12-2.121Z"/>
  <path fill="#6C6F80" d="m3.697 9 .742-.742a3.763 3.763 0 0 0 .223 1.905 2.25 2.25 0 0 0 3.278 3.08l2.12-2.121A2.25 2.25 0 0 0 9.44 7.5l1.098-1.098a3.75 3.75 0 0 1 .583 5.78l-2.12 2.122A3.75 3.75 0 1 1 3.696 9Z"/>
</svg>
