<svg xmlns="http://www.w3.org/2000/svg" width="18" height="18" fill="none" viewBox="0 0 18 18">
  <path fill="#6C6F80" d="M6.93 6.781s.001 0 0 0l-4.38-4.38L1.5 3.45l5.03 5.03a3.738 3.738 0 0 0 1.099 2.64l.771-.77 1.591 1.59-1.301 1.302a2.25 2.25 0 0 1-3.278-3.08 3.763 3.763 0 0 1-.223-1.905L4.447 9a3.75 3.75 0 0 0 5.303 5.304l1.302-1.302L15.3 17.25l1.05-1.05-4.258-4.258-1.067-1.067-2.932-2.932L6.93 6.78Zm1.98-.121L7.847 5.598 9.75 3.697A3.75 3.75 0 1 1 15.053 9l-.795.796a3.763 3.763 0 0 0-.221-1.902 2.25 2.25 0 0 0-3.226-3.136L8.909 6.659Z"/>
  <path fill="#6C6F80" d="m11.445 9.195 1.378 1.378a3.749 3.749 0 0 0-1.535-4.171L10.19 7.5c.225.107.435.254.62.44.355.353.566.796.635 1.255Z"/>
</svg>
