<svg width="18" height="18" viewBox="0 0 18 18" fill="none" xmlns="http://www.w3.org/2000/svg">
<path fill-rule="evenodd" clip-rule="evenodd" d="M7.94251 10.0575C8.25001 10.35 8.25001 10.83 7.94251 11.1225C7.65001 11.415 7.17001 11.415 6.87751 11.1225C5.41501 9.66001 5.41501 7.28251 6.87751 5.82001L9.53251 3.16501C10.995 1.70251 13.3725 1.70251 14.835 3.16501C16.2975 4.62751 16.2975 7.00501 14.835 8.46751L13.7175 9.58501C13.725 8.97001 13.6275 8.35501 13.4175 7.77001L13.77 7.41001C14.655 6.53251 14.655 5.10751 13.77 4.23001C12.8925 3.34501 11.4675 3.34501 10.59 4.23001L7.94251 6.87751C7.05751 7.75501 7.05751 9.18001 7.94251 10.0575ZM10.0575 6.87751C10.35 6.58501 10.83 6.58501 11.1225 6.87751C12.585 8.34001 12.585 10.7175 11.1225 12.18L8.46751 14.835C7.00501 16.2975 4.62751 16.2975 3.16501 14.835C1.70251 13.3725 1.70251 10.995 3.16501 9.53251L4.28251 8.41501C4.27501 9.03001 4.37251 9.64501 4.58251 10.2375L4.23001 10.59C3.34501 11.4675 3.34501 12.8925 4.23001 13.77C5.10751 14.655 6.53251 14.655 7.41001 13.77L10.0575 11.1225C10.9425 10.245 10.9425 8.82001 10.0575 7.94251C9.75001 7.65001 9.75001 7.17001 10.0575 6.87751Z" fill="#6C6F80"/>
</svg>
