<svg width="18" height="18" viewBox="0 0 18 18" fill="none" xmlns="http://www.w3.org/2000/svg">
<path fill-rule="evenodd" clip-rule="evenodd" d="M1.5 3.95251L2.46 3.00001L15 15.54L14.0475 16.5L10.425 12.8775L8.4675 14.835C7.005 16.2975 4.6275 16.2975 3.165 14.835C1.7025 13.3725 1.7025 10.995 3.165 9.53251L4.2825 8.41501C4.275 9.03001 4.3725 9.64501 4.5825 10.2375L4.23 10.59C3.345 11.4675 3.345 12.8925 4.23 13.77C5.1075 14.655 6.5325 14.655 7.41 13.77L9.375 11.82L8.16 10.6125C8.1525 10.7925 8.0775 10.98 7.9425 11.1225C7.65 11.415 7.17 11.415 6.8775 11.1225C6.09 10.3275 5.7225 9.27751 5.79 8.25001L1.5 3.95251ZM9.5325 3.16501C10.995 1.70251 13.3725 1.70251 14.835 3.16501C16.2975 4.62751 16.2975 7.00501 14.835 8.46751L13.7175 9.58501C13.725 8.97001 13.6275 8.35501 13.4175 7.77001L13.77 7.41001C14.655 6.53251 14.655 5.10751 13.77 4.23001C12.8925 3.34501 11.4675 3.34501 10.59 4.23001L8.0925 6.72751L7.035 5.66251L9.5325 3.16501ZM10.0575 6.87751C10.35 6.58501 10.83 6.58501 11.1225 6.87751C12.15 7.90501 12.4575 9.37501 12.045 10.6725L10.71 9.34501C10.6725 8.83501 10.455 8.33251 10.0575 7.94251C9.75 7.65001 9.75 7.17001 10.0575 6.87751Z" fill="#6C6F80"/>
</svg>
