<svg xmlns="http://www.w3.org/2000/svg" width="18" height="18" fill="none" viewBox="0 0 18 18">
  <path fill="#6C6F80" fill-rule="evenodd" d="M6 2.25a1.5 1.5 0 0 0-1.5 1.5v3A1.5 1.5 0 0 1 3 8.25h-.75v1.5H3a1.5 1.5 0 0 1 1.5 1.5v3a1.5 1.5 0 0 0 1.5 1.5h1.5v-1.5H6V10.5A1.5 1.5 0 0 0 4.5 9 1.5 1.5 0 0 0 6 7.5V3.75h1.5v-1.5m4.5 0a1.5 1.5 0 0 1 1.5 1.5v3a1.5 1.5 0 0 0 1.5 1.5h.75v1.5H15a1.5 1.5 0 0 0-1.5 1.5v3a1.5 1.5 0 0 1-1.5 1.5h-1.5v-1.5H12V10.5A1.5 1.5 0 0 1 13.5 9 1.5 1.5 0 0 1 12 7.5V3.75h-1.5v-1.5H12Z" clip-rule="evenodd"/>
</svg>
