<svg xmlns="http://www.w3.org/2000/svg" width="18" height="18" fill="none" viewBox="0 0 18 18">
  <path fill="#6C6F80" fill-rule="evenodd" d="M5.28 7.417 3.697 9A3.75 3.75 0 0 0 9 14.303l1.583-1.583 4.267 4.267 1.05-1.05-13.8-13.8-1.05 1.05 4.23 4.23Zm1.06 1.06 1.061 1.061-1.583 1.583 1.061 1.06L8.462 10.6l1.06 1.06-1.582 1.583a2.25 2.25 0 1 1-3.182-3.182L6.34 8.477Z" clip-rule="evenodd"/>
  <path fill="#6C6F80" d="M13.243 4.757a2.25 2.25 0 0 0-3.182 0L8.47 6.348l-1.06-1.06L9 3.695A3.75 3.75 0 0 1 14.303 9l-1.59 1.59-1.061-1.06 1.59-1.591a2.25 2.25 0 0 0 0-3.182Z"/>
  <path fill="#6C6F80" d="M11.122 5.818 9.539 7.4l1.06 1.06 1.583-1.583-1.06-1.06Z"/>
</svg>
