<svg width="18" height="18" viewBox="0 0 18 18" fill="none" xmlns="http://www.w3.org/2000/svg">
<path d="M8.39747 16.9748C8.16275 16.8904 8 16.6103 8 16.2907V11H5.54007C5.34607 11 5.16698 10.8634 5.07088 10.6421C4.97481 10.4208 4.97651 10.1489 5.07531 9.92962L8.99514 1.34799C9.11911 1.07302 9.36781 0.940928 9.60253 1.02518C9.83722 1.10957 10 1.38965 10 1.7092V7H12.4599C12.6539 7 12.833 7.13663 12.9291 7.3579C13.0252 7.57921 13.0235 7.85115 12.9247 8.07038L9.00486 16.652C8.88114 16.9264 8.63274 17.0593 8.39747 16.9748Z" fill="#6C6F80"/>
</svg>
