<svg width="18" height="18" viewBox="0 0 18 18" fill="none" xmlns="http://www.w3.org/2000/svg">
<g id="18/database-database">
<path id="icon" fill-rule="evenodd" clip-rule="evenodd" d="M9 2.25C5.685 2.25 3 3.5925 3 5.25C3 6.9075 5.685 8.25 9 8.25C12.315 8.25 15 6.9075 15 5.25C15 3.5925 12.315 2.25 9 2.25ZM3 6.75V9C3 10.6575 5.685 12 9 12C12.315 12 15 10.6575 15 9V6.75C15 8.4075 12.315 9.75 9 9.75C5.685 9.75 3 8.4075 3 6.75ZM3 10.5V12.75C3 14.4075 5.685 15.75 9 15.75C12.315 15.75 15 14.4075 15 12.75V10.5C15 12.1575 12.315 13.5 9 13.5C5.685 13.5 3 12.1575 3 10.5Z" fill="#6C6F80"/>
</g>
</svg>
