<svg width="18" height="18" viewBox="0 0 18 18" fill="none" xmlns="http://www.w3.org/2000/svg">
<g id="18/editor-chart-bubble">
<path id="icon" fill-rule="evenodd" clip-rule="evenodd" d="M11.4 10.2C13.3882 10.2 15 8.58823 15 6.6C15 4.61177 13.3882 3 11.4 3C9.41177 3 7.8 4.61177 7.8 6.6C7.8 8.58823 9.41177 10.2 11.4 10.2ZM7.8 10.8C7.8 12.1255 6.72548 13.2 5.4 13.2C4.07452 13.2 3 12.1255 3 10.8C3 9.47452 4.07452 8.4 5.4 8.4C6.72548 8.4 7.8 9.47452 7.8 10.8ZM12.6 13.5C12.6 14.3284 11.9284 15 11.1 15C10.2716 15 9.6 14.3284 9.6 13.5C9.6 12.6716 10.2716 12 11.1 12C11.9284 12 12.6 12.6716 12.6 13.5Z" fill="#6C6F80"/>
</g>
</svg>
