<svg xmlns="http://www.w3.org/2000/svg" width="18" height="18" fill="none" viewBox="0 0 18 18">
  <path fill="#6C6F80" fill-rule="evenodd" d="M9 1.5C4.86 1.5 1.5 4.86 1.5 9c0 4.14 3.36 7.5 7.5 7.5h3.75V15H9c-3.255 0-6-2.745-6-6s2.745-6 6-6 6 2.745 6 6v1.072c0 .593-.533 1.178-1.125 1.178s-1.125-.585-1.125-1.178V9c0-2.07-1.68-3.75-3.75-3.75-2.07 0-3.75 1.68-3.75 3.75a3.751 3.751 0 0 0 6.405 2.648c.488.667 1.328 1.102 2.22 1.102 1.477 0 2.625-1.2 2.625-2.678V9c0-4.14-3.36-7.5-7.5-7.5Zm0 9.75A2.247 2.247 0 0 1 6.75 9 2.247 2.247 0 0 1 9 6.75 2.247 2.247 0 0 1 11.25 9 2.247 2.247 0 0 1 9 11.25Z" clip-rule="evenodd"/>
</svg>
