<svg width="18" height="18" viewBox="0 0 18 18" fill="none" xmlns="http://www.w3.org/2000/svg">
<g id="18/editor-format_bold">
<path id="icon" fill-rule="evenodd" clip-rule="evenodd" d="M11.85 9.20625C12.5944 8.66786 13.1163 7.78393 13.1163 6.96429C13.1163 5.14821 11.7733 3.75 10.0465 3.75H5.25V15H10.6528C12.2567 15 13.5 13.6339 13.5 11.9545C13.5 10.733 12.84 9.68839 11.85 9.20625ZM7.3125 6H9.60417C10.2382 6 10.75 6.5025 10.75 7.125C10.75 7.7475 10.2382 8.25 9.60417 8.25H7.3125V6ZM10.2 12.75H7.3125V10.5H10.2C10.8847 10.5 11.4375 11.0025 11.4375 11.625C11.4375 12.2475 10.8847 12.75 10.2 12.75Z" fill="#6C6F80"/>
</g>
</svg>
