<svg width="18" height="18" viewBox="0 0 18 18" fill="none" xmlns="http://www.w3.org/2000/svg">
<g id="18/editor-chart-curve">
<path id="icon" fill-rule="evenodd" clip-rule="evenodd" d="M7.47 7.7325C8.115 5.325 8.625 3.75 9.75 3.75C10.875 3.75 11.385 5.325 12.03 7.7325C12.75 10.44 13.575 13.5 16.5 13.5V12C14.85 12 14.25 10.155 13.4775 7.35C12.81 4.845 12.1125 2.25 9.75 2.25C7.3875 2.25 6.69 4.845 6.0225 7.35C5.2725 10.155 4.65 12 3 12V2.25H1.5V15.75H16.5V14.25H3V13.5C5.925 13.5 6.75 10.44 7.47 7.7325Z" fill="#6C6F80"/>
</g>
</svg>
