<svg xmlns="http://www.w3.org/2000/svg" width="18" height="18" fill="none" viewBox="0 0 18 18">
  <path fill="#6C6F80" fill-rule="evenodd" d="M15.75 14.25v-1.5H5.25v1.5h10.5Zm0-4.5v-1.5H5.25v1.5h10.5Zm-10.5-4.5h10.5v-1.5H5.25v1.5Zm-3-1.5v1.5h1.5v-1.5h-1.5Zm-.75 0A.75.75 0 0 1 2.25 3h1.5a.75.75 0 0 1 .75.75v1.5a.75.75 0 0 1-.75.75h-1.5a.75.75 0 0 1-.75-.75v-1.5Zm.75 4.5v1.5h1.5v-1.5h-1.5Zm-.75 0a.75.75 0 0 1 .75-.75h1.5a.75.75 0 0 1 .75.75v1.5a.75.75 0 0 1-.75.75h-1.5a.75.75 0 0 1-.75-.75v-1.5Zm.75 4.5v1.5h1.5v-1.5h-1.5Zm-.75 0a.75.75 0 0 1 .75-.75h1.5a.75.75 0 0 1 .75.75v1.5a.75.75 0 0 1-.75.75h-1.5a.75.75 0 0 1-.75-.75v-1.5Z" clip-rule="evenodd"/>
</svg>
