<svg width="18" height="18" viewBox="0 0 18 18" fill="none" xmlns="http://www.w3.org/2000/svg">
<g id="18/editor-list_bullet">
<path id="icon" fill-rule="evenodd" clip-rule="evenodd" d="M3 7.875C2.3775 7.875 1.875 8.3775 1.875 9C1.875 9.6225 2.3775 10.125 3 10.125C3.6225 10.125 4.125 9.6225 4.125 9C4.125 8.3775 3.6225 7.875 3 7.875ZM3 3.375C2.3775 3.375 1.875 3.8775 1.875 4.5C1.875 5.1225 2.3775 5.625 3 5.625C3.6225 5.625 4.125 5.1225 4.125 4.5C4.125 3.8775 3.6225 3.375 3 3.375ZM3 12.375C2.3775 12.375 1.875 12.885 1.875 13.5C1.875 14.115 2.385 14.625 3 14.625C3.615 14.625 4.125 14.115 4.125 13.5C4.125 12.885 3.6225 12.375 3 12.375ZM5.25 14.25H15.75V12.75H5.25V14.25ZM5.25 9.75H15.75V8.25H5.25V9.75ZM5.25 3.75V5.25H15.75V3.75H5.25Z" fill="#6C6F80"/>
</g>
</svg>
