<svg width="18" height="18" viewBox="0 0 18 18" fill="none" xmlns="http://www.w3.org/2000/svg">
<g id="18/empty">
<path id="icon" d="M13.766 5.3546C14.54 6.36506 15 7.62881 15 9C15 12.3137 12.3137 15 9 15C8.79454 15 8.5915 14.9897 8.39136 14.9695L7.10288 16.258C7.70882 16.4159 8.34459 16.5 9 16.5C13.1421 16.5 16.5 13.1421 16.5 9C16.5 7.21436 15.876 5.57446 14.8341 4.2865L16.2193 2.90128L15.1587 1.84062L4.28643 12.7129C3.48077 11.6915 3 10.4019 3 9C3 5.68629 5.68629 3 9 3C9.24464 3 9.48586 3.01464 9.72284 3.0431L10.9971 1.76882C10.3613 1.5936 9.69156 1.5 9 1.5C4.85786 1.5 1.5 4.85786 1.5 9C1.5 10.8163 2.14561 12.4817 3.21985 13.7794L1.84058 15.1587L2.90124 16.2194L13.766 5.3546Z" fill="#6C6F80"/>
</g>
</svg>
