<svg width="18" height="18" viewBox="0 0 18 18" fill="none" xmlns="http://www.w3.org/2000/svg">
<path fill-rule="evenodd" clip-rule="evenodd" d="M0.484314 16.3235C0.171895 16.6359 0.171895 17.1424 0.484314 17.4549C0.796729 17.7673 1.30327 17.7673 1.61569 17.4549L13.62 5.45058C14.3322 6.45931 14.75 7.68861 14.75 9.01608C14.75 12.4447 11.9725 15.2206 8.55 15.2206C8.10817 15.2206 7.75 15.5788 7.75 16.0206C7.75 16.4624 8.10817 16.8206 8.55 16.8206C12.8567 16.8206 16.35 13.3278 16.35 9.01608C16.35 7.2475 15.7589 5.61445 14.7646 4.30601L17.4549 1.61569C17.7673 1.30327 17.7673 0.796734 17.4549 0.484315C17.1425 0.171896 16.6359 0.171895 16.3235 0.484314L3.80171 13.0061C2.89527 11.9272 2.35 10.5364 2.35 9.01608C2.35 5.5972 5.12683 2.82063 8.55 2.82063C8.99183 2.82063 9.35 2.46245 9.35 2.02063C9.35 1.5788 8.99183 1.22063 8.55 1.22063C4.24401 1.22063 0.749999 4.71271 0.749999 9.01608C0.749999 10.9774 1.47373 12.7705 2.66697 14.1408L0.484314 16.3235Z" fill="#6C6F80"/>
</svg>
