<?xml version="1.0" encoding="UTF-8"?>
<svg width="18px" height="18px" viewBox="0 0 18 18" version="1.1" xmlns="http://www.w3.org/2000/svg" xmlns:xlink="http://www.w3.org/1999/xlink">
    <title>Icons/18/fav &amp; rates-favorite-outline</title>
    <g id="Icons/18/fav-&amp;-rates-favorite-outline" stroke="none" stroke-width="1" fill="none" fill-rule="evenodd">
        <path d="M12.375,2.25 C11.07,2.25 9.8175,2.8575 9,3.8175 C8.1825,2.8575 6.93,2.25 5.625,2.25 C3.315,2.25 1.5,4.065 1.5,6.375 C1.5,9.21 4.05,11.52 7.9125,15.03 L9,16.0125 L10.0875,15.0225 C13.95,11.52 16.5,9.21 16.5,6.375 C16.5,4.065 14.685,2.25 12.375,2.25 Z M9.075,13.9125 L9,13.9875 L8.925,13.9125 C5.355,10.68 3,8.5425 3,6.375 C3,4.875 4.125,3.75 5.625,3.75 C6.78,3.75 7.905,4.4925 8.3025,5.52 L9.705,5.52 C10.095,4.4925 11.22,3.75 12.375,3.75 C13.875,3.75 15,4.875 15,6.375 C15,8.5425 12.645,10.68 9.075,13.9125 Z" id="icon" fill="#45FF00"></path>
    </g>
</svg>