<svg width="18" height="18" viewBox="0 0 18 18" fill="none" xmlns="http://www.w3.org/2000/svg">
<path fill-rule="evenodd" clip-rule="evenodd" d="M12 4.875V13.5C12 15.1575 10.6575 16.5 9 16.5C7.3425 16.5 6 15.1575 6 13.5L6 4.125C6 3.09 6.84 2.25 7.875 2.25C8.91 2.25 9.75 3.09 9.75 4.125V12C9.75 12.4125 9.4125 12.75 9 12.75C8.5875 12.75 8.25 12.4125 8.25 12V4.875H7.125L7.125 12C7.125 13.035 7.965 13.875 9 13.875C10.035 13.875 10.875 13.035 10.875 12V4.125C10.875 2.4675 9.5325 1.125 7.875 1.125C6.2175 1.125 4.875 2.4675 4.875 4.125L4.875 13.5C4.875 15.78 6.72 17.625 9 17.625C11.28 17.625 13.125 15.78 13.125 13.5V4.875H12Z" fill="#6C6F80"/>
</svg>
