<?xml version="1.0" encoding="UTF-8"?>
<svg width="18px" height="18px" viewBox="0 0 18 18" version="1.1" xmlns="http://www.w3.org/2000/svg" xmlns:xlink="http://www.w3.org/1999/xlink">
    <title>Icons/18/file-archive</title>
    <g id="Icons/18/file-archive" stroke="none" stroke-width="1" fill="none" fill-rule="evenodd">
        <path d="M15.6422222,3.73444444 L14.5611111,2.42777778 C14.3511111,2.16333333 14.0322222,2 13.6666667,2 L4.33333333,2 C3.96777778,2 3.64888889,2.16333333 3.43111111,2.42777778 L2.35777778,3.73444444 C2.13222222,3.99888889 2,4.34888889 2,4.72222222 L2,14.4444444 C2,15.3 2.7,16 3.55555556,16 L14.4444444,16 C15.3,16 16,15.3 16,14.4444444 L16,4.72222222 C16,4.34888889 15.8677778,3.99888889 15.6422222,3.73444444 Z M9,13.2777778 L4.72222222,9 L7.44444444,9 L7.44444444,7.44444444 L10.5555556,7.44444444 L10.5555556,9 L13.2777778,9 L9,13.2777778 Z M3.64888889,3.55555556 L4.27888889,2.77777778 L13.6122222,2.77777778 L14.3433333,3.55555556 L3.64888889,3.55555556 Z" id="Shape" fill="#45FF00"></path>
    </g>
</svg>