<svg width="18" height="18" viewBox="0 0 18 18" fill="none" xmlns="http://www.w3.org/2000/svg">
<g id="18/file-file_image">
<path id="icon" fill-rule="evenodd" clip-rule="evenodd" d="M9.75 6.75H13.875L9.75 2.625V6.75ZM4.5 1.5H10.5L15 6V15C15 15.8284 14.3284 16.5 13.5 16.5H4.5C3.6675 16.5 3 15.825 3 15V3C3 2.1675 3.6675 1.5 4.5 1.5ZM4.5 15H13.5V9L10.5 12L9 10.5L4.5 15ZM6 6.75C5.17157 6.75 4.5 7.42157 4.5 8.25C4.5 9.07843 5.17157 9.75 6 9.75C6.82843 9.75 7.5 9.07843 7.5 8.25C7.5 7.42157 6.82843 6.75 6 6.75Z" fill="#6C6F80"/>
</g>
</svg>
