<svg width="18" height="18" viewBox="0 0 18 18" fill="none" xmlns="http://www.w3.org/2000/svg">
<g id="18/file-file_archive">
<path id="icon" fill-rule="evenodd" clip-rule="evenodd" d="M15.6422 3.73444L14.5611 2.42778C14.3511 2.16333 14.0322 2 13.6667 2H4.33333C3.96778 2 3.64889 2.16333 3.43111 2.42778L2.35778 3.73444C2.13222 3.99889 2 4.34889 2 4.72222V14.4444C2 15.3 2.7 16 3.55556 16H14.4444C15.3 16 16 15.3 16 14.4444V4.72222C16 4.34889 15.8678 3.99889 15.6422 3.73444ZM9 13.2778L4.72222 9H7.44444V7.44444H10.5556V9H13.2778L9 13.2778ZM3.64889 3.55556L4.27889 2.77778H13.6122L14.3433 3.55556H3.64889Z" fill="#6C6F80"/>
</g>
</svg>
