<?xml version="1.0" encoding="UTF-8"?>
<svg width="18px" height="18px" viewBox="0 0 18 18" version="1.1" xmlns="http://www.w3.org/2000/svg" xmlns:xlink="http://www.w3.org/1999/xlink">
    <title>Icons/18/file-attachment</title>
    <g id="Icons/18/file-attachment" stroke="none" stroke-width="1" fill="none" fill-rule="evenodd">
        <path d="M13.5,12.375 L4.875,12.375 C3.2175,12.375 1.875,11.0325 1.875,9.375 C1.875,7.7175 3.2175,6.375 4.875,6.375 L14.25,6.375 C15.285,6.375 16.125,7.215 16.125,8.25 C16.125,9.285 15.285,10.125 14.25,10.125 L6.375,10.125 C5.9625,10.125 5.625,9.7875 5.625,9.375 C5.625,8.9625 5.9625,8.625 6.375,8.625 L13.5,8.625 L13.5,7.5 L6.375,7.5 C5.34,7.5 4.5,8.34 4.5,9.375 C4.5,10.41 5.34,11.25 6.375,11.25 L14.25,11.25 C15.9075,11.25 17.25,9.9075 17.25,8.25 C17.25,6.5925 15.9075,5.25 14.25,5.25 L4.875,5.25 C2.595,5.25 0.75,7.095 0.75,9.375 C0.75,11.655 2.595,13.5 4.875,13.5 L13.5,13.5 L13.5,12.375 Z" id="icon" fill="#45FF00" transform="translate(9.000000, 9.375000) rotate(-90.000000) translate(-9.000000, -9.375000) "></path>
    </g>
</svg>