<svg width="18" height="18" viewBox="0 0 18 18" fill="none" xmlns="http://www.w3.org/2000/svg">
<path d="M4.22188 7.49688L2.55 12.4031C2.5457 12.416 2.54337 12.4289 2.54121 12.4409C2.53865 12.4551 2.53633 12.468 2.53125 12.4781V5.15625C2.53125 4.5375 3.0375 4.03125 3.65625 4.03125H6.75L8.07187 5.25H13.0406C13.4812 5.25 13.8781 6.61562 14 7H4.8125C4.55 7 4.30625 7.19687 4.22188 7.49688Z" fill="#6C6F80"/>
<path d="M4.73438 8.61875L3.40938 13.0062C3.26875 13.4937 3.56875 14 4 14L13.3313 14.0156C13.6031 14.0156 13.8375 13.8094 13.9219 13.5L15.3469 8.975C15.4781 8.49688 15.1781 8 14.7563 8L5.325 8.12187C5.0625 8.12187 4.81875 8.31875 4.73438 8.61875Z" fill="#6C6F80"/>
</svg>
