<svg xmlns="http://www.w3.org/2000/svg" width="18" height="18" fill="none" viewBox="0 0 18 18">
  <path fill="#6C6F80" d="M2.25 3c-.75 0-1.5.75-1.5 1.5V12l1.805-6H15.75c0-.75-.75-1.5-1.5-1.5h-6L6.75 3h-4.5Z"/>
  <path fill="#6C6F80" fill-rule="evenodd" d="M4.047 7.5 1.797 15h11.7c.325 0 .622-.097.891-.29.269-.194.453-.454.553-.779L16.872 7.5H4.047ZM14.856 9H5.163l-1.35 4.5h9.689l.004-.003.002-.004L14.856 9Zm-1.35 4.5.01.004-.01-.004Zm0 0-.001.001a.043.043 0 0 0-.004.006l.003-.007" clip-rule="evenodd"/>
</svg>
