<svg width="18" height="18" viewBox="0 0 18 18" fill="none" xmlns="http://www.w3.org/2000/svg">
<g id="18/format_paint">
<path id="icon" d="M8.25 16.5C7.8375 16.5 7.48438 16.3531 7.19063 16.0594C6.89688 15.7656 6.75 15.4125 6.75 15V12H4.5C4.0875 12 3.73438 11.8531 3.44063 11.5594C3.14687 11.2656 3 10.9125 3 10.5V5.25C3 4.425 3.29375 3.71875 3.88125 3.13125C4.46875 2.54375 5.175 2.25 6 2.25H15V10.5C15 10.9125 14.8531 11.2656 14.5594 11.5594C14.2656 11.8531 13.9125 12 13.5 12H11.25V15C11.25 15.4125 11.1031 15.7656 10.8094 16.0594C10.5156 16.3531 10.1625 16.5 9.75 16.5H8.25ZM4.5 7.5H13.5V3.75H12.75V6.75H11.25V3.75H10.5V5.25H9V3.75H6C5.5875 3.75 5.23438 3.89688 4.94063 4.19063C4.64688 4.48438 4.5 4.8375 4.5 5.25V7.5ZM4.5 10.5H13.5V9H4.5V10.5Z" fill="#6C6F80"/>
</g>
</svg>
