<svg xmlns="http://www.w3.org/2000/svg" width="18" height="18" fill="none" viewBox="0 0 18 18">
  <path fill="#6C6F80" d="M8.25 16.5a1.45 1.45 0 0 1-1.06-.44A1.445 1.445 0 0 1 6.75 15v-3H4.5a1.45 1.45 0 0 1-1.06-.44A1.445 1.445 0 0 1 3 10.5V5.25c0-.825.294-1.531.881-2.119A2.889 2.889 0 0 1 6 2.25h9v8.25c0 .412-.147.766-.44 1.06a1.45 1.45 0 0 1-1.06.44h-2.25v3c0 .412-.147.766-.44 1.06a1.45 1.45 0 0 1-1.06.44h-1.5Zm-3.75-9h9V3.75h-.75v3h-1.5v-3h-.75v1.5H9v-1.5H6a1.45 1.45 0 0 0-1.06.44c-.293.294-.44.647-.44 1.06V7.5Zm0 3h9V9h-9v1.5Z"/>
</svg>
