<svg width="18" height="18" viewBox="0 0 18 18" fill="none" xmlns="http://www.w3.org/2000/svg">
<g id="18/gitlab">
<path id="Vector" d="M16.4727 9.99178L15.6324 7.40999L13.9694 2.28895C13.9504 2.23182 13.9137 2.18215 13.8648 2.14696C13.8158 2.11177 13.7572 2.09282 13.6968 2.09282C13.6366 2.09282 13.5778 2.11177 13.5289 2.14696C13.48 2.18215 13.4434 2.23182 13.4242 2.28895L11.7614 7.40688H6.23631L4.57341 2.28895C4.55439 2.23177 4.51784 2.18202 4.46895 2.14676C4.42006 2.1115 4.3613 2.09253 4.30101 2.09253C4.24072 2.09253 4.18197 2.1115 4.13307 2.14676C4.08418 2.18202 4.04763 2.23177 4.0286 2.28895L2.36839 7.40688L1.52805 9.99178C1.49072 10.1066 1.49065 10.2302 1.52783 10.345C1.56503 10.4599 1.63759 10.56 1.73513 10.6311L8.99949 15.9075L16.2625 10.6311C16.3605 10.5603 16.4335 10.4604 16.4713 10.3455C16.5091 10.2307 16.5096 10.1069 16.4727 9.99178Z" fill="#6C6F80"/>
</g>
</svg>
