<svg width="18" height="18" viewBox="0 0 18 18" fill="none" xmlns="http://www.w3.org/2000/svg">
<g id="18/global_menu">
<path id="global icon" fill-rule="evenodd" clip-rule="evenodd" d="M9 8.26758C9.55228 8.26758 10 8.71529 10 9.26758C10 9.81986 9.55228 10.2676 9 10.2676C8.44772 10.2676 8 9.81986 8 9.26758C8 8.71529 8.44772 8.26758 9 8.26758ZM13 8.26758C13.5523 8.26758 14 8.71529 14 9.26758C14 9.81986 13.5523 10.2676 13 10.2676C12.4477 10.2676 12 9.81986 12 9.26758C12.0016 8.71598 12.4484 8.26923 13 8.26758ZM5 8.26758C5.55228 8.26758 6 8.71529 6 9.26758C6 9.81986 5.55228 10.2676 5 10.2676C4.44772 10.2676 4 9.81986 4 9.26758C4 8.71529 4.44772 8.26758 5 8.26758ZM9 3.76758C9.55228 3.76758 10 4.21529 10 4.76758C10 5.31986 9.55228 5.76758 9 5.76758C8.44772 5.76758 8 5.31986 8 4.76758C8 4.21529 8.44772 3.76758 9 3.76758ZM13 3.76758C13.5523 3.76758 14 4.21529 14 4.76758C14 5.31986 13.5523 5.76758 13 5.76758C12.4477 5.76758 12 5.31986 12 4.76758C12.0016 4.21598 12.4484 3.76923 13 3.76758ZM5 3.76758C5.55228 3.76758 6 4.21529 6 4.76758C6 5.31986 5.55228 5.76758 5 5.76758C4.44772 5.76758 4 5.31986 4 4.76758C4 4.21529 4.44772 3.76758 5 3.76758ZM9 12.7676C9.55228 12.7676 10 13.2153 10 13.7676C10 14.3199 9.55228 14.7676 9 14.7676C8.44772 14.7676 8 14.3199 8 13.7676C8 13.2153 8.44772 12.7676 9 12.7676ZM13 12.7676C13.5523 12.7676 14 13.2153 14 13.7676C14 14.3199 13.5523 14.7676 13 14.7676C12.4477 14.7676 12 14.3199 12 13.7676C12.0016 13.216 12.4484 12.7692 13 12.7676ZM5 12.7676C5.55228 12.7676 6 13.2153 6 13.7676C6 14.3199 5.55228 14.7676 5 14.7676C4.44772 14.7676 4 14.3199 4 13.7676C4 13.2153 4.44772 12.7676 5 12.7676Z" fill="#6C6F80"/>
</g>
</svg>
