<svg width="18" height="18" viewBox="0 0 18 18" fill="none" xmlns="http://www.w3.org/2000/svg">
<g id="18/grow">
<g id="icon">
<path d="M10.2652 10.8824C10.8479 11.8142 11.1978 13.1336 11.1835 14.6471C11.6427 14.6471 18.0712 9 15.3161 1C12.1019 1.94118 7.51013 5.70588 7.05095 8.05882C7.85704 8.28494 8.73625 8.89294 9.34684 9.47059C9.80601 8.05882 11.6427 6.17647 13.0202 5.23529C11.6427 7.11765 10.7244 8.52941 10.2652 10.8824Z" fill="#6C6F80"/>
<path d="M2 9.00002C2.45918 13.2353 4.75506 16.5294 8.42846 17C8.42846 14.6471 5.67341 11.353 4.75506 10.8824C7.51011 11.353 9.34682 13.7059 10.2652 16.5294C10.2652 16.5294 10.7243 7.11766 2 9.00002Z" fill="#6C6F80"/>
</g>
</g>
</svg>
