<svg xmlns="http://www.w3.org/2000/svg" width="18" height="18" fill="none" viewBox="0 0 18 18">
  <path fill="#6C6F80" d="M1.286 9.773h1.928c.054.398.149.783.281 1.153l-1.679.97a7.705 7.705 0 0 1-.53-2.123ZM2.86 4.237a7.734 7.734 0 0 1 1.522-1.491l.966 1.674c-.293.237-.565.5-.808.787l-1.68-.97ZM9.91 3.22V1.285a7.732 7.732 0 0 1 6.798 7.687c0 4.275-3.463 7.741-7.733 7.741a7.702 7.702 0 0 1-3.112-.654l.965-1.674a5.83 5.83 0 0 0 7.97-5.416A5.832 5.832 0 0 0 9.91 3.22ZM8.047 1.286v1.933c-.373.06-.732.158-1.08.285l-.969-1.678a7.68 7.68 0 0 1 2.049-.54Zm-6.73 6.626a7.78 7.78 0 0 1 .59-2.076l1.67.967a5.675 5.675 0 0 0-.322 1.109H1.317Zm1.402 5.611 1.673-.967c.252.32.533.613.84.876l-.97 1.68a7.834 7.834 0 0 1-1.543-1.589Z"/>
  <path fill="#6C6F80" d="m5.358 8.832 2.796 2.74 4.228-4.61-1.067-1.202-3.16 3.584-1.726-1.63-1.07 1.118Z"/>
</svg>
