<svg width="18" height="18" viewBox="0 0 18 18" fill="none" xmlns="http://www.w3.org/2000/svg">
<path d="M9 1.5C7.60761 1.5 6.27226 2.05312 5.28769 3.03769C4.30312 4.02226 3.75 5.35761 3.75 6.75C3.75 8.535 4.6425 10.1025 6 11.055V12.75C6 12.9489 6.07902 13.1397 6.21967 13.2803C6.36032 13.421 6.55109 13.5 6.75 13.5H11.25C11.4489 13.5 11.6397 13.421 11.7803 13.2803C11.921 13.1397 12 12.9489 12 12.75V11.055C13.3575 10.1025 14.25 8.535 14.25 6.75C14.25 5.35761 13.6969 4.02226 12.7123 3.03769C11.7277 2.05312 10.3924 1.5 9 1.5V1.5ZM6.75 15.75C6.75 15.9489 6.82902 16.1397 6.96967 16.2803C7.11032 16.421 7.30109 16.5 7.5 16.5H10.5C10.6989 16.5 10.8897 16.421 11.0303 16.2803C11.171 16.1397 11.25 15.9489 11.25 15.75V15H6.75V15.75Z" fill="#6C6F80"/>
</svg>
