<svg width="18" height="18" viewBox="0 0 18 18" fill="none" xmlns="http://www.w3.org/2000/svg">
<g id="18/interest">
<g id="icon">
<path d="M7.941 16.0597C8.2345 16.3532 8.5875 16.5 9 16.5C9.4125 16.5 9.76575 16.3532 10.0598 16.0597C10.3533 15.7657 10.5 15.4125 10.5 15H7.5C7.5 15.4125 7.647 15.7657 7.941 16.0597Z" fill="#6C6F80"/>
<path d="M6 11.884C5.22527 11.3854 4.60352 10.7365 4.13475 9.9375C3.62825 9.075 3.375 8.1375 3.375 7.125C3.375 5.5625 3.922 4.2345 5.016 3.141C6.1095 2.047 7.4375 1.5 9 1.5C10.5625 1.5 11.8905 2.047 12.984 3.141C14.078 4.2345 14.625 5.5625 14.625 7.125C14.625 8.1375 14.372 9.075 13.866 9.9375C13.3968 10.7365 12.7748 11.3854 12 11.884V13.5H6V11.884Z" fill="#6C6F80"/>
</g>
</g>
</svg>
