<svg xmlns="http://www.w3.org/2000/svg" width="18" height="18" fill="none" viewBox="0 0 18 18">
  <path fill="#6C6F80" d="M8.25 12.75h-3a3.613 3.613 0 0 1-2.653-1.097A3.613 3.613 0 0 1 1.5 9a3.62 3.62 0 0 1 1.097-2.654A3.618 3.618 0 0 1 5.25 5.25h3v1.5h-3a2.17 2.17 0 0 0-1.594.656A2.17 2.17 0 0 0 3 9c0 .625.219 1.156.656 1.594a2.17 2.17 0 0 0 1.594.656h3v1.5ZM6 9.75v-1.5h6v1.5H6Zm3.75 3v-1.5h3a2.17 2.17 0 0 0 1.594-.656A2.17 2.17 0 0 0 15 9a2.17 2.17 0 0 0-.656-1.594 2.17 2.17 0 0 0-1.594-.656h-3v-1.5h3c1.037 0 1.922.365 2.653 1.096A3.616 3.616 0 0 1 16.5 9a3.615 3.615 0 0 1-1.097 2.653 3.615 3.615 0 0 1-2.653 1.097h-3Z"/>
</svg>
