<?xml version="1.0" encoding="UTF-8"?>
<svg width="18px" height="18px" viewBox="0 0 18 18" version="1.1" xmlns="http://www.w3.org/2000/svg" xmlns:xlink="http://www.w3.org/1999/xlink">
    <title>Icons/18/media-playlist-remove</title>
    <g id="Icons/18/media-playlist-remove" stroke="none" stroke-width="1" fill="none" fill-rule="evenodd">
        <path d="M2.25,5.25 L2.25,6.75 L11.25,6.75 L11.25,5.25 L2.25,5.25 L2.25,5.25 Z M2.25,8.25 L2.25,9.75 L9,9.75 L9,8.25 L2.25,8.25 L2.25,8.25 Z M11.3775,8.82 L10.32,9.8775 L12.4425,12 L10.32,14.1225 L11.3775,15.18 L13.5,13.0575 L15.6225,15.18 L16.68,14.1225 L14.5575,12 L16.68,9.8775 L15.6225,8.82 L13.5,10.9425 L11.3775,8.82 L11.3775,8.82 Z M2.25,11.25 L2.25,12.75 L9,12.75 L9,11.25 L2.25,11.25 Z" id="icon" fill="#45FF00"></path>
    </g>
</svg>