<?xml version="1.0" encoding="UTF-8"?>
<svg width="18px" height="18px" viewBox="0 0 18 18" version="1.1" xmlns="http://www.w3.org/2000/svg" xmlns:xlink="http://www.w3.org/1999/xlink">
    <title>Icons/18/media-fullscreen</title>
    <g id="Icons/18/media-fullscreen" stroke="none" stroke-width="1" fill="none" fill-rule="evenodd">
        <path d="M2.03064238,2.03064238 L7.00875496,2.03064238 L7.00875496,4.02188741 L4.02188741,4.02188741 L4.02188741,7.00875496 L2.03064238,7.00875496 L2.03064238,2.03064238 L2.03064238,2.03064238 Z M10.991245,2.03064238 L15.9693576,2.03064238 L15.9693576,7.00875496 L13.9781126,7.00875496 L13.9781126,4.02188741 L10.991245,4.02188741 L10.991245,2.03064238 L10.991245,2.03064238 Z M13.9781126,10.991245 L15.9693576,10.991245 L15.9693576,15.9693576 L10.991245,15.9693576 L10.991245,13.9781126 L13.9781126,13.9781126 L13.9781126,10.991245 L13.9781126,10.991245 Z M7.00875496,13.9781126 L7.00875496,15.9693576 L2.03064238,15.9693576 L2.03064238,10.991245 L4.02188741,10.991245 L4.02188741,13.9781126 L7.00875496,13.9781126 Z" id="icon" fill="#45FF00"></path>
    </g>
</svg>