<?xml version="1.0" encoding="UTF-8"?>
<svg width="18px" height="18px" viewBox="0 0 18 18" version="1.1" xmlns="http://www.w3.org/2000/svg" xmlns:xlink="http://www.w3.org/1999/xlink">
    <title>Icons/18/media-pause-fill</title>
    <g id="Icons/18/media-pause-fill" stroke="none" stroke-width="1" fill="none" fill-rule="evenodd">
        <path d="M11.25,12 L9.75,12 L9.75,6 L11.25,6 L11.25,12 Z M8.25,12 L6.75,12 L6.75,6 L8.25,6 L8.25,12 Z M9,1.5 C4.85786438,1.5 1.5,4.85786438 1.5,9 C1.5,10.9891237 2.2901763,12.896778 3.69669914,14.3033009 C5.10322198,15.7098237 7.01087633,16.5 9,16.5 C10.9891237,16.5 12.896778,15.7098237 14.3033009,14.3033009 C15.7098237,12.896778 16.5,10.9891237 16.5,9 C16.5,7.01087633 15.7098237,5.10322198 14.3033009,3.69669914 C12.896778,2.2901763 10.9891237,1.5 9,1.5 Z" id="icon" fill="#45FF00"></path>
    </g>
</svg>