<?xml version="1.0" encoding="UTF-8"?>
<svg width="18px" height="18px" viewBox="0 0 18 18" version="1.1" xmlns="http://www.w3.org/2000/svg" xmlns:xlink="http://www.w3.org/1999/xlink">
    <title>Icons/18/media-play-outline</title>
    <g id="Icons/18/media-play-outline" stroke="none" stroke-width="1" fill="none" fill-rule="evenodd">
        <path d="M9,15 C5.6925,15 3,12.3075 3,9 C3,5.6925 5.6925,3 9,3 C12.3075,3 15,5.6925 15,9 C15,12.3075 12.3075,15 9,15 L9,15 Z M9,1.5 C4.85786438,1.5 1.5,4.85786438 1.5,9 C1.5,10.9891237 2.2901763,12.896778 3.69669914,14.3033009 C5.10322198,15.7098237 7.01087633,16.5 9,16.5 C10.9891237,16.5 12.896778,15.7098237 14.3033009,14.3033009 C15.7098237,12.896778 16.5,10.9891237 16.5,9 C16.5,7.01087633 15.7098237,5.10322198 14.3033009,3.69669914 C12.896778,2.2901763 10.9891237,1.5 9,1.5 L9,1.5 Z M7.5,12.375 L12,9 L7.5,5.625 L7.5,12.375 Z" id="icon" fill="#45FF00"></path>
    </g>
</svg>