<?xml version="1.0" encoding="UTF-8"?>
<svg width="18px" height="18px" viewBox="0 0 18 18" version="1.1" xmlns="http://www.w3.org/2000/svg" xmlns:xlink="http://www.w3.org/1999/xlink">
    <title>Icons/18/media-fullscreen_exit</title>
    <g id="Icons/18/media-fullscreen_exit" stroke="none" stroke-width="1" fill="none" fill-rule="evenodd">
        <path d="M10.9928347,10.9928347 L15.9749215,10.9928347 L15.9749215,12.9856694 L12.9856694,12.9856694 L12.9856694,15.9749215 L10.9928347,15.9749215 L10.9928347,10.9928347 L10.9928347,10.9928347 Z M2.02507847,10.9928347 L7.00716528,10.9928347 L7.00716528,15.9749215 L5.01433055,15.9749215 L5.01433055,12.9856694 L2.02507847,12.9856694 L2.02507847,10.9928347 L2.02507847,10.9928347 Z M5.01433055,2.02507847 L7.00716528,2.02507847 L7.00716528,7.00716528 L2.02507847,7.00716528 L2.02507847,5.01433055 L5.01433055,5.01433055 L5.01433055,2.02507847 L5.01433055,2.02507847 Z M15.9749215,5.01433055 L15.9749215,7.00716528 L10.9928347,7.00716528 L10.9928347,2.02507847 L12.9856694,2.02507847 L12.9856694,5.01433055 L15.9749215,5.01433055 Z" id="icon" fill="#45FF00"></path>
    </g>
</svg>