<?xml version="1.0" encoding="UTF-8"?>
<svg width="18px" height="18px" viewBox="0 0 18 18" version="1.1" xmlns="http://www.w3.org/2000/svg" xmlns:xlink="http://www.w3.org/1999/xlink">
    <title>Icons/18/media-pause-outline</title>
    <g id="Icons/18/media-pause-outline" stroke="none" stroke-width="1" fill="none" fill-rule="evenodd">
        <path d="M9.75,12 L9.75,6 L11.25,6 L11.25,12 L9.75,12 L9.75,12 Z M6.75,12 L6.75,6 L8.25,6 L8.25,12 L6.75,12 L6.75,12 Z M9,1.5 C10.9891237,1.5 12.896778,2.2901763 14.3033009,3.69669914 C15.7098237,5.10322198 16.5,7.01087633 16.5,9 C16.5,13.1421356 13.1421356,16.5 9,16.5 C7.01087633,16.5 5.10322198,15.7098237 3.69669914,14.3033009 C2.2901763,12.896778 1.5,10.9891237 1.5,9 C1.5,7.01087633 2.2901763,5.10322198 3.69669914,3.69669914 C5.10322198,2.2901763 7.01087633,1.5 9,1.5 L9,1.5 Z M9,3 C5.6862915,3 3,5.6862915 3,9 C3,12.3137085 5.6862915,15 9,15 C10.5912989,15 12.1174224,14.367859 13.2426407,13.2426407 C14.367859,12.1174224 15,10.5912989 15,9 C15,5.6862915 12.3137085,3 9,3 Z" id="icon" fill="#45FF00"></path>
    </g>
</svg>