<svg xmlns="http://www.w3.org/2000/svg" width="18" height="18" fill="none" viewBox="0 0 18 18">
  <path fill="#6C6F80" d="M14.031 6.236c.846 0 1.531-.687 1.531-1.534a1.532 1.532 0 1 0-3.062 0c0 .847.686 1.534 1.531 1.534Z"/>
  <path fill="#6C6F80" fill-rule="evenodd" d="M13.574 11.496V7.332a.66.66 0 0 0-.655-.658h2.425a.66.66 0 0 1 .656.658v3.259a2.202 2.202 0 0 1-2.64 2.146l-.014-.004a3.46 3.46 0 0 0 .228-1.237ZM8.416 4.921H2.583A.586.586 0 0 0 2 5.506v5.842c0 .32.263.584.583.584h5.833c.32 0 .584-.263.584-.584V5.506a.586.586 0 0 0-.584-.585Zm-2.482 2.18H7.24v-.863H3.76v.864h1.315v3.514h.86V7.102Z" clip-rule="evenodd"/>
  <path fill="#6C6F80" fill-rule="evenodd" d="M7.592 4.921h1.46c.32 0 .584.264.584.585v.575a2.044 2.044 0 0 0 1.843-2.036A2.042 2.042 0 0 0 9.438 2a2.044 2.044 0 0 0-1.846 2.921Zm-1.488 7.646a3.157 3.157 0 0 0 .306.68A3.5 3.5 0 0 0 9.44 15c1.918 0 3.497-1.582 3.497-3.504V7.332a.66.66 0 0 0-.655-.658H9.636v5.308a.587.587 0 0 1-.583.585h-2.95Z" clip-rule="evenodd"/>
</svg>
