<svg width="18" height="18" viewBox="0 0 18 18" fill="none" xmlns="http://www.w3.org/2000/svg">
<path fill-rule="evenodd" clip-rule="evenodd" d="M2 4.2C1.55817 4.2 1.2 4.55817 1.2 5V13C1.2 13.4418 1.55817 13.8 2 13.8H16C16.4418 13.8 16.8 13.4418 16.8 13V5C16.8 4.55817 16.4418 4.2 16 4.2H2ZM0 5C0 3.89543 0.89543 3 2 3H16C17.1046 3 18 3.89543 18 5V13C18 14.1046 17.1046 15 16 15H2C0.895431 15 0 14.1046 0 13V5Z" fill="#6C6F80"/>
<path d="M3.59375 11.5003V6.26831H4.54575L6.17775 9.21231L6.71375 10.3243H6.74575C6.72442 10.0523 6.69775 9.76165 6.66575 9.45231C6.63908 9.13765 6.62575 8.83365 6.62575 8.54031V6.26831H7.51375V11.5003H6.56175L4.92975 8.55631L4.39375 7.44431H4.36175C4.38308 7.72165 4.40708 8.01231 4.43375 8.31631C4.46575 8.62031 4.48175 8.91898 4.48175 9.21231V11.5003H3.59375Z" fill="#6C6F80"/>
<path d="M8.27575 12.7803L10.1398 5.82031H10.7637L8.89975 12.7803H8.27575Z" fill="#6C6F80"/>
<path d="M12.3454 8.71631L12.1614 9.35631H13.4974L13.3134 8.71631C13.2281 8.43898 13.1454 8.15365 13.0654 7.86031C12.9908 7.56698 12.9161 7.27631 12.8414 6.98831H12.8094C12.7348 7.28165 12.6601 7.57498 12.5854 7.86831C12.5108 8.15631 12.4308 8.43898 12.3454 8.71631ZM10.5934 11.5003L12.2974 6.26831H13.3854L15.0894 11.5003H14.1134L13.7054 10.0843H11.9454L11.5374 11.5003H10.5934Z" fill="#6C6F80"/>
</svg>
