<?xml version="1.0" encoding="UTF-8"?>
<svg width="18px" height="18px" viewBox="0 0 18 18" version="1.1" xmlns="http://www.w3.org/2000/svg" xmlns:xlink="http://www.w3.org/1999/xlink">
    <title>Icons/18/navigation-more_horiz</title>
    <g id="Icons/18/navigation-more_horiz" stroke="none" stroke-width="1" fill="none" fill-rule="evenodd">
        <path d="M4.5,7.5 C3.675,7.5 3,8.175 3,9 C3,9.825 3.675,10.5 4.5,10.5 C5.325,10.5 6,9.825 6,9 C6,8.175 5.325,7.5 4.5,7.5 Z M13.5,7.5 C12.675,7.5 12,8.175 12,9 C12,9.825 12.675,10.5 13.5,10.5 C14.325,10.5 15,9.825 15,9 C15,8.175 14.325,7.5 13.5,7.5 Z M9,7.5 C8.175,7.5 7.5,8.175 7.5,9 C7.5,9.825 8.175,10.5 9,10.5 C9.825,10.5 10.5,9.825 10.5,9 C10.5,8.175 9.825,7.5 9,7.5 Z" id="icon" fill="#45FF00"></path>
    </g>
</svg>