<svg width="18" height="18" viewBox="0 0 18 18" fill="none" xmlns="http://www.w3.org/2000/svg">
<path fill-rule="evenodd" clip-rule="evenodd" d="M5 2C4.44772 2 4 2.44772 4 3V5C4 5.55228 4.44772 6 5 6H5.5V13C5.5 13.8284 6.17157 14.5 7 14.5H10V15C10 15.5523 10.4477 16 11 16H13C13.5523 16 14 15.5523 14 15V13C14 12.4477 13.5523 12 13 12H11C10.4477 12 10 12.4477 10 13V13.5H7C6.72386 13.5 6.5 13.2761 6.5 13V9.5H10V10C10 10.5523 10.4477 11 11 11H13C13.5523 11 14 10.5523 14 10V8C14 7.44772 13.5523 7 13 7H11C10.4477 7 10 7.44772 10 8V8.5H6.5V6H7C7.55228 6 8 5.55228 8 5V3C8 2.44772 7.55228 2 7 2H5ZM11 15H13V13H11V15ZM11 8H13V10H11V8Z" fill="#6C6F80"/>
</svg>
