<svg width="18" height="18" viewBox="0 0 18 18" fill="none" xmlns="http://www.w3.org/2000/svg">
<path fill-rule="evenodd" clip-rule="evenodd" d="M3 11C2.44772 11 2 10.5523 2 10V8C2 7.44771 2.44772 7 3 7H5C5.55228 7 6 7.44771 6 8V8.5H9V3.5H12V3C12 2.44771 12.4477 2 13 2H15C15.5523 2 16 2.44771 16 3V5C16 5.55229 15.5523 6 15 6H13C12.4477 6 12 5.55229 12 5V4.5H10V13.5H12V13C12 12.4477 12.4477 12 13 12H15C15.5523 12 16 12.4477 16 13V15C16 15.5523 15.5523 16 15 16H13C12.4477 16 12 15.5523 12 15V14.5H9V9.5H6V10C6 10.5523 5.55228 11 5 11H3ZM3 10V8H5V10H3Z" fill="#6C6F80"/>
</svg>
