<?xml version="1.0" encoding="UTF-8"?>
<svg width="18px" height="18px" viewBox="0 0 18 18" version="1.1" xmlns="http://www.w3.org/2000/svg" xmlns:xlink="http://www.w3.org/1999/xlink">
    <title>Icons/18/navigation-structure_alt</title>
    <g id="Icons/18/navigation-structure_alt" stroke="none" stroke-width="1" fill="none" fill-rule="evenodd">
        <path d="M7,2 C7.55228475,2 8,2.44771525 8,3 L8,5 C8,5.55228475 7.55228475,6 7,6 L6.5,6 L6.5,8.5 L10,8.5 L10,8 C10,7.44771525 10.4477153,7 11,7 L13,7 C13.5522847,7 14,7.44771525 14,8 L14,10 C14,10.5522847 13.5522847,11 13,11 L11,11 C10.4477153,11 10,10.5522847 10,10 L10,9.5 L6.5,9.5 L6.5,13 C6.5,13.2761424 6.72385763,13.5 7,13.5 L10,13.5 L10,13 C10,12.4477153 10.4477153,12 11,12 L13,12 C13.5522847,12 14,12.4477153 14,13 L14,15 C14,15.5522847 13.5522847,16 13,16 L11,16 C10.4477153,16 10,15.5522847 10,15 L10,14.5 L7,14.5 C6.17157288,14.5 5.5,13.8284271 5.5,13 L5.5,6 L5,6 C4.44771525,6 4,5.55228475 4,5 L4,3 C4,2.44771525 4.44771525,2 5,2 L7,2 Z M11,15 L13,15 L13,13 L11,13 L11,15 Z M13,8 L11,8 L11,10 L13,10 L13,8 Z" id="icon" fill="#45FF00"></path>
    </g>
</svg>