<?xml version="1.0" encoding="UTF-8"?>
<svg width="18px" height="18px" viewBox="0 0 18 18" version="1.1" xmlns="http://www.w3.org/2000/svg" xmlns:xlink="http://www.w3.org/1999/xlink">
    <title>Icons/18/navigation-logout</title>
    <g id="Icons/18/navigation-logout" stroke="none" stroke-width="1" fill="none" fill-rule="evenodd">
        <path d="M4,13 L4,14 L14,14 L14,4 L4,4 L4,5 L2,5 L2,4 C2,2.8954305 2.8954305,2 4,2 L14,2 C15.1045695,2 16,2.8954305 16,4 L16,14 C16,15.1045695 15.1045695,16 14,16 L4,16 C2.8954305,16 2,15.1045695 2,14 L2,13 L4,13 Z M6,8 L12,8 L12,10 L6,10 L6,13 L2,9 L6,5 L6,8 Z" id="Shape" fill="#45FF00"></path>
    </g>
</svg>