<?xml version="1.0" encoding="UTF-8"?>
<svg width="18px" height="18px" viewBox="0 0 18 18" version="1.1" xmlns="http://www.w3.org/2000/svg" xmlns:xlink="http://www.w3.org/1999/xlink">
    <title>Icons/18/navigation-dependency</title>
    <g id="Icons/18/navigation-dependency" stroke="none" stroke-width="1" fill="none" fill-rule="evenodd">
        <path d="M8,2 L10,2 C10.5522847,2 11,2.44771525 11,3 L11,5 C11,5.55228475 10.5522847,6 10,6 L8,6 C7.44771525,6 7,5.55228475 7,5 L7,3 C7,2.44771525 7.44771525,2 8,2 Z M8,3 L10,3 L10,5 L8,5 L8,3 Z M13.5,10 L4.5,10 L4.5,12 L5,12 C5.55228475,12 6,12.4477153 6,13 L6,15 C6,15.5522847 5.55228475,16 5,16 L3,16 C2.44771525,16 2,15.5522847 2,15 L2,13 C2,12.4477153 2.44771525,12 3,12 L3.5,12 L3.5,9 L8.5,9 L8.5,6 L9.5,6 L9.5,9 L14.5,9 L14.5,12 L15,12 C15.5522847,12 16,12.4477153 16,13 L16,15 C16,15.5522847 15.5522847,16 15,16 L13,16 C12.4477153,16 12,15.5522847 12,15 L12,13 C12,12.4477153 12.4477153,12 13,12 L13.5,12 L13.5,10 Z" id="icon" fill="#45FF00" transform="translate(9.000000, 9.000000) rotate(-90.000000) translate(-9.000000, -9.000000) "></path>
    </g>
</svg>