<svg width="18" height="18" viewBox="0 0 18 18" fill="none" xmlns="http://www.w3.org/2000/svg">
<g id="18/navigation-today">
<path id="icon" fill-rule="evenodd" clip-rule="evenodd" d="M15 10.5H16.5V12H15V14.25H16.5V15.75C16.5 16.575 15.825 17.25 15 17.25H3C2.175 17.25 1.5 16.575 1.5 15.75V3.75C1.5 2.925 2.175 2.25 3 2.25H3.75V0.75H5.25V2.25H12.75V0.75H14.25V2.25H15C15.825 2.25 16.5 2.925 16.5 3.75V8.25H15V10.5H12.75V8.25L9.75 11.25L12.75 14.25V12H15V15.75H3V6H15V10.5ZM4.5 9.75H7.5V12.75H4.5V9.75Z" fill="#6C6F80"/>
</g>
</svg>
