<svg width="18" height="18" viewBox="0 0 18 18" fill="none" xmlns="http://www.w3.org/2000/svg">
<path d="M8 2C7.44772 2 7 2.44772 7 3V5C7 5.55228 7.44772 6 8 6H8.5V8H3.5V12H3C2.44772 12 2 12.4477 2 13V15C2 15.5523 2.44772 16 3 16H5C5.55228 16 6 15.5523 6 15V13C6 12.4477 5.55228 12 5 12H4.5V9H13.5V12H13C12.4477 12 12 12.4477 12 13V15C12 15.5523 12.4477 16 13 16H15C15.5523 16 16 15.5523 16 15V13C16 12.4477 15.5523 12 15 12H14.5V8H9.5V6H10C10.5523 6 11 5.55228 11 5V3C11 2.44772 10.5523 2 10 2H8Z" fill="#6C6F80"/>
</svg>
