<svg width="18" height="18" viewBox="0 0 18 18" fill="none" xmlns="http://www.w3.org/2000/svg">
<g id="18/navigation-refresh">
<path id="icon" d="M9 15C7.325 15 5.90625 14.4187 4.74375 13.2562C3.58125 12.0937 3 10.675 3 9C3 7.325 3.58125 5.90625 4.74375 4.74375C5.90625 3.58125 7.325 3 9 3C9.8625 3 10.6875 3.17825 11.475 3.53475C12.2625 3.89075 12.9375 4.4 13.5 5.0625V3H15V8.25H9.75V6.75H12.9C12.5 6.05 11.9532 5.5 11.2597 5.1C10.5657 4.7 9.8125 4.5 9 4.5C7.75 4.5 6.6875 4.9375 5.8125 5.8125C4.9375 6.6875 4.5 7.75 4.5 9C4.5 10.25 4.9375 11.3125 5.8125 12.1875C6.6875 13.0625 7.75 13.5 9 13.5C9.9625 13.5 10.8313 13.225 11.6063 12.675C12.3813 12.125 12.925 11.4 13.2375 10.5H14.8125C14.4625 11.825 13.75 12.9063 12.675 13.7438C11.6 14.5813 10.375 15 9 15Z" fill="#6C6F80"/>
</g>
</svg>
