<svg width="18" height="18" viewBox="0 0 18 18" fill="none" xmlns="http://www.w3.org/2000/svg">
<path fill-rule="evenodd" clip-rule="evenodd" d="M2 4.2C1.55817 4.2 1.2 4.55817 1.2 5V13C1.2 13.4418 1.55817 13.8 2 13.8H16C16.4418 13.8 16.8 13.4418 16.8 13V5C16.8 4.55817 16.4418 4.2 16 4.2H2ZM0 5C0 3.89543 0.89543 3 2 3H16C17.1046 3 18 3.89543 18 5V13C18 14.1046 17.1046 15 16 15H2C0.895431 15 0 14.1046 0 13V5Z" fill="#6C6F80"/>
<path fill-rule="evenodd" clip-rule="evenodd" d="M10.6263 6.33309C10.8997 6.05972 11.3429 6.05972 11.6163 6.33309C11.8897 6.60646 11.8897 7.04967 11.6163 7.32304L9.98995 8.94939L11.6163 10.5757C11.8897 10.8491 11.8897 11.2923 11.6163 11.5657C11.3429 11.839 10.8997 11.839 10.6263 11.5657L9 9.93934L7.37365 11.5657C7.10029 11.839 6.65707 11.839 6.38371 11.5657C6.11034 11.2923 6.11034 10.8491 6.38371 10.5757L8.01005 8.94939L6.38371 7.32304C6.11034 7.04967 6.11034 6.60646 6.3837 6.33309C6.65707 6.05972 7.10029 6.05972 7.37365 6.33309L9 7.95944L10.6263 6.33309Z" fill="#6C6F80"/>
</svg>
