<svg width="18" height="18" viewBox="0 0 18 18" fill="none" xmlns="http://www.w3.org/2000/svg">
<path fill-rule="evenodd" clip-rule="evenodd" d="M13.231 5.64405C13.9628 6.56495 14.4 7.72978 14.4 8.99546C14.4 11.9825 11.9804 14.4 9 14.4C7.73245 14.4 6.56634 13.9627 5.64465 13.2304L13.231 5.64405ZM12.0612 4.5511L4.55169 12.0606C3.95154 11.1898 3.6 10.134 3.6 8.99546C3.6 6.01882 6.01824 3.6 9 3.6C10.1365 3.6 11.1911 3.95138 12.0612 4.5511ZM16 8.99546C16 5.13433 12.8646 2 9 2C5.13542 2 2 5.13433 2 8.99546C2 12.8656 5.13542 16 9 16C12.8646 16 16 12.8656 16 8.99546Z" fill="#6C6F80"/>
</svg>
