<svg width="18" height="18" viewBox="0 0 18 18" fill="none" xmlns="http://www.w3.org/2000/svg">
<path fill-rule="evenodd" clip-rule="evenodd" d="M9 1C13.416 1 17 4.584 17 9C17 13.416 13.416 17 9 17C4.584 17 1 13.416 1 9C1 4.584 4.584 1 9 1ZM9 4C10.6569 4 12 5.34315 12 7C12 7.9612 11.547 8.86722 10.7071 9.70711C10.2137 10.2006 10 10.6279 10 11H8C8 10.0388 8.45301 9.13278 9.29289 8.29289C9.78634 7.79944 10 7.37213 10 7C10 6.44772 9.55228 6 9 6C8.44772 6 8 6.44772 8 7H6C6 5.34315 7.34315 4 9 4ZM8 14V12H10V14H8Z" fill="#6C6F80"/>
</svg>
