<svg width="18" height="18" viewBox="0 0 18 18" fill="none" xmlns="http://www.w3.org/2000/svg">
<g id="18/notification-warning-fill">
<path id="icon" d="M0.75 15.75L9 1.5L17.25 15.75H0.75ZM9 13.5C9.2125 13.5 9.39075 13.428 9.53475 13.284C9.67825 13.1405 9.75 12.9625 9.75 12.75C9.75 12.5375 9.67825 12.3595 9.53475 12.216C9.39075 12.072 9.2125 12 9 12C8.7875 12 8.6095 12.072 8.466 12.216C8.322 12.3595 8.25 12.5375 8.25 12.75C8.25 12.9625 8.322 13.1405 8.466 13.284C8.6095 13.428 8.7875 13.5 9 13.5ZM8.25 11.25H9.75V7.5H8.25V11.25Z" fill="#6C6F80"/>
</g>
</svg>
