<svg xmlns="http://www.w3.org/2000/svg" width="18" height="18" fill="none" viewBox="0 0 18 18">
  <path fill="#6C6F80" d="M8.25 12.75h1.5v-4.5h-1.5v4.5Zm.75-6c.213 0 .39-.072.535-.216A.725.725 0 0 0 9.75 6a.728.728 0 0 0-.215-.535A.728.728 0 0 0 9 5.25a.725.725 0 0 0-.534.215A.726.726 0 0 0 8.25 6c0 .213.072.39.216.534A.724.724 0 0 0 9 6.75Zm0 9.75a7.3 7.3 0 0 1-2.925-.591 7.569 7.569 0 0 1-2.381-1.603 7.569 7.569 0 0 1-1.603-2.381A7.3 7.3 0 0 1 1.5 9a7.3 7.3 0 0 1 .591-2.925 7.569 7.569 0 0 1 1.603-2.381A7.58 7.58 0 0 1 6.075 2.09 7.307 7.307 0 0 1 9 1.5c1.037 0 2.012.197 2.925.59a7.58 7.58 0 0 1 2.381 1.604 7.569 7.569 0 0 1 1.603 2.381A7.3 7.3 0 0 1 16.5 9a7.3 7.3 0 0 1-.591 2.925 7.569 7.569 0 0 1-1.603 2.381 7.569 7.569 0 0 1-2.381 1.603A7.3 7.3 0 0 1 9 16.5Z"/>
</svg>
