<?xml version="1.0" encoding="UTF-8"?>
<svg width="18px" height="18px" viewBox="0 0 18 18" version="1.1" xmlns="http://www.w3.org/2000/svg" xmlns:xlink="http://www.w3.org/1999/xlink">
    <title>Icons/18/notification-check-outline</title>
    <g id="Icons/18/notification-check-outline" stroke="none" stroke-width="1" fill="none" fill-rule="evenodd">
        <path d="M9,1 C4.584,1 1,4.584 1,9 C1,13.416 4.584,17 9,17 C13.416,17 17,13.416 17,9 C17,4.584 13.416,1 9,1 Z M9,16 C5.14125,16 2,12.85875 2,9 C2,5.14125 5.14125,2 9,2 C12.85875,2 16,5.14125 16,9 C16,12.85875 12.85875,16 9,16 Z M12.825,5 L7.33333333,10.596603 L5.175,8.40552017 L4,9.6029724 L7.33333333,13 L14,6.2059448 L12.825,5 Z" id="icon" fill="#45FF00"></path>
    </g>
</svg>