<svg xmlns="http://www.w3.org/2000/svg" width="18" height="18" fill="none" viewBox="0 0 18 18">
  <path fill="#6C6F80" d="M3.214 9.773H1.286c.076.742.259 1.457.53 2.123l1.68-.97a5.646 5.646 0 0 1-.282-1.153Zm1.168-7.027a7.734 7.734 0 0 0-1.521 1.491l1.679.97c.243-.287.515-.55.808-.786l-.966-1.675Zm5.527-1.46V3.22a5.832 5.832 0 0 1 4.89 5.75 5.83 5.83 0 0 1-5.821 5.827 5.794 5.794 0 0 1-2.15-.411l-.965 1.675c.953.42 2.007.654 3.112.654 4.27 0 7.733-3.466 7.733-7.741a7.732 7.732 0 0 0-6.799-7.688ZM8.047 3.22V1.286a7.68 7.68 0 0 0-2.049.54l.97 1.678a5.897 5.897 0 0 1 1.079-.284Zm-6.14 2.616a7.772 7.772 0 0 0-.59 2.076h1.938c.07-.386.18-.755.322-1.11l-1.67-.966Zm2.485 6.72-1.673.968c.435.6.956 1.134 1.543 1.589l.97-1.681a6.292 6.292 0 0 1-.84-.875Z"/>
</svg>
