<svg width="18" height="18" viewBox="0 0 18 18" fill="none" xmlns="http://www.w3.org/2000/svg">
<path d="M9.00194 1.5C8.79483 1.5 8.62694 1.66789 8.62694 1.875V3.375C8.62694 3.58211 8.79483 3.75 9.00194 3.75C9.20905 3.75 9.37694 3.58211 9.37694 3.375V1.875C9.37694 1.66789 9.20905 1.5 9.00194 1.5Z" fill="#6C6F80"/>
<path fill-rule="evenodd" clip-rule="evenodd" d="M5.22948 8.7111C5.22948 6.61805 6.9259 4.92163 9.01895 4.92163C11.112 4.92163 12.8084 6.61805 12.8084 8.7111C12.8084 10.0572 12.1198 10.8869 11.4031 11.7505C10.9989 12.2376 10.5858 12.7354 10.2821 13.3427H7.75579C7.45214 12.7354 7.03899 12.2376 6.63479 11.7505C5.91806 10.8869 5.22948 10.0572 5.22948 8.7111ZM9.01895 8.29005V6.18479L7.33474 9.13216H9.01895V11.2374L10.7032 8.29005H9.01895Z" fill="#6C6F80"/>
<path d="M7.75579 14.6058V14.1848H10.2821V14.6058C10.2821 15.0711 9.91493 15.3937 9.44 15.4479C9.44 15.4479 9.22829 15.4731 8.99575 15.4731C8.76321 15.4731 8.5979 15.4479 8.5979 15.4479C8.11235 15.3428 7.75579 15.0711 7.75579 14.6058Z" fill="#6C6F80"/>
<path d="M3.84617 4.92043C3.65821 4.83345 3.57636 4.61057 3.66333 4.42261C3.75031 4.23466 3.97319 4.1528 4.16115 4.23978L5.52246 4.86973C5.71041 4.95671 5.79227 5.17959 5.70529 5.36755C5.61832 5.5555 5.39544 5.63736 5.20748 5.55038L3.84617 4.92043Z" fill="#6C6F80"/>
<path d="M13.9553 4.42285C13.8683 4.23489 13.6455 4.15302 13.4575 4.23999L12.0962 4.86988C11.9082 4.95685 11.8263 5.17973 11.9133 5.36769C12.0003 5.55565 12.2232 5.63752 12.4111 5.55055L13.7724 4.92066C13.9604 4.83369 14.0423 4.61082 13.9553 4.42285Z" fill="#6C6F80"/>
</svg>
