<svg xmlns="http://www.w3.org/2000/svg" width="18" height="18" fill="none" viewBox="0 0 18 18">
  <path fill="#6C6F80" d="M9 16.5a7.258 7.258 0 0 1-2.906-.59 7.61 7.61 0 0 1-2.39-1.613 7.607 7.607 0 0 1-1.613-2.39A7.256 7.256 0 0 1 1.5 9a7.11 7.11 0 0 1 .61-2.925 7.598 7.598 0 0 1 1.65-2.381A7.86 7.86 0 0 1 6.187 2.09 7.484 7.484 0 0 1 9.15 1.5c1 0 1.944.172 2.831.516a7.437 7.437 0 0 1 2.335 1.425 6.82 6.82 0 0 1 1.593 2.156 6.2 6.2 0 0 1 .591 2.69c0 1.438-.438 2.541-1.313 3.31-.874.769-1.937 1.153-3.187 1.153h-1.387c-.113 0-.191.031-.235.094a.352.352 0 0 0-.066.206c0 .15.094.366.282.647.187.281.281.603.281.966 0 .624-.172 1.087-.516 1.387-.343.3-.796.45-1.359.45ZM4.875 9.75A1.09 1.09 0 0 0 6 8.625a1.09 1.09 0 0 0-.319-.806 1.093 1.093 0 0 0-.806-.319 1.09 1.09 0 0 0-.806.319 1.093 1.093 0 0 0-.319.806A1.09 1.09 0 0 0 4.875 9.75Zm2.25-3A1.09 1.09 0 0 0 8.25 5.625a1.09 1.09 0 0 0-.319-.806 1.093 1.093 0 0 0-.806-.319 1.09 1.09 0 0 0-.806.319A1.093 1.093 0 0 0 6 5.625 1.09 1.09 0 0 0 7.125 6.75Zm3.75 0A1.09 1.09 0 0 0 12 5.625a1.09 1.09 0 0 0-.319-.806 1.093 1.093 0 0 0-.806-.319 1.09 1.09 0 0 0-.806.319 1.093 1.093 0 0 0-.319.806 1.09 1.09 0 0 0 1.125 1.125Zm2.25 3a1.09 1.09 0 0 0 1.125-1.125 1.09 1.09 0 0 0-.319-.806 1.093 1.093 0 0 0-.806-.319 1.09 1.09 0 0 0-.806.319 1.093 1.093 0 0 0-.319.806 1.09 1.09 0 0 0 1.125 1.125ZM9 15a.389.389 0 0 0 .272-.094.314.314 0 0 0 .103-.244c0-.175-.094-.38-.281-.618-.188-.238-.281-.594-.281-1.069 0-.525.18-.944.543-1.256.363-.313.806-.469 1.332-.469H12c.825 0 1.531-.24 2.119-.722.587-.481.881-1.228.881-2.24 0-1.513-.578-2.772-1.734-3.779C12.109 3.503 10.738 3 9.15 3 7.45 3 6 3.581 4.8 4.744 3.6 5.906 3 7.325 3 9c0 1.662.584 3.078 1.753 4.247S7.338 15 9 15Z"/>
</svg>
