<svg width="18" height="18" viewBox="0 0 18 18" fill="none" xmlns="http://www.w3.org/2000/svg">
<path fill-rule="evenodd" clip-rule="evenodd" d="M5.11679 4.10526C5.11679 5.26611 4.17236 6.21053 3.01152 6.21053C1.85068 6.21053 0.906256 5.26611 0.906256 4.10526C0.906256 2.94442 1.85068 2 3.01152 2C4.17236 2 5.11679 2.94442 5.11679 4.10526ZM3.85361 4.10529C3.85361 3.64097 3.47582 3.26318 3.0115 3.26318C2.54719 3.26318 2.1694 3.64097 2.1694 4.10529C2.1694 4.5696 2.54719 4.94739 3.0115 4.94739C3.47582 4.94739 3.85361 4.5696 3.85361 4.10529Z" fill="#6C6F80"/>
<path fill-rule="evenodd" clip-rule="evenodd" d="M11.0115 4.10526C11.0115 5.26611 10.0671 6.21053 8.90627 6.21053C7.74543 6.21053 6.80101 5.26611 6.80101 4.10526C6.80101 2.94442 7.74543 2 8.90627 2C10.0671 2 11.0115 2.94442 11.0115 4.10526ZM9.74835 4.10529C9.74835 3.64097 9.37056 3.26318 8.90624 3.26318C8.44193 3.26318 8.06414 3.64097 8.06414 4.10529C8.06414 4.5696 8.44193 4.94739 8.90624 4.94739C9.37056 4.94739 9.74835 4.5696 9.74835 4.10529Z" fill="#6C6F80"/>
<path fill-rule="evenodd" clip-rule="evenodd" d="M14.801 6.21053C15.9618 6.21053 16.9062 5.26611 16.9062 4.10526C16.9062 2.94442 15.9618 2 14.801 2C13.6401 2 12.6957 2.94442 12.6957 4.10526C12.6957 5.26611 13.6401 6.21053 14.801 6.21053ZM14.801 3.26318C15.2654 3.26318 15.6431 3.64097 15.6431 4.10529C15.6431 4.5696 15.2654 4.94739 14.801 4.94739C14.3367 4.94739 13.9589 4.5696 13.9589 4.10529C13.9589 3.64097 14.3367 3.26318 14.801 3.26318Z" fill="#6C6F80"/>
<path d="M12.6957 9.15793C12.6957 7.99708 13.6402 7.05266 14.801 7.05266C15.9618 7.05266 16.9063 7.99708 16.9063 9.15793V11.0527C16.9063 11.4014 16.6234 11.6842 16.2747 11.6842C15.9259 11.6842 15.6431 11.4014 15.6431 11.0527V9.15793C15.6431 8.69361 15.2653 8.31582 14.801 8.31582C14.3367 8.31582 13.9589 8.69361 13.9589 9.15793V13.3685C13.9589 14.5293 13.0145 15.4737 11.8536 15.4737C10.6928 15.4737 9.74836 14.5293 9.74836 13.3685V9.15793C9.74836 8.69361 9.37057 8.31582 8.90626 8.31582C8.44194 8.31582 8.06415 8.69361 8.06415 9.15793V13.579H8.05341C7.94752 14.6414 7.04878 15.4737 5.95889 15.4737C4.79804 15.4737 3.85362 14.5293 3.85362 13.3685V9.15793C3.85362 8.69361 3.47583 8.31582 3.01151 8.31582C2.5472 8.31582 2.16941 8.69361 2.16941 9.15793V11.0527C2.16941 11.4014 1.88657 11.6842 1.53783 11.6842C1.18909 11.6842 0.90625 11.4014 0.90625 11.0527V8.9474H0.916987C1.02288 7.88498 1.92172 7.05266 3.01151 7.05266C4.17236 7.05266 5.11678 7.99708 5.11678 9.15793V13.3685C5.11678 13.8328 5.49457 14.2106 5.95889 14.2106C6.4232 14.2106 6.80099 13.8328 6.80099 13.3685V9.15793C6.80099 7.99708 7.74541 7.05266 8.90626 7.05266C10.0671 7.05266 11.0115 7.99708 11.0115 9.15793V13.3685C11.0115 13.8328 11.3893 14.2106 11.8536 14.2106C12.3179 14.2106 12.6957 13.8328 12.6957 13.3685V9.15793Z" fill="#6C6F80"/>
</svg>
