<svg xmlns="http://www.w3.org/2000/svg" width="18" height="18" fill="none" viewBox="0 0 18 18">
  <path fill="#6C6F80" fill-rule="evenodd" d="M1.5 8.883c-.063 4.19 3.333 7.617 7.516 7.617 3.898 0 7.112-2.976 7.48-6.77a.664.664 0 1 0-1.32-.128 6.193 6.193 0 0 1-6.661 5.555c-2.95-.233-5.35-2.564-5.654-5.501C2.5 6.186 5.04 3.212 8.353 2.859v1.446c-2.36.338-4.153 2.454-3.966 4.94.17 2.265 2.003 4.094 4.273 4.264a4.647 4.647 0 0 0 4.936-3.862.659.659 0 0 0-.656-.757h-.001c-.323 0-.6.233-.653.551a3.32 3.32 0 0 1-3.483 2.75 3.33 3.33 0 0 1-3.096-3.088 3.315 3.315 0 0 1 2.646-3.456v1.606a1.765 1.765 0 0 0 .663 3.401 1.765 1.765 0 0 0 .663-3.401V1.941a.442.442 0 0 0-.442-.441H9.13c-4.124 0-7.566 3.268-7.63 7.383Zm11.274-1.758c.977 0 1.769-.79 1.769-1.765 0-.974-.792-1.764-1.769-1.764-.977 0-1.768.79-1.768 1.764 0 .975.791 1.765 1.768 1.765Z" clip-rule="evenodd"/>
</svg>
