<svg width="18" height="18" viewBox="0 0 18 18" fill="none" xmlns="http://www.w3.org/2000/svg">
<path d="M5.97329 3.91029C5.9745 3.91205 5.97571 3.91381 5.9769 3.91558L7.18909 5.70667L11.4794 5.70753C11.6139 5.70753 11.7409 5.74048 11.8532 5.79892C12.1186 5.87623 12.3404 6.09035 12.4178 6.38411C12.4181 6.38522 12.4184 6.38633 12.4187 6.38743L13.4724 10.4552C13.5878 10.9006 13.3305 11.3578 12.8968 11.478C12.4654 11.5975 12.0212 11.3357 11.9047 10.8933C11.9044 10.8921 11.9041 10.891 11.9038 10.8899L11.6902 10.0678L10.6619 15.8051C10.5897 16.2077 10.2476 16.5 9.84851 16.5H8.78603C8.38882 16.5 8.04771 16.2103 7.97356 15.81L6.43855 7.52667L4.64664 4.87901C4.38957 4.49928 4.47919 3.97793 4.84735 3.71127C5.21185 3.44731 5.71595 3.5364 5.97329 3.91029ZM9.11633 1.5C10.1253 1.5 10.9433 2.34603 10.9433 3.38965C10.9433 4.43328 10.1253 5.2793 9.11633 5.2793C8.10734 5.2793 7.28939 4.43328 7.28939 3.38965C7.28939 2.34603 8.10734 1.5 9.11633 1.5Z" fill="#6C6F80"/>
</svg>
