<svg width="18" height="18" viewBox="0 0 18 18" fill="none" xmlns="http://www.w3.org/2000/svg">
<path d="M11.25 6.75H3.75V3.75H11.25V6.75ZM9 14.25C8.40326 14.25 7.83097 14.0129 7.40901 13.591C6.98705 13.169 6.75 12.5967 6.75 12C6.75 11.4033 6.98705 10.831 7.40901 10.409C7.83097 9.98705 8.40326 9.75 9 9.75C9.59674 9.75 10.169 9.98705 10.591 10.409C11.0129 10.831 11.25 11.4033 11.25 12C11.25 12.5967 11.0129 13.169 10.591 13.591C10.169 14.0129 9.59674 14.25 9 14.25ZM12.75 2.25H3.75C2.9175 2.25 2.25 2.925 2.25 3.75V14.25C2.25 14.6478 2.40804 15.0294 2.68934 15.3107C2.97064 15.592 3.35218 15.75 3.75 15.75H14.25C14.6478 15.75 15.0294 15.592 15.3107 15.3107C15.592 15.0294 15.75 14.6478 15.75 14.25V5.25L12.75 2.25Z" fill="#6C6F80"/>
</svg>
