<svg width="18" height="18" viewBox="0 0 18 18" fill="none" xmlns="http://www.w3.org/2000/svg">
<path fill-rule="evenodd" clip-rule="evenodd" d="M4.5 2.5H11.25C12.075 2.5 12.75 3.175 12.75 4V11.5C12.75 11.9125 12.585 12.2875 12.3075 12.5575L7.3725 17.5L6.5775 16.7125C6.375 16.51 6.2475 16.225 6.2475 15.9175L6.27 15.6775L6.9825 12.25H2.25C1.425 12.25 0.75 11.575 0.75 10.75V9.25C0.75 9.055 0.7875 8.875 0.855 8.7025L3.12 3.415C3.345 2.875 3.8775 2.5 4.5 2.5ZM17.25 2.5H14.25V11.5H17.25V2.5Z" fill="#6C6F80"/>
</svg>
