<?xml version="1.0" encoding="UTF-8"?>
<svg width="18px" height="18px" viewBox="0 0 18 18" version="1.1" xmlns="http://www.w3.org/2000/svg" xmlns:xlink="http://www.w3.org/1999/xlink">
    <title>Icons/18/social-network-pinterest</title>
    <g id="Icons/18/social-network-pinterest" stroke="none" stroke-width="1" fill="none" fill-rule="evenodd">
        <path d="M6.78,16.155 C7.5,16.3725 8.2275,16.5 9,16.5 C13.1421356,16.5 16.5,13.1421356 16.5,9 C16.5,7.01087633 15.7098237,5.10322198 14.3033009,3.69669914 C12.896778,2.2901763 10.9891237,1.5 9,1.5 C4.85786438,1.5 1.5,4.85786438 1.5,9 C1.5,12.1875 3.5025,14.925 6.33,16.005 C6.2625,15.42 6.195,14.4525 6.33,13.785 L7.1925,10.08 C7.1925,10.08 6.975,9.645 6.975,8.955 C6.975,7.92 7.62,7.1475 8.355,7.1475 C9,7.1475 9.3,7.62 9.3,8.2275 C9.3,8.8725 8.8725,9.795 8.655,10.68 C8.5275,11.415 9.045,12.06 9.795,12.06 C11.13,12.06 12.165,10.635 12.165,8.625 C12.165,6.825 10.875,5.595 9.0225,5.595 C6.9075,5.595 5.6625,7.17 5.6625,8.8275 C5.6625,9.4725 5.8725,10.125 6.2175,10.5525 C6.285,10.5975 6.285,10.6575 6.2625,10.77 L6.045,11.5875 C6.045,11.715 5.9625,11.76 5.835,11.67 C4.875,11.25 4.32,9.885 4.32,8.7825 C4.32,6.4125 6,4.26 9.24,4.26 C11.82,4.26 13.83,6.1125 13.83,8.5725 C13.83,11.1525 12.2325,13.2225 9.945,13.2225 C9.2175,13.2225 8.505,12.8325 8.25,12.375 L7.7475,14.1525 C7.575,14.7975 7.1025,15.66 6.78,16.1775 L6.78,16.155 Z" id="icon" fill="#45FF00"></path>
    </g>
</svg>