<svg width="18" height="18" viewBox="0 0 18 18" fill="none" xmlns="http://www.w3.org/2000/svg">
<path fill-rule="evenodd" clip-rule="evenodd" d="M17.25 4.5C16.6703 4.7625 16.0454 4.935 15.3979 5.0175C16.0605 4.62 16.5724 3.99 16.8133 3.2325C16.1885 3.6075 15.4958 3.87 14.7655 4.02C14.1708 3.375 13.3351 3 12.3865 3C10.6172 3 9.17173 4.44 9.17173 6.2175C9.17173 6.4725 9.20184 6.72 9.25454 6.9525C6.57433 6.8175 4.18774 5.535 2.59919 3.5925C2.32063 4.065 2.16252 4.62 2.16252 5.205C2.16252 6.3225 2.72718 7.3125 3.6005 7.875C3.06597 7.875 2.56907 7.725 2.13241 7.5C2.13241 7.5 2.13241 7.5 2.13241 7.5225C2.13241 9.0825 3.24665 10.3875 4.72228 10.68C4.45124 10.755 4.16515 10.7925 3.87153 10.7925C3.66826 10.7925 3.46499 10.77 3.26924 10.7325C3.67579 12 4.85779 12.945 6.28071 12.9675C5.18152 13.8375 3.78872 14.3475 2.26793 14.3475C2.01195 14.3475 1.75598 14.3325 1.5 14.3025C2.93045 15.2175 4.63193 15.75 6.45387 15.75C12.3865 15.75 15.6464 10.845 15.6464 6.5925C15.6464 6.45 15.6464 6.315 15.6389 6.1725C16.2713 5.7225 16.8133 5.1525 17.25 4.5Z" fill="#6C6F80"/>
</svg>
