<svg xmlns="http://www.w3.org/2000/svg" width="18" height="18" fill="none" viewBox="0 0 18 18">
  <path fill="#6C6F80" fill-rule="evenodd" d="M5.85 1.5h6.3c2.4 0 4.35 1.95 4.35 4.35v6.3a4.35 4.35 0 0 1-4.35 4.35h-6.3c-2.4 0-4.35-1.95-4.35-4.35v-6.3A4.35 4.35 0 0 1 5.85 1.5ZM5.7 3A2.7 2.7 0 0 0 3 5.7v6.6C3 13.792 4.207 15 5.7 15h6.6a2.7 2.7 0 0 0 2.7-2.7V5.7C15 4.207 13.793 3 12.3 3H5.7Zm7.237 1.125a.937.937 0 1 1 0 1.875.937.937 0 0 1 0-1.875ZM9 5.25a3.75 3.75 0 1 1 0 7.5 3.75 3.75 0 0 1 0-7.5Zm0 1.5a2.25 2.25 0 1 0 0 4.5 2.25 2.25 0 0 0 0-4.5Z" clip-rule="evenodd"/>
</svg>
