<?xml version="1.0" encoding="UTF-8"?>
<svg width="18px" height="18px" viewBox="0 0 18 18" version="1.1" xmlns="http://www.w3.org/2000/svg" xmlns:xlink="http://www.w3.org/1999/xlink">
    <title>Icons/18/social-network-twitter</title>
    <g id="Icons/18/social-network-twitter" stroke="none" stroke-width="1" fill="none" fill-rule="evenodd">
        <path d="M17.25,4.5 C16.6702916,4.7625 16.0454111,4.935 15.3979446,5.0175 C16.0604685,4.62 16.5724187,3.99 16.8133365,3.2325 C16.188456,3.6075 15.4958174,3.87 14.7655354,4.02 C14.1707696,3.375 13.335086,3 12.3864723,3 C10.6172323,3 9.17172562,4.44 9.17172562,6.2175 C9.17172562,6.4725 9.20184034,6.72 9.25454111,6.9525 C6.57433078,6.8175 4.18773901,5.535 2.59918738,3.5925 C2.3206262,4.065 2.1625239,4.62 2.1625239,5.205 C2.1625239,6.3225 2.72717495,7.3125 3.60050191,7.875 C3.06596558,7.875 2.56907266,7.725 2.13240918,7.5 C2.13240918,7.5 2.13240918,7.5 2.13240918,7.5225 C2.13240918,9.0825 3.24665392,10.3875 4.72227533,10.68 C4.45124283,10.755 4.16515296,10.7925 3.87153442,10.7925 C3.66826004,10.7925 3.46498566,10.77 3.26923996,10.7325 C3.67578872,12 4.85779159,12.945 6.28071224,12.9675 C5.18152486,13.8375 3.78871893,14.3475 2.26792543,14.3475 C2.01195029,14.3475 1.75597514,14.3325 1.5,14.3025 C2.93044933,15.2175 4.63193117,15.75 6.45387189,15.75 C12.3864723,15.75 15.646391,10.845 15.646391,6.5925 C15.646391,6.45 15.646391,6.315 15.6388623,6.1725 C16.2712715,5.7225 16.8133365,5.1525 17.25,4.5 Z" id="icon" fill="#45FF00"></path>
    </g>
</svg>