<svg width="18" height="18" viewBox="0 0 18 18" fill="none" xmlns="http://www.w3.org/2000/svg">
<path fill-rule="evenodd" clip-rule="evenodd" d="M10.125 0.502502C10.125 0.502502 10.68 2.49 10.68 4.1025C10.68 5.6475 9.6675 6.9 8.1225 6.9C6.57 6.9 5.4 5.6475 5.4 4.1025L5.4225 3.8325C3.9075 5.6325 3 7.965 3 10.5C3 13.815 5.685 16.5 9 16.5C12.315 16.5 15 13.815 15 10.5C15 6.4575 13.0575 2.85 10.125 0.502502ZM8.7825 14.25C7.4475 14.25 6.3675 13.2 6.3675 11.895C6.3675 10.68 7.155 9.825 8.475 9.555C9.8025 9.285 11.175 8.6475 11.94 7.62C12.2325 8.5875 12.3825 9.6075 12.3825 10.65C12.3825 12.6375 10.77 14.25 8.7825 14.25Z" fill="#6C6F80"/>
</svg>
