<?xml version="1.0" encoding="UTF-8"?>
<svg width="18px" height="18px" viewBox="0 0 18 18" version="1.1" xmlns="http://www.w3.org/2000/svg" xmlns:xlink="http://www.w3.org/1999/xlink">
    <title>Icons/18/social-network-yammer</title>
    <g id="Icons/18/social-network-yammer" stroke="none" stroke-width="1" fill="none" fill-rule="evenodd">
        <path d="M10.4917963,4.77054931 L7.15541651,13.1062096 C7.14011202,13.1658565 6.45140977,15 4.13277885,15 C3.7101569,15 3.36755412,14.6661894 3.36755412,14.2544132 C3.36755412,13.8368846 3.71190525,13.5088264 4.13277885,13.5088264 C5.32652942,13.5088264 5.68618504,12.6737692 5.72444628,12.5842988 L6.00757942,11.8312562 L3.05381198,4.77800517 C2.90076704,4.39775591 3.08442097,3.95785971 3.47468558,3.80874235 C3.86495019,3.65216913 4.31643278,3.83110996 4.47712997,4.21881508 L6.82636988,9.83308358 L9.06847833,4.22627095 C9.22152327,3.83856582 9.66535361,3.65216913 10.078575,3.80128648 C10.4611873,3.95040384 10.6524935,4.38284418 10.4917963,4.77054931 L10.4917963,4.77054931 Z M14.287311,5.10606336 C14.1495705,5.10606336 14.0041778,5.15825443 13.9046986,5.24772485 C13.9046986,5.24772485 10.6907547,7.47702934 10.8437997,7.71561711 C10.9891924,7.95420488 14.5398351,6.33628155 14.5474874,6.31391395 C14.784707,6.23935527 14.9607087,6.00822337 14.9607087,5.73981213 C14.9607087,5.38938634 14.6699233,5.10606336 14.287311,5.10606336 L14.287311,5.10606336 Z M14.876534,12.9049011 C14.8000115,12.7781514 14.6699233,12.6812251 14.5398351,12.6215782 C14.5398351,12.6215782 10.9738879,11.0036548 10.8437997,11.2422426 C10.698407,11.4882862 13.9046986,13.7101349 13.9046986,13.7101349 C14.0960048,13.874164 14.3867902,13.9039874 14.6240098,13.7697818 C14.937752,13.5982968 15.0525357,13.2105917 14.876534,12.9049011 L14.876534,12.9049011 Z M16.177416,8.86382076 C16.0396756,8.78926208 15.8942829,8.76689447 15.7412379,8.78926208 C15.7412379,8.78926208 11.8309396,9.18442307 11.8385806,9.46029019 C11.8462441,9.7361573 15.7488902,10.0418479 15.7565424,10.0418479 C16.0167188,10.0791272 16.2845475,9.9672892 16.4222879,9.72870143 C16.5829851,9.42301085 16.4911582,9.03530572 16.177416,8.86382076 Z" id="icon" fill="#45FF00"></path>
    </g>
</svg>