<svg width="18" height="18" viewBox="0 0 18 18" fill="none" xmlns="http://www.w3.org/2000/svg">
<path fill-rule="evenodd" clip-rule="evenodd" d="M11.0175 5.75H15.75C16.575 5.75 17.25 6.425 17.25 7.25V8.75C17.25 8.945 17.2125 9.125 17.145 9.2975L14.88 14.585C14.655 15.125 14.1225 15.5 13.5 15.5H6.75C5.925 15.5 5.25 14.825 5.25 14V6.5C5.25 6.0875 5.415 5.7125 5.6925 5.4425L10.6275 0.5L11.4225 1.2875C11.625 1.49 11.7525 1.775 11.7525 2.0825L11.73 2.3225L11.0175 5.75ZM3.75 6.5H0.75V15.5H3.75V6.5Z" fill="#6C6F80"/>
</svg>
