<?xml version="1.0" encoding="UTF-8"?>
<svg width="18px" height="18px" viewBox="0 0 18 18" version="1.1" xmlns="http://www.w3.org/2000/svg" xmlns:xlink="http://www.w3.org/1999/xlink">
    <title>Icons/18/social-network-linkedin</title>
    <g id="Icons/18/social-network-linkedin" stroke="none" stroke-width="1" fill="none" fill-rule="evenodd">
        <path d="M15.75,15.75 L12.75,15.75 L12.75,10.6875 C12.75,9.8925 11.8575,9.2325 11.0625,9.2325 C10.2675,9.2325 9.75,9.8925 9.75,10.6875 L9.75,15.75 L6.75,15.75 L6.75,6.75 L9.75,6.75 L9.75,8.25 C10.245,7.4475 11.52,6.93 12.375,6.93 C14.25,6.93 15.75,8.46 15.75,10.3125 L15.75,15.75 L15.75,15.75 Z M5.25,15.75 L2.25,15.75 L2.25,6.75 L5.25,6.75 L5.25,15.75 L5.25,15.75 Z M3.75,2.25 C4.57842712,2.25 5.25,2.92157288 5.25,3.75 C5.25,4.57842712 4.57842712,5.25 3.75,5.25 C2.92157288,5.25 2.25,4.57842712 2.25,3.75 C2.25,2.92157288 2.92157288,2.25 3.75,2.25 Z" id="icon" fill="#45FF00"></path>
    </g>
</svg>