<svg width="18" height="18" viewBox="0 0 18 18" fill="none" xmlns="http://www.w3.org/2000/svg">
<g id="18/social-network-instagram">
<path id="icon" fill-rule="evenodd" clip-rule="evenodd" d="M5.85 1.5H12.15C14.55 1.5 16.5 3.45 16.5 5.85V12.15C16.5 14.5524 14.5524 16.5 12.15 16.5H5.85C3.45 16.5 1.5 14.55 1.5 12.15V5.85C1.5 3.44756 3.44756 1.5 5.85 1.5ZM5.7 3C4.20883 3 3 4.20883 3 5.7V12.3C3 13.7925 4.2075 15 5.7 15H12.3C13.7912 15 15 13.7912 15 12.3V5.7C15 4.2075 13.7925 3 12.3 3H5.7ZM12.9375 4.125C13.4553 4.125 13.875 4.54473 13.875 5.0625C13.875 5.58027 13.4553 6 12.9375 6C12.4197 6 12 5.58027 12 5.0625C12 4.54473 12.4197 4.125 12.9375 4.125ZM9 5.25C11.0711 5.25 12.75 6.92893 12.75 9C12.75 11.0711 11.0711 12.75 9 12.75C6.92893 12.75 5.25 11.0711 5.25 9C5.25 6.92893 6.92893 5.25 9 5.25ZM9 6.75C7.75736 6.75 6.75 7.75736 6.75 9C6.75 10.2426 7.75736 11.25 9 11.25C10.2426 11.25 11.25 10.2426 11.25 9C11.25 7.75736 10.2426 6.75 9 6.75Z" fill="#6C6F80"/>
</g>
</svg>
