<?xml version="1.0" encoding="UTF-8"?>
<svg width="18px" height="18px" viewBox="0 0 18 18" version="1.1" xmlns="http://www.w3.org/2000/svg" xmlns:xlink="http://www.w3.org/1999/xlink">
    <title>Icons/18/social-group</title>
    <g id="Icons/18/social-group" stroke="none" stroke-width="1" fill="none" fill-rule="evenodd">
        <path d="M12,8.25 C13.245,8.25 14.2425,7.245 14.2425,6 C14.2425,4.755 13.245,3.75 12,3.75 C10.755,3.75 9.75,4.755 9.75,6 C9.75,7.245 10.755,8.25 12,8.25 Z M6,8.25 C7.245,8.25 8.2425,7.245 8.2425,6 C8.2425,4.755 7.245,3.75 6,3.75 C4.755,3.75 3.75,4.755 3.75,6 C3.75,7.245 4.755,8.25 6,8.25 Z M6,9.75 C4.2525,9.75 0.75,10.6275 0.75,12.375 L0.75,14.25 L11.25,14.25 L11.25,12.375 C11.25,10.6275 7.7475,9.75 6,9.75 Z M12,9.75 C11.7825,9.75 11.535,9.765 11.2725,9.7875 C12.1425,10.4175 12.75,11.265 12.75,12.375 L12.75,14.25 L17.25,14.25 L17.25,12.375 C17.25,10.6275 13.7475,9.75 12,9.75 Z" id="icon" fill="#45FF00"></path>
    </g>
</svg>