<?xml version="1.0" encoding="UTF-8"?>
<svg width="18px" height="18px" viewBox="0 0 18 18" version="1.1" xmlns="http://www.w3.org/2000/svg" xmlns:xlink="http://www.w3.org/1999/xlink">
    <title>Icons/18/social-network-youtube</title>
    <g id="Icons/18/social-network-youtube" stroke="none" stroke-width="1" fill="none" fill-rule="evenodd">
        <path d="M7.5,11.25 L11.3925,9 L7.5,6.75 L7.5,11.25 L7.5,11.25 Z M16.17,5.3775 C16.2675,5.73 16.335,6.2025 16.38,6.8025 C16.4325,7.4025 16.455,7.92 16.455,8.37 L16.5,9 C16.5,10.6425 16.38,11.85 16.17,12.6225 C15.9825,13.2975 15.5475,13.7325 14.8725,13.92 C14.52,14.0175 13.875,14.085 12.885,14.13 C11.91,14.1825 11.0175,14.205 10.1925,14.205 L9,14.25 C5.8575,14.25 3.9,14.13 3.1275,13.92 C2.4525,13.7325 2.0175,13.2975 1.83,12.6225 C1.7325,12.27 1.665,11.7975 1.62,11.1975 C1.5675,10.5975 1.545,10.08 1.545,9.63 L1.5,9 C1.5,7.3575 1.62,6.15 1.83,5.3775 C2.0175,4.7025 2.4525,4.2675 3.1275,4.08 C3.48,3.9825 4.125,3.915 5.115,3.87 C6.09,3.8175 6.9825,3.795 7.8075,3.795 L9,3.75 C12.1425,3.75 14.1,3.87 14.8725,4.08 C15.5475,4.2675 15.9825,4.7025 16.17,5.3775 Z" id="icon" fill="#45FF00"></path>
    </g>
</svg>