<?xml version="1.0" encoding="UTF-8"?>
<svg width="18px" height="18px" viewBox="0 0 18 18" version="1.1" xmlns="http://www.w3.org/2000/svg" xmlns:xlink="http://www.w3.org/1999/xlink">
    <title>Icons/18/social-thumb-up</title>
    <g id="Icons/18/social-thumb-up" stroke="none" stroke-width="1" fill="none" fill-rule="evenodd">
        <path d="M15.75,6.75 L11.0175,6.75 L11.73,3.3225 L11.7525,3.0825 C11.7525,2.775 11.625,2.49 11.4225,2.2875 L10.6275,1.5 L5.6925,6.4425 C5.415,6.7125 5.25,7.0875 5.25,7.5 L5.25,15 C5.25,15.825 5.925,16.5 6.75,16.5 L13.5,16.5 C14.1225,16.5 14.655,16.125 14.88,15.585 L17.145,10.2975 C17.2125,10.125 17.25,9.945 17.25,9.75 L17.25,8.25 C17.25,7.425 16.575,6.75 15.75,6.75 Z M0.75,7.5 L3.75,7.5 L3.75,16.5 L0.75,16.5 L0.75,7.5 Z" id="icon" fill="#45FF00"></path>
    </g>
</svg>