<svg width="18" height="18" viewBox="0 0 18 18" fill="none" xmlns="http://www.w3.org/2000/svg">
<path fill-rule="evenodd" clip-rule="evenodd" d="M15.6 5.805C15.6975 5.49 15.6 5.25 15.135 5.25H13.62C13.23 5.25 13.0575 5.4525 12.96 5.6775C12.96 5.6775 12.1875 7.56 11.0925 8.79C10.7325 9.1425 10.575 9.255 10.38 9.255C10.2825 9.255 10.125 9.1425 10.125 8.82V5.805C10.125 5.4225 10.035 5.25 9.71252 5.25H7.32002C7.08002 5.25 6.93752 5.43 6.93752 5.6025C6.93752 5.9625 7.50002 6.0525 7.53752 7.08V9.315C7.53752 9.81 7.44752 9.9 7.26002 9.9C6.75002 9.9 5.49002 8.0025 4.74752 5.8425C4.59752 5.4225 4.45502 5.25 4.06502 5.25H2.54252C2.11502 5.25 2.02502 5.4525 2.02502 5.6775C2.02502 6.0825 2.54252 8.0775 4.42502 10.7175C5.67752 12.525 7.44752 13.5 9.06002 13.5C10.0275 13.5 10.1475 13.2825 10.1475 12.9075V11.5425C10.1475 11.115 10.2375 11.025 10.545 11.025C10.77 11.025 11.1525 11.1375 12.0525 12C13.0875 13.035 13.2525 13.5 13.8375 13.5H15.3525C15.7875 13.5 16.005 13.2825 15.885 12.855C15.75 12.4275 15.255 11.805 14.6025 11.07C14.25 10.6575 13.7175 10.2075 13.5525 9.975C13.3275 9.69 13.395 9.5625 13.5525 9.3C13.5525 9.3 15.405 6.6975 15.6 5.805Z" fill="#6C6F80"/>
</svg>
