<?xml version="1.0" encoding="UTF-8"?>
<svg width="18px" height="18px" viewBox="0 0 18 18" version="1.1" xmlns="http://www.w3.org/2000/svg" xmlns:xlink="http://www.w3.org/1999/xlink">
    <title>Icons/18/social-network-instagram</title>
    <g id="Icons/18/social-network-instagram" stroke="none" stroke-width="1" fill="none" fill-rule="evenodd">
        <path d="M5.85,1.5 L12.15,1.5 C14.55,1.5 16.5,3.45 16.5,5.85 L16.5,12.15 C16.5,14.5524387 14.5524387,16.5 12.15,16.5 L5.85,16.5 C3.45,16.5 1.5,14.55 1.5,12.15 L1.5,5.85 C1.5,3.44756134 3.44756134,1.5 5.85,1.5 L5.85,1.5 Z M5.7,3 C4.20883118,3 3,4.20883118 3,5.7 L3,12.3 C3,13.7925 4.2075,15 5.7,15 L12.3,15 C13.7911688,15 15,13.7911688 15,12.3 L15,5.7 C15,4.2075 13.7925,3 12.3,3 L5.7,3 L5.7,3 Z M12.9375,4.125 C13.455267,4.125 13.875,4.54473305 13.875,5.0625 C13.875,5.58026695 13.455267,6 12.9375,6 C12.419733,6 12,5.58026695 12,5.0625 C12,4.54473305 12.419733,4.125 12.9375,4.125 L12.9375,4.125 Z M9,5.25 C11.0710678,5.25 12.75,6.92893219 12.75,9 C12.75,11.0710678 11.0710678,12.75 9,12.75 C6.92893219,12.75 5.25,11.0710678 5.25,9 C5.25,6.92893219 6.92893219,5.25 9,5.25 L9,5.25 Z M9,6.75 C7.75735931,6.75 6.75,7.75735931 6.75,9 C6.75,10.2426407 7.75735931,11.25 9,11.25 C10.2426407,11.25 11.25,10.2426407 11.25,9 C11.25,7.75735931 10.2426407,6.75 9,6.75 Z" id="icon" fill="#45FF00"></path>
    </g>
</svg>