<?xml version="1.0" encoding="UTF-8"?>
<svg width="18px" height="18px" viewBox="0 0 18 18" version="1.1" xmlns="http://www.w3.org/2000/svg" xmlns:xlink="http://www.w3.org/1999/xlink">
    <title>Icons/18/social-network-vk</title>
    <g id="Icons/18/social-network-vk" stroke="none" stroke-width="1" fill="none" fill-rule="evenodd">
        <path d="M15.6,5.805 C15.6975,5.49 15.6,5.25 15.135,5.25 L13.62,5.25 C13.23,5.25 13.0575,5.4525 12.96,5.6775 C12.96,5.6775 12.1875,7.56 11.0925,8.79 C10.7325,9.1425 10.575,9.255 10.38,9.255 C10.2825,9.255 10.125,9.1425 10.125,8.82 L10.125,5.805 C10.125,5.4225 10.035,5.25 9.7125,5.25 L7.32,5.25 C7.08,5.25 6.9375,5.43 6.9375,5.6025 C6.9375,5.9625 7.5,6.0525 7.5375,7.08 L7.5375,9.315 C7.5375,9.81 7.4475,9.9 7.26,9.9 C6.75,9.9 5.49,8.0025 4.7475,5.8425 C4.5975,5.4225 4.455,5.25 4.065,5.25 L2.5425,5.25 C2.115,5.25 2.025,5.4525 2.025,5.6775 C2.025,6.0825 2.5425,8.0775 4.425,10.7175 C5.6775,12.525 7.4475,13.5 9.06,13.5 C10.0275,13.5 10.1475,13.2825 10.1475,12.9075 L10.1475,11.5425 C10.1475,11.115 10.2375,11.025 10.545,11.025 C10.77,11.025 11.1525,11.1375 12.0525,12 C13.0875,13.035 13.2525,13.5 13.8375,13.5 L15.3525,13.5 C15.7875,13.5 16.005,13.2825 15.885,12.855 C15.75,12.4275 15.255,11.805 14.6025,11.07 C14.25,10.6575 13.7175,10.2075 13.5525,9.975 C13.3275,9.69 13.395,9.5625 13.5525,9.3 C13.5525,9.3 15.405,6.6975 15.6,5.805 Z" id="icon" fill="#45FF00"></path>
    </g>
</svg>