<?xml version="1.0" encoding="UTF-8"?>
<svg width="18px" height="18px" viewBox="0 0 18 18" version="1.1" xmlns="http://www.w3.org/2000/svg" xmlns:xlink="http://www.w3.org/1999/xlink">
    <title>Icons/18/social-share</title>
    <g id="Icons/18/social-share" stroke="none" stroke-width="1" fill="none" fill-rule="evenodd">
        <path d="M13.5,12.06 C12.93,12.06 12.42,12.285 12.03,12.6375 L6.6825,9.525 C6.72,9.3525 6.75,9.18 6.75,9 C6.75,8.82 6.72,8.6475 6.6825,8.475 L11.97,5.3925 C12.375,5.7675 12.9075,6 13.5,6 C14.745,6 15.75,4.995 15.75,3.75 C15.75,2.505 14.745,1.5 13.5,1.5 C12.255,1.5 11.25,2.505 11.25,3.75 C11.25,3.93 11.28,4.1025 11.3175,4.275 L6.03,7.3575 C5.625,6.9825 5.0925,6.75 4.5,6.75 C3.255,6.75 2.25,7.755 2.25,9 C2.25,10.245 3.255,11.25 4.5,11.25 C5.0925,11.25 5.625,11.0175 6.03,10.6425 L11.37,13.7625 C11.3325,13.92 11.31,14.085 11.31,14.25 C11.31,15.4575 12.2925,16.44 13.5,16.44 C14.7075,16.44 15.69,15.4575 15.69,14.25 C15.69,13.0425 14.7075,12.06 13.5,12.06 Z" id="icon" fill="#45FF00"></path>
    </g>
</svg>