<?xml version="1.0" encoding="UTF-8"?>
<svg width="18px" height="18px" viewBox="0 0 18 18" version="1.1" xmlns="http://www.w3.org/2000/svg" xmlns:xlink="http://www.w3.org/1999/xlink">
    <title>Icons/18/social-hot</title>
    <g id="Icons/18/social-hot" stroke="none" stroke-width="1" fill="none" fill-rule="evenodd">
        <path d="M10.125,0.5025 C10.125,0.5025 10.68,2.49 10.68,4.1025 C10.68,5.6475 9.6675,6.9 8.1225,6.9 C6.57,6.9 5.4,5.6475 5.4,4.1025 L5.4225,3.8325 C3.9075,5.6325 3,7.965 3,10.5 C3,13.815 5.685,16.5 9,16.5 C12.315,16.5 15,13.815 15,10.5 C15,6.4575 13.0575,2.85 10.125,0.5025 Z M8.7825,14.25 C7.4475,14.25 6.3675,13.2 6.3675,11.895 C6.3675,10.68 7.155,9.825 8.475,9.555 C9.8025,9.285 11.175,8.6475 11.94,7.62 C12.2325,8.5875 12.3825,9.6075 12.3825,10.65 C12.3825,12.6375 10.77,14.25 8.7825,14.25 Z" id="icon" fill="#45FF00"></path>
    </g>
</svg>