<?xml version="1.0" encoding="UTF-8"?>
<svg width="18px" height="18px" viewBox="0 0 18 18" version="1.1" xmlns="http://www.w3.org/2000/svg" xmlns:xlink="http://www.w3.org/1999/xlink">
    <title>Icons/18/social-network-github</title>
    <g id="Icons/18/social-network-github" stroke="none" stroke-width="1" fill="none" fill-rule="evenodd">
        <path d="M9,1.5 C4.85786438,1.5 1.5,4.85786438 1.5,9 C1.5,12.315 3.6525,15.1275 6.63,16.125 C7.005,16.185 7.125,15.9525 7.125,15.75 C7.125,15.5775 7.125,15.105 7.125,14.4825 C5.0475,14.9325 4.605,13.4775 4.605,13.4775 C4.26,12.6075 3.7725,12.375 3.7725,12.375 C3.09,11.91 3.825,11.925 3.825,11.925 C4.575,11.9775 4.9725,12.6975 4.9725,12.6975 C5.625,13.8375 6.7275,13.5 7.155,13.32 C7.2225,12.8325 7.4175,12.5025 7.6275,12.315 C5.9625,12.1275 4.215,11.4825 4.215,8.625 C4.215,7.7925 4.5,7.125 4.9875,6.5925 C4.9125,6.405 4.65,5.625 5.0625,4.6125 C5.0625,4.6125 5.6925,4.41 7.125,5.3775 C7.7175,5.2125 8.3625,5.13 9,5.13 C9.6375,5.13 10.2825,5.2125 10.875,5.3775 C12.3075,4.41 12.9375,4.6125 12.9375,4.6125 C13.35,5.625 13.0875,6.405 13.0125,6.5925 C13.5,7.125 13.785,7.7925 13.785,8.625 C13.785,11.49 12.03,12.12 10.3575,12.3075 C10.6275,12.54 10.875,12.9975 10.875,13.695 C10.875,14.7 10.875,15.51 10.875,15.75 C10.875,15.9525 10.995,16.1925 11.3775,16.125 C14.355,15.12 16.5,12.315 16.5,9 C16.5,7.01087633 15.7098237,5.10322198 14.3033009,3.69669914 C12.896778,2.2901763 10.9891237,1.5 9,1.5 Z" id="icon" fill="#45FF00"></path>
    </g>
</svg>