<svg xmlns="http://www.w3.org/2000/svg" width="18" height="18" fill="none" viewBox="0 0 18 18">
  <g clip-path="url(#a)">
    <path fill="#6C6F80" fill-rule="evenodd" d="M5.379 4.22 8.436.725l1.129.987-1.618 1.85a6 6 0 0 1 4.764 1.191L15 2.72l.996 1.121-2.23 1.983a6 6 0 0 1 .54 6.448l-1.326-.7a4.5 4.5 0 0 0-.34-4.747l-6.694 5.95A4.5 4.5 0 0 0 9.42 13.95l-1.7-1.7 1.06-1.061 3.53 3.53-3.53 3.53-1.06-1.06 1.737-1.737a5.998 5.998 0 0 1-4.636-1.678L2.497 15.84 1.5 14.72l2.383-2.12a6 6 0 0 1-.18-5.949l1.324.705a4.5 4.5 0 0 0 0 4.227l6.538-5.812a4.499 4.499 0 0 0-3.458-.713l1.458 1.667-1.129.987L5.379 4.22Zm2.004.012-.006-.018-.005.005.01.013Z" clip-rule="evenodd"/>
  </g>
  <defs>
    <clipPath id="a">
      <path fill="#fff" d="M0 0h18v18H0z"/>
    </clipPath>
  </defs>
</svg>
