<svg xmlns="http://www.w3.org/2000/svg" width="18" height="18" fill="none" viewBox="0 0 18 18">
  <path fill="#6C6F80" fill-rule="evenodd" d="m5.379 3.75 3.057 3.494 1.129-.988L8.107 4.59a4.5 4.5 0 0 1 4.873 6.51l1.326.7a6 6 0 0 0-6.36-8.708l1.619-1.849L8.436.256 5.379 3.75Zm1.998-.006.006.018-.01-.012.004-.006Z" clip-rule="evenodd"/>
  <path fill="#6C6F80" d="M3.702 6.183a6 6 0 0 0 5.755 8.8L7.72 16.72l1.06 1.06 3.53-3.53-3.53-3.53-1.06 1.06 1.7 1.7a4.5 4.5 0 0 1-4.393-6.593l-1.325-.704Z"/>
</svg>
