<svg width="18" height="18" viewBox="0 0 18 18" fill="none" xmlns="http://www.w3.org/2000/svg">
<g id="18/table-group_by">
<g id="icon">
<path d="M16.4994 2.25004V5.25004H8.99936V2.25004H16.4994Z" fill="#6C6F80"/>
<path d="M8.99936 10.5V7.50004H16.4994V10.5H8.99936Z" fill="#6C6F80"/>
<path d="M8.99936 12.75V15.75H16.4994V12.75H8.99936Z" fill="#6C6F80"/>
<path d="M2.99936 14.25L4.49936 15V12.75H2.99936V13V14.25Z" fill="#6C6F80"/>
<path d="M2.99936 15.75V14.25H5.99936V15.75H2.99936Z" fill="#6C6F80"/>
<path d="M4.49936 3.75V5.25H2.99936V2.25L5.99936 2.25V3.75H4.49936Z" fill="#6C6F80"/>
<path d="M2.99854 6.75H4.49854V8.25H5.99854V9.75L4.49854 9.74999V11.25H2.99854L2.99853 9.74998L1.49854 9.75L1.49854 8.25002L2.99853 8.25L2.99854 6.75Z" fill="#6C6F80"/>
</g>
</g>
</svg>
