<svg width="18" height="18" viewBox="0 0 18 18" fill="none" xmlns="http://www.w3.org/2000/svg">
<g id="18/table-column_remove">
<path id="icon" fill-rule="evenodd" clip-rule="evenodd" d="M3 1.5H8.25C9.07843 1.5 9.75 2.17157 9.75 3V15C9.75 15.8284 9.07843 16.5 8.25 16.5H3C2.17157 16.5 1.5 15.8284 1.5 15V3C1.5 2.17157 2.17157 1.5 3 1.5ZM3 7.5V10.5H8.25V7.5H3ZM3 12V15H8.25V12H3ZM3 3V6H8.25V3H3ZM13.1925 9L11.25 7.0575L12.3075 6L14.25 7.9425L16.1925 6L17.25 7.0575L15.3075 9L17.25 10.9425L16.1925 12L14.25 10.0575L12.3075 12L11.25 10.9425L13.1925 9Z" fill="#6C6F80"/>
</g>
</svg>
