<svg width="18" height="18" viewBox="0 0 18 18" fill="none" xmlns="http://www.w3.org/2000/svg">
<g id="18/table-row_remove">
<path id="icon" fill-rule="evenodd" clip-rule="evenodd" d="M7.0575 9.75L9 11.6925L10.9425 9.75L12 10.8075L10.0575 12.75L12 14.6925L10.9425 15.75L9 13.8075L7.0575 15.75L6 14.6925L7.9425 12.75L6 10.8075L7.0575 9.75ZM16.5 6.75C16.5 7.57843 15.8284 8.25 15 8.25H3C2.17157 8.25 1.5 7.57843 1.5 6.75V4.5C1.5 3.67157 2.17157 3 3 3H15C15.8284 3 16.5 3.67157 16.5 4.5V6.75ZM3 6.75H6V4.5H3V6.75ZM7.5 6.75H10.5V4.5H7.5V6.75ZM12 6.75H15V4.5H12V6.75Z" fill="#6C6F80"/>
</g>
</svg>
