<?xml version="1.0" encoding="UTF-8"?>
<svg width="18px" height="18px" viewBox="0 0 18 18" version="1.1" xmlns="http://www.w3.org/2000/svg" xmlns:xlink="http://www.w3.org/1999/xlink">
    <title>Icons/18/table-group_by</title>
    <g id="Icons/18/table-group_by" stroke="none" stroke-width="1" fill="none" fill-rule="evenodd">
        <path d="M17,13 L17,17 L8,17 L8,13 L17,13 Z M4,13 L4,16 L7,16 L7,17 L3,17 L3,13 L4,13 Z M5,6 L5,8 L7,8 L7,10 L5,10 L5,12 L3,12 L3,10 L1,10 L1,8 L3,8 L3,6 L5,6 Z M17,7 L17,11 L8,11 L8,7 L17,7 Z M17,1 L17,5 L8,5 L8,1 L17,1 Z M7,1 L7,2 L4,2 L4,5 L3,5 L3,1 L7,1 Z" id="icon" fill="#45FF00"></path>
    </g>
</svg>