<svg width="18" height="18" viewBox="0 0 18 18" fill="none" xmlns="http://www.w3.org/2000/svg">
<g id="18/table-row_plus_before">
<path id="icon" fill-rule="evenodd" clip-rule="evenodd" d="M16.5 10.5C16.5 9.67157 15.8284 9 15 9H3C2.17157 9 1.5 9.67157 1.5 10.5V15.75H3V14.25H6V15.75H7.5V14.25H10.5V15.75H12V14.25H15V15.75H16.5V10.5ZM3 10.5H6V12.75H3V10.5ZM7.5 10.5H10.5V12.75H7.5V10.5ZM15 10.5V12.75H12V10.5H15ZM8.25 7.5H9.75V5.25H12V3.75H9.75V1.5H8.25V3.75H6V5.25H8.25V7.5Z" fill="#6C6F80"/>
</g>
</svg>
