<svg xmlns="http://www.w3.org/2000/svg" width="18" height="18" fill="none" viewBox="0 0 18 18">
  <path fill="#6C6F80" fill-rule="evenodd" d="m11.595 12.66 1.065-1.065 1.59 1.598 1.59-1.598 1.065 1.065-1.598 1.59 1.598 1.59-1.065 1.065-1.59-1.598-1.59 1.598-1.065-1.065 1.598-1.59-1.598-1.59ZM3 3h10.5A1.5 1.5 0 0 1 15 4.5v5.31a4.508 4.508 0 0 0-3.24.69H9v3h.81a4.576 4.576 0 0 0 0 1.5H3a1.5 1.5 0 0 1-1.5-1.5v-9A1.5 1.5 0 0 1 3 3Zm0 3v3h4.5V6H3Zm6 0v3h4.5V6H9Zm-6 4.5v3h4.5v-3H3Z" clip-rule="evenodd"/>
</svg>
