<svg xmlns="http://www.w3.org/2000/svg" width="18" height="18" fill="none" viewBox="0 0 18 18">
  <path fill="#6C6F80" fill-rule="evenodd" d="M2.69 15.31c.294.293.647.44 1.06.44h10.5a1.45 1.45 0 0 0 1.06-.44 1.45 1.45 0 0 0 .44-1.06V3.75c0-.413-.147-.766-.44-1.06a1.446 1.446 0 0 0-1.06-.44H3.75c-.413 0-.766.147-1.06.44-.293.294-.44.647-.44 1.06v10.5c0 .412.147.766.44 1.06Zm5.56-1.06h-4.5V10.5h4.5v3.75Zm1.5 0h4.5V10.5h-4.5v3.75ZM14.25 9V5.25h-4.5V9h4.5Zm-6-3.75V9h-4.5V5.25h4.5Z" clip-rule="evenodd"/>
</svg>
