<svg width="18" height="18" viewBox="0 0 18 18" fill="none" xmlns="http://www.w3.org/2000/svg">
<path d="M3.46154 2L7.53846 2C7.79337 2 8 2.20663 8 2.46154V6.53846C8 6.79337 7.79337 7 7.53846 7H3.46154C3.20663 7 3 6.79337 3 6.53846V2.46154C3 2.20663 3.20663 2 3.46154 2Z" fill="#6C6F80"/>
<path d="M10.5 2H14.5385C14.7934 2 15 2.20663 15 2.46154V6.53846C15 6.79337 14.7934 7 14.5385 7H10.5C10.2451 7 10.0385 6.79337 10.0385 6.53846V2.46154C10.0385 2.20663 10.2451 2 10.5 2Z" fill="#6C6F80"/>
<path d="M7.53846 9.03846H3.46154C3.20663 9.03846 3 9.24509 3 9.5L3 13.5385C3 13.7934 3.20663 14 3.46154 14H7.53846C7.79337 14 8 13.7934 8 13.5385V9.5C8 9.24509 7.79337 9.03846 7.53846 9.03846Z" fill="#6C6F80"/>
<path d="M10.5 9.03846H14.5385C14.7934 9.03846 15 9.24509 15 9.5V13.5385C15 13.7934 14.7934 14 14.5385 14H10.5C10.2451 14 10.0385 13.7934 10.0385 13.5385V9.5C10.0385 9.24509 10.2451 9.03846 10.5 9.03846Z" fill="#6C6F80"/>
</svg>
