<svg xmlns="http://www.w3.org/2000/svg" width="25" height="24" viewBox="0 0 25 24"><path d="M9.5 20c-.55 0-1.02-.196-1.412-.587A1.927 1.927 0 017.5 18c0-.55.196-1.021.588-1.413A1.925 1.925 0 019.5 16c.55 0 1.021.196 1.413.587.391.392.587.863.587 1.413s-.196 1.021-.587 1.413A1.928 1.928 0 019.5 20zm6 0c-.55 0-1.02-.196-1.412-.587A1.927 1.927 0 0113.5 18c0-.55.196-1.021.588-1.413A1.925 1.925 0 0115.5 16c.55 0 1.021.196 1.413.587.391.392.587.863.587 1.413s-.196 1.021-.587 1.413A1.928 1.928 0 0115.5 20zm-6-6c-.55 0-1.02-.196-1.412-.588A1.923 1.923 0 017.5 12c0-.55.196-1.021.588-1.413A1.925 1.925 0 019.5 10c.55 0 1.021.196 1.413.587.391.392.587.863.587 1.413s-.196 1.02-.587 1.412A1.927 1.927 0 019.5 14zm6 0c-.55 0-1.02-.196-1.412-.588A1.923 1.923 0 0113.5 12c0-.55.196-1.021.588-1.413A1.925 1.925 0 0115.5 10c.55 0 1.021.196 1.413.587.391.392.587.863.587 1.413s-.196 1.02-.587 1.412A1.927 1.927 0 0115.5 14zm-6-6c-.55 0-1.02-.196-1.412-.588A1.923 1.923 0 017.5 6c0-.55.196-1.02.588-1.412A1.923 1.923 0 019.5 4c.55 0 1.021.196 1.413.588.391.391.587.862.587 1.412 0 .55-.196 1.02-.587 1.412A1.927 1.927 0 019.5 8zm6 0c-.55 0-1.02-.196-1.412-.588A1.923 1.923 0 0113.5 6c0-.55.196-1.02.588-1.412A1.923 1.923 0 0115.5 4c.55 0 1.021.196 1.413.588.391.391.587.862.587 1.412 0 .55-.196 1.02-.587 1.412A1.927 1.927 0 0115.5 8z"/></svg>