<svg xmlns="http://www.w3.org/2000/svg" width="36" height="36" viewBox="0 0 36 36"><path d="M11.286 23c0 1.571 1.229 2.857 2.762 2.857 1.525 0 2.761-1.279 2.761-2.857 0-1.578-1.236-2.857-2.761-2.857-1.533 0-2.762 1.271-2.762 2.857z"/><path fill-rule="evenodd" d="M32 10.143V13h-2.762v-2.857c0-2.367-1.855-4.286-4.143-4.286s-4.143 1.919-4.143 4.286V13h1.381c1.526 0 2.762 1.28 2.762 2.857v14.286c0 1.578-1.236 2.857-2.762 2.857H5.762C4.229 33 3 31.714 3 30.143V15.857C3 14.271 4.229 13 5.762 13H18.19v-2.857C18.19 6.198 21.282 3 25.096 3 28.91 3 32 6.198 32 10.143zm-9.667 5.714v14.286H5.762V15.857h16.571z" clip-rule="evenodd"/></svg>