<svg xmlns="http://www.w3.org/2000/svg" width="36" height="36" viewBox="0 0 36 36"><path d="M13.875 33l-.6-4.8a5.665 5.665 0 01-.918-.45c-.288-.175-.57-.363-.844-.563L7.05 29.063l-4.125-7.125 3.863-2.925a3.586 3.586 0 01-.038-.506v-1.013c0-.162.013-.33.038-.505l-3.863-2.925L7.05 6.936l4.463 1.875c.275-.2.562-.387.862-.562.3-.175.6-.325.9-.45l.6-4.8h8.25l.6 4.8c.325.125.632.275.92.45.287.175.568.363.843.563l4.462-1.876 4.125 7.125-3.862 2.926c.025.175.037.343.037.505v1.013c0 .163-.025.331-.075.506l3.863 2.925-4.125 7.125-4.425-1.875c-.275.2-.563.388-.863.563-.3.175-.6.325-.9.45l-.6 4.8h-8.25zm4.2-9.75c1.45 0 2.688-.512 3.713-1.538 1.025-1.024 1.537-2.262 1.537-3.712 0-1.45-.512-2.688-1.537-3.713s-2.263-1.537-3.713-1.537c-1.475 0-2.719.512-3.732 1.537-1.012 1.025-1.518 2.263-1.518 3.713 0 1.45.506 2.688 1.518 3.712 1.013 1.026 2.257 1.538 3.732 1.538z"/></svg>