<svg xmlns="http://www.w3.org/2000/svg" width="36" height="36" viewBox="0 0 36 36"><path fill-rule="evenodd" d="M4.5 6.405L6.42 4.5 31.5 29.58l-1.905 1.92-5.505-5.505c-.93 1.005-2.28 1.83-3.84 2.235v3.27h-4.5v-3.27c-3.045-.765-5.25-3.045-5.25-5.73h3c0 1.62 2.055 3 4.5 3 1.695 0 3.21-.66 3.975-1.62l-4.455-4.455c-3.15-.795-7.02-1.8-7.02-5.925 0-.345 0-.675.105-.99L4.5 6.405zM15.75 7.77V4.5h4.5v3.27c3.045.765 5.25 3.045 5.25 5.73h-3c0-1.62-2.055-3-4.5-3a6.66 6.66 0 00-1.575.195L14.1 8.37l1.65-.6z" clip-rule="evenodd"/></svg>