<svg xmlns="http://www.w3.org/2000/svg" width="18" height="18" viewBox="0 0 18 18"><path d="M9 15.75c-1.725 0-3.228-.572-4.509-1.716C3.21 12.89 2.475 11.462 2.288 9.75h1.537c.175 1.3.753 2.375 1.734 3.225.981.85 2.128 1.275 3.441 1.275 1.463 0 2.703-.51 3.722-1.528C13.74 11.703 14.25 10.462 14.25 9c0-1.463-.51-2.703-1.528-3.722C11.703 4.259 10.462 3.75 9 3.75c-.863 0-1.669.2-2.419.6-.75.4-1.381.95-1.894 1.65H6.75v1.5h-4.5V3h1.5v1.763a6.548 6.548 0 012.335-1.857A6.696 6.696 0 019 2.25c.938 0 1.816.178 2.635.534a6.876 6.876 0 012.137 1.444 6.875 6.875 0 011.444 2.137c.356.82.534 1.697.534 2.635 0 .938-.178 1.816-.534 2.634a6.864 6.864 0 01-1.444 2.137 6.87 6.87 0 01-2.137 1.445A6.536 6.536 0 019 15.75zm2.1-3.6L8.25 9.3V5.25h1.5V8.7l2.4 2.4-1.05 1.05z"/></svg>