<svg xmlns="http://www.w3.org/2000/svg" width="18" height="18" viewBox="0 0 18 18"><g><path d="M9 11.25a2.25 2.25 0 100-4.5 2.25 2.25 0 000 4.5z"/><path fill-rule="evenodd" d="M17.25 9S13.97 15 9 15C4.03 15 .75 9 .75 9S4.03 3 9 3c4.97 0 8.25 6 8.25 6zm-1.828.09c.021-.03.042-.06.061-.09l-.06-.09a14.82 14.82 0 00-1.516-1.87C12.568 5.644 10.874 4.5 9 4.5S5.432 5.645 4.093 7.04A14.827 14.827 0 002.517 9a14.952 14.952 0 001.576 1.96C5.432 12.356 7.126 13.5 9 13.5s3.568-1.145 4.907-2.54a14.825 14.825 0 001.515-1.87z" clip-rule="evenodd"/></g></svg>