<svg xmlns="http://www.w3.org/2000/svg" width="18" height="18" viewBox="0 0 18 18"><path fill-rule="evenodd" d="M16.5 9a7.5 7.5 0 11-15 0 7.5 7.5 0 0115 0zM9 15c1.87 0 3.542-.856 4.642-2.198a.095.095 0 00-.03.023 7.833 7.833 0 00-2.137-1.153A7.31 7.31 0 009 11.25a7.31 7.31 0 00-2.475.421c-.788.282-1.5.667-2.138 1.154a.108.108 0 00-.032-.026A5.988 5.988 0 009 15zM7.134 8.991c.506.506 1.128.759 1.866.759.737 0 1.36-.253 1.866-.759.506-.507.759-1.128.759-1.866 0-.737-.253-1.36-.759-1.866C10.359 4.753 9.737 4.5 9 4.5c-.738 0-1.36.253-1.866.759-.506.507-.76 1.128-.76 1.866 0 .737.254 1.36.76 1.866z" clip-rule="evenodd"/></svg>