<svg xmlns="http://www.w3.org/2000/svg" width="13" height="12" viewBox="0 0 13 12"><path d="M5.5 10.5a4.368 4.368 0 01-3.006-1.144A4.337 4.337 0 011.025 6.5H2.05a3.343 3.343 0 001.156 2.15c.654.567 1.419.85 2.294.85.975 0 1.802-.34 2.481-1.019C8.661 7.802 9 6.975 9 6c0-.975-.34-1.802-1.019-2.482C7.302 2.84 6.475 2.5 5.5 2.5c-.575 0-1.112.133-1.612.4s-.921.633-1.263 1.1H4v1H1V2h1v1.175A4.464 4.464 0 015.5 1.5c.625 0 1.21.119 1.756.356a4.58 4.58 0 011.425.962c.405.405.725.88.963 1.425C9.881 4.79 10 5.375 10 6s-.119 1.21-.356 1.756a4.576 4.576 0 01-.963 1.425 4.58 4.58 0 01-1.424.963A4.359 4.359 0 015.5 10.5zm1.4-2.4L5 6.2V3.5h1v2.3l1.6 1.6-.7.7z"/></svg>