<svg xmlns="http://www.w3.org/2000/svg" width="36" height="36" viewBox="0 0 36 36"><path d="M18 31.5c-3.45 0-6.456-1.144-9.018-3.432-2.563-2.287-4.032-5.143-4.407-8.568H7.65c.35 2.6 1.506 4.75 3.468 6.45 1.963 1.7 4.257 2.55 6.882 2.55 2.925 0 5.406-1.019 7.443-3.057C27.481 23.406 28.5 20.925 28.5 18s-1.019-5.406-3.057-7.444C23.406 8.518 20.925 7.5 18 7.5c-1.725 0-3.338.4-4.838 1.2-1.5.8-2.762 1.9-3.787 3.3H13.5v3h-9V6h3v3.525a13.096 13.096 0 014.67-3.713A13.391 13.391 0 0118 4.5c1.875 0 3.631.356 5.27 1.068a13.75 13.75 0 014.274 2.888 13.75 13.75 0 012.888 4.274c.712 1.638 1.068 3.395 1.068 5.27 0 1.875-.356 3.631-1.068 5.268a13.728 13.728 0 01-2.887 4.275 13.738 13.738 0 01-4.276 2.889C21.633 31.144 19.876 31.5 18 31.5zm4.2-7.2l-5.7-5.7v-8.1h3v6.9l4.8 4.8-2.1 2.1z"/></svg>