<svg xmlns="http://www.w3.org/2000/svg" width="36" height="36" viewBox="0 0 36 36"><path d="M17.075 12c3 .15 5.4 2.55 5.55 5.55l6.15 6.15c2.7-3 4.35-5.85 4.35-5.85s-6.6-12-16.5-12c-1.65.15-3.3.45-4.8 1.05l5.25 5.1zm9.45 13.95l-4.8-4.95-5.85-5.85-2.4-2.25-9.9-9.9-2.1 2.1 5.1 5.1C2.525 13.65.125 18 .125 18s6.6 12 16.5 12c2.85 0 5.25-.9 7.5-2.25l5.4 5.4 2.1-2.1-5.1-5.1zm-9.9-1.95c-3.3 0-6-2.7-6-6 0-1.05.3-2.1.75-3l2.25 2.25V18c0 1.65 1.35 3 3 3 .3 0 .45 0 .75-.15l2.25 2.25c-.9.6-1.95.9-3 .9z"/></svg>