<svg xmlns="http://www.w3.org/2000/svg" width="36" height="36" viewBox="0 0 36 36"><path fill-rule="evenodd" d="M33 18c0 8.284-6.716 15-15 15-8.284 0-15-6.716-15-15C3 9.716 9.716 3 18 3c8.284 0 15 6.716 15 15zM18 30c3.742 0 7.084-1.712 9.284-4.397a.188.188 0 00-.06.047 15.67 15.67 0 00-4.274-2.307A14.618 14.618 0 0018 22.5c-1.725 0-3.375.281-4.95.843-1.575.563-3 1.332-4.275 2.307a.217.217 0 00-.064-.053A11.976 11.976 0 0018 30zm-3.732-12.018C15.28 18.994 16.525 19.5 18 19.5s2.719-.506 3.732-1.518c1.012-1.013 1.518-2.257 1.518-3.732s-.506-2.719-1.518-3.732C20.719 9.506 19.475 9 18 9s-2.72.506-3.732 1.518c-1.012 1.013-1.518 2.257-1.518 3.732s.506 2.719 1.518 3.732z" clip-rule="evenodd"/></svg>