<svg xmlns="http://www.w3.org/2000/svg" width="36" height="36" viewBox="0 0 36 36"><path d="M18 22.5a4.5 4.5 0 100-9 4.5 4.5 0 000 9z"/><path fill-rule="evenodd" d="M34.5 18S27.941 30 18 30C8.059 30 1.5 18 1.5 18S8.059 6 18 6c9.941 0 16.5 12 16.5 12zm-3.656.18c.043-.061.083-.121.123-.18-.04-.059-.08-.119-.123-.18a29.648 29.648 0 00-3.03-3.742C25.137 11.291 21.749 9 18 9s-7.136 2.29-9.815 5.079A29.653 29.653 0 005.033 18a30.069 30.069 0 003.152 3.922C10.865 24.709 14.252 27 18 27c3.748 0 7.136-2.29 9.815-5.078a29.648 29.648 0 003.03-3.742z" clip-rule="evenodd"/></svg>