<svg xmlns="http://www.w3.org/2000/svg" width="18" height="18" viewBox="0 0 18 18"><path fill-rule="evenodd" d="M5.25 11.25h1.5c0 .81 1.027 1.5 2.25 1.5s2.25-.69 2.25-1.5c0-.825-.78-1.125-2.43-1.523-1.59-.397-3.57-.892-3.57-2.977 0-1.343 1.103-2.482 2.625-2.865V2.25h2.25v1.635c1.523.383 2.625 1.522 2.625 2.865h-1.5c0-.81-1.027-1.5-2.25-1.5s-2.25.69-2.25 1.5c0 .825.78 1.125 2.43 1.523 1.59.397 3.57.892 3.57 2.977 0 1.342-1.102 2.482-2.625 2.865v1.635h-2.25v-1.635c-1.522-.383-2.625-1.523-2.625-2.865z" clip-rule="evenodd"/></svg>