<svg xmlns="http://www.w3.org/2000/svg" width="18" height="18" viewBox="0 0 18 18"><path d="M11.475 12.525l1.05-1.05L9.75 8.7V5.25h-1.5V9.3l3.225 3.225zM9 16.5a7.3 7.3 0 01-2.925-.591 7.569 7.569 0 01-2.381-1.603 7.569 7.569 0 01-1.603-2.381A7.3 7.3 0 011.5 9a7.3 7.3 0 01.591-2.925 7.569 7.569 0 011.603-2.381A7.58 7.58 0 016.075 2.09 7.307 7.307 0 019 1.5c1.037 0 2.012.197 2.925.59a7.58 7.58 0 012.381 1.604 7.569 7.569 0 011.603 2.381A7.3 7.3 0 0116.5 9a7.3 7.3 0 01-.591 2.925 7.569 7.569 0 01-1.603 2.381 7.569 7.569 0 01-2.381 1.603A7.3 7.3 0 019 16.5zM9 15c1.662 0 3.078-.584 4.247-1.753S15 10.662 15 9s-.584-3.078-1.753-4.247S10.662 3 9 3s-3.078.584-4.247 1.753S3 7.338 3 9s.584 3.078 1.753 4.247S7.338 15 9 15z"/></svg>