<svg xmlns="http://www.w3.org/2000/svg" width="18" height="18" viewBox="0 0 18 18"><path fill-rule="evenodd" d="M9 17A8 8 0 119 1a8 8 0 010 16zm2.169-2.404A6.022 6.022 0 0014.197 12h-1.69c-.305.895-.751 1.76-1.338 2.596zM12.948 10h1.969a6.036 6.036 0 000-2h-1.97a9.493 9.493 0 010 2zM10.96 8a9.927 9.927 0 01-.021 2H7.061a9.856 9.856 0 01-.02-2h3.919zm1.547-2h1.69a6.022 6.022 0 00-3.028-2.596A10.273 10.273 0 0112.507 6zM9 3c.71.965 1.226 1.963 1.556 3H7.444C7.774 4.963 8.29 3.965 9 3zm-2.169.404A6.021 6.021 0 003.803 6h1.69c.305-.895.751-1.76 1.338-2.596zM5.052 8H3.083a6.04 6.04 0 000 2h1.97a9.493 9.493 0 010-2zm.441 4h-1.69a6.022 6.022 0 003.028 2.596A10.27 10.27 0 015.493 12zm2.018 0c.331.964.826 1.895 1.489 2.796A10.456 10.456 0 0010.489 12H7.511z" clip-rule="evenodd"/></svg>