<svg xmlns="http://www.w3.org/2000/svg" width="18" height="18" viewBox="0 0 18 18"><path d="M3.75 15.75c-.413 0-.766-.147-1.06-.44a1.446 1.446 0 01-.44-1.06v-3h1.5v3h3v1.5h-3zm7.5 0v-1.5h3v-3h1.5v3c0 .412-.147.766-.44 1.06-.294.293-.648.44-1.06.44h-3zM9 11.25a2.17 2.17 0 01-1.594-.656A2.17 2.17 0 016.75 9c0-.625.219-1.156.656-1.594A2.17 2.17 0 019 6.75a2.17 2.17 0 011.594.656c.437.438.656.969.656 1.594a2.17 2.17 0 01-.656 1.594A2.17 2.17 0 019 11.25zm-6.75-4.5v-3c0-.413.147-.766.44-1.06.294-.293.647-.44 1.06-.44h3v1.5h-3v3h-1.5zm12 0v-3h-3v-1.5h3c.412 0 .766.147 1.06.44.293.294.44.647.44 1.06v3h-1.5z"/></svg>