<svg xmlns="http://www.w3.org/2000/svg" width="25" height="24" viewBox="0 0 25 24"><path fill-rule="evenodd" d="M19.15 17.3l-3.2-3.3-3.9-3.9-1.6-1.5L3.85 2l-1.4 1.4 3.37 3.37C3.094 9.08 1.5 12 1.5 12s4.373 8 11 8c1.863 0 3.549-.632 5.008-1.542L21.15 22.1l1.4-1.4-3.4-3.4zm-3.101-.301C14.946 17.616 13.753 18 12.5 18c-2.499 0-4.757-1.527-6.543-3.386A19.762 19.762 0 013.855 12a19.893 19.893 0 012.102-2.614c.404-.42.832-.824 1.282-1.197L9.78 10.73a3 3 0 003.987 3.987l2.28 2.28z" clip-rule="evenodd"/><path d="M23.5 12s-1.055 1.93-2.915 3.895l-1.393-1.437A19.89 19.89 0 0021.145 12l-.082-.12a19.777 19.777 0 00-2.02-2.494C17.257 7.527 15 6 12.5 6c-.559 0-1.105.076-1.637.216L9.28 4.633A8.722 8.722 0 0112.5 4c6.627 0 11 8 11 8z"/></svg>