<svg xmlns="http://www.w3.org/2000/svg" width="13" height="12" viewBox="0 0 13 12"><path fill-rule="evenodd" d="M9.825 8.65L8.225 7l-1.95-1.95-.8-.75-3.3-3.3-.7.7L3.16 3.385C1.798 4.54 1 6 1 6s2.186 4 5.5 4c.932 0 1.774-.316 2.504-.77l1.821 1.82.7-.7-1.7-1.7zm-1.55-.15c-.552.308-1.148.5-1.775.5-1.25 0-2.379-.763-3.272-1.693A9.884 9.884 0 012.178 6l.04-.06a9.884 9.884 0 011.01-1.247c.202-.21.417-.412.641-.599l1.272 1.272A1.5 1.5 0 007.135 7.36l1.14 1.14z" clip-rule="evenodd"/><path d="M12 6s-.528.965-1.457 1.948l-.697-.719A9.953 9.953 0 0010.822 6l-.04-.06a9.88 9.88 0 00-1.01-1.247C8.879 3.763 7.749 3 6.5 3c-.28 0-.553.038-.819.108l-.79-.792A4.361 4.361 0 016.5 2C9.814 2 12 6 12 6z"/></svg>