<svg xmlns="http://www.w3.org/2000/svg" width="18" height="18" viewBox="0 0 18 18"><path fill-rule="evenodd" d="M4.5 6h6.75V4.5a2.17 2.17 0 00-.656-1.594A2.17 2.17 0 009 2.25a2.17 2.17 0 00-1.671.737l-1.06-1.06.078-.08C7.078 1.115 7.962.75 9 .75c1.037 0 1.922.365 2.653 1.097A3.616 3.616 0 0112.75 4.5V6h.75c.412 0 .766.147 1.06.44.293.294.44.647.44 1.06V15c0 .412-.147.766-.44 1.06-.294.293-.648.44-1.06.44h-9c-.412 0-.765-.147-1.059-.44A1.445 1.445 0 013 15V7.5c0-.412.147-.766.441-1.06C3.735 6.147 4.088 6 4.5 6zm0 9h9V7.5h-9V15zM9 12.75c.412 0 .766-.147 1.06-.44.293-.294.44-.648.44-1.06 0-.412-.147-.766-.44-1.06A1.446 1.446 0 009 9.75c-.412 0-.765.147-1.059.44a1.445 1.445 0 00-.441 1.06c0 .412.147.766.441 1.06.294.293.647.44 1.059.44z" clip-rule="evenodd"/></svg>