<svg xmlns="http://www.w3.org/2000/svg" width="25" height="24" viewBox="0 0 25 24"><path d="M5.5 21a1.93 1.93 0 01-1.413-.587A1.928 1.928 0 013.5 19v-4h2v4h4v2h-4zm10 0v-2h4v-4h2v4a1.93 1.93 0 01-.587 1.413A1.928 1.928 0 0119.5 21h-4zm-3-6a2.893 2.893 0 01-2.125-.875A2.893 2.893 0 019.5 12c0-.833.292-1.542.875-2.125A2.893 2.893 0 0112.5 9c.833 0 1.542.292 2.125.875S15.5 11.167 15.5 12s-.292 1.542-.875 2.125A2.893 2.893 0 0112.5 15zm-9-6V5c0-.55.196-1.021.587-1.413A1.928 1.928 0 015.5 3h4v2h-4v4h-2zm16 0V5h-4V3h4c.55 0 1.021.196 1.413.587.391.392.587.863.587 1.413v4h-2z"/></svg>