<svg xmlns="http://www.w3.org/2000/svg" width="36" height="36" viewBox="0 0 36 36"><path fill-rule="evenodd" d="M10.5 22.5h3c0 1.62 2.055 3 4.5 3s4.5-1.38 4.5-3c0-1.65-1.56-2.25-4.86-3.045-3.18-.795-7.14-1.785-7.14-5.955 0-2.685 2.205-4.965 5.25-5.73V4.5h4.5v3.27c3.045.765 5.25 3.045 5.25 5.73h-3c0-1.62-2.055-3-4.5-3s-4.5 1.38-4.5 3c0 1.65 1.56 2.25 4.86 3.045 3.18.795 7.14 1.785 7.14 5.955 0 2.685-2.205 4.965-5.25 5.73v3.27h-4.5v-3.27c-3.045-.765-5.25-3.045-5.25-5.73z" clip-rule="evenodd"/></svg>