<svg xmlns="http://www.w3.org/2000/svg" width="18" height="18" viewBox="0 0 18 18"><g clip-path="url(#clip0_16848_30263)"><path d="M8.037 6c1.5.075 2.7 1.275 2.775 2.775l3.075 3.075a19.553 19.553 0 002.175-2.925s-3.3-6-8.25-6c-.825.075-1.65.225-2.4.525L8.037 6zM12.762 12.975l-2.4-2.475-2.925-2.925-1.2-1.125-4.95-4.95-1.05 1.05 2.55 2.55C.763 6.825-.437 9-.437 9s3.3 6 8.25 6c1.425 0 2.625-.45 3.75-1.125l2.7 2.7 1.05-1.05-2.55-2.55zM7.812 12c-1.65 0-3-1.35-3-3 0-.525.15-1.05.375-1.5l1.125 1.125V9c0 .825.675 1.5 1.5 1.5.15 0 .225 0 .375-.075l1.126 1.125c-.45.3-.976.45-1.5.45z"/></g><defs><clipPath id="clip0_16848_30263"><path d="M0 0h18v18H0z"/></clipPath></defs></svg>