<svg xmlns="http://www.w3.org/2000/svg" width="13" height="12" viewBox="0 0 13 12"><path fill-rule="evenodd" d="M11.5 6a5 5 0 11-10 0 5 5 0 0110 0zm-5 4a3.99 3.99 0 003.095-1.466.063.063 0 00-.02.016 5.223 5.223 0 00-1.425-.769A4.873 4.873 0 006.5 7.5a4.88 4.88 0 00-1.65.281c-.525.188-1 .444-1.425.769a.072.072 0 00-.021-.018A3.992 3.992 0 006.5 10zM5.256 5.994c.338.337.752.506 1.244.506s.906-.169 1.244-.506c.337-.338.506-.752.506-1.244s-.169-.906-.506-1.244A1.692 1.692 0 006.5 3c-.492 0-.906.169-1.244.506A1.692 1.692 0 004.75 4.75c0 .492.169.906.506 1.244z" clip-rule="evenodd"/></svg>