<svg xmlns="http://www.w3.org/2000/svg" width="12" height="12" viewBox="0 0 12 12"><path fill-rule="evenodd" d="M5.995 1A4.998 4.998 0 001 6c0 2.76 2.235 5 4.995 5A5.003 5.003 0 0011 6c0-2.76-2.24-5-5.005-5zM9.46 4H7.985a7.825 7.825 0 00-.69-1.78c.92.315 1.685.955 2.165 1.78zM6 2.02c.415.6.74 1.265.955 1.98h-1.91c.215-.715.54-1.38.955-1.98zM2.13 7A4.12 4.12 0 012 6c0-.345.05-.68.13-1h1.69c-.04.33-.07.66-.07 1 0 .34.03.67.07 1H2.13zm.41 1h1.475c.16.625.39 1.225.69 1.78A3.993 3.993 0 012.54 8zm1.475-4H2.54a3.993 3.993 0 012.165-1.78c-.3.555-.53 1.155-.69 1.78zM6 9.98A7.043 7.043 0 015.045 8h1.91A7.043 7.043 0 016 9.98zM7.17 7H4.83c-.045-.33-.08-.66-.08-1 0-.34.035-.675.08-1h2.34c.045.325.08.66.08 1 0 .34-.035.67-.08 1zm.125 2.78c.3-.555.53-1.155.69-1.78H9.46a4.015 4.015 0 01-2.165 1.78zM8.18 7c.04-.33.07-.66.07-1 0-.34-.03-.67-.07-1h1.69c.08.32.13.655.13 1s-.05.68-.13 1H8.18z"/></svg>