<svg xmlns="http://www.w3.org/2000/svg" width="18" height="18" viewBox="0 0 18 18"><path fill-rule="evenodd" d="M2.25 3.203l.96-.953 12.54 12.54-.953.96-2.752-2.752c-.465.502-1.14.915-1.92 1.117v1.635h-2.25v-1.635c-1.522-.383-2.625-1.523-2.625-2.865h1.5c0 .81 1.027 1.5 2.25 1.5.848 0 1.605-.33 1.988-.81L8.76 9.713c-1.575-.398-3.51-.9-3.51-2.963 0-.173 0-.338.053-.495L2.25 3.203zm5.625.682V2.25h2.25v1.635c1.523.383 2.625 1.522 2.625 2.865h-1.5c0-.81-1.027-1.5-2.25-1.5-.277 0-.54.037-.787.098L7.05 4.184l.825-.3z" clip-rule="evenodd"/></svg>