<svg xmlns="http://www.w3.org/2000/svg" width="36" height="36" viewBox="0 0 36 36"><path fill-rule="evenodd" d="M18 16.5a1.5 1.5 0 100-3 1.5 1.5 0 000 3zm0 3a4.5 4.5 0 100-9 4.5 4.5 0 000 9z" clip-rule="evenodd"/><path d="M18 29.025c3.05-2.8 5.313-5.344 6.788-7.632C26.262 19.106 27 17.075 27 15.3c0-2.725-.869-4.957-2.607-6.695C22.656 6.868 20.525 6 18 6s-4.656.869-6.395 2.605C9.868 10.345 9 12.575 9 15.3c0 1.775.738 3.806 2.213 6.093 1.475 2.288 3.737 4.832 6.787 7.632zM18 33c-4.025-3.425-7.031-6.607-9.018-9.544C6.994 20.518 6 17.8 6 15.3c0-3.75 1.207-6.738 3.62-8.963C12.032 4.114 14.825 3 18 3c3.175 0 5.968 1.112 8.38 3.338C28.795 8.562 30 11.55 30 15.3c0 2.5-.994 5.218-2.98 8.155-1.988 2.939-4.995 6.12-9.02 9.545z"/></svg>