<svg xmlns="http://www.w3.org/2000/svg" width="18" height="18" viewBox="0 0 18 18"><path fill-rule="evenodd" d="M9 1a8 8 0 110 16A8 8 0 019 1zm1.489 11.001H7.51c.332.964.826 1.894 1.489 2.795a10.454 10.454 0 001.489-2.795zm-4.996 0h-1.69a6.021 6.021 0 003.026 2.594c-.586-.836-1.031-1.7-1.336-2.595zm8.704 0h-1.69a10.27 10.27 0 01-1.337 2.593 6.013 6.013 0 003.027-2.593zm-9.145-4h-1.97a6.04 6.04 0 00.001 2h1.97a9.492 9.492 0 010-2zM10.96 8H7.04a9.922 9.922 0 00.021 2h3.878a9.857 9.857 0 00.02-2zm3.957 0h-1.97a9.492 9.492 0 010 2h1.97a6.04 6.04 0 000-2zM6.83 3.406l-.165.066A6.023 6.023 0 003.803 6h1.69c.305-.894.75-1.759 1.337-2.594zM9 3c-.71.966-1.226 1.964-1.557 3h3.114A10.197 10.197 0 009.23 3.326L9 3zm2.171.405l.176.26c.5.755.887 1.533 1.16 2.336L14.197 6a6.021 6.021 0 00-3.026-2.595z"/></svg>