<svg xmlns="http://www.w3.org/2000/svg" width="12" height="12" viewBox="0 0 12 12"><g clip-path="url(#clip0_1700_384)"><path fill-rule="evenodd" d="M2.596 3.302L.98 1.686l.707-.707 9.333 9.333-.707.707-1.762-1.762c-.774.44-1.639.742-2.551.742-3.314 0-6-4-6-4s1.028-1.53 2.596-2.697zm1.681 1.681a2 2 0 002.74 2.74l-.758-.758A1.002 1.002 0 015.034 5.74l-.757-.757z" clip-rule="evenodd"/><path d="M6.041 4L4.355 2.314A4.673 4.673 0 016 1.999c3.314 0 6 4 6 4s-.715 1.066-1.863 2.097L8 5.958A2 2 0 006.04 4z"/></g><defs><clipPath id="clip0_1700_384"><path d="M0 0h12v12H0z"/></clipPath></defs></svg>