<svg xmlns="http://www.w3.org/2000/svg" width="25" height="24" viewBox="0 0 25 24"><path d="M12.5 21c-2.3 0-4.304-.763-6.012-2.288C4.779 17.187 3.8 15.283 3.55 13H5.6c.233 1.733 1.004 3.167 2.312 4.3C9.221 18.433 10.75 19 12.5 19c1.95 0 3.604-.68 4.962-2.038C18.821 15.604 19.5 13.95 19.5 12c0-1.95-.68-3.604-2.038-4.963C16.104 5.679 14.45 5 12.5 5a6.75 6.75 0 00-3.225.8A7.431 7.431 0 006.75 8H9.5v2h-6V4h2v2.35a8.73 8.73 0 013.113-2.475A8.928 8.928 0 0112.5 3a8.71 8.71 0 013.513.712 9.168 9.168 0 012.85 1.925 9.167 9.167 0 011.925 2.85A8.715 8.715 0 0121.5 12c0 1.25-.237 2.42-.712 3.512a9.151 9.151 0 01-1.925 2.85 9.158 9.158 0 01-2.85 1.926A8.715 8.715 0 0112.5 21zm2.8-4.8l-3.8-3.8V7h2v4.6l3.2 3.2-1.4 1.4z"/></svg>