<svg xmlns="http://www.w3.org/2000/svg" width="36" height="36" viewBox="0 0 36 36"><path fill-rule="evenodd" d="M17.985 3C9.705 3 3 9.72 3 18c0 8.28 6.705 15 14.985 15C26.28 33 33 26.28 33 18c0-8.28-6.72-15-15.015-15zm10.395 9h-4.425a23.474 23.474 0 00-2.07-5.34A12.044 12.044 0 0128.38 12zM18 6.06A21.13 21.13 0 0120.865 12h-5.73A21.13 21.13 0 0118 6.06zM6.39 21c-.24-.96-.39-1.965-.39-3s.15-2.04.39-3h5.07c-.12.99-.21 1.98-.21 3s.09 2.01.21 3H6.39zm1.23 3h4.425a23.474 23.474 0 002.07 5.34A11.98 11.98 0 017.62 24zm4.425-12H7.62a11.98 11.98 0 016.495-5.34 23.474 23.474 0 00-2.07 5.34zM18 29.94A21.13 21.13 0 0115.135 24h5.73A21.13 21.13 0 0118 29.94zM21.51 21h-7.02c-.135-.99-.24-1.98-.24-3s.105-2.025.24-3h7.02c.135.975.24 1.98.24 3s-.105 2.01-.24 3zm.375 8.34c.9-1.665 1.59-3.465 2.07-5.34h4.425a12.044 12.044 0 01-6.495 5.34zM24.54 21c.12-.99.21-1.98.21-3s-.09-2.01-.21-3h5.07c.24.96.39 1.965.39 3s-.15 2.04-.39 3h-5.07z" clip-rule="evenodd"/></svg>