<svg xmlns="http://www.w3.org/2000/svg" width="13" height="12" viewBox="0 0 13 12"><path fill-rule="evenodd" d="M6.5 5.5a.5.5 0 100-1 .5.5 0 000 1zm0 1a1.5 1.5 0 100-3 1.5 1.5 0 000 3z" clip-rule="evenodd"/><path d="M6.5 9.675c1.017-.933 1.77-1.781 2.262-2.544.492-.762.738-1.44.738-2.031 0-.908-.29-1.652-.869-2.231C8.052 2.288 7.341 2 6.5 2c-.842 0-1.552.29-2.131.869-.58.579-.869 1.323-.869 2.231 0 .592.246 1.269.737 2.031.492.763 1.246 1.61 2.263 2.544zM6.5 11C5.158 9.858 4.156 8.798 3.494 7.819 2.831 6.838 2.5 5.933 2.5 5.1c0-1.25.402-2.246 1.207-2.987C4.51 1.37 5.442 1 6.5 1s1.99.37 2.793 1.112C10.098 2.854 10.5 3.85 10.5 5.1c0 .833-.331 1.74-.993 2.719C8.844 8.797 7.842 9.858 6.5 11z"/></svg>