<svg xmlns="http://www.w3.org/2000/svg" width="36" height="36" viewBox="0 0 36 36"><path fill-rule="evenodd" d="M18 12c-3.315 0-6 2.685-6 6s2.685 6 6 6 6-2.685 6-6-2.685-6-6-6zm13.41 4.5c-.69-6.255-5.655-11.22-11.91-11.91V1.5h-3v3.09c-6.255.69-11.22 5.655-11.91 11.91H1.5v3h3.09c.69 6.255 5.655 11.22 11.91 11.91v3.09h3v-3.09c6.255-.69 11.22-5.655 11.91-11.91h3.09v-3h-3.09zM18 28.5c-5.805 0-10.5-4.695-10.5-10.5S12.195 7.5 18 7.5 28.5 12.195 28.5 18 23.805 28.5 18 28.5z" clip-rule="evenodd"/></svg>