<svg xmlns="http://www.w3.org/2000/svg" width="18" height="18" viewBox="0 0 18 18"><path d="M6.938 16.5l-.3-2.4a2.833 2.833 0 01-.46-.225 6.127 6.127 0 01-.422-.281l-2.23.937-2.063-3.562 1.93-1.463a1.793 1.793 0 01-.018-.253v-.507c0-.08.006-.165.019-.252L1.463 7.03 3.525 3.47l2.231.937c.138-.1.282-.193.432-.281.15-.088.3-.163.45-.225l.3-2.4h4.125l.3 2.4c.162.063.315.137.46.225.143.088.283.181.42.281l2.232-.937 2.063 3.562-1.932 1.463c.013.087.02.171.02.252v.507a.921.921 0 01-.038.253l1.93 1.463-2.062 3.562-2.212-.937c-.138.1-.281.194-.431.281-.15.088-.3.162-.45.225l-.3 2.4H6.938zm2.1-4.875a2.53 2.53 0 001.856-.769A2.53 2.53 0 0011.663 9a2.53 2.53 0 00-.77-1.856 2.53 2.53 0 00-1.855-.769c-.738 0-1.36.256-1.866.769A2.546 2.546 0 006.412 9c0 .725.254 1.344.76 1.856.506.513 1.128.769 1.866.769z"/></svg>