<svg xmlns="http://www.w3.org/2000/svg" width="18" height="18" viewBox="0 0 18 18"><g><path fill-rule="evenodd" d="M9 8.25a.75.75 0 100-1.5.75.75 0 000 1.5zm0 1.5a2.25 2.25 0 100-4.5 2.25 2.25 0 000 4.5z" clip-rule="evenodd"/><path d="M9 14.512c1.525-1.4 2.656-2.671 3.394-3.816C13.13 9.553 13.5 8.538 13.5 7.65c0-1.363-.434-2.478-1.303-3.347C11.328 3.434 10.263 3 9 3c-1.263 0-2.328.434-3.197 1.303C4.934 5.172 4.5 6.287 4.5 7.65c0 .887.369 1.903 1.106 3.046.738 1.145 1.869 2.417 3.394 3.816zM9 16.5c-2.013-1.713-3.516-3.303-4.509-4.772C3.497 10.259 3 8.9 3 7.65c0-1.875.603-3.369 1.81-4.481C6.016 2.056 7.413 1.5 9 1.5c1.588 0 2.984.556 4.19 1.669C14.397 4.28 15 5.775 15 7.65c0 1.25-.497 2.61-1.49 4.078-.994 1.469-2.498 3.06-4.51 4.772z"/></g></svg>