<svg xmlns="http://www.w3.org/2000/svg" width="36" height="36" viewBox="0 0 36 36"><path fill-rule="evenodd" d="M9 12h13.5V9c0-1.25-.438-2.313-1.313-3.188S19.25 4.5 18 4.5c-1.25 0-2.313.438-3.188 1.313a5.127 5.127 0 00-.155.162l-2.12-2.12a8.46 8.46 0 01.157-.162C14.156 2.231 15.925 1.5 18 1.5s3.844.731 5.307 2.193C24.769 5.156 25.5 6.925 25.5 9v3H27c.825 0 1.532.293 2.12.88.586.588.88 1.295.88 2.12v15c0 .825-.294 1.532-.88 2.12A2.893 2.893 0 0127 33H9a2.888 2.888 0 01-2.118-.88A2.89 2.89 0 016 30V15c0-.825.294-1.531.882-2.12A2.888 2.888 0 019 12zm0 18h18V15H9v15zm9-4.5c.825 0 1.532-.294 2.12-.88.586-.588.88-1.295.88-2.12 0-.825-.294-1.532-.88-2.12A2.893 2.893 0 0018 19.5c-.825 0-1.531.294-2.118.88A2.89 2.89 0 0015 22.5c0 .825.294 1.532.882 2.12.587.586 1.293.88 2.118.88z" clip-rule="evenodd"/></svg>