<svg xmlns="http://www.w3.org/2000/svg" width="25" height="24" viewBox="0 0 25 24"><path fill-rule="evenodd" d="M12.49 2C6.97 2 2.5 6.48 2.5 12s4.47 10 9.99 10c5.53 0 10.01-4.48 10.01-10S18.02 2 12.49 2zm6.93 6h-2.95a15.65 15.65 0 00-1.38-3.56A8.03 8.03 0 0119.42 8zM12.5 4.04c.83 1.2 1.48 2.53 1.91 3.96h-3.82c.43-1.43 1.08-2.76 1.91-3.96zM4.76 14c-.16-.64-.26-1.31-.26-2s.1-1.36.26-2h3.38c-.08.66-.14 1.32-.14 2 0 .68.06 1.34.14 2H4.76zm.82 2h2.95c.32 1.25.78 2.45 1.38 3.56A7.987 7.987 0 015.58 16zm2.95-8H5.58a7.987 7.987 0 014.33-3.56A15.65 15.65 0 008.53 8zm3.97 11.96c-.83-1.2-1.48-2.53-1.91-3.96h3.82c-.43 1.43-1.08 2.76-1.91 3.96zM14.84 14h-4.68c-.09-.66-.16-1.32-.16-2 0-.68.07-1.35.16-2h4.68c.09.65.16 1.32.16 2 0 .68-.07 1.34-.16 2zm.25 5.56c.6-1.11 1.06-2.31 1.38-3.56h2.95a8.03 8.03 0 01-4.33 3.56zM16.86 14c.08-.66.14-1.32.14-2 0-.68-.06-1.34-.14-2h3.38c.16.64.26 1.31.26 2s-.1 1.36-.26 2h-3.38z" clip-rule="evenodd"/></svg>