<svg xmlns="http://www.w3.org/2000/svg" width="18" height="18" viewBox="0 0 18 18"><g><path fill-rule="evenodd" d="M13.988 12.975l-2.4-2.475-2.926-2.925-1.2-1.125-4.95-4.95-1.05 1.05L3.99 5.077C1.947 6.811.75 9 .75 9S4.03 15 9 15c1.398 0 2.661-.474 3.756-1.156l2.732 2.731 1.05-1.05-2.55-2.55zm-2.326-.226c-.828.463-1.722.751-2.662.751-1.874 0-3.568-1.145-4.907-2.54A14.832 14.832 0 012.517 9a14.952 14.952 0 011.576-1.96c.303-.316.624-.619.961-.898l1.907 1.906a2.25 2.25 0 002.99 2.99l1.71 1.711z" clip-rule="evenodd"/><path d="M17.25 9s-.791 1.448-2.186 2.921l-1.045-1.077A14.922 14.922 0 0015.483 9l-.06-.09a14.82 14.82 0 00-1.516-1.87C12.568 5.644 10.874 4.5 9 4.5c-.419 0-.829.057-1.228.162L6.585 3.475A6.541 6.541 0 019 3c4.97 0 8.25 6 8.25 6z"/></g></svg>