<svg xmlns="http://www.w3.org/2000/svg" width="36" height="36" viewBox="0 0 36 36"><path d="M13.5 30a2.888 2.888 0 01-2.118-.88A2.89 2.89 0 0110.5 27c0-.825.294-1.532.882-2.12A2.888 2.888 0 0113.5 24c.825 0 1.531.294 2.12.88.586.588.88 1.295.88 2.12 0 .825-.294 1.532-.88 2.12a2.893 2.893 0 01-2.12.88zm9 0a2.888 2.888 0 01-2.118-.88A2.89 2.89 0 0119.5 27c0-.825.294-1.532.882-2.12A2.888 2.888 0 0122.5 24c.825 0 1.532.294 2.12.88.586.588.88 1.295.88 2.12 0 .825-.294 1.532-.88 2.12a2.893 2.893 0 01-2.12.88zm-9-9a2.885 2.885 0 01-2.118-.882A2.885 2.885 0 0110.5 18c0-.825.294-1.532.882-2.12A2.888 2.888 0 0113.5 15c.825 0 1.531.293 2.12.88.586.588.88 1.295.88 2.12 0 .825-.294 1.531-.88 2.118A2.89 2.89 0 0113.5 21zm9 0a2.885 2.885 0 01-2.118-.882A2.885 2.885 0 0119.5 18c0-.825.294-1.532.882-2.12A2.888 2.888 0 0122.5 15c.825 0 1.532.293 2.12.88.586.588.88 1.295.88 2.12 0 .825-.294 1.531-.88 2.118A2.89 2.89 0 0122.5 21zm-9-9a2.885 2.885 0 01-2.118-.882A2.885 2.885 0 0110.5 9c0-.825.294-1.531.882-2.118A2.885 2.885 0 0113.5 6a2.89 2.89 0 012.12.882c.586.587.88 1.293.88 2.118s-.294 1.531-.88 2.118A2.89 2.89 0 0113.5 12zm9 0a2.885 2.885 0 01-2.118-.882A2.885 2.885 0 0119.5 9c0-.825.294-1.531.882-2.118A2.885 2.885 0 0122.5 6a2.89 2.89 0 012.12.882c.586.587.88 1.293.88 2.118s-.294 1.531-.88 2.118A2.89 2.89 0 0122.5 12z"/></svg>