<svg xmlns="http://www.w3.org/2000/svg" width="25" height="24" viewBox="0 0 25 24"><path fill-rule="evenodd" d="M12.5 11a1 1 0 100-2 1 1 0 000 2zm0 2a3 3 0 100-6 3 3 0 000 6z" clip-rule="evenodd"/><path d="M12.5 19.35c2.033-1.867 3.542-3.563 4.525-5.088.983-1.525 1.475-2.879 1.475-4.062 0-1.817-.58-3.304-1.738-4.463C15.604 4.579 14.183 4 12.5 4c-1.683 0-3.104.579-4.263 1.737C7.079 6.896 6.5 8.383 6.5 10.2c0 1.183.492 2.537 1.475 4.062.983 1.525 2.492 3.221 4.525 5.088zm0 2.65c-2.683-2.283-4.687-4.404-6.012-6.363C5.163 13.679 4.5 11.867 4.5 10.2c0-2.5.804-4.492 2.413-5.975C8.521 2.742 10.383 2 12.5 2c2.117 0 3.979.742 5.587 2.225C19.696 5.708 20.5 7.7 20.5 10.2c0 1.667-.662 3.479-1.987 5.437-1.325 1.959-3.33 4.08-6.013 6.363z"/></svg>