<svg xmlns="http://www.w3.org/2000/svg" width="25" height="24" viewBox="0 0 25 24"><path d="M12.5 15a3 3 0 100-6 3 3 0 000 6z"/><path fill-rule="evenodd" d="M23.5 12s-4.373 8-11 8-11-8-11-8 4.373-8 11-8 11 8 11 8zm-2.437.12l.082-.12-.082-.12a19.777 19.777 0 00-2.02-2.494C17.257 7.527 15 6 12.5 6c-2.499 0-4.757 1.527-6.543 3.386A19.765 19.765 0 003.855 12l.082.12c.47.686 1.155 1.594 2.02 2.494C7.743 16.473 10 18 12.5 18c2.499 0 4.757-1.527 6.543-3.386a19.85 19.85 0 002.02-2.494z" clip-rule="evenodd"/></svg>