<svg xmlns="http://www.w3.org/2000/svg" width="25" height="24" viewBox="0 0 25 24"><path fill-rule="evenodd" d="M6.5 8h9V6c0-.833-.292-1.542-.875-2.125A2.893 2.893 0 0012.5 3c-.833 0-1.542.292-2.125.875l-.104.108L8.858 2.57l.105-.108C9.938 1.487 11.117 1 12.5 1s2.563.487 3.538 1.462C17.013 3.437 17.5 4.617 17.5 6v2h1c.55 0 1.021.196 1.413.587.391.392.587.863.587 1.413v10a1.93 1.93 0 01-.587 1.413A1.928 1.928 0 0118.5 22h-12c-.55 0-1.02-.196-1.412-.587A1.927 1.927 0 014.5 20V10c0-.55.196-1.021.588-1.413A1.925 1.925 0 016.5 8zm6 9a1.93 1.93 0 001.413-.587c.391-.392.587-.863.587-1.413s-.196-1.021-.587-1.413A1.928 1.928 0 0012.5 13c-.55 0-1.02.196-1.412.587A1.927 1.927 0 0010.5 15c0 .55.196 1.021.588 1.413.391.391.862.587 1.412.587z" clip-rule="evenodd"/></svg>