<svg xmlns="http://www.w3.org/2000/svg" width="18" height="18" viewBox="0 0 18 18"><path fill-rule="evenodd" d="M12 4.5h3c.412 0 .766.147 1.06.441.293.293.44.647.44 1.059v8.25c0 .412-.147.766-.44 1.06-.294.293-.647.44-1.06.44H3c-.413 0-.765-.147-1.059-.44a1.445 1.445 0 01-.441-1.06V6c0-.412.147-.766.441-1.059A1.443 1.443 0 013 4.5h3V3c0-.413.147-.766.441-1.06.293-.293.647-.44 1.059-.44h3c.412 0 .766.147 1.06.44.293.294.44.647.44 1.06v1.5zM7.5 3v1.5h3V3h-3zM3 6.003L3.004 6V6h11.994l.002.002H15v8.247l-.002.001H3.002L3 14.246V6.003z" clip-rule="evenodd"/></svg>