<svg xmlns="http://www.w3.org/2000/svg" width="13" height="12" viewBox="0 0 13 12"><path fill-rule="evenodd" d="M3.5 4H8V3c0-.417-.146-.77-.438-1.063A1.447 1.447 0 006.5 1.5a1.447 1.447 0 00-1.114.492l-.707-.707A2.409 2.409 0 016.5.5a2.41 2.41 0 011.769.731A2.41 2.41 0 019 3v1h.5c.275 0 .51.098.707.293A.964.964 0 0110.5 5v5c0 .275-.098.51-.293.707A.964.964 0 019.5 11h-6a.962.962 0 01-.706-.293A.963.963 0 012.5 10V5c0-.275.098-.51.294-.707A.963.963 0 013.5 4zm0 6h6V5h-6v5zm3-1.5c.275 0 .51-.098.707-.293A.964.964 0 007.5 7.5a.964.964 0 00-.293-.707A.964.964 0 006.5 6.5a.963.963 0 00-.706.293.963.963 0 00-.294.707c0 .275.098.51.294.707A.963.963 0 006.5 8.5z" clip-rule="evenodd"/></svg>