<svg xmlns="http://www.w3.org/2000/svg" width="36" height="36" viewBox="0 0 36 36"><path d="M7.5 31.5a2.893 2.893 0 01-2.12-.88 2.893 2.893 0 01-.88-2.12v-6h3v6h6v3h-6zm15 0v-3h6v-6h3v6c0 .825-.294 1.532-.88 2.12a2.893 2.893 0 01-2.12.88h-6zm-4.5-9c-1.25 0-2.313-.438-3.188-1.313C13.938 20.313 13.5 19.25 13.5 18c0-1.25.438-2.313 1.313-3.188.874-.874 1.937-1.312 3.187-1.312 1.25 0 2.313.438 3.188 1.313.875.874 1.312 1.937 1.312 3.187 0 1.25-.438 2.313-1.313 3.188S19.25 22.5 18 22.5zm-13.5-9v-6c0-.825.293-1.532.88-2.12A2.893 2.893 0 017.5 4.5h6v3h-6v6h-3zm24 0v-6h-6v-3h6c.825 0 1.532.293 2.12.88.586.588.88 1.295.88 2.12v6h-3z"/></svg>