<svg xmlns="http://www.w3.org/2000/svg" width="13" height="12" viewBox="0 0 13 12"><path d="M5.125 11l-.2-1.6a1.888 1.888 0 01-.306-.15 4.081 4.081 0 01-.281-.188l-1.488.626-1.375-2.376 1.288-.974a1.194 1.194 0 01-.013-.17v-.337c0-.054.004-.11.013-.169l-1.288-.974L2.85 2.313l1.488.624a3.37 3.37 0 01.287-.187c.1-.058.2-.108.3-.15l.2-1.6h2.75l.2 1.6c.108.042.21.092.307.15.095.058.189.12.28.188l1.488-.626 1.375 2.376-1.287.974c.008.059.012.115.012.169v.337a.609.609 0 01-.025.17l1.288.974-1.375 2.375-1.475-.624a3.554 3.554 0 01-.288.187c-.1.058-.2.108-.3.15l-.2 1.6h-2.75zm1.4-3.25c.483 0 .896-.17 1.238-.513.341-.341.512-.754.512-1.237 0-.483-.17-.896-.512-1.237a1.686 1.686 0 00-1.238-.513c-.492 0-.906.17-1.244.513A1.697 1.697 0 004.775 6c0 .483.169.896.506 1.237a1.68 1.68 0 001.244.513z"/></svg>