<svg xmlns="http://www.w3.org/2000/svg" width="13" height="12" viewBox="0 0 13 12"><path d="M8.15 8.35l.7-.7L7 5.8V3.5H6v2.7l2.15 2.15zM6.5 11a4.866 4.866 0 01-1.95-.394 5.045 5.045 0 01-1.587-1.069A5.043 5.043 0 011.894 7.95 4.866 4.866 0 011.5 6c0-.692.131-1.342.394-1.95a5.046 5.046 0 011.069-1.587c.45-.45.979-.807 1.587-1.07A4.871 4.871 0 016.5 1c.692 0 1.342.131 1.95.393a5.053 5.053 0 011.588 1.07c.45.45.806.979 1.068 1.587.263.608.394 1.258.394 1.95s-.131 1.342-.394 1.95a5.045 5.045 0 01-1.069 1.587c-.45.45-.979.807-1.587 1.069A4.866 4.866 0 016.5 11zm0-1c1.108 0 2.052-.39 2.832-1.168C10.11 8.052 10.5 7.107 10.5 6c0-1.108-.39-2.052-1.168-2.832C8.552 2.39 7.607 2 6.5 2c-1.108 0-2.052.39-2.831 1.168C2.889 3.949 2.5 4.893 2.5 6c0 1.108.39 2.052 1.169 2.832C4.448 9.61 5.392 10 6.5 10z"/></svg>