<svg xmlns="http://www.w3.org/2000/svg" width="18" height="18" viewBox="0 0 18 18"><path fill-rule="evenodd" d="M8 13.5c0 .825-.675 1.5-1.5 1.5S5 14.325 5 13.5 5.675 12 6.5 12s1.5.675 1.5 1.5zm-1.5-6C5.675 7.5 5 8.175 5 9s.675 1.5 1.5 1.5S8 9.825 8 9s-.675-1.5-1.5-1.5zm0-4.5C5.675 3 5 3.675 5 4.5S5.675 6 6.5 6 8 5.325 8 4.5 7.325 3 6.5 3zm5 3c.825 0 1.5-.675 1.5-1.5S12.325 3 11.5 3 10 3.675 10 4.5 10.675 6 11.5 6zm0 1.5c-.825 0-1.5.675-1.5 1.5s.675 1.5 1.5 1.5S13 9.825 13 9s-.675-1.5-1.5-1.5zm0 4.5c-.825 0-1.5.675-1.5 1.5s.675 1.5 1.5 1.5 1.5-.675 1.5-1.5-.675-1.5-1.5-1.5z" clip-rule="evenodd"/></svg>