<svg xmlns="http://www.w3.org/2000/svg" width="36" height="36" viewBox="0 0 36 36"><path fill-rule="evenodd" d="M27.975 25.95l-4.8-4.95-5.85-5.85-2.4-2.25-9.9-9.9-2.1 2.1 5.054 5.054C3.893 13.622 1.5 18 1.5 18S8.059 30 18 30c2.795 0 5.323-.949 7.512-2.312l5.463 5.462 2.1-2.1-5.1-5.1zm-4.652-.452C21.669 26.424 19.88 27 18 27c-3.748 0-7.136-2.29-9.815-5.078A29.653 29.653 0 015.033 18a30.069 30.069 0 013.152-3.921 23.256 23.256 0 011.923-1.796l3.814 3.814a4.5 4.5 0 005.981 5.981l3.42 3.42z" clip-rule="evenodd"/><path d="M34.5 18s-1.583 2.896-4.372 5.843l-2.09-2.156A29.843 29.843 0 0030.966 18c-.04-.059-.08-.119-.123-.18a29.648 29.648 0 00-3.03-3.742C25.137 11.291 21.749 9 18 9c-.838 0-1.658.114-2.456.323L13.171 6.95C14.668 6.358 16.284 6 18 6c9.941 0 16.5 12 16.5 12z"/></svg>