<svg xmlns="http://www.w3.org/2000/svg" width="13" height="12" viewBox="0 0 13 12"><g clip-path="url(#a)"><path d="M6.525 4c1 .05 1.8.85 1.85 1.85l2.05 2.05c.9-1 1.45-1.95 1.45-1.95s-2.2-4-5.5-4c-.55.05-1.1.15-1.6.35L6.525 4zm3.15 4.65L8.075 7l-1.95-1.95-.8-.75-3.3-3.3-.7.7 1.7 1.7C1.675 4.55.875 6 .875 6s2.2 4 5.5 4c.95 0 1.75-.3 2.5-.75l1.8 1.8.7-.7-1.7-1.7zM6.375 8c-1.1 0-2-.9-2-2 0-.35.1-.7.25-1l.75.75V6c0 .55.45 1 1 1 .1 0 .15 0 .25-.05l.75.75c-.3.2-.65.3-1 .3z"/></g><defs><clipPath id="a"><path d="M.5 0h12v12H.5z"/></clipPath></defs></svg>