<svg xmlns="http://www.w3.org/2000/svg" width="24" height="24" viewBox="0 0 24 24"><path fill-rule="evenodd" d="M5.191 6.603L1.96 3.371l1.414-1.414L22.04 20.624l-1.414 1.414-3.524-3.524c-1.548.878-3.278 1.485-5.102 1.485-6.627 0-12-8-12-8s2.055-3.06 5.191-5.396zm3.363 3.363a4 4 0 005.478 5.478l-1.513-1.513A2.004 2.004 0 0110 11.999c0-.18.024-.354.068-.52L8.554 9.967z" clip-rule="evenodd"/><path d="M12.082 8L8.711 4.628c1.045-.392 2.148-.63 3.289-.63 6.627 0 12 8 12 8s-1.43 2.131-3.726 4.193l-4.275-4.274A4 4 0 0012.082 8z"/></svg>