<svg xmlns="http://www.w3.org/2000/svg" width="36" height="36" viewBox="0 0 36 36"><path d="M28.931 10.936h-6.908v2.062h6.909v-2.062z"/><path fill-rule="evenodd" d="M13.213 26.694s5.318.169 5.318-4.942c0 0 .232-4.158-3.136-4.158 0 0 2.555-.19 2.555-3.186S15.86 9.95 13.214 9.95H4.5v16.744h8.713zm.001-7.45H8.34v4.475h4.391c.065.001.147.002.237 0 .694-.016 2.01-.218 2.01-2.175 0-2.324-1.763-2.3-1.763-2.3zm0-6.318s1.184 0 1.184 1.742c0 1.74-.697 1.994-1.486 1.994H8.339v-3.736h4.875zm9.564 8.552h8.677s.948-7.268-5.83-7.268c-6.439 0-6.432 6.433-6.432 6.433s-.443 6.401 6.432 6.401c0 0 5.732.328 5.732-4.453h-2.948s.097 1.801-2.685 1.801c0 0-2.946.196-2.946-2.914zm-.037-2.234s.36-2.582 2.946-2.582c2.588 0 2.553 2.582 2.553 2.582h-5.5z" clip-rule="evenodd"/></svg>