<svg xmlns="http://www.w3.org/2000/svg" width="13" height="12" viewBox="0 0 13 12"><path d="M10.144 3.645H7.84v.688h2.303v-.688z"/><path fill-rule="evenodd" d="M4.904 8.898s1.773.056 1.773-1.647c0 0 .077-1.386-1.045-1.386 0 0 .851-.064.851-1.062 0-.999-.696-1.486-1.579-1.486H2v5.581h2.904zm0-2.483H3.28v1.491h1.543c.23-.005.67-.072.67-.725 0-.774-.588-.766-.588-.766zm0-2.106s.395 0 .395.58-.232.665-.495.665H3.28V4.309h1.625zM8.093 7.16h2.892s.316-2.423-1.943-2.423c-2.147 0-2.144 2.144-2.144 2.144S6.75 9.015 9.042 9.015c0 0 1.91.109 1.91-1.485H9.97s.032.6-.895.6c0 0-.982.066-.982-.97zm-.013-.745s.12-.861.982-.861c.863 0 .851.86.851.86H8.08z" clip-rule="evenodd"/></svg>