<svg xmlns="http://www.w3.org/2000/svg" width="18" height="18" viewBox="0 0 18 18"><g><path d="M14.466 5.468h-3.454v1.03h3.454v-1.03z"/><path fill-rule="evenodd" d="M6.607 13.347s2.659.084 2.659-2.471c0 0 .116-2.079-1.568-2.079 0 0 1.277-.095 1.277-1.593S7.93 4.975 6.607 4.975H2.25v8.372h4.357zm0-3.725H4.17v2.238h2.314c.347-.008 1.005-.11 1.005-1.088 0-1.162-.882-1.15-.882-1.15zm0-3.159s.592 0 .592.87c0 .871-.349.998-.743.998H4.17V6.463h2.437zM11.389 10.74h4.338s.475-3.635-2.914-3.635c-3.22 0-3.217 3.216-3.217 3.216s-.22 3.201 3.217 3.201c0 0 2.865.164 2.865-2.227h-1.473s.048.901-1.343.901c0 0-1.473.098-1.473-1.457zm-.019-1.118s.18-1.291 1.473-1.291c1.295 0 1.277 1.29 1.277 1.29h-2.75z" clip-rule="evenodd"/></g></svg>