<svg xmlns="http://www.w3.org/2000/svg" width="18" height="18" viewBox="0 0 18 18"><path d="M13.5 11.363l-7.35-7.35c.25-.188.519-.36.806-.516.288-.156.594-.272.919-.347v-.525c0-.313.11-.578.328-.796.219-.22.484-.329.797-.329.312 0 .578.11.796.329.22.218.329.484.329.796v.525c.975.25 1.781.772 2.419 1.565.637.794.956 1.723.956 2.785v3.863zM3 14.25v-1.5h1.5V7.5a4.554 4.554 0 01.075-.825L1.05 3.15 2.1 2.1l13.8 13.8-1.05 1.05-2.738-2.7H3zm6 2.25c-.413 0-.766-.147-1.06-.44A1.445 1.445 0 017.5 15h3c0 .412-.147.766-.44 1.06-.294.293-.648.44-1.06.44z"/></svg>