<svg xmlns="http://www.w3.org/2000/svg" width="36" height="36" viewBox="0 0 36 36"><path d="M6 28.5v-3h3V15c0-2.075.625-3.919 1.875-5.532C12.125 7.856 13.75 6.8 15.75 6.3V5.25c0-.625.219-1.156.657-1.593A2.166 2.166 0 0118 3c.625 0 1.156.219 1.593.657.438.437.657.968.657 1.593V6.3c2 .5 3.625 1.556 4.875 3.168C26.375 11.081 27 12.925 27 15v10.5h3v3H6zM18 33a2.888 2.888 0 01-2.118-.88A2.89 2.89 0 0115 30h6c0 .825-.294 1.532-.88 2.12A2.893 2.893 0 0118 33zm-6-7.5h12V15c0-1.65-.587-3.063-1.762-4.238C21.063 9.587 19.65 9 18 9c-1.65 0-3.063.588-4.238 1.762C12.587 11.938 12 13.35 12 15v10.5z"/></svg>