<svg xmlns="http://www.w3.org/2000/svg" width="13" height="12" viewBox="0 0 13 12"><path d="M2.5 9.5v-1h1V5a3.145 3.145 0 01.425-1.575l.75.75A2.086 2.086 0 004.5 5v3.5h3.1L1.2 2.1l.7-.7 9.2 9.2-.7.7-1.825-1.8H2.5zm7-1.925l-1-1V5c0-.55-.196-1.02-.587-1.413A1.926 1.926 0 006.5 3c-.225 0-.435.035-.63.107-.197.07-.378.168-.545.293L4.6 2.675a4.4 4.4 0 01.538-.344c.191-.104.396-.181.612-.231v-.35a.72.72 0 01.22-.531A.722.722 0 016.5 1a.72.72 0 01.531.219.722.722 0 01.22.531v.35c.65.167 1.187.514 1.612 1.043A2.88 2.88 0 019.5 5v2.575zM6.5 11a.962.962 0 01-.706-.293A.963.963 0 015.5 10h2c0 .275-.098.51-.293.707A.964.964 0 016.5 11z"/></svg>