<svg xmlns="http://www.w3.org/2000/svg" width="36" height="36" viewBox="0 0 36 36"><path d="M6 28.5v-3h3V15c0-.825.107-1.637.32-2.438.212-.8.53-1.562.956-2.287l2.25 2.25a6.26 6.26 0 00-.393 1.218A6.015 6.015 0 0012 15v10.5h9.3L2.1 6.3l2.1-2.1 27.6 27.6-2.1 2.1-5.475-5.4H6zm21-5.775l-3-3V15c0-1.65-.587-3.063-1.762-4.238C21.063 9.587 19.651 9 18.001 9c-.675 0-1.306.107-1.893.32a6.223 6.223 0 00-1.632.88L12.3 8.025c.5-.375 1.037-.719 1.612-1.032A7.254 7.254 0 0115.75 6.3V5.25c0-.625.219-1.156.657-1.593A2.166 2.166 0 0118 3c.625 0 1.156.219 1.593.657.438.437.657.968.657 1.593V6.3c1.95.5 3.562 1.543 4.837 3.13C26.362 11.018 27 12.875 27 15v7.725zM18 33a2.888 2.888 0 01-2.117-.88A2.89 2.89 0 0115 30h6c0 .825-.294 1.532-.88 2.12A2.893 2.893 0 0118 33z"/></svg>