<svg xmlns="http://www.w3.org/2000/svg" width="36" height="36" viewBox="0 0 36 36"><path d="M27 22.725l-14.7-14.7c.5-.375 1.037-.719 1.612-1.032A7.254 7.254 0 0115.75 6.3V5.25c0-.625.219-1.156.657-1.593A2.166 2.166 0 0118 3c.625 0 1.156.219 1.593.657.438.437.657.968.657 1.593V6.3c1.95.5 3.562 1.543 4.837 3.13C26.362 11.018 27 12.876 27 15v7.725zM6 28.5v-3h3V15a9.108 9.108 0 01.15-1.65L2.1 6.3l2.1-2.1 27.6 27.6-2.1 2.1-5.475-5.4H6zM18 33a2.888 2.888 0 01-2.118-.88A2.89 2.89 0 0115 30h6c0 .825-.294 1.532-.88 2.12A2.893 2.893 0 0118 33z"/></svg>