<svg xmlns="http://www.w3.org/2000/svg" width="12" height="12" viewBox="0 0 12 12"><g clip-path="url(#clip0_2005_749)"><path d="M11.055 10.73L1.195.865l-.64.635 2.36 2.36A3.487 3.487 0 002.5 5.5v3l-1 1v.5h7.555l1.365 1.365.635-.635zM3.5 9V5.5c0-.305.055-.605.17-.885L8.055 9H3.5zM5 10.5h2a1 1 0 11-2 0zm-.855-7.955c.265-.17.555-.295.855-.4V2a1 1 0 012 0v.145A3.495 3.495 0 019.5 5.5v2.4l-1-1V5.5A2.5 2.5 0 006 3c-.39 0-.775.1-1.12.28l-.735-.735z"/></g><defs><clipPath id="clip0_2005_749"><path d="M0 0h12v12H0z"/></clipPath></defs></svg>