<svg xmlns="http://www.w3.org/2000/svg" width="25" height="24" viewBox="0 0 25 24"><path d="M4.5 19v-2h2v-7c0-1.383.417-2.613 1.25-3.688C8.583 5.237 9.667 4.533 11 4.2v-.7c0-.417.146-.77.438-1.062A1.444 1.444 0 0112.5 2c.417 0 .77.146 1.062.438.292.291.438.645.438 1.062v.7c1.333.333 2.417 1.037 3.25 2.112.833 1.075 1.25 2.305 1.25 3.688v7h2v2h-16zm8 3c-.55 0-1.02-.196-1.412-.587A1.927 1.927 0 0110.5 20h4a1.93 1.93 0 01-.587 1.413A1.928 1.928 0 0112.5 22zm-4-5h8v-7c0-1.1-.392-2.042-1.175-2.825C14.542 6.392 13.6 6 12.5 6s-2.042.392-2.825 1.175C8.892 7.958 8.5 8.9 8.5 10v7z"/></svg>