<svg xmlns="http://www.w3.org/2000/svg" width="18" height="18" viewBox="0 0 18 18"><path d="M3 14.25v-1.5h1.5V7.5c0-.412.053-.819.16-1.219.106-.4.265-.781.477-1.143l1.125 1.125a3.13 3.13 0 00-.196.609A3.008 3.008 0 006 7.5v5.25h4.65l-9.6-9.6L2.1 2.1l13.8 13.8-1.05 1.05-2.738-2.7H3zm10.5-2.887l-1.5-1.5V7.5c0-.825-.294-1.531-.881-2.119a2.889 2.889 0 00-2.12-.881c-.337 0-.652.053-.946.16a3.111 3.111 0 00-.816.44L6.15 4.013c.25-.188.519-.36.806-.516.288-.156.594-.272.919-.347v-.525c0-.313.11-.578.328-.796.219-.22.484-.329.797-.329.312 0 .578.11.796.329.22.218.329.484.329.796v.525c.975.25 1.781.772 2.419 1.565.637.794.956 1.723.956 2.785v3.863zM9 16.5c-.413 0-.766-.147-1.06-.44A1.445 1.445 0 017.5 15h3c0 .412-.147.766-.44 1.06-.294.293-.648.44-1.06.44z"/></svg>