<svg xmlns="http://www.w3.org/2000/svg" width="25" height="24" viewBox="0 0 25 24"><path d="M4.5 19v-2h2v-7c0-.55.07-1.092.213-1.625A6.086 6.086 0 017.35 6.85l1.5 1.5a4.174 4.174 0 00-.262.812A4.01 4.01 0 008.5 10v7h6.2L1.9 4.2l1.4-1.4 18.4 18.4-1.4 1.4-3.65-3.6H4.5zm14-3.85l-2-2V10c0-1.1-.392-2.042-1.175-2.825C14.542 6.392 13.6 6 12.5 6c-.45 0-.87.071-1.262.213a4.148 4.148 0 00-1.088.587L8.7 5.35c.333-.25.692-.48 1.075-.688A4.836 4.836 0 0111 4.2v-.7c0-.417.146-.77.438-1.062A1.444 1.444 0 0112.5 2c.417 0 .77.146 1.062.438.292.291.438.645.438 1.062v.7a5.927 5.927 0 013.225 2.087C18.075 7.346 18.5 8.583 18.5 10v5.15zm-6 6.85c-.55 0-1.02-.196-1.412-.587A1.927 1.927 0 0110.5 20h4a1.93 1.93 0 01-.587 1.413A1.928 1.928 0 0112.5 22z"/></svg>