<svg xmlns="http://www.w3.org/2000/svg" width="25" height="24" viewBox="0 0 25 24"><path d="M18.5 15.15l-9.8-9.8c.333-.25.692-.48 1.075-.688A4.836 4.836 0 0111 4.2v-.7c0-.417.146-.77.438-1.062A1.444 1.444 0 0112.5 2c.417 0 .77.146 1.062.438.292.291.438.645.438 1.062v.7a5.927 5.927 0 013.225 2.087C18.075 7.346 18.5 8.583 18.5 10v5.15zM4.5 19v-2h2v-7a6.074 6.074 0 01.1-1.1L1.9 4.2l1.4-1.4 18.4 18.4-1.4 1.4-3.65-3.6H4.5zm8 3c-.55 0-1.02-.196-1.412-.587A1.927 1.927 0 0110.5 20h4a1.93 1.93 0 01-.587 1.413A1.928 1.928 0 0112.5 22z"/></svg>