<svg xmlns="http://www.w3.org/2000/svg" width="36" height="36" viewBox="0 0 36 36"><path fill-rule="evenodd" d="M18.045 24.795c-3.99 0-5.775-1.965-5.775-3.435 0-.75.555-1.29 1.32-1.29 1.71 0 1.275 2.43 4.455 2.43 1.635 0 2.55-.855 2.55-1.77 0-.54-.27-1.14-1.35-1.41l-3.555-.885c-2.865-.72-3.39-2.265-3.39-3.72 0-3.03 2.85-4.17 5.52-4.17 2.43 0 5.37 1.365 5.37 3.18 0 .78-.69 1.23-1.44 1.23-1.5 0-1.2-2.025-4.14-2.025-1.455 0-2.265.66-2.265 1.605S16.5 15.75 17.49 16.02l2.64.585c2.88.645 3.615 2.325 3.615 3.9 0 2.46-1.89 4.29-5.7 4.29zM27 9c3.105 3.06 4.275 7.335 3.54 11.325.615 1.08.96 2.34.96 3.675a7.5 7.5 0 01-7.5 7.5 7.414 7.414 0 01-3.675-.96C16.335 31.275 12.06 30.105 9 27c-3.105-3.06-4.275-7.335-3.54-11.325A7.414 7.414 0 014.5 12 7.5 7.5 0 0112 4.5c1.335 0 2.595.345 3.675.96C19.665 4.725 23.94 5.895 27 9zM12 7.5A4.5 4.5 0 007.5 12c0 1.185.45 2.25 1.2 3.06a9.791 9.791 0 002.4 9.84 9.791 9.791 0 009.84 2.4c.81.75 1.875 1.2 3.06 1.2a4.5 4.5 0 004.5-4.5c0-1.185-.45-2.25-1.2-3.06a9.791 9.791 0 00-2.4-9.84 9.791 9.791 0 00-9.84-2.4A4.468 4.468 0 0012 7.5z" clip-rule="evenodd"/></svg>