<svg xmlns="http://www.w3.org/2000/svg" width="18" height="18" viewBox="0 0 18 18"><g><path fill-rule="evenodd" d="M1 8.981c0 1.362.353 2.698.97 3.783l2.661-1.526-.277-.466c-.114-.19-.038-.43.151-.543l4.413-2.534.467.895c.075.114.189.19.353.19.075 0 .113 0 .189-.038.189-.114.277-.353.151-.543L9.322 6.8l-.038-.038c-.114-.189-.038-.429.151-.504l.744-.391c.189-.114.429-.038.542.151l2.345 4.022c.114.19.038.429-.151.543l-.706.39c-.19.114-.429.038-.542-.151l-.316-.504-2.622 1.525c.113-.037.24-.075.353-.075.466 0 .857.39.857.895a.91.91 0 01-.277.63l1.639 3.442C14.579 15.676 17 12.638 17 9.006A7.993 7.993 0 008.994 1C4.594.975 1 4.568 1 8.981zm3.707-4.993s-.038.038-.076.038c0 0-.038-.038-.038-.113v-.038l.038-.038c1.097-.933 2.421-1.488 3.947-1.488 1.916.038 3.593.971 4.69 2.345l.038.038a.44.44 0 01.113.315c0 .24-.189.43-.466.43a.419.419 0 01-.353-.19c-1.097-1.324-2.736-2.232-4.653-2.232a5.695 5.695 0 00-3.24.933zm9.478 3.887c.136.14.26.267.331.249.078-.04.056-.265.033-.496-.022-.218-.044-.44.018-.513.03-.045.165-.116.314-.194.228-.12.49-.257.467-.348-.023-.101-.345-.169-.605-.223-.161-.034-.299-.063-.328-.092-.059-.036-.09-.244-.123-.459-.036-.242-.074-.492-.154-.512-.082 0-.2.217-.316.428-.098.18-.194.357-.264.392-.073.033-.266 0-.466-.035-.252-.043-.513-.088-.555-.003-.074.139.121.329.297.501.127.124.245.239.245.318 0 .077-.077.226-.158.384-.119.231-.247.482-.157.55.109.087.353-.032.576-.14.163-.08.315-.154.394-.138.127 0 .297.173.45.331z" clip-rule="evenodd"/><path d="M8.111 12.537c0-.278.151-.542.353-.706l-2.307 1.324c-.19.113-.429.037-.542-.152l-.24-.39L2.803 14.1a8.026 8.026 0 003.909 2.623l1.639-3.48c-.126-.202-.24-.429-.24-.706zM8.615 16.988v-2.421l-1.096 2.27c.353.075.706.113 1.096.15zM10.494 16.836a5.397 5.397 0 01-1.097.114v-2.345l1.097 2.231zM1.24 12.928a.376.376 0 01.542.113l.668 1.06a.376.376 0 01-.114.541c-.037.038-.113.038-.189.038a.403.403 0 01-.353-.189l-.668-1.059c-.126-.19-.038-.429.114-.504z"/></g></svg>