<svg xmlns="http://www.w3.org/2000/svg" width="36" height="36" viewBox="0 0 36 36"><path d="M29.925 31.5c-3.225 0-6.369-.719-9.43-2.157a28.567 28.567 0 01-8.138-5.7 28.567 28.567 0 01-5.7-8.138C5.219 12.444 4.5 9.3 4.5 6.075c0-.45.15-.825.45-1.125.3-.3.675-.45 1.125-.45h6.075c.35 0 .662.112.938.338.275.224.437.512.487.862l.975 5.25c.05.35.044.668-.018.956a1.54 1.54 0 01-.432.769l-3.6 3.675c1.05 1.8 2.363 3.487 3.938 5.063A27.44 27.44 0 0019.65 25.5l3.525-3.525c.225-.225.519-.394.882-.507a2.418 2.418 0 011.068-.093l5.175 1.05c.35.075.637.244.863.505.224.264.337.57.337.92v6.075c0 .45-.15.825-.45 1.125-.3.3-.675.45-1.125.45z"/></svg>