<svg xmlns="http://www.w3.org/2000/svg" width="36" height="36" viewBox="0 0 36 36"><path fill-rule="evenodd" d="M2 17.962c0 2.724.706 5.397 1.942 7.566l5.32-3.052-.554-.933c-.227-.378-.076-.857.302-1.084l8.826-5.069.933 1.79a.806.806 0 00.706.379c.151 0 .227 0 .378-.076.379-.227.555-.706.303-1.084l-1.513-2.8-.076-.075c-.227-.378-.075-.857.303-1.008l1.488-.782c.378-.227.857-.076 1.084.303l4.69 8.044c.227.378.076.857-.302 1.084l-1.412.782c-.379.227-.858.075-1.085-.303l-.63-1.009-5.245 3.052c.227-.076.479-.152.706-.152.933 0 1.715.782 1.715 1.79 0 .48-.227.934-.555 1.262l3.278 6.884C29.158 31.353 34 25.275 34 18.013 34 9.187 26.889 2 17.987 2 9.187 1.95 2 9.137 2 17.962zm7.414-9.985s-.076.075-.152.075c0 0-.075-.075-.075-.227V7.75l.075-.076c2.194-1.866 4.842-2.976 7.893-2.976 3.833.076 7.187 1.942 9.38 4.69l.076.076c.152.152.227.379.227.63 0 .48-.378.858-.933.858a.838.838 0 01-.706-.378c-2.194-2.648-5.472-4.463-9.305-4.463-2.42-.026-4.513.605-6.48 1.866zM28.37 15.75c.272.28.52.533.662.498.156-.078.111-.53.066-.992-.043-.435-.087-.879.035-1.026.06-.09.33-.231.63-.388.455-.239.98-.513.934-.696-.047-.202-.69-.338-1.211-.447-.322-.068-.598-.126-.655-.183-.119-.072-.182-.488-.247-.918-.072-.484-.148-.984-.308-1.024-.163 0-.4.434-.631.856-.197.36-.39.713-.53.783-.144.067-.532 0-.932-.068-.503-.086-1.025-.176-1.11-.008-.146.279.243.659.595 1.003.255.248.49.478.49.636 0 .154-.154.452-.316.767-.237.464-.495.965-.315 1.1.219.174.707-.063 1.153-.28.326-.16.63-.307.789-.275.254 0 .593.347.9.662z" clip-rule="evenodd"/><path d="M16.222 25.074c0-.555.303-1.085.706-1.413l-4.614 2.648c-.379.227-.858.076-1.085-.302l-.479-.782L5.606 28.2a16.052 16.052 0 007.817 5.246l3.278-6.96c-.252-.404-.479-.858-.479-1.412zm1.008 8.901v-4.842l-2.193 4.54c.706.15 1.412.226 2.194.302zm3.758-.303c-.706.152-1.488.227-2.194.227v-4.69l2.194 4.463zM2.48 25.855c.377-.252.856-.151 1.083.227L4.9 28.2c.252.379.151.858-.227 1.085-.076.075-.227.075-.378.075a.806.806 0 01-.706-.378l-1.337-2.118c-.252-.378-.075-.857.227-1.009z"/></svg>