<svg xmlns="http://www.w3.org/2000/svg" width="18" height="18" viewBox="0 0 18 18"><path fill-rule="evenodd" d="M9.023 12.523c-2.069 0-2.994-1.019-2.994-1.78 0-.39.288-.67.684-.67.887 0 .661 1.26 2.31 1.26.848 0 1.323-.443 1.323-.917 0-.28-.14-.592-.7-.732l-1.844-.458c-1.485-.374-1.758-1.175-1.758-1.93 0-1.57 1.478-2.162 2.863-2.162 1.26 0 2.784.708 2.784 1.65 0 .404-.358.637-.747.637-.777 0-.622-1.05-2.146-1.05-.755 0-1.175.342-1.175.832 0 .49.6.63 1.113.77l1.368.304c1.494.334 1.875 1.205 1.875 2.022 0 1.275-.98 2.224-2.956 2.224zm4.644-8.19a6.554 6.554 0 011.835 5.873c.32.56.498 1.213.498 1.905a3.889 3.889 0 01-5.794 3.391 6.554 6.554 0 01-5.873-1.835 6.554 6.554 0 01-1.835-5.873 3.889 3.889 0 015.297-5.297 6.554 6.554 0 015.872 1.836zm-7.778-.777a2.333 2.333 0 00-1.711 3.92 5.077 5.077 0 001.244 5.102 5.077 5.077 0 005.102 1.244 2.333 2.333 0 003.298-3.298 5.077 5.077 0 00-1.244-5.102 5.077 5.077 0 00-5.102-1.244 2.316 2.316 0 00-1.587-.622z" clip-rule="evenodd"/></svg>