<svg xmlns="http://www.w3.org/2000/svg" width="18" height="18" viewBox="0 0 18 18"><path d="M14.963 15.75c-1.613 0-3.185-.36-4.716-1.079a14.283 14.283 0 01-4.069-2.85 14.283 14.283 0 01-2.85-4.068C2.61 6.222 2.25 4.65 2.25 3.038c0-.225.075-.413.225-.563a.763.763 0 01.563-.225h3.037a.72.72 0 01.469.169.66.66 0 01.244.431l.487 2.625c.025.175.022.334-.009.478a.77.77 0 01-.216.385l-1.8 1.837c.525.9 1.181 1.744 1.969 2.531a13.72 13.72 0 002.606 2.044l1.763-1.762c.112-.113.259-.197.44-.254a1.21 1.21 0 01.534-.046l2.588.524a.762.762 0 01.431.253.685.685 0 01.169.46v3.037a.763.763 0 01-.225.563.763.763 0 01-.563.225z"/></svg>