<svg xmlns="http://www.w3.org/2000/svg" width="24" height="24" viewBox="0 0 24 24"><path fill-rule="evenodd" d="M11.512 18.976V22c-.488-.047-.93-.094-1.37-.189l1.37-2.835zm.976.048l1.37 2.787c-.44.095-.929.142-1.37.142v-2.93zM11.984 2.03c5.56 0 10 4.489 10 10 0 4.536-3.023 8.331-7.118 9.654l-2.047-4.3c.205-.204.346-.487.346-.787 0-.63-.488-1.118-1.07-1.118-.142 0-.3.048-.441.095l3.275-1.906.394.63c.142.236.44.33.677.19l.882-.489c.236-.142.33-.44.189-.677l-2.93-5.024c-.141-.236-.44-.33-.676-.189l-.93.488c-.236.095-.33.394-.189.63l.048.048.945 1.748c.157.236.047.535-.19.677-.094.047-.141.047-.236.047a.504.504 0 01-.44-.236l-.583-1.118-5.512 3.165c-.236.142-.33.441-.189.677l.346.583-3.322 1.905C2.44 15.37 2 13.701 2 12c0-5.512 4.488-10 9.984-9.969zm-.661 13.528c-.252.205-.441.535-.441.882 0 .346.142.63.3.882l-2.048 4.346a10.025 10.025 0 01-4.882-3.275l3.213-1.859.299.489c.142.236.44.33.677.189zm-9.024 1.37a.47.47 0 01.677.142l.835 1.323a.47.47 0 01-.142.677c-.047.047-.141.047-.236.047a.504.504 0 01-.44-.236l-.836-1.323c-.157-.236-.047-.535.142-.63zm16.11-9.543c-.189 0-.535.929-.724 1.023-.205.095-1.181-.236-1.276-.047-.157.3.678.788.678 1.024s-.583 1.023-.394 1.165c.236.19.976-.394 1.213-.346.299 0 .787.771.976.724.189-.094-.095-1.07.063-1.26.094-.141 1.024-.488.976-.677-.047-.205-1.07-.3-1.165-.394-.158-.094-.158-1.165-.347-1.212zm-6.944-3.67c-1.906 0-3.56.693-4.93 1.859l-.047.047v.047c0 .095.047.142.047.142.048 0 .095-.047.095-.047a7.113 7.113 0 014.047-1.166c2.394 0 4.441 1.134 5.811 2.788a.523.523 0 00.441.236c.347 0 .583-.236.583-.535 0-.158-.047-.3-.142-.394l-.027-.027-.02-.02c-1.37-1.717-3.465-2.882-5.858-2.93z"/></svg>