<svg xmlns="http://www.w3.org/2000/svg" width="36" height="36" viewBox="0 0 36 36"><path fill-rule="evenodd" d="M27 9c3.105 3.06 4.275 7.335 3.54 11.325.615 1.08.96 2.34.96 3.675a7.5 7.5 0 01-7.5 7.5 7.414 7.414 0 01-3.675-.96C16.335 31.275 12.06 30.105 9 27c-3.105-3.06-4.275-7.335-3.54-11.325A7.414 7.414 0 014.5 12 7.5 7.5 0 0112 4.5c1.335 0 2.595.345 3.675.96C19.665 4.725 23.94 5.895 27 9zm-8.94 16.74c4.305 0 6.45-2.07 6.45-4.86 0-1.785-.84-3.69-4.095-4.425l-2.985-.66c-1.14-.255-2.43-.6-2.43-1.665 0-1.08.9-1.83 2.55-1.83 3.345 0 3.03 2.295 4.695 2.295.87 0 1.62-.51 1.62-1.395 0-2.055-3.285-3.6-6.075-3.6-3.015 0-6.24 1.29-6.24 4.71 0 1.65.585 3.405 3.825 4.215l4.035 1.02c1.215.3 1.515.975 1.515 1.605 0 1.02-1.02 2.025-2.865 2.025-3.615 0-3.12-2.775-5.055-2.775-.87 0-1.5.6-1.5 1.455 0 1.665 1.995 3.885 6.555 3.885z" clip-rule="evenodd"/></svg>