<svg xmlns="http://www.w3.org/2000/svg" width="18" height="18" viewBox="0 0 18 18"><path fill-rule="evenodd" d="M13.667 4.333a6.554 6.554 0 011.835 5.873c.32.56.498 1.213.498 1.905a3.889 3.889 0 01-5.794 3.391 6.554 6.554 0 01-5.873-1.835 6.554 6.554 0 01-1.835-5.873 3.889 3.889 0 015.297-5.297 6.554 6.554 0 015.872 1.836zm-4.636 8.68c2.232 0 3.345-1.073 3.345-2.52 0-.925-.436-1.913-2.124-2.294l-1.548-.342c-.59-.133-1.26-.311-1.26-.864 0-.56.467-.949 1.323-.949 1.734 0 1.57 1.19 2.434 1.19.451 0 .84-.264.84-.723 0-1.065-1.703-1.867-3.15-1.867-1.563 0-3.235.67-3.235 2.443 0 .855.303 1.765 1.983 2.185l2.092.53c.63.155.786.505.786.831 0 .53-.53 1.05-1.486 1.05-1.874 0-1.618-1.439-2.621-1.439-.451 0-.778.312-.778.755 0 .863 1.035 2.014 3.4 2.014z" clip-rule="evenodd"/></svg>