<svg xmlns="http://www.w3.org/2000/svg" width="18" height="18" viewBox="0 0 18 18"><path fill-rule="evenodd" d="M8.615 14.567v2.42a9.589 9.589 0 01-1.096-.15l1.096-2.27zm.782.038l1.097 2.231a5.401 5.401 0 01-1.097.114v-2.345zM8.994 1A7.994 7.994 0 0117 9.006c0 3.632-2.42 6.67-5.699 7.73l-1.64-3.443a.91.91 0 00.278-.63c0-.504-.39-.895-.857-.895-.114 0-.24.037-.353.075l2.622-1.525.316.504c.113.19.353.265.542.151l.706-.39c.189-.114.265-.354.151-.543l-2.345-4.022c-.113-.189-.353-.265-.542-.151l-.744.39c-.19.076-.265.316-.151.505l.037.037V6.8l.757 1.4c.126.189.038.428-.151.542-.076.037-.114.037-.19.037a.403.403 0 01-.352-.189l-.467-.895-4.413 2.534c-.189.114-.265.353-.151.543l.277.466-2.66 1.526C1.353 11.679 1 10.343 1 8.98 1 4.568 4.593.975 8.994 1zm-.53 10.83a.942.942 0 00-.353.707c0 .277.114.504.24.706l-1.64 3.48A8.026 8.026 0 012.804 14.1l2.572-1.488.24.391c.113.19.353.265.542.152zM1.24 12.929a.376.376 0 01.542.113l.668 1.06a.376.376 0 01-.114.541c-.037.038-.113.038-.189.038a.403.403 0 01-.353-.189l-.668-1.059c-.126-.19-.038-.429.114-.504zm12.898-7.641c-.151 0-.429.744-.58.82-.164.075-.946-.19-1.021-.038-.126.24.542.63.542.82 0 .188-.467.819-.315.932.189.152.781-.315.97-.277.24 0 .63.618.782.58.151-.076-.075-.858.05-1.009.076-.113.82-.39.782-.542-.038-.164-.857-.24-.933-.315-.126-.076-.126-.933-.277-.971zm-5.56-2.938c-1.526 0-2.85.555-3.947 1.488l-.038.038v.038c0 .075.038.113.038.113.038 0 .076-.038.076-.038a5.695 5.695 0 013.24-.933c1.917 0 3.556.908 4.653 2.232a.42.42 0 00.353.19c.277 0 .466-.19.466-.43a.44.44 0 00-.113-.315l-.033-.033-.005-.005C12.17 3.32 10.494 2.387 8.578 2.35z"/></svg>