<svg xmlns="http://www.w3.org/2000/svg" width="13" height="12" viewBox="0 0 13 12"><path d="M10.475 10.5a7.32 7.32 0 01-3.143-.719 9.522 9.522 0 01-2.713-1.9 9.522 9.522 0 01-1.9-2.713A7.32 7.32 0 012 2.026a.509.509 0 01.525-.525H4.55a.48.48 0 01.475.4l.325 1.75a.902.902 0 01-.006.319.513.513 0 01-.144.256L4 5.45c.35.6.787 1.162 1.313 1.688A9.178 9.178 0 007.05 8.5l1.175-1.175a.702.702 0 01.294-.169.806.806 0 01.356-.031l1.725.35a.508.508 0 01.287.169c.075.087.113.19.113.306v2.025a.509.509 0 01-.525.525z"/></svg>