<svg xmlns="http://www.w3.org/2000/svg" width="13" height="12" viewBox="0 0 13 12"><path fill-rule="evenodd" d="M6.515 8.265c-1.33 0-1.925-.655-1.925-1.145 0-.25.185-.43.44-.43.57 0 .425.81 1.485.81.545 0 .85-.285.85-.59 0-.18-.09-.38-.45-.47L5.73 6.145c-.955-.24-1.13-.755-1.13-1.24 0-1.01.95-1.39 1.84-1.39.81 0 1.79.455 1.79 1.06 0 .26-.23.41-.48.41-.5 0-.4-.675-1.38-.675-.485 0-.755.22-.755.535 0 .315.385.405.715.495l.88.195c.96.215 1.205.775 1.205 1.3 0 .82-.63 1.43-1.9 1.43zM9.5 3a4.213 4.213 0 011.18 3.775 2.5 2.5 0 01-3.405 3.405A4.213 4.213 0 013.5 9a4.213 4.213 0 01-1.18-3.775A2.5 2.5 0 015.725 1.82 4.213 4.213 0 019.5 3zm-5-.5a1.5 1.5 0 00-1.1 2.52 3.264 3.264 0 00.8 3.28c.89.885 2.16 1.15 3.28.8A1.5 1.5 0 009.6 6.98c.35-1.12.085-2.39-.8-3.28a3.264 3.264 0 00-3.28-.8 1.49 1.49 0 00-1.02-.4z" clip-rule="evenodd"/></svg>