<svg xmlns="http://www.w3.org/2000/svg" width="13" height="12" viewBox="0 0 13 12"><path fill-rule="evenodd" d="M1.167 5.987c0 .908.235 1.8.647 2.522l1.773-1.017-.184-.311a.264.264 0 01.1-.361l2.942-1.69.311.597c.05.076.126.126.236.126.05 0 .075 0 .126-.025.126-.076.185-.236.1-.362l-.504-.933-.025-.025c-.076-.126-.025-.286.101-.336l.496-.26a.264.264 0 01.361.1l1.564 2.682a.264.264 0 01-.101.36l-.47.262a.266.266 0 01-.362-.101l-.21-.337-1.749 1.018a.788.788 0 01.236-.05c.31 0 .571.26.571.596 0 .16-.075.31-.185.42l1.093 2.295c2.185-.706 3.8-2.732 3.8-5.153A5.329 5.329 0 006.495.667c-2.934-.017-5.33 2.378-5.33 5.32zm2.47-3.328s-.024.025-.05.025c0 0-.025-.025-.025-.076v-.025l.025-.025c.732-.622 1.614-.992 2.631-.992A4.106 4.106 0 019.345 3.13l.025.025c.05.05.076.126.076.21 0 .16-.126.286-.31.286a.28.28 0 01-.236-.126c-.732-.883-1.824-1.488-3.102-1.488a3.797 3.797 0 00-2.16.622zm6.32 2.591c.09.093.173.178.22.166.052-.026.037-.177.022-.33-.014-.146-.029-.294.012-.343.02-.03.11-.077.21-.129.152-.08.326-.171.311-.232-.015-.068-.23-.113-.403-.149-.108-.023-.2-.042-.219-.061-.04-.024-.06-.163-.082-.306-.024-.161-.05-.328-.103-.341-.054 0-.133.144-.21.285-.066.12-.13.238-.176.261-.049.022-.178 0-.311-.023-.168-.029-.342-.058-.37-.002-.05.092.08.22.198.334.085.083.163.16.163.212 0 .051-.05.15-.105.256-.08.154-.165.321-.105.366.073.058.236-.02.384-.093.109-.053.21-.102.263-.092.085 0 .198.116.3.221z" clip-rule="evenodd"/><path d="M5.907 8.358c0-.185.101-.362.236-.47l-1.538.882a.266.266 0 01-.362-.101l-.16-.26L2.37 9.4a5.351 5.351 0 002.605 1.748l1.093-2.32a.877.877 0 01-.16-.47zm.337 2.967V9.711l-.732 1.513c.236.05.471.076.732.101zm1.252-.101a3.63 3.63 0 01-.731.076V9.736l.731 1.488zm-6.17-2.606a.25.25 0 01.362.076l.445.706a.25.25 0 01-.075.362c-.026.025-.076.025-.126.025a.269.269 0 01-.236-.126l-.445-.706c-.084-.126-.026-.286.075-.337z"/></svg>