<svg xmlns="http://www.w3.org/2000/svg" width="18" height="18" viewBox="0 0 18 18"><g><path d="M13.382 13.88l1.317-1.3.054-.053a7.21 7.21 0 00-.535-.522l-.001.001-.002-.001-.864.851-.008.008-.861.85-.291-.292-.3-.3-.001.002-.002-.002-.207.205c-.114.111-.225.22-.333.332.191.19.381.377.57.562l.557.55.001-.001.002.001.904-.892z"/><path fill-rule="evenodd" d="M3 2.13c0-.833.667-1.5 1.5-1.5h6l4.5 4.5v5.167h.004c.09.013.18.017.271.021l.054.003.393.013.386.012v.004c.003.01.007.026.007.042 0 1.107 0 2.214-.002 3.32 0 .247-.062.482-.145.713a3.544 3.544 0 01-.527.957 5.715 5.715 0 01-.463.537c-.396.41-.838.76-1.321 1.063a4.208 4.208 0 01-.639.334.397.397 0 01-.323 0 4.394 4.394 0 01-.597-.308 6.723 6.723 0 01-1.226-.952 5.844 5.844 0 01-.4-.426H4.5a1.5 1.5 0 01-1.5-1.5v-12zm6.75-.375V5.88h4.125L9.75 1.755zm3.103 8.52a3.875 3.875 0 01-.843.415 5.124 5.124 0 01-.996.244l-.056.008c-.152.02-.307.041-.46.048-.04.001-.082.007-.125.012-.028.004-.057.008-.088.01 0 .036 0 .067.005.09v2.453c0 .047.005.094.01.14l.008.086c.019.224.094.433.187.634.163.35.39.656.654.936a6.021 6.021 0 001.634 1.26c.06.03.103.028.16-.003a5.89 5.89 0 001.233-.86 5.23 5.23 0 00.618-.643c.202-.252.378-.522.497-.822.088-.22.144-.446.144-.682.002-.56.002-1.12.001-1.679v-.84a.632.632 0 00-.005-.068v-.006a36.831 36.831 0 00-.222-.02c-.089-.008-.177-.015-.265-.024l-.067-.007c-.088-.01-.177-.02-.266-.036a6.744 6.744 0 01-.636-.145 4.265 4.265 0 01-.918-.384l-.204-.117z" clip-rule="evenodd"/></g></svg>