<svg xmlns="http://www.w3.org/2000/svg" width="13" height="12" viewBox="0 0 13 12"><path d="M9.421 9.101l.878-.866.036-.035a4.845 4.845 0 00-.357-.348h-.001l-.576.567-.005.006-.575.566-.194-.194-.2-.2h-.002l-.138.136c-.075.075-.15.148-.222.222l.38.374.372.367h.002l.602-.595z"/><path fill-rule="evenodd" d="M2.5 1.269c0-.555.445-1 1-1h4l3 3v3.444h.002c.06.01.121.012.181.014l.037.002.262.009.256.008.001.002a.108.108 0 01.005.029c0 .737 0 1.475-.002 2.213 0 .165-.042.321-.097.475a2.34 2.34 0 01-.351.638 3.818 3.818 0 01-.309.358 4.635 4.635 0 01-.88.71 2.813 2.813 0 01-.426.222.265.265 0 01-.216 0 2.94 2.94 0 01-.398-.206 4.486 4.486 0 01-1.084-.919H3.5a1 1 0 01-1-1v-8zm4.5-.25v2.75h2.75L7 1.019zm2.069 5.68a2.575 2.575 0 01-.563.276 3.49 3.49 0 01-.663.163l-.038.005a3.13 3.13 0 01-.307.032c-.026.001-.054.005-.083.009l-.058.006c0 .024 0 .045.003.06v1.635c0 .032.004.063.007.094l.005.057c.012.15.062.288.124.422.109.235.26.438.437.625a3.976 3.976 0 001.089.84c.04.02.069.018.107-.002.3-.154.572-.35.822-.573a3.5 3.5 0 00.412-.43 2.15 2.15 0 00.33-.548 1.19 1.19 0 00.097-.454v-1.68l-.003-.045v-.004l-.148-.013-.176-.016-.045-.005a2.481 2.481 0 01-.177-.024 4.506 4.506 0 01-.425-.096 2.841 2.841 0 01-.611-.256 13.354 13.354 0 00-.136-.078z" clip-rule="evenodd"/></svg>