<svg xmlns="http://www.w3.org/2000/svg" width="36" height="36" viewBox="0 0 36 36"><path d="M26.764 28.226a3026.12 3026.12 0 002.742-2.705.616.616 0 00-.027-.033 14.506 14.506 0 00-.854-.847 2.34 2.34 0 00-.19-.163l-.001.002-.004-.002-1.727 1.702-.016.017-1.724 1.698-.582-.582c-.199-.2-.398-.4-.6-.6l-.002.002-.003-.003-.414.41c-.227.223-.45.442-.666.664.382.379.762.753 1.138 1.123.377.37.75.737 1.116 1.1l.003-.002.003.003 1.808-1.784z"/><path fill-rule="evenodd" d="M6 4.728c0-1.665 1.335-3 3-3h12l9 9v10.334l.007.001c.181.026.362.033.543.041l.109.005c.262.01.524.018.786.026.255.007.51.015.77.025l.002.007c.005.02.014.053.014.084 0 2.214 0 4.428-.005 6.642 0 .494-.124.962-.29 1.425-.243.692-.61 1.323-1.055 1.913-.284.377-.594.733-.925 1.074a13.914 13.914 0 01-2.643 2.127 8.42 8.42 0 01-1.277.667.795.795 0 01-.646 0 8.8 8.8 0 01-1.195-.616c-.496-.3-.962-.636-1.417-.987a13.468 13.468 0 01-1.034-.916c-.281-.271-.55-.555-.802-.852H9a3 3 0 01-3-3v-24zm13.5-.75v8.25h8.25l-8.25-8.25zm6.206 17.04a7.725 7.725 0 01-1.2.639c-.16.069-.322.132-.487.19-.646.229-1.308.392-1.99.488l-.113.016c-.305.041-.613.083-.922.097a2.869 2.869 0 00-.249.024 5.71 5.71 0 01-.175.021c0 .071 0 .132.01.178v4.906c0 .095.01.188.02.281.007.057.013.114.017.172.036.448.186.865.372 1.267.326.703.781 1.313 1.308 1.873.411.435.915.943 1.526 1.4.553.417 1.127.804 1.742 1.12.12.06.207.056.321-.006a11.78 11.78 0 002.467-1.72c.444-.397.863-.82 1.235-1.287.404-.504.755-1.044.993-1.644.176-.438.29-.89.29-1.364.003-1.119.002-2.238.001-3.357v-.002l-.001-1.68c0-.046-.004-.088-.01-.134v-.013l-.444-.04-.529-.046-.133-.015a7.493 7.493 0 01-.534-.072 13.453 13.453 0 01-1.272-.29 8.525 8.525 0 01-1.835-.768c-.14-.082-.274-.158-.408-.234z" clip-rule="evenodd"/></svg>