<svg xmlns="http://www.w3.org/2000/svg" width="25" height="24" viewBox="0 0 25 24"><path d="M18.343 18.666l1.755-1.732.073-.072a9.664 9.664 0 00-.588-.587 1.559 1.559 0 00-.126-.108l-.001.001-.003-.001-1.15 1.135-.012.01-1.149 1.133-.388-.388-.4-.4-.001.001-.002-.002-.276.273c-.152.149-.3.295-.444.443l.759.75c.25.246.499.49.744.733l.001-.002.002.002 1.206-1.19z"/><path fill-rule="evenodd" d="M4.5 3c0-1.11.89-2 2-2h8l6 6v6.89h.005c.12.017.241.023.362.028l.072.003c.175.007.35.012.524.017.17.005.34.01.514.017l.001.005a.23.23 0 01.01.056c0 1.476 0 2.952-.004 4.428 0 .329-.083.64-.193.95a4.727 4.727 0 01-.704 1.275 7.65 7.65 0 01-.617.716 9.27 9.27 0 01-1.761 1.418 5.61 5.61 0 01-.852.445.53.53 0 01-.43 0 5.88 5.88 0 01-.797-.41c-.33-.2-.641-.425-.944-.659a8.993 8.993 0 01-.69-.61 7.791 7.791 0 01-.534-.569H6.5a2 2 0 01-2-2V3zm9-.5V8H19l-5.5-5.5zm4.138 11.36a5.16 5.16 0 01-1.125.553 6.843 6.843 0 01-1.327.326l-.075.01c-.203.027-.41.055-.615.064-.052.002-.107.01-.166.017l-.116.014c0 .047 0 .088.006.118v3.271c0 .063.007.125.014.188.004.038.008.076.01.114.025.299.125.577.249.845.217.468.52.875.872 1.248a8.018 8.018 0 002.179 1.68c.079.04.138.037.213-.003a7.856 7.856 0 001.645-1.147 6.98 6.98 0 00.824-.859 4.3 4.3 0 00.662-1.095c.117-.292.193-.594.193-.91.002-.746.001-1.492 0-2.238v-1.121c0-.03-.003-.059-.006-.09l-.001-.008c-.1-.01-.198-.018-.296-.026-.118-.01-.235-.02-.352-.032l-.09-.01c-.118-.013-.236-.026-.355-.047a9.026 9.026 0 01-.848-.194 5.682 5.682 0 01-1.224-.512 26.983 26.983 0 00-.271-.156z" clip-rule="evenodd"/></svg>