<svg xmlns="http://www.w3.org/2000/svg" width="18" height="18" viewBox="0 0 18 18"><path fill-rule="evenodd" d="M1.5 3.953L2.46 3 15 15.54l-.953.96-3.622-3.623-1.958 1.958a3.753 3.753 0 01-5.302 0 3.753 3.753 0 010-5.303l1.117-1.117a5.25 5.25 0 00.3 1.823l-.352.352a2.236 2.236 0 000 3.18 2.236 2.236 0 003.18 0l1.965-1.95-1.215-1.207a.8.8 0 01-.218.51.756.756 0 01-1.064 0A3.73 3.73 0 015.79 8.25L1.5 3.953zm8.033-.788a3.753 3.753 0 015.302 0 3.753 3.753 0 010 5.302l-1.118 1.118a5.18 5.18 0 00-.3-1.815l.353-.36a2.236 2.236 0 000-3.18 2.236 2.236 0 00-3.18 0L8.092 6.727 7.035 5.662l2.498-2.497zm.524 3.713a.756.756 0 011.066 0 3.749 3.749 0 01.922 3.794L10.71 9.345a2.185 2.185 0 00-.653-1.403.73.73 0 010-1.064z"/></svg>