<svg xmlns="http://www.w3.org/2000/svg" width="13" height="12" viewBox="0 0 13 12"><path d="M5.12 4.52L2.2 1.6l-.7.7 3.354 3.354c.001.637.245 1.274.732 1.76L6.1 6.9l1.06 1.06-.867.868a1.5 1.5 0 01-2.185-2.053 2.509 2.509 0 01-.149-1.27L3.465 6A2.5 2.5 0 107 9.536l.868-.868L10.7 11.5l.7-.7-2.839-2.839-.711-.711-1.955-1.955-.774-.774zm1.32-.08l-.708-.708L7 2.464A2.5 2.5 0 0110.536 6l-.53.53c.06-.425.01-.863-.148-1.267a1.5 1.5 0 00-2.15-2.091l-1.27 1.267z"/><path d="M8.13 6.13l.919.918a2.5 2.5 0 00-1.024-2.78L7.293 5a1.498 1.498 0 01.837 1.13z"/></svg>