<svg xmlns="http://www.w3.org/2000/svg" width="36" height="36" viewBox="0 0 36 36"><path d="M2.25 22.5c0-1.875.356-3.631 1.068-5.27a13.738 13.738 0 012.889-4.274 13.728 13.728 0 014.275-2.888C12.119 9.356 13.875 9 15.75 9s3.631.356 5.27 1.068a13.75 13.75 0 014.274 2.888 13.73 13.73 0 012.886 4.274c.713 1.639 1.07 3.395 1.07 5.27v.225l2.325-2.325 2.175 2.1-6 6-6-6 2.175-2.1 2.325 2.325V22.5c0-2.925-1.018-5.406-3.055-7.443C21.157 13.019 18.675 12 15.75 12c-2.925 0-5.406 1.019-7.443 3.057C6.269 17.094 5.25 19.575 5.25 22.5h-3z"/></svg>