<svg xmlns="http://www.w3.org/2000/svg" width="18" height="18" viewBox="0 0 18 18"><path d="M16.875 10.25c0-.938-.178-1.816-.534-2.635a6.869 6.869 0 00-1.445-2.137 6.864 6.864 0 00-2.137-1.444 6.532 6.532 0 00-2.634-.534c-.938 0-1.816.178-2.635.534a6.875 6.875 0 00-2.137 1.444A6.865 6.865 0 003.91 7.615a6.53 6.53 0 00-.535 2.635v.113L2.212 9.2l-1.087 1.05 3 3 3-3L6.037 9.2l-1.162 1.163v-.113c0-1.463.51-2.703 1.528-3.721C7.422 5.508 8.663 5 10.125 5c1.463 0 2.703.51 3.722 1.529 1.019 1.018 1.528 2.258 1.528 3.721h1.5z"/></svg>