<svg xmlns="http://www.w3.org/2000/svg" width="18" height="18" viewBox="0 0 18 18"><path d="M1.125 10.25c0-.938.178-1.816.534-2.635a6.869 6.869 0 011.444-2.137 6.864 6.864 0 012.138-1.444A6.532 6.532 0 017.875 3.5c.938 0 1.816.178 2.635.534a6.875 6.875 0 012.137 1.444 6.865 6.865 0 011.443 2.137c.357.82.535 1.697.535 2.635v.113L15.787 9.2l1.088 1.05-3 3-3-3 1.088-1.05 1.162 1.163v-.113c0-1.463-.51-2.703-1.528-3.721C10.578 5.508 9.337 5 7.875 5c-1.463 0-2.703.51-3.721 1.529-1.02 1.018-1.529 2.258-1.529 3.721h-1.5z"/></svg>