<svg xmlns="http://www.w3.org/2000/svg" width="36" height="36" viewBox="0 0 36 36"><path d="M13.862 13.562L5.1 4.8 3 6.9l10.06 10.06a7.477 7.477 0 002.197 5.283L16.8 20.7l3.182 3.182-2.603 2.603a4.5 4.5 0 01-6.555-6.16 7.526 7.526 0 01-.446-3.81L8.894 18a7.5 7.5 0 1010.607 10.607l2.603-2.603L30.6 34.5l2.1-2.1-8.516-8.516-2.135-2.135-5.864-5.864-2.323-2.323zm3.956-.244l-2.121-2.122L19.5 7.393A7.5 7.5 0 1130.107 18l-1.591 1.59a7.527 7.527 0 00-.442-3.802 4.5 4.5 0 00-6.453-6.273l-3.803 3.803z"/><path d="M22.89 18.39l2.756 2.755a7.498 7.498 0 00-3.07-8.342l-2.196 2.196c.45.215.87.508 1.242.88a4.48 4.48 0 011.268 2.51z"/></svg>