<svg xmlns="http://www.w3.org/2000/svg" width="25" height="24" viewBox="0 0 25 24"><path d="M9.741 9.041L3.9 3.2 2.5 4.6l6.707 6.707a4.984 4.984 0 001.464 3.521L11.7 13.8l2.122 2.121-1.736 1.736a3 3 0 01-4.37-4.107 5.018 5.018 0 01-.297-2.54l-.99.99a5 5 0 107.071 7.071l1.736-1.735L20.9 23l1.4-1.4-5.677-5.678L15.2 14.5l-3.91-3.909-1.549-1.549zm2.638-.163l-1.414-1.414L13.5 4.93A5 5 0 0120.57 12l-1.06 1.06c.12-.85.022-1.725-.295-2.535a3 3 0 00-4.302-4.182L12.38 8.878z"/><path d="M15.76 12.26l1.837 1.837a4.999 4.999 0 00-2.046-5.562L14.087 10c.3.143.58.339.828.587.471.471.753 1.06.845 1.673z"/></svg>