<svg xmlns="http://www.w3.org/2000/svg" width="18" height="18" viewBox="0 0 18 18"><path fill-rule="evenodd" d="M7.942 10.057a.73.73 0 010 1.066.756.756 0 01-1.064 0 3.753 3.753 0 010-5.303l2.655-2.655a3.753 3.753 0 015.302 0 3.753 3.753 0 010 5.302l-1.118 1.118a5.18 5.18 0 00-.3-1.815l.353-.36a2.236 2.236 0 000-3.18 2.236 2.236 0 00-3.18 0L7.943 6.877a2.236 2.236 0 000 3.18zm2.115-3.18a.756.756 0 011.066 0 3.753 3.753 0 010 5.303l-2.655 2.655a3.753 3.753 0 01-5.303 0 3.753 3.753 0 010-5.303l1.117-1.117a5.25 5.25 0 00.3 1.823l-.352.352a2.236 2.236 0 000 3.18 2.236 2.236 0 003.18 0l2.647-2.647a2.236 2.236 0 000-3.18.73.73 0 010-1.065z"/></svg>