<svg xmlns="http://www.w3.org/2000/svg" width="18" height="18" viewBox="0 0 18 18"><path fill-rule="evenodd" d="M9 16.5a7.5 7.5 0 100-15 7.5 7.5 0 000 15zm-4.105-3.95c.376.133.77.2 1.18.2a2.8 2.8 0 001.16-.24c.364-.16.685-.401.963-.721l-.893-1.082a2.043 2.043 0 01-.506.4c-.192.107-.413.16-.665.16-.416 0-.753-.163-1.011-.49-.252-.327-.377-.798-.377-1.412 0-.294.036-.558.109-.791.08-.234.182-.43.307-.591.133-.16.281-.284.447-.37.172-.087.354-.13.545-.13.219 0 .41.046.576.14.172.086.337.2.496.34l.892-1.102a3.16 3.16 0 00-.853-.6A2.478 2.478 0 006.115 6a3.007 3.007 0 00-2.172.901 3.194 3.194 0 00-.685 1.072C3.086 8.393 3 8.878 3 9.425c0 .554.083 1.042.248 1.462.165.414.387.761.665 1.042.284.274.611.48.982.62zm3.483-6.43l1.904 6.51h2.063l1.905-6.51h-1.746l-.654 2.844c-.086.348-.166.691-.239 1.032-.066.334-.145.678-.238 1.031h-.04a17.52 17.52 0 01-.237-1.031c-.066-.34-.146-.684-.238-1.032l-.675-2.844H8.378z" clip-rule="evenodd"/></svg>