<svg xmlns="http://www.w3.org/2000/svg" width="13" height="12" viewBox="0 0 13 12"><path fill-rule="evenodd" d="M6.5 11a5 5 0 100-10 5 5 0 000 10zM3.763 8.366c.251.09.514.134.787.134.278 0 .536-.053.774-.16.242-.107.456-.267.641-.481l-.595-.721a1.361 1.361 0 01-.337.267.895.895 0 01-.443.107.818.818 0 01-.675-.327c-.167-.218-.251-.532-.251-.942 0-.196.024-.371.073-.527.052-.156.12-.287.205-.394a.972.972 0 01.297-.247.796.796 0 01.364-.087c.145 0 .273.031.383.094.115.057.225.133.331.227l.595-.735a2.107 2.107 0 00-.569-.4A1.652 1.652 0 004.576 4a2.004 2.004 0 00-1.448.6 2.13 2.13 0 00-.456.715c-.115.28-.172.603-.172.968 0 .37.055.695.165.975.11.276.258.508.443.695.19.182.408.32.655.413zM6.085 4.08l1.27 4.34H8.73L10 4.08H8.836L8.4 5.976c-.058.232-.11.46-.159.688a11.71 11.71 0 01-.159.688h-.026a11.71 11.71 0 01-.159-.688 10.26 10.26 0 00-.159-.688l-.45-1.896H6.086z" clip-rule="evenodd"/></svg>