<svg xmlns="http://www.w3.org/2000/svg" width="25" height="24" viewBox="0 0 25 24"><path fill-rule="evenodd" d="M12.5 22c5.523 0 10-4.477 10-10s-4.477-10-10-10-10 4.477-10 10 4.477 10 10 10zm-5.474-5.267A4.677 4.677 0 008.6 17c.555 0 1.071-.107 1.547-.32a3.618 3.618 0 001.283-.962l-1.19-1.442a2.7 2.7 0 01-.675.534 1.79 1.79 0 01-.886.214 1.636 1.636 0 01-1.349-.655c-.335-.436-.502-1.063-.502-1.882 0-.392.048-.744.145-1.055a2.66 2.66 0 01.41-.788c.176-.214.375-.378.595-.494.23-.116.472-.174.728-.174.29 0 .546.063.767.187.229.116.45.267.661.454l1.19-1.469a4.214 4.214 0 00-1.137-.8C9.737 8.115 9.226 8 8.653 8c-.547 0-1.071.102-1.574.307a4.009 4.009 0 00-1.323.895 4.257 4.257 0 00-.912 1.429c-.23.56-.344 1.206-.344 1.936 0 .739.11 1.389.33 1.95a4.11 4.11 0 00.887 1.388c.379.365.815.641 1.31.828zm4.645-8.573l2.539 8.68h2.75l2.54-8.68h-2.328l-.873 3.793c-.114.462-.22.92-.317 1.375a23.47 23.47 0 01-.317 1.375h-.053a23.47 23.47 0 01-.318-1.375 20.568 20.568 0 00-.317-1.375l-.9-3.793h-2.406z" clip-rule="evenodd"/></svg>