<svg xmlns="http://www.w3.org/2000/svg" width="36" height="36" viewBox="0 0 36 36"><path fill-rule="evenodd" d="M18 33c8.284 0 15-6.716 15-15 0-8.284-6.716-15-15-15C9.716 3 3 9.716 3 18c0 8.284 6.716 15 15 15zm-8.21-7.9c.753.266 1.54.4 2.36.4.833 0 1.607-.16 2.32-.48a5.427 5.427 0 001.925-1.443l-1.785-2.163a4.083 4.083 0 01-1.012.801c-.384.214-.827.32-1.33.32-.832 0-1.507-.326-2.023-.98-.502-.655-.753-1.596-.753-2.825 0-.588.072-1.115.218-1.582a3.92 3.92 0 01.615-1.182c.264-.32.562-.568.893-.741.343-.174.707-.26 1.09-.26.437 0 .82.093 1.151.28.344.173.675.4.992.68l1.785-2.202a6.316 6.316 0 00-1.706-1.202c-.674-.347-1.441-.521-2.3-.521-.82 0-1.608.154-2.362.46a6.012 6.012 0 00-1.983 1.343c-.57.574-1.025 1.288-1.37 2.143-.343.841-.515 1.81-.515 2.904 0 1.108.165 2.083.496 2.924.33.828.774 1.523 1.33 2.084a5.727 5.727 0 001.963 1.241zm6.966-12.86l3.809 13.02h4.126L28.5 12.24h-3.491l-1.31 5.689a65.73 65.73 0 00-.476 2.063c-.132.668-.29 1.355-.476 2.063h-.08a35.118 35.118 0 01-.476-2.063 30.72 30.72 0 00-.476-2.063l-1.349-5.689h-3.61z" clip-rule="evenodd"/></svg>