<svg xmlns="http://www.w3.org/2000/svg" width="36" height="36" viewBox="0 0 36 36"><path d="M4.5 16.5c0 3.315 5.37 6 12 6 1.58 0 3.088-.152 4.469-.43 1.542-2.352 4.539-3.945 7.531-4.07v-6c0 3.315-5.37 6-12 6s-12-2.685-12-6v4.5z"/><path d="M19.5 27c0-.585.056-1.157.162-1.71a23.5 23.5 0 01-3.162.21c-6.63 0-12-2.685-12-6V24c0 3.315 5.37 6 12 6 1.192 0 2.342-.087 3.428-.248A8.992 8.992 0 0119.5 27zm9-18c0-3.315-5.37-6-12-6s-12 2.685-12 6 5.37 6 12 6 12-2.685 12-6z"/><path fill-rule="evenodd" d="M31.5 24a3 3 0 10-6 0v1.5h-.375c-.619 0-1.125.477-1.125 1.071v5.358c0 .591.504 1.071 1.125 1.071h6.75c.621 0 1.125-.48 1.125-1.071V26.57c0-.591-.504-1.071-1.125-1.071H31.5V24zM27 25.5V24a1.5 1.5 0 013 0v1.5h-3z" clip-rule="evenodd"/></svg>