<svg xmlns="http://www.w3.org/2000/svg" width="13" height="12" viewBox="0 0 13 12"><path d="M2 5.5c0 1.105 1.79 2 4 2 .527 0 1.03-.05 1.49-.143C8.004 6.573 9.003 6.042 10 6V4c0 1.105-1.79 2-4 2s-4-.895-4-2v1.5z"/><path d="M7 9c0-.195.019-.386.054-.57-.336.046-.69.07-1.054.07-2.21 0-4-.895-4-2V8c0 1.105 1.79 2 4 2 .397 0 .78-.029 1.143-.083A2.998 2.998 0 017 9zm3-6c0-1.105-1.79-2-4-2s-4 .895-4 2 1.79 2 4 2 4-.895 4-2z"/><path fill-rule="evenodd" d="M11 8a1 1 0 10-2 0v.5h-.125a.366.366 0 00-.375.357v1.786c0 .197.168.357.375.357h2.25c.207 0 .375-.16.375-.357V8.857a.366.366 0 00-.375-.357H11V8zm-1.5.5V8a.5.5 0 011 0v.5h-1z" clip-rule="evenodd"/></svg>