<svg xmlns="http://www.w3.org/2000/svg" width="36" height="36" viewBox="0 0 36 36"><path fill-rule="evenodd" d="M27 25.5v-3h3v3h3v3h-3v3h-3v-3h-3v-3h3zm-10.5-3c-6.63 0-12-2.685-12-6V12c0 3.315 5.37 6 12 6s12-2.685 12-6v6c-2.992.125-5.989 1.718-7.531 4.07a22.76 22.76 0 01-4.469.43zm3.162 2.79a9.049 9.049 0 00.267 4.462A23.373 23.373 0 0116.5 30c-6.63 0-12-2.685-12-6v-4.5c0 3.315 5.37 6 12 6a23.5 23.5 0 003.162-.21zM16.5 3c6.63 0 12 2.685 12 6s-5.37 6-12 6-12-2.685-12-6 5.37-6 12-6z" clip-rule="evenodd"/></svg>