<svg xmlns="http://www.w3.org/2000/svg" width="25" height="24" viewBox="0 0 25 24"><path d="M3.5 11c0 2.21 3.58 4 8 4 1.053 0 2.059-.102 2.98-.286 1.028-1.568 3.025-2.63 5.02-2.714V8c0 2.21-3.58 4-8 4s-8-1.79-8-4v3z"/><path d="M13.5 18c0-.39.037-.771.108-1.14A15.72 15.72 0 0111.5 17c-4.42 0-8-1.79-8-4v3c0 2.21 3.58 4 8 4 .794 0 1.562-.058 2.286-.166A5.999 5.999 0 0113.5 18zm6-12c0-2.21-3.58-4-8-4s-8 1.79-8 4 3.58 4 8 4 8-1.79 8-4z"/><path fill-rule="evenodd" d="M21.5 16a2 2 0 10-4 0v1h-.25c-.413 0-.75.318-.75.714v3.572c0 .394.336.714.75.714h4.5c.414 0 .75-.32.75-.714v-3.572c0-.394-.336-.714-.75-.714h-.25v-1zm-3 1v-1a1 1 0 112 0v1h-2z" clip-rule="evenodd"/></svg>