<svg xmlns="http://www.w3.org/2000/svg" width="13" height="12" viewBox="0 0 13 12"><path fill-rule="evenodd" d="M6 7.5c-2.21 0-4-.895-4-2V4c0 1.105 1.79 2 4 2s4-.895 4-2v2c-.997.042-1.996.573-2.51 1.357-.46.092-.963.143-1.49.143zm1.054.93a3.015 3.015 0 00.089 1.487A7.79 7.79 0 016 10c-2.21 0-4-.895-4-2V6.5c0 1.105 1.79 2 4 2 .365 0 .718-.024 1.054-.07zM6 1c2.21 0 4 .895 4 2S8.21 5 6 5s-4-.895-4-2 1.79-2 4-2zm3.389 9.37a1.496 1.496 0 01-.27-.156l-.664.11-.375-.649.428-.52a1.517 1.517 0 010-.31l-.428-.52.375-.65.664.11a1.5 1.5 0 01.27-.155L9.625 7h.75l.236.63c.096.042.186.095.27.156l.664-.11.375.649-.428.52a1.509 1.509 0 010 .31l.428.52-.375.65-.664-.11a1.5 1.5 0 01-.27.155l-.236.63h-.75l-.236-.63zM10 9.5a.5.5 0 100-1 .5.5 0 000 1z" clip-rule="evenodd"/></svg>