<svg xmlns="http://www.w3.org/2000/svg" width="18" height="18" viewBox="0 0 18 18"><g><path d="M2.25 8.25c0 1.658 2.685 3 6 3 .79 0 1.544-.076 2.234-.215.772-1.176 2.27-1.973 3.766-2.035V6c0 1.657-2.685 3-6 3s-6-1.343-6-3v2.25z"/><path d="M9.75 13.5c0-.292.028-.578.081-.855-.504.068-1.034.105-1.581.105-3.315 0-6-1.342-6-3V12c0 1.658 2.685 3 6 3 .596 0 1.171-.043 1.714-.124A4.497 4.497 0 019.75 13.5zM14.25 4.5c0-1.658-2.685-3-6-3s-6 1.342-6 3c0 1.657 2.685 3 6 3s6-1.343 6-3z"/><path fill-rule="evenodd" d="M15.75 12a1.5 1.5 0 00-3 0v.75h-.188a.55.55 0 00-.562.536v2.678a.55.55 0 00.563.536h3.374a.55.55 0 00.563-.536v-2.678a.55.55 0 00-.563-.536h-.187V12zm-2.25.75V12a.75.75 0 011.5 0v.75h-1.5z" clip-rule="evenodd"/></g></svg>