<svg xmlns="http://www.w3.org/2000/svg" width="36" height="36" viewBox="0 0 36 36"><path fill-rule="evenodd" d="M16.5 22.5c-6.63 0-12-2.685-12-6V12c0 3.315 5.37 6 12 6s12-2.685 12-6v6c-2.992.125-5.989 1.718-7.531 4.07a22.76 22.76 0 01-4.469.43zm3.162 2.79a9.049 9.049 0 00.267 4.462A23.373 23.373 0 0116.5 30c-6.63 0-12-2.685-12-6v-4.5c0 3.315 5.37 6 12 6a23.5 23.5 0 003.162-.21zM16.5 3c6.63 0 12 2.685 12 6s-5.37 6-12 6-12-2.685-12-6 5.37-6 12-6zm10.166 28.11a4.501 4.501 0 01-.808-.467l-1.992.331-1.125-1.948 1.283-1.56a4.554 4.554 0 010-.933l-1.283-1.559 1.125-1.948 1.992.331c.251-.183.522-.34.808-.468L27.375 21h2.25l.709 1.89c.286.127.557.284.808.467l1.992-.331 1.125 1.948-1.283 1.56a4.554 4.554 0 010 .933l1.283 1.559-1.125 1.948-1.992-.331c-.251.183-.522.34-.808.468L29.625 33h-2.25l-.709-1.89zM28.5 28.5a1.5 1.5 0 100-3 1.5 1.5 0 000 3z" clip-rule="evenodd"/></svg>