<svg xmlns="http://www.w3.org/2000/svg" width="25" height="24" viewBox="0 0 25 24"><path fill-rule="evenodd" d="M18.355 18L16.5 16.145 17.645 15l1.855 1.855L21.355 15l1.145 1.145L20.645 18l1.855 1.855L21.355 21 19.5 19.145 17.645 21 16.5 19.855 18.355 18zM11.5 15c-4.42 0-8-1.79-8-4V8c0 2.21 3.58 4 8 4s8-1.79 8-4v4c-1.995.083-3.992 1.146-5.02 2.714-.921.184-1.927.286-2.98.286zm2.108 1.86a6.032 6.032 0 00.178 2.974A15.54 15.54 0 0111.5 20c-4.42 0-8-1.79-8-4v-3c0 2.21 3.58 4 8 4 .73 0 1.437-.049 2.108-.14zM11.5 2c4.42 0 8 1.79 8 4s-3.58 4-8 4-8-1.79-8-4 3.58-4 8-4z" clip-rule="evenodd"/></svg>