<svg xmlns="http://www.w3.org/2000/svg" width="13" height="12" viewBox="0 0 13 12"><path fill-rule="evenodd" d="M9.428 9L8.5 8.072l.572-.572.928.928.928-.928.572.572-.928.928.928.928-.572.572L10 9.572l-.928.928-.572-.572L9.428 9zM6 7.5c-2.21 0-4-.895-4-2V4c0 1.105 1.79 2 4 2s4-.895 4-2v2c-.997.042-1.996.573-2.51 1.357-.46.092-.963.143-1.49.143zm1.054.93a3.015 3.015 0 00.089 1.487A7.79 7.79 0 016 10c-2.21 0-4-.895-4-2V6.5c0 1.105 1.79 2 4 2 .365 0 .718-.024 1.054-.07zM6 1c2.21 0 4 .895 4 2S8.21 5 6 5s-4-.895-4-2 1.79-2 4-2z" clip-rule="evenodd"/></svg>