<svg xmlns="http://www.w3.org/2000/svg" width="18" height="18" viewBox="0 0 18 18"><path fill-rule="evenodd" d="M13.5 12.75v-1.5H15v1.5h1.5v1.5H15v1.5h-1.5v-1.5H12v-1.5h1.5zm-5.25-1.5c-3.315 0-6-1.342-6-3V6c0 1.657 2.685 3 6 3s6-1.343 6-3v3c-1.496.062-2.994.86-3.766 2.035-.69.139-1.444.215-2.234.215zm1.581 1.395a4.524 4.524 0 00.133 2.23c-.543.082-1.118.125-1.714.125-3.315 0-6-1.342-6-3V9.75c0 1.658 2.685 3 6 3 .547 0 1.077-.037 1.581-.105zM8.25 1.5c3.315 0 6 1.342 6 3 0 1.657-2.685 3-6 3s-6-1.343-6-3c0-1.658 2.685-3 6-3z" clip-rule="evenodd"/></svg>