<svg xmlns="http://www.w3.org/2000/svg" width="24" height="24" viewBox="0 0 24 24"><path fill-rule="evenodd" d="M19 14a2 2 0 011.995 1.85L21 16v1h.25c.414 0 .75.32.75.714v3.572c0 .394-.336.714-.75.714h-4.5c-.414 0-.75-.32-.75-.714v-3.572c0-.396.337-.714.75-.714H17v-1l.005-.15A2 2 0 0119 14zM3 13c0 2.21 3.58 4 8 4 .73 0 1.437-.049 2.108-.14a6.031 6.031 0 00.178 2.975C12.56 19.942 11.794 20 11 20c-4.42 0-8-1.79-8-4v-3zm16 2a1 1 0 00-.974.77l-.02.113L18 16v1h2v-1l-.007-.117A1 1 0 0019 15zm0-7v4c-1.995.083-3.992 1.146-5.02 2.714-.921.184-1.927.286-2.98.286-4.42 0-8-1.79-8-4V8c0 2.21 3.58 4 8 4s8-1.79 8-4zm-8-6c4.42 0 8 1.79 8 4s-3.58 4-8 4-8-1.79-8-4 3.58-4 8-4z"/></svg>