<svg xmlns="http://www.w3.org/2000/svg" width="36" height="36" viewBox="0 0 36 36"><path fill-rule="evenodd" d="M18 3C9.72 3 3 9.72 3 18c0 8.28 6.72 15 15 15 8.265 0 15-6.72 15-15 0-8.28-6.735-15-15-15zm9.908 6.914a12.753 12.753 0 012.896 7.972c-.423-.081-4.653-.944-8.916-.407-.097-.211-.179-.439-.276-.667a38.367 38.367 0 00-.846-1.854c4.718-1.92 6.865-4.686 7.142-5.044zM18 5.213c3.254 0 6.231 1.22 8.492 3.22-.227.326-2.163 2.913-6.719 4.621-2.098-3.856-4.425-7.012-4.783-7.5.96-.228 1.969-.341 3.01-.341zm-5.45 1.203c.341.456 2.62 3.628 4.75 7.403-5.987 1.594-11.274 1.562-11.843 1.562.83-3.97 3.514-7.273 7.093-8.965zm-7.37 11.6v-.39c.553.016 6.768.097 13.162-1.822a38.01 38.01 0 011.04 2.18c-.162.049-.34.097-.504.146-6.605 2.131-10.119 7.956-10.412 8.444a12.783 12.783 0 01-3.286-8.558zM18 30.82a12.73 12.73 0 01-7.858-2.7c.228-.473 2.83-5.483 10.054-8.005.033-.016.05-.016.082-.033 1.806 4.67 2.538 8.59 2.733 9.713A12.602 12.602 0 0118 30.82zm7.142-2.196c-.13-.781-.813-4.523-2.489-9.127 4.018-.635 7.532.407 7.972.553-.553 3.563-2.603 6.638-5.483 8.574z" clip-rule="evenodd"/></svg>