<svg xmlns="http://www.w3.org/2000/svg" width="13" height="12" viewBox="0 0 13 12"><path fill-rule="evenodd" d="M6.5 1c-2.76 0-5 2.24-5 5s2.24 5 5 5c2.755 0 5-2.24 5-5s-2.245-5-5-5zm3.303 2.305c.596.726.954 1.654.965 2.657-.141-.027-1.551-.314-2.972-.136-.032-.07-.06-.146-.092-.222a12.796 12.796 0 00-.282-.618c1.573-.64 2.288-1.562 2.38-1.681zM6.5 1.738c1.085 0 2.077.406 2.83 1.073-.075.109-.72.971-2.239 1.54-.7-1.285-1.475-2.337-1.594-2.5.32-.076.656-.113 1.003-.113zm-1.817.4c.114.153.873 1.21 1.584 2.468-1.996.532-3.758.52-3.948.52A4.29 4.29 0 014.683 2.14zM2.227 6.006v-.13c.184.006 2.256.033 4.387-.607.125.239.239.483.347.727l-.168.048c-2.202.71-3.373 2.652-3.47 2.815a4.26 4.26 0 01-1.096-2.853zM6.5 10.273a4.241 4.241 0 01-2.62-.9c.077-.157.944-1.827 3.352-2.668.01-.005.016-.005.027-.01.602 1.556.846 2.862.911 3.237a4.2 4.2 0 01-1.67.341zm2.38-.732A18.373 18.373 0 008.052 6.5a6.237 6.237 0 012.657.184 4.234 4.234 0 01-1.827 2.858z" clip-rule="evenodd"/></svg>