<svg xmlns="http://www.w3.org/2000/svg" width="18" height="18" viewBox="0 0 18 18"><path fill-rule="evenodd" d="M9 1.5C4.86 1.5 1.5 4.86 1.5 9c0 4.14 3.36 7.5 7.5 7.5 4.132 0 7.5-3.36 7.5-7.5 0-4.14-3.368-7.5-7.5-7.5zm4.954 3.457a6.376 6.376 0 011.448 3.986c-.212-.04-2.327-.472-4.458-.203-.049-.106-.09-.22-.138-.334-.13-.309-.277-.626-.423-.927 2.359-.96 3.433-2.343 3.57-2.522zM9 2.607c1.627 0 3.116.61 4.246 1.61-.114.163-1.082 1.456-3.36 2.31-1.049-1.928-2.212-3.506-2.39-3.75.479-.114.983-.17 1.504-.17zm-2.725.601c.17.228 1.31 1.814 2.375 3.701-2.993.798-5.637.781-5.922.781a6.436 6.436 0 013.547-4.482zm-3.685 5.8v-.195c.277.008 3.384.049 6.58-.911.188.358.359.724.521 1.09l-.252.073c-3.302 1.066-5.06 3.978-5.206 4.222A6.391 6.391 0 012.59 9.008zM9 15.41a6.362 6.362 0 01-3.929-1.35c.114-.236 1.415-2.742 5.027-4.003.016-.008.025-.008.04-.016a26.482 26.482 0 011.367 4.857A6.3 6.3 0 019 15.41zm3.571-1.098c-.065-.39-.407-2.262-1.245-4.564 2.01-.317 3.767.204 3.986.277a6.352 6.352 0 01-2.741 4.287z" clip-rule="evenodd"/></svg>