<svg xmlns="http://www.w3.org/2000/svg" width="25" height="24" viewBox="0 0 25 24"><path fill-rule="evenodd" d="M16.68 19.6l-2.01-3.48c.98-.72 1.66-1.84 1.8-3.12h4.03a8.55 8.55 0 01-3.82 6.6zM13.5 7.03V3c4.3.26 7.74 3.7 8 8h-4.03a4.488 4.488 0 00-3.97-3.97zm-6 5.47c0 .64.13 1.25.38 1.8L4.4 16.31a8.42 8.42 0 01-.9-3.81c0-4.53 3.54-8.23 8-8.5v4.03c-2.25.25-4 2.15-4 4.47zM12 21c-2.97 0-5.58-1.5-7.1-3.82l3.48-2.01A4.47 4.47 0 0012 17c.64 0 1.25-.13 1.8-.38l2.01 3.48c-1.15.58-2.44.9-3.81.9z" clip-rule="evenodd"/></svg>