<svg xmlns="http://www.w3.org/2000/svg" width="18" height="18" viewBox="0 0 18 18"><path fill-rule="evenodd" d="M11.25 5.558L7.808 9l3.442 3.443-1.057 1.057-3.443-3.443L3.308 13.5 2.25 12.443 5.692 9 2.25 5.558 3.308 4.5 6.75 7.942 10.193 4.5l1.057 1.058zm4.387 10.215h-3.66v-.75l.668-.6c.57-.488.99-.893 1.275-1.223.277-.33.42-.637.428-.93a.673.673 0 00-.203-.525c-.135-.12-.352-.21-.645-.21a1.46 1.46 0 00-.63.135l-.495.285-.338-.877c.203-.158.443-.293.736-.398.292-.105.614-.18.967-.18.585.03 1.035.188 1.335.495.3.308.465.698.465 1.178a1.97 1.97 0 01-.405 1.162c-.255.352-.57.69-.953 1.02l-.48.39v.015h1.935v1.013z" clip-rule="evenodd"/></svg>