<svg xmlns="http://www.w3.org/2000/svg" width="13" height="12" viewBox="0 0 13 12"><path fill-rule="evenodd" d="M8 3.705L5.705 6 8 8.295 7.295 9 5 6.705 2.705 9 2 8.295 4.295 6 2 3.705 2.705 3 5 5.295 7.295 3 8 3.705zm2.925 6.81h-2.44v-.5l.445-.4c.38-.325.66-.595.85-.815.185-.22.28-.425.285-.62a.449.449 0 00-.135-.35.64.64 0 00-.43-.14c-.155 0-.29.03-.42.09l-.33.19-.225-.585a1.75 1.75 0 01.49-.265c.195-.07.41-.12.645-.12.39.02.69.125.89.33.2.205.31.465.31.785-.005.28-.095.54-.27.775-.17.235-.38.46-.635.68l-.32.26v.01h1.29v.675z" clip-rule="evenodd"/></svg>