<svg xmlns="http://www.w3.org/2000/svg" width="36" height="36" viewBox="0 0 36 36"><path fill-rule="evenodd" d="M22.5 11.115L15.615 18l6.885 6.885L20.385 27 13.5 20.115 6.615 27 4.5 24.885 11.385 18 4.5 11.115 6.615 9l6.885 6.885L20.385 9l2.115 2.115zm8.775 2.385h-7.32V12l1.335-1.23c1.14-.96 1.98-1.77 2.55-2.445.555-.66.84-1.275.855-1.845.015-.42-.12-.78-.405-1.05-.27-.285-.705-.42-1.29-.435-.465.015-.87.105-1.26.255l-.99.585-.675-1.755c.405-.33.885-.585 1.47-.795.585-.21 1.23-.285 1.935-.285 1.17 0 2.07.3 2.67.915.6.585.93 1.395.93 2.355a3.94 3.94 0 01-.81 2.325c-.51.72-1.14 1.395-1.905 2.04l-.96.78v.03h3.87V13.5z" clip-rule="evenodd"/></svg>