<svg xmlns="http://www.w3.org/2000/svg" width="13" height="12" viewBox="0 0 13 12"><path d="M2.2 9.25l-.7-.725 3.75-3.75 2 2L8.7 5.15a4.806 4.806 0 00-1.5-1.188 4.14 4.14 0 00-1.9-.437c-.592 0-1.15.11-1.675.331-.525.221-1 .519-1.425.894l-.7-.725a6.021 6.021 0 011.737-1.1 5.32 5.32 0 012.063-.4 5.2 5.2 0 012.263.493A5.56 5.56 0 019.374 4.4L10.8 2.775l.7.725L10 5.2c.275.442.498.92.669 1.437.17.517.281 1.063.331 1.638h-1a6.475 6.475 0 00-.256-1.194A5.823 5.823 0 009.275 6L7.3 8.225 5.25 6.2 2.2 9.25z"/></svg>