<svg xmlns="http://www.w3.org/2000/svg" width="36" height="36" viewBox="0 0 36 36"><path fill-rule="evenodd" d="M31.5 28.5v-3h-21v3h21zm0-9v-3h-21v3h21zm-21-9h21v-3h-21v3zm-6-3v3h3v-3h-3zM3 7.5A1.5 1.5 0 014.5 6h3A1.5 1.5 0 019 7.5v3A1.5 1.5 0 017.5 12h-3A1.5 1.5 0 013 10.5v-3zm1.5 9v3h3v-3h-3zm-1.5 0A1.5 1.5 0 014.5 15h3A1.5 1.5 0 019 16.5v3A1.5 1.5 0 017.5 21h-3A1.5 1.5 0 013 19.5v-3zm1.5 9v3h3v-3h-3zm-1.5 0A1.5 1.5 0 014.5 24h3A1.5 1.5 0 019 25.5v3A1.5 1.5 0 017.5 30h-3A1.5 1.5 0 013 28.5v-3z" clip-rule="evenodd"/></svg>