<svg xmlns="http://www.w3.org/2000/svg" width="36" height="36" viewBox="0 0 36 36"><path fill-rule="evenodd" d="M18 3C9.72 3 3 9.72 3 18c0 8.28 6.72 15 15 15h7.5v-3H18c-6.51 0-12-5.49-12-12S11.49 6 18 6s12 5.49 12 12v2.145c0 1.185-1.065 2.355-2.25 2.355s-2.25-1.17-2.25-2.355V18c0-4.14-3.36-7.5-7.5-7.5-4.14 0-7.5 3.36-7.5 7.5 0 4.14 3.36 7.5 7.5 7.5 2.07 0 3.96-.84 5.31-2.205.975 1.335 2.655 2.205 4.44 2.205 2.955 0 5.25-2.4 5.25-5.355V18c0-8.28-6.72-15-15-15zm0 19.5c-2.49 0-4.5-2.01-4.5-4.5s2.01-4.5 4.5-4.5 4.5 2.01 4.5 4.5-2.01 4.5-4.5 4.5z" clip-rule="evenodd"/></svg>