<svg xmlns="http://www.w3.org/2000/svg" width="18" height="18" viewBox="0 0 18 18"><path fill-rule="evenodd" d="M11.25 5.558L7.808 9l3.442 3.443-1.057 1.057-3.443-3.443L3.308 13.5 2.25 12.443 5.692 9 2.25 5.558 3.308 4.5 6.75 7.942 10.193 4.5l1.057 1.058zm4.387 1.192h-3.66V6l.668-.615c.57-.48.99-.885 1.275-1.223.277-.33.42-.637.428-.922a.663.663 0 00-.203-.525c-.135-.143-.352-.21-.645-.217a1.884 1.884 0 00-.63.127l-.495.292-.338-.877c.203-.165.443-.292.736-.397.292-.105.614-.143.967-.143.585 0 1.035.15 1.335.458.3.292.465.697.465 1.177a1.97 1.97 0 01-.405 1.163c-.255.36-.57.697-.953 1.02l-.48.39v.014h1.935V6.75z" clip-rule="evenodd"/></svg>