<svg xmlns="http://www.w3.org/2000/svg" width="18" height="18" viewBox="0 0 18 18"><path d="M2.55 13.875L1.5 12.787l5.625-5.625 3 3L12.3 7.725a7.208 7.208 0 00-2.25-1.781c-.863-.438-1.813-.657-2.85-.657a6.41 6.41 0 00-2.513.498c-.787.33-1.5.777-2.137 1.34L1.5 6.037a9.032 9.032 0 012.606-1.65 7.98 7.98 0 013.094-.6c1.225 0 2.356.247 3.394.74A8.34 8.34 0 0113.313 6.6l2.137-2.438L16.5 5.25 14.25 7.8c.412.662.747 1.381 1.004 2.156.255.775.421 1.594.496 2.456h-1.5a9.713 9.713 0 00-.384-1.79A8.735 8.735 0 0013.162 9L10.2 12.337 7.125 9.3 2.55 13.875z"/></svg>