<svg xmlns="http://www.w3.org/2000/svg" width="25" height="24" viewBox="0 0 25 24"><path fill-rule="evenodd" d="M15.5 7.41L10.91 12l4.59 4.59L14.09 18 9.5 13.41 4.91 18 3.5 16.59 8.09 12 3.5 7.41 4.91 6l4.59 4.59L14.09 6l1.41 1.41zM21.35 9h-4.88V8l.89-.82c.76-.64 1.32-1.18 1.7-1.63.37-.44.56-.85.57-1.23a.884.884 0 00-.27-.7c-.18-.19-.47-.28-.86-.29-.31.01-.58.07-.84.17l-.66.39-.45-1.17c.27-.22.59-.39.98-.53S18.35 2 18.82 2c.78 0 1.38.2 1.78.61.4.39.62.93.62 1.57-.01.56-.19 1.08-.54 1.55-.34.48-.76.93-1.27 1.36l-.64.52v.02h2.58V9z" clip-rule="evenodd"/></svg>