<svg xmlns="http://www.w3.org/2000/svg" width="36" height="36" viewBox="0 0 36 36"><path d="M5.1 27.75L3 25.575l11.25-11.25 6 6 4.35-4.875a14.416 14.416 0 00-4.5-3.563c-1.725-.875-3.625-1.312-5.7-1.312-1.775 0-3.45.331-5.025.994a15.51 15.51 0 00-4.275 2.68L3 12.076c1.55-1.4 3.287-2.5 5.213-3.3 1.925-.8 3.987-1.2 6.187-1.2 2.45 0 4.713.493 6.787 1.48a16.679 16.679 0 015.438 4.145L30.9 8.325 33 10.5l-4.5 5.1a20.03 20.03 0 012.007 4.312 21.57 21.57 0 01.993 4.913h-3a19.425 19.425 0 00-.768-3.582A17.47 17.47 0 0026.325 18L20.4 24.675 14.25 18.6 5.1 27.75z"/></svg>