<svg xmlns="http://www.w3.org/2000/svg" width="25" height="24" viewBox="0 0 25 24"><path d="M3.9 18.5l-1.4-1.45 7.5-7.5 4 4 2.9-3.25c-.85-1-1.85-1.792-3-2.375-1.15-.584-2.417-.875-3.8-.875-1.183 0-2.3.22-3.35.663-1.05.441-2 1.037-2.85 1.787L2.5 8.05a12.043 12.043 0 013.475-2.2c1.283-.534 2.658-.8 4.125-.8 1.633 0 3.142.329 4.525.987A11.12 11.12 0 0118.25 8.8l2.85-3.25L22.5 7l-3 3.4c.55.883.996 1.841 1.338 2.875.341 1.033.562 2.125.662 3.275h-2c-.1-.834-.27-1.63-.512-2.388A11.647 11.647 0 0018.05 12l-3.95 4.45L10 12.4l-6.1 6.1z"/></svg>