<svg xmlns="http://www.w3.org/2000/svg" width="36" height="36" viewBox="0 0 36 36"><path fill-rule="evenodd" d="M22.5 11.115L15.615 18l6.885 6.885L20.385 27 13.5 20.115 6.615 27 4.5 24.885 11.385 18 4.5 11.115 6.615 9l6.885 6.885L20.385 9l2.115 2.115zm8.775 20.43h-7.32v-1.5l1.335-1.2c1.14-.975 1.98-1.785 2.55-2.445.555-.66.84-1.275.855-1.86.015-.42-.12-.765-.405-1.05-.27-.24-.705-.42-1.29-.42-.465 0-.87.09-1.26.27l-.99.57-.675-1.755a5.252 5.252 0 011.47-.795c.585-.21 1.23-.36 1.935-.36 1.17.06 2.07.375 2.67.99.6.615.93 1.395.93 2.355a3.94 3.94 0 01-.81 2.325c-.51.705-1.14 1.38-1.905 2.04l-.96.78v.03h3.87v2.025z" clip-rule="evenodd"/></svg>