<svg xmlns="http://www.w3.org/2000/svg" width="18" height="18" viewBox="0 0 18 18"><path fill-rule="evenodd" d="M12.135 14.7l-1.508-2.61a3.36 3.36 0 001.35-2.34H15a6.413 6.413 0 01-2.865 4.95zM9.75 5.273V2.25a6.404 6.404 0 016 6h-3.023A3.366 3.366 0 009.75 5.272zm-4.5 4.102c0 .48.098.938.285 1.35l-2.61 1.508A6.39 6.39 0 018.25 3v3.021a3.372 3.372 0 00-3 3.353zm3.375 6.375A6.335 6.335 0 013.3 12.885l2.61-1.508a3.352 3.352 0 002.715 1.373c.48 0 .938-.098 1.35-.285l1.508 2.61a6.315 6.315 0 01-2.858.675z" clip-rule="evenodd"/></svg>