<svg xmlns="http://www.w3.org/2000/svg" width="24" height="24" viewBox="0 0 24 24"><path fill-rule="evenodd" d="M.646 21.765a1.067 1.067 0 001.508 1.508L18.16 7.267a8.212 8.212 0 011.507 4.754c0 4.572-3.704 8.273-8.267 8.273a1.067 1.067 0 000 2.133c5.742 0 10.4-4.657 10.4-10.405 0-2.359-.788-4.536-2.114-6.28l3.587-3.588A1.067 1.067 0 1021.765.646L5.069 17.34a8.238 8.238 0 01-1.936-5.32c0-4.558 3.703-8.26 8.267-8.26a1.067 1.067 0 000-2.133C5.659 1.628 1 6.284 1 12.02c0 2.616.965 5.006 2.556 6.834l-2.91 2.91z" clip-rule="evenodd"/></svg>