<svg xmlns="http://www.w3.org/2000/svg" width="36" height="36" viewBox="0 0 36 36"><path d="M27.532 10.71A11.947 11.947 0 0130 18c0 6.627-5.373 12-12 12-.41 0-.817-.02-1.217-.061l-2.577 2.577c1.212.316 2.483.484 3.794.484 8.284 0 15-6.716 15-15 0-3.571-1.248-6.851-3.332-9.427l2.77-2.77-2.12-2.122L8.572 25.426A11.949 11.949 0 016 18c0-6.627 5.373-12 12-12 .49 0 .972.03 1.446.086l2.548-2.548A15.015 15.015 0 0018 3C9.716 3 3 9.716 3 18a14.94 14.94 0 003.44 9.559l-2.76 2.758 2.121 2.122 21.73-21.73z"/></svg>