<svg xmlns="http://www.w3.org/2000/svg" width="36" height="36" viewBox="0 0 36 36"><path fill-rule="evenodd" d="M.969 32.647A1.6 1.6 0 003.23 34.91L27.24 10.9a12.318 12.318 0 012.26 7.131c0 6.857-5.555 12.41-12.4 12.41a1.6 1.6 0 000 3.2c8.613 0 15.6-6.986 15.6-15.61 0-3.537-1.182-6.803-3.17-9.42l5.38-5.38A1.6 1.6 0 0032.647.968L7.603 26.012a12.358 12.358 0 01-2.903-7.98c0-6.838 5.554-12.39 12.4-12.39a1.6 1.6 0 100-3.2c-8.612 0-15.6 6.983-15.6 15.59 0 3.923 1.447 7.509 3.834 10.25L.969 32.647z" clip-rule="evenodd"/></svg>