<svg xmlns="http://www.w3.org/2000/svg" width="18" height="18" viewBox="0 0 18 18"><path fill-rule="evenodd" d="M12.375 2.25A4.491 4.491 0 009 3.817 4.491 4.491 0 005.625 2.25 4.085 4.085 0 001.5 6.375c0 2.835 2.55 5.145 6.412 8.655L9 16.012l1.088-.99C13.95 11.52 16.5 9.21 16.5 6.376a4.085 4.085 0 00-4.125-4.125zm-3.3 11.662L9 13.987l-.075-.075C5.355 10.68 3 8.543 3 6.375c0-1.5 1.125-2.625 2.625-2.625 1.155 0 2.28.742 2.678 1.77h1.402c.39-1.027 1.515-1.77 2.67-1.77 1.5 0 2.625 1.125 2.625 2.625 0 2.168-2.355 4.305-5.925 7.537z" clip-rule="evenodd"/></svg>