<svg xmlns="http://www.w3.org/2000/svg" width="36" height="36" viewBox="0 0 36 36"><path fill-rule="evenodd" d="M24.75 4.5c-2.61 0-5.115 1.215-6.75 3.135-1.635-1.92-4.14-3.135-6.75-3.135C6.63 4.5 3 8.13 3 12.75c0 5.67 5.1 10.29 12.825 17.31L18 32.025l2.175-1.98C27.9 23.04 33 18.42 33 12.75c0-4.62-3.63-8.25-8.25-8.25zm-6.6 23.325l-.15.15-.15-.15C10.71 21.36 6 17.085 6 12.75c0-3 2.25-5.25 5.25-5.25 2.31 0 4.56 1.485 5.355 3.54h2.805c.78-2.055 3.03-3.54 5.34-3.54 3 0 5.25 2.25 5.25 5.25 0 4.335-4.71 8.61-11.85 15.075z" clip-rule="evenodd"/></svg>