<svg xmlns="http://www.w3.org/2000/svg" width="36" height="36" viewBox="0 0 36 36"><path fill-rule="evenodd" d="M19.5 13.5h8.25L19.5 5.25v8.25zM9 3h12l9 9v18a3 3 0 01-3 3H9a3 3 0 01-3-3V6a3 3 0 013-3zm6.15 14.1c-.03.06-.435 2.64-3.15 7.035 0 0-5.25 2.73-4.005 4.77 1.005 1.62 3.48-.06 5.61-4.02 0 0 2.73-.96 6.36-1.23 0 0 5.79 2.595 6.585-.165.78-2.79-4.59-2.16-5.55-1.875 0 0-3-2.025-3.75-4.815 0 0 1.71-5.925-.915-5.85-2.625.075-1.635 4.695-1.185 6.15zm1.215 1.56c.045.015.705 1.815 2.835 3.69 0 0-3.495.69-5.085 1.35 0 0 1.5-2.595 2.25-5.04zm5.895 4.08c.87-.24 3.495.225 3.39.72-.09.495-3.39-.72-3.39-.72zM11.655 25.5c-.795 1.86-2.16 3-2.505 3-.345 0 1.05-2.4 2.505-3zm4.71-10.395c0-.105-.54-3.3 0-3.225.81.12 0 3.12 0 3.225z" clip-rule="evenodd"/></svg>