<svg xmlns="http://www.w3.org/2000/svg" width="25" height="24" viewBox="0 0 25 24"><path d="M13 22c-1.533 0-2.833-.533-3.9-1.6-1.067-1.067-1.6-2.367-1.6-3.9V6c0-1.1.392-2.042 1.175-2.825C9.458 2.392 10.4 2 11.5 2s2.042.392 2.825 1.175C15.108 3.958 15.5 4.9 15.5 6v9.5c0 .7-.242 1.292-.725 1.775C14.292 17.758 13.7 18 13 18s-1.292-.242-1.775-.725c-.483-.483-.725-1.075-.725-1.775V6H12v9.5c0 .283.096.52.288.712A.965.965 0 0013 16.5a.968.968 0 00.713-.288A.967.967 0 0014 15.5V6c0-.7-.242-1.292-.725-1.775C12.792 3.742 12.2 3.5 11.5 3.5s-1.292.242-1.775.725C9.242 4.708 9 5.3 9 6v10.5c0 1.1.392 2.042 1.175 2.825.783.783 1.725 1.175 2.825 1.175s2.042-.392 2.825-1.175C16.608 18.542 17 17.6 17 16.5V6h1.5v10.5c0 1.533-.533 2.833-1.6 3.9-1.067 1.067-2.367 1.6-3.9 1.6z"/></svg>