<svg xmlns="http://www.w3.org/2000/svg" width="13" height="12" viewBox="0 0 13 12"><path fill-rule="evenodd" d="M7 4.5h2.75L7 1.75V4.5zM3.5 1h4l3 3v6a1 1 0 01-1 1h-6a1 1 0 01-1-1V2a1 1 0 011-1zm2.05 4.7c-.01.02-.145.88-1.05 2.345 0 0-1.75.91-1.335 1.59.335.54 1.16-.02 1.87-1.34 0 0 .91-.32 2.12-.41 0 0 1.93.865 2.195-.055.26-.93-1.53-.72-1.85-.625 0 0-1-.675-1.25-1.605 0 0 .57-1.975-.305-1.95-.875.025-.545 1.565-.395 2.05zm.405.52c.015.005.235.605.945 1.23 0 0-1.165.23-1.695.45 0 0 .5-.865.75-1.68zM7.92 7.58c.29-.08 1.165.075 1.13.24-.03.165-1.13-.24-1.13-.24zm-3.535.92c-.265.62-.72 1-.835 1-.115 0 .35-.8.835-1zm1.57-3.465c0-.035-.18-1.1 0-1.075.27.04 0 1.04 0 1.075z" clip-rule="evenodd"/></svg>