<svg xmlns="http://www.w3.org/2000/svg" width="18" height="18" viewBox="0 0 18 18"><path d="M9.375 16.5c-1.15 0-2.125-.4-2.925-1.2-.8-.8-1.2-1.775-1.2-2.925V4.5c0-.825.294-1.531.881-2.119A2.889 2.889 0 018.25 1.5c.825 0 1.531.294 2.119.881.587.588.881 1.294.881 2.119v7.125c0 .525-.181.969-.544 1.331a1.81 1.81 0 01-1.331.544 1.81 1.81 0 01-1.331-.544 1.81 1.81 0 01-.544-1.331V4.5h1.125v7.125c0 .213.072.39.216.534a.724.724 0 00.534.216c.213 0 .39-.072.535-.216a.725.725 0 00.215-.534V4.5a1.81 1.81 0 00-.544-1.331 1.81 1.81 0 00-1.331-.544 1.81 1.81 0 00-1.331.544A1.81 1.81 0 006.375 4.5v7.875c0 .825.294 1.531.881 2.119a2.889 2.889 0 002.119.881c.825 0 1.531-.294 2.119-.881a2.889 2.889 0 00.881-2.119V4.5H13.5v7.875c0 1.15-.4 2.125-1.2 2.925-.8.8-1.775 1.2-2.925 1.2z"/></svg>