<svg xmlns="http://www.w3.org/2000/svg" width="13" height="12" viewBox="0 0 13 12"><path d="M6.75 11a2.654 2.654 0 01-1.95-.8A2.654 2.654 0 014 8.25V3c0-.55.196-1.02.588-1.413A1.926 1.926 0 016 1c.55 0 1.02.196 1.412.587C7.804 1.98 8 2.45 8 3v4.75c0 .35-.12.646-.362.887A1.207 1.207 0 016.75 9c-.35 0-.646-.12-.888-.363A1.207 1.207 0 015.5 7.75V3h.75v4.75c0 .142.048.26.144.356a.483.483 0 00.356.144c.142 0 .26-.048.356-.144a.483.483 0 00.144-.356V3c0-.35-.12-.646-.362-.888A1.207 1.207 0 006 1.75c-.35 0-.646.12-.888.362A1.207 1.207 0 004.75 3v5.25c0 .55.196 1.02.588 1.412.391.392.862.588 1.412.588.55 0 1.02-.196 1.412-.588.392-.391.588-.862.588-1.412V3h.75v5.25c0 .767-.267 1.417-.8 1.95-.533.533-1.183.8-1.95.8z"/></svg>