<svg xmlns="http://www.w3.org/2000/svg" width="18" height="18" viewBox="0 0 18 18"><path fill-rule="evenodd" d="M9.75 6.75h4.125L9.75 2.625V6.75zM4.5 1.5h6L15 6v9a1.5 1.5 0 01-1.5 1.5h-9A1.5 1.5 0 013 15V3a1.5 1.5 0 011.5-1.5zm3.075 7.05C7.56 8.58 7.357 9.87 6 12.068c0 0-2.625 1.364-2.002 2.385.502.81 1.74-.03 2.804-2.01 0 0 1.366-.48 3.18-.615 0 0 2.896 1.297 3.293-.083.39-1.395-2.295-1.08-2.775-.938 0 0-1.5-1.012-1.875-2.407 0 0 .855-2.963-.457-2.925-1.313.038-.818 2.348-.593 3.075zm.607.78c.023.008.353.908 1.418 1.845 0 0-1.747.345-2.542.675 0 0 .75-1.297 1.124-2.52zm2.948 2.04c.435-.12 1.747.113 1.695.36-.045.247-1.695-.36-1.695-.36zm-5.303 1.38c-.397.93-1.08 1.5-1.252 1.5-.173 0 .525-1.2 1.252-1.5zm2.355-5.197c0-.053-.27-1.65 0-1.613.405.06 0 1.56 0 1.612z" clip-rule="evenodd"/></svg>