<svg xmlns="http://www.w3.org/2000/svg" width="36" height="36" viewBox="0 0 36 36"><path d="M16.5 33a2.889 2.889 0 01-2.119-.881A2.889 2.889 0 0113.5 30v-6H9a2.889 2.889 0 01-2.119-.881A2.89 2.89 0 016 21V10.5c0-1.65.588-3.063 1.763-4.237C8.938 5.088 10.35 4.5 12 4.5h18V21c0 .825-.294 1.531-.881 2.119A2.889 2.889 0 0127 24h-4.5v6c0 .825-.294 1.531-.881 2.119A2.889 2.889 0 0119.5 33h-3zM9 15h18V7.5h-1.5v6h-3v-6H21v3h-3v-3h-6c-.825 0-1.531.294-2.119.881A2.889 2.889 0 009 10.5V15zm0 6h18v-3H9v3z"/></svg>