<svg xmlns="http://www.w3.org/2000/svg" width="13" height="12" viewBox="0 0 13 12"><path fill-rule="evenodd" d="M6.5 5.694a.667.667 0 110 1.334.667.667 0 010-1.334zm2.667 0a.667.667 0 110 1.334.667.667 0 010-1.334zm-5.334 0a.667.667 0 110 1.334.667.667 0 010-1.334zm2.667-3a.667.667 0 110 1.334.667.667 0 010-1.334zm2.667 0a.667.667 0 110 1.334.667.667 0 010-1.334zm-5.334 0a.667.667 0 110 1.334.667.667 0 010-1.334zm2.667 6a.667.667 0 110 1.334.667.667 0 010-1.334zm2.667 0a.667.667 0 110 1.334.667.667 0 010-1.334zm-5.334 0a.667.667 0 110 1.334.667.667 0 010-1.334z" clip-rule="evenodd"/></svg>