<svg xmlns="http://www.w3.org/2000/svg" width="25" height="24" viewBox="0 0 25 24"><path d="M2.214 13.03h2.572a7.53 7.53 0 00.374 1.538l-2.239 1.294a10.275 10.275 0 01-.707-2.831zm2.1-7.38a10.312 10.312 0 012.029-1.99l1.288 2.233a7.929 7.929 0 00-1.078 1.049L4.314 5.65zm9.398-1.357V1.715c5.11.615 9.074 4.967 9.065 10.25 0 5.7-4.616 10.321-10.31 10.321-1.474 0-2.88-.312-4.15-.872l1.288-2.233a7.728 7.728 0 002.866.548c4.28 0 7.76-3.484 7.76-7.768a7.776 7.776 0 00-6.519-7.668zM11.23 1.715v2.578c-.498.08-.977.21-1.44.38L8.498 2.434a10.24 10.24 0 012.731-.72zM2.256 10.55c.135-.974.404-1.9.787-2.769l2.227 1.29a7.53 7.53 0 00-.43 1.478H2.256zm1.869 7.481l2.23-1.289c.337.426.712.817 1.12 1.167L6.183 20.15a10.442 10.442 0 01-2.058-2.119z"/><path d="M7.645 11.777l3.728 3.652 5.636-6.146-1.423-1.602-4.213 4.779-2.302-2.174-1.426 1.49z"/></svg>