<svg xmlns="http://www.w3.org/2000/svg" width="12" height="12" viewBox="0 0 12 12"><g clip-path="url(#clip0_6885_14780)"><path d="M.857 6.515h1.286c.036.265.099.522.187.769l-1.12.647a5.137 5.137 0 01-.353-1.416zM1.907 2.825c.29-.378.634-.712 1.014-.995l.644 1.117a3.965 3.965 0 00-.538.524l-1.12-.646zM6.606 2.146V.857a5.155 5.155 0 014.533 5.125 5.158 5.158 0 01-7.23 4.725l.643-1.117a3.886 3.886 0 005.313-3.61 3.888 3.888 0 00-3.259-3.834zM5.364.857v1.29c-.248.04-.488.105-.72.189L4 1.217a5.12 5.12 0 011.365-.36zM.878 5.274c.067-.486.202-.95.394-1.384l1.113.645a3.783 3.783 0 00-.215.74H.878zM1.812 9.015l1.116-.644c.168.213.355.408.56.583l-.647 1.12a5.222 5.222 0 01-1.029-1.059z"/><path d="M3.572 5.888l1.864 1.826 2.818-3.073-.711-.801-2.107 2.39-1.15-1.087-.714.745z"/></g><defs><clipPath id="clip0_6885_14780"><path d="M0 0h12v12H0z"/></clipPath></defs></svg>