<svg xmlns="http://www.w3.org/2000/svg" width="18" height="18" viewBox="0 0 18 18"><g><path d="M1.286 9.773h1.928c.054.398.149.783.281 1.153l-1.679.97a7.705 7.705 0 01-.53-2.123zM2.86 4.237a7.734 7.734 0 011.522-1.491l.966 1.674c-.293.237-.565.5-.808.787l-1.68-.97zM9.91 3.22V1.285a7.732 7.732 0 016.798 7.687c0 4.275-3.463 7.741-7.733 7.741a7.702 7.702 0 01-3.112-.654l.965-1.674a5.83 5.83 0 007.97-5.416A5.832 5.832 0 009.91 3.22zM8.047 1.286v1.933c-.373.06-.732.158-1.08.285l-.969-1.678a7.68 7.68 0 012.049-.54zM1.317 7.912c.101-.73.303-1.425.59-2.076l1.67.967a5.675 5.675 0 00-.322 1.109H1.317zM2.719 13.523l1.673-.967c.252.32.533.613.84.876l-.97 1.68a7.834 7.834 0 01-1.543-1.589z"/><path d="M5.358 8.832l2.796 2.74 4.228-4.61-1.067-1.202-3.16 3.584-1.726-1.63-1.07 1.118z"/></g></svg>