<svg xmlns="http://www.w3.org/2000/svg" width="36" height="36" viewBox="0 0 36 36"><path d="M2.572 19.546h3.857c.107.796.296 1.567.562 2.306l-3.359 1.94a15.411 15.411 0 01-1.06-4.246zm3.15-11.072a15.469 15.469 0 013.042-2.982l1.932 3.349c-.587.474-1.13.998-1.616 1.574l-3.358-1.94zM19.818 6.44V2.572c7.664.923 13.61 7.45 13.598 15.375 0 8.55-6.925 15.482-15.466 15.482-2.21 0-4.318-.467-6.225-1.308l1.932-3.349c1.332.53 2.784.822 4.299.822 6.42 0 11.64-5.227 11.64-11.653 0-5.789-4.241-10.61-9.778-11.501zm-3.724-3.868V6.44c-.745.12-1.465.316-2.16.568l-1.937-3.355a15.36 15.36 0 014.097-1.08zM2.635 15.824a15.56 15.56 0 011.18-4.152l3.34 1.934a11.35 11.35 0 00-.644 2.218H2.635zm2.803 11.223l3.345-1.934a12.583 12.583 0 001.68 1.75l-1.938 3.363a15.664 15.664 0 01-3.087-3.18z"/><path d="M10.717 17.665l5.592 5.479 8.454-9.219-2.134-2.404-6.32 7.169-3.452-3.26-2.14 2.235z"/></svg>