<svg xmlns="http://www.w3.org/2000/svg" width="18" height="18" viewBox="0 0 18 18"><path fill-rule="evenodd" d="M14.625 2.063l-.093.003H12.71a1.48 1.48 0 00-.193 0L3.75 2.063c-.618 0-1.125.503-1.125 1.124L2.6 5.736l-.187-.188a.508.508 0 00-.75 0 .514.514 0 000 .753l1.218 1.223c.218.22.53.22.748 0L4.753 6.3a.57.57 0 000-.8c-.219-.22-.624-.173-.843.047l-.187.188c0-2.112.022-2.488.026-2.54h8.837c.067.004.139.004.216 0h.03l1.418-.007v2.624c0 .75 1.125.75 1.125 0v-3c0-.374-.375-.75-.75-.75zM3.745 3.194c.002 0 .006-.009.005-.007v.007h-.004zm0 0zM7.5 6.039a1.5 1.5 0 103 0 1.5 1.5 0 00-3 0zM9 10.97c1.054 0 2.297-.422 2.625-.75v-.75c0-.656-.469-1.125-1.125-1.125h-3c-.656 0-1.125.469-1.125 1.125v.75c.328.328 1.571.75 2.625.75zm3.712 2.712l-3.337.007c-1.59 0-4.5 2.25-4.5 2.25v-2.25h-1.5c-.309 0-.75-.44-.75-.75V9.563c0-.75 1.125-.75 1.125 0v3h1.5l.837-.01v1.285c1.165-.864 2.442-1.275 3.288-1.275H13.5l.154-.003.597-.011h.006v-.214c-.003-.356-.007-1.188-.007-2.772l-.16.264c-.218.22-.623.266-.841.047a.57.57 0 010-.8l1.122-1.222c.219-.22.53-.22.749 0l1.216 1.223a.514.514 0 010 .752.508.508 0 01-.748 0l-.213-.264v3c0 .62-.502 1.12-1.12 1.12h-1.474l-.07-.002z" clip-rule="evenodd"/></svg>