<svg xmlns="http://www.w3.org/2000/svg" width="13" height="12" viewBox="0 0 13 12"><path fill-rule="evenodd" d="M8.468 1.404a4.98 4.98 0 00-2.296-.393 5.013 5.013 0 00-4.661 4.661 4.98 4.98 0 00.393 2.296.292.292 0 00.448.116c.065-.052.136-.1.21-.14a.294.294 0 00.135-.368 4.101 4.101 0 01-.302-1.896A4.13 4.13 0 016.18 1.895a4.1 4.1 0 011.896.302.294.294 0 00.368-.135 1.42 1.42 0 01.14-.21.292.292 0 00-.116-.448zM4.735 4.235c0-.325.79-.588 1.765-.588.975 0 1.765.263 1.765.588v.589c0 .324-.79.588-1.765.588-.975 0-1.765-.264-1.765-.588v-.589zm0 1.177c0 .325.79.588 1.765.588.975 0 1.765-.263 1.765-.588v.882c0 .325-.79.588-1.765.588-.975 0-1.765-.263-1.765-.588v-.882zM6.5 7.47c-.975 0-1.765-.264-1.765-.589v.883c0 .325.79.588 1.765.588.975 0 1.765-.263 1.765-.588v-.883c0 .325-.79.589-1.765.589zm1.575 2.333a.293.293 0 01.368.133c.041.075.088.145.141.212a.292.292 0 01-.115.446c-.605.26-1.27.405-1.97.405a4.968 4.968 0 01-1.968-.405.292.292 0 01-.115-.446c.053-.067.1-.137.14-.212a.293.293 0 01.369-.133 4.09 4.09 0 003.15 0zm2.362-5.747a1.46 1.46 0 00.212-.141.292.292 0 01.446.115 4.982 4.982 0 010 3.939.292.292 0 01-.446.114 1.467 1.467 0 00-.212-.14.293.293 0 01-.133-.369A4.089 4.089 0 0010.617 6a4.07 4.07 0 00-.315-1.575.293.293 0 01.134-.368zM3.26 8.058a1.178 1.178 0 100 2.355 1.178 1.178 0 000-2.355zm5.323 1.177a1.178 1.178 0 112.355 0 1.178 1.178 0 01-2.355 0zM9.76 1.558a1.178 1.178 0 100 2.355 1.178 1.178 0 000-2.355z" clip-rule="evenodd"/></svg>