<svg xmlns="http://www.w3.org/2000/svg" width="36" height="36" viewBox="0 0 36 36"><path d="M24.654 8.883a11.2 11.2 0 00-5.692-2.127V3a14.928 14.928 0 018.356 3.214l-2.664 2.669zm-.997 3.46l-4.695 8.45-.294-.293a2.32 2.32 0 01-1.115.293 2.347 2.347 0 01-2.347-2.347c.003-.39.104-.774.294-1.115l-.294-.294 8.45-4.695zM6.755 17.975a11.261 11.261 0 0022.366 1.878h3.795c-.973 7.749-7.722 13.458-15.525 13.133C9.59 32.66 3.338 26.41 3.013 18.607 2.688 10.806 8.397 4.056 16.145 3.083v3.795a11.262 11.262 0 00-9.39 11.1zm19.955-7.162l2.655-2.656A14.941 14.941 0 0133 17.038h-3.756a11.2 11.2 0 00-2.534-6.225z"/></svg>