<svg xmlns="http://www.w3.org/2000/svg" width="13" height="12" viewBox="0 0 13 12"><path fill-rule="evenodd" d="M10.405 4.889a1.11 1.11 0 00-1.03.694H7.86a1.943 1.943 0 00-.649-1.071l.539-.75a.832.832 0 00.989-.818.833.833 0 10-1.469.539l-.529.736a1.937 1.937 0 00-1.424-.054L4.56 2.856a1.111 1.111 0 10-.822.366l.07-.003.799 1.385c-.302.293-.51.682-.572 1.118h-.624a.833.833 0 100 .556h.624c.062.431.266.817.562 1.109L3.794 8.78l-.055-.003a1.111 1.111 0 10.813.356l.752-1.304a1.94 1.94 0 001.437-.049l.529.736a.833.833 0 10.48-.28l-.539-.749c.323-.27.556-.645.649-1.071h1.516a1.11 1.11 0 101.03-1.528z" clip-rule="evenodd"/></svg>