<svg xmlns="http://www.w3.org/2000/svg" width="36" height="36" viewBox="0 0 36 36"><path fill-rule="evenodd" d="M19.544 3.02l-.12-.017a.81.81 0 00-.858.623.814.814 0 00.623.968l2.277.515-10.913 6.18-.218.128a6.905 6.905 0 00-2.345 9.418c1.974 3.354 6.322 4.517 9.712 2.597l4.248-2.405.107-.069c.438-.32.57-.92.288-1.4a1.107 1.107 0 00-1.494-.4l-4.25 2.406-.202.109c-2.314 1.173-5.193.348-6.52-1.907a4.782 4.782 0 011.774-6.609l10.91-6.18-.68 2.193-.027.116a.814.814 0 00.57.896.816.816 0 001.024-.528l1.43-4.598.009-.042.01-.106v-.06l-.007-.08-.025-.114-.039-.104-.056-.104-.064-.086-.084-.086-.088-.067-.079-.047a.837.837 0 00-.137-.056l-.044-.012-4.732-1.071zm8.466 13.33c-1.975-3.353-6.323-4.516-9.712-2.597l-4.249 2.406-.106.069c-.438.32-.57.92-.288 1.4.304.516.973.695 1.494.4l4.249-2.406.203-.109c2.314-1.173 5.193-.349 6.52 1.907a4.782 4.782 0 01-1.774 6.609l-7.278 4.12a2.77 2.77 0 00-2.988-.175 2.657 2.657 0 00-.986 3.671 2.767 2.767 0 003.736 1 2.657 2.657 0 001.339-2.627l7.277-4.12.218-.13a6.905 6.905 0 002.345-9.418z" clip-rule="evenodd"/></svg>