<svg xmlns="http://www.w3.org/2000/svg" width="25" height="24" viewBox="0 0 25 24"><path d="M16.936 5.922a7.467 7.467 0 00-3.795-1.418V2a9.952 9.952 0 015.571 2.143l-1.776 1.779zm-.665 2.306l-3.13 5.634-.196-.196a1.547 1.547 0 01-.743.196c-.864 0-1.565-.7-1.565-1.565.002-.26.07-.516.196-.743l-.196-.196 5.634-3.13zM5.004 11.984a7.508 7.508 0 0014.91 1.252h2.53a10.011 10.011 0 11-11.18-11.182v2.53a7.508 7.508 0 00-6.26 7.4zM18.307 7.21l1.77-1.77a9.96 9.96 0 012.423 5.92h-2.504a7.467 7.467 0 00-1.69-4.15z"/></svg>