<svg xmlns="http://www.w3.org/2000/svg" width="13" height="12" viewBox="0 0 13 12"><path fill-rule="evenodd" d="M11.5 6.213c0 1.746-.75 3.044-2 4.054-.5-1.768-1-3.283-1-3.283l-1 .253-.75-2.273v-1.01L8.5 3.45 6.25 2.44v2.525L5 6.732l-.25 1.01-1 .757-.787 1.286a5.087 5.087 0 01-.793-6.094A4.98 4.98 0 017.793 1.34c2.185.59 3.705 2.59 3.707 4.874zM8 7.49l.788 3.237c-.08.026-.16.08-.24.107l-.798-2.84-1 .253-.25-1.515-.5.505-.25 1.262-1.404.561-.638 1.343a2.337 2.337 0 01-.267-.189l.798-1.477 1.261-.49.25-1.263.75-1.01.5 1.768 1-.253z" clip-rule="evenodd"/></svg>