<svg xmlns="http://www.w3.org/2000/svg" width="13" height="12" viewBox="0 0 13 12"><path fill-rule="evenodd" d="M9.094 9.813v-2.3l1.866-.973v2.3l-1.866.973zm0-5.188l1.866-.95V6l-1.866.95V4.624zM6.983 3.054l1.866-.95 2.054.95-1.89.998-2.03-.998zM4.61 1.892L6.5 1l1.89.867-1.89.942-1.89-.917zm-.647 2.16L2.097 3.08l1.997-.95 1.89.917-2.02 1.006zM3.906 6.95L2.04 6V3.676l1.866.95v2.323zm0 2.864l-1.866-.95v-2.3l1.866.95v2.3zm4.746-3.011l-1.865-.95V3.53l1.865.949v2.324zM6.23 11l-1.866-.95V7.76l1.866.949V11zm.27-4.795l2.03 1.023-2.03 1.08-2.03-1.08L6.5 6.205zm-.303-.27l-1.866.949V4.56l1.866-.95v2.325zm2.439 4.116L6.77 11V8.7l1.866-.949v2.3z" clip-rule="evenodd"/></svg>