<svg xmlns="http://www.w3.org/2000/svg" width="13" height="12" viewBox="0 0 13 12"><path fill-rule="evenodd" d="M10.389 1h.021a.833.833 0 01.812.812v8.375a.833.833 0 01-.812.813H3.417a1.667 1.667 0 01-1.639-1.64V5.569a.416.416 0 01.4-.4h.017l1.25-.001V1.813A.833.833 0 014.257 1h6.132zm-.278.833H4.556a.278.278 0 00-.278.264v6.424a.833.833 0 01-.813.812h-.02V6H2.61v3.077a1.111 1.111 0 001.09 1.09h6.424a.278.278 0 00.264-.264V2.097a.278.278 0 00-.263-.263h-.015zM9.556 7.39a.278.278 0 01.013.555H5.111a.278.278 0 01-.014-.555h4.459zm0-1.111a.278.278 0 01.013.555H5.111a.278.278 0 01-.014-.555h4.459zm0-1.111a.278.278 0 01.013.555H5.111a.278.278 0 01-.014-.555h4.459zM6.778 4.056a.278.278 0 01.014.555H5.11a.278.278 0 01-.014-.555h1.681z" clip-rule="evenodd"/></svg>