<svg xmlns="http://www.w3.org/2000/svg" width="36" height="36" viewBox="0 0 36 36"><path d="M30.686 23.29v-10.5C31.508 12.631 32 12 32 11.367c0-.79-.739-1.5-1.56-1.5-.575 0-.903.237-1.232.632l-9.77-5.447c.081-.158.081-.395.081-.553 0-.79-.739-1.5-1.56-1.5-.821 0-1.56.71-1.56 1.5 0 .237.082.395.082.553l-9.689 5.29c-.328-.396-.821-.633-1.232-.633-.903 0-1.56.711-1.56 1.5 0 .79.657 1.343 1.314 1.421v10.66C4.493 23.447 4 24.08 4 24.71c0 .79.74 1.5 1.56 1.5.575 0 .904-.236 1.232-.631l9.69 5.368c-.083.158-.083.395-.083.553 0 .79.739 1.5 1.56 1.5.821 0 1.56-.71 1.56-1.5 0-.474-.246-.869-.657-1.184l5.173-8.448 4.68 2.606v.157c0 .79.74 1.5 1.56 1.5.904 0 1.561-.71 1.561-1.5 0-.754-.53-1.342-1.15-1.342zm-.492-10.5v10.34l-3.449-5.447 3.12-5.053c.082.08.165.08.329.158zm-1.232-2.053c-.082.158-.082.395-.082.552 0 .474.246.869.657 1.185l-2.956 4.815-7.39-11.763.082-.079 9.69 5.29zM17.712 6l7.966 12.553-1.15 1.894-11.906-6.631 4.845-7.895c.082 0 .164.079.246.079zm-.738-.316l-4.845 7.895-5.09-2.842 9.606-5.29c.165.08.247.158.329.237zM5.807 23.29v-10.5h.164l3.366 5.527-3.202 5.21c-.082-.158-.164-.158-.328-.237zm1.888-10.58l3.777 2.132-1.231 1.974-2.546-4.105zm-.657 12.632c.082-.158.082-.395.082-.553 0-.473-.246-.868-.656-1.184l3.038-4.974 7.308 11.843-.082.157-9.69-5.289zm11.496 4.816c-.082 0-.164-.08-.246-.08l-7.801-12.867L11.801 15l11.988 6.79-5.255 8.368zm7.39-11.053l2.217 3.553-3.284-1.816 1.067-1.737z"/><path fill-rule="evenodd" d="M6.464 23.605c.41.316.656.71.656 1.184 0 .158 0 .395-.082.553l9.69 5.29.082-.158L9.502 18.63l-3.038 4.974zm3.039-4.4l-2.65 4.339c.345.33.567.746.567 1.245v.005c0 .077 0 .189-.011.303-.004.03-.008.064-.014.098l8.753 4.779-6.645-10.77zm-3.368 4.321l3.202-5.21-3.366-5.527h-.164v10.5c.035.017.067.03.095.043.104.043.169.071.233.194zM6.107 23l2.879-4.685-2.88-4.726v9.41zm20.638-5.316l3.449 5.447V12.79a1.647 1.647 0 00-.21-.085.343.343 0 01-.119-.072l-3.12 5.052zM19.273 5.447l-.082.08 7.39 11.762 2.956-4.815c-.41-.316-.657-.71-.657-1.185 0-.157 0-.394.082-.552l-9.69-5.29zm.666.705l6.639 10.569 2.57-4.186c-.346-.33-.568-.746-.568-1.246v-.004c0-.077 0-.189.012-.303a1.33 1.33 0 01.013-.098L19.94 6.152zm9.955 7.004l-2.795 4.526 2.795 4.415v-8.94zm-6.105 8.633L11.801 15l-1.314 2.21 7.8 12.869a.3.3 0 01.124.04.3.3 0 00.123.039l5.255-8.369zm-5.352 7.958l4.931-7.851-11.46-6.49-1.071 1.803 7.6 12.538zm5.598-7.879l4.68 2.606v.157c0 .79.74 1.5 1.56 1.5.904 0 1.561-.71 1.561-1.5 0-.754-.53-1.342-1.15-1.342v-10.5C31.508 12.632 32 12 32 11.37c0-.79-.739-1.5-1.56-1.5-.575 0-.903.236-1.232.631l-9.77-5.447c.081-.158.081-.395.081-.553 0-.79-.739-1.5-1.56-1.5-.821 0-1.56.71-1.56 1.5 0 .13.025.237.047.332.018.079.035.15.035.22l-9.689 5.29c-.328-.395-.821-.632-1.232-.632-.903 0-1.56.711-1.56 1.5 0 .79.657 1.343 1.314 1.421V23.29C4.493 23.447 4 24.08 4 24.71c0 .79.74 1.5 1.56 1.5.575 0 .904-.236 1.232-.631l9.69 5.368c-.083.158-.083.395-.083.553 0 .79.739 1.5 1.56 1.5.821 0 1.56-.71 1.56-1.5 0-.474-.246-.869-.657-1.184l5.173-8.448zm-4.783 8.387l4.889-7.985 4.275 2.38c.011.958.89 1.782 1.86 1.782 1.068 0 1.86-.845 1.86-1.8 0-.77-.48-1.449-1.15-1.608V13.023c.807-.253 1.314-.933 1.314-1.655 0-.966-.884-1.8-1.86-1.8-.332 0-.609.07-.854.206a1.91 1.91 0 00-.441.347l-9.351-5.213c.006-.035.01-.07.013-.1.012-.115.012-.227.012-.304V4.5c0-.966-.884-1.8-1.86-1.8-.975 0-1.86.834-1.86 1.8 0 .154.027.28.049.373l.002.011.002.007-9.3 5.077C6.483 9.62 6 9.41 5.56 9.41c-1.068 0-1.86.845-1.86 1.8 0 .862.63 1.473 1.314 1.666v10.18c-.806.253-1.314.933-1.314 1.654 0 .967.885 1.8 1.86 1.8.332 0 .61-.069.854-.205a1.91 1.91 0 00.442-.348l9.269 5.136c-.006.035-.01.068-.014.1-.012.114-.012.226-.012.303v.004c0 .966.885 1.8 1.86 1.8.976 0 1.86-.834 1.86-1.8 0-.5-.222-.915-.567-1.245zm-7.78-15.413L7.695 12.71l2.546 4.106 1.231-1.974zm-1.23 1.406l.81-1.299-2.485-1.402 1.675 2.7zm7.325-9.918l-4.526 7.376 11.38 6.339.904-1.489L17.567 6.33zm8.11 12.223l-1.149 1.894-11.906-6.631 4.845-7.895a.3.3 0 01.123.04.29.29 0 00.123.039l7.965 12.553zM16.975 5.684a1.13 1.13 0 00-.329-.237l-9.607 5.29 5.091 2.842 4.845-7.895zm-4.95 7.493l4.488-7.314-8.855 4.876 4.367 2.438zm13.9 5.928l-1.067 1.737 3.284 1.816-2.217-3.553zm.002.57l-.65 1.056 1.998 1.105-1.348-2.161z" clip-rule="evenodd"/></svg>