<svg xmlns="http://www.w3.org/2000/svg" width="18" height="18" viewBox="0 0 18 18"><path d="M8.75 13a1.75 1.75 0 100 3.5 1.75 1.75 0 000-3.5zm4.418-7.5c-.2 0-.364.151-.385.346l-.003.042v1.624h-.779c-2.407 0-4.4 1.918-4.498 4.347l-.003.114v.526c.39-.221.84-.347 1.318-.347.48 0 .931.126 1.321.348v-.527c0-1.02.808-1.818 1.781-1.86l.081-.002h.78v1.662a.388.388 0 00.625.307l.037-.032 2.943-2.943c.14-.14.151-.36.033-.512l-.033-.037-2.943-2.942a.388.388 0 00-.274-.114zm-8.553.08l-.036.03-2.965 2.872a.37.37 0 00-.032.5l.032.036 2.965 2.871c.073.071.172.111.276.111a.386.386 0 00.388-.337l.003-.042V10h1.087A5.555 5.555 0 018 7.585a4.69 4.69 0 00-.91-.12l-.158-.002H5.246V5.879c0-.1-.042-.197-.115-.268a.4.4 0 00-.516-.032zm4.437-4.027l-.04.026-.036.032-2.862 2.794A.374.374 0 006 4.672c0 .195.151.356.345.376l.043.003H7.97v1.532c.553.065.879.142 1.371.417.305-.239.84-.352 1.187-.368V5.05h1.583c.103 0 .202-.04.274-.111a.372.372 0 00.033-.5l-.033-.035L9.524 1.61a.395.395 0 00-.472-.058z"/></svg>