<svg xmlns="http://www.w3.org/2000/svg" width="13" height="12" viewBox="0 0 13 12"><path fill-rule="evenodd" d="M5.606 8.946a3.096 3.096 0 01-.638-.273.428.428 0 01-.171-.562.351.351 0 00-.063-.4.374.374 0 00-.398-.072.429.429 0 01-.558-.186 3.062 3.062 0 01-.256-.646.43.43 0 01.27-.515.353.353 0 00.235-.326.343.343 0 00-.21-.325l-.006-.002c-.183-.078-.338-.301-.27-.528.067-.225.16-.442.275-.645a.422.422 0 01.549-.178c.15.063.313.041.413-.056a.351.351 0 00.072-.399.429.429 0 01.187-.557c.205-.11.424-.198.652-.259a.426.426 0 01.09-.014L2.693 1.4a.132.132 0 00-.086-.014.271.271 0 00-.219.267v8.696c0 .133.095.243.22.267a.13.13 0 00.084-.014L5.835 8.97a.454.454 0 01-.228-.023zm2.005-2.473a1.21 1.21 0 01-1.586.641 1.211 1.211 0 01-.641-1.586 1.21 1.21 0 012.227.945zm1.306-1.247a2.502 2.502 0 00-.137-.345.923.923 0 01-.912-.226.895.895 0 01-.25-.696l-.401-.209a.897.897 0 01-.682.318h-.012a.926.926 0 01-.788-.498c-.12.037-.238.084-.351.139a.895.895 0 01-.227.912.912.912 0 01-.916.2 2.548 2.548 0 00-.149.349.893.893 0 01-.018 1.591c.037.118.083.234.137.345a.921.921 0 01.912.226c.238.243.314.6.204.917a2.524 2.524 0 00.34.146.898.898 0 01.79-.477h.01c.27.004.533.145.7.358l.4-.208a.893.893 0 01.267-.702.905.905 0 01.918-.204c.057-.11.107-.227.147-.346a.893.893 0 01.018-1.59zm2.397.653L9.366 4.867c.04.102.075.206.104.312a.43.43 0 01-.27.516.353.353 0 00-.236.326.354.354 0 00.22.329c.207.088.327.324.267.526a3.08 3.08 0 01-.093.261l1.956-1.016a.137.137 0 000-.242zM8.355 4.342l-.033-.018c.01.007.022.013.033.018zm-1.857.992a.667.667 0 11-.004 1.333.667.667 0 01.004-1.333z" clip-rule="evenodd"/></svg>