<svg xmlns="http://www.w3.org/2000/svg" width="18" height="18" viewBox="0 0 18 18"><path d="M4.277 10.288l.05-.001 1.028 2.697h-.227c-.704 0-1.277.591-1.277 1.319v1.758c0 .242.19.439.426.439h6.81a.433.433 0 00.426-.44v-.878c0-1.212-.955-2.198-2.128-2.198H8.108v-.44c0-.242-.19-.44-.426-.44a.433.433 0 00-.426.44v.44H6.27L5.117 9.96a1.344 1.344 0 00.285-1.614l3.138-3.24.647.669a2.251 2.251 0 00.27 2.766l.603.621a.416.416 0 00.602 0l4.213-4.35a.45.45 0 000-.622l-.602-.622a2.082 2.082 0 00-2.678-.28L10.36 2.016a1.664 1.664 0 00-2.408 0 1.8 1.8 0 00-.015 2.471L4.773 7.755a1.235 1.235 0 00-.496-.104C3.573 7.651 3 8.243 3 8.97s.573 1.318 1.277 1.318zm6.385 4.893v.44h-5.96v-1.319c0-.242.192-.439.426-.439h4.257c.704 0 1.277.591 1.277 1.319zm3.01-10.99l.3.31-3.611 3.73-.301-.31a1.348 1.348 0 010-1.866l1.806-1.864a1.25 1.25 0 011.805 0zM8.554 2.637a.832.832 0 011.204 0l1.204 1.243-1.204 1.243C8.596 3.9 8.754 4.075 8.555 3.88a.9.9 0 010-1.243zM4.277 8.53c.235 0 .426.197.426.44 0 .242-.191.44-.426.44a.433.433 0 01-.426-.44c0-.243.191-.44.426-.44zm9.698-1.945l.273.29a.069.069 0 01-.001.094l-1.784 1.769a.063.063 0 01-.09-.002l-.273-.29a.069.069 0 01.001-.094l1.784-1.769a.063.063 0 01.09.002z"/></svg>