<svg xmlns="http://www.w3.org/2000/svg" width="36" height="36" viewBox="0 0 36 36"><path fill-rule="evenodd" d="M16.313 3l5.062 2.531-5.063 3.375v-1.65c-5.189.431-9.28 4.79-9.28 10.088 0 3.73 2.028 6.995 5.04 8.75.715.418.84 1.4.255 1.986l-.005.004c-.41.41-1.043.486-1.543.194A12.65 12.65 0 014.5 17.344c0-6.706 5.216-12.19 11.813-12.625V3zm14.816 26.527l-4.174-4.174a12.602 12.602 0 002.858-8.01 12.65 12.65 0 00-6.417-11.012 1.272 1.272 0 00-1.444.125l-.005.004a1.264 1.264 0 00.186 2.072c3.07 1.74 5.148 5.037 5.148 8.812C27.281 22.642 23.19 27 18 27.43v-1.65l-5.063 3.375L18 31.688v-1.719a12.597 12.597 0 007.165-2.827l4.175 4.175a1.261 1.261 0 001.79 0 1.265 1.265 0 000-1.79zM17.156 17.344a2.531 2.531 0 100-5.063 2.531 2.531 0 000 5.063zm-2.531.843h5.063c.931 0 1.687.756 1.687 1.688v1.82c-1.322.459-2.74.711-4.219.711-1.478 0-2.896-.252-4.218-.711v-1.82c0-.932.755-1.688 1.687-1.688z" clip-rule="evenodd"/></svg>