<svg xmlns="http://www.w3.org/2000/svg" width="13" height="12" viewBox="0 0 13 12"><path fill-rule="evenodd" d="M5.59 4.299l-1.736-.556a.139.139 0 01.084-.264l1.736.555a.139.139 0 01-.084.265zm0 .972l-1.736-.555a.139.139 0 01.084-.265l1.736.556a.139.139 0 01-.084.264zm0 .972l-1.736-.555a.139.139 0 01.084-.265l1.736.556a.139.139 0 01-.084.264zm0 .973L3.854 6.66a.139.139 0 01.084-.265l1.736.556a.139.139 0 01-.084.265zm.574-3.943L3.5 2.506a.279.279 0 00-.332.275v4.483a.28.28 0 00.223.275l2.971.794V3.54c0-.122-.08-.23-.197-.266zm-3.692.06a.417.417 0 00-.416.417v4.861h.555V3.89h.278v-.556h-.417zm8.056 0h-.417v.556h.278V8.61h.555V3.75a.417.417 0 00-.416-.417zm-1.382.41L7.41 4.3a.14.14 0 01-.085-.265l1.737-.555a.139.139 0 01.084.264zm0 .973L7.41 5.27a.14.14 0 01-.085-.265l1.737-.555a.14.14 0 01.084.265zm0 .972l-1.736.555a.14.14 0 01-.085-.265l1.737-.555a.14.14 0 01.084.265zm0 .972l-1.736.556a.14.14 0 01-.085-.265l1.737-.556a.14.14 0 01.084.265zm.355-4.154l-2.665.767a.278.278 0 00-.197.266v4.794L9.61 7.54a.28.28 0 00.223-.275V2.78c0-.177-.16-.31-.332-.275zm-1.896 6.39l3.667.004a.208.208 0 01.228.186l-.01.428a.208.208 0 01-.208.208H1.708a.208.208 0 01-.208-.208v-.417c0-.115.093-.208.208-.208l3.677.004v.065c0 .115.093.209.208.209h1.804a.208.208 0 00.208-.209v-.062z" clip-rule="evenodd"/></svg>