<svg xmlns="http://www.w3.org/2000/svg" width="36" height="36" viewBox="0 0 36 36"><path fill-rule="evenodd" d="M29.736 9.855a1.013 1.013 0 00-1.858-.219l-1.202 2.153 1.767.99 1.202-2.153c.132-.236.165-.51.091-.77zm-2.046 4.273l-1.767-.99-5.165 9.253 1.767.99 5.165-9.253zM21.467 24.51l-1.117-.627-.199 1.67 1.317-1.043zm9.939-9.216l-3.693 6.613a.745.745 0 11-1.303-.73l3.328-5.96-.72-.404-5.559 9.956-.002.003a.729.729 0 01-.107.142l-.024.023a.689.689 0 01-.083.072l-3.583 2.84a.747.747 0 01-.828.067.75.75 0 01-.276-.274c-.013-.016-.027-.03-.038-.047-.081-.127-.149-.264-.22-.397a11.076 11.076 0 00-.306-.544 4.704 4.704 0 00-.206-.316l-.007-.009c-.03-.035-.061-.073-.094-.108-.04.072-.08.147-.117.22-.086.172-.168.346-.262.513-.222.393-.532.774-.99.887-.565.14-1.012-.215-1.271-.684-.09-.164-.164-.336-.245-.504l-.02-.039c-.151.274-.272.565-.453.82-.3.423-.765.77-1.313.63-.339-.086-.592-.355-.739-.66-.3-.627-.383-1.335-.518-2.01a8.069 8.069 0 00-.247-1.006l-.04-.114-.049-.1a.365.365 0 01-.015.014c-.039.039-.072.081-.108.123l-.008.01-.062.091a4.794 4.794 0 00-.363.673 8.715 8.715 0 00-.073.163c-.03.077-.062.153-.091.23-.129.334-.243.674-.346 1.017-.113.372-.218.749-.303 1.129-.082.367-.485.547-.826.47-.365-.083-.545-.485-.469-.828l.02-.088c.129-.54.282-1.074.462-1.598.263-.768.568-1.544 1.078-2.184.485-.608 1.381-.919 1.99-.285.496.515.628 1.324.76 1.998.07.357.132.716.215 1.07.02.09.044.18.069.27.08-.151.155-.305.236-.456.212-.398.514-.81.979-.918.584-.135 1.037.231 1.302.718.093.17.168.348.253.523.181-.311.31-.653.513-.95.304-.444.792-.76 1.345-.548.282.109.508.281.698.49l.318-2.675a.673.673 0 01.019-.114l.005-.028a.78.78 0 01.066-.169s0-.002.002-.002l5.922-10.609 1.566-2.805a2.506 2.506 0 114.373 2.45l-1.202 2.152 1.372.768a.748.748 0 01.288 1.018zm-22.317 4.49a.747.747 0 000 1.495h7.486a.747.747 0 000-1.495H9.089zm11.068-4.318a.747.747 0 00-.747-.748H9.09a.747.747 0 000 1.496h10.32a.747.747 0 00.747-.748zm1.642-5.066a.747.747 0 00-.747-.748H9.09a.747.747 0 000 1.496h11.963a.747.747 0 00.747-.747zm3.843 18.044v.282a2.773 2.773 0 01-2.768 2.773H7.268A2.773 2.773 0 014.5 28.727V7.273A2.773 2.773 0 017.268 4.5h15.606a2.773 2.773 0 012.768 2.773.747.747 0 11-1.493 0c0-.705-.572-1.278-1.275-1.278H7.268c-.703 0-1.275.573-1.275 1.278v21.454c0 .705.572 1.278 1.275 1.278h15.606c.703 0 1.275-.573 1.275-1.278v-.282a.747.747 0 111.493 0z" clip-rule="evenodd"/></svg>