<svg xmlns="http://www.w3.org/2000/svg" width="25" height="24" viewBox="0 0 25 24"><path fill-rule="evenodd" d="M20.278 2h.042a1.667 1.667 0 011.624 1.625v16.751a1.667 1.667 0 01-1.624 1.623l-.042.001H6.334a3.333 3.333 0 01-3.278-3.279v-7.586a.833.833 0 01.802-.8h.031l2.5-.002V3.624a1.667 1.667 0 011.625-1.623L8.056 2h12.222zm-.556 1.667H8.612a.556.556 0 00-.556.527v12.848a1.667 1.667 0 01-1.625 1.624h-.042V12H4.722v6.155A2.222 2.222 0 006.9 20.333h12.85a.556.556 0 00.527-.527V4.194a.556.556 0 00-.526-.527h-.029zm-1.11 11.11a.556.556 0 01.027 1.111H9.722a.556.556 0 01-.027-1.11h8.917zm0-2.221a.556.556 0 01.027 1.11H9.722a.556.556 0 01-.027-1.11h8.917zm0-2.223a.556.556 0 01.027 1.11l-.028.001H9.722a.556.556 0 01-.027-1.11h8.917zm-5.556-2.222a.556.556 0 01.027 1.11l-.027.001H9.722a.556.556 0 01-.027-1.11h3.361z" clip-rule="evenodd"/></svg>