<svg xmlns="http://www.w3.org/2000/svg" width="36" height="36" viewBox="0 0 36 36"><path d="M29.305 19.942a2.462 2.462 0 00-1.287-.73L25.953 8.778a3.47 3.47 0 00.904-2.371C26.843 4.51 25.338 2.986 23.496 3c-1.843.014-3.325 1.563-3.31 3.459.005.82.291 1.57.762 2.156l-10.94 17.927a3.103 3.103 0 00-.84-.112c-1.763.014-3.181 1.495-3.168 3.31.014 1.814 1.454 3.274 3.217 3.26 1.763-.014 3.182-1.496 3.168-3.31a3.325 3.325 0 00-.762-2.103L22.533 9.71a3.244 3.244 0 001.672.082l1.937 9.793a2.47 2.47 0 00-.345.277c-.986.971-1.015 2.582-.064 3.597a2.438 2.438 0 003.508.079 2.59 2.59 0 00.064-3.597z"/></svg>