<svg xmlns="http://www.w3.org/2000/svg" width="13" height="12" viewBox="0 0 13 12"><path d="M10.268 6.647a.82.82 0 00-.429-.243l-.688-3.478c.188-.207.304-.485.301-.79C9.448 1.504 8.946.996 8.332 1c-.614.005-1.108.521-1.104 1.153.002.273.098.523.255.719L3.836 8.847a1.034 1.034 0 00-.28-.037c-.588.005-1.06.498-1.056 1.103.005.605.485 1.092 1.072 1.087.588-.005 1.06-.499 1.056-1.103a1.109 1.109 0 00-.254-.701l3.637-5.959a1.081 1.081 0 00.557.027l.646 3.265a.825.825 0 00-.115.092.863.863 0 00-.021 1.199c.317.338.84.35 1.169.026a.863.863 0 00.021-1.199z"/></svg>