<svg xmlns="http://www.w3.org/2000/svg" width="18" height="18" viewBox="0 0 18 18"><path fill-rule="evenodd" d="M14.063 9c1.34 0 2.437 1.134 2.437 2.531v.563c0 1.397-1.088 2.531-2.438 2.531H9.657c-1.34 0-2.531-1.134-2.531-2.531v-.281c0-.31.253-.563.563-.563.309 0 .562.253.562.563v.28c0 .779.684 1.407 1.406 1.407h4.406c.722 0 1.313-.628 1.313-1.406v-.563c0-.778-.59-1.406-1.313-1.406h-2.615a.564.564 0 01-.563-.563c0-.309.253-.562.563-.562h2.616zm-7.885 4.5c.31 0 .563.253.563.563 0 .309-.253.562-.563.562h-2.24c-1.341 0-2.438-1.134-2.438-2.531v-.563C1.5 10.134 2.587 9 3.938 9h4.406c1.34 0 2.531 1.134 2.531 2.531v.281c0 .31-.253.563-.563.563a.564.564 0 01-.562-.563v-.28c0-.779-.684-1.407-1.406-1.407H3.938c-.722 0-1.313.628-1.313 1.406v.563c0 .778.59 1.406 1.313 1.406h2.24zm6.01-9.375c-.722 0-1.313.59-1.313 1.313 0 .721.59 1.312 1.313 1.312.721 0 1.312-.59 1.312-1.313 0-.721-.59-1.312-1.313-1.312zm0 3.75A2.445 2.445 0 019.75 5.437 2.445 2.445 0 0112.188 3a2.445 2.445 0 012.437 2.438 2.445 2.445 0 01-2.438 2.437zm-6.376-3.75c-.721 0-1.312.59-1.312 1.313 0 .721.59 1.312 1.313 1.312.721 0 1.312-.59 1.312-1.313 0-.721-.59-1.312-1.313-1.312zm0 3.75a2.445 2.445 0 01-2.437-2.438A2.445 2.445 0 015.813 3 2.445 2.445 0 018.25 5.438a2.445 2.445 0 01-2.438 2.437z" clip-rule="evenodd"/></svg>