<svg xmlns="http://www.w3.org/2000/svg" width="13" height="12" viewBox="0 0 13 12"><path fill-rule="evenodd" d="M6.229 1.564a.263.263 0 11.473.158l-.001.001-.005.007-.002.001-.002.002a.523.523 0 00-.071.601c0 .003.003.005.004.007l.004.005.71 1.231a2.58 2.58 0 00-.29-.083V3.49a.043.043 0 00-.003-.006l-.459-.79h-.001a.108.108 0 00-.096-.06c-.046 0-.078.028-.1.069l-.444.778v.001a.044.044 0 00-.001.005l-.002.004c-.102.022-.201.05-.298.084l.709-1.228a.147.147 0 00.007-.017l.001-.002a.525.525 0 00-.07-.591l-.003-.004a.26.26 0 01-.06-.169zm-3.556 2.48a.522.522 0 01.556.239l.007.014.002.004.723 1.251c.02-.117.049-.23.084-.342l-.444-.76c-.024-.04-.032-.081-.009-.121a.109.109 0 01.101-.054v-.001l.898-.002c.07-.076.143-.147.22-.214H3.374a.525.525 0 01-.497-.359l-.003-.004a.26.26 0 00-.116-.137.263.263 0 10-.1.489h.005l.003-.002a.041.041 0 01.007-.002zm.2 4.27a.264.264 0 01-.47.029.263.263 0 01.264-.393h.012a.523.523 0 00.553-.24l.004-.005A.04.04 0 003.24 7.7l.721-1.248c.02.111.046.22.08.326l-.44.752c-.024.04-.032.082-.009.122a.109.109 0 00.101.053v.002l.88.002c.073.082.151.159.234.23H3.38a.524.524 0 00-.504.367v.005l-.001.002-.001.002zm7.706.039a.264.264 0 00-.264-.392h-.011a.523.523 0 01-.554-.24V7.72a.05.05 0 00-.004-.005.037.037 0 01-.004-.005l-.726-1.257a2.537 2.537 0 01-.076.315l.455.792v.002a.108.108 0 01.003.113c-.023.04-.062.053-.11.053l-.895-.005c-.073.08-.152.155-.234.226h1.447l.01-.001h.004a.526.526 0 01.486.367v.003l.004.007a.263.263 0 00.47.028zm-4.094 2.346a.263.263 0 00.21-.421v-.001h-.001v-.002l-.004-.003-.005-.005a.523.523 0 01-.062-.615l.002-.002.706-1.224a2.48 2.48 0 01-.29.082v.001l-.458.79H6.58a.107.107 0 01-.096.06c-.046 0-.077-.027-.1-.068l-.444-.778v-.004a2.532 2.532 0 01-.305-.087l.71 1.23a.526.526 0 01-.062.61l-.002.005-.003.005-.002.003a.264.264 0 00.208.424zm3.372-6.726a.526.526 0 01-.263.071H8.15c.083.07.161.146.234.226a.12.12 0 01.028-.005l.001-.002.896-.005c.047 0 .087.013.11.053a.108.108 0 01-.004.113v.001l-.455.793a.117.117 0 01-.018.022c.029.094.052.19.07.288l.717-1.241.002-.005a.525.525 0 01.567-.251l.003.001a.265.265 0 00.293-.192.263.263 0 00-.502-.16l-.002.004a.523.523 0 01-.234.289zM7.646 7.949a2.254 2.254 0 01-1.157.318A2.268 2.268 0 118.757 6c0 .83-.447 1.554-1.111 1.95zm2.987-.216a.558.558 0 00-.359-.07h-.003a.159.159 0 00-.027.003.221.221 0 01-.237-.101l-.004-.006L10 7.555l-.844-1.462a.23.23 0 01.01-.21.147.147 0 00.015-.045l.812-1.405a.043.043 0 00.002-.006l.002-.004a.222.222 0 01.235-.1l.001.001h.001l.005.002a.443.443 0 00.104.01.56.56 0 00.543-.418.565.565 0 00-1.067-.358l-.001.003a.169.169 0 00-.01.025.223.223 0 01-.215.155H7.86a.23.23 0 01-.132-.095l-.839-1.452a.043.043 0 00-.003-.005l-.003-.004a.22.22 0 01.032-.253l.001-.002.004-.003.01-.01.012-.016a.565.565 0 10-.895.007l.006.007a.09.09 0 01.004.004l.003.006.005.007a.223.223 0 01.03.256c0 .003-.002.005-.003.007a.066.066 0 01-.001.004l-.814 1.41a.146.146 0 00-.029.034.229.229 0 01-.169.112h-1.7a.1.1 0 01-.004 0l-.008-.001a.221.221 0 01-.206-.155.152.152 0 00-.011-.025l-.001-.003a.56.56 0 00-.668-.332.56.56 0 00-.399.69.56.56 0 00.614.414l.02-.003c.005 0 .009-.002.013-.003l.004-.001h.002a.223.223 0 01.236.099l.001.003.003.006.858 1.487a.228.228 0 01-.009.154l-.841 1.457a.074.074 0 01-.003.004l-.005.006a.222.222 0 01-.237.102.144.144 0 00-.027-.003h-.003a.565.565 0 10.442.78l.008-.022.003-.013.001-.004v-.002a.224.224 0 01.205-.154h.004l.006.001h1.685a.23.23 0 01.187.114l.835 1.446c0 .001 0 .003.002.004l.002.007a.222.222 0 01-.03.256l-.005.007-.003.006-.01.011a.564.564 0 10.895.006l-.014-.017-.005-.004a.026.026 0 01-.005-.004l-.001-.002-.002-.003a.222.222 0 01-.031-.254c0-.002.002-.003.003-.004a.024.024 0 00.003-.004l.834-1.445.002-.003.002-.002a.23.23 0 01.18-.104h1.71a.22.22 0 01.107.029.222.222 0 01.101.124l.002.005c0 .005.002.01.004.015l.007.019a.558.558 0 00.518.343.565.565 0 00.283-1.052zm-2.636-2.2L6.9 5.455l-.41-1.029-.412 1.029-1.096.078.84.714-.264 1.077.932-.587.932.587-.265-1.077.84-.714z" clip-rule="evenodd"/></svg>