<svg xmlns="http://www.w3.org/2000/svg" width="18" height="18" viewBox="0 0 18 18"><path fill-rule="evenodd" d="M14.858 7.333c-.7 0-1.297.431-1.544 1.042H11.04c-.14-.64-.489-1.2-.973-1.608l.808-1.123a1.248 1.248 0 001.483-1.227 1.25 1.25 0 10-2.203.807l-.793 1.104a2.906 2.906 0 00-2.137-.08L6.092 4.284a1.667 1.667 0 10-1.234.549c.035 0 .07-.003.104-.005l1.2 2.078a2.908 2.908 0 00-.857 1.677h-.936a1.25 1.25 0 100 .834h.936c.093.647.398 1.226.843 1.663L4.94 13.17c-.027 0-.054-.003-.082-.003a1.667 1.667 0 101.22.534l1.129-1.955a2.91 2.91 0 002.155-.074l.793 1.103a1.25 1.25 0 10.72-.42l-.808-1.122c.484-.407.834-.968.973-1.608h2.274a1.666 1.666 0 101.544-2.292z" clip-rule="evenodd"/></svg>