<svg xmlns="http://www.w3.org/2000/svg" width="18" height="18" viewBox="0 0 18 18"><g><path d="M7.125 9A1.88 1.88 0 009 10.875 1.88 1.88 0 0010.875 9 1.88 1.88 0 009 7.125 1.88 1.88 0 007.125 9z"/><path fill-rule="evenodd" d="M15.349 8.438h.588a.563.563 0 010 1.124h-.588a6.384 6.384 0 01-5.787 5.787v.588a.563.563 0 01-1.124 0v-.588A6.384 6.384 0 012.65 9.562h-.588a.563.563 0 010-1.124h.588A6.384 6.384 0 018.438 2.65v-.588a.563.563 0 011.124 0v.588a6.384 6.384 0 015.787 5.787zM3.75 9A5.256 5.256 0 009 14.25 5.256 5.256 0 0014.25 9 5.256 5.256 0 009 3.75 5.256 5.256 0 003.75 9z" clip-rule="evenodd"/></g></svg>