<svg xmlns="http://www.w3.org/2000/svg" width="13" height="12" viewBox="0 0 13 12"><path fill-rule="evenodd" d="M8.11 6.203c.287-.28.754-.608 1.363-.608.372 0 .71.124.99.283-.123-.65-.406-1.522-1.06-2.193-.688-.706-1.664-1.063-2.903-1.063-1.24 0-2.218.359-2.906 1.067-.659.678-.94 1.553-1.06 2.202.285-.165.627-.296.994-.296.583 0 1.06.336 1.355.616A2.41 2.41 0 016.5 5.595c.755 0 1.29.329 1.61.608zm-1.204-4.38c1.28.076 2.316.512 3.083 1.301 1.425 1.468 1.379 3.608 1.376 3.699a.405.405 0 01-.72.243c-.005-.006-.549-.66-1.171-.66-.593 0-1.007.618-1.01.624a.406.406 0 01-.338.186h-.004a.405.405 0 01-.337-.18 1.614 1.614 0 00-1.284-.63c-.84 0-1.269.606-1.287.632a.408.408 0 01-.332.177H4.88a.406.406 0 01-.332-.17c-.127-.177-.56-.64-1.02-.64-.485 0-1.03.498-1.182.673a.406.406 0 01-.71-.255c-.003-.09-.049-2.231 1.376-3.699.767-.79 1.803-1.225 3.083-1.3v-.419a.405.405 0 01.811 0v.419zM4.609 9.852A1.15 1.15 0 005.757 11a1.15 1.15 0 001.149-1.149v-2.5a.405.405 0 00-.81 0v2.5a.338.338 0 01-.677 0v-.135a.405.405 0 00-.81 0v.135z" clip-rule="evenodd"/></svg>