<svg xmlns="http://www.w3.org/2000/svg" width="36" height="36" viewBox="0 0 36 36"><path d="M17.5 26a3.5 3.5 0 100 7 3.5 3.5 0 000-7zm8.837-15c-.4 0-.73.303-.771.691l-.005.085v3.248h-1.558c-4.814 0-8.8 3.836-8.996 8.693l-.006.229L15 24.998a5.325 5.325 0 012.637-.694c.96 0 1.862.253 2.641.696v-1.054a3.725 3.725 0 013.562-3.72l.163-.004h1.558v3.325a.776.776 0 001.252.613l.073-.064 5.887-5.886c.28-.28.301-.72.064-1.024l-.064-.073-5.887-5.886a.776.776 0 00-.549-.227zm-17.106.159l-.074.063-5.928 5.743a.74.74 0 00-.065.999l.065.071 5.928 5.743A.795.795 0 009.71 24a.773.773 0 00.777-.675l.004-.082v-3.245h2.175A11.11 11.11 0 0116 15.169a9.385 9.385 0 00-1.822-.238l-.314-.005H10.49v-3.169c0-.2-.082-.393-.229-.535a.8.8 0 00-1.031-.063zm8.873-8.053l-.08.053-.072.063-5.725 5.588a.748.748 0 00-.227.535c0 .39.302.71.69.752l.085.004h3.167v3.065c1.106.13 1.758.284 2.742.834.61-.478 1.68-.705 2.374-.736V10.1h3.167c.205 0 .403-.08.548-.221.28-.273.3-.702.064-1l-.064-.07-5.725-5.588a.79.79 0 00-.944-.116z"/></svg>