<svg xmlns="http://www.w3.org/2000/svg" width="18" height="18" viewBox="0 0 18 18"><path fill-rule="evenodd" d="M9 5.145c-1.245 0-2.354.515-3.173 1.322-.12.12-.222.258-.324.378l-1.195-.687a5.801 5.801 0 014.01-2.318V2.5h1.347v1.34a5.848 5.848 0 013.464 1.665 10 10 0 01.546.653l-1.178.687a3.423 3.423 0 00-.324-.378A4.533 4.533 0 009 5.145zm-4.692 8.02l-1.143.669-.665-1.168 1.143-.67a5.952 5.952 0 010-4.67l1.177.686a4.793 4.793 0 00-.307 1.65c0 1.253.512 2.369 1.314 3.193a4.522 4.522 0 002.49 1.27V15.5a5.822 5.822 0 01-3.446-1.683 6.686 6.686 0 01-.563-.653zm10.049-1.168l1.143.67-.682 1.167-1.143-.67c-.171.223-.359.447-.546.653-.922.91-2.116 1.528-3.464 1.683v-1.374a4.514 4.514 0 002.508-1.27 4.562 4.562 0 001.314-3.195c0-.584-.12-1.133-.307-1.649l1.177-.686a5.953 5.953 0 010 4.67zM7.294 7.96A2.379 2.379 0 019 7.257c.614 0 1.228.223 1.689.704.478.464.7 1.082.7 1.7a2.41 2.41 0 01-.7 1.717A2.382 2.382 0 019 12.082c-.614 0-1.228-.24-1.706-.704-.46-.48-.7-1.099-.7-1.717 0-.618.24-1.236.7-1.7z" clip-rule="evenodd"/></svg>