<svg xmlns="http://www.w3.org/2000/svg" width="36" height="36" viewBox="0 0 36 36"><path fill-rule="evenodd" d="M6.077 15.662h-1.09v17.043h26.178V15.662h-1.091v15.952H6.077V15.662z" clip-rule="evenodd"/><path fill-rule="evenodd" d="M6.377 15.362v15.952h23.397V15.362h1.69v17.643H4.687V15.362h1.691zm23.697.3h1.09v17.043H4.987V15.662h1.091v15.952h23.997V15.662zm-10.226-8.84h-3.545v1.09h3.545v-1.09zm8.454 1.09h1.772v4.363H6.077V7.912H7.85v-1.09H4.986v6.544h26.179V6.822h-2.863v1.09z" clip-rule="evenodd"/><path fill-rule="evenodd" d="M20.148 6.522v1.69h-4.145v-1.69h4.145zm7.854 1.69v-1.69h3.463v7.144H4.686V6.522H8.15v1.69H6.377v3.763h23.397V8.212h-1.772zm-20.153-.3H6.077v4.363h23.997V7.912h-1.772v-1.09h2.863v6.544H4.986V6.822H7.85v1.09zm8.454-1.09h3.545v1.09h-3.545v-1.09z" clip-rule="evenodd"/><path d="M13.712 5.185a1.636 1.636 0 10-3.272 0v3.273a1.636 1.636 0 103.272 0V5.185z"/><path fill-rule="evenodd" d="M12.076 4.112c-.593 0-1.074.48-1.074 1.073v3.273a1.074 1.074 0 102.148 0V5.185c0-.593-.481-1.073-1.074-1.073zM9.877 5.185a2.199 2.199 0 014.398 0v3.273a2.199 2.199 0 01-4.398 0V5.185z" clip-rule="evenodd"/><path d="M25.71 5.185a1.636 1.636 0 10-3.272 0v3.273a1.636 1.636 0 003.273 0V5.185z"/><path fill-rule="evenodd" d="M24.075 4.112c-.593 0-1.074.48-1.074 1.073v3.273a1.074 1.074 0 002.147 0V5.185c0-.593-.48-1.073-1.073-1.073zm-2.2 1.073a2.199 2.199 0 014.398 0v3.273a2.199 2.199 0 11-4.397 0V5.185zm.563 10.941l2.694 2.694-8.693 8.693-5.42-5.42 2.693-2.695 2.727 2.727 6-5.999z" clip-rule="evenodd"/><path d="M22.438 15.33l3.49 3.49-9.489 9.489-6.216-6.217 3.49-3.489 2.726 2.727 6-6z"/></svg>