<svg xmlns="http://www.w3.org/2000/svg" width="25" height="24" viewBox="0 0 25 24"><path fill-rule="evenodd" d="M12.5 2c-5.523 0-10 4.477-10 10s4.477 10 10 10 10-4.477 10-10-4.477-10-10-10zm-2.353 15.882a.59.59 0 00.588-.588V6.706a.59.59 0 00-.588-.588.59.59 0 00-.588.588v10.588a.59.59 0 00.588.588zm4.706-1.176a.59.59 0 00.588-.588V7.882a.59.59 0 00-.588-.588.59.59 0 00-.588.588v8.236a.59.59 0 00.588.588zm2.941-2.353a.59.59 0 01-.588.588.59.59 0 01-.588-.588V9.647a.59.59 0 01.588-.588.59.59 0 01.588.588v4.706zm1.765-1.176a.59.59 0 01-.588-.589v-1.176a.59.59 0 01.588-.589.59.59 0 01.588.589v1.176a.59.59 0 01-.588.589zm-6.47 1.764a.59.59 0 01-.589.588.59.59 0 01-.588-.588V9.06a.59.59 0 01.588-.588.59.59 0 01.588.588v5.882zm-4.707-.588a.59.59 0 01-.588.588.59.59 0 01-.588-.588V9.647a.59.59 0 01.588-.588.59.59 0 01.588.588v4.706zm-2.94-1.176a.59.59 0 00.587-.589v-1.176a.59.59 0 00-.588-.589.59.59 0 00-.588.589v1.176a.59.59 0 00.588.589z" clip-rule="evenodd"/></svg>