<svg xmlns="http://www.w3.org/2000/svg" width="13" height="12" viewBox="0 0 13 12"><path fill-rule="evenodd" d="M7.906 5.438a.844.844 0 110-1.688.844.844 0 010 1.688zm0-3.094L4.08 6.17a2.673 2.673 0 012.25 2.25l3.826-3.826C11 3.75 11 2.446 11 1.5c-.946 0-2.25 0-3.094.844zM3.688 6l1.687-1.688c-1.195 0-2.25.282-3.094 1.688h1.407zM6.5 8.813l1.688-1.688c0 1.195-.282 2.25-1.688 3.094V8.813zm-4.136 1.323a.28.28 0 00.397 0l2.25-2.25a.281.281 0 10-.397-.397l-2.25 2.25a.281.281 0 000 .397zM2.28 8.813a.28.28 0 01-.199-.48L3.77 6.644a.281.281 0 11.398.398L2.48 8.73a.28.28 0 01-.199.082zm1.489 1.605a.28.28 0 00.398 0L5.855 8.73a.281.281 0 10-.398-.398L3.77 10.02a.281.281 0 000 .398z" clip-rule="evenodd"/></svg>