<svg xmlns="http://www.w3.org/2000/svg" width="36" height="36" viewBox="0 0 36 36"><path d="M28.895 24.75c.736 0 1.356.27 1.86.81.505.54.753 1.17.745 1.89L21.198 31.5l-8.98-2.7V16.65h2.502l9.326 3.632c.667.279 1 .782 1 1.512 0 .422-.145.791-.435 1.107a1.53 1.53 0 01-1.104.499h-3.592l-2.245-.904-.423 1.269 2.668.985h8.98zM23.764 6.16c.907-1.107 2.061-1.66 3.464-1.66 1.163 0 2.146.45 2.95 1.35.804.9 1.232 1.935 1.283 3.105 0 .927-.427 2.034-1.283 3.321-.855 1.287-1.697 2.363-2.527 3.226-.83.864-2.125 2.147-3.887 3.848-1.779-1.701-3.087-2.984-3.926-3.848-.838-.864-1.68-1.939-2.527-3.226-.847-1.287-1.262-2.394-1.244-3.321 0-1.224.414-2.259 1.244-3.105.83-.846 1.83-1.296 3.002-1.35 1.368 0 2.519.553 3.45 1.66zM4.5 16.65h5.152V31.5H4.5V16.65z"/></svg>