<svg xmlns="http://www.w3.org/2000/svg" width="13" height="12" viewBox="0 0 13 12"><path d="M6.5 9.276c.286 0 .517.231.517.517v.69a.517.517 0 01-1.034 0v-.69c0-.286.231-.517.517-.517zm-2.316-.96a.517.517 0 010 .732l-.488.488a.517.517 0 11-.732-.732l.488-.488a.517.517 0 01.732 0zm5.364 0l.488.488a.517.517 0 01-.732.732l-.488-.488a.517.517 0 01.732-.732zM6.5 3.76a2.241 2.241 0 110 4.482 2.241 2.241 0 010-4.482zm0 1.034a1.207 1.207 0 100 2.414 1.207 1.207 0 000-2.414zm-3.793.69a.517.517 0 010 1.034h-.69a.517.517 0 010-1.034h.69zm8.276 0a.517.517 0 010 1.034h-.69a.517.517 0 110-1.034h.69zm-7.287-3.02l.488.488a.517.517 0 01-.732.732l-.488-.488a.517.517 0 11.732-.732zm6.34 0a.517.517 0 010 .732l-.488.488a.517.517 0 01-.732-.732l.488-.488a.517.517 0 01.732 0zM6.5 1c.286 0 .517.232.517.517v.69a.517.517 0 01-1.034 0v-.69c0-.285.231-.517.517-.517z"/></svg>