<svg xmlns="http://www.w3.org/2000/svg" width="36" height="36" viewBox="0 0 36 36"><path d="M18 27.828c.857 0 1.552.694 1.552 1.551v2.07a1.552 1.552 0 11-3.104 0v-2.07c0-.857.695-1.551 1.552-1.551zm-6.95-2.879a1.552 1.552 0 010 2.195l-1.462 1.463a1.552 1.552 0 11-2.195-2.195l1.463-1.463a1.552 1.552 0 012.195 0zm16.094 0l1.463 1.463a1.552 1.552 0 11-2.195 2.195l-1.463-1.463a1.552 1.552 0 112.195-2.195zM18 11.276a6.724 6.724 0 110 13.448 6.724 6.724 0 010-13.448zm0 3.103a3.62 3.62 0 100 7.242 3.62 3.62 0 000-7.242zM6.62 16.45a1.552 1.552 0 110 3.103H4.553a1.552 1.552 0 110-3.104H6.62zm24.828 0a1.552 1.552 0 110 3.103H29.38a1.552 1.552 0 110-3.104h2.07zM9.588 7.392l1.463 1.463a1.552 1.552 0 11-2.195 2.195L7.393 9.588a1.552 1.552 0 112.195-2.195zm19.019 0a1.552 1.552 0 010 2.195l-1.463 1.463a1.552 1.552 0 11-2.195-2.195l1.463-1.463a1.552 1.552 0 012.195 0zM18 3c.857 0 1.552.695 1.552 1.552V6.62a1.552 1.552 0 11-3.104 0V4.55c0-.854.695-1.55 1.552-1.55z"/></svg>