<svg xmlns="http://www.w3.org/2000/svg" width="18" height="18" viewBox="0 0 18 18"><path fill-rule="evenodd" d="M13.368 7.015v-2.78h1.19c0 1.191-.396 2.383-1.19 2.78zM10.48 8.522L9 7.589l-1.48.933.42-1.71-1.335-1.135 1.74-.124L9 3.919l.655 1.634 1.74.124-1.335 1.134.42 1.71zM4.632 7.015c-.794-.397-1.19-1.589-1.19-2.78h1.19v2.78zm9.927-3.97h-.397c-.018-.001-.074 0-.149.001-.22.004-.6.01-.645-.002V2.25H4.632v.794h-1.19c-.795 0-1.192.71-1.192 1.191 0 1.81.68 3.262 1.985 3.938.34.176.418.398.508.655.061.174.128.365.286.57C5.71 10.56 6.59 11.353 9 11.353c2.41 0 3.177-.766 3.97-1.957.46-.689.484-.71 1.324-1.444l.082-.071c.578-.505 1.086-1.078 1.215-1.834.137-.804.14-.97.158-1.763l.001-.05c0-.482-.397-1.19-1.191-1.19zm-3.574 11.117h-3.97c-.794 0-1.588.794-1.588 1.588h7.147c0-.794-.794-1.588-1.589-1.588zm-.397-1.39a.597.597 0 01-.595.596H8.007a.597.597 0 01-.595-.596c0-.328.268-.595.595-.595h1.986c.327 0 .595.268.595.595z" clip-rule="evenodd"/></svg>