<svg xmlns="http://www.w3.org/2000/svg" width="13" height="12" viewBox="0 0 13 12"><path fill-rule="evenodd" d="M4.6 6.067l-.198.197A2.778 2.778 0 108.32 2.346l-.197.198a2.5 2.5 0 11-3.524 3.524zm2.039-3.29A.139.139 0 006.5 2.64c-.996 0-1.806.81-1.806 1.805a.139.139 0 10.278 0A1.53 1.53 0 016.5 2.917a.139.139 0 00.139-.14zm2.075-.824a3.333 3.333 0 01-1.936 5.813v.29h1.11a.278.278 0 010 .555H5.112a.278.278 0 010-.556h1.111v-.29a3.324 3.324 0 01-2.459-1.417l.602-.602A2.5 2.5 0 017.801 2.31l.202-.202.4-.4c.109.075.212.156.31.245zM2.056 4.028c0-.23.186-.417.416-.417h1.25v.556h-1.11v4.722h-.556V4.028zm5.549 5.145l3.667.005a.208.208 0 01.228.186l-.01.428a.208.208 0 01-.208.208H1.708a.208.208 0 01-.208-.208v-.417c0-.115.093-.208.208-.208l3.677.004v.065c0 .115.093.208.208.208h1.804a.208.208 0 00.208-.208v-.063zm2.923-5.562h-.417v.556h.278v4.722h.555V4.028a.417.417 0 00-.416-.417z" clip-rule="evenodd"/></svg>