<svg xmlns="http://www.w3.org/2000/svg" width="18" height="18" viewBox="0 0 18 18"><path fill-rule="evenodd" d="M15.25 9.208s0 .416-.417.416h-1.25v-3.24c0-.803-.446-1.25-1.25-1.25H5.667V3.792s0-.417.416-.417h8.75c.417 0 .417.417.417.417v5.417zm-1.667 3.114v-1.447h1.667c.417 0 1.25-.446 1.25-1.25v-6.25c0-.805-.833-1.25-1.25-1.25H5.667c-.417 0-1.25.445-1.25 1.25v1.76H2.75c-.804 0-1.25.446-1.25 1.25v5.937a1.46 1.46 0 001.458 1.459h.209v1.06c0 .415.234.778.61.95a1.033 1.033 0 001.116-.165L6.55 13.78h5.576a1.46 1.46 0 001.458-1.459zm-1.25 0v-1.447H5.667c-.417 0-1.25-.446-1.25-1.25v-3.24h-1.25c-.115 0-.417 0-.417.416v5.521c0 .115.093.209.208.209h1.459v1.81l1.618-1.81h6.09a.208.208 0 00.208-.209zm-6.25-2.697h6.25V6.8c0-.416-.301-.416-.416-.416h-6.25v2.823s0 .416.416.416zm1.25-1.25a.417.417 0 100-.834.417.417 0 000 .834zm2.084-.417a.417.417 0 11-.834 0 .417.417 0 01.834 0zm1.25.417a.417.417 0 100-.834.417.417 0 000 .834z" clip-rule="evenodd"/></svg>