<svg xmlns="http://www.w3.org/2000/svg" width="18" height="18" viewBox="0 0 18 18"><path fill-rule="evenodd" d="M8.593 2.346a.395.395 0 11.71.237l-.002.002-.007.01-.003.002a.784.784 0 00-.11.905l.007.01.005.006v.001l1.067 1.847a3.867 3.867 0 00-.436-.125l-.002-.006c0-.003-.002-.006-.004-.009l-.687-1.184h-.003a.162.162 0 00-.144-.09c-.068 0-.115.04-.15.102l-.666 1.167.002.003-.003.007-.002.005a3.828 3.828 0 00-.448.126l1.063-1.84a.22.22 0 00.012-.027l.001-.003a.788.788 0 00-.106-.887L8.683 2.6l-.007-.011a.391.391 0 01-.083-.242zm-5.334 3.72a.782.782 0 01.835.358l.01.021.003.006 1.084 1.877a3.84 3.84 0 01.127-.512l-.666-1.14c-.036-.061-.048-.123-.014-.183a.163.163 0 01.152-.08V6.41l1.347-.004c.103-.113.214-.22.33-.32H4.311a.214.214 0 01-.037-.004.784.784 0 01-.709-.534l-.003-.007a.39.39 0 00-.174-.205.395.395 0 10-.147.733h.003l.005-.002.01-.003zm.3 6.404a.396.396 0 01-.705.043.395.395 0 01.414-.587.783.783 0 00.83-.36v-.002l.006-.006a.063.063 0 00.006-.009l1.081-1.873c.03.167.07.33.12.489l-.659 1.128c-.036.062-.048.124-.014.183a.163.163 0 00.152.08v.003l1.32.003c.109.123.226.238.35.346H4.32a.786.786 0 00-.754.542l-.001.008-.002.007-.001.003-.002.002zm11.56.06a.396.396 0 00-.406-.589h-.007a.781.781 0 01-.83-.359l-.001-.001v-.002l-.002-.002-.004-.004a.052.052 0 01-.006-.008L12.775 9.68c-.029.16-.067.318-.115.472l.682 1.188v.002c.032.05.037.115.005.17-.034.06-.093.08-.164.08l-1.344-.008c-.11.12-.227.234-.35.34h2.163l.007-.001.015-.002h.006a.789.789 0 01.728.544v.004l.001.004.001.005.004.01a.395.395 0 00.705.042zm-6.142 3.519a.395.395 0 00.315-.632v-.002l-.002-.003-.002-.002-.003-.002a.784.784 0 01-.1-.93l.002-.003 1.06-1.836c-.142.049-.286.09-.434.123l-.002.002-.687 1.185H9.12a.161.161 0 01-.144.09c-.068 0-.115-.041-.15-.103l-.365-.64-.3-.527v-.006a3.793 3.793 0 01-.458-.13L8.77 14.48a.229.229 0 01.017.037.782.782 0 01-.11.878l-.004.006-.008.012a.395.395 0 00.312.637zm5.058-10.09a.788.788 0 01-.353.103.228.228 0 01-.042.005h-2.163c.123.105.241.217.35.337a.18.18 0 01.043-.007l.001-.003 1.344-.007c.07 0 .13.02.164.08a.162.162 0 01-.006.169l.001.002-.682 1.188a.175.175 0 01-.028.034c.043.14.078.285.106.432l1.074-1.861.004-.008a.788.788 0 01.845-.378c.001 0 .003 0 .005.002l.005.001a.398.398 0 00.44-.288.395.395 0 00-.747-.25l-.005.01-.004.006a.785.785 0 01-.352.433zm-3.316 5.965a.22.22 0 00-.064.037 3.38 3.38 0 01-1.671.44A3.405 3.405 0 015.582 9a3.403 3.403 0 016.803 0c0 1.242-.67 2.33-1.666 2.924zm4.48-.325a.837.837 0 00-.538-.105l-.004.001a.232.232 0 00-.041.005.332.332 0 01-.355-.153l-.006-.008a.076.076 0 01-.005-.007L12.984 9.14a.344.344 0 01.014-.316.22.22 0 00.024-.067l1.217-2.108a.061.061 0 00.004-.01l.002-.005a.333.333 0 01.353-.148h.003a.26.26 0 01.007.002l.018.005a.705.705 0 00.138.011.84.84 0 00.815-.627.847.847 0 00-1.601-.535l-.001.002a.25.25 0 00-.016.037.334.334 0 01-.31.232l-.012.001-.007.002H11.04a.346.346 0 01-.197-.144L9.584 3.294a.065.065 0 00-.005-.008l-.004-.005a.33.33 0 01.047-.38l.001-.001.001-.002a.37.37 0 01.02-.02l.019-.023a.847.847 0 10-1.343.01.097.097 0 00.01.01l.005.006a.062.062 0 01.005.009.048.048 0 00.007.011.334.334 0 01.046.385l-.004.01-.003.006-1.22 2.113a.22.22 0 00-.044.053.343.343 0 01-.253.168h-2.55l-.007-.001a.332.332 0 01-.321-.233.228.228 0 00-.017-.038V5.36a.84.84 0 00-.361-.414.84.84 0 00-.642-.084.84.84 0 00-.514.394.84.84 0 00-.084.641.84.84 0 00.815.627c.035 0 .07-.002.105-.006l.032-.005c.006 0 .012-.003.018-.004a.324.324 0 01.009-.003h.002a.334.334 0 01.354.154.064.064 0 00.004.01L5 8.898a.342.342 0 01-.014.23l-1.262 2.187a.182.182 0 01-.004.005l-.007.01a.334.334 0 01-.355.152.218.218 0 00-.046-.005.847.847 0 10.307 1.57.84.84 0 00.355-.4l.012-.031a.144.144 0 00.007-.027l.001-.001a.335.335 0 01.312-.231l.01.001H6.842c.117.007.221.07.28.17l1.252 2.169a.097.097 0 01.003.007.33.33 0 01.045.17c0 .082-.03.162-.086.224l-.007.01-.005.01-.005.005a.838.838 0 00-.189.53.846.846 0 101.521-.51l-.02-.025a.034.034 0 00-.008-.007l-.007-.005-.002-.004a.333.333 0 01-.045-.39l.004-.007 1.252-2.168a.04.04 0 01.003-.004.344.344 0 01.272-.16h2.572a.333.333 0 01.306.232l.002.005a.156.156 0 00.006.023l.012.028a.837.837 0 00.777.515.846.846 0 00.424-1.578zm-3.954-3.3l-1.643-.117-.619-1.543-.618 1.543-1.643.117 1.26 1.072-.396 1.615 1.397-.88 1.398.88-.397-1.615 1.26-1.072z" clip-rule="evenodd"/></svg>