<svg xmlns="http://www.w3.org/2000/svg" width="18" height="18" viewBox="0 0 18 18"><path fill-rule="evenodd" d="M16.5 9.32c0 2.62-1.125 4.565-3 6.08-.75-2.651-1.5-4.924-1.5-4.924l-1.5.379-1.125-3.409V5.932L12 5.174 8.625 3.66v3.787L6.75 10.098l-.375 1.514-1.5 1.137-1.181 1.93a7.631 7.631 0 01-1.188-9.142c1.697-2.968 5.155-4.415 8.433-3.529 3.278.886 5.559 3.885 5.561 7.312zm-5.25 1.914l1.181 4.855c-.12.04-.24.12-.359.161l-1.197-4.259-1.5.379L9 10.098l-.75.757-.375 1.894-2.106.841-.958 2.015a3.512 3.512 0 01-.399-.284l1.197-2.215L7.5 12.37l.375-1.894L9 8.961l.75 2.652 1.5-.38z" clip-rule="evenodd"/></svg>