<svg xmlns="http://www.w3.org/2000/svg" width="36" height="36" viewBox="0 0 36 36"><path fill-rule="evenodd" d="M17.186 4.691a.79.79 0 111.42.475l-.003.004-.015.019-.006.004-.007.005a1.568 1.568 0 00-.199 1.825.142.142 0 01.01.014l.001.002 2.133 3.692a7.718 7.718 0 00-.871-.249l-.005-.011a.121.121 0 00-.007-.018l-1.376-2.37h-.004a.323.323 0 00-.288-.18c-.137 0-.232.083-.302.205l-1.33 2.335.003.004a.11.11 0 00-.006.014l-.004.01a7.642 7.642 0 00-.896.254l2.127-3.683a.483.483 0 00.023-.052l.002-.006a1.57 1.57 0 00-.213-1.774.329.329 0 01-.007-.012c-.005-.008-.009-.015-.015-.022a.782.782 0 01-.165-.485zm-10.668 7.44a1.565 1.565 0 011.67.717c.009.013.015.028.021.042l.005.011 2.168 3.755c.062-.35.147-.693.254-1.025l-1.073-1.836-.26-.442c-.071-.123-.096-.247-.026-.367a.326.326 0 01.302-.16l.003-.005 2.691-.006c.207-.228.429-.44.661-.642H8.623a.42.42 0 01-.075-.007 1.567 1.567 0 01-1.417-1.069.327.327 0 00-.008-.013c-.004-.008-.009-.016-.012-.025a.79.79 0 10-.628 1.081h.006a.249.249 0 00.01-.004.131.131 0 01.02-.006zm.6 12.81a.792.792 0 01-1.41.086.79.79 0 01.812-1.176h.016a1.573 1.573 0 001.104-.177c.227-.131.42-.319.555-.541l.002-.003v-.002a.168.168 0 01.01-.012c.005-.006.01-.011.013-.018l2.163-3.746c.06.334.14.66.24.978l-.944 1.615-.375.64c-.072.124-.097.248-.027.368.064.11.183.167.302.16l.003.004 2.637.007c.219.245.454.476.702.692H8.638a.215.215 0 00-.051-.004 1.574 1.574 0 00-1.46 1.103.18.18 0 01-.003.014l-.002.004v.003l-.003.003v.002zm23.12.118a.791.791 0 00-.791-1.177h-.036a1.57 1.57 0 01-1.66-.718l-.001-.002v-.001l-.001-.002-.004-.005-.006-.008a.065.065 0 01-.013-.016l-2.177-3.77a7.606 7.606 0 01-.229.944l1.365 2.377-.003.004c.065.1.076.23.013.34-.07.118-.188.159-.329.158l-.869-.005-1.819-.01a7.847 7.847 0 01-.702.68h4.328l.005-.001.01-.002.029-.002h.011a1.577 1.577 0 011.456 1.087l.001.003.001.005.002.007.001.01.009.02a.79.79 0 001.41.084zm-12.284 7.039a.79.79 0 00.63-1.264v-.003l-.002-.002-.002-.003v-.002l-.004-.003-.007-.006-.014-.013a1.568 1.568 0 01-.214-1.804.265.265 0 01.028-.043l.005-.006 2.12-3.672a7.506 7.506 0 01-.869.246v.002l-.002.003-1.375 2.37h-.006a.322.322 0 01-.287.18c-.137 0-.232-.083-.301-.205l-.73-1.282-.601-1.053.003-.004-.001-.002v-.002l-.001-.002v-.001a7.582 7.582 0 01-.915-.26l2.13 3.691c.015.024.025.05.034.075a1.564 1.564 0 01-.22 1.756l-.007.012-.015.023a.79.79 0 00.623 1.274zm10.116-20.18a1.578 1.578 0 01-.705.207.458.458 0 01-.084.008h-4.328c.248.21.483.436.702.676a.362.362 0 01.085-.015l.002-.005 2.688-.015c.142 0 .26.04.329.158.063.11.052.24-.012.34l.002.004-1.365 2.377a.349.349 0 01-.056.068c.087.28.156.57.211.863l2.15-3.723.006-.014a.299.299 0 01.02-.04 1.574 1.574 0 011.67-.717c.004 0 .007.002.011.003a.796.796 0 00.522-.093.782.782 0 00.368-.48.79.79 0 00-1.494-.502l-.011.022a.164.164 0 00-.004.007l-.003.006a1.57 1.57 0 01-.704.865zm-6.632 11.93a.44.44 0 00-.127.073c-.989.56-2.13.882-3.344.882A6.81 6.81 0 0111.164 18a6.805 6.805 0 013.424-5.9 6.758 6.758 0 013.38-.903A6.81 6.81 0 0124.77 18a6.805 6.805 0 01-3.332 5.848zm8.962-.65a1.677 1.677 0 00-1.078-.21l-.008.002a.482.482 0 00-.082.01.663.663 0 01-.71-.306.142.142 0 00-.013-.017l-.01-.012-2.532-4.385a.688.688 0 01.028-.631.444.444 0 00.05-.136l2.433-4.215.008-.018.005-.011a.665.665 0 01.705-.297h.007l.014.005.035.01.065.008a1.677 1.677 0 001.052-.214 1.68 1.68 0 00.788-1.027 1.694 1.694 0 00-3.201-1.075l-.001.005a.668.668 0 01-.654.543.136.136 0 00-.022.002l-.014.002h-5.187a.692.692 0 01-.394-.287l-2.516-4.357a.121.121 0 00-.01-.015l-.008-.01a.667.667 0 01.095-.758l.001-.004.002-.003a.58.58 0 01.011-.01l.03-.03.037-.047A1.694 1.694 0 0017.976 3a1.694 1.694 0 00-1.336 2.73.192.192 0 00.018.02l.012.012a.111.111 0 01.01.018.097.097 0 00.015.023.668.668 0 01.09.768l-.008.02a.194.194 0 01-.005.012l-2.44 4.227a.44.44 0 00-.088.106.687.687 0 01-.506.335h-5.1a.27.27 0 01-.013-.002l-.023-.002a.668.668 0 01-.62-.463.456.456 0 00-.035-.084 1.679 1.679 0 00-.721-.828 1.68 1.68 0 00-1.284-.169 1.68 1.68 0 00-1.027.788 1.68 1.68 0 00-.169 1.284c.117.436.397.801.788 1.027a1.675 1.675 0 001.053.214l.063-.01a.24.24 0 00.037-.009l.013-.004h.007a.668.668 0 01.705.297l.005.01a.135.135 0 00.008.018l2.574 4.46a.684.684 0 01-.027.462l-2.524 4.373a.22.22 0 01-.008.01l-.015.02a.666.666 0 01-.71.305.436.436 0 00-.083-.01h-.004l-.004-.001a1.694 1.694 0 00-1.697 2.521 1.692 1.692 0 003.022-.184l.024-.06c.005-.014.008-.028.011-.041l.003-.012a.024.024 0 01.002-.004.67.67 0 01.611-.462l.012.001a.13.13 0 00.019.002h5.05a.69.69 0 01.566.34l2.504 4.338.005.014a.66.66 0 01.09.34.665.665 0 01-.172.447.109.109 0 00-.014.023.112.112 0 01-.01.018 1.676 1.676 0 00-.387 1.071c0 .933.758 1.691 1.691 1.691a1.693 1.693 0 001.35-2.71l-.04-.052a.043.043 0 00-.017-.013l-.013-.01a.034.034 0 01-.005-.009l-.005-.009a.666.666 0 01-.093-.762l.008-.01.009-.012 2.504-4.337a.06.06 0 01.006-.008.688.688 0 01.543-.318h5.115a.09.09 0 00.009 0l.021-.004a.667.667 0 01.611.462l.001.002v.001l.004.012c.003.015.007.03.013.045l.022.057a1.685 1.685 0 001.554 1.03c.586 0 1.155-.304 1.468-.845a1.694 1.694 0 00-.62-2.312zm-7.91-6.6l-3.287-.234-1.236-3.086-1.237 3.086-3.287.235 2.522 2.142-.793 3.23 2.795-1.76 2.795 1.76-.794-3.23L22.49 16.6z" clip-rule="evenodd"/></svg>