<svg xmlns="http://www.w3.org/2000/svg" width="36" height="36" viewBox="0 0 36 36"><path fill-rule="evenodd" d="M29.667 3h.063a2.5 2.5 0 012.436 2.437v25.127a2.5 2.5 0 01-2.437 2.435l-.062.001H8.75a5 5 0 01-4.917-4.918V16.703a1.25 1.25 0 011.202-1.2l.047-.002 3.75-.001v-10l.001-.064a2.5 2.5 0 012.437-2.435L11.333 3h18.334zm-.834 2.5H12.167a.833.833 0 00-.833.792V25.5l-.002.064a2.5 2.5 0 01-2.436 2.435L8.833 28V18h-2.5v9.232A3.333 3.333 0 009.6 30.5l.067.001h19.166l.042-.001a.833.833 0 00.79-.79l.002-.042V6.333l-.001-.041a.833.833 0 00-.79-.79l-.043-.002zm-1.666 16.667a.833.833 0 01.041 1.665l-.041.001H13.833a.833.833 0 01-.041-1.665l.041-.001h13.334zm0-3.334a.833.833 0 01.041 1.666l-.041.001H13.833a.833.833 0 01-.041-1.666h13.375zm0-3.333a.833.833 0 01.041 1.666H13.833a.833.833 0 01-.041-1.665l.041-.001h13.334zm-8.334-3.333a.833.833 0 01.042 1.665l-.042.001h-5a.833.833 0 01-.041-1.665l.041-.001h5z" clip-rule="evenodd"/></svg>