<svg xmlns="http://www.w3.org/2000/svg" width="25" height="24" viewBox="0 0 25 24"><path fill-rule="evenodd" d="M20.833 12.277s0 .556-.555.556H18.61v-4.32c0-1.072-.594-1.667-1.667-1.667H8.056V5.055s0-.556.555-.556h11.667c.555 0 .555.556.555.556v7.222zm-2.222 4.153V14.5h2.222c.556 0 1.667-.595 1.667-1.667V4.499c0-1.072-1.111-1.666-1.667-1.666H8.056c-.556 0-1.667.594-1.667 1.666v2.347H4.167c-1.073 0-1.667.595-1.667 1.667v7.917c0 1.072.872 1.944 1.944 1.944h.278v1.415c0 .552.313 1.036.815 1.264a1.378 1.378 0 001.488-.22l2.207-2.459h7.435a1.947 1.947 0 001.944-1.944zm-1.667 0V14.5H8.056c-.556 0-1.667-.595-1.667-1.667v-4.32H4.722c-.153 0-.555 0-.555.556v7.36c0 .154.124.279.277.279H6.39v2.413l2.157-2.413h8.12a.278.278 0 00.278-.278zm-8.333-3.597h8.333V9.069c0-.556-.402-.556-.555-.556H8.056v3.764s0 .556.555.556zm1.667-1.667a.556.556 0 100-1.111.556.556 0 000 1.111zm2.778-.556a.556.556 0 11-1.112 0 .556.556 0 011.112 0zm1.666.556a.556.556 0 100-1.111.556.556 0 000 1.111z" clip-rule="evenodd"/></svg>