<svg xmlns="http://www.w3.org/2000/svg" width="18" height="18" viewBox="0 0 18 18"><path fill-rule="evenodd" d="M14.833 1.5h.032a1.25 1.25 0 011.218 1.219v12.563a1.25 1.25 0 01-1.218 1.218H4.375a2.5 2.5 0 01-2.458-2.46V8.353a.625.625 0 01.601-.6l.024-.001 1.875-.001V2.718A1.25 1.25 0 015.635 1.5h9.198zm-.416 1.25H6.083a.417.417 0 00-.416.396v9.636A1.25 1.25 0 014.446 14h-.03V9h-1.25V13.616A1.667 1.667 0 004.8 15.25H14.437a.417.417 0 00.396-.395V3.146a.417.417 0 00-.395-.395l-.021-.001zm-.834 8.333a.417.417 0 01.021.833H6.917a.417.417 0 01-.021-.832H13.583zm0-1.666a.417.417 0 01.021.832l-.02.001H6.916a.417.417 0 01-.021-.833H13.583zm0-1.667a.417.417 0 01.021.833H6.917a.417.417 0 01-.021-.832l.02-.001h6.667zM9.417 6.083a.417.417 0 01.02.833h-2.52a.417.417 0 01-.021-.832h2.52z" clip-rule="evenodd"/></svg>