<svg xmlns="http://www.w3.org/2000/svg" width="25" height="24" viewBox="0 0 25 24"><path fill-rule="evenodd" d="M17.052 10.229l3 1.088-2.47 6.794c-.234.668-1.509 2.642-2.348 3.062L15 21.78a.402.402 0 01-.357.233h-.125c-.186-.062-.295-.296-.233-.482l.187-.544c-.42-.84-.125-3.374.062-3.918l2.518-6.84zm4.322-7.152c-.84-.295-1.803.296-2.052 1.089L17.52 9.094l3 1.088 1.804-4.928c.202-.669-.171-1.881-.949-2.177zm-5.41 6.856c.063.062.187.062.234.062.295 0 .606-.186.668-.481l1.928-5.115c.124-.358-.062-.778-.42-.964-.357-.124-.777.062-.964.42l-1.928 5.114c-.124.42.063.84.482.964zm-3.062 9.623c-.187-.186-.42-.42-.84-.606a2.595 2.595 0 00-.901-.186h-.063c-.124-.42-.42-.669-.901-.715-.607-.125-1.026.186-1.384.357a1.1 1.1 0 01.124-.482c.125-.42.234-.902.125-1.321a.719.719 0 00-.715-.607c-.902-.062-1.617.42-2.286.902-.668.482-1.15.715-1.57.606-.544-.186-.606-1.617-.295-2.891.233-1.15.668-3.312 1.74-4.275.358-.296.903-.669 1.322-.545.544.187.964 1.026 1.026 2.053a.84.84 0 00.84.715.839.839 0 00.715-.84c-.187-1.617-.902-2.954-1.99-3.373-.668-.234-1.679-.296-2.954.777-1.383 1.197-1.865 3.311-2.223 5.115-.186.901-.606 3.964 1.322 4.695 1.197.42 2.16-.234 2.953-.778.125-.124.296-.186.42-.295-.124.544-.186 1.15.125 1.679.481.777 1.197.84 2.098.233.062 0 .062-.062.125-.062.062.186.233.358.482.482.295.186.668.186.901.186h.296c.124.063.233.125.42.296.124.124.233.233.42.357a.669.669 0 00.481.187.79.79 0 00.606-.296c.234-.357.187-.839-.186-1.088-.062-.093-.187-.155-.233-.28z" clip-rule="evenodd"/></svg>