<svg xmlns="http://www.w3.org/2000/svg" width="36" height="36" viewBox="0 0 36 36"><path fill-rule="evenodd" d="M33 19.695c0-.916-.178-1.787-.534-2.568L31.933 5l-.779 2.233a.44.44 0 00-.01.022c-.054.131-.32.773-1.08 1.452l.134-3.283-.845 1.095-.005.005-.005.007-.004.004c-.156.19-1.623 1.96-3.21 2.195-.245.044-.579 0-.957-.067l-.092-.012c-.88-.111-2.052-.26-3.577.28-2.109.74-3.297 3.348-3.472 3.731l-.02.043a2.248 2.248 0 01-.02-.043c-.174-.383-1.363-2.99-3.471-3.731-1.509-.542-2.704-.39-3.586-.279l-.084.01-.236.03c-.287.039-.545.073-.72.038-1.568-.235-3.055-2.01-3.211-2.196h-.001a.584.584 0 00-.013-.015l-.867-1.095.134 3.283c-.823-.714-1.09-1.43-1.09-1.474L4.067 5l-.533 12.127A6.656 6.656 0 003 19.717c0 .715.111 1.407.334 2.055l-.267 6.588.2.134c.044.044 1.245.87 3.358.916.624 0 1.248-.147 1.892-.298l.065-.015c1.023-.268 2.201-.559 3.78-.402 2.294.205 5.077 2.777 5.574 3.236v.001l.012.011.063.057c.067-.067 3.158-3.104 5.649-3.305 1.563-.131 2.703.143 3.708.384h.001l.071.018c.69.178 1.335.335 1.957.313 2.113-.045 3.314-.872 3.358-.916l.2-.134-.289-6.61c.2-.648.334-1.34.334-2.055zm-.912 0c0 3.127-2.535 5.672-5.648 5.672-3.114 0-5.65-2.546-5.65-5.672 0-3.127 2.536-5.672 5.65-5.672 3.113 0 5.648 2.545 5.648 5.672zm-25.13-9.269c-1.023-.469-1.712-1.05-2.157-1.585l-.29 6.7c1.224-1.474 3.025-2.412 5.071-2.412 3.27 0 6.005 2.434 6.472 5.583.355-.782 1.045-1.05 2.001-1.05.912 0 1.58.224 1.935.916.511-3.104 3.224-5.472 6.449-5.472a6.52 6.52 0 015.07 2.412l-.289-6.677c-.467.536-1.156 1.116-2.157 1.585-1.45.663-2.358.518-3.324.363l-.034-.005c-.8-.134-1.623-.268-2.957.044-1.268.313-3.959 3.082-4.737 3.953-.779-.87-3.47-3.64-4.737-3.953-1.335-.312-2.157-.178-2.958-.044-.956.178-1.868.335-3.358-.358zm-3.046 9.269c0-3.127 2.535-5.672 5.649-5.672 3.113 0 5.648 2.545 5.648 5.672s-2.513 5.695-5.626 5.695c-3.136 0-5.67-2.546-5.67-5.695zm25.464 8.821c1.356-.022 2.268-.424 2.646-.625l-.2-4.467a6.547 6.547 0 01-5.404 2.859 6.55 6.55 0 01-6.316-4.824c-.533 1.787-2.068 3.529-2.068 3.529s-1.623-1.854-2.113-3.685c-.711 2.858-3.29 4.98-6.36 4.98a6.547 6.547 0 01-5.404-2.859l-.2 4.467c.378.2 1.29.603 2.646.625.512 0 1.09-.134 1.735-.29l.158-.037c1.017-.24 2.264-.536 3.934-.387 2.469.223 4.893 2.478 5.56 3.17.667-.692 3.069-2.947 5.56-3.17 1.756-.157 3.046.156 4.091.424l.059.014c.641.15 1.18.276 1.676.276zm-17.56-9.933c-.16.39-.55.665-.986.665a1.077 1.077 0 01-1.078-1.078c0-.459.276-.826.666-.987A2.425 2.425 0 009.5 17 2.506 2.506 0 007 19.5C7 20.876 8.124 22 9.5 22s2.5-1.124 2.5-2.5c0-.321-.069-.642-.183-.917zm16.014.665c.436 0 .826-.276.987-.665.114.275.16.596.183.917 0 1.376-1.124 2.5-2.5 2.5a2.506 2.506 0 01-2.5-2.5c0-1.376 1.124-2.5 2.5-2.5.321 0 .642.069.917.183-.39.161-.665.528-.665.987 0 .596.482 1.078 1.078 1.078z" clip-rule="evenodd"/></svg>