<svg xmlns="http://www.w3.org/2000/svg" width="25" height="24" viewBox="0 0 25 24"><path fill-rule="evenodd" d="M11.957 3.128a.527.527 0 11.947.316l-.002.003-.01.012-.004.003a1.045 1.045 0 00-.137 1.22l.007.01 1.422 2.462a5.163 5.163 0 00-.58-.166l-.002-.003-.002-.004a.096.096 0 00-.005-.013l-.917-1.579h-.003a.215.215 0 00-.192-.12c-.091 0-.154.055-.2.137l-.888 1.556.002.003a.09.09 0 00-.005.014l-.002.002a5.208 5.208 0 00-.596.169l1.417-2.455a.277.277 0 00.016-.035l.001-.004a1.046 1.046 0 00-.147-1.191l-.01-.014a.522.522 0 01-.11-.323zM4.845 8.087a1.043 1.043 0 011.128.506l.003.008 1.445 2.503c.041-.233.098-.462.17-.683L6.703 8.9c-.048-.081-.065-.164-.019-.244a.217.217 0 01.202-.107l.002-.003 1.794-.004c.138-.151.286-.293.44-.427H6.249a.286.286 0 01-.05-.005 1.045 1.045 0 01-.945-.713l-.004-.009-.009-.017a.527.527 0 10-.419.72l.005.001.006-.002.014-.004zm.4 8.54a.528.528 0 01-.94.057.527.527 0 01.528-.784h.014l.01.001a1.042 1.042 0 001.106-.48h.001v-.002l.007-.008a.077.077 0 00.01-.012l1.44-2.499c.04.223.093.44.16.652l-.88 1.504c-.047.082-.064.165-.018.245a.217.217 0 00.202.107l.002.003 1.758.004c.146.164.303.317.468.461H6.26a.213.213 0 00-.034-.003 1.048 1.048 0 00-.971.725l-.003.011a.116.116 0 01-.002.01.03.03 0 01-.002.004.027.027 0 00-.001.003zm15.414.079a.527.527 0 00-.528-.785h-.024a1.048 1.048 0 01-1.106-.478L19 15.44v-.002a.084.084 0 00-.008-.008.075.075 0 01-.008-.011l-1.451-2.513a5.066 5.066 0 01-.153.629l.91 1.584-.002.003a.22.22 0 01.009.227c-.046.079-.125.106-.22.105l-.58-.003-1.212-.007a5.228 5.228 0 01-.467.453h2.884l.01-.001a.143.143 0 01.02-.002h.008a1.051 1.051 0 01.972.735l.002.007.005.013a.527.527 0 00.94.056zm-8.19 4.693a.527.527 0 00.42-.843v-.002l-.001-.002-.002-.002-.007-.006-.01-.01a1.046 1.046 0 01-.142-1.202.196.196 0 01.019-.028l.003-.005 1.413-2.447c-.188.065-.381.12-.579.164v.002h-.001l-.917 1.58h-.003a.215.215 0 01-.192.12c-.092 0-.154-.055-.201-.136l-.487-.855-.4-.702.002-.002-.002-.005a5.07 5.07 0 01-.61-.174l1.421 2.461a.3.3 0 01.023.05 1.043 1.043 0 01-.147 1.17l-.005.009a.18.18 0 01-.007.01l-.003.006a.527.527 0 00.415.849zm6.744-13.454c-.143.083-.305.13-.47.138a.308.308 0 01-.056.006h-2.885c.165.14.322.29.468.45a.239.239 0 01.057-.01l.001-.003 1.792-.01c.094 0 .173.026.22.106a.216.216 0 01-.009.226l.002.003-.91 1.584a.236.236 0 01-.038.045c.058.188.104.38.141.576l1.433-2.482.005-.01.012-.026a1.05 1.05 0 011.114-.478l.008.002.002.001.004.001a.522.522 0 00.534-.783.527.527 0 00-.95.08 1.047 1.047 0 01-.474.585zM14.792 15.9a.29.29 0 00-.085.048 4.507 4.507 0 01-2.229.588A4.54 4.54 0 017.943 12a4.537 4.537 0 014.535-4.535A4.54 4.54 0 0117.013 12a4.537 4.537 0 01-2.221 3.899zm5.975-.433a1.116 1.116 0 00-.719-.14h-.005a.321.321 0 00-.055.007.442.442 0 01-.474-.204l-.008-.01a.106.106 0 01-.006-.01l-1.689-2.922a.458.458 0 01.02-.421.295.295 0 00.032-.09l1.622-2.81a.078.078 0 00.006-.013l.003-.007a.444.444 0 01.473-.198h.002l.009.003.023.007.043.006a1.118 1.118 0 00.702-.143c.26-.15.448-.394.526-.685a1.13 1.13 0 00-2.135-.714l-.002.004a.347.347 0 00-.02.05.445.445 0 01-.414.308l-.015.002-.01.001H15.22a.461.461 0 01-.263-.19L13.28 4.393a.085.085 0 00-.007-.01.44.44 0 01.058-.513v-.002l.002-.002.007-.007a.198.198 0 00.02-.02l.025-.031a1.129 1.129 0 00-.9-1.807 1.129 1.129 0 00-.89 1.82.12.12 0 00.011.013.237.237 0 01.008.008.082.082 0 01.007.012l.01.016a.445.445 0 01.055.525.132.132 0 01-.004.008L10.055 7.22a.293.293 0 00-.059.07.458.458 0 01-.337.224h-3.4l-.01-.001-.014-.002a.442.442 0 01-.413-.309.302.302 0 00-.023-.053l-.001-.003a1.12 1.12 0 00-.481-.551 1.12 1.12 0 00-.856-.113 1.12 1.12 0 00-.685.525c-.15.261-.19.565-.112.856.078.291.264.534.525.685a1.117 1.117 0 00.702.143l.042-.007a.07.07 0 00.025-.006l.009-.003h.004a.445.445 0 01.473.206l.006.011 1.716 2.973a.46.46 0 01-.018.308l-1.683 2.915-.005.007a.442.442 0 01-.167.167.445.445 0 01-.317.05.283.283 0 00-.058-.007h-.002a1.13 1.13 0 10-.153 2.244 1.121 1.121 0 001.036-.686l.016-.04a.172.172 0 00.008-.028l.001-.008.002-.002a.447.447 0 01.408-.309l.007.001.013.002h3.371a.46.46 0 01.373.227l1.67 2.891a.111.111 0 01.003.01.44.44 0 01.06.226c0 .11-.041.217-.115.299l-.01.014a.082.082 0 01-.006.012l-.02.022a1.129 1.129 0 101.79.013l-.028-.034-.01-.01-.01-.006a.022.022 0 01-.002-.006l-.004-.006a.444.444 0 01-.062-.508l.005-.007a.048.048 0 00.006-.008l1.67-2.89a.033.033 0 01.004-.006.458.458 0 01.362-.212h3.41l.011-.001a.44.44 0 01.416.307l.001.002.002.007a.21.21 0 00.009.03l.015.038a1.124 1.124 0 001.036.687 1.129 1.129 0 00.566-2.104zm-5.274-4.4l-2.19-.157-.825-2.057-.825 2.057-2.19.157 1.68 1.428-.529 2.154 1.864-1.174 1.863 1.174-.529-2.154 1.681-1.428z" clip-rule="evenodd"/></svg>