<svg xmlns="http://www.w3.org/2000/svg" width="36" height="36" viewBox="0 0 36 36"><path fill-rule="evenodd" d="M28.534 15.34l-5.659 5.67a5.16 5.16 0 01-3.498 1.485 4.9 4.9 0 01-3.499-1.464c-.514-.515-.514-1.237 0-1.753.515-.515 1.235-.515 1.75 0 .946.949 2.551.949 3.498 0l5.66-5.69c.431-.433.72-1.093.72-1.753 0-.66-.289-1.32-.72-1.753l-.865-.866a2.543 2.543 0 00-1.75-.721 2.55 2.55 0 00-1.749.721l-2.47 2.475c-.514.515-1.234.515-1.748 0-.515-.516-.515-1.237 0-1.753l2.47-2.474A4.9 4.9 0 0124.171 6a4.9 4.9 0 013.498 1.464l.864.866a4.92 4.92 0 011.461 3.505 4.92 4.92 0 01-1.46 3.505zm-10.083 1.32c-.947-.949-2.552-.949-3.499 0l-5.741 5.752c-.947.949-.947 2.557 0 3.506l.864.866c.947.948 2.552.948 3.498 0l2.696-2.701c.515-.516 1.235-.516 1.75 0 .514.515.514 1.237 0 1.752l-2.696 2.701A4.9 4.9 0 0111.824 30a4.9 4.9 0 01-3.498-1.464l-.864-.866c-1.955-1.98-1.955-5.113 0-7.072l5.741-5.69a4.9 4.9 0 013.498-1.465 4.9 4.9 0 013.499 1.464l.864.866c.515.516.515 1.237 0 1.753-.514.515-1.235.515-1.749 0l-.864-.866z" clip-rule="evenodd"/></svg>