<svg xmlns="http://www.w3.org/2000/svg" width="13" height="12" viewBox="0 0 13 12"><path fill-rule="evenodd" d="M8.03 4.691c0 1.982-.807 3.67-1.53 3.67S4.97 6.673 4.97 4.69 5.777 1 6.5 1s1.53 1.708 1.53 3.69zm-3.67 0c0 1.357.349 2.645.892 3.447A3.668 3.668 0 012.83 4.691a3.695 3.695 0 012.422-3.468c-.543.803-.893 2.111-.893 3.468zm3.388 3.447a3.668 3.668 0 002.422-3.447 3.694 3.694 0 00-2.422-3.468c.543.803.893 2.111.893 3.468 0 1.357-.35 2.645-.893 3.447zM7.405 9.41l.52-.812c.4-.17.76-.41 1.072-.7l-.97 1.512h.046a.262.262 0 110 .524H7.81v.28a.787.787 0 01-.786.786H5.976a.787.787 0 01-.786-.786v-.28h-.263a.262.262 0 110-.524h.045l-.97-1.513a3.65 3.65 0 001.072.7l.521.813h.643v-.537l.03.002c.077.005.154.011.232.011.078 0 .155-.006.232-.011l.03-.002v.537h.643z" clip-rule="evenodd"/></svg>