<svg xmlns="http://www.w3.org/2000/svg" width="36" height="36" viewBox="0 0 36 36"><path fill-rule="evenodd" d="M17.367 3.362a.748.748 0 011.281 0L20 6.156a1.785 1.785 0 01-.273 2.195l-1.192 1.182a.748.748 0 01-1.053 0L16.29 8.351a1.785 1.785 0 01-.273-2.195l1.35-2.794zM6.045 9.179a.748.748 0 01.907-.907l2.93 1.02a1.786 1.786 0 011.36 1.746l-.007 1.679a.747.747 0 01-.745.744l-1.679.008a1.785 1.785 0 01-1.745-1.36l-1.02-2.93zm22.995-.875a.748.748 0 01.906.906l-1.02 2.93a1.785 1.785 0 01-1.745 1.36l-1.679-.008a.747.747 0 01-.744-.744l-.008-1.679a1.785 1.785 0 011.36-1.745l2.93-1.02zm1.844 14.799a.748.748 0 01-.906.906l-2.93-1.02a1.785 1.785 0 01-1.36-1.746l.007-1.679a.747.747 0 01.745-.744l1.678-.008a1.785 1.785 0 011.746 1.36l1.02 2.93zm-24.705.906a.748.748 0 01-.907-.906l1.02-2.931a1.786 1.786 0 011.746-1.36l1.679.008a.748.748 0 01.744.744l.008 1.68a1.786 1.786 0 01-1.36 1.744l-2.93 1.02zm17.512-8.871a.75.75 0 01.159 1.072l-2.475 3.182A6.75 6.75 0 0020 24.315L21.008 33h-6l1.009-8.685a6.75 6.75 0 00-1.377-4.923l-2.474-3.181a.75.75 0 01.159-1.073c.334-.237.803-.133 1.055.19l2.358 3.032c.31.398.945.22 1.003-.28l.763-6.574a.563.563 0 011.007 0l.763 6.574c.058.5.694.678 1.003.28l2.358-3.032c.252-.323.721-.427 1.056-.19zM5.448 16.423l1.155.646c.508.285 1.184.228 1.616-.134l.664-.557a.32.32 0 000-.506l-.664-.557c-.432-.362-1.108-.419-1.616-.134l-1.155.646c-.254.142-.254.454 0 .596zm23.964.646l1.155-.646c.254-.142.254-.454 0-.596l-1.155-.646c-.508-.285-1.184-.228-1.616.134l-.663.557a.32.32 0 000 .506l.663.557c.432.362 1.108.419 1.616.134zm-4.54 9.74l-.018-1.323c-.008-.582-.395-1.14-.924-1.332l-.814-.296a.32.32 0 00-.439.253l-.15.853c-.098.555.191 1.169.691 1.467l1.138.677c.25.149.52-.008.516-.298zm-13.711-1.323l-.018 1.324c-.004.29.267.447.516.298l1.138-.677c.5-.298.79-.912.692-1.467l-.15-.853a.32.32 0 00-.44-.253l-.814.296c-.53.192-.916.75-.924 1.332zm-.018-20.211l.018 1.323c.008.583.395 1.14.924 1.333l.814.296a.32.32 0 00.44-.253l.15-.853c.097-.555-.192-1.17-.692-1.467l-1.138-.677c-.249-.149-.52.007-.516.298zm13.711 1.323l.018-1.323c.004-.29-.267-.447-.516-.298l-1.138.677c-.5.298-.79.912-.692 1.467l.151.853a.32.32 0 00.439.253l.814-.296c.53-.193.916-.75.924-1.333z" clip-rule="evenodd"/></svg>