<svg xmlns="http://www.w3.org/2000/svg" width="18" height="18" viewBox="0 0 18 18"><path fill-rule="evenodd" d="M8.156 1.5l2.531 1.266-2.53 1.687v-.825a5.068 5.068 0 00-4.641 5.044 5.064 5.064 0 002.52 4.375c.358.21.42.7.127.993l-.002.002a.636.636 0 01-.772.097 6.327 6.327 0 012.767-11.78V1.5zm7.409 13.264l-2.088-2.088a6.325 6.325 0 00-1.78-9.51.636.636 0 00-.72.062l-.003.002a.632.632 0 00.093 1.036 5.064 5.064 0 012.574 4.406A5.068 5.068 0 019 13.715v-.824l-2.531 1.687L9 15.844v-.86a6.299 6.299 0 003.583-1.413l2.087 2.087a.63.63 0 00.895 0 .633.633 0 000-.894zM8.578 8.672a1.266 1.266 0 100-2.531 1.266 1.266 0 000 2.53zm-1.265.422h2.53c.467 0 .845.378.845.844v.91a6.421 6.421 0 01-4.22 0v-.91c0-.466.379-.844.845-.844z" clip-rule="evenodd"/></svg>