<svg xmlns="http://www.w3.org/2000/svg" width="36" height="36" viewBox="0 0 36 36"><path fill-rule="evenodd" d="M15.27 12.897l-5.21-1.667a.417.417 0 01.255-.794l5.208 1.667a.417.417 0 01-.254.794zm0 2.916l-5.21-1.666a.417.417 0 01.255-.794l5.208 1.667a.417.417 0 01-.254.793zm0 2.917l-5.21-1.666a.417.417 0 01.255-.794l5.208 1.666a.417.417 0 01-.254.794zm0 2.917l-5.21-1.667a.417.417 0 01.255-.794l5.208 1.667a.417.417 0 01-.254.794zM16.991 9.82L8.997 7.517A.836.836 0 008 8.343V21.79c0 .401.28.747.67.826L17.583 25V10.618c0-.367-.24-.69-.59-.798zM5.917 10c-.69 0-1.25.56-1.25 1.25v14.583h1.666V11.667h.834V10h-1.25zm24.166 0h-1.25v1.667h.834v14.166h1.666V11.25c0-.69-.56-1.25-1.25-1.25zm-4.144 1.23l-5.208 1.667a.418.418 0 01-.524-.27.417.417 0 01.27-.524l5.208-1.667a.417.417 0 01.254.794zm0 2.917l-5.208 1.666a.418.418 0 01-.254-.794l5.208-1.666a.417.417 0 01.254.794zm0 2.917l-5.208 1.666a.418.418 0 01-.524-.27.417.417 0 01.27-.524l5.208-1.666a.417.417 0 01.254.794zm0 2.916l-5.208 1.667a.418.418 0 01-.254-.794l5.208-1.667a.417.417 0 01.254.794zm1.064-12.463L19.008 9.82a.833.833 0 00-.591.798V25l8.913-2.383a.84.84 0 00.67-.826V8.343a.836.836 0 00-.997-.826zm-5.688 19.17l11 .013a.625.625 0 01.685.558l-.03 1.284c0 .345-.28.625-.625.625H3.625A.625.625 0 013 28.542v-1.25c0-.346.28-.625.624-.625l11.03.013v.195c0 .345.28.625.625.625h5.411c.345 0 .625-.28.625-.625v-.188z" clip-rule="evenodd"/></svg>