<svg xmlns="http://www.w3.org/2000/svg" width="18" height="18" viewBox="0 0 18 18"><path fill-rule="evenodd" d="M15.81 5.014C14.5 2.916 12.14 1.5 9.516 1.5H9.36l-.208.006a7.362 7.362 0 00-4.228 1.55h.01l.403-.045c3.269-.346 4.831.516 5.795 1.983l.117.186c.039.063.076.128.112.193l.107.198.101.204.097.209.14.323.088.22.086.226.075.208a.4.4 0 00.347.046l3.252-1.469.049-.028c.168-.111.204-.304.108-.496zM4.923 3.056A7.524 7.524 0 002.17 7.472a7.53 7.53 0 00-.154 1.423 7.508 7.508 0 00.925 3.722 7.48 7.48 0 006.758 3.88l-.186.003.185-.002a7.422 7.422 0 006.112-3.46c.104-.21.052-.42-.158-.524l-2.745-1.22-.559-.248-.052-.016c-.105-.026-.207-.024-.29.038l-.022.02c-1.7 2.367-4.226 3.38-6.98 2.514 2.754.865 5.28-.147 6.98-2.514l.02-.02a.327.327 0 00-.075.082c-.63.682-1.469 1.102-2.465 1.102-1.836 0-3.305-1.469-3.305-3.252 0-1.783 1.469-3.252 3.305-3.252.309 0 .612.046.902.129a3.337 3.337 0 011.615 1.025.44.44 0 00.073.059l-.075-.208-.086-.225-.089-.221-.139-.323-.097-.21-.102-.203-.106-.198a6.297 6.297 0 00-.112-.192l-.117-.187c-.964-1.467-2.527-2.33-5.796-1.983l-.401.045h-.011zM16.09 9.02a1.07 1.07 0 00-2.018-.493.361.361 0 01-.32.18h-3.14c-.116 0-.213-.08-.28-.176l-.017-.03a1.07 1.07 0 10-.109 1.196l.013-.015a1.414 1.414 0 00.075-.108.974.974 0 00.012-.022.373.373 0 01.321-.198h3.11c.136 0 .269.058.335.176a.99.99 0 00.142.191 1.07 1.07 0 001.876-.702z" clip-rule="evenodd"/></svg>