<svg xmlns="http://www.w3.org/2000/svg" width="25" height="24" viewBox="0 0 25 24"><path fill-rule="evenodd" d="M12.078 2.241a.499.499 0 01.854 0l.9 1.863a1.19 1.19 0 01-.181 1.463l-.795.788a.499.499 0 01-.702 0l-.795-.788a1.19 1.19 0 01-.182-1.463l.9-1.863zM4.53 6.12a.499.499 0 01.604-.604l1.954.68c.535.132.91.611.907 1.164L7.99 8.478a.498.498 0 01-.497.496l-1.119.005a1.19 1.19 0 01-1.163-.906l-.68-1.954zm15.33-.583a.499.499 0 01.604.604l-.68 1.954A1.19 1.19 0 0118.621 9l-1.12-.005a.498.498 0 01-.496-.496L17 7.379a1.19 1.19 0 01.906-1.163l1.954-.68zm1.23 9.866a.499.499 0 01-.605.604l-1.954-.68a1.19 1.19 0 01-.906-1.164l.005-1.119a.498.498 0 01.497-.496l1.119-.006a1.19 1.19 0 011.163.907l.68 1.954zm-16.47.604a.499.499 0 01-.605-.604l.68-1.954a1.19 1.19 0 011.164-.907l1.119.005a.498.498 0 01.496.497l.005 1.12a1.19 1.19 0 01-.906 1.163l-1.954.68zm11.674-5.914a.5.5 0 01.106.715l-1.65 2.12a4.5 4.5 0 00-.918 3.283l.673 5.79h-4l.673-5.79a4.5 4.5 0 00-.918-3.282l-1.65-2.121a.5.5 0 01.106-.715c.223-.158.536-.089.704.127l1.572 2.021c.206.265.63.147.669-.187l.509-4.382a.375.375 0 01.67 0l.51 4.382a.375.375 0 00.668.187l1.572-2.021c.168-.216.481-.285.704-.127zm-12.162.857l.77.43a.98.98 0 001.077-.089l.443-.371a.213.213 0 000-.338l-.443-.371a.98.98 0 00-1.077-.09l-.77.431c-.17.095-.17.303 0 .398zm15.976.43l.77-.43c.17-.095.17-.303 0-.398l-.77-.43a.98.98 0 00-1.077.089l-.442.371a.213.213 0 000 .338l.442.371a.98.98 0 001.077.09zm-3.027 6.494l-.012-.882a.98.98 0 00-.616-.889l-.542-.197a.213.213 0 00-.293.169l-.1.569a.98.98 0 00.46.977l.76.452c.166.1.346-.005.343-.199zm-9.14-.882l-.012.882c-.003.194.178.298.344.199l.758-.451a.98.98 0 00.462-.978l-.1-.57a.213.213 0 00-.293-.168l-.543.197a.98.98 0 00-.616.889zM7.929 3.517l.012.882a.98.98 0 00.616.888l.543.198a.213.213 0 00.292-.17l.1-.568a.98.98 0 00-.46-.978l-.759-.451c-.166-.1-.347.005-.344.199zm9.14.882l.012-.882c.003-.194-.177-.298-.344-.2l-.758.452a.98.98 0 00-.461.978l.1.569a.213.213 0 00.293.169l.542-.198a.98.98 0 00.616-.888z" clip-rule="evenodd"/></svg>