<svg xmlns="http://www.w3.org/2000/svg" width="18" height="18" viewBox="0 0 18 18"><g><path d="M12.443 16.27h-1.527c-2.013 0-3.653-1.626-3.653-3.625 0-.133.008-.263.022-.392a3.618 3.618 0 01-1.597-2.996c0-1.998 1.638-3.625 3.652-3.625h3.103c1.079 0 1.958.87 1.958 1.943a1.952 1.952 0 01-1.958 1.944h-1.527a3.15 3.15 0 00-3.082 2.483c.447.243.96.381 1.506.381h3.103c1.079 0 1.958.872 1.958 1.944a1.952 1.952 0 01-1.958 1.943zM7.77 12.532a3.352 3.352 0 00-.003.114c0 1.723 1.413 3.126 3.15 3.126h1.526a1.45 1.45 0 001.454-1.444 1.45 1.45 0 00-1.454-1.443H9.34a3.65 3.65 0 01-1.57-.353zm1.57-6.398c-1.737 0-3.148 1.402-3.148 3.126 0 .992.467 1.877 1.196 2.45a3.654 3.654 0 013.53-2.69h1.526a1.45 1.45 0 001.454-1.444 1.45 1.45 0 00-1.454-1.443H9.341l-.001.001zm-4.375 9.541A1.363 1.363 0 013.6 14.32c0-.747.613-1.356 1.366-1.356.753 0 1.367.609 1.367 1.356 0 .748-.614 1.356-1.367 1.356zm0-2.212a.86.86 0 00-.862.856.86.86 0 00.862.856.86.86 0 00.863-.856.86.86 0 00-.863-.856zm7.5-9.021A1.363 1.363 0 0111.1 3.086c0-.748.613-1.356 1.366-1.356.753 0 1.367.608 1.367 1.356 0 .747-.614 1.356-1.367 1.356zm0-2.212a.86.86 0 00-.862.856.86.86 0 00.862.856.86.86 0 00.863-.856.86.86 0 00-.863-.856z"/><path fill-rule="evenodd" d="M9.435 6.364H9.34c-1.611 0-2.919 1.3-2.919 2.896 0 .798.327 1.521.856 2.046a3.887 3.887 0 013.64-2.516h1.527a1.22 1.22 0 001.225-1.214 1.22 1.22 0 00-1.225-1.214H9.436l-.001.002zm-1.974 5.11a3.657 3.657 0 013.457-2.454h1.526a1.45 1.45 0 001.454-1.444 1.45 1.45 0 00-1.454-1.443H9.341l-.001.001c-1.737 0-3.148 1.402-3.148 3.126a3.103 3.103 0 001.196 2.45c.022-.08.046-.16.073-.237zm4.982 5.026h-1.527c-2.138 0-3.882-1.727-3.882-3.855 0-.095.003-.188.01-.28A3.844 3.844 0 015.46 9.257c0-2.126 1.742-3.855 3.881-3.855h3.103c1.204 0 2.187.972 2.187 2.173s-.982 2.173-2.187 2.173h-1.527A2.922 2.922 0 008.1 11.88c.376.176.797.275 1.24.275h3.103c1.204 0 2.187.972 2.187 2.173 0 1.2-.982 2.173-2.187 2.173zm-4.61-4.498a3.15 3.15 0 013.083-2.483h1.527c1.08 0 1.958-.871 1.958-1.944a1.953 1.953 0 00-1.958-1.943H9.34c-2.014 0-3.652 1.627-3.652 3.625 0 1.244.634 2.343 1.597 2.996a3.648 3.648 0 00-.022.392c0 2 1.64 3.625 3.653 3.625h1.527c1.08 0 1.958-.87 1.958-1.943a1.953 1.953 0 00-1.958-1.944H9.34a3.153 3.153 0 01-1.506-.38zm-.063.783c.074 1.66 1.457 2.987 3.146 2.987h1.527a1.45 1.45 0 001.454-1.444 1.45 1.45 0 00-1.454-1.443H9.34a3.655 3.655 0 01-1.57-.353 3.352 3.352 0 000 .253zm.236.095a2.915 2.915 0 002.91 2.662h1.527a1.22 1.22 0 001.225-1.214 1.22 1.22 0 00-1.225-1.214H9.34c-.468 0-.917-.082-1.334-.234zm-3.04 3.025c-.879 0-1.596-.71-1.596-1.586 0-.875.717-1.585 1.595-1.585.879 0 1.596.71 1.596 1.585 0 .876-.717 1.586-1.596 1.586zm0-2.212a.63.63 0 00-.634.626.63.63 0 00.633.627.63.63 0 00.633-.627.63.63 0 00-.633-.626zm7.5-9.022c-.879 0-1.596-.71-1.596-1.585 0-.876.717-1.586 1.595-1.586.879 0 1.596.71 1.596 1.586 0 .876-.717 1.585-1.596 1.585zm0-2.212a.63.63 0 00-.634.627.63.63 0 00.633.626.63.63 0 00.633-.626.63.63 0 00-.633-.627zM3.598 14.32c0 .748.613 1.356 1.366 1.356.753 0 1.367-.608 1.367-1.356 0-.747-.614-1.356-1.367-1.356S3.6 13.572 3.6 14.32zm.504 0a.86.86 0 01.862-.856.86.86 0 01.863.856.86.86 0 01-.863.856.86.86 0 01-.862-.856zm6.996-11.233c0 .747.613 1.356 1.366 1.356.753 0 1.367-.609 1.367-1.356 0-.748-.614-1.356-1.367-1.356S11.1 2.338 11.1 3.086zm.504 0a.86.86 0 01.862-.856.86.86 0 01.863.856.86.86 0 01-.863.856.86.86 0 01-.862-.856z" clip-rule="evenodd"/></g></svg>