<svg xmlns="http://www.w3.org/2000/svg" width="18" height="18" viewBox="0 0 18 18"><path fill-rule="evenodd" d="M11.414 9.304c.431-.42 1.132-.912 2.046-.912.558 0 1.064.186 1.483.425-.183-.976-.608-2.283-1.589-3.29-1.031-1.058-2.496-1.595-4.353-1.595-1.862 0-3.329.54-4.36 1.602-.988 1.017-1.41 2.329-1.59 3.303.428-.248.94-.445 1.49-.445.875 0 1.59.505 2.034.924A3.617 3.617 0 019 8.392c1.132 0 1.935.493 2.413.912zM9.609 2.736c1.92.112 3.474.766 4.624 1.95 2.138 2.202 2.069 5.412 2.065 5.548a.608.608 0 01-1.08.365c-.008-.009-.824-.99-1.758-.99-.889 0-1.51.927-1.515.936a.609.609 0 01-.507.28h-.005a.608.608 0 01-.506-.271 2.421 2.421 0 00-1.926-.946 2.42 2.42 0 00-1.93.95.613.613 0 01-.498.264H6.57a.608.608 0 01-.498-.254c-.191-.266-.841-.96-1.53-.96-.727 0-1.544.747-1.773 1.009a.608.608 0 01-1.065-.383c-.004-.136-.073-3.346 2.064-5.547 1.15-1.185 2.705-1.839 4.625-1.951v-.628a.608.608 0 011.216 0v.628zM6.163 14.777c0 .95.773 1.723 1.723 1.723.95 0 1.723-.773 1.723-1.723v-3.75a.608.608 0 00-1.216 0v3.75a.507.507 0 01-1.014 0v-.203a.608.608 0 00-1.216 0v.203z" clip-rule="evenodd"/></svg>