<svg xmlns="http://www.w3.org/2000/svg" width="13" height="12" viewBox="0 0 13 12"><path fill-rule="evenodd" d="M8.853 1.553v2.721L5.794 1.061a5.032 5.032 0 013.059.492zM5.912 3.065H2.457c.6-.845 1.59-1.469 2.572-1.814l1.765 1.814h-.882zm-3.824.582h2.941L1.593 7.053c-.06-.32-.093-.65-.093-.988 0-.874.213-1.697.588-2.418zM9.44 6.192l1.79-1.84a5.14 5.14 0 00-1.79-2.493v4.333zM8.193 10.78l-1.79-1.839h4.213a5.024 5.024 0 01-2.423 1.84zM9.44 6.967l-.172.177-1.176 1.209h2.82a5.23 5.23 0 00.587-2.418c0-.338-.033-.668-.093-.988L9.44 6.967zM1.794 7.6L3.56 5.785v4.233c-.858-.62-1.42-1.38-1.765-2.419zm3.63 1.285l-.174-.178-1.103-1.133v2.861a4.869 4.869 0 003.242.47l-1.966-2.02z" clip-rule="evenodd"/></svg>