<svg xmlns="http://www.w3.org/2000/svg" width="13" height="12" viewBox="0 0 13 12"><path fill-rule="evenodd" d="M7.015 1.007L6.975 1a.27.27 0 00-.286.208.27.27 0 00.207.322l.76.172-3.638 2.06-.073.043a2.302 2.302 0 00-.782 3.14 2.398 2.398 0 003.238.865l1.416-.802.035-.023a.354.354 0 00.096-.467.369.369 0 00-.498-.133l-1.416.802-.068.036a1.66 1.66 0 01-2.173-.635 1.594 1.594 0 01.591-2.203l3.637-2.06-.227.73-.009.04c-.02.129.06.257.19.298a.272.272 0 00.342-.176l.476-1.533.003-.014.004-.035v-.02l-.003-.027-.008-.038-.013-.034-.019-.035-.021-.029-.028-.028-.03-.023-.026-.015a.28.28 0 00-.045-.019l-.015-.004-1.577-.357zM9.837 5.45a2.398 2.398 0 00-3.238-.865l-1.416.801-.035.023a.354.354 0 00-.096.467.369.369 0 00.498.133l1.416-.802.068-.036a1.66 1.66 0 012.173.636c.456.773.19 1.76-.591 2.203L6.19 9.383a.923.923 0 00-.996-.058.885.885 0 00-.329 1.223c.253.43.81.58 1.245.333a.886.886 0 00.447-.875l2.425-1.374.073-.042a2.302 2.302 0 00.782-3.14z" clip-rule="evenodd"/></svg>