<svg xmlns="http://www.w3.org/2000/svg" width="18" height="18" viewBox="0 0 18 18"><path fill-rule="evenodd" d="M7.66 13.419a4.651 4.651 0 01-.958-.41.642.642 0 01-.257-.843.527.527 0 00-.094-.6.562.562 0 00-.598-.107.643.643 0 01-.836-.28 4.592 4.592 0 01-.385-.968.644.644 0 01.405-.773.53.53 0 00.354-.49.515.515 0 00-.315-.486l-.01-.004c-.274-.116-.506-.452-.405-.791a4.63 4.63 0 01.413-.968.633.633 0 01.823-.267c.227.095.47.061.62-.085a.527.527 0 00.108-.598.643.643 0 01.28-.835c.308-.166.637-.297.978-.389a.639.639 0 01.137-.02L3.287 2.098a.198.198 0 00-.127-.02.407.407 0 00-.33.4v13.044c0 .199.142.365.33.4.043.008.088 0 .127-.02l4.714-2.45a.68.68 0 01-.341-.033zm3.007-3.71a1.817 1.817 0 01-2.38.961 1.817 1.817 0 01-.961-2.378 1.817 1.817 0 012.38-.962 1.817 1.817 0 01.96 2.38zm1.959-1.87a3.762 3.762 0 00-.206-.518 1.385 1.385 0 01-1.368-.338 1.343 1.343 0 01-.374-1.045l-.603-.313a1.345 1.345 0 01-1.023.478h-.017a1.388 1.388 0 01-1.183-.749 3.78 3.78 0 00-.526.209 1.343 1.343 0 01-.34 1.368c-.354.345-.88.456-1.374.3a3.821 3.821 0 00-.223.524 1.339 1.339 0 01-.028 2.387c.056.177.125.35.206.517a1.382 1.382 0 011.367.339c.357.365.47.9.306 1.376a3.75 3.75 0 00.511.218c.23-.434.687-.715 1.184-.715h.016c.405.006.799.218 1.048.537l.602-.313a1.34 1.34 0 01.4-1.052c.36-.351.903-.468 1.376-.305.087-.167.16-.341.222-.52a1.34 1.34 0 01-.718-1.203c.007-.503.3-.96.745-1.183zm3.595.98L13.299 7.3c.06.153.112.31.156.468a.644.644 0 01-.406.774.53.53 0 00-.353.49.53.53 0 00.33.493c.31.131.49.485.4.788-.04.134-.087.264-.138.393l2.933-1.524a.205.205 0 000-.364zm-4.438-2.306l-.05-.027c.016.01.033.019.05.027zM8.998 8.002a1 1 0 11-.392 1.92 1 1 0 01.392-1.92z" clip-rule="evenodd"/></svg>