<svg xmlns="http://www.w3.org/2000/svg" width="13" height="12" viewBox="0 0 13 12"><path fill-rule="evenodd" d="M4.256 8.688L5.52 4.95a1.278 1.278 0 011.225-.875l-.456 1.362a.049.049 0 00.012.05.057.057 0 00.044.02h.669c.03 0 .062-.026.075-.057L8.675.75 7.444 2.631a3.52 3.52 0 00-.969-.131A3.506 3.506 0 003 6.044a3.492 3.492 0 001.256 2.644zm2.188.812A3.519 3.519 0 0010 6.037a3.5 3.5 0 00-1.256-2.724L7.48 7.05a1.305 1.305 0 01-1.231.881l.531-1.569c.007-.018.007-.03-.006-.05-.012-.012-.025-.025-.044-.025h-.668c-.038 0-.063.026-.075.057L4.325 11.25 5.55 9.369c.281.081.581.125.894.131z" clip-rule="evenodd"/></svg>