<svg xmlns="http://www.w3.org/2000/svg" width="13" height="12" viewBox="0 0 13 12"><path d="M5.25 6c0 .688.563 1.25 1.25 1.25.688 0 1.25-.563 1.25-1.25 0-.688-.563-1.25-1.25-1.25-.688 0-1.25.563-1.25 1.25z"/><path fill-rule="evenodd" d="M10.732 5.625h.393a.375.375 0 010 .75h-.393a4.256 4.256 0 01-3.857 3.857v.393a.375.375 0 01-.75 0v-.393a4.256 4.256 0 01-3.857-3.857h-.393a.375.375 0 010-.75h.393a4.256 4.256 0 013.857-3.857v-.393a.375.375 0 01.75 0v.393a4.256 4.256 0 013.857 3.857zM3 6c0 1.93 1.57 3.5 3.5 3.5S10 7.93 10 6 8.43 2.5 6.5 2.5 3 4.07 3 6z" clip-rule="evenodd"/></svg>