<svg xmlns="http://www.w3.org/2000/svg" width="13" height="12" viewBox="0 0 13 12"><path fill-rule="evenodd" d="M6.355 6.225a.258.258 0 00.293-.424.258.258 0 00-.293.424zm-.202-.994V1l.684.407 3.05 1.753a.86.86 0 011.355.704c0 .34-.199.634-.487.773v3.9l-3.89 2.234-.357.205V11l-.353-.203-3.894-2.236-.01-3.827A.858.858 0 012.62 3.1a.858.858 0 01.344 1.645l.01 3.406 3.18 1.827v-3.18a.858.858 0 010-1.567zm.712 1.564v3.157l3.177-1.825V4.653a.858.858 0 01-.519-.884L6.865 2.242v2.993a.858.858 0 010 1.56zm3.257-2.931a.258.258 0 10.516-.001.258.258 0 00-.516.001zm-7.762.094a.258.258 0 00.517 0 .258.258 0 00-.259-.257.258.258 0 00-.258.257z" clip-rule="evenodd"/></svg>