<svg xmlns="http://www.w3.org/2000/svg" width="36" height="36" viewBox="0 0 36 36"><path fill-rule="evenodd" d="M22.587 14.073c0 5.947-2.417 11.01-4.587 11.01s-4.587-5.063-4.587-11.01S15.83 3.003 18 3.003s4.587 5.123 4.587 11.07zm-11.009 0c0 4.07 1.048 7.934 2.678 10.342-4.234-1.534-7.265-5.579-7.265-10.342 0-4.763 3.03-8.87 7.265-10.403-1.63 2.408-2.678 6.333-2.678 10.403zm10.167 10.342c4.234-1.534 7.264-5.579 7.264-10.342 0-4.763-3.03-8.87-7.264-10.403 1.629 2.408 2.677 6.333 2.677 10.403s-1.048 7.934-2.677 10.342zm-1.03 3.813l1.563-2.438a11.018 11.018 0 003.214-2.1l-2.909 4.538h.135a.786.786 0 110 1.572h-.787v.839a2.36 2.36 0 01-2.358 2.358h-3.145a2.362 2.362 0 01-2.36-2.358V29.8h-.785a.786.786 0 110-1.572h.134l-2.909-4.539a11.018 11.018 0 003.215 2.1l1.562 2.439h1.929v-1.613l.09.007c.23.016.461.033.696.033.235 0 .466-.017.697-.033l.09-.007v1.613h1.928z" clip-rule="evenodd"/></svg>