<svg xmlns="http://www.w3.org/2000/svg" width="36" height="36" viewBox="0 0 36 36"><path fill-rule="evenodd" d="M25.059 4.66v8.162l-9.176-9.64c3.095-.498 6.308.034 9.176 1.478zm-8.824 4.534H5.872c1.798-2.535 4.77-4.406 7.716-5.44l5.294 5.44h-2.647zM4.764 10.941h8.824L3.28 21.161A15.917 15.917 0 013 18.195c0-2.623.64-5.092 1.764-7.255zm22.06 7.634l5.37-5.518a15.421 15.421 0 00-5.37-7.479v12.997zm-3.746 13.766l-5.37-5.518h12.64c-1.797 2.535-4.327 4.482-7.27 5.518zm3.746-11.44l-.516.53-3.53 3.628h8.458A15.685 15.685 0 0033 17.804c0-1.014-.098-2.003-.28-2.962l-5.896 6.06zM3.882 22.798l5.294-5.442v12.697c-2.574-1.857-4.257-4.139-5.294-7.255zm10.888 3.854l-.52-.534-3.309-3.399v8.584a14.604 14.604 0 009.727 1.408l-5.898-6.06z" clip-rule="evenodd"/></svg>