<svg xmlns="http://www.w3.org/2000/svg" width="18" height="18" viewBox="0 0 18 18"><g><path d="M15.343 11.645v-5.25c.41-.08.657-.395.657-.71 0-.395-.37-.75-.78-.75-.287 0-.452.118-.616.315L9.72 2.526c.04-.079.04-.197.04-.276 0-.395-.369-.75-.78-.75-.41 0-.78.355-.78.75 0 .119.042.197.042.276L3.396 5.171c-.164-.197-.41-.316-.616-.316a.765.765 0 00-.78.75c0 .395.329.671.657.71v5.33c-.41.079-.657.395-.657.71 0 .395.37.75.78.75.288 0 .452-.118.616-.315l4.845 2.684c-.041.079-.041.197-.041.276 0 .395.369.75.78.75.41 0 .78-.355.78-.75 0-.237-.124-.434-.329-.592l2.587-4.224 2.34 1.303v.079c0 .395.37.75.78.75.451 0 .78-.355.78-.75 0-.377-.265-.671-.575-.671zm-.246-5.25v5.17l-1.724-2.723 1.56-2.526c.04.04.082.04.164.079zm-.616-1.026c-.041.078-.041.197-.041.276 0 .237.123.434.328.592L13.29 8.645 9.595 2.763l.041-.04 4.845 2.646zM8.856 3l3.983 6.276-.575.948-5.953-3.316 2.422-3.947c.041 0 .082.04.123.04zm-.37-.158L6.066 6.79 3.519 5.369l4.804-2.645c.082.04.123.079.164.118zm-5.583 8.803v-5.25h.082L4.67 9.158l-1.601 2.605c-.042-.079-.083-.079-.165-.118zm.945-5.29l1.888 1.066-.616.987-1.272-2.053zm-.329 6.316c.041-.079.041-.197.041-.276 0-.237-.123-.434-.328-.592L4.75 9.316l3.654 5.92-.041.08-4.845-2.645zm5.748 2.408c-.041 0-.082-.04-.123-.04l-3.9-6.434L5.9 7.5l5.995 3.395-2.628 4.184zm3.695-5.526l1.108 1.776-1.642-.908.534-.868z"/><path fill-rule="evenodd" d="M3.232 11.803c.205.158.328.355.328.592 0 .079 0 .197-.04.276l4.844 2.645.04-.08-3.653-5.92-1.52 2.487zm1.52-2.2l-1.326 2.169a.848.848 0 01.284.623v.002a1.456 1.456 0 01-.012.2l4.376 2.39-3.323-5.384zm-1.684 2.16l1.6-2.605-1.683-2.763h-.082v5.25l.048.021c.052.022.084.036.117.097zm-.015-.263l1.44-2.342-1.44-2.363V11.5zm10.32-2.658l1.724 2.724V6.395c-.031-.015-.057-.025-.079-.033l-.026-.01a.171.171 0 01-.06-.036l-1.56 2.526zM9.636 2.724l-.04.04 3.694 5.88 1.478-2.407c-.205-.158-.328-.355-.328-.592 0-.08 0-.198.041-.276L9.636 2.724zm.333.352l3.32 5.285 1.285-2.094a.848.848 0 01-.284-.622v-.002c0-.039 0-.095.006-.152a.711.711 0 01.007-.049L9.969 3.076zm4.978 3.502l-1.398 2.263 1.398 2.208v-4.47zm-3.052 4.317L5.9 7.5l-.657 1.105 3.9 6.435c.021 0 .042.01.062.02.02.01.041.019.062.019l2.628-4.184zm-2.676 3.979l2.465-3.926-5.73-3.245-.536.902 3.8 6.269zm2.799-3.94l2.34 1.303v.079c0 .395.37.75.78.75.451 0 .78-.355.78-.75 0-.377-.265-.671-.575-.671v-5.25c.41-.08.657-.395.657-.71 0-.395-.37-.75-.78-.75-.287 0-.452.118-.616.315L9.72 2.526c.04-.079.04-.197.04-.276 0-.395-.369-.75-.78-.75-.41 0-.78.355-.78.75 0 .065.013.119.024.166.01.04.018.075.018.11L3.396 5.171c-.164-.197-.41-.316-.616-.316a.765.765 0 00-.78.75c0 .395.329.671.657.71v5.33c-.41.079-.657.395-.657.71 0 .395.37.75.78.75.288 0 .452-.118.616-.315l4.845 2.684c-.041.079-.041.197-.041.276 0 .395.369.75.78.75.41 0 .78-.355.78-.75 0-.237-.124-.434-.329-.592l2.587-4.224zm-2.392 4.193l2.444-3.992 2.138 1.19c.005.48.445.89.93.89.534 0 .93-.421.93-.9 0-.384-.24-.723-.575-.803v-5c.403-.127.657-.467.657-.828 0-.483-.442-.9-.93-.9a.853.853 0 00-.648.277L9.897 2.454a1.46 1.46 0 00.013-.202V2.25c0-.483-.443-.9-.93-.9-.488 0-.93.417-.93.9a.8.8 0 00.024.187l.001.005v.003l-4.65 2.54a.982.982 0 00-.645-.28.915.915 0 00-.93.9c0 .431.315.737.657.833v5.09c-.403.127-.657.467-.657.827 0 .483.442.9.93.9a.853.853 0 00.648-.276l4.634 2.568a.762.762 0 00-.007.05c-.005.057-.005.112-.005.15v.003c0 .483.442.9.93.9.487 0 .93-.417.93-.9a.848.848 0 00-.284-.623zm-3.89-7.706L3.848 6.355 5.12 8.408l.616-.987zm-.615.703l.405-.65-1.243-.7.838 1.35zm3.663-4.959L6.52 6.853l5.69 3.17.451-.745-3.878-6.113zm4.055 6.111l-.575.948-5.953-3.316 2.422-3.947c.02 0 .041.01.062.02.02.01.04.02.061.02l3.983 6.275zM8.487 2.842a.565.565 0 00-.164-.118L3.519 5.369l2.546 1.42 2.422-3.947zM6.012 6.588l2.244-3.656-4.427 2.437 2.183 1.22zm6.95 2.965l-.534.868 1.642.908-1.108-1.776zm0 .285l-.324.528 1 .552-.675-1.08z" clip-rule="evenodd"/></g></svg>