<svg xmlns="http://www.w3.org/2000/svg" width="18" height="18" viewBox="0 0 18 18"><path fill-rule="evenodd" d="M6.675 10.013a6.723 6.723 0 01-.868-.275l-.005.005-2.267-.89a.201.201 0 00-.035-.01V1.5h6.152c2.297 0 4.157 1.876 4.157 4.191 0 1.46-.739 2.746-1.86 3.497l-1.419.56a6.45 6.45 0 01-2.362.445c-.198 0-.401-.01-.6-.03a6.185 6.185 0 01-.893-.15zm3.736-3.986A2.137 2.137 0 008.283 3.88c-1.176 0-2.129.96-2.129 2.146 0 1.185.953 2.145 2.129 2.145 1.175 0 2.128-.96 2.128-2.146zM5.122 16.5H3.5V9.798l2.406 1.68-.784 5.022zm5.299-5.022l.789 5.022H15l-2.674-6.352-1.905 1.33zM6.536 16.5l.64-1.11a1.14 1.14 0 011.98 0l.64 1.11h-3.26z" clip-rule="evenodd"/></svg>