<svg xmlns="http://www.w3.org/2000/svg" width="25" height="24" viewBox="0 0 25 24"><path fill-rule="evenodd" d="M15.718 12.406c.576-.56 1.51-1.217 2.729-1.217.743 0 1.418.249 1.978.567-.245-1.3-.811-3.045-2.12-4.386-1.375-1.411-3.327-2.127-5.804-2.127-2.482 0-4.438.719-5.814 2.136-1.316 1.355-1.879 3.105-2.118 4.403.57-.33 1.253-.593 1.986-.593 1.167 0 2.12.673 2.711 1.232a4.822 4.822 0 013.235-1.232c1.51 0 2.58.658 3.217 1.217zm-2.406-8.758c2.56.15 4.633 1.021 6.166 2.6 2.85 2.936 2.758 7.217 2.752 7.397a.81.81 0 01-1.44.487c-.01-.012-1.098-1.321-2.343-1.321-1.185 0-2.012 1.236-2.02 1.249a.811.811 0 01-.676.372h-.007a.81.81 0 01-.674-.36 3.228 3.228 0 00-2.57-1.262 3.228 3.228 0 00-2.572 1.266.817.817 0 01-.664.353H9.26a.811.811 0 01-.664-.34c-.255-.354-1.122-1.28-2.04-1.28-.97 0-2.058.997-2.364 1.345a.81.81 0 01-1.42-.51c-.006-.18-.098-4.461 2.752-7.396 1.534-1.58 3.607-2.451 6.166-2.601V2.81a.81.81 0 011.622 0v.837zM8.717 19.703A2.3 2.3 0 0011.015 22a2.3 2.3 0 002.297-2.297v-5a.81.81 0 00-1.622 0v5a.676.676 0 01-1.351 0v-.27a.81.81 0 00-1.622 0v.27z" clip-rule="evenodd"/></svg>