<svg xmlns="http://www.w3.org/2000/svg" width="13" height="12" viewBox="0 0 13 12"><path fill-rule="evenodd" d="M5.938 1l1.687.844-1.688 1.125v-.55A3.379 3.379 0 002.845 5.78c0 1.244.676 2.332 1.68 2.917.238.14.28.467.085.662l-.002.001a.424.424 0 01-.514.065 4.218 4.218 0 011.845-7.853V1zm4.938 8.842L9.485 8.451a4.217 4.217 0 00-1.186-6.34.424.424 0 00-.481.041l-.002.001a.421.421 0 00.062.69 3.376 3.376 0 011.716 2.938A3.379 3.379 0 016.5 9.144v-.55L4.812 9.719l1.688.844V9.99a4.199 4.199 0 002.388-.943l1.392 1.392a.42.42 0 00.596 0 .422.422 0 000-.597zM6.22 5.782a.844.844 0 100-1.688.844.844 0 000 1.687zm-1.407.843c0-.31.252-.563.563-.563h1.688c.31 0 .562.252.562.563v.607a4.28 4.28 0 01-2.813 0v-.607z" clip-rule="evenodd"/></svg>