<svg xmlns="http://www.w3.org/2000/svg" width="36" height="36" viewBox="0 0 36 36"><path fill-rule="evenodd" d="M23.904 4.213a14.94 14.94 0 00-6.887-1.181c-7.473.48-13.505 6.512-13.985 13.985a14.941 14.941 0 001.18 6.887c.226.524.897.704 1.343.348.197-.157.408-.298.63-.42a.881.881 0 00.405-1.105 12.304 12.304 0 01-.906-5.686c.46-6.034 5.323-10.897 11.357-11.357a12.3 12.3 0 015.686.906.882.882 0 001.106-.405c.121-.222.262-.433.42-.63.355-.446.175-1.117-.35-1.342zm-11.198 8.493c0-.975 2.37-1.765 5.294-1.765 2.924 0 5.294.79 5.294 1.765v1.765c0 .974-2.37 1.764-5.294 1.764-2.924 0-5.294-.79-5.294-1.764v-1.765zm0 3.53C12.706 17.21 15.076 18 18 18c2.924 0 5.294-.79 5.294-1.765v2.647c0 .975-2.37 1.765-5.294 1.765-2.924 0-5.294-.79-5.294-1.765v-2.647zM18 22.411c-2.924 0-5.294-.79-5.294-1.765v2.647c0 .975 2.37 1.765 5.294 1.765 2.924 0 5.294-.79 5.294-1.765v-2.647c0 .975-2.37 1.765-5.294 1.765zm4.725 6.999a.878.878 0 011.105.4c.123.224.264.436.422.635.355.444.178 1.115-.345 1.34A14.905 14.905 0 0118 33c-2.097 0-4.094-.433-5.907-1.214-.523-.225-.7-.896-.346-1.34.159-.199.3-.411.423-.636a.878.878 0 011.105-.4 12.27 12.27 0 004.725.943c1.673 0 3.269-.336 4.725-.942zm7.085-17.24c.225-.123.438-.264.636-.423a.875.875 0 011.34.346A14.907 14.907 0 0133 18c0 2.097-.434 4.093-1.214 5.907a.875.875 0 01-1.34.346 4.39 4.39 0 00-.636-.423.878.878 0 01-.4-1.104c.607-1.457.943-3.053.943-4.726s-.336-3.27-.942-4.725a.878.878 0 01.4-1.105zM8.284 24.174a3.532 3.532 0 100 7.065 3.532 3.532 0 000-7.065zm15.968 3.532a3.532 3.532 0 117.065 0 3.532 3.532 0 01-7.065 0zm3.533-23.032a3.532 3.532 0 100 7.065 3.532 3.532 0 000-7.065z" clip-rule="evenodd"/></svg>