<svg xmlns="http://www.w3.org/2000/svg" width="25" height="24" viewBox="0 0 25 24"><path fill-rule="evenodd" d="M19.523 10.227l-3.773 3.78a3.44 3.44 0 01-2.332.99 3.267 3.267 0 01-2.332-.976c-.343-.344-.343-.825 0-1.169.343-.343.823-.343 1.166 0a1.67 1.67 0 002.332 0l3.773-3.794a1.7 1.7 0 00.48-1.168 1.7 1.7 0 00-.48-1.168l-.576-.578a1.696 1.696 0 00-1.166-.48 1.7 1.7 0 00-1.167.48l-1.646 1.65c-.343.343-.823.343-1.166 0-.343-.344-.343-.825 0-1.169l1.646-1.65A3.267 3.267 0 0116.614 4c.879 0 1.702.344 2.333.976l.576.577a3.28 3.28 0 01.974 2.337 3.28 3.28 0 01-.974 2.337zm-6.722.88a1.67 1.67 0 00-2.333 0l-3.827 3.835a1.679 1.679 0 000 2.336l.576.578a1.67 1.67 0 002.332 0l1.797-1.801c.343-.344.823-.344 1.166 0 .343.344.343.825 0 1.168l-1.797 1.801A3.267 3.267 0 018.383 20a3.267 3.267 0 01-2.332-.976l-.576-.577a3.331 3.331 0 010-4.715l3.827-3.794a3.267 3.267 0 012.332-.976 3.27 3.27 0 012.333.976l.576.577c.343.344.343.825 0 1.169-.343.344-.823.344-1.166 0l-.576-.577z" clip-rule="evenodd"/></svg>