<svg xmlns="http://www.w3.org/2000/svg" width="36" height="36" viewBox="0 0 36 36"><path fill-rule="evenodd" d="M7.674 5.385a.837.837 0 101.673 0 .837.837 0 00-1.673 0zM6 5.385a2.51 2.51 0 115.021 0 2.51 2.51 0 01-5.021 0zm9.205 0a.837.837 0 101.674 0 .837.837 0 00-1.674 0zm-1.674 0a2.51 2.51 0 115.021 0 2.51 2.51 0 01-5.02 0zm10.042.837a.837.837 0 110-1.673.837.837 0 010 1.673zm0-3.347a2.51 2.51 0 100 5.021 2.51 2.51 0 000-5.021zm-.837 10.042a.837.837 0 101.674 0 .837.837 0 00-1.674 0zm-1.673 0a2.51 2.51 0 115.02 0 2.51 2.51 0 01-5.02 0zm-12.553.837a.837.837 0 110-1.674.837.837 0 010 1.674zm0-3.348a2.51 2.51 0 100 5.021 2.51 2.51 0 000-5.02zm12.552 20.92a5.864 5.864 0 005.858-5.857V19.61a.838.838 0 00-1.674 0v1.674a.837.837 0 01-1.673 0v-2.511a.838.838 0 00-1.674 0v2.51a.837.837 0 01-1.673 0v-3.345a.838.838 0 00-1.674 0v3.348a.837.837 0 01-1.674 0v-8.369a.838.838 0 00-1.673 0v12.728l-2.286-2.285a.838.838 0 00-1.183 1.183l4.897 4.757c.227.262.476.504.74.718l.087.08.013.012.03.011.095.07a5.81 5.81 0 003.464 1.135zm3.79-13.902a2.513 2.513 0 013.742 2.187v5.858c0 4.153-3.379 7.531-7.532 7.531a7.47 7.47 0 01-4.389-1.412 1.627 1.627 0 01-.383-.294 7.655 7.655 0 01-.897-.87l-4.831-4.689a2.516 2.516 0 01-.01-3.559 2.514 2.514 0 012.98-.428v-8.831a2.513 2.513 0 012.51-2.51 2.513 2.513 0 012.51 2.51v2.654a2.51 2.51 0 012.952 1.017 2.51 2.51 0 013.347.837z" clip-rule="evenodd"/></svg>