<svg xmlns="http://www.w3.org/2000/svg" width="36" height="36" viewBox="0 0 36 36"><path fill-rule="evenodd" d="M13.35 20.026c-.585-.14-1.17-.33-1.736-.55l-.01.01-4.535-1.781c-.02-.01-.069-.02-.069-.02V3h12.304c4.594 0 8.315 3.751 8.315 8.383a8.394 8.394 0 01-3.721 6.992l-2.838 1.12a12.898 12.898 0 01-4.723.89c-.397 0-.804-.02-1.2-.06-.398-.04-.795-.1-1.191-.17h-.002c-.198-.04-.396-.08-.594-.13zm7.472-7.973c0-2.37-1.905-4.291-4.257-4.291-2.352 0-4.257 1.92-4.257 4.291 0 2.37 1.905 4.291 4.257 4.291 2.352 0 4.257-1.92 4.257-4.291zM10.245 33H7V19.596l4.812 3.36L10.245 33zm10.597-10.043L22.419 33H30l-5.348-12.704-3.81 2.66zM13.072 33l1.28-2.22a2.28 2.28 0 013.96 0l1.28 2.22h-6.52z" clip-rule="evenodd"/></svg>