<svg xmlns="http://www.w3.org/2000/svg" width="13" height="12" viewBox="0 0 13 12"><path fill-rule="evenodd" d="M6.528.938a3.187 3.187 0 00-3.15 2.691.312.312 0 10.618.097 2.563 2.563 0 015.063 0 .312.312 0 10.617-.097A3.188 3.188 0 006.528.937zm-.823 2.244a.312.312 0 01-.41-.472 1.875 1.875 0 012.456-.004.313.313 0 01-.408.473 1.25 1.25 0 00-1.638.003zm3.92 2.435h-6.25a.125.125 0 00-.125.125v4.25c0 .07.056.125.125.125h6.25a.125.125 0 00.125-.125v-4.25a.125.125 0 00-.125-.125zm-6.25-.625a.75.75 0 00-.75.75v4.25c0 .415.336.75.75.75h6.25a.75.75 0 00.75-.75v-4.25a.75.75 0 00-.75-.75h-6.25zm3.43 3.262a.813.813 0 10-.626-.007v.706a.312.312 0 10.625 0v-.7zM6.001 3.95l.321.322a.218.218 0 00.309 0l.321-.322a.218.218 0 00-.05-.348.936.936 0 00-.855 0 .221.221 0 00-.046.348z" clip-rule="evenodd"/></svg>