<svg xmlns="http://www.w3.org/2000/svg" width="36" height="36" viewBox="0 0 36 36"><path fill-rule="evenodd" d="M12.297 18.202l-.59.592A8.334 8.334 0 1023.46 7.04l-.592.59a7.5 7.5 0 11-10.571 10.571zm6.12-9.869A.417.417 0 0018 7.917a5.423 5.423 0 00-5.417 5.416.417.417 0 10.834 0A4.588 4.588 0 0118 8.75c.23 0 .417-.187.417-.417zm6.225-2.475A9.974 9.974 0 0128 13.333c0 5.242-4.034 9.54-9.167 9.963v.87h3.334a.833.833 0 010 1.667h-8.334a.833.833 0 010-1.666h3.334v-.872a9.973 9.973 0 01-6.642-3.32 9.877 9.877 0 01-.735-.931l1.806-1.806A7.5 7.5 0 0121.905 6.929l.603-.604 1.202-1.202c.325.227.636.47.932.735zM4.667 12.083c0-.69.56-1.25 1.25-1.25h3.75V12.5H6.333v14.167H4.667V12.083zM21.315 27.52l11 .014a.625.625 0 01.685.557l-.03 1.284c0 .345-.28.625-.625.625H3.625A.625.625 0 013 29.375v-1.25c0-.345.28-.625.624-.625l11.03.013v.195c0 .346.28.625.625.625h5.411c.345 0 .625-.28.625-.625v-.188zm8.768-16.687h-1.25V12.5h.834v14.167h1.666V12.083c0-.69-.56-1.25-1.25-1.25z" clip-rule="evenodd"/></svg>