<svg xmlns="http://www.w3.org/2000/svg" width="13" height="12" viewBox="0 0 13 12"><path d="M10.132 8.25c.245 0 .452.09.62.27.168.18.25.39.248.63L7.566 10.5l-2.993-.9V5.55h.833l3.11 1.21a.504.504 0 01.333.505.527.527 0 01-.145.369.509.509 0 01-.368.166H7.138l-.748-.301-.141.423.89.328h2.993zm-1.71-6.197A1.428 1.428 0 019.575 1.5c.388 0 .715.15.983.45.269.3.411.645.428 1.035 0 .309-.142.678-.428 1.107a7.74 7.74 0 01-.842 1.076c-.277.287-.708.715-1.296 1.282a53.679 53.679 0 01-1.308-1.282 7.336 7.336 0 01-.843-1.076c-.282-.429-.42-.798-.414-1.107 0-.408.138-.753.414-1.035A1.45 1.45 0 017.27 1.5c.456 0 .84.185 1.15.554zM2 5.55h1.717v4.95H2V5.55z"/></svg>