<svg xmlns="http://www.w3.org/2000/svg" width="18" height="18" viewBox="0 0 18 18"><path fill-rule="evenodd" d="M8.783 9.338a.388.388 0 00.44-.636.388.388 0 00-.605.32c0 .13.065.246.165.316zm-.303-1.49L8.478 1.5l1.028.611 4.576 2.628c.21-.145.464-.23.738-.23a1.286 1.286 0 01.562 2.446v5.85l-5.835 3.351-.535.308v.036l-.53-.304-5.84-3.355-.014-5.74a1.287 1.287 0 01.552-2.45 1.29 1.29 0 011.293 1.287c0 .528-.32.981-.777 1.18l.015 5.109 4.771 2.74-.001-4.769a1.287 1.287 0 01-.767-1.176c0-.523.315-.974.766-1.175zm1.067 2.344v4.736l4.766-2.738V6.98a1.287 1.287 0 01-.778-1.326l-3.988-2.29v4.489a1.287 1.287 0 010 2.34zm4.885-4.396a.387.387 0 10.416-.385l-.028-.001a.387.387 0 00-.388.386zM2.79 5.938c0 .213.174.386.388.386a.387.387 0 00.388-.386.387.387 0 00-.388-.387.387.387 0 00-.388.387z" clip-rule="evenodd"/></svg>