<svg xmlns="http://www.w3.org/2000/svg" width="13" height="12" viewBox="0 0 13 12"><path fill-rule="evenodd" d="M9.875 6c.894 0 1.625.756 1.625 1.688v.375c0 .93-.725 1.687-1.625 1.687H6.937c-.893 0-1.687-.756-1.687-1.688v-.187c0-.206.169-.375.375-.375S6 7.669 6 7.875v.188c0 .518.456.937.938.937h2.937c.481 0 .875-.419.875-.938v-.374c0-.52-.394-.938-.875-.938H8.131a.376.376 0 01-.375-.375c0-.206.169-.375.375-.375h1.744zM4.619 9c.206 0 .375.169.375.375a.376.376 0 01-.375.375H3.125c-.894 0-1.625-.756-1.625-1.688v-.374C1.5 6.755 2.225 6 3.125 6h2.938c.893 0 1.687.756 1.687 1.688v.187a.376.376 0 01-.375.375A.376.376 0 017 7.875v-.188c0-.518-.456-.937-.938-.937H3.126c-.481 0-.875.419-.875.938v.375c0 .518.394.937.875.937H4.62zm4.006-6.25a.878.878 0 00-.875.875c0 .481.394.875.875.875a.878.878 0 00.875-.875.878.878 0 00-.875-.875zm0 2.5A1.63 1.63 0 017 3.625 1.63 1.63 0 018.625 2a1.63 1.63 0 011.625 1.625A1.63 1.63 0 018.625 5.25zm-4.25-2.5a.878.878 0 00-.875.875c0 .481.394.875.875.875a.878.878 0 00.875-.875.878.878 0 00-.875-.875zm0 2.5A1.63 1.63 0 012.75 3.625 1.63 1.63 0 014.375 2 1.63 1.63 0 016 3.625 1.63 1.63 0 014.375 5.25z" clip-rule="evenodd"/></svg>