<svg xmlns="http://www.w3.org/2000/svg" width="13" height="12" viewBox="0 0 13 12"><path d="M2.125 8.327c0-.237.196-.429.438-.429h3.5c.241 0 .437.192.437.429v.244A.433.433 0 016.063 9h-3.5a.433.433 0 01-.438-.429v-.244zm5 0c0-.237.196-.429.438-.429h2.25c.241 0 .437.192.437.429v.244A.433.433 0 019.813 9h-2.25a.433.433 0 01-.438-.429v-.244zm-3.75-2.449c0-.237.196-.429.438-.429h7.25c.241 0 .437.192.437.429v.244a.433.433 0 01-.438.429h-7.25a.433.433 0 01-.437-.429v-.244zM1.5 3.429c0-.237.196-.429.438-.429h1.625c.241 0 .437.192.437.429v.244a.433.433 0 01-.438.429H1.938a.433.433 0 01-.438-.429V3.43zm3.125 0c0-.237.196-.429.438-.429h3.5c.241 0 .437.192.437.429v.244a.433.433 0 01-.437.429h-3.5a.433.433 0 01-.438-.429V3.43z"/></svg>