<svg xmlns="http://www.w3.org/2000/svg" width="25" height="24" viewBox="0 0 25 24"><path fill-rule="evenodd" d="M8.013 17.375L10.538 9.9a2.556 2.556 0 012.45-1.75l-.913 2.725a.097.097 0 00.025.1c.025.025.05.037.088.037h1.337c.063 0 .125-.05.15-.112l3.175-9.4-2.462 3.763A7.042 7.042 0 0012.45 5c-3.862.025-7 3.213-6.95 7.088a6.984 6.984 0 002.513 5.287zM12.388 19c3.862.05 7.062-3.063 7.112-6.925a6.998 6.998 0 00-2.512-5.45L14.463 14.1A2.61 2.61 0 0112 15.863l1.063-3.138c.012-.037.012-.063-.013-.1-.025-.025-.05-.05-.087-.05h-1.338c-.075 0-.125.05-.15.113L8.15 22.5l2.45-3.762c.563.162 1.163.25 1.788.262z" clip-rule="evenodd"/></svg>