<svg xmlns="http://www.w3.org/2000/svg" width="18" height="18" viewBox="0 0 18 18"><path fill-rule="evenodd" d="M16.5 9.847c0-.457-.089-.893-.267-1.284L15.966 2.5l-.389 1.117-.005.01c-.027.066-.16.387-.54.727l.067-1.642-.422.547-.007.008c-.079.095-.812.98-1.606 1.098-.122.022-.289 0-.478-.034l-.046-.006c-.44-.055-1.026-.13-1.789.14-1.054.37-1.648 1.674-1.736 1.866a.944.944 0 01-.01.021.944.944 0 01-.01-.02c-.087-.193-.681-1.496-1.735-1.867-.754-.27-1.352-.195-1.793-.139l-.042.005-.118.015c-.143.02-.272.036-.36.019-.784-.117-1.528-1.005-1.606-1.098l-.006-.008-.434-.547.067 1.642c-.412-.358-.545-.715-.545-.737L2.033 2.5l-.266 6.063C1.6 8.954 1.5 9.401 1.5 9.86c0 .357.056.703.167 1.027l-.134 3.294.1.067c.023.022.623.435 1.68.458.311 0 .623-.073.945-.149l.033-.008c.511-.134 1.1-.279 1.89-.2 1.147.102 2.539 1.388 2.787 1.618l.006.006c.018.016.028.026.032.028.033-.034 1.579-1.552 2.824-1.653.782-.065 1.351.072 1.854.193l.036.008c.345.09.667.168.979.157 1.056-.023 1.656-.436 1.679-.458l.1-.067-.145-3.305c.1-.324.167-.67.167-1.028zm-.456 0a2.834 2.834 0 01-2.824 2.837 2.834 2.834 0 01-2.825-2.837 2.834 2.834 0 012.825-2.836 2.834 2.834 0 012.824 2.836zM3.48 5.213c-.512-.234-.856-.525-1.079-.793l-.144 3.35A3.277 3.277 0 014.79 6.564a3.284 3.284 0 013.236 2.792c.178-.39.522-.525 1-.525.456 0 .79.112.968.458a3.278 3.278 0 013.225-2.736 3.26 3.26 0 012.535 1.206L15.61 4.42a3.224 3.224 0 01-1.078.793c-.726.331-1.18.259-1.662.182l-.017-.003c-.4-.067-.812-.134-1.48.022-.633.157-1.978 1.541-2.368 1.977-.389-.436-1.734-1.82-2.368-1.977-.667-.156-1.079-.09-1.479-.022-.478.09-.934.167-1.679-.179zM1.956 9.847A2.834 2.834 0 014.78 7.011a2.834 2.834 0 012.825 2.836c0 1.564-1.257 2.848-2.814 2.848a2.839 2.839 0 01-2.835-2.848zm12.732 4.411c.678-.011 1.134-.212 1.323-.313l-.1-2.233a3.274 3.274 0 01-2.702 1.43 3.275 3.275 0 01-3.158-2.412c-.267.893-1.034 1.764-1.034 1.764s-.812-.927-1.056-1.843a3.283 3.283 0 01-3.18 2.49 3.274 3.274 0 01-2.702-1.429l-.1 2.233c.189.1.644.302 1.323.313.255 0 .545-.067.867-.145l.079-.019c.508-.12 1.132-.268 1.967-.193 1.234.111 2.446 1.24 2.78 1.585.333-.346 1.534-1.474 2.78-1.585.878-.078 1.523.078 2.046.212l.029.007c.32.075.59.138.838.138zm-8.78-4.967a.539.539 0 01-.493.333.538.538 0 01-.539-.54c0-.228.138-.412.333-.492A1.212 1.212 0 004.75 8.5c-.688 0-1.25.562-1.25 1.25S4.062 11 4.75 11 6 10.438 6 9.75c0-.16-.034-.321-.092-.459zm8.007.333a.54.54 0 00.493-.333c.058.138.08.298.092.459 0 .688-.562 1.25-1.25 1.25S12 10.438 12 9.75s.562-1.25 1.25-1.25c.16 0 .321.034.459.092a.527.527 0 00-.333.493c0 .298.241.539.54.539z" clip-rule="evenodd"/></svg>