<svg xmlns="http://www.w3.org/2000/svg" width="25" height="24" viewBox="0 0 25 24"><path fill-rule="evenodd" d="M10.68 8.598L7.206 7.487a.278.278 0 01.17-.53l3.472 1.112a.278.278 0 01-.17.529zm0 1.944l-3.473-1.11a.278.278 0 01.17-.53l3.472 1.111a.278.278 0 01-.17.53zm0 1.945l-3.473-1.111a.278.278 0 01.17-.53l3.472 1.111a.278.278 0 01-.17.53zm0 1.944l-3.473-1.11a.278.278 0 01.17-.53l3.472 1.11a.278.278 0 01-.17.53zm1.148-7.884L6.498 5.01a.557.557 0 00-.665.551v8.965a.56.56 0 00.447.55l5.942 1.59V7.078c0-.244-.16-.46-.394-.531zm-7.384.12a.833.833 0 00-.833.833v9.722h1.111V7.778h.556V6.667h-.834zm16.112 0h-.834v1.11h.556v9.445h1.11V7.5a.833.833 0 00-.832-.833zm-2.763.82L14.32 8.598a.278.278 0 01-.17-.53l3.473-1.11a.278.278 0 01.169.529zm0 1.944l-3.472 1.111a.278.278 0 01-.17-.53l3.473-1.11a.278.278 0 01.169.53zm0 1.945l-3.472 1.11a.278.278 0 01-.17-.53l3.473-1.11a.278.278 0 01.169.53zm0 1.944l-3.472 1.111a.278.278 0 01-.17-.53l3.473-1.11a.278.278 0 01.169.53zm.71-8.309l-5.331 1.536a.556.556 0 00-.394.531v9.589l5.942-1.59a.56.56 0 00.447-.55V5.562a.557.557 0 00-.665-.55zm-3.793 12.78l7.333.01a.417.417 0 01.457.371l-.02.856c0 .23-.186.416-.416.416H2.916a.416.416 0 01-.416-.416v-.834c0-.23.186-.416.416-.416l7.354.008v.13c0 .23.186.417.416.417h3.608c.23 0 .416-.186.416-.416v-.126z" clip-rule="evenodd"/></svg>