<svg xmlns="http://www.w3.org/2000/svg" width="13" height="12" viewBox="0 0 13 12"><path fill-rule="evenodd" d="M10.951 4.53c0 .11-.088.198-.197.198H9.679v.954h1.075c.109 0 .197.089.197.198v.24c0 .11-.088.198-.197.198H9.679v.954h1.075c.109 0 .197.089.197.198v.24a.198.198 0 01-.197.198H9.679v.085c0 .655-.531 1.187-1.187 1.187h-.084v1.074c0 .11-.089.198-.198.198h-.24a.198.198 0 01-.198-.198V9.18h-.954v1.074c0 .11-.089.198-.198.198h-.24a.198.198 0 01-.198-.198V9.18h-.954v1.074c0 .11-.089.198-.198.198h-.24a.198.198 0 01-.198-.198V9.18h-.085A1.187 1.187 0 013.32 7.993v-.085H2.246a.198.198 0 01-.198-.198v-.24c0-.11.089-.198.198-.198H3.32v-.954H2.246a.198.198 0 01-.198-.198v-.24c0-.11.089-.198.198-.198H3.32v-.954H2.246a.198.198 0 01-.198-.198v-.24c0-.11.089-.198.198-.198H3.32v-.085c0-.655.531-1.187 1.187-1.187h.085V1.746c0-.109.088-.198.198-.198h.24c.11 0 .198.089.198.198V2.82h.954V1.746c0-.109.088-.198.198-.198h.24c.11 0 .198.089.198.198V2.82h.954V1.746c0-.109.088-.198.198-.198h.24a.198.198 0 01.198.198V2.82h.084c.656 0 1.187.532 1.187 1.187v.085h1.075c.109 0 .197.089.197.198v.24zM8.492 8.547a.555.555 0 00.554-.554V4.007a.555.555 0 00-.554-.554H4.507a.555.555 0 00-.554.554v3.986c0 .306.248.553.554.554h3.985zM4.982 4.06h3.036c.233 0 .422.189.422.422v3.036a.422.422 0 01-.422.422H4.981a.423.423 0 01-.422-.422V4.482c0-.233.19-.422.422-.422zm3.061 1.788V4.837h-.084l-.846-.003h.008-.079.071c-.033.001-.117.01-.13.025a.086.086 0 00-.026.06v.232c0 .047.038.085.085.085h.314l-.76.86a.042.042 0 01-.061.001l-.363-.367a.084.084 0 00-.12 0l-1.08 1.097a.087.087 0 000 .12l.181.184a.084.084 0 00.12 0l.805-.816a.05.05 0 01.072 0l.37.375a.084.084 0 00.123-.004l1.004-1.15v.312c0 .047.038.085.084.086h.229a.085.085 0 00.084-.086z" clip-rule="evenodd"/></svg>