<svg xmlns="http://www.w3.org/2000/svg" width="36" height="36" viewBox="0 0 36 36"><path fill-rule="evenodd" d="M18 3C9.716 3 3 9.716 3 18c0 8.284 6.716 15 15 15 8.284 0 15-6.716 15-15 0-8.284-6.716-15-15-15zm-3.53 23.823a.885.885 0 00.883-.882V10.06a.885.885 0 00-.882-.883.885.885 0 00-.883.883v15.88c0 .486.397.883.883.883zm7.06-1.764a.885.885 0 00.882-.883V11.825a.885.885 0 00-.883-.883.885.885 0 00-.882.882v12.354c0 .485.397.882.882.882zm4.411-3.53a.885.885 0 01-.882.883.885.885 0 01-.883-.883v-7.058c0-.486.398-.883.883-.883s.882.397.882.883v7.058zm2.647-1.764a.885.885 0 01-.882-.883v-1.764c0-.486.397-.883.882-.883s.883.397.883.883v1.764a.885.885 0 01-.883.883zm-9.706 2.647a.885.885 0 01-.882.882.885.885 0 01-.882-.882v-8.824c0-.485.397-.882.882-.882s.882.397.882.882v8.824zm-7.059-.883a.885.885 0 01-.882.883.885.885 0 01-.882-.883v-7.058c0-.486.397-.883.882-.883.486 0 .882.397.882.883v7.058zm-4.411-1.764a.885.885 0 00.882-.883v-1.764a.885.885 0 00-.882-.883.885.885 0 00-.883.883v1.764c0 .486.397.883.883.883z" clip-rule="evenodd"/></svg>