<svg xmlns="http://www.w3.org/2000/svg" width="13" height="12" viewBox="0 0 13 12"><path d="M3.351 6.859l.033-.001.686 1.798h-.151c-.47 0-.851.394-.851.879v1.172c0 .162.127.293.283.293h4.54a.289.289 0 00.284-.293v-.586c0-.808-.636-1.465-1.419-1.465h-.85v-.293a.288.288 0 00-.285-.293.289.289 0 00-.283.293v.293H4.68L3.912 6.64a.896.896 0 00.19-1.076l2.091-2.16.432.445a1.5 1.5 0 00.18 1.844l.401.415c.111.114.29.114.402 0l2.809-2.9a.3.3 0 000-.415l-.401-.415a1.388 1.388 0 00-1.786-.186l-.823-.85a1.11 1.11 0 00-1.605 0 1.2 1.2 0 00-.01 1.648l-2.11 2.18a.823.823 0 00-.33-.07c-.47 0-.852.395-.852.88 0 .484.382.879.851.879zm4.257 3.262v.293H3.635v-.879c0-.162.127-.293.284-.293h2.837c.47 0 .852.394.852.879zm2.006-7.327l.2.207-2.407 2.486-.2-.207a.899.899 0 010-1.243L8.41 2.794a.833.833 0 011.204 0zm-3.41-1.036a.555.555 0 01.802 0l.802.829-.802.828c-.775-.816-.67-.698-.803-.828a.6.6 0 010-.83zM3.35 5.687c.157 0 .284.131.284.293a.289.289 0 01-.284.293.289.289 0 01-.283-.293c0-.162.127-.293.283-.293zM9.817 4.39l.182.193a.046.046 0 01-.001.063l-1.19 1.18a.042.042 0 01-.06-.002l-.181-.193a.046.046 0 010-.063l1.19-1.179a.042.042 0 01.06.001z"/></svg>