<svg xmlns="http://www.w3.org/2000/svg" width="36" height="36" viewBox="0 0 36 36"><path fill-rule="evenodd" d="M24.829 15.343l4.5 1.632-3.707 10.191c-.35 1.003-2.262 3.964-3.522 4.594l-.35.91a.602.602 0 01-.536.35h-.186c-.28-.094-.443-.444-.35-.724l.28-.816c-.63-1.26-.187-5.06.093-5.877l3.778-10.26zm6.483-10.727c-1.26-.443-2.705.443-3.079 1.632l-2.705 7.393 4.501 1.632 2.705-7.392c.303-1.003-.256-2.822-1.422-3.265zM23.197 14.9c.093.093.28.093.35.093.442 0 .909-.28 1.002-.723l2.892-7.672c.186-.536-.093-1.166-.63-1.446-.536-.186-1.166.094-1.446.63l-2.891 7.672c-.187.63.093 1.26.723 1.446zm-4.595 14.435c-.28-.28-.63-.63-1.259-.91a3.895 3.895 0 00-1.352-.28h-.094c-.186-.63-.63-1.002-1.352-1.072-.91-.187-1.54.28-2.076.536 0-.28.094-.536.187-.723.187-.63.35-1.352.187-1.982a1.078 1.078 0 00-1.073-.91c-1.353-.093-2.425.63-3.428 1.353-1.003.723-1.726 1.073-2.355.91-.817-.28-.91-2.426-.443-4.338.35-1.726 1.002-4.967 2.611-6.413.537-.443 1.353-1.002 1.982-.816.817.28 1.446 1.54 1.54 3.078.093.63.63 1.073 1.259 1.073a1.258 1.258 0 001.072-1.26c-.28-2.425-1.352-4.43-2.984-5.06-1.003-.35-2.519-.443-4.431 1.166-2.075 1.796-2.798 4.967-3.335 7.672-.28 1.353-.91 5.947 1.982 7.043 1.796.63 3.242-.35 4.431-1.166.187-.187.443-.28.63-.443-.187.816-.28 1.726.186 2.518.723 1.166 1.796 1.26 3.148.35.094 0 .094-.093.187-.093.093.28.35.536.723.723.443.28 1.003.28 1.352.28h.443a2.4 2.4 0 01.63.443c.187.186.35.35.63.536a1 1 0 00.723.28c.35 0 .723-.187.91-.443.349-.537.279-1.26-.28-1.633-.094-.14-.28-.233-.35-.42z" clip-rule="evenodd"/></svg>