<svg xmlns="http://www.w3.org/2000/svg" width="13" height="12" viewBox="0 0 13 12"><path fill-rule="evenodd" d="M11.04 3.343C10.166 1.944 8.593 1 6.844 1H6.74l-.138.004a4.908 4.908 0 00-2.819 1.033h.007l.268-.03c2.18-.23 3.221.344 3.864 1.322L8 3.454c.025.042.05.084.074.128l.071.132.068.136.065.14.093.214.059.148.057.15.05.139a.266.266 0 00.231.03l2.168-.979.033-.019c.112-.074.136-.202.072-.33zM3.782 2.037a5.016 5.016 0 00-1.835 2.944 5.006 5.006 0 00.514 3.43 4.986 4.986 0 004.546 2.586L6.966 11h-.124l.124-.002a4.946 4.946 0 004.074-2.306c.07-.14.035-.28-.105-.35l-1.83-.813-.373-.165-.035-.01c-.07-.018-.137-.017-.193.024l-.015.014C7.37 8.952 5.711 9.629 3.9 9.088c1.812.541 3.47-.136 4.59-1.696l.014-.013a.217.217 0 00-.05.055c-.42.454-.98.734-1.644.734-1.224 0-2.203-.98-2.203-2.168 0-1.189.98-2.168 2.203-2.168a2.225 2.225 0 011.678.77.294.294 0 00.049.039l-.05-.139-.057-.15-.06-.147-.092-.216-.065-.139-.068-.136-.07-.132A4.225 4.225 0 008 3.454l-.079-.125c-.642-.978-1.684-1.553-3.863-1.322l-.268.03h-.007zm7.445 3.977a.713.713 0 00-1.345-.329.24.24 0 01-.214.12H7.575c-.077 0-.142-.052-.186-.117l-.013-.02a.713.713 0 10-.072.798l.008-.01a.885.885 0 00.05-.073l.009-.014a.249.249 0 01.214-.133h2.073a.25.25 0 01.223.118.659.659 0 00.095.127.711.711 0 001.251-.467z" clip-rule="evenodd"/></svg>