<svg xmlns="http://www.w3.org/2000/svg" width="25" height="24" viewBox="0 0 25 24"><path d="M12.167 17.333a2.333 2.333 0 100 4.667 2.333 2.333 0 000-4.667zm5.891-10a.517.517 0 00-.514.461l-.003.057v2.165H16.5c-3.208 0-5.866 2.557-5.996 5.796l-.005.152v.701a3.55 3.55 0 011.758-.462c.64 0 1.241.168 1.76.464v-.703a2.483 2.483 0 012.375-2.48l.109-.003h1.039v2.217a.517.517 0 00.834.409l.049-.043 3.925-3.924a.52.52 0 00.043-.683l-.043-.049-3.925-3.923a.517.517 0 00-.366-.152zM6.654 7.44l-.05.042-3.951 3.829a.493.493 0 00-.044.666l.044.048 3.952 3.828a.53.53 0 00.368.148c.269 0 .49-.197.518-.45l.003-.055v-2.163h1.45a7.407 7.407 0 012.223-3.22 6.25 6.25 0 00-1.215-.158l-.21-.003H7.494V7.838a.497.497 0 00-.152-.357.534.534 0 00-.688-.042zm5.915-5.368l-.052.035-.05.042-3.816 3.725a.498.498 0 00-.151.357c0 .26.202.474.46.501l.057.003h2.111v2.043c.737.086 1.172.19 1.828.556.407-.318 1.12-.47 1.583-.49V6.733h2.11a.523.523 0 00.366-.148.496.496 0 00.043-.665l-.043-.048L13.2 2.148a.526.526 0 00-.63-.077z"/></svg>