<svg xmlns="http://www.w3.org/2000/svg" width="13" height="12" viewBox="0 0 13 12"><path fill-rule="evenodd" d="M9.412 4.676V2.824h.794c0 .794-.265 1.588-.794 1.852zM7.487 5.681L6.5 5.06l-.987.621.28-1.14-.89-.756 1.16-.083.437-1.09.436 1.09 1.16.083-.89.756.28 1.14zM3.588 4.676c-.53-.264-.794-1.058-.794-1.852h.794v1.852zm6.618-2.647H9.94c-.012 0-.05 0-.099.002-.146.002-.4.006-.43-.002V1.5H3.588v.53h-.794c-.53 0-.794.472-.794.794 0 1.206.454 2.174 1.324 2.624.226.118.278.266.338.437.04.117.085.244.19.38.455.775 1.04 1.304 2.648 1.304 1.607 0 2.118-.51 2.647-1.304.306-.46.322-.474.883-.963l.054-.048c.385-.336.724-.718.81-1.222.091-.536.094-.647.105-1.175L11 2.824c0-.322-.265-.795-.794-.795zM7.824 9.441H5.177c-.53 0-1.06.53-1.06 1.059h4.765c0-.53-.529-1.059-1.058-1.059zm-.265-.926a.398.398 0 01-.397.397H5.838a.398.398 0 01-.397-.397c0-.219.179-.397.397-.397h1.324c.218 0 .397.178.397.397z" clip-rule="evenodd"/></svg>