<svg xmlns="http://www.w3.org/2000/svg" width="18" height="18" viewBox="0 0 18 18"><path fill-rule="evenodd" d="M7.635 6.448L5.03 5.615a.209.209 0 01.127-.397l2.605.833a.209.209 0 01-.127.397zm0 1.459L5.03 7.073a.209.209 0 01.127-.397l2.605.834a.209.209 0 01-.127.397zm0 1.458L5.03 8.532a.209.209 0 01.127-.397l2.605.833a.209.209 0 01-.127.397zm0 1.458L5.03 9.99a.209.209 0 01.127-.397l2.605.834a.208.208 0 01-.127.396zm.861-5.913L4.498 3.758A.418.418 0 004 4.171v6.724c0 .201.14.374.335.413L8.792 12.5V5.309a.417.417 0 00-.296-.399zM2.958 5a.625.625 0 00-.625.625v7.292h.834V5.833h.416V5h-.625zm12.084 0h-.625v.833h.416v7.084h.834V5.625A.625.625 0 0015.042 5zm-2.072.615l-2.605.833a.209.209 0 01-.127-.397l2.605-.833a.209.209 0 01.127.397zm0 1.458l-2.605.834a.209.209 0 01-.127-.397l2.605-.834a.209.209 0 01.127.397zm0 1.459l-2.605.833a.209.209 0 01-.127-.397l2.605-.833a.209.209 0 01.127.397zm0 1.458l-2.605.833a.21.21 0 01-.262-.135.208.208 0 01.135-.261l2.605-.834a.209.209 0 01.127.397zm.532-6.232L9.504 4.91a.417.417 0 00-.296.399V12.5l4.457-1.192a.42.42 0 00.335-.413V4.171a.418.418 0 00-.498-.413zm-2.845 9.586l5.5.006a.312.312 0 01.343.28l-.015.64c0 .173-.14.313-.312.313H1.813a.312.312 0 01-.313-.312v-.625c0-.173.14-.313.312-.313l5.515.007v.098c0 .172.14.312.313.312h2.705c.173 0 .312-.14.312-.313v-.093z" clip-rule="evenodd"/></svg>