<svg xmlns="http://www.w3.org/2000/svg" width="36" height="36" viewBox="0 0 36 36"><path fill-rule="evenodd" d="M25.5 30.975L33 18 25.5 5.025h-15L3 18l7.5 12.975h15zm-.895-19.415c-.682-1.188-1.288-2.216-1.346-2.284-.098-.116-.966-.124-5.465-.124h-.903c-3.527-.002-3.935-.002-4.08.202-.02.026-.034.056-.05.09-.01.02-.02.043-.033.067a521.94 521.94 0 01-1.5 2.588c-.786 1.352-1.504 2.588-1.595 2.747-.09.16-.528.92-.972 1.692l-.808 1.4.131.193c.129.188.952 1.616 1.743 3.025.82 1.46 1.677 2.978 1.738 3.08.147.247.719 1.254.8 1.41.049.094.231.404.405.69l.317.521h10.058l.152-.16c.084-.087.516-.796.96-1.575a565.74 565.74 0 011.377-2.398c.312-.54.568-1.01.568-1.045 0-.035-.937-.063-2.14-.063h-2.685l-.45.673c-.334.497-.49.674-.601.676-.842.018-5.177-.017-5.242-.043-.046-.018-.35-.55-.676-1.183a32.058 32.058 0 00-.73-1.362c-.075-.117-.137-.268-.138-.336 0-.114.101-.124 1.185-.124h1.186l.465-.256c.256-.141.587-.327.737-.413l1.245-.71c.535-.304.962-.584.95-.622-.012-.037-.771-.469-1.687-.959l-1.665-.89-1.208.018c-1.199.017-1.208.016-1.208-.136a.76.76 0 01.126-.341c.07-.104.411-.738.76-1.41l.633-1.222h5.566l.102.266c.056.146.17.417.251.602l.149.336h2.81c2.388 0 2.408-.003 2.137-.314-.07-.08-.686-1.118-1.369-2.306z" clip-rule="evenodd"/></svg>