<svg xmlns="http://www.w3.org/2000/svg" width="18" height="18" viewBox="0 0 18 18"><path fill-rule="evenodd" d="M12.53 2.33v4.081l-4.588-4.82c1.547-.249 3.154.017 4.587.74zM8.117 4.597H2.936c.9-1.268 2.385-2.203 3.858-2.72l2.647 2.72H8.118zm-5.736.874h4.412L1.64 10.58a7.946 7.946 0 01-.14-1.483c0-1.312.32-2.546.882-3.627zm11.03 3.817l2.685-2.76a7.712 7.712 0 00-2.685-3.739v6.499zm-1.873 6.882l-2.685-2.758h6.32a7.535 7.535 0 01-3.635 2.758zm1.873-5.72l-.258.266-1.765 1.814h4.23a7.843 7.843 0 00.881-3.628c0-.507-.049-1.002-.14-1.481l-2.948 3.03zm-11.47.949l2.646-2.72v6.347c-1.287-.928-2.129-2.069-2.647-3.627zm5.443 1.927l-.26-.267-1.654-1.7v4.293a7.302 7.302 0 004.863.704l-2.95-3.03z" clip-rule="evenodd"/></svg>