<svg xmlns="http://www.w3.org/2000/svg" width="36" height="36" viewBox="0 0 36 36"><path fill-rule="evenodd" d="M22.219 16.313a2.531 2.531 0 110-5.063 2.531 2.531 0 010 5.063zm0-9.282L10.74 18.51a8.02 8.02 0 016.75 6.75l11.48-11.48c2.53-2.53 2.53-6.442 2.53-9.28-2.838 0-6.75 0-9.281 2.531zM9.563 18l5.062-5.063c-3.586 0-6.75.844-9.281 5.063h4.219zM18 26.438l5.063-5.063c0 3.586-.844 6.75-5.063 9.281v-4.218zM5.59 30.409a.842.842 0 001.194 0l6.75-6.75a.843.843 0 10-1.193-1.193l-6.75 6.75a.844.844 0 000 1.193zm-.246-3.971a.844.844 0 01-.597-1.44l5.063-5.063a.843.843 0 111.193 1.193L5.94 26.19a.842.842 0 01-.597.247zm4.466 4.815a.841.841 0 001.193 0l5.062-5.063a.843.843 0 10-1.193-1.193L9.81 30.06a.843.843 0 000 1.193z" clip-rule="evenodd"/></svg>