<svg xmlns="http://www.w3.org/2000/svg" width="36" height="36" viewBox="0 0 36 36"><path d="M24.886 32.54h-3.053c-4.027 0-7.306-3.251-7.306-7.25 0-.266.015-.526.043-.783-1.927-1.308-3.194-3.505-3.194-5.992 0-3.997 3.277-7.252 7.304-7.252h6.206c2.158 0 3.916 1.743 3.916 3.887 0 2.145-1.756 3.887-3.916 3.887h-3.053c-3.03 0-5.566 2.135-6.165 4.967a6.303 6.303 0 003.012.763h6.206c2.158 0 3.916 1.742 3.916 3.887s-1.756 3.887-3.916 3.887zm-9.347-7.476c-.002.075-.005.15-.005.228 0 3.447 2.826 6.251 6.3 6.251h3.052c1.604 0 2.908-1.294 2.908-2.887 0-1.592-1.304-2.887-2.909-2.887H18.68a7.299 7.299 0 01-3.14-.705zm3.14-12.796c-3.472 0-6.295 2.805-6.295 6.252 0 1.985.934 3.755 2.392 4.9a7.309 7.309 0 017.06-5.38h3.052c1.604 0 2.909-1.295 2.909-2.887 0-1.593-1.305-2.887-2.909-2.887h-6.206l-.002.002zM9.932 31.351c-1.506 0-2.733-1.217-2.733-2.712s1.227-2.712 2.733-2.712 2.732 1.217 2.732 2.712-1.226 2.712-2.732 2.712zm0-4.424a1.72 1.72 0 00-1.725 1.712A1.72 1.72 0 009.93 30.35a1.72 1.72 0 001.725-1.712 1.72 1.72 0 00-1.725-1.712zm15-18.043c-1.506 0-2.733-1.218-2.733-2.713 0-1.494 1.227-2.712 2.733-2.712s2.732 1.218 2.732 2.712c0 1.495-1.226 2.713-2.732 2.713zm0-4.425a1.72 1.72 0 00-1.725 1.712 1.72 1.72 0 001.725 1.713 1.72 1.72 0 001.725-1.713 1.72 1.72 0 00-1.725-1.712z"/><path fill-rule="evenodd" d="M18.87 12.727h-.19c-3.222 0-5.837 2.602-5.837 5.793 0 1.596.652 3.043 1.71 4.092a7.774 7.774 0 017.283-5.031h3.052c1.354 0 2.45-1.093 2.45-2.428 0-1.336-1.096-2.428-2.45-2.428h-6.016l-.003.002zm-3.949 10.22a7.314 7.314 0 016.915-4.907h3.052c1.604 0 2.909-1.295 2.909-2.887 0-1.593-1.305-2.887-2.909-2.887h-6.206l-.002.002c-3.473 0-6.296 2.805-6.296 6.252a6.205 6.205 0 002.392 4.9c.043-.16.092-.318.146-.474zM24.886 33h-3.053c-4.277 0-7.765-3.454-7.765-7.71 0-.19.007-.376.02-.56a7.689 7.689 0 01-3.17-6.215c0-4.254 3.484-7.71 7.762-7.71h6.206c2.408 0 4.375 1.944 4.375 4.345 0 2.402-1.964 4.347-4.375 4.347h-3.053a5.845 5.845 0 00-5.633 4.262 5.847 5.847 0 002.48.549h6.206c2.408 0 4.375 1.944 4.375 4.346 0 2.401-1.964 4.346-4.375 4.346zm-9.218-8.996a6.3 6.3 0 016.165-4.967h3.053c2.16 0 3.916-1.742 3.916-3.887 0-2.144-1.758-3.887-3.916-3.887H18.68c-4.027 0-7.304 3.255-7.304 7.252 0 2.487 1.267 4.684 3.194 5.992a7.298 7.298 0 00-.043.782c0 4 3.279 7.252 7.306 7.252h3.053c2.16 0 3.916-1.742 3.916-3.887s-1.758-3.887-3.916-3.887H18.68a6.303 6.303 0 01-3.012-.763zm-.127 1.566c.147 3.318 2.913 5.973 6.292 5.973h3.053c1.604 0 2.908-1.294 2.908-2.887 0-1.592-1.304-2.887-2.909-2.887H18.68a7.31 7.31 0 01-3.14-.705 6.757 6.757 0 000 .506zm.471.19c.241 2.973 2.758 5.324 5.821 5.324h3.053c1.353 0 2.45-1.092 2.45-2.428 0-1.335-1.097-2.428-2.45-2.428H18.68a7.775 7.775 0 01-2.668-.468zm-6.081 6.05c-1.757 0-3.192-1.42-3.192-3.171 0-1.752 1.435-3.172 3.192-3.172 1.756 0 3.192 1.42 3.192 3.172 0 1.751-1.436 3.171-3.192 3.171zm0-4.424a1.26 1.26 0 00-1.266 1.253 1.26 1.26 0 001.266 1.253 1.26 1.26 0 001.266-1.253 1.26 1.26 0 00-1.266-1.253zm15-18.043c-1.757 0-3.192-1.42-3.192-3.172C21.74 4.42 23.174 3 24.931 3c1.756 0 3.191 1.42 3.191 3.171 0 1.752-1.435 3.172-3.191 3.172zm0-4.425a1.26 1.26 0 00-1.266 1.253 1.26 1.26 0 001.266 1.253 1.26 1.26 0 001.266-1.253 1.26 1.26 0 00-1.266-1.253zM7.198 28.638c0 1.496 1.227 2.713 2.733 2.713s2.732-1.217 2.732-2.712-1.226-2.712-2.732-2.712c-1.506 0-2.733 1.217-2.733 2.712zm1.008 0a1.72 1.72 0 011.725-1.712 1.72 1.72 0 011.725 1.713A1.72 1.72 0 019.93 30.35a1.72 1.72 0 01-1.725-1.712zM22.198 6.172c0 1.495 1.227 2.713 2.733 2.713s2.732-1.218 2.732-2.713c0-1.494-1.226-2.712-2.732-2.712-1.506 0-2.733 1.218-2.733 2.712zm1.008 0A1.72 1.72 0 0124.93 4.46a1.72 1.72 0 011.725 1.712 1.72 1.72 0 01-1.725 1.713 1.72 1.72 0 01-1.725-1.713z" clip-rule="evenodd"/></svg>