<svg xmlns="http://www.w3.org/2000/svg" width="36" height="36" viewBox="0 0 36 36"><path fill-rule="evenodd" d="M25.782 29.44v-6.898l5.598-2.922v6.899l-5.598 2.921zm0-15.564l5.598-2.848V18l-5.598 2.848v-6.972zM19.45 9.162l5.597-2.848 6.163 2.848-5.672 2.995-6.088-2.995zm-7.12-3.486L18.002 3l5.67 2.602-5.67 2.824-5.672-2.75zm-1.94 6.481L4.792 9.236l5.99-2.848 5.671 2.75-6.063 3.02zm-.171 8.69L4.621 18v-6.972l5.597 2.848v6.972zm0 8.593l-5.597-2.848v-6.898l5.597 2.848v6.898zm14.239-9.034l-5.597-2.848v-6.972l5.597 2.848v6.972zM17.19 33l-5.597-2.848v-6.874l5.597 2.848V33zM18 18.614l6.088 3.069L18 24.922l-6.088-3.24L18 18.613zm-.908-.81l-5.597 2.847V13.68l5.597-2.848v6.973zm7.316 12.348L18.81 33v-6.898l5.598-2.848v6.898z" clip-rule="evenodd"/></svg>