<svg xmlns="http://www.w3.org/2000/svg" width="18" height="18" viewBox="0 0 18 18"><path fill-rule="evenodd" d="M11.952 2.106a7.47 7.47 0 00-3.444-.59c-3.736.24-6.752 3.256-6.992 6.992a7.47 7.47 0 00.59 3.444.438.438 0 00.671.174c.099-.079.204-.149.316-.21a.44.44 0 00.202-.553 6.152 6.152 0 01-.453-2.842c.23-3.018 2.661-5.449 5.679-5.68a6.15 6.15 0 012.842.454.441.441 0 00.553-.202c.061-.112.131-.217.21-.316a.438.438 0 00-.174-.67zm-5.6 4.247c0-.487 1.186-.882 2.648-.882 1.462 0 2.647.395 2.647.882v.882c0 .488-1.185.883-2.647.883-1.462 0-2.647-.395-2.647-.883v-.882zm0 1.765C6.353 8.605 7.539 9 9 9c1.462 0 2.647-.395 2.647-.882V9.44c0 .487-1.185.882-2.647.882-1.462 0-2.647-.395-2.647-.882V8.118zM9 11.206c-1.462 0-2.647-.395-2.647-.883v1.324c0 .487 1.185.882 2.647.882 1.462 0 2.647-.395 2.647-.882v-1.324c0 .488-1.185.883-2.647.883zm2.363 3.5a.44.44 0 01.552.2c.061.111.132.217.211.317a.438.438 0 01-.172.67A7.453 7.453 0 019 16.5a7.452 7.452 0 01-2.954-.607.438.438 0 01-.172-.67c.079-.1.15-.206.21-.318a.439.439 0 01.553-.2A6.135 6.135 0 009 15.177c.837 0 1.634-.169 2.363-.472zm3.542-8.621c.112-.061.219-.132.318-.211a.438.438 0 01.67.172c.39.907.607 1.906.607 2.954a7.451 7.451 0 01-.607 2.954.438.438 0 01-.67.172 2.19 2.19 0 00-.318-.211.439.439 0 01-.2-.552A6.135 6.135 0 0015.177 9c0-.837-.169-1.635-.472-2.363a.439.439 0 01.2-.552zM4.142 12.087a1.766 1.766 0 100 3.532 1.766 1.766 0 000-3.532zm7.984 1.766a1.766 1.766 0 113.533 0 1.766 1.766 0 01-3.533 0zm1.766-11.516a1.766 1.766 0 100 3.532 1.766 1.766 0 000-3.532z" clip-rule="evenodd"/></svg>