<svg xmlns="http://www.w3.org/2000/svg" width="13" height="12" viewBox="0 0 13 12"><path fill-rule="evenodd" d="M6.5 3.43a3 3 0 00-2.115.881c-.08.08-.148.172-.217.252l-.796-.458A3.868 3.868 0 016.045 2.56v-.892h.899v.893a3.898 3.898 0 012.308 1.11c.126.138.25.286.364.435l-.784.458a2.283 2.283 0 00-.217-.252A3.022 3.022 0 006.5 3.43zM3.372 8.776l-.762.447-.443-.779.762-.446a3.968 3.968 0 010-3.114l.784.458c-.125.343-.204.71-.204 1.099 0 .836.341 1.58.876 2.13a3.015 3.015 0 001.66.846v.916a3.882 3.882 0 01-2.297-1.122 4.459 4.459 0 01-.376-.435zm6.7-.778l.761.446-.455.779-.762-.447a6.67 6.67 0 01-.364.435 3.913 3.913 0 01-2.308 1.122v-.916a3.01 3.01 0 001.671-.847 3.04 3.04 0 00.876-2.13c0-.388-.08-.755-.204-1.098l.784-.458a3.968 3.968 0 010 3.114zm-4.71-2.69a1.59 1.59 0 011.138-.47c.41 0 .819.149 1.126.47.318.308.466.72.466 1.133 0 .412-.148.824-.466 1.145a1.589 1.589 0 01-1.126.469c-.41 0-.819-.16-1.137-.47a1.656 1.656 0 01-.467-1.144c0-.412.16-.825.467-1.134z" clip-rule="evenodd"/></svg>