<svg xmlns="http://www.w3.org/2000/svg" width="36" height="36" viewBox="0 0 36 36"><path fill-rule="evenodd" d="M9.275 7.092l3.534 3.567v-.01l5.47 5.569.69-.708a2.87 2.87 0 00.433-3.553l-7.318-7.514a1.883 1.883 0 00-2.86-.074L6.817 6.787a1.935 1.935 0 012.458.305zm5.749 13.617a1.937 1.937 0 00-.177.178 1.957 1.957 0 00-.464 1.276c-.02 1.057.837 1.93 1.916 1.95.39 0 .769-.121 1.084-.345a1.94 1.94 0 00.49-.499l4.814-4.906a1.972 1.972 0 00.073-2.912l.017-.017-2.39-2.435a2.028 2.028 0 01-.302 2.51l-5.061 5.2zM29.08 6.68l-2.818 2.529a11.525 11.525 0 012.978 7.852 11.64 11.64 0 01-.47 3.188l.037.038-.037-.038c-1.331 4.804-5.774 8.148-10.86 8.173-6.334-.175-11.326-5.34-11.156-11.54a11.508 11.508 0 013.224-7.928l-.742-.749a2.72 2.72 0 00-2.988-.724A15.375 15.375 0 003 16.852c-.066 8.435 6.598 15.327 14.88 15.397 8.284.07 15.051-6.724 15.119-15.159a15.382 15.382 0 00-3.918-10.411z" clip-rule="evenodd"/></svg>