<svg xmlns="http://www.w3.org/2000/svg" width="18" height="18" viewBox="0 0 18 18"><path fill-rule="evenodd" d="M12.75 15.487L16.5 9l-3.75-6.487h-7.5L1.5 9l3.75 6.487h7.5zm-.447-9.707a33.708 33.708 0 00-.674-1.142c-.049-.058-.483-.062-2.732-.062h-.451c-1.764 0-1.968 0-2.04.1a.304.304 0 00-.025.046c-.005.01-.01.022-.017.033-.02.036-.357.619-.75 1.295A529.923 529.923 0 004.33 8.269l-.404.7.066.097c.064.094.476.808.871 1.512a297.738 297.738 0 001.27 2.245c.024.047.115.202.202.345l.159.26h5.029l.075-.079c.042-.044.258-.398.48-.788l.689-1.199c.156-.27.284-.505.284-.522 0-.018-.468-.032-1.07-.032H10.64l-.226.337c-.166.248-.245.337-.3.338-.421.009-2.589-.01-2.62-.022-.024-.01-.176-.275-.34-.591a16.113 16.113 0 00-.364-.681.425.425 0 01-.069-.169c0-.056.05-.062.593-.062h.592l.233-.128c.128-.07.294-.163.369-.206l.622-.355c.267-.152.481-.292.475-.31-.006-.02-.385-.235-.843-.48l-.833-.446-.604.01c-.6.008-.604.008-.604-.069a.38.38 0 01.063-.17c.035-.052.206-.37.38-.705l.316-.61h2.784l.05.132c.029.073.085.208.126.3l.075.17h1.405c1.193 0 1.204-.002 1.068-.158-.035-.04-.343-.56-.684-1.153z" clip-rule="evenodd"/></svg>