<svg xmlns="http://www.w3.org/2000/svg" width="36" height="36" viewBox="0 0 36 36"><path fill-rule="evenodd" d="M22.827 18.609c.863-.84 2.265-1.825 4.093-1.825 1.115 0 2.128.373 2.967.85-.367-1.951-1.217-4.567-3.178-6.58-2.063-2.116-4.993-3.19-8.708-3.19-3.722 0-6.657 1.078-8.72 3.204-1.975 2.033-2.819 4.658-3.178 6.605.855-.496 1.88-.89 2.98-.89 1.75 0 3.18 1.01 4.066 1.849.952-.843 2.567-1.848 4.852-1.848 2.265 0 3.871.987 4.826 1.825zM19.217 5.47c3.84.226 6.95 1.533 9.25 3.902 4.275 4.403 4.137 10.824 4.129 11.095a1.216 1.216 0 01-2.162.73c-.013-.018-1.646-1.982-3.514-1.982-1.778 0-3.018 1.855-3.03 1.874a1.217 1.217 0 01-1.013.559h-.01c-.407 0-.787-.204-1.012-.542-.049-.07-1.335-1.89-3.854-1.89-2.518 0-3.804 1.82-3.858 1.898-.225.327-.6.527-.996.53h-.008c-.394 0-.767-.188-.995-.51-.382-.53-1.682-1.919-3.061-1.919-1.453 0-3.087 1.494-3.544 2.017a1.217 1.217 0 01-2.132-.765c-.008-.27-.146-6.692 4.13-11.095 2.3-2.369 5.409-3.676 9.248-3.902V4.216a1.216 1.216 0 012.433 0v1.255zm-6.891 24.083A3.45 3.45 0 0015.772 33a3.45 3.45 0 003.446-3.446v-7.5a1.216 1.216 0 00-2.433 0v7.5a1.015 1.015 0 01-2.027 0v-.405a1.216 1.216 0 00-2.432 0v.405z" clip-rule="evenodd"/></svg>