<svg xmlns="http://www.w3.org/2000/svg" width="36" height="36" viewBox="0 0 36 36"><path fill-rule="evenodd" d="M31.62 10.028C28.998 5.832 24.278 3 19.033 3h-.315l-.416.011a14.725 14.725 0 00-8.456 3.1l.022.001.803-.09c6.538-.693 9.663 1.032 11.591 3.966l.235.373c.076.126.15.254.223.385l.213.396.203.408.195.418.278.645.177.443.172.45.15.416a.8.8 0 00.694.092l6.504-2.937.098-.057c.337-.223.409-.607.216-.992zM9.845 6.111a15.048 15.048 0 00-5.504 8.833 11.565 11.565 0 010 .001 15.06 15.06 0 00-.309 2.845 15.017 15.017 0 001.85 7.443H5.88a14.96 14.96 0 0013.518 7.763l-.372.004.37-.005c5.099-.123 9.662-2.82 12.223-6.918.21-.42.105-.84-.314-1.05l-5.49-2.44-1.119-.496-.104-.03c-.21-.053-.413-.05-.58.074l-.044.04c-3.398 4.736-8.452 6.76-13.962 5.03 5.51 1.73 10.563-.295 13.961-5.03l.042-.038a.65.65 0 00-.152.164c-1.259 1.363-2.937 2.202-4.93 2.202-3.671 0-6.608-2.937-6.608-6.503 0-3.566 2.937-6.504 6.608-6.504.618 0 1.226.091 1.806.258a9.775 9.775 0 00-.002-.001c1.29.369 2.435 1.11 3.232 2.051a.881.881 0 00.145.118l-.15-.416-.172-.45-.178-.442-.277-.646-.195-.418-.203-.408-.213-.396a13.28 13.28 0 00-.117-.207h-.001c-.035-.06-.07-.12-.106-.178l-.234-.373c-1.928-2.934-5.053-4.659-11.591-3.966l-.804.09h-.022zm22.336 11.93a2.139 2.139 0 00-4.036-.985v.001a.722.722 0 01-.641.358h-6.279c-.232 0-.427-.157-.56-.35l-.036-.06a2.138 2.138 0 10-.016 2.1.746.746 0 01.642-.396h6.22c.27 0 .536.117.67.353.076.136.17.263.283.382a2.139 2.139 0 003.753-1.403z" clip-rule="evenodd"/></svg>