<svg xmlns="http://www.w3.org/2000/svg" width="13" height="12" viewBox="0 0 13 12"><path fill-rule="evenodd" d="M10.667 6.138s0 .278-.278.278h-.833v-2.16c0-.536-.298-.833-.834-.833H4.278v-.896s0-.277.278-.277h5.833c.278 0 .278.277.278.277v3.611zM9.556 8.215V7.25h1.11c.278 0 .834-.298.834-.834V2.25c0-.537-.556-.834-.833-.834H4.278c-.278 0-.834.297-.834.834v1.173h-1.11c-.537 0-.834.297-.834.833v3.959c0 .536.436.972.972.972h.14v.707a.7.7 0 00.697.696c.163 0 .323-.06.454-.173l1.103-1.23h3.717a.973.973 0 00.973-.972zm-.834 0V7.25H4.278c-.278 0-.834-.298-.834-.834v-2.16h-.833c-.076 0-.278 0-.278.278v3.68c0 .077.063.14.14.14h.971V9.56l1.08-1.207h4.06a.139.139 0 00.138-.14zM4.556 6.416h4.166V4.534c0-.278-.201-.278-.278-.278H4.278v1.882s0 .278.278.278zm.833-.833a.278.278 0 100-.556.278.278 0 000 .556zm1.389-.278a.278.278 0 11-.556 0 .278.278 0 01.556 0zm.833.278a.278.278 0 100-.556.278.278 0 000 .556z" clip-rule="evenodd"/></svg>