<svg xmlns="http://www.w3.org/2000/svg" width="18" height="18" viewBox="0 0 18 18"><path fill-rule="evenodd" d="M3.837 2.693a.418.418 0 10.837 0 .418.418 0 00-.837 0zm-.837 0a1.255 1.255 0 112.51 0 1.255 1.255 0 01-2.51 0zm4.602 0a.418.418 0 10.837 0 .418.418 0 00-.837 0zm-.836 0a1.255 1.255 0 112.51 0 1.255 1.255 0 01-2.51 0zm5.02.418a.418.418 0 110-.837.418.418 0 010 .837zm0-1.674a1.255 1.255 0 100 2.511 1.255 1.255 0 000-2.51zm-.418 5.021a.418.418 0 10.837 0 .418.418 0 00-.837 0zm-.837 0a1.255 1.255 0 112.51 0 1.255 1.255 0 01-2.51 0zm-6.276.419a.418.418 0 110-.837.418.418 0 010 .837zm0-1.674a1.255 1.255 0 100 2.51 1.255 1.255 0 000-2.51zm6.276 10.46a2.932 2.932 0 002.929-2.929V9.806a.419.419 0 00-.837 0v.836a.418.418 0 01-.837 0V9.387a.419.419 0 00-.836 0v1.255a.418.418 0 01-.837 0V8.97a.419.419 0 00-.837 0v1.673a.418.418 0 01-.837 0V6.46a.419.419 0 00-.837 0v6.364L6.46 11.68a.419.419 0 00-.592.592l2.449 2.378c.113.13.238.252.37.36l.043.039.007.006.014.006.048.035a2.904 2.904 0 001.732.567zm1.895-6.95a1.257 1.257 0 011.871 1.093v2.928A3.77 3.77 0 0110.53 16.5a3.734 3.734 0 01-2.194-.706.813.813 0 01-.192-.147 3.82 3.82 0 01-.449-.435l-2.415-2.344a1.258 1.258 0 01-.005-1.78 1.257 1.257 0 011.49-.214V6.458c0-.692.563-1.255 1.255-1.255s1.255.563 1.255 1.255v1.327a1.255 1.255 0 011.476.508 1.255 1.255 0 011.674.418z" clip-rule="evenodd"/></svg>