<svg xmlns="http://www.w3.org/2000/svg" width="36" height="36" viewBox="0 0 36 36"><path fill-rule="evenodd" d="M15.32 26.838a9.288 9.288 0 01-1.915-.819 1.283 1.283 0 01-.515-1.686c.197-.4.121-.882-.189-1.2-.285-.293-.82-.39-1.194-.216a1.287 1.287 0 01-1.673-.559 9.188 9.188 0 01-.77-1.936 1.289 1.289 0 01.81-1.546c.418-.149.702-.542.708-.978a1.03 1.03 0 00-.63-.975l-.02-.008c-.547-.232-1.013-.902-.81-1.582a9.26 9.26 0 01.826-1.934 1.266 1.266 0 011.646-.534c.453.188.94.122 1.24-.17.317-.31.405-.79.217-1.196a1.286 1.286 0 01.559-1.671 9.192 9.192 0 011.956-.777c.091-.025.182-.037.273-.041L6.575 4.196a.396.396 0 00-.256-.04.814.814 0 00-.658.8v26.088c0 .398.284.73.658.8a.4.4 0 00.256-.04L16 26.906c-.204.044-.423.01-.682-.068zm6.013-7.418a3.605 3.605 0 01-1.981 1.946 3.616 3.616 0 01-2.777-.023 3.634 3.634 0 01-1.924-4.76 3.633 3.633 0 014.76-1.922 3.633 3.633 0 011.922 4.759zm3.919-3.743a7.5 7.5 0 00-.412-1.034c-.94.29-2.045.03-2.735-.677a2.686 2.686 0 01-.749-2.09l-1.206-.626a2.691 2.691 0 01-2.046.955h-.034c-.977-.014-1.923-.626-2.366-1.497a7.557 7.557 0 00-1.052.418 2.685 2.685 0 01-.68 2.737c-.709.689-1.76.912-2.748.6a7.647 7.647 0 00-.447 1.047 2.678 2.678 0 01-.054 4.773c.111.355.248.7.41 1.035.942-.291 2.048-.03 2.736.677.713.73.94 1.802.611 2.753a7.62 7.62 0 001.022.436 2.693 2.693 0 012.368-1.429h.033c.81.011 1.597.434 2.096 1.074l1.204-.626a2.679 2.679 0 01.8-2.106 2.715 2.715 0 012.752-.61c.172-.333.32-.682.443-1.04a2.68 2.68 0 01-1.436-2.405c.014-1.007.6-1.92 1.49-2.365zm7.19 1.96L26.599 14.6c.12.305.224.617.31.935a1.288 1.288 0 01-.81 1.549c-.416.148-.7.54-.706.978a1.06 1.06 0 00.66.986c.62.264.98.971.8 1.577h-.001c-.08.267-.174.528-.277.785l5.867-3.048a.41.41 0 000-.726zm-8.876-4.612l-.1-.052a.86.86 0 00.1.052zm-5.57 2.978a2.001 2.001 0 011.837 2.78 2.001 2.001 0 01-2.622 1.06 2.002 2.002 0 01-1.059-2.622 2.002 2.002 0 011.843-1.218z" clip-rule="evenodd"/></svg>