<svg xmlns="http://www.w3.org/2000/svg" width="13" height="12" viewBox="0 0 13 12"><path fill-rule="evenodd" d="M11.5 6.565c0-.305-.06-.596-.178-.856l-.178-4.042-.26.744-.002.007c-.019.044-.108.258-.36.484l.044-1.094-.282.365-.004.005c-.053.063-.541.654-1.07.732a.995.995 0 01-.32-.023l-.03-.003c-.293-.038-.684-.087-1.192.093-.703.247-1.1 1.116-1.158 1.244l-.006.014-.007-.014c-.058-.128-.454-.997-1.157-1.244-.503-.18-.901-.13-1.195-.093l-.028.003a5.59 5.59 0 00-.079.01c-.096.013-.182.024-.24.013-.523-.078-1.018-.67-1.07-.732l-.005-.005-.289-.365.044 1.094c-.274-.238-.363-.476-.363-.491l-.26-.744-.177 4.042c-.111.26-.178.558-.178.863 0 .238.037.47.111.685l-.089 2.196.067.045c.015.015.415.29 1.12.305.207 0 .415-.049.63-.1l.022-.004c.34-.09.734-.186 1.26-.134.764.068 1.692.926 1.858 1.079l.025.022c.022-.022 1.052-1.034 1.883-1.101.52-.044.9.047 1.236.128l.024.006c.23.06.445.111.652.104.704-.015 1.105-.29 1.12-.305l.066-.045-.096-2.203c.067-.216.111-.447.111-.685zm-.304 0a1.89 1.89 0 01-1.883 1.89 1.89 1.89 0 01-1.883-1.89 1.89 1.89 0 011.883-1.891 1.89 1.89 0 011.883 1.89zM2.82 3.475a2.006 2.006 0 01-.719-.528L2.004 5.18a2.184 2.184 0 011.69-.804 2.19 2.19 0 012.157 1.861c.119-.26.349-.35.667-.35.304 0 .527.075.645.305a2.185 2.185 0 012.15-1.823c.682 0 1.29.312 1.69.804l-.096-2.226a2.15 2.15 0 01-.72.528c-.483.221-.785.173-1.107.121l-.012-.002a2.204 2.204 0 00-.986.015c-.422.105-1.319 1.028-1.578 1.318-.26-.29-1.157-1.213-1.58-1.318a2.204 2.204 0 00-.985-.015c-.32.06-.623.112-1.12-.119zm-1.015 3.09a1.89 1.89 0 011.883-1.891 1.89 1.89 0 011.883 1.89c0 1.043-.838 1.9-1.876 1.9a1.893 1.893 0 01-1.89-1.9zm8.488 2.94c.452-.007.756-.141.882-.208l-.067-1.49a2.182 2.182 0 01-3.906-.654c-.178.595-.69 1.176-.69 1.176s-.54-.618-.704-1.228a2.182 2.182 0 01-3.921.707L1.82 9.297c.126.067.43.2.882.208.17 0 .363-.044.578-.097l.053-.012c.339-.08.755-.179 1.311-.129.823.074 1.631.826 1.854 1.057.222-.23 1.022-.983 1.853-1.057.585-.052 1.015.052 1.364.141l.02.005c.213.05.392.092.558.092zM4.439 6.194a.36.36 0 01-.329.222.359.359 0 01-.36-.36c0-.152.093-.275.223-.328a.808.808 0 00-.306-.061.835.835 0 00-.834.833c0 .459.375.833.834.833A.835.835 0 004.5 6.5a.808.808 0 00-.061-.306zm5.338.222a.36.36 0 00.329-.222.988.988 0 01.06.306.835.835 0 01-.833.833A.835.835 0 018.5 6.5c0-.459.375-.833.833-.833.107 0 .214.022.306.06a.351.351 0 00-.222.33.36.36 0 00.36.359z" clip-rule="evenodd"/></svg>