<svg xmlns="http://www.w3.org/2000/svg" width="18" height="18" viewBox="0 0 18 18"><path fill-rule="evenodd" d="M14.868 4.928a.505.505 0 00-.929-.11l-.601 1.077.884.495.6-1.077a.505.505 0 00.046-.385zm-1.023 2.136l-.884-.495-2.582 4.626.883.495 2.583-4.626zm-3.111 5.191l-.56-.313-.098.835.658-.522zm4.969-4.608l-1.846 3.307a.373.373 0 11-.652-.365l1.664-2.98-.36-.202-2.78 4.978v.002a.361.361 0 01-.054.07l-.012.012a.332.332 0 01-.041.036l-1.792 1.42a.374.374 0 01-.414.034.374.374 0 01-.138-.137l-.019-.024c-.04-.064-.074-.132-.11-.198a5.522 5.522 0 00-.153-.273 2.306 2.306 0 00-.103-.158l-.004-.004c-.015-.018-.03-.036-.047-.054-.02.036-.04.073-.058.11-.043.086-.084.173-.131.256-.11.197-.266.387-.495.444-.283.07-.506-.107-.636-.342-.045-.082-.081-.168-.122-.252l-.01-.02c-.076.137-.136.283-.227.41-.15.212-.382.385-.656.315a.587.587 0 01-.37-.33c-.15-.313-.191-.667-.258-1.004a4.041 4.041 0 00-.124-.504l-.02-.057-.024-.05-.008.007c-.02.02-.036.041-.054.062l-.004.005-.031.046a2.352 2.352 0 00-.181.336 4.628 4.628 0 00-.037.082 7.214 7.214 0 00-.219.624 7.951 7.951 0 00-.15.563c-.042.184-.244.274-.414.235-.182-.041-.273-.242-.234-.414l.01-.043c.064-.27.14-.538.23-.8.132-.383.285-.772.54-1.091.242-.305.69-.46.995-.143.247.258.313.662.38.999.035.178.066.358.107.535.01.045.022.09.034.135.04-.076.078-.153.118-.228.107-.199.258-.405.49-.459.292-.068.519.115.651.36.047.084.084.173.127.26.09-.155.154-.326.256-.475.152-.222.396-.38.672-.274.142.055.254.141.35.246l.159-1.338a.337.337 0 01.009-.057l.002-.014a.394.394 0 01.034-.085l2.961-5.305.783-1.403a1.253 1.253 0 112.187 1.225l-.6 1.076.685.385a.374.374 0 01.144.508zM4.545 9.893a.373.373 0 000 .747h3.742a.374.374 0 000-.747H4.545zm5.533-2.16a.373.373 0 00-.373-.373h-5.16a.373.373 0 000 .747h5.16a.373.373 0 00.373-.374zm.821-2.532a.374.374 0 00-.373-.374H4.545a.374.374 0 000 .747h5.981a.373.373 0 00.373-.373zm1.922 9.021v.142c0 .764-.621 1.386-1.384 1.386H3.634a1.387 1.387 0 01-1.384-1.386V3.636c0-.764.62-1.386 1.384-1.386h7.803c.763 0 1.384.622 1.384 1.386a.374.374 0 11-.746 0 .639.639 0 00-.638-.639H3.634a.639.639 0 00-.638.64v10.727a.64.64 0 00.638.638h7.803a.64.64 0 00.638-.638v-.142a.373.373 0 11.746 0z" clip-rule="evenodd"/></svg>