<svg xmlns="http://www.w3.org/2000/svg" width="13" height="12" viewBox="0 0 13 12"><path d="M10.729 7.763v-3.5c.274-.053.438-.263.438-.474 0-.263-.247-.5-.52-.5-.192 0-.301.08-.41.21L6.978 1.685c.027-.053.027-.131.027-.184 0-.263-.246-.5-.52-.5-.273 0-.52.237-.52.5 0 .079.028.131.028.184l-3.23 1.763a.57.57 0 00-.41-.21.51.51 0 00-.52.5c0 .263.218.447.437.473v3.553c-.273.053-.438.263-.438.474 0 .263.247.5.52.5.192 0 .302-.08.411-.21l3.23 1.789c-.028.052-.028.131-.028.184 0 .263.247.5.52.5.274 0 .52-.237.52-.5 0-.158-.082-.29-.219-.395L8.512 7.29l1.56.869v.052c0 .264.246.5.52.5a.51.51 0 00.52-.5c0-.251-.177-.447-.383-.447zm-.164-3.5V7.71l-1.15-1.815 1.04-1.685c.027.027.055.027.11.053zm-.411-.684c-.027.052-.027.131-.027.184 0 .158.082.29.219.395L9.36 5.763 6.897 1.842l.027-.026 3.23 1.763zm-3.75-1.58L9.06 6.185l-.383.632-3.969-2.21 1.615-2.632c.028 0 .055.026.082.026zm-.246-.104L4.543 4.526 2.846 3.58l3.202-1.763a.377.377 0 01.11.079zM2.436 7.763v-3.5h.054l1.122 1.842-1.067 1.737c-.027-.053-.055-.053-.11-.079zm.63-3.526l1.258.71-.41.658-.849-1.368zm-.22 4.21c.027-.052.027-.131.027-.184 0-.158-.082-.29-.218-.395L3.667 6.21l2.436 3.948-.027.052-3.23-1.763zm3.832 1.606c-.027 0-.055-.027-.082-.027l-2.6-4.29L4.434 5 8.43 7.263l-1.752 2.79zm2.463-3.685l.74 1.185-1.095-.606.355-.579z"/><path fill-rule="evenodd" d="M2.655 7.868c.136.106.218.237.218.395 0 .053 0 .132-.027.184l3.23 1.763.027-.052L3.667 6.21 2.655 7.868zm1.013-1.466l-.884 1.446c.115.11.19.249.19.415v.002c0 .025 0 .062-.004.1a.515.515 0 01-.005.033l2.918 1.593-2.215-3.59zm-1.123 1.44l1.067-1.737L2.49 4.263h-.054v3.5a.69.69 0 00.031.014c.035.015.057.024.078.065zm-.01-.176l.96-1.561-.96-1.575v3.136zm6.88-1.771l1.15 1.815V4.263a.544.544 0 00-.07-.028.115.115 0 01-.04-.025l-1.04 1.685zm-2.49-4.08l-.028.027L9.36 5.763l.986-1.605c-.137-.105-.22-.237-.22-.395 0-.053 0-.132.028-.184l-3.23-1.763zm.221.236L9.36 5.574l.857-1.396a.565.565 0 01-.19-.415v-.001c0-.026 0-.063.005-.101a.57.57 0 01.004-.033L7.146 2.05zm3.319 2.334l-.932 1.509.932 1.472v-2.98zM8.43 7.263L4.434 5l-.438.737 2.6 4.29c.014 0 .027.006.04.012a.1.1 0 00.042.014l1.752-2.79zM6.646 9.916l1.643-2.618-3.82-2.163-.357.601 2.534 4.18zm1.866-2.627l1.56.869v.052c0 .264.246.5.52.5a.51.51 0 00.52-.5c0-.251-.177-.447-.383-.447v-3.5c.274-.053.438-.263.438-.474 0-.263-.247-.5-.52-.5-.192 0-.301.08-.41.21L6.978 1.685c.027-.053.027-.131.027-.184 0-.263-.246-.5-.52-.5-.273 0-.52.237-.52.5 0 .043.009.079.016.11.006.027.012.05.012.074l-3.23 1.763a.57.57 0 00-.41-.21.51.51 0 00-.52.5c0 .263.218.447.437.473v3.553c-.273.053-.438.263-.438.474 0 .263.247.5.52.5.192 0 .302-.08.411-.21l3.23 1.789c-.028.052-.028.131-.028.184 0 .263.247.5.52.5.274 0 .52-.237.52-.5 0-.158-.082-.29-.219-.395L8.512 7.29zm-1.595 2.796l1.63-2.662 1.425.794c.004.319.297.593.62.593a.61.61 0 00.62-.6c0-.256-.16-.482-.383-.535V4.34c.269-.084.438-.311.438-.552 0-.322-.295-.6-.62-.6a.57.57 0 00-.432.185L7.098 1.636a.508.508 0 00.004-.034c.004-.038.004-.075.004-.1V1.5c0-.322-.294-.6-.62-.6-.325 0-.62.278-.62.6 0 .051.01.093.017.124v.006l-3.1 1.693a.654.654 0 00-.43-.186.61.61 0 00-.62.6c0 .287.21.49.438.555v3.393c-.268.084-.438.311-.438.552 0 .322.295.6.62.6a.57.57 0 00.432-.185l3.09 1.712a.518.518 0 00-.005.034c-.004.037-.004.075-.004.1v.002c0 .322.295.6.62.6.326 0 .62-.278.62-.6a.565.565 0 00-.189-.415zM4.324 4.947l-1.259-.71.849 1.368.41-.658zm-.41.469l.27-.433-.828-.467.558.9zM6.356 2.11L4.847 4.57 8.64 6.68l.302-.496L6.356 2.11zm2.703 4.074l-.383.632-3.969-2.21 1.615-2.632a.09.09 0 01.041.013c.014.006.028.013.041.013L9.06 6.184zm-2.901-4.29a.377.377 0 00-.11-.078L2.846 3.579l1.697.947 1.615-2.631zm-1.65 2.498l1.496-2.438L3.052 3.58l1.456.813zm4.633 1.976l-.355.58 1.094.605-.739-1.185zm.001.19l-.216.352.665.369-.449-.72z" clip-rule="evenodd"/></svg>