<svg xmlns="http://www.w3.org/2000/svg" width="13" height="12" viewBox="0 0 13 12"><path fill-rule="evenodd" d="M3.592 2.364L4.77 3.553V3.55l1.823 1.856.23-.236a.957.957 0 00.144-1.184L4.528 1.48a.628.628 0 00-.953-.025l-.803.806a.645.645 0 01.82.102zm1.916 4.54A.648.648 0 005.42 7a.653.653 0 00-.126.387.644.644 0 00.639.65.627.627 0 00.525-.282L8.062 6.12a.654.654 0 00.025-.97l.005-.006-.797-.812a.676.676 0 01-.1.837L5.508 6.903zm4.686-4.678l-.94.843a3.879 3.879 0 01.836 3.68l.013.013-.013-.013c-.443 1.602-1.924 2.716-3.62 2.725-2.111-.059-3.775-1.78-3.718-3.847a3.836 3.836 0 011.074-2.643l-.247-.25a.906.906 0 00-.996-.24A5.125 5.125 0 001.5 5.616c-.022 2.812 2.2 5.11 4.96 5.133 2.761.023 5.017-2.242 5.04-5.053a5.127 5.127 0 00-1.306-3.47z" clip-rule="evenodd"/></svg>