<svg xmlns="http://www.w3.org/2000/svg" width="13" height="12" viewBox="0 0 13 12"><path fill-rule="evenodd" d="M9 10.325L11.5 6 9 1.675H4L1.5 6 4 10.325h5zm-.298-6.472c-.228-.396-.43-.738-.449-.761-.033-.039-.322-.042-1.822-.042h-.3c-1.176 0-1.312 0-1.36.068a.146.146 0 00-.017.03 356.333 356.333 0 00-1.367 2.364l-.27.468.044.064c.043.062.318.538.581 1.008a200.952 200.952 0 00.981 1.727l.106.173h3.353l.05-.053a6.61 6.61 0 00.32-.525c.149-.26.355-.62.46-.8.103-.18.189-.336.189-.348 0-.011-.313-.02-.713-.02h-.896l-.15.224c-.11.165-.163.224-.2.225-.28.006-1.726-.006-1.747-.014-.016-.007-.117-.184-.226-.395a10.86 10.86 0 00-.243-.454.283.283 0 01-.046-.112c0-.038.034-.041.395-.041h.395l.155-.086c.086-.046.196-.108.246-.137l.415-.237c.178-.101.32-.194.317-.207a6.632 6.632 0 00-.563-.32l-.555-.296-.402.005c-.4.006-.403.006-.403-.045 0-.028.019-.08.042-.114.023-.034.137-.245.253-.47l.211-.407h1.856l.034.089c.019.049.056.139.083.2l.05.113h.937c.796 0 .802-.001.712-.105a18.146 18.146 0 01-.456-.769z" clip-rule="evenodd"/></svg>