<svg xmlns="http://www.w3.org/2000/svg" width="18" height="18" viewBox="0 0 18 18"><path d="M9 13.914c.428 0 .776.347.776.776v1.034a.776.776 0 11-1.552 0V14.69c0-.429.348-.776.776-.776zm-3.475-1.44a.776.776 0 010 1.098l-.731.731a.776.776 0 11-1.097-1.097l.731-.731a.776.776 0 011.097 0zm8.047 0l.731.732a.776.776 0 11-1.097 1.097l-.731-.731a.776.776 0 111.097-1.097zM9 5.639a3.362 3.362 0 110 6.724 3.362 3.362 0 010-6.724zM9 7.19a1.81 1.81 0 100 3.62 1.81 1.81 0 000-3.62zM3.31 8.224a.776.776 0 110 1.552H2.276a.776.776 0 010-1.552H3.31zm12.414 0a.776.776 0 110 1.552H14.69a.776.776 0 110-1.552h1.034zM4.794 3.697l.731.731a.776.776 0 11-1.097 1.097l-.731-.731a.776.776 0 011.097-1.097zm9.51 0a.776.776 0 010 1.097l-.732.731a.776.776 0 11-1.097-1.097l.731-.731a.776.776 0 011.097 0zM9 1.5c.428 0 .776.347.776.776V3.31a.776.776 0 11-1.552 0V2.276c0-.429.348-.776.776-.776z"/></svg>