<svg xmlns="http://www.w3.org/2000/svg" width="36" height="36" viewBox="0 0 36 36"><path fill-rule="evenodd" d="M33 18.64c0 5.238-2.25 9.13-6 12.16-1.5-5.303-3-9.847-3-9.847l-3 .757-2.25-6.817v-3.03L24 10.348l-6.75-3.03v7.575l-3.75 5.302-.75 3.03-3 2.272-2.362 3.86c-4.796-4.85-5.771-12.348-2.377-18.283 3.394-5.936 10.312-8.83 16.868-7.057C28.435 5.789 32.995 11.787 33 18.64zm-10.5 3.828l2.363 9.71c-.24.08-.48.24-.718.322l-2.395-8.518-3 .758-.75-4.545-1.5 1.515-.75 3.787-4.213 1.684-1.914 4.03a7 7 0 01-.799-.569l2.394-4.43L15 24.74l.75-3.787 2.25-3.03 1.5 5.302 3-.758z" clip-rule="evenodd"/></svg>