<svg xmlns="http://www.w3.org/2000/svg" width="18" height="18" viewBox="0 0 18 18"><path d="M14.448 12.375c.367 0 .678.135.93.405s.376.585.372.945L10.6 15.75 6.108 14.4V8.325h1.25l4.664 1.816c.334.14.5.391.5.756a.79.79 0 01-.218.553.763.763 0 01-.551.25H9.958l-1.123-.452-.212.634 1.335.493h4.49zM11.882 3.08c.453-.553 1.03-.83 1.732-.83.581 0 1.073.225 1.475.675.402.45.616.968.642 1.553 0 .463-.214 1.017-.642 1.66a11.607 11.607 0 01-1.263 1.613 79.652 79.652 0 01-1.944 1.924 80.414 80.414 0 01-1.963-1.924c-.419-.432-.84-.97-1.264-1.613-.423-.643-.63-1.197-.622-1.66 0-.612.208-1.13.622-1.553a2.174 2.174 0 011.502-.675c.684 0 1.259.277 1.725.83zM2.25 8.325h2.576v7.425H2.25V8.325z"/></svg>