<svg xmlns="http://www.w3.org/2000/svg" width="18" height="18" viewBox="0 0 18 18"><path fill-rule="evenodd" d="M9.772 1.51l-.06-.009a.405.405 0 00-.429.312c-.049.217.09.434.311.484l1.14.258-5.458 3.09-.109.064a3.453 3.453 0 00-1.172 4.709 3.597 3.597 0 004.856 1.298l2.124-1.203.053-.034a.531.531 0 00.144-.7.553.553 0 00-.747-.2l-2.124 1.203-.101.054a2.491 2.491 0 01-3.26-.953 2.39 2.39 0 01.886-3.304l5.456-3.09-.34 1.096-.014.058a.407.407 0 00.285.448.408.408 0 00.512-.264l.715-2.299.004-.021.006-.053v-.03l-.004-.04-.012-.057-.02-.052-.028-.052-.032-.043-.042-.043-.044-.034-.04-.023a.417.417 0 00-.068-.028l-.022-.006-2.366-.536zm4.233 6.665a3.597 3.597 0 00-4.856-1.298L7.025 8.08l-.054.034a.531.531 0 00-.143.7.553.553 0 00.747.2L9.699 7.81l.101-.054a2.49 2.49 0 013.26.953 2.39 2.39 0 01-.886 3.304l-3.64 2.06a1.385 1.385 0 00-1.494-.087 1.328 1.328 0 00-.492 1.836c.38.645 1.215.868 1.867.5.484-.275.73-.799.67-1.314l3.639-2.06.108-.065a3.453 3.453 0 001.173-4.709z" clip-rule="evenodd"/></svg>