<svg xmlns="http://www.w3.org/2000/svg" width="36" height="36" viewBox="0 0 36 36"><path fill-rule="evenodd" d="M23.559 12.441H31.5A7.941 7.941 0 0023.559 4.5v7.941zm-18.265 9.53h7.147v-7.942H5.294a.794.794 0 00-.794.794v6.354c0 .438.356.794.794.794zm16.677 0h-7.942v-7.942h7.942v7.942zm1.588 0v-7.942H31.5a7.941 7.941 0 01-7.941 7.942zm-1.588-9.53h-7.942V5.294c0-.438.356-.794.794-.794h7.148v7.941zM14.823 31.5h6.354a.794.794 0 00.794-.794v-7.147h-7.942v7.147c0 .438.356.794.794.794z" clip-rule="evenodd"/></svg>