<svg xmlns="http://www.w3.org/2000/svg" width="36" height="36" viewBox="0 0 36 36"><path fill-rule="evenodd" d="M17.565 18.676a.774.774 0 001.21-.64.77.77 0 00-.33-.633.774.774 0 00-1.208.642c0 .26.13.491.328.63zm-.605-2.982L16.957 3l2.054 1.222 9.152 5.257c.42-.29.928-.46 1.477-.46a2.58 2.58 0 012.587 2.573c0 1.02-.597 1.902-1.462 2.318v11.7l-11.67 6.702-1.07.615V33l-1.06-.609-11.68-6.709-.03-11.479a2.573 2.573 0 01-1.483-2.328A2.58 2.58 0 016.36 9.301a2.58 2.58 0 012.587 2.574c0 1.056-.64 1.964-1.554 2.36l.03 10.219 9.542 5.48-.002-9.538a2.574 2.574 0 01-1.534-2.351c0-1.048.63-1.95 1.532-2.35zm2.135 4.69v9.472l9.532-5.475V13.96a2.574 2.574 0 01-1.558-2.654l-7.974-4.58v8.979a2.573 2.573 0 011.507 2.339 2.573 2.573 0 01-1.507 2.34zm9.77-8.792a.774.774 0 00.775.772.774.774 0 00.776-.772.774.774 0 00-.775-.772.774.774 0 00-.776.772zm-23.286.283c0 .427.348.772.776.772a.774.774 0 00.776-.772.774.774 0 00-.776-.772.774.774 0 00-.776.772z" clip-rule="evenodd"/></svg>