<svg xmlns="http://www.w3.org/2000/svg" width="25" height="24" viewBox="0 0 25 24"><path fill-rule="evenodd" d="M17.688 19.627v-4.6l3.732-1.947v4.6l-3.732 1.947zm0-10.377l3.732-1.898V12l-3.732 1.899V9.25zm-4.222-3.142l3.732-1.899 4.108 1.899-3.781 1.997-4.059-1.997zM8.72 3.784L12.5 2l3.781 1.735-3.78 1.882L8.72 3.784zm-1.294 4.32L3.695 6.158 7.688 4.26l3.78 1.833-4.042 2.013zM7.312 13.9L3.58 12V7.352L7.312 9.25v4.65zm0 5.728l-3.732-1.9V13.13l3.732 1.899v4.599zm9.493-6.023l-3.732-1.899V7.057l3.732 1.899v4.648zM11.96 22l-3.732-1.898v-4.583l3.732 1.898V22zm.54-9.59l4.059 2.045-4.059 2.16-4.059-2.16 4.059-2.046zm-.605-.54l-3.732 1.898V9.119l3.732-1.898v4.648zm4.877 8.232L13.04 22v-4.599l3.732-1.899v4.6z" clip-rule="evenodd"/></svg>