<svg xmlns="http://www.w3.org/2000/svg" width="13" height="12" viewBox="0 0 13 12"><path fill-rule="evenodd" d="M2.526 5.22h-.364v5.682h8.726V5.22h-.363v5.317h-8V5.221z" clip-rule="evenodd"/><path fill-rule="evenodd" d="M2.626 5.12v5.318h7.799V5.121h.563V11H2.062V5.12h.564zm7.899.1h.363v5.682H2.162V5.22h.364v5.317h7.999V5.221zM7.116 2.274H5.934v.364h1.182v-.364zm2.818.364h.59v1.454H2.527V2.638h.59v-.364h-.954v2.181h8.726V2.274h-.954v.364z" clip-rule="evenodd"/><path fill-rule="evenodd" d="M7.216 2.174v.564H5.834v-.564h1.382zm2.618.564v-.564h1.154v2.381H2.062V2.174h1.154v.564h-.59v1.254h7.799V2.738h-.591zm-6.718-.1h-.59v1.454h7.999V2.638h-.591v-.364h.954v2.181H2.162V2.274h.954v.364zm2.818-.364h1.182v.364H5.934v-.364z" clip-rule="evenodd"/><path d="M5.07 1.728a.545.545 0 00-1.09 0V2.82a.545.545 0 001.09 0V1.73z"/><path fill-rule="evenodd" d="M4.525 1.37a.358.358 0 00-.357.358V2.82a.358.358 0 10.715 0V1.73a.358.358 0 00-.358-.358zm-.733.358a.733.733 0 011.466 0V2.82a.733.733 0 11-1.466 0V1.73z" clip-rule="evenodd"/><path d="M9.07 1.728a.545.545 0 10-1.09 0V2.82a.545.545 0 101.09 0V1.73z"/><path fill-rule="evenodd" d="M8.525 1.37a.358.358 0 00-.358.358V2.82a.358.358 0 10.716 0V1.73a.358.358 0 00-.358-.358zm-.733.358a.733.733 0 111.466 0V2.82a.733.733 0 11-1.466 0V1.73zm.188 3.647l.897.898L5.98 9.171 4.173 7.364l.898-.898.909.91 2-2z" clip-rule="evenodd"/><path d="M7.98 5.11l1.163 1.163L5.98 9.436 3.908 7.364 5.07 6.201l.909.91 2-2z"/></svg>