<svg xmlns="http://www.w3.org/2000/svg" width="36" height="36" viewBox="0 0 36 36"><path d="M4.875 24.98c0-.71.588-1.286 1.313-1.286h10.5c.724 0 1.312.576 1.312 1.286v.734c0 .71-.588 1.286-1.312 1.286h-10.5c-.725 0-1.313-.576-1.313-1.286v-.734zm15 0c0-.71.588-1.286 1.313-1.286h6.75c.724 0 1.312.576 1.312 1.286v.734c0 .71-.588 1.286-1.313 1.286h-6.75c-.724 0-1.312-.576-1.312-1.286v-.734zm-11.25-7.347c0-.71.588-1.286 1.313-1.286h21.75c.724 0 1.312.576 1.312 1.286v.734c0 .71-.588 1.286-1.313 1.286H9.938a1.3 1.3 0 01-1.312-1.286v-.734zM3 10.286C3 9.576 3.588 9 4.313 9h4.875c.724 0 1.312.576 1.312 1.286v.734c0 .71-.588 1.286-1.313 1.286H4.314C3.587 12.306 3 11.731 3 11.02v-.734zm9.375 0c0-.71.588-1.286 1.313-1.286h10.5c.724 0 1.312.576 1.312 1.286v.734c0 .71-.588 1.286-1.313 1.286h-10.5a1.3 1.3 0 01-1.312-1.286v-.734z"/></svg>