<svg xmlns="http://www.w3.org/2000/svg" width="13" height="12" viewBox="0 0 13 12"><path d="M6.333 8.667a1.167 1.167 0 100 2.333 1.167 1.167 0 000-2.333zm2.946-5c-.133 0-.243.1-.257.23l-.002.028v1.083H8.5a3.013 3.013 0 00-2.998 2.898l-.002.076v.35c.26-.147.56-.23.879-.23.32 0 .62.084.88.231v-.351c0-.68.539-1.212 1.188-1.24L8.5 6.74h.52v1.108a.259.259 0 00.417.204l.024-.021 1.962-1.962c.094-.093.1-.24.022-.341l-.022-.025-1.962-1.962a.259.259 0 00-.183-.075zm-5.702.053l-.025.02-1.976 1.915a.247.247 0 00-.021.333l.021.024 1.976 1.914A.265.265 0 003.737 8a.258.258 0 00.259-.225l.001-.027V6.666h.725c.22-.63.608-1.184 1.111-1.61a3.126 3.126 0 00-.607-.079l-.105-.002H3.997V3.92a.248.248 0 00-.076-.178.267.267 0 00-.344-.021zm2.958-2.685l-.027.018-.024.02-1.908 1.864a.25.25 0 00-.076.178c0 .13.1.237.23.25l.028.002h1.056V4.39c.369.043.586.094.914.278.203-.16.56-.235.791-.246V3.367h1.056a.262.262 0 00.183-.074c.093-.09.1-.234.021-.333l-.021-.023-1.909-1.863a.263.263 0 00-.314-.039z"/></svg>