<svg xmlns="http://www.w3.org/2000/svg" width="36" height="36" viewBox="0 0 36 36"><path fill-rule="evenodd" d="M18 10.29c-2.49 0-4.709 1.03-6.346 2.644-.24.24-.444.515-.649.755l-2.388-1.373a13.37 13.37 0 011.126-1.306 11.602 11.602 0 016.892-3.331V5h2.696v2.679a11.695 11.695 0 016.926 3.332c.375.412.75.858 1.092 1.305l-2.354 1.373a6.85 6.85 0 00-.649-.755c-1.637-1.614-3.89-2.645-6.346-2.645zM8.617 26.328l-2.287 1.34L5 25.333l2.286-1.34a11.903 11.903 0 010-9.342l2.354 1.374c-.375 1.03-.614 2.13-.614 3.297 0 2.507 1.024 4.74 2.628 6.388a9.045 9.045 0 004.981 2.542V31a11.645 11.645 0 01-6.892-3.366c-.41-.413-.785-.859-1.126-1.305zm20.097-2.336L31 25.333l-1.365 2.335-2.286-1.34c-.341.447-.716.893-1.092 1.306-1.842 1.82-4.23 3.056-6.926 3.366v-2.748c1.945-.31 3.685-1.202 5.015-2.542 1.604-1.648 2.628-3.88 2.628-6.388 0-1.168-.24-2.267-.614-3.297l2.354-1.374a11.901 11.901 0 010 9.342zm-14.126-8.071A4.757 4.757 0 0118 14.514c1.228 0 2.457.446 3.378 1.408.955.927 1.399 2.164 1.399 3.4a4.822 4.822 0 01-1.399 3.435A4.765 4.765 0 0118 24.165a4.903 4.903 0 01-3.412-1.408 4.97 4.97 0 01-1.4-3.435 4.83 4.83 0 011.4-3.4z" clip-rule="evenodd"/></svg>