<svg xmlns="http://www.w3.org/2000/svg" width="25" height="24" viewBox="0 0 25 24"><path fill-rule="evenodd" d="M12.5 6.86c-1.66 0-3.14.686-4.231 1.763-.16.16-.296.343-.432.503L6.244 8.21a7.735 7.735 0 015.346-3.09V3.333h1.797V5.12a7.796 7.796 0 014.618 2.221c.25.275.5.573.728.87l-1.57.916a4.575 4.575 0 00-.432-.503C15.639 7.547 14.138 6.86 12.5 6.86zM6.244 17.551l-1.524.893-.887-1.557 1.524-.893a7.935 7.935 0 010-6.228l1.57.916c-.25.687-.41 1.42-.41 2.198 0 1.672.683 3.16 1.752 4.26a6.03 6.03 0 003.321 1.694v1.831a7.763 7.763 0 01-4.595-2.244 8.918 8.918 0 01-.75-.87zm13.398-1.557l1.525.893-.91 1.557-1.524-.893c-.228.298-.478.596-.728.87-1.229 1.214-2.82 2.038-4.618 2.244v-1.832a6.02 6.02 0 003.344-1.694c1.069-1.099 1.751-2.587 1.751-4.259 0-.778-.159-1.51-.409-2.198l1.57-.916a7.934 7.934 0 010 6.228zm-9.417-5.38a3.172 3.172 0 012.275-.94c.819 0 1.638.298 2.252.94.637.618.932 1.442.932 2.266 0 .825-.295 1.649-.932 2.29a3.177 3.177 0 01-2.252.939c-.819 0-1.638-.32-2.275-.939a3.313 3.313 0 01-.932-2.29c0-.824.318-1.648.932-2.267z" clip-rule="evenodd"/></svg>