<svg xmlns="http://www.w3.org/2000/svg" width="18" height="18" viewBox="0 0 18 18"><path fill-rule="evenodd" d="M9 1.5a7.5 7.5 0 100 15 7.5 7.5 0 000-15zM7.235 13.412a.443.443 0 00.441-.441V5.029a.442.442 0 00-.44-.44.442.442 0 00-.442.44v7.942c0 .242.199.44.441.44zm3.53-.883a.442.442 0 00.44-.44V5.911a.442.442 0 00-.44-.441.443.443 0 00-.442.44v6.177c0 .243.2.441.442.441zm2.206-1.764a.442.442 0 01-.442.44.443.443 0 01-.44-.44v-3.53c0-.242.198-.44.44-.44.243 0 .442.198.442.44v3.53zm1.323-.883a.443.443 0 01-.441-.44v-.883c0-.243.199-.441.441-.441.243 0 .441.198.441.44v.883a.442.442 0 01-.44.441zm-4.853 1.324a.443.443 0 01-.441.441.443.443 0 01-.441-.441V6.794c0-.243.198-.441.441-.441s.441.198.441.441v4.412zm-3.53-.441a.442.442 0 01-.44.44.442.442 0 01-.442-.44v-3.53a.442.442 0 01.882 0v3.53zm-2.205-.883a.442.442 0 00.441-.44v-.883a.442.442 0 00-.441-.441.442.442 0 00-.441.44v.883c0 .243.198.441.44.441z" clip-rule="evenodd"/></svg>