<svg xmlns="http://www.w3.org/2000/svg" width="36" height="36" viewBox="0 0 36 36"><path fill-rule="evenodd" d="M26.735 14.03V8.47h2.383c0 2.383-.794 4.765-2.383 5.56zm-5.775 3.014L18 15.179l-2.96 1.865.84-3.421-2.67-2.268 3.48-.25L18 7.84l1.31 3.266 3.479.25-2.67 2.268.84 3.42zM9.265 14.029c-1.589-.794-2.383-3.176-2.383-5.558h2.383v5.558zm19.853-7.94h-.794c-.036-.001-.149 0-.298.003-.439.007-1.2.02-1.29-.004V4.5H9.264v1.588H6.882C5.294 6.088 4.5 7.506 4.5 8.471c0 3.62 1.361 6.523 3.97 7.874.681.353.836.797 1.016 1.31.122.35.255.732.573 1.14 1.361 2.325 3.12 3.913 7.941 3.913 4.822 0 6.353-1.531 7.941-3.914.919-1.377.967-1.42 2.648-2.888l.163-.143c1.156-1.01 2.171-2.154 2.43-3.666.274-1.608.281-1.942.316-3.526l.002-.1c0-.965-.794-2.383-2.382-2.383zM21.97 28.323h-7.94c-1.589 0-3.177 1.588-3.177 3.176h14.294c0-1.588-1.588-3.176-3.176-3.176zm-.795-2.78c0 .655-.536 1.191-1.19 1.191h-3.971a1.195 1.195 0 01-1.192-1.19c0-.656.536-1.192 1.192-1.192h3.97c.655 0 1.191.536 1.191 1.191z" clip-rule="evenodd"/></svg>