<svg xmlns="http://www.w3.org/2000/svg" width="18" height="18" viewBox="0 0 18 18"><path fill-rule="evenodd" d="M15.677 6.795a.297.297 0 01-.297.297h-1.61v1.431h1.61c.164 0 .297.133.297.297v.36a.297.297 0 01-.297.297h-1.61v1.431h1.61c.164 0 .297.133.297.297v.36a.297.297 0 01-.297.297h-1.61v.127a1.78 1.78 0 01-1.781 1.78h-.128v1.612a.297.297 0 01-.296.297h-.36a.297.297 0 01-.297-.297V13.77H9.477v1.61a.297.297 0 01-.297.298h-.36a.297.297 0 01-.297-.297V13.77H7.092v1.61a.297.297 0 01-.297.298h-.36a.297.297 0 01-.297-.297V13.77h-.127a1.78 1.78 0 01-1.78-1.78v-.128H2.618a.297.297 0 01-.297-.297v-.36c0-.164.133-.297.297-.297H4.23v-1.43H2.62a.297.297 0 01-.297-.298v-.36c0-.164.133-.297.297-.297H4.23v-1.43H2.62a.297.297 0 01-.297-.298v-.36c0-.164.133-.297.297-.297H4.23v-.127c0-.983.797-1.78 1.78-1.78h.128V2.619c0-.163.133-.296.297-.296h.36c.164 0 .297.133.297.296v1.612h1.43V2.619c0-.163.134-.296.297-.296h.36c.165 0 .298.133.298.296v1.612h1.43V2.619c0-.163.133-.296.297-.296h.36a.297.297 0 01.297.296v1.612h.128c.983 0 1.78.797 1.78 1.78v.127h1.611c.164 0 .297.133.297.297v.36zM11.99 12.82c.458 0 .83-.372.83-.83V6.01a.832.832 0 00-.83-.83H6.01a.832.832 0 00-.831.83v5.978c0 .459.372.83.83.831h5.979zM6.722 6.09h4.555c.35 0 .633.283.633.632v4.556c0 .349-.284.632-.633.633H6.722a.635.635 0 01-.633-.633V6.722c0-.349.284-.632.633-.633zm4.593 2.682V7.255h-.127L9.92 7.251h.012-.119.107c-.05.002-.175.015-.197.037a.13.13 0 00-.037.091v.347c0 .071.057.129.127.129h.472L9.144 9.144a.064.064 0 01-.092.002l-.544-.551a.125.125 0 00-.179 0l-1.623 1.646a.13.13 0 000 .18l.272.276c.05.05.13.05.179 0l1.209-1.224c.03-.03.078-.03.108 0l.554.562a.127.127 0 00.185-.005l1.506-1.725v.467c0 .07.056.128.126.128h.343c.07 0 .127-.057.127-.128z" clip-rule="evenodd"/></svg>