<svg xmlns="http://www.w3.org/2000/svg" width="25" height="24" viewBox="0 0 25 24"><path fill-rule="evenodd" d="M20 2.75l-.123.004h-2.432a1.973 1.973 0 00-.257 0L5.5 2.75c-.824 0-1.5.672-1.5 1.5l-.034 3.397-.25-.251a.677.677 0 00-.998 0 .686.686 0 000 1.004l1.623 1.63a.677.677 0 00.998 0L6.837 8.4a.76.76 0 000-1.067c-.291-.292-.832-.23-1.123.063l-.25.25c0-2.815.03-3.317.035-3.386h11.782c.09.005.185.005.289 0h.04l1.89-.01v3.5c0 1 1.5 1 1.5 0v-4c0-.5-.5-1-1-1zM5.494 4.26c.002 0 .007-.012.006-.01v.01h-.006zm0 0zM10.5 8.052a2 2 0 104 0 2 2 0 00-4 0zm2 6.573c1.405 0 3.063-.563 3.5-1v-1c0-.875-.625-1.5-1.5-1.5h-4c-.875 0-1.5.625-1.5 1.5v1c.437.438 2.095 1 3.5 1zm4.95 3.616L13 18.25c-2.12 0-6 3-6 3v-3H5c-.412 0-1-.586-1-1v-4.5c0-1 1.5-1 1.5 0v4h2l1.116-.014v1.715C10.17 17.297 11.872 16.75 13 16.75h5.5l.205-.003.796-.015h.008v-.286c-.003-.474-.009-1.583-.009-3.696l-.212.352c-.291.293-.832.356-1.123.063a.76.76 0 010-1.066l1.497-1.63a.677.677 0 01.998 0l1.622 1.63a.685.685 0 010 1.003.677.677 0 01-.998 0L21 12.75v4a1.49 1.49 0 01-1.492 1.493H17.54l-.092-.002z" clip-rule="evenodd"/></svg>