<svg xmlns="http://www.w3.org/2000/svg" width="25" height="24" viewBox="0 0 25 24"><path d="M17.09 21.694h-2.035c-2.684 0-4.87-2.168-4.87-4.835 0-.176.01-.35.028-.521a4.824 4.824 0 01-2.129-3.995c0-2.664 2.185-4.834 4.87-4.834h4.136a2.603 2.603 0 012.611 2.591c0 1.43-1.17 2.592-2.61 2.592h-2.036a4.2 4.2 0 00-4.11 3.31 4.203 4.203 0 002.008.51h4.137c1.44 0 2.611 1.16 2.611 2.59s-1.17 2.592-2.61 2.592zm-6.23-4.985c-.002.05-.004.1-.004.152 0 2.298 1.884 4.168 4.2 4.168h2.034c1.07 0 1.94-.863 1.94-1.925 0-1.061-.87-1.925-1.94-1.925h-4.137a4.866 4.866 0 01-2.093-.47zm2.093-8.53c-2.315 0-4.197 1.87-4.197 4.168 0 1.323.623 2.503 1.595 3.266a4.872 4.872 0 014.706-3.586h2.035c1.07 0 1.94-.864 1.94-1.925 0-1.062-.87-1.925-1.94-1.925h-4.137l-.002.002zM7.121 20.9a1.818 1.818 0 01-1.822-1.808c0-.997.817-1.809 1.821-1.809 1.005 0 1.822.812 1.822 1.809 0 .996-.817 1.808-1.822 1.808zm0-2.95c-.635 0-1.15.512-1.15 1.142 0 .63.515 1.141 1.15 1.141.634 0 1.15-.512 1.15-1.142 0-.63-.516-1.141-1.15-1.141zm10-12.029a1.818 1.818 0 01-1.822-1.808c0-.996.817-1.808 1.822-1.808 1.004 0 1.821.812 1.821 1.808 0 .997-.817 1.808-1.822 1.808zm0-2.95c-.635 0-1.15.512-1.15 1.142 0 .63.515 1.142 1.15 1.142.634 0 1.15-.512 1.15-1.142 0-.63-.516-1.141-1.15-1.141z"/><path fill-rule="evenodd" d="M13.08 8.485h-.127c-2.148 0-3.891 1.735-3.891 3.862 0 1.064.435 2.028 1.14 2.727a5.183 5.183 0 014.855-3.354h2.035c.903 0 1.633-.728 1.633-1.618 0-.89-.73-1.619-1.633-1.619h-4.01l-.003.002zm-2.632 6.812a4.876 4.876 0 014.61-3.27h2.034c1.07 0 1.94-.864 1.94-1.925 0-1.062-.87-1.925-1.94-1.925h-4.137l-.002.002c-2.315 0-4.197 1.87-4.197 4.168a4.136 4.136 0 001.595 3.266c.029-.107.06-.212.097-.316zM17.09 22h-2.035c-2.851 0-5.176-2.303-5.176-5.14 0-.127.004-.25.013-.374a5.126 5.126 0 01-2.114-4.143c0-2.835 2.324-5.14 5.175-5.14h4.137c1.606 0 2.917 1.296 2.917 2.897 0 1.601-1.31 2.898-2.917 2.898h-2.035a3.897 3.897 0 00-3.755 2.841 3.898 3.898 0 001.653.366h4.137c1.606 0 2.917 1.296 2.917 2.898 0 1.6-1.31 2.897-2.917 2.897zm-6.145-5.997a4.2 4.2 0 014.11-3.311h2.035a2.604 2.604 0 002.611-2.592c0-1.43-1.172-2.591-2.61-2.591h-4.138c-2.684 0-4.869 2.17-4.869 4.834 0 1.658.845 3.123 2.13 3.995a4.857 4.857 0 00-.03.521c0 2.667 2.187 4.835 4.871 4.835h2.035c1.44 0 2.611-1.162 2.611-2.591a2.604 2.604 0 00-2.61-2.592h-4.138a4.203 4.203 0 01-2.008-.508zm-.085 1.044c.098 2.212 1.943 3.982 4.195 3.982h2.035c1.07 0 1.94-.863 1.94-1.925 0-1.061-.87-1.925-1.94-1.925h-4.137a4.872 4.872 0 01-2.093-.47 4.405 4.405 0 000 .338zm.315.126c.16 1.982 1.838 3.55 3.88 3.55h2.035c.903 0 1.633-.729 1.633-1.619s-.73-1.619-1.633-1.619h-4.137a5.19 5.19 0 01-1.778-.312zM7.12 21.207a2.124 2.124 0 01-2.127-2.114c0-1.168.957-2.115 2.127-2.115 1.171 0 2.128.947 2.128 2.114a2.124 2.124 0 01-2.127 2.115zm0-2.95a.84.84 0 00-.843.835.84.84 0 00.843.836.84.84 0 00.844-.835.84.84 0 00-.844-.836zm10-12.029a2.124 2.124 0 01-2.127-2.114C14.993 2.946 15.95 2 17.12 2c1.171 0 2.128.946 2.128 2.114a2.124 2.124 0 01-2.128 2.114zm0-2.95a.84.84 0 00-.844.836.84.84 0 00.845.836.84.84 0 00.844-.836.84.84 0 00-.845-.835zM5.3 19.094c0 .996.817 1.808 1.821 1.808a1.818 1.818 0 001.822-1.808c0-.997-.817-1.809-1.822-1.809A1.818 1.818 0 005.3 19.093zm.671 0c0-.63.516-1.142 1.15-1.142.635 0 1.15.512 1.15 1.142 0 .63-.515 1.141-1.15 1.141-.634 0-1.15-.512-1.15-1.142zM15.3 4.114c0 .997.817 1.808 1.822 1.808a1.818 1.818 0 001.821-1.808c0-.996-.817-1.808-1.822-1.808A1.818 1.818 0 0015.3 4.114zm.671 0c0-.63.516-1.141 1.15-1.141.635 0 1.15.511 1.15 1.141s-.515 1.142-1.15 1.142c-.634 0-1.15-.512-1.15-1.142z" clip-rule="evenodd"/></svg>