<svg xmlns="http://www.w3.org/2000/svg" width="36" height="36" viewBox="0 0 36 36"><path d="M8.554 20.576c.033 0 .066 0 .1-.002l2.055 5.394h-.452c-1.409 0-2.554 1.183-2.554 2.637v3.516c0 .485.38.879.85.879h13.622c.47 0 .85-.394.85-.879v-1.758c0-2.424-1.909-4.395-4.256-4.395h-2.553v-.88c0-.485-.382-.878-.852-.878s-.851.393-.851.879v.879h-1.974l-2.304-6.046a2.668 2.668 0 00.873-1.983c0-.45-.11-.873-.303-1.244l6.275-6.48 1.294 1.336c-1.086 1.69-.928 4.015.542 5.533l1.203 1.243a.832.832 0 001.204 0l8.428-8.702a.9.9 0 000-1.243l-1.204-1.244a4.163 4.163 0 00-5.357-.559l-2.47-2.548a3.328 3.328 0 00-4.815 0c-1.318 1.36-1.327 3.568-.03 4.94l-6.33 6.538a2.47 2.47 0 00-.992-.207C7.146 15.302 6 16.485 6 17.94s1.146 2.637 2.554 2.637zm12.77 9.787v.879H9.404v-2.637c0-.485.382-.88.852-.88h8.512c1.409 0 2.554 1.184 2.554 2.638zm6.019-21.981l.602.621-7.224 7.459-.602-.622a2.697 2.697 0 010-3.73l3.612-3.728a2.5 2.5 0 013.612 0zM17.11 5.274a1.664 1.664 0 012.407 0l2.408 2.486-2.408 2.486c-2.325-2.448-2.01-2.096-2.407-2.486a1.801 1.801 0 010-2.486zM8.554 17.06c.47 0 .851.395.851.88 0 .484-.382.878-.851.878-.47 0-.851-.394-.851-.879 0-.484.381-.879.85-.879zm19.397-3.89l.545.58a.138.138 0 01-.002.189l-3.568 3.537a.126.126 0 01-.181-.003l-.545-.58a.138.138 0 01.002-.189l3.568-3.537a.126.126 0 01.181.003z"/></svg>