<svg xmlns="http://www.w3.org/2000/svg" width="36" height="36" viewBox="0 0 36 36"><path fill-rule="evenodd" d="M30.5 18.416s0 .833-.833.833h-2.5v-6.48c0-1.608-.892-2.5-2.5-2.5H11.333V7.583s0-.833.834-.833h17.5c.833 0 .833.833.833.833v10.834zm-3.333 6.229v-2.896H30.5c.833 0 2.5-.892 2.5-2.5v-12.5c0-1.608-1.667-2.5-2.5-2.5H11.333c-.833 0-2.5.892-2.5 2.5v3.52H5.5c-1.608 0-2.5.892-2.5 2.5v11.876a2.92 2.92 0 002.917 2.916h.416v2.122c0 .828.469 1.555 1.223 1.897a2.066 2.066 0 002.233-.33l3.309-3.689H24.25a2.92 2.92 0 002.917-2.916zm-2.5 0v-2.896H11.333c-.833 0-2.5-.892-2.5-2.5v-6.48h-2.5c-.23 0-.833 0-.833.834v11.042c0 .23.187.416.417.416h2.916v3.62l3.236-3.62H24.25c.23 0 .417-.187.417-.416zm-12.5-5.396h12.5v-5.646c0-.833-.604-.833-.834-.833h-12.5v5.646s0 .833.834.833zm2.5-2.5a.833.833 0 100-1.667.833.833 0 000 1.667zm4.166-.833a.833.833 0 11-1.666 0 .833.833 0 011.666 0zm2.5.833a.833.833 0 100-1.667.833.833 0 000 1.667z" clip-rule="evenodd"/></svg>