<svg xmlns="http://www.w3.org/2000/svg" width="13" height="12" viewBox="0 0 13 12"><path fill-rule="evenodd" d="M10.412 3.285a.338.338 0 00-.62-.073l-.4.718.59.33.4-.718a.336.336 0 00.03-.257zM9.73 4.709l-.589-.33-1.722 3.085.59.33L9.73 4.709zM7.656 8.17l-.373-.209-.066.557.439-.348zm3.313-3.072L9.738 7.303a.248.248 0 11-.434-.244l1.109-1.987-.24-.134L8.32 8.257a.242.242 0 01-.037.048l-.008.008a.227.227 0 01-.027.024l-1.195.947a.25.25 0 01-.368-.07L6.673 9.2c-.027-.043-.05-.088-.074-.133a3.677 3.677 0 00-.102-.181 1.557 1.557 0 00-.068-.105l-.003-.003c-.01-.012-.02-.025-.031-.036a1.727 1.727 0 00-.039.073c-.029.057-.056.115-.087.17-.074.132-.178.259-.33.297-.189.046-.338-.072-.424-.229-.03-.054-.055-.111-.082-.167l-.006-.013c-.05.09-.091.188-.151.273-.1.14-.255.256-.438.21a.391.391 0 01-.246-.22c-.1-.209-.128-.445-.173-.67a2.693 2.693 0 00-.082-.335l-.014-.038-.016-.034-.005.005-.036.04c0 .002-.002.003-.003.005l-.02.03a1.562 1.562 0 00-.146.278l-.03.077a5.315 5.315 0 00-.216.715c-.028.123-.162.183-.276.157-.121-.028-.181-.162-.156-.276l.007-.03c.043-.18.094-.357.154-.532.087-.256.19-.515.359-.728.162-.203.46-.306.663-.095.166.172.21.441.254.666.023.119.044.239.071.357l.023.09.079-.152c.07-.133.171-.27.326-.306.195-.045.346.077.434.24.031.056.056.115.085.173.06-.103.103-.217.17-.316.102-.148.265-.254.449-.183a.61.61 0 01.233.163l.106-.891c0-.013.003-.026.006-.038l.002-.01a.26.26 0 01.022-.056l1.974-3.537.522-.935a.835.835 0 111.458.816l-.4.718.457.256a.25.25 0 01.096.34zm-7.44 1.497a.249.249 0 000 .499h2.496a.25.25 0 000-.499H3.53zm3.69-1.44a.249.249 0 00-.249-.249H3.53a.249.249 0 000 .499h3.44a.249.249 0 00.249-.25zm.547-1.688a.25.25 0 00-.249-.25H3.53a.25.25 0 000 .5h3.987a.249.249 0 00.25-.25zm1.281 6.015v.094c0 .51-.414.924-.922.924H2.923A.924.924 0 012 9.576V2.424c0-.51.414-.924.923-.924h5.202c.508 0 .922.415.922.924a.249.249 0 11-.497 0 .426.426 0 00-.425-.426H2.923a.426.426 0 00-.425.426v7.152c0 .235.19.426.425.426h5.202a.426.426 0 00.425-.426v-.094a.249.249 0 11.497 0z" clip-rule="evenodd"/></svg>