<svg xmlns="http://www.w3.org/2000/svg" width="18" height="18" viewBox="0 0 18 18"><path fill-rule="evenodd" d="M8.683 1.681a.374.374 0 01.641 0L10 3.078a.893.893 0 01-.137 1.098l-.596.59a.374.374 0 01-.527 0l-.596-.59a.893.893 0 01-.136-1.098l.675-1.397zm-5.66 2.908a.374.374 0 01.453-.453l1.465.51a.893.893 0 01.68.873l-.004.84a.374.374 0 01-.372.372l-.84.003a.893.893 0 01-.872-.68l-.51-1.465zm11.497-.437c.274-.068.52.179.453.453l-.51 1.465a.892.892 0 01-.872.68l-.84-.004a.374.374 0 01-.372-.372l-.004-.84a.893.893 0 01.68-.872l1.465-.51zm.922 7.4a.374.374 0 01-.453.452l-1.465-.51a.893.893 0 01-.68-.872l.004-.84a.374.374 0 01.372-.372l.84-.004a.893.893 0 01.872.68l.51 1.465zm-12.353.452a.374.374 0 01-.453-.453l.51-1.465a.893.893 0 01.873-.68l.84.004c.205 0 .37.167.372.372l.003.84a.893.893 0 01-.68.872l-1.465.51zm8.756-4.435c.176.124.21.368.08.536l-1.237 1.59a3.375 3.375 0 00-.689 2.462l.505 4.343h-3l.504-4.343a3.375 3.375 0 00-.688-2.461l-1.237-1.59a.375.375 0 01.08-.537c.166-.119.401-.067.527.095L7.869 9.18c.155.199.472.11.501-.14l.382-3.287a.281.281 0 01.503 0l.382 3.287c.03.25.347.339.502.14l1.179-1.516c.126-.162.36-.214.527-.095zm-9.121.643l.577.323a.735.735 0 00.809-.068l.331-.278a.16.16 0 000-.253l-.331-.279A.735.735 0 003.3 7.59l-.577.323c-.127.071-.127.228 0 .299zm11.982.323l.578-.323c.127-.071.127-.228 0-.299l-.578-.323a.735.735 0 00-.808.067l-.332.279a.16.16 0 000 .253l.332.278c.216.182.554.21.808.068zm-2.27 4.87l-.009-.662a.735.735 0 00-.462-.666l-.407-.148a.16.16 0 00-.22.126l-.075.427a.735.735 0 00.346.733l.569.339c.125.074.26-.004.258-.15zm-6.856-.662l-.008.662c-.002.145.133.223.258.149l.568-.339a.735.735 0 00.346-.733l-.075-.427a.16.16 0 00-.22-.126l-.406.148a.735.735 0 00-.463.666zM5.572 2.637l.008.662c.004.291.198.57.463.666l.407.149a.16.16 0 00.22-.127l.074-.427a.735.735 0 00-.346-.733l-.568-.339c-.125-.074-.26.004-.258.15zm6.855.662l.009-.662c.002-.145-.133-.223-.258-.149l-.569.339a.735.735 0 00-.346.733l.075.427a.16.16 0 00.22.127l.407-.149a.735.735 0 00.462-.666z" clip-rule="evenodd"/></svg>