<svg xmlns="http://www.w3.org/2000/svg" width="36" height="36" viewBox="0 0 36 36"><path fill-rule="evenodd" d="M31.354 13.59a.594.594 0 01-.593.595h-3.223v2.861h3.223c.328 0 .593.266.593.594v.72a.593.593 0 01-.593.594h-3.223v2.862h3.223c.328 0 .593.266.593.594v.72a.594.594 0 01-.593.594h-3.223v.255a3.561 3.561 0 01-3.56 3.56h-.255v3.223a.593.593 0 01-.593.593h-.721a.594.594 0 01-.594-.593v-3.223h-2.862v3.223a.593.593 0 01-.593.593h-.721a.593.593 0 01-.593-.593v-3.223h-2.862v3.223a.594.594 0 01-.594.593h-.72a.593.593 0 01-.594-.593v-3.223h-.255a3.561 3.561 0 01-3.56-3.56v-.255H5.237a.593.593 0 01-.593-.593v-.721c0-.328.265-.594.593-.594H8.46v-2.862H5.238a.593.593 0 01-.593-.593v-.721c0-.328.265-.594.593-.594H8.46v-2.861H5.238a.594.594 0 01-.593-.594v-.72c0-.329.265-.594.593-.594H8.46v-.255a3.561 3.561 0 013.561-3.56h.255V5.238c0-.328.265-.593.593-.593h.72c.329 0 .595.265.595.593V8.46h2.862V5.24c0-.328.265-.593.593-.593h.72c.329 0 .594.265.594.593v3.22h2.862V5.24c0-.328.266-.593.594-.593h.72a.593.593 0 01.594.593v3.22h.255a3.561 3.561 0 013.56 3.561v.255h3.223c.328 0 .593.266.593.593v.72zm-7.377 12.05a1.664 1.664 0 001.662-1.662V12.023a1.664 1.664 0 00-1.662-1.662H12.021a1.664 1.664 0 00-1.662 1.662V23.98c.002.917.745 1.66 1.662 1.661h11.956zM13.444 12.18h9.11a1.269 1.269 0 011.266 1.266v9.11a1.269 1.269 0 01-1.266 1.266h-9.11a1.269 1.269 0 01-1.266-1.266v-9.11a1.269 1.269 0 011.266-1.266zm9.185 5.365V14.51h-.253l-2.537-.008h.025-.238.213c-.098.005-.35.03-.393.074a.26.26 0 00-.074.182v.694c0 .142.113.257.253.257h.944l-2.281 2.578a.127.127 0 01-.184.006l-1.088-1.103a.25.25 0 00-.358 0l-3.245 3.292a.26.26 0 000 .362l.543.55c.1.1.259.1.358 0l2.418-2.448a.15.15 0 01.215 0l1.11 1.124a.252.252 0 00.369-.01l3.012-3.45v.934c0 .141.113.256.252.257h.686c.14 0 .253-.115.253-.257z" clip-rule="evenodd"/></svg>