<svg xmlns="http://www.w3.org/2000/svg" width="25" height="24" viewBox="0 0 25 24"><path fill-rule="evenodd" d="M15.558 9.382c0 3.965-1.611 7.34-3.058 7.34-1.447 0-3.058-3.375-3.058-7.34s1.611-7.38 3.058-7.38c1.447 0 3.058 3.415 3.058 7.38zm-7.34 0c0 2.713.7 5.29 1.786 6.895-2.823-1.023-4.844-3.72-4.844-6.895a7.389 7.389 0 014.844-6.935C8.918 4.052 8.219 6.669 8.219 9.382zm6.778 6.895c2.823-1.023 4.844-3.72 4.844-6.895a7.389 7.389 0 00-4.844-6.935c1.087 1.605 1.785 4.222 1.785 6.935 0 2.713-.698 5.29-1.785 6.895zm-.686 2.541l1.042-1.625a7.348 7.348 0 002.143-1.4l-1.94 3.026h.09a.524.524 0 110 1.048h-.524v.559c0 .867-.706 1.572-1.573 1.572h-2.096a1.574 1.574 0 01-1.573-1.572v-.56h-.524a.524.524 0 110-1.047h.09l-1.94-3.026a7.348 7.348 0 002.143 1.4l1.042 1.625h1.286v-1.075l.06.005c.153.01.307.022.464.022.157 0 .31-.011.464-.022l.06-.005v1.076h1.286z" clip-rule="evenodd"/></svg>