<svg xmlns="http://www.w3.org/2000/svg" width="13" height="12" viewBox="0 0 13 12"><path fill-rule="evenodd" d="M4.956 10.794A5.019 5.019 0 011.5 6.019C1.5 3.247 3.739 1 6.5 1s5 2.247 5 5.019a5.019 5.019 0 01-3.456 4.775.442.442 0 00-.441-.42H6.94v-1.33a.443.443 0 00-.294-.417V5.576H8.85l-.776 2.066h-.03a1.101 1.101 0 001.865.001h.003l-.846-2.067h.668c.163 0 .205-.227.053-.285l-3.14-1.219v-.588a.443.443 0 00-.148-.86.442.442 0 00-.147.86v.588l-3.14 1.219c-.152.058-.11.285.053.285h.703L3.19 7.642h-.03a1.101 1.101 0 001.865.001h.003l-.846-2.067h2.17v3.051a.443.443 0 00-.294.418v1.328h-.662a.442.442 0 00-.44.42zm1.397-6.405v.892h-2.3l2.3-.892zm.294.892v-.892l2.3.892h-2.3zM6.5 3.288a.221.221 0 110-.442.221.221 0 010 .442zM3.343 7.642l.733-1.94.8 1.94H3.343zm4.884 0l.733-1.94.8 1.94H8.227z" clip-rule="evenodd"/></svg>