<svg xmlns="http://www.w3.org/2000/svg" width="18" height="18" viewBox="0 0 18 18"><g><path d="M2.438 12.49a.65.65 0 01.656-.643h5.25A.65.65 0 019 12.49v.367a.65.65 0 01-.656.643h-5.25a.65.65 0 01-.656-.643v-.367zM9.938 12.49a.65.65 0 01.656-.643h3.375a.65.65 0 01.656.643v.367a.65.65 0 01-.656.643h-3.375a.65.65 0 01-.656-.643v-.367zM4.313 8.816a.65.65 0 01.656-.643h10.875a.65.65 0 01.656.643v.368a.65.65 0 01-.656.643H4.969a.65.65 0 01-.657-.643v-.368zM1.5 5.143a.65.65 0 01.656-.643h2.438a.65.65 0 01.656.643v.367a.65.65 0 01-.656.643H2.156A.65.65 0 011.5 5.51v-.367zM6.188 5.143a.65.65 0 01.656-.643h5.25a.65.65 0 01.656.643v.367a.65.65 0 01-.656.643h-5.25a.65.65 0 01-.656-.643v-.367z"/></g></svg>