<svg xmlns="http://www.w3.org/2000/svg" width="18" height="18" viewBox="0 0 18 18"><path fill-rule="evenodd" d="M9.041 1.406a4.781 4.781 0 00-4.723 4.038.469.469 0 10.926.145 3.844 3.844 0 017.594 0 .469.469 0 00.926-.145 4.78 4.78 0 00-4.723-4.038zM7.808 4.773a.469.469 0 11-.616-.708 2.812 2.812 0 013.685-.005.469.469 0 11-.613.709 1.875 1.875 0 00-2.456.004zm5.88 3.653H4.312a.188.188 0 00-.187.188v6.374c0 .104.084.188.188.188h9.375a.187.187 0 00.187-.188V8.614a.187.187 0 00-.188-.188zm-9.376-.937c-.62 0-1.125.503-1.125 1.125v6.374c0 .622.504 1.125 1.126 1.125h9.375c.62 0 1.124-.503 1.124-1.124V8.614c0-.622-.503-1.125-1.124-1.125H4.312zm5.145 4.891a1.219 1.219 0 10-.938-.01v1.06a.469.469 0 10.938 0v-1.05zM8.253 5.927l.482.482a.327.327 0 00.463 0l.482-.482a.327.327 0 00-.075-.522 1.404 1.404 0 00-1.283 0 .332.332 0 00-.07.522z" clip-rule="evenodd"/></svg>