<svg xmlns="http://www.w3.org/2000/svg" width="18" height="18" viewBox="0 0 18 18"><path fill-rule="evenodd" d="M12.414 7.671l2.25.817-1.853 5.095c-.175.501-1.131 1.982-1.76 2.297l-.176.455a.301.301 0 01-.268.175h-.093c-.14-.047-.222-.222-.175-.362l.14-.408c-.315-.63-.093-2.53.046-2.938l1.89-5.13zm3.242-5.363c-.63-.222-1.353.222-1.54.816L12.765 6.82l2.25.817 1.353-3.697c.152-.501-.128-1.41-.711-1.632zM11.598 7.45c.047.047.14.047.175.047.222 0 .455-.14.502-.362L13.72 3.3c.094-.268-.046-.583-.314-.723-.269-.093-.583.047-.723.315l-1.446 3.836c-.093.315.046.63.361.723zm-2.297 7.217c-.14-.14-.315-.315-.63-.454a1.947 1.947 0 00-.676-.14H7.95c-.094-.315-.315-.502-.677-.537-.454-.093-.77.14-1.037.269 0-.14.046-.269.093-.362.093-.315.175-.676.093-.991a.539.539 0 00-.536-.455c-.676-.046-1.213.315-1.714.677-.501.361-.863.536-1.178.454-.408-.14-.454-1.212-.221-2.168.175-.863.501-2.484 1.306-3.207.268-.221.676-.501.99-.408.409.14.724.77.77 1.54a.629.629 0 00.63.535.629.629 0 00.536-.63c-.14-1.212-.676-2.215-1.492-2.53-.502-.174-1.26-.22-2.216.584C2.26 7.74 1.897 9.327 1.63 10.68c-.14.676-.455 2.973.991 3.521.898.315 1.62-.175 2.216-.583.093-.093.221-.14.314-.222-.093.409-.14.863.094 1.26.361.583.897.63 1.574.175.046 0 .046-.047.093-.047.047.14.175.268.361.361.222.14.502.14.677.14h.221c.094.047.175.094.315.222.093.093.175.175.315.268.093.093.221.14.361.14a.592.592 0 00.455-.222c.175-.268.14-.63-.14-.816-.047-.07-.14-.116-.175-.21z" clip-rule="evenodd"/></svg>