<svg xmlns="http://www.w3.org/2000/svg" width="18" height="18" viewBox="0 0 18 18"><path fill-rule="evenodd" d="M11.294 7.037c0 2.973-1.209 5.504-2.294 5.504s-2.294-2.53-2.294-5.504C6.706 4.063 7.915 1.5 9 1.5s2.294 2.562 2.294 5.536zm-5.505 0c0 2.034.524 3.966 1.339 5.17a5.502 5.502 0 01-3.633-5.17 5.542 5.542 0 013.633-5.202c-.815 1.204-1.339 3.167-1.339 5.202zm5.083 5.17a5.502 5.502 0 003.633-5.17 5.542 5.542 0 00-3.633-5.202c.815 1.204 1.34 3.167 1.34 5.202 0 2.034-.525 3.966-1.34 5.17zm-.514 1.907l.78-1.22a5.511 5.511 0 001.608-1.05l-1.454 2.27h.067a.393.393 0 110 .786h-.393v.42c0 .65-.53 1.179-1.18 1.179H8.214c-.65 0-1.18-.53-1.18-1.18V14.9h-.393a.393.393 0 110-.786h.068l-1.455-2.27a5.51 5.51 0 001.607 1.05l.782 1.22h.964v-.806l.045.003c.115.008.23.017.348.017.118 0 .233-.009.348-.017l.045-.003v.806h.965z" clip-rule="evenodd"/></svg>