<svg xmlns="http://www.w3.org/2000/svg" width="13" height="12" viewBox="0 0 13 12"><path fill-rule="evenodd" d="M4.95 6.675a4.487 4.487 0 01-.579-.183l-.003.003-1.511-.593c-.007-.004-.024-.007-.024-.007V1h4.102c1.531 0 2.771 1.25 2.771 2.794a2.8 2.8 0 01-1.24 2.331l-.946.373a4.3 4.3 0 01-1.975.277 5.42 5.42 0 01-.396-.056c-.067-.014-.133-.027-.199-.044zm2.49-2.657c0-.79-.634-1.43-1.418-1.43-.784 0-1.42.64-1.42 1.43 0 .79.636 1.43 1.42 1.43.784 0 1.419-.64 1.419-1.43zM3.916 11H2.833V6.532l1.604 1.12L3.915 11zm3.532-3.348L7.973 11H10.5L8.717 6.765l-1.27.887zM4.857 11l.427-.74a.76.76 0 011.32 0l.427.74H4.858z" clip-rule="evenodd"/></svg>