<svg xmlns="http://www.w3.org/2000/svg" width="25" height="24" viewBox="0 0 25 24"><path fill-rule="evenodd" d="M17.5 20.65l5-8.65-5-8.65h-10L2.5 12l5 8.65h10zm-.596-12.944c-.456-.792-.86-1.477-.898-1.522-.066-.078-.644-.083-3.644-.083h-.601c-2.352 0-2.624 0-2.72.135a.405.405 0 00-.034.06.36.36 0 01-.022.044c-.026.048-.476.825-1 1.726a707.925 707.925 0 00-1.711 2.959l-.539.934.088.128c.086.126.634 1.078 1.162 2.017a399.25 399.25 0 001.158 2.054c.099.164.48.835.534.94.032.062.154.269.27.46l.211.347h6.705l.102-.107c.055-.058.343-.53.64-1.05.296-.52.71-1.239.917-1.599.209-.36.38-.673.38-.696 0-.024-.625-.042-1.427-.042h-1.79l-.3.448c-.223.332-.327.45-.401.451-.562.012-3.451-.012-3.494-.029-.031-.012-.234-.367-.451-.789-.218-.421-.437-.83-.487-.908a.566.566 0 01-.092-.224c0-.075.068-.082.79-.082h.79l.31-.171c.171-.094.392-.218.492-.275l.83-.473c.356-.203.642-.39.633-.415-.008-.025-.514-.313-1.124-.64l-1.11-.593-.806.012c-.799.012-.805.011-.805-.09 0-.057.038-.16.084-.228.046-.07.274-.492.506-.94l.423-.814h3.71l.069.177c.037.097.112.278.167.401l.099.224h1.874c1.591 0 1.605-.002 1.424-.21-.047-.053-.457-.745-.912-1.537z" clip-rule="evenodd"/></svg>