<svg xmlns="http://www.w3.org/2000/svg" width="18" height="18" viewBox="0 0 18 18"><path fill-rule="evenodd" d="M12.891 14.72v-3.45l2.799-1.46v3.45l-2.799 1.46zm0-7.782l2.799-1.424V9l-2.799 1.424V6.938zM9.725 4.58l2.798-1.424 3.081 1.424-2.835 1.498L9.725 4.58zm-3.56-1.743L9 1.5l2.836 1.301L9 4.213 6.165 2.838zm-.97 3.24l-2.799-1.46 2.995-1.424 2.836 1.375-3.032 1.51zm-.086 4.346L2.31 9V5.514L5.11 6.938v3.486zm0 4.296L2.31 13.296V9.847l2.799 1.424v3.45zm7.12-4.517l-2.8-1.424V5.293l2.8 1.424v3.486zM8.595 16.5l-2.799-1.424V11.64l2.8 1.424V16.5zM9 9.307l3.044 1.534L9 12.461l-3.044-1.62L9 9.307zm-.454-.405l-2.799 1.424V6.84l2.799-1.424v3.486zm3.658 6.174L9.405 16.5v-3.45l2.799-1.423v3.45z" clip-rule="evenodd"/></svg>