<svg xmlns="http://www.w3.org/2000/svg" width="36" height="36" viewBox="0 0 36 36"><path fill-rule="evenodd" d="M29.25 4.125l-.185.006h-3.648a2.956 2.956 0 00-.385 0L7.5 4.125a2.255 2.255 0 00-2.25 2.25L5.2 11.47l-.375-.376c-.436-.44-1.06-.44-1.497 0-.437.439-.437 1.066 0 1.505l2.433 2.447c.437.439 1.061.439 1.498 0l2.246-2.447a1.14 1.14 0 000-1.6c-.436-.438-1.248-.344-1.685.095l-.374.376c0-4.224.044-4.977.053-5.08h17.673c.134.008.277.008.432 0h.06l2.836-.015v5.25c0 1.5 2.25 1.5 2.25 0v-6c0-.75-.75-1.5-1.5-1.5zM7.49 6.389c.003 0 .01-.016.009-.014l-.001.014H7.49zm0 0zM15 12.08a3 3 0 106 0 3 3 0 00-6 0zm3 9.859c2.108 0 4.594-.844 5.25-1.5v-1.5c0-1.313-.938-2.25-2.25-2.25h-6c-1.313 0-2.25.937-2.25 2.25v1.5c.656.656 3.142 1.5 5.25 1.5zm7.424 5.423l-6.674.014c-3.181 0-9 4.5-9 4.5v-4.5h-3c-.618 0-1.5-.88-1.5-1.5v-6.75c0-1.5 2.25-1.5 2.25 0v6h3l1.674-.02v2.569c2.33-1.729 4.884-2.551 6.576-2.551H27l.308-.005c.44-.008 1.193-.02 1.194-.022h.012l-.002-.43c-.003-.71-.012-2.373-.012-5.543l-.318.529c-.437.438-1.248.532-1.684.094a1.139 1.139 0 010-1.599l2.245-2.445c.436-.439 1.06-.439 1.497 0l2.432 2.445c.437.439.437 1.066 0 1.505-.436.438-1.06.438-1.496 0l-.426-.529v6a2.237 2.237 0 01-2.238 2.24h-2.95c-.048 0-.093-.002-.138-.004z" clip-rule="evenodd"/></svg>