<svg xmlns="http://www.w3.org/2000/svg" width="25" height="24" viewBox="0 0 25 24"><path fill-rule="evenodd" d="M22.5 12.427c0 3.492-1.5 6.086-4 8.106-1-3.535-2-6.565-2-6.565l-2 .505L13 9.93V7.91l3.5-1.01L12 4.88v5.05l-2.5 3.534-.5 2.02-2 1.515-1.575 2.573C2.228 16.338 1.578 11.34 3.841 7.383c2.263-3.957 6.874-5.887 11.245-4.705 4.37 1.181 7.411 5.18 7.414 9.749zm-7 2.551l1.575 6.474c-.16.053-.32.16-.479.215L15 15.988l-2 .505-.5-3.03-1 1.01-.5 2.525-2.809 1.123-1.276 2.686a4.675 4.675 0 01-.532-.379l1.596-2.954 2.521-.98.5-2.526 1.5-2.02 1 3.535 2-.505z" clip-rule="evenodd"/></svg>