<svg xmlns="http://www.w3.org/2000/svg" width="18" height="18" viewBox="0 0 18 18"><path fill-rule="evenodd" d="M11.11 8.156a1.266 1.266 0 110-2.531 1.266 1.266 0 010 2.531zm0-4.64L5.37 9.254a4.01 4.01 0 013.376 3.375l5.738-5.738C15.75 5.625 15.75 3.669 15.75 2.25c-1.419 0-3.375 0-4.64 1.266zM4.78 9l2.532-2.531C5.52 6.469 3.938 6.89 2.672 9h2.11zm4.22 4.219l2.53-2.531c0 1.792-.422 3.374-2.531 4.64v-2.11zm-6.206 1.986a.42.42 0 00.597 0l3.375-3.376a.422.422 0 10-.596-.596l-3.376 3.375a.422.422 0 000 .596zm-.123-1.986a.42.42 0 01-.298-.72l2.53-2.532a.422.422 0 11.597.597l-2.53 2.531a.42.42 0 01-.3.124zm2.233 2.407a.42.42 0 00.596 0l2.532-2.53a.422.422 0 10-.597-.597l-2.531 2.53a.422.422 0 000 .597z" clip-rule="evenodd"/></svg>