<svg xmlns="http://www.w3.org/2000/svg" width="13" height="12" viewBox="0 0 13 12"><path fill-rule="evenodd" d="M8.776 5.114l1.5.544-1.235 3.397c-.117.335-.754 1.322-1.174 1.532l-.117.303a.2.2 0 01-.179.116H7.51c-.093-.03-.147-.147-.116-.24l.093-.273c-.21-.42-.062-1.686.031-1.958l1.26-3.42zm2.161-3.575c-.42-.148-.901.147-1.026.544L9.01 4.547l1.5.544.902-2.464c.101-.334-.085-.94-.474-1.088zM8.232 4.967c.031.03.093.03.117.03.147 0 .303-.093.334-.24l.964-2.558c.062-.178-.031-.388-.21-.482-.179-.062-.389.032-.482.21l-.964 2.558c-.062.21.031.42.241.482zM6.701 9.778a1.297 1.297 0 00-.42-.303 1.298 1.298 0 00-.45-.093h-.032c-.062-.21-.21-.334-.45-.358-.304-.062-.514.094-.693.179a.55.55 0 01.063-.24c.062-.21.116-.452.062-.662a.36.36 0 00-.358-.303c-.45-.03-.808.21-1.142.451-.335.241-.576.358-.785.303-.273-.093-.304-.808-.148-1.446.116-.575.334-1.655.87-2.137.18-.148.451-.334.661-.272.272.093.482.513.513 1.026a.42.42 0 00.42.357.42.42 0 00.358-.42c-.094-.808-.451-1.476-.995-1.686-.335-.117-.84-.148-1.477.388-.692.599-.933 1.656-1.112 2.558-.093.45-.303 1.982.66 2.347.6.21 1.081-.116 1.478-.388.062-.063.147-.094.21-.148-.063.272-.094.575.062.84.24.388.598.42 1.05.116.03 0 .03-.031.061-.031.031.093.117.179.241.24.148.094.335.094.451.094h.148a.808.808 0 01.21.148c.062.062.116.117.21.179a.334.334 0 00.24.093.395.395 0 00.304-.148c.116-.178.093-.42-.094-.544-.03-.046-.093-.078-.116-.14z" clip-rule="evenodd"/></svg>