<svg xmlns="http://www.w3.org/2000/svg" width="36" height="36" viewBox="0 0 36 36"><path d="M14.25 18A3.761 3.761 0 0018 21.75 3.761 3.761 0 0021.75 18 3.761 3.761 0 0018 14.25 3.761 3.761 0 0014.25 18z"/><path fill-rule="evenodd" d="M30.698 16.875h1.177a1.125 1.125 0 010 2.25h-1.177c-.54 6.134-5.439 11.033-11.573 11.573v1.177a1.125 1.125 0 01-2.25 0v-1.177c-6.134-.54-11.033-5.439-11.572-11.573H4.125a1.125 1.125 0 010-2.25h1.178c.539-6.134 5.438-11.033 11.572-11.572V4.125a1.125 1.125 0 012.25 0v1.178c6.134.539 11.033 5.438 11.573 11.572zM7.5 18c0 5.79 4.71 10.5 10.5 10.5S28.5 23.79 28.5 18 23.79 7.5 18 7.5 7.5 12.21 7.5 18z" clip-rule="evenodd"/></svg>