<svg xmlns="http://www.w3.org/2000/svg" width="25" height="24" viewBox="0 0 25 24"><path d="M20.958 15.526v-7c.547-.105.876-.526.876-.947 0-.526-.493-1-1.04-1-.384 0-.603.158-.822.421l-6.514-3.632c.055-.105.055-.263.055-.368 0-.526-.493-1-1.04-1-.548 0-1.04.474-1.04 1 0 .158.054.263.054.368L5.028 6.895c-.219-.263-.547-.421-.821-.421a1.02 1.02 0 00-1.04 1c0 .526.438.894.876.947v7.105c-.548.106-.876.527-.876.948 0 .526.492 1 1.04 1 .383 0 .602-.158.821-.421l6.46 3.579c-.055.105-.055.263-.055.368 0 .526.492 1 1.04 1 .547 0 1.04-.474 1.04-1 0-.316-.164-.579-.438-.79l3.449-5.631 3.12 1.737v.105c0 .526.493 1 1.04 1a1.02 1.02 0 001.04-1c0-.503-.354-.895-.766-.895zm-.329-7v6.895L18.33 11.79l2.08-3.369c.055.053.11.053.22.105zm-.82-1.368c-.056.105-.056.263-.056.368 0 .316.165.58.438.79l-1.97 3.21-4.927-7.842.055-.052 6.46 3.526zM12.308 4l5.31 8.368-.767 1.264L8.915 9.21l3.23-5.264c.054 0 .109.053.164.053zm-.493-.21l-3.23 5.263-3.394-1.895 6.405-3.526c.11.052.164.105.219.158zM4.37 15.526v-7h.11l2.244 3.685-2.135 3.473c-.055-.105-.11-.105-.219-.158zm1.26-7.052l2.517 1.42-.82 1.317L5.63 8.474zm-.439 8.42c.055-.104.055-.262.055-.368 0-.315-.164-.579-.438-.79l2.025-3.315 4.872 7.895-.054.105-6.46-3.526zm7.664 3.211c-.055 0-.11-.052-.164-.052l-5.2-8.58L8.366 10l7.992 4.526-3.503 5.58zm4.927-7.368l1.478 2.368-2.19-1.21.712-1.158z"/><path fill-rule="evenodd" d="M4.809 15.737c.274.21.438.474.438.79 0 .105 0 .262-.055.368l6.46 3.526.054-.105-4.872-7.895-2.025 3.316zm2.026-2.934l-1.767 2.893c.23.22.379.497.379.83v.003a1.943 1.943 0 01-.017.268l5.836 3.186-4.43-7.18zM4.59 15.684l2.135-3.473-2.244-3.685h-.11v7c.024.012.045.02.064.029.069.029.112.047.155.13zm-.019-.35l1.92-3.124-1.92-3.15v6.273zM18.33 11.79l2.3 3.631V8.526c-.043-.02-.076-.032-.105-.043a1.142 1.142 0 01-.036-.013.229.229 0 01-.079-.049l-2.08 3.369zm-4.981-8.158l-.055.052 4.927 7.842 1.97-3.21c-.273-.21-.438-.474-.438-.79 0-.105 0-.263.055-.368l-6.46-3.526zm.443.47l4.427 7.045 1.713-2.79c-.23-.22-.379-.498-.379-.83v-.004c0-.05 0-.125.008-.202a.574.574 0 01.01-.065l-5.779-3.154zM20.43 8.77l-1.863 3.017 1.863 2.943V8.77zm-4.07 5.755L8.367 10l-.876 1.474 5.2 8.579c.028 0 .055.013.083.026a.2.2 0 00.082.026l3.503-5.579zm-3.567 5.306l3.287-5.235-7.64-4.326-.714 1.202 5.067 8.359zm3.732-5.253l3.12 1.737v.105c0 .526.493 1 1.04 1a1.02 1.02 0 001.04-1c0-.503-.354-.895-.766-.895v-7c.547-.105.876-.526.876-.947 0-.526-.493-1-1.04-1-.384 0-.603.158-.822.421l-6.514-3.632c.055-.105.055-.263.055-.368 0-.526-.493-1-1.04-1-.548 0-1.04.474-1.04 1 0 .087.016.158.031.222.012.052.023.1.023.146l-6.46 3.528c-.219-.263-.547-.421-.821-.421a1.02 1.02 0 00-1.04 1c0 .526.438.894.876.947v7.105c-.548.106-.876.527-.876.948 0 .526.492 1 1.04 1 .383 0 .602-.158.821-.421l6.46 3.579c-.055.105-.055.263-.055.368 0 .526.492 1 1.04 1 .547 0 1.04-.474 1.04-1 0-.316-.164-.579-.438-.79l3.449-5.631zm-3.19 5.59l3.26-5.322 2.85 1.586c.007.64.594 1.188 1.24 1.188.712 0 1.24-.563 1.24-1.2 0-.513-.32-.966-.766-1.071V8.682c.537-.168.875-.622.875-1.103 0-.644-.59-1.2-1.24-1.2-.22 0-.406.046-.569.137a1.274 1.274 0 00-.294.231l-6.234-3.475.009-.067c.008-.076.008-.15.008-.202V3c0-.644-.59-1.2-1.24-1.2s-1.24.556-1.24 1.2c0 .103.018.186.032.249l.002.007v.004l-6.2 3.385c-.244-.23-.567-.371-.86-.371-.712 0-1.24.562-1.24 1.2 0 .574.42.982.876 1.11v6.787c-.538.168-.876.622-.876 1.103 0 .644.59 1.2 1.24 1.2.221 0 .406-.046.57-.137a1.32 1.32 0 00.294-.232l6.179 3.424a1.104 1.104 0 00-.01.066c-.007.076-.007.15-.007.202V21c0 .644.59 1.2 1.24 1.2s1.24-.556 1.24-1.2c0-.333-.148-.61-.379-.83zM8.148 9.896L5.63 8.474l1.697 2.737.821-1.316zm-.82.937l.54-.866-1.657-.935 1.117 1.8zM12.21 4.22L9.194 9.137l7.587 4.226.602-.992-5.171-8.15zm5.407 8.148l-.766 1.264L8.915 9.21l3.23-5.264a.2.2 0 01.081.027c.028.013.055.026.082.026l5.31 8.368zM11.816 3.79a.739.739 0 00-.22-.158L5.193 7.158l3.394 1.895 3.23-5.263zm-3.3 4.994l2.992-4.875-5.903 3.25 2.911 1.625zm9.267 3.953l-.712 1.158 2.19 1.21-1.478-2.368zm0 .38l-.432.704 1.332.736-.9-1.44z" clip-rule="evenodd"/></svg>