<svg xmlns="http://www.w3.org/2000/svg" width="18" height="18" viewBox="0 0 18 18"><path fill-rule="evenodd" d="M5.634 13.031l1.894-5.606a1.917 1.917 0 011.838-1.313L8.68 8.156c-.01.028 0 .056.019.075a.085.085 0 00.066.028h1.003c.047 0 .093-.037.112-.084l2.381-7.05-1.846 2.822a5.281 5.281 0 00-1.454-.197A5.26 5.26 0 003.75 9.066a5.238 5.238 0 001.884 3.965zm3.282 1.219c2.896.037 5.296-2.297 5.334-5.194a5.249 5.249 0 00-1.884-4.087l-1.894 5.606a1.958 1.958 0 01-1.847 1.322l.797-2.353c.01-.028.01-.047-.01-.075-.018-.019-.037-.038-.065-.038H8.344c-.057 0-.094.038-.113.085l-2.494 7.359 1.838-2.822c.422.122.872.188 1.34.197z" clip-rule="evenodd"/></svg>