<svg xmlns="http://www.w3.org/2000/svg" width="18" height="18" viewBox="0 0 18 18"><path d="M8.25 12.75h-3a3.613 3.613 0 01-2.653-1.097A3.613 3.613 0 011.5 9c0-1.037.366-1.922 1.097-2.654.731-.73 1.616-1.096 2.653-1.096h3v1.5h-3a2.17 2.17 0 00-1.594.656A2.17 2.17 0 003 9c0 .625.219 1.156.656 1.594a2.17 2.17 0 001.594.656h3v1.5zM6 9.75v-1.5h6v1.5H6zm3.75 3v-1.5h3a2.17 2.17 0 001.594-.656A2.17 2.17 0 0015 9a2.17 2.17 0 00-.656-1.594 2.17 2.17 0 00-1.594-.656h-3v-1.5h3c1.037 0 1.922.365 2.653 1.096A3.616 3.616 0 0116.5 9c0 1.037-.366 1.922-1.097 2.653a3.615 3.615 0 01-2.653 1.097h-3z"/></svg>