<svg xmlns="http://www.w3.org/2000/svg" width="18" height="18" viewBox="0 0 18 18"><path d="M14.28 14.281h-2.222v-3.48c0-.83-.015-1.9-1.156-1.9-1.157 0-1.334.905-1.334 1.839v3.54H7.345V7.124h2.134v.978h.03a2.338 2.338 0 012.105-1.156c2.252 0 2.668 1.482 2.668 3.41l-.001 3.926zM4.838 6.145a1.29 1.29 0 110-2.58 1.29 1.29 0 010 2.58zM5.95 14.28H3.724V7.123h2.225v7.158zm9.44-12.78H2.607A1.095 1.095 0 001.5 2.582v12.836A1.096 1.096 0 002.607 16.5h12.782a1.097 1.097 0 001.111-1.082V2.58a1.097 1.097 0 00-1.111-1.08z"/></svg>