<svg xmlns="http://www.w3.org/2000/svg" width="13" height="12" viewBox="0 0 13 12"><path d="M10.125 8.225l-.75-.775a1.53 1.53 0 00.813-.532c.208-.262.312-.568.312-.918 0-.417-.146-.77-.438-1.063A1.447 1.447 0 009 4.5H7v-1h2a2.41 2.41 0 011.769.73A2.41 2.41 0 0111.5 6a2.461 2.461 0 01-1.375 2.225zM8.425 6.5l-1-1H8.5v1h-.075zm1.975 4.8L1.2 2.1l.7-.7 9.2 9.2-.7.7zM6 8.5H4a2.408 2.408 0 01-1.769-.732A2.408 2.408 0 011.5 6c0-.575.175-1.088.525-1.538.35-.45.8-.745 1.35-.887L4.3 4.5H4c-.417 0-.77.146-1.063.437A1.447 1.447 0 002.5 6c0 .417.146.77.437 1.062.292.292.646.438 1.063.438h2v1zm-1.5-2v-1h.812l.988 1H4.5z"/></svg>