<svg xmlns="http://www.w3.org/2000/svg" width="36" height="36" viewBox="0 0 36 36"><path d="M28.875 24.675l-2.25-2.325c1-.275 1.812-.807 2.437-1.595.625-.787.938-1.705.938-2.755 0-1.25-.438-2.313-1.313-3.188S26.75 13.5 25.5 13.5h-6v-3h6c2.075 0 3.844.73 5.307 2.193C32.269 14.156 33 15.925 33 18a7.381 7.381 0 01-1.106 3.937 7.186 7.186 0 01-3.02 2.738zm-5.1-5.175l-3-3H24v3h-.225zM29.7 33.9L2.1 6.3l2.1-2.1 27.6 27.6-2.1 2.1zm-13.2-8.4h-6c-2.075 0-3.844-.732-5.306-2.195C3.731 21.843 3 20.075 3 18c0-1.725.525-3.263 1.575-4.613a7.308 7.308 0 014.05-2.662L11.4 13.5h-.9c-1.25 0-2.313.437-3.188 1.312S6 16.75 6 18c0 1.25.437 2.312 1.312 3.187S9.25 22.5 10.5 22.5h6v3zm-4.5-6v-3h2.437l2.963 3H12z"/></svg>