<svg xmlns="http://www.w3.org/2000/svg" width="36" height="36" viewBox="0 0 36 36"><path d="M16.5 25.5h-6c-2.075 0-3.843-.732-5.306-2.195C3.732 21.843 3 20.075 3 18c0-2.075.732-3.844 2.194-5.307C6.657 11.231 8.425 10.5 10.5 10.5h6v3h-6c-1.25 0-2.313.438-3.188 1.313C6.438 15.687 6 16.75 6 18c0 1.25.438 2.313 1.313 3.188S9.25 22.5 10.5 22.5h6v3zm-4.5-6v-3h12v3H12zm7.5 6v-3h6c1.25 0 2.313-.438 3.188-1.313S30 19.25 30 18c0-1.25-.438-2.313-1.313-3.188-.875-.874-1.937-1.312-3.187-1.312h-6v-3h6c2.075 0 3.844.731 5.307 2.193C32.269 14.156 33 15.925 33 18s-.731 3.843-2.193 5.305C29.344 24.768 27.575 25.5 25.5 25.5h-6z"/></svg>