<svg xmlns="http://www.w3.org/2000/svg" width="25" height="24" viewBox="0 0 25 24"><path d="M11.5 17h-4c-1.383 0-2.562-.488-3.537-1.463C2.988 14.562 2.5 13.383 2.5 12s.488-2.563 1.463-3.538C4.938 7.487 6.117 7 7.5 7h4v2h-4c-.833 0-1.542.292-2.125.875A2.893 2.893 0 004.5 12c0 .833.292 1.542.875 2.125A2.893 2.893 0 007.5 15h4v2zm-3-4v-2h8v2h-8zm5 4v-2h4c.833 0 1.542-.292 2.125-.875A2.893 2.893 0 0020.5 12c0-.833-.292-1.542-.875-2.125A2.893 2.893 0 0017.5 9h-4V7h4c1.383 0 2.563.487 3.538 1.462.975.975 1.462 2.155 1.462 3.538s-.487 2.562-1.462 3.537C20.063 16.512 18.883 17 17.5 17h-4z"/></svg>