<svg xmlns="http://www.w3.org/2000/svg" width="13" height="12" viewBox="0 0 13 12"><path d="M6 8.5H4a2.408 2.408 0 01-1.768-.731A2.408 2.408 0 011.5 6c0-.692.244-1.281.732-1.769A2.409 2.409 0 014 3.5h2v1H4c-.417 0-.77.146-1.063.438A1.447 1.447 0 002.5 6c0 .417.146.77.438 1.063.291.291.645.437 1.062.437h2v1zm-1.5-2v-1h4v1h-4zm2.5 2v-1h2c.417 0 .77-.146 1.063-.438.291-.291.437-.645.437-1.062 0-.417-.146-.77-.438-1.063A1.447 1.447 0 009 4.5H7v-1h2a2.41 2.41 0 011.769.731A2.41 2.41 0 0111.5 6a2.41 2.41 0 01-.731 1.769A2.41 2.41 0 019 8.5H7z"/></svg>