<svg xmlns="http://www.w3.org/2000/svg" width="25" height="24" viewBox="0 0 25 24"><path d="M19.54 19.041h-2.962v-4.64c0-1.107-.02-2.532-1.542-2.532-1.543 0-1.78 1.206-1.78 2.45v4.722h-2.963V9.497h2.845v1.305h.04a3.117 3.117 0 012.807-1.542c3.003 0 3.557 1.976 3.557 4.546l-.001 5.235zM6.95 8.193a1.72 1.72 0 110-3.44 1.72 1.72 0 010 3.44zM8.43 19.04H5.465V9.497H8.43v9.544zM21.017 2H3.976A1.46 1.46 0 002.5 3.443v17.114A1.46 1.46 0 003.976 22h17.042a1.464 1.464 0 001.482-1.443V3.442A1.463 1.463 0 0021.018 2v.001z"/></svg>