<svg xmlns="http://www.w3.org/2000/svg" width="18" height="18" viewBox="0 0 18 18"><path d="M14.437 12.337l-1.125-1.162c.5-.138.907-.403 1.22-.797A2.15 2.15 0 0015 9a2.17 2.17 0 00-.656-1.594 2.17 2.17 0 00-1.594-.656h-3v-1.5h3c1.037 0 1.922.365 2.653 1.096A3.616 3.616 0 0116.5 9a3.69 3.69 0 01-.553 1.969 3.593 3.593 0 01-1.51 1.368zm-2.55-2.587l-1.5-1.5H12v1.5h-.113zm2.963 7.2L1.05 3.15 2.1 2.1l13.8 13.8-1.05 1.05zm-6.6-4.2h-3a3.612 3.612 0 01-2.653-1.097C1.866 10.922 1.5 10.037 1.5 9c0-.863.262-1.631.787-2.306a3.654 3.654 0 012.025-1.332L5.7 6.75h-.45a2.17 2.17 0 00-1.594.656A2.17 2.17 0 003 9c0 .625.219 1.156.656 1.594a2.17 2.17 0 001.594.656h3v1.5zM6 9.75v-1.5h1.219l1.48 1.5H6z"/></svg>