<svg xmlns="http://www.w3.org/2000/svg" width="36" height="36" viewBox="0 0 36 36"><path d="M18 31.5c-1.875 0-3.631-.356-5.268-1.068a13.715 13.715 0 01-4.275-2.889 13.715 13.715 0 01-2.889-4.275C4.856 21.631 4.5 19.875 4.5 18h3c0 2.925 1.019 5.406 3.057 7.443C12.594 27.481 15.075 28.5 18 28.5s5.406-1.019 7.443-3.057C27.481 23.406 28.5 20.925 28.5 18s-1.019-5.406-3.057-7.444C23.406 8.518 20.925 7.5 18 7.5h-.225L20.1 9.825 18 12l-6-6 6-6 2.1 2.175L17.775 4.5H18c1.875 0 3.631.356 5.27 1.07a13.73 13.73 0 014.274 2.886 13.75 13.75 0 012.888 4.274c.712 1.638 1.068 3.395 1.068 5.27 0 1.875-.356 3.631-1.068 5.268a13.728 13.728 0 01-2.887 4.275 13.738 13.738 0 01-4.276 2.889C21.633 31.144 19.876 31.5 18 31.5z"/></svg>