<svg xmlns="http://www.w3.org/2000/svg" width="13" height="12" viewBox="0 0 13 12"><path d="M6.5 10.5c-.625 0-1.21-.119-1.756-.356a4.572 4.572 0 01-1.425-.963 4.572 4.572 0 01-.963-1.425A4.354 4.354 0 012 6h1c0 .975.34 1.802 1.019 2.481C4.698 9.161 5.525 9.5 6.5 9.5c.975 0 1.802-.34 2.481-1.019C9.661 7.802 10 6.975 10 6c0-.975-.34-1.802-1.019-2.482C8.302 2.84 7.475 2.5 6.5 2.5h-.075l.775.775L6.5 4l-2-2 2-2 .7.725-.775.775H6.5c.625 0 1.21.119 1.757.357.545.237 1.02.557 1.425.961.403.405.724.88.962 1.425C10.881 4.79 11 5.375 11 6s-.119 1.21-.356 1.756a4.576 4.576 0 01-.963 1.425 4.58 4.58 0 01-1.424.963A4.359 4.359 0 016.5 10.5z"/></svg>