<svg xmlns="http://www.w3.org/2000/svg" width="25" height="24" viewBox="0 0 25 24"><path d="M12.5 21c-1.25 0-2.42-.237-3.512-.712a9.142 9.142 0 01-2.85-1.926 9.143 9.143 0 01-1.926-2.85A8.709 8.709 0 013.5 12h2c0 1.95.68 3.604 2.038 4.962C8.896 18.321 10.55 19 12.5 19c1.95 0 3.604-.68 4.962-2.038C18.821 15.604 19.5 13.95 19.5 12c0-1.95-.68-3.604-2.038-4.963C16.104 5.679 14.45 5 12.5 5h-.15l1.55 1.55L12.5 8l-4-4 4-4 1.4 1.45L12.35 3h.15c1.25 0 2.421.238 3.513.713a9.154 9.154 0 012.85 1.924 9.167 9.167 0 011.925 2.85A8.715 8.715 0 0121.5 12c0 1.25-.237 2.42-.712 3.512a9.151 9.151 0 01-1.925 2.85 9.158 9.158 0 01-2.85 1.926A8.715 8.715 0 0112.5 21z"/></svg>