<svg xmlns="http://www.w3.org/2000/svg" width="18" height="18" viewBox="0 0 18 18"><path d="M9 15.75a6.532 6.532 0 01-2.634-.534 6.857 6.857 0 01-2.137-1.444 6.857 6.857 0 01-1.445-2.138A6.532 6.532 0 012.25 9h1.5c0 1.463.51 2.703 1.529 3.722C6.296 13.74 7.537 14.25 9 14.25s2.703-.51 3.722-1.528C13.74 11.703 14.25 10.462 14.25 9c0-1.463-.51-2.703-1.528-3.722C11.703 4.259 10.462 3.75 9 3.75h-.113l1.163 1.162L9 6 6 3l3-3 1.05 1.087L8.887 2.25H9c.938 0 1.816.178 2.635.535a6.865 6.865 0 012.137 1.443 6.875 6.875 0 011.444 2.137c.356.82.534 1.697.534 2.635 0 .938-.178 1.816-.534 2.634a6.864 6.864 0 01-1.444 2.137 6.87 6.87 0 01-2.137 1.445A6.536 6.536 0 019 15.75z"/></svg>