<svg xmlns="http://www.w3.org/2000/svg" width="18" height="18" viewBox="0 0 18 18"><path d="M14.393 6.577c-.23 0-.446-.042-.646-.127a1.668 1.668 0 01-.87-.87 1.632 1.632 0 01-.127-.645 1.613 1.613 0 01.48-1.155c.15-.15.322-.268.518-.353.2-.09.415-.132.645-.127.224-.005.437.037.637.127a1.644 1.644 0 01.878 2.153 1.668 1.668 0 01-.878.87c-.2.085-.412.127-.637.127zm0-2.34a.75.75 0 00-.518.203.702.702 0 00-.188.495c0 .195.063.362.188.502.15.125.322.188.518.188.194 0 .36-.063.494-.188a.64.64 0 00.21-.502c0-.195-.07-.36-.21-.495a.673.673 0 00-.495-.203zm2.107 3.51v3.503c0 .315-.06.615-.18.9-.13.285-.297.532-.502.742a2.327 2.327 0 01-.75.503 2.305 2.305 0 01-.908.188c-.19 0-.38-.028-.57-.083a1.684 1.684 0 01-.533-.188 3.63 3.63 0 01-.532 1.08c-.235.325-.51.603-.825.833-.315.23-.662.405-1.042.525a3.718 3.718 0 01-2.543-.045A3.8 3.8 0 016.99 15a3.749 3.749 0 01-1.245-2.325H2.122a.622.622 0 01-.442-.188.593.593 0 01-.18-.434V5.796c0-.17.06-.317.18-.442.13-.12.278-.18.443-.18H7.5a2.178 2.178 0 01-.045-1.8c.11-.25.265-.48.465-.69.2-.195.435-.35.705-.465.25-.115.53-.173.84-.173.305 0 .59.058.855.173.265.115.498.27.697.465.2.21.356.44.466.69.114.27.172.557.172.862 0 .3-.057.585-.172.855a2.05 2.05 0 01-.466.69c-.2.2-.432.358-.697.473a2.124 2.124 0 01-1.088.157A4.465 4.465 0 019 6.375v.675h6.795c.195 0 .362.067.502.202.136.135.203.3.203.495zM9.473 3c-.176 0-.333.027-.473.082a1.215 1.215 0 00-.42.27c-.11.115-.197.248-.262.398a1.248 1.248 0 00-.098.487c0 .175.032.338.098.488.065.15.152.282.262.397.115.11.255.2.42.27.14.065.297.098.473.098.17 0 .33-.033.48-.098a1.273 1.273 0 00.667-.667c.07-.15.105-.313.105-.488 0-.17-.035-.332-.105-.487a1.273 1.273 0 00-.667-.668A1.383 1.383 0 009.473 3zM5.835 7.635h1.41v-1.17h-3.99v1.17h1.41v3.75h1.17v-3.75zm6.45 4.568V7.987H9v4.066c0 .17-.06.314-.18.434a.622.622 0 01-.443.188H6.69a2.952 2.952 0 00.967 1.68c.24.205.515.367.825.487.306.105.636.158.99.158a2.92 2.92 0 001.088-.203 2.805 2.805 0 001.5-1.5c.15-.34.225-.704.225-1.094zm3.277-.953V7.987h-2.34v4.283c.126.125.268.22.428.285.15.06.32.09.51.09.195 0 .377-.037.547-.112.17-.075.318-.175.443-.3.13-.126.23-.276.3-.45.075-.17.113-.348.113-.533z"/></svg>