<svg xmlns="http://www.w3.org/2000/svg" width="24" height="24" viewBox="0 0 24 24"><path d="M19.188 9.073a2.193 2.193 0 002.187-2.199c0-1.214-.98-2.199-2.187-2.199A2.193 2.193 0 0017 6.874c0 1.214.98 2.199 2.188 2.199z"/><path fill-rule="evenodd" d="M18.534 16.614v-5.97a.944.944 0 00-.936-.943h3.465c.514 0 .937.425.937.942v4.673c-.001 1.724-1.413 3.142-3.129 3.142-.216 0-.43-.022-.642-.066l-.02-.005c.21-.553.325-1.15.325-1.773zM11.166 7.188H2.833A.84.84 0 002 8.025v8.376c0 .46.376.838.833.838h8.333A.84.84 0 0012 16.4V8.025a.84.84 0 00-.833-.837zM7.62 10.313h1.869V9.076H4.513v1.237h1.879v5.039h1.227v-5.039z" clip-rule="evenodd"/><path fill-rule="evenodd" d="M9.989 7.188h2.086a.84.84 0 01.833.837v.825a2.926 2.926 0 002.634-2.918A2.924 2.924 0 0012.625 3a2.924 2.924 0 00-2.917 2.932c0 .45.1.875.28 1.256zM7.863 18.148a4.532 4.532 0 00.437.976 4.998 4.998 0 004.328 2.512c2.741 0 4.997-2.267 4.997-5.022v-5.97a.944.944 0 00-.936-.943h-3.78v7.61a.84.84 0 01-.834.837H7.863z" clip-rule="evenodd"/></svg>