<svg xmlns="http://www.w3.org/2000/svg" width="36" height="36" viewBox="0 0 36 36"><path d="M28.785 13.155c-.46 0-.89-.085-1.29-.255a3.336 3.336 0 01-1.035-.705c-.3-.3-.535-.645-.705-1.035-.17-.4-.255-.83-.255-1.29 0-.45.085-.875.255-1.275.17-.4.405-.745.705-1.035.3-.3.645-.535 1.035-.705.4-.18.83-.265 1.29-.255.45-.01.875.075 1.275.255.4.17.75.405 1.05.705.29.29.525.635.705 1.035.17.4.255.825.255 1.275 0 .46-.085.89-.255 1.29a3.336 3.336 0 01-1.755 1.74c-.4.17-.825.255-1.275.255zm0-4.68c-.39 0-.735.135-1.035.405-.25.27-.375.6-.375.99s.125.725.375 1.005c.3.25.645.375 1.035.375.39 0 .72-.125.99-.375.28-.25.42-.585.42-1.005 0-.39-.14-.72-.42-.99-.27-.27-.6-.405-.99-.405zM33 15.495V22.5c0 .63-.12 1.23-.36 1.8a5.183 5.183 0 01-1.005 1.485c-.43.43-.93.765-1.5 1.005a4.61 4.61 0 01-1.815.375c-.38 0-.76-.055-1.14-.165a3.368 3.368 0 01-1.065-.375c-.24.79-.595 1.51-1.065 2.16a7.45 7.45 0 01-1.65 1.665c-.63.46-1.325.81-2.085 1.05-.76.27-1.55.405-2.37.405-.96 0-1.865-.165-2.715-.495A7.6 7.6 0 0113.98 30a7.245 7.245 0 01-1.635-2.04c-.44-.8-.725-1.67-.855-2.61H4.245c-.33 0-.625-.125-.885-.375-.24-.24-.36-.53-.36-.87v-12.51c0-.34.12-.635.36-.885.26-.24.555-.36.885-.36H15a4.259 4.259 0 01-.435-1.875c0-.61.115-1.185.345-1.725.22-.5.53-.96.93-1.38.4-.39.87-.7 1.41-.93.5-.23 1.06-.345 1.68-.345.61 0 1.18.115 1.71.345.53.23.995.54 1.395.93.4.42.71.88.93 1.38.23.54.345 1.115.345 1.725 0 .6-.115 1.17-.345 1.71a4.1 4.1 0 01-.93 1.38c-.4.4-.865.715-1.395.945a4.249 4.249 0 01-2.175.315A8.93 8.93 0 0118 12.75v1.35h13.59c.39 0 .725.135 1.005.405.27.27.405.6.405.99zM18.945 6c-.35 0-.665.055-.945.165-.33.13-.61.31-.84.54-.22.23-.395.495-.525.795-.13.31-.195.635-.195.975 0 .35.065.675.195.975.13.3.305.565.525.795.23.22.51.4.84.54.28.13.595.195.945.195.34 0 .66-.065.96-.195.3-.14.565-.32.795-.54.23-.23.41-.495.54-.795.14-.3.21-.625.21-.975 0-.34-.07-.665-.21-.975a2.545 2.545 0 00-1.335-1.335c-.3-.11-.62-.165-.96-.165zm-7.275 9.27h2.82v-2.34H6.51v2.34h2.82v7.5h2.34v-7.5zm12.9 9.135v-8.43H18v8.13c0 .34-.12.63-.36.87-.26.25-.555.375-.885.375H13.38c.13.67.365 1.295.705 1.875.34.57.75 1.065 1.23 1.485.48.41 1.03.735 1.65.975.61.21 1.27.315 1.98.315a5.84 5.84 0 002.175-.405c.68-.3 1.28-.705 1.8-1.215a5.61 5.61 0 001.2-1.785c.3-.68.45-1.41.45-2.19zm6.555-1.905v-6.525h-4.68v8.565c.25.25.535.44.855.57.3.12.64.18 1.02.18.39 0 .755-.075 1.095-.225.34-.15.635-.35.885-.6.26-.25.46-.55.6-.9.15-.34.225-.695.225-1.065z"/></svg>