<svg xmlns="http://www.w3.org/2000/svg" width="18" height="18" viewBox="0 0 18 18"><g><path d="M14.031 6.236c.846 0 1.531-.687 1.531-1.534a1.532 1.532 0 10-3.062 0c0 .847.686 1.534 1.531 1.534z"/><path fill-rule="evenodd" d="M13.574 11.496V7.332a.66.66 0 00-.655-.658h2.425a.66.66 0 01.656.658v3.259c0 1.203-.99 2.192-2.19 2.192-.151 0-.302-.015-.45-.046l-.014-.004a3.46 3.46 0 00.228-1.237zM8.416 4.921H2.583A.586.586 0 002 5.506v5.842c0 .32.263.584.583.584h5.833c.32 0 .584-.263.584-.584V5.506a.586.586 0 00-.584-.585zm-2.482 2.18H7.24v-.863H3.76v.864h1.315v3.514h.86V7.102z" clip-rule="evenodd"/><path fill-rule="evenodd" d="M7.592 4.921h1.46c.32 0 .584.264.584.585v.575a2.044 2.044 0 001.843-2.036C11.48 2.915 10.565 2 9.438 2a2.044 2.044 0 00-1.846 2.921zM6.104 12.567a3.157 3.157 0 00.306.68A3.5 3.5 0 009.44 15c1.918 0 3.497-1.582 3.497-3.504V7.332a.66.66 0 00-.655-.658H9.636v5.308c0 .321-.263.585-.583.585h-2.95z" clip-rule="evenodd"/></g></svg>