<svg xmlns="http://www.w3.org/2000/svg" width="25" height="24" viewBox="0 0 25 24"><path d="M19.69 8.77c-.307 0-.593-.057-.86-.17a2.224 2.224 0 01-1.16-1.16 2.176 2.176 0 01-.17-.86 2.151 2.151 0 01.64-1.54c.2-.2.43-.357.69-.47a1.96 1.96 0 01.86-.17c.3-.007.583.05.85.17.267.113.5.27.7.47a2.3 2.3 0 01.47.69c.113.267.17.55.17.85 0 .307-.057.593-.17.86a2.223 2.223 0 01-1.17 1.16 2.15 2.15 0 01-.85.17zm0-3.12c-.26 0-.49.09-.69.27-.167.18-.25.4-.25.66s.083.483.25.67c.2.167.43.25.69.25.26 0 .48-.083.66-.25.187-.167.28-.39.28-.67a.88.88 0 00-.28-.66.898.898 0 00-.66-.27zm2.81 4.68V15c0 .42-.08.82-.24 1.2-.173.38-.397.71-.67.99a3.1 3.1 0 01-1 .67c-.393.167-.797.25-1.21.25-.253 0-.507-.037-.76-.11a2.246 2.246 0 01-.71-.25 4.841 4.841 0 01-.71 1.44c-.313.433-.68.803-1.1 1.11a4.77 4.77 0 01-1.39.7c-.507.18-1.033.27-1.58.27-.64 0-1.243-.11-1.81-.33a5.067 5.067 0 01-1.5-.94 4.83 4.83 0 01-1.09-1.36 5 5 0 01-.57-1.74H3.33a.83.83 0 01-.59-.25.79.79 0 01-.24-.58V7.73c0-.227.08-.423.24-.59.173-.16.37-.24.59-.24h7.17a2.904 2.904 0 01-.06-2.4 3.2 3.2 0 01.62-.92c.267-.26.58-.467.94-.62a2.65 2.65 0 011.12-.23c.407 0 .787.077 1.14.23.353.153.663.36.93.62a3.2 3.2 0 01.62.92c.153.36.23.743.23 1.15 0 .4-.077.78-.23 1.14-.147.353-.353.66-.62.92a2.98 2.98 0 01-.93.63 2.832 2.832 0 01-1.45.21 5.67 5.67 0 01-.31-.05v.9h9.06c.26 0 .483.09.67.27.18.18.27.4.27.66zM13.13 4a1.72 1.72 0 00-.63.11 1.62 1.62 0 00-.56.36c-.147.153-.263.33-.35.53-.087.207-.13.423-.13.65 0 .233.043.45.13.65.087.2.203.377.35.53.153.147.34.267.56.36.187.087.397.13.63.13.227 0 .44-.043.64-.13.2-.093.377-.213.53-.36.153-.153.273-.33.36-.53.093-.2.14-.417.14-.65 0-.227-.047-.443-.14-.65a1.698 1.698 0 00-.89-.89 1.85 1.85 0 00-.64-.11zm-4.85 6.18h1.88V8.62H4.84v1.56h1.88v5h1.56v-5zm8.6 6.09v-5.62H12.5v5.42a.79.79 0 01-.24.58.83.83 0 01-.59.25H9.42c.087.447.243.863.47 1.25.227.38.5.71.82.99.32.273.687.49 1.1.65.407.14.847.21 1.32.21.513 0 .997-.09 1.45-.27.453-.2.853-.47 1.2-.81.34-.34.607-.737.8-1.19.2-.453.3-.94.3-1.46zM21.25 15v-4.35h-3.12v5.71c.167.167.357.293.57.38.2.08.427.12.68.12.26 0 .503-.05.73-.15.227-.1.423-.233.59-.4a1.7 1.7 0 00.4-.6c.1-.227.15-.463.15-.71z"/></svg>