<svg xmlns="http://www.w3.org/2000/svg" width="13" height="12" viewBox="0 0 13 12"><path d="M5.828 8l1.297-4.5h.434L6.262 8h-.434zM2.5 7.554V4.05h.663l1.135 1.97.373.745h.023a26.466 26.466 0 00-.056-.584 6.962 6.962 0 01-.028-.61V4.05h.618v3.503h-.663L3.43 5.582l-.373-.744h-.023l.05.584c.023.203.034.403.034.6v1.532H2.5z"/><path fill-rule="evenodd" d="M8.557 4.05L7.371 7.555h.657l.284-.949h1.225l.284.949h.679L9.314 4.05h-.757zm-.095 2.068l.128-.428c.06-.186.115-.375.167-.568.056-.197.108-.393.156-.59h.023l.155.584c.056.197.114.388.173.574l.128.428h-.93z" clip-rule="evenodd"/><path fill-rule="evenodd" d="M1 3a1 1 0 011-1h9a1 1 0 011 1v6a1 1 0 01-1 1H2a1 1 0 01-1-1V3zm1-.25h9a.25.25 0 01.25.25v6a.25.25 0 01-.25.25H2A.25.25 0 011.75 9V3A.25.25 0 012 2.75z" clip-rule="evenodd"/></svg>