<svg xmlns="http://www.w3.org/2000/svg" width="18" height="18" viewBox="0 0 18 18"><g><path d="M7.992 12l1.946-6.75h.651L8.643 12h-.651zM3 11.33V6.076h.994l1.703 2.956.56 1.117h.033c-.022-.268-.05-.56-.083-.875a10.444 10.444 0 01-.042-.916V6.076h.927v5.254h-.994L4.395 8.374l-.56-1.117h-.033c.022.278.047.57.075.876.033.305.05.605.05.9v2.297H3z"/><path fill-rule="evenodd" d="M12.085 6.076l-1.778 5.254h.985l.426-1.422h1.837l.426 1.422H15l-1.779-5.254h-1.136zm-.141 3.101l.192-.643c.089-.278.172-.562.25-.851.084-.295.162-.59.234-.884h.033l.234.876c.084.294.17.58.26.86l.191.642h-1.394z" clip-rule="evenodd"/><path fill-rule="evenodd" d="M.75 4.5A1.5 1.5 0 012.25 3h13.5a1.5 1.5 0 011.5 1.5v9a1.5 1.5 0 01-1.5 1.5H2.25a1.5 1.5 0 01-1.5-1.5v-9zm1.5-.375h13.5c.207 0 .375.168.375.375v9a.375.375 0 01-.375.375H2.25a.375.375 0 01-.375-.375v-9c0-.207.168-.375.375-.375z" clip-rule="evenodd"/></g></svg>