<svg xmlns="http://www.w3.org/2000/svg" width="12" height="12" viewBox="0 0 12 12"><path fill-rule="evenodd" d="M1.333 2.8a.533.533 0 00-.533.533v5.334c0 .294.239.533.533.533h9.334a.533.533 0 00.533-.533V3.333a.533.533 0 00-.533-.533H1.333zM0 3.333C0 2.597.597 2 1.333 2h9.334C11.403 2 12 2.597 12 3.333v5.334C12 9.403 11.403 10 10.667 10H1.333A1.333 1.333 0 010 8.667V3.333z" clip-rule="evenodd"/><path d="M2.396 7.667V4.179h.635l1.087 1.963.358.74h.021a23.563 23.563 0 00-.053-.58 7.204 7.204 0 01-.027-.608V4.179h.592v3.488h-.635L3.288 5.704l-.358-.741h-.021c.014.185.03.379.048.581.021.203.032.402.032.598v1.525h-.592zM5.517 8.52L6.76 3.88h.416L5.933 8.52h-.416zM8.23 5.81l-.122.428h.89l-.122-.427a18.464 18.464 0 01-.315-1.152H8.54l-.15.587c-.05.192-.103.38-.16.565zM7.062 7.668l1.136-3.488h.726l1.136 3.488h-.651l-.272-.944H7.964l-.272.944h-.63z"/></svg>