<svg xmlns="http://www.w3.org/2000/svg" width="24" height="24" viewBox="0 0 24 24"><path fill-rule="evenodd" d="M2.667 5.6c-.59 0-1.067.478-1.067 1.067v10.666c0 .59.478 1.067 1.067 1.067h18.666c.59 0 1.067-.478 1.067-1.067V6.667c0-.59-.478-1.067-1.067-1.067H2.667zM0 6.667A2.667 2.667 0 012.667 4h18.666A2.667 2.667 0 0124 6.667v10.666A2.667 2.667 0 0121.333 20H2.667A2.667 2.667 0 010 17.333V6.667z" clip-rule="evenodd"/><path d="M4.792 15.334V8.358H6.06l2.176 3.925.715 1.483h.042c-.028-.363-.064-.75-.106-1.163-.036-.42-.054-.825-.054-1.216v-3.03h1.184v6.977H8.75l-2.176-3.926-.715-1.482h-.042c.028.37.06.757.096 1.162.042.406.064.804.064 1.195v3.05H4.792zM11.034 17.04l2.486-9.28h.832l-2.486 9.28h-.832zM16.46 11.622l-.245.853h1.782l-.246-.853c-.114-.37-.224-.75-.33-1.142l-.3-1.162h-.042l-.299 1.173c-.099.384-.206.761-.32 1.13zm-2.336 3.712l2.272-6.976h1.451l2.272 6.976h-1.301l-.544-1.888h-2.347l-.544 1.888h-1.258z"/></svg>