<svg xmlns="http://www.w3.org/2000/svg" width="36" height="36" viewBox="0 0 36 36"><path fill-rule="evenodd" d="M4 8.4A1.6 1.6 0 002.4 10v16A1.6 1.6 0 004 27.6h28a1.6 1.6 0 001.6-1.6V10A1.6 1.6 0 0032 8.4H4zM0 10a4 4 0 014-4h28a4 4 0 014 4v16a4 4 0 01-4 4H4a4 4 0 01-4-4V10z" clip-rule="evenodd"/><path d="M7.188 23V12.538h1.904l3.263 5.888 1.072 2.224h.065a70.993 70.993 0 00-.16-1.744c-.054-.63-.08-1.238-.08-1.824v-4.544h1.775V23h-1.903L9.86 17.113l-1.072-2.224h-.065c.043.554.091 1.136.144 1.744.064.608.096 1.205.096 1.792V23H7.188zM16.552 25.56l3.728-13.92h1.247L17.8 25.56h-1.247zM24.69 17.433l-.367 1.28h2.672l-.368-1.28a55.4 55.4 0 01-.496-1.712c-.15-.587-.299-1.168-.448-1.744h-.064l-.448 1.76a38.92 38.92 0 01-.48 1.696zM21.188 23l3.408-10.464h2.176L30.179 23h-1.952l-.816-2.832h-3.52L23.075 23h-1.888z"/></svg>