<svg xmlns="http://www.w3.org/2000/svg" width="36" height="36" viewBox="0 0 36 36"><path d="M15.984 24l3.892-13.5h1.302L17.287 24h-1.303zM6 22.66V12.153h1.988l3.407 5.913 1.119 2.233h.067a79.64 79.64 0 00-.167-1.751 20.916 20.916 0 01-.084-1.832v-4.563h1.854V22.66h-1.988L8.79 16.747l-1.12-2.233h-.067c.045.557.095 1.14.15 1.751.068.61.1 1.21.1 1.8v4.596H6z"/><path fill-rule="evenodd" d="M24.171 12.152L20.613 22.66h1.971l.852-2.845h3.675l.851 2.845H30l-3.558-10.51h-2.271zm-.284 6.202l.384-1.285c.178-.557.345-1.125.501-1.704.167-.589.323-1.178.468-1.767h.067c.156.578.312 1.162.467 1.751.167.59.34 1.163.518 1.72l.384 1.285h-2.789z" clip-rule="evenodd"/><path fill-rule="evenodd" d="M1.5 9a3 3 0 013-3h27a3 3 0 013 3v18a3 3 0 01-3 3h-27a3 3 0 01-3-3V9zm3-.75h27a.75.75 0 01.75.75v18a.75.75 0 01-.75.75h-27a.75.75 0 01-.75-.75V9a.75.75 0 01.75-.75z" clip-rule="evenodd"/></svg>