<svg xmlns="http://www.w3.org/2000/svg" width="36" height="36" viewBox="0 0 36 36"><path d="M18 30c-3.35 0-6.188-1.163-8.512-3.488C7.163 24.188 6 21.35 6 18c0-3.35 1.162-6.188 3.488-8.512C11.813 7.163 14.65 6 18 6c1.725 0 3.375.356 4.95 1.07A11.426 11.426 0 0127 10.124V6h3v10.5H19.5v-3h6.3c-.8-1.4-1.893-2.5-3.28-3.3A8.895 8.895 0 0018 9c-2.5 0-4.625.875-6.375 2.625S9 15.5 9 18s.875 4.625 2.625 6.375S15.5 27 18 27c1.925 0 3.663-.55 5.212-1.65A8.714 8.714 0 0026.475 21h3.15c-.7 2.65-2.125 4.813-4.275 6.488C23.2 29.163 20.75 30 18 30z"/></svg>