<svg xmlns="http://www.w3.org/2000/svg" width="18" height="18" viewBox="0 0 18 18"><path d="M9 15c-1.675 0-3.094-.581-4.256-1.744C3.58 12.094 3 10.675 3 9c0-1.675.581-3.094 1.744-4.256C5.906 3.58 7.325 3 9 3c.863 0 1.688.178 2.475.535A5.713 5.713 0 0113.5 5.062V3H15v5.25H9.75v-1.5h3.15c-.4-.7-.947-1.25-1.64-1.65-.694-.4-1.447-.6-2.26-.6-1.25 0-2.313.438-3.188 1.313S4.5 7.75 4.5 9c0 1.25.438 2.313 1.313 3.188C6.688 13.062 7.75 13.5 9 13.5c.963 0 1.831-.275 2.606-.825a4.357 4.357 0 001.632-2.175h1.575a5.922 5.922 0 01-2.138 3.244A5.82 5.82 0 019 15z"/></svg>