<svg xmlns="http://www.w3.org/2000/svg" width="24" height="24" viewBox="0 0 24 24"><path fill-rule="evenodd" d="M5 2a1 1 0 00-1 1v4a1 1 0 001 1h1v10a2 2 0 002 2h6v1.143c0 .473.384.857.857.857h4.286a.857.857 0 00.857-.857v-4.286a.857.857 0 00-.857-.857h-4.286a.857.857 0 00-.857.857V18H8v-5h6v1.143c0 .473.384.857.857.857h4.286a.857.857 0 00.857-.857V9.857A.857.857 0 0019.143 9h-4.286a.857.857 0 00-.857.857V11H8V8h1a1 1 0 001-1V3a1 1 0 00-1-1H5zm11 18v-2h2v2h-2zm0-9v2h2v-2h-2z" clip-rule="evenodd"/></svg>