<svg xmlns="http://www.w3.org/2000/svg" width="36" height="36" viewBox="0 0 36 36"><path fill-rule="evenodd" d="M4 8.4A1.6 1.6 0 002.4 10v16A1.6 1.6 0 004 27.6h28a1.6 1.6 0 001.6-1.6V10A1.6 1.6 0 0032 8.4H4zM0 10a4 4 0 014-4h28a4 4 0 014 4v16a4 4 0 01-4 4H4a4 4 0 01-4-4V10z" clip-rule="evenodd"/><path fill-rule="evenodd" d="M21.253 12.666a1.4 1.4 0 111.98 1.98L19.98 17.9l3.253 3.252a1.4 1.4 0 11-1.98 1.98L18 19.88l-3.253 3.252a1.4 1.4 0 01-1.98-1.98L16.02 17.9l-3.253-3.253a1.4 1.4 0 011.98-1.98L18 15.92l3.253-3.253z" clip-rule="evenodd"/></svg>