<svg xmlns="http://www.w3.org/2000/svg" width="12" height="12" viewBox="0 0 12 12"><path fill-rule="evenodd" d="M1.333 2.8a.533.533 0 00-.533.533v5.334c0 .294.239.533.533.533h9.334a.533.533 0 00.533-.533V3.333a.533.533 0 00-.533-.533H1.333zM0 3.333C0 2.597.597 2 1.333 2h9.334C11.403 2 12 2.597 12 3.333v5.334C12 9.403 11.403 10 10.667 10H1.333A1.333 1.333 0 010 8.667V3.333z" clip-rule="evenodd"/><path fill-rule="evenodd" d="M7.084 4.222a.467.467 0 01.66.66L6.66 5.966 7.744 7.05a.467.467 0 11-.66.66L6 6.626 4.916 7.71a.467.467 0 01-.66-.66L5.34 5.966 4.256 4.882a.467.467 0 11.66-.66L6 5.306l1.084-1.084z" clip-rule="evenodd"/></svg>