<svg xmlns="http://www.w3.org/2000/svg" width="18" height="18" viewBox="0 0 18 18"><path fill-rule="evenodd" d="M2 4.2a.8.8 0 00-.8.8v8a.8.8 0 00.8.8h14a.8.8 0 00.8-.8V5a.8.8 0 00-.8-.8H2zM0 5a2 2 0 012-2h14a2 2 0 012 2v8a2 2 0 01-2 2H2a2 2 0 01-2-2V5z" clip-rule="evenodd"/><path fill-rule="evenodd" d="M10.626 6.333a.7.7 0 01.99.99L9.99 8.949l1.626 1.627a.7.7 0 11-.99.99L9 9.939l-1.626 1.627a.7.7 0 01-.99-.99L8.01 8.949 6.384 7.323a.7.7 0 01.99-.99L9 7.96l1.626-1.626z" clip-rule="evenodd"/></svg>