<svg xmlns="http://www.w3.org/2000/svg" width="24" height="24" viewBox="0 0 24 24"><path fill-rule="evenodd" d="M2.667 5.6c-.59 0-1.067.478-1.067 1.067v10.666c0 .59.478 1.067 1.067 1.067h18.666c.59 0 1.067-.478 1.067-1.067V6.667c0-.59-.478-1.067-1.067-1.067H2.667zM0 6.667A2.667 2.667 0 012.667 4h18.666A2.667 2.667 0 0124 6.667v10.666A2.667 2.667 0 0121.333 20H2.667A2.667 2.667 0 010 17.333V6.667z" clip-rule="evenodd"/><path fill-rule="evenodd" d="M14.168 8.444a.933.933 0 011.32 1.32l-2.168 2.168 2.168 2.169a.933.933 0 01-1.32 1.32L12 13.253 9.832 15.42a.933.933 0 01-1.32-1.32l2.168-2.169-2.168-2.168a.933.933 0 011.32-1.32L12 10.613l2.168-2.169z" clip-rule="evenodd"/></svg>