<svg xmlns="http://www.w3.org/2000/svg" width="13" height="12" viewBox="0 0 13 12"><path d="M6.5 8.5c.142 0 .26-.048.356-.144A.483.483 0 007 8a.485.485 0 00-.144-.356A.485.485 0 006.5 7.5a.483.483 0 00-.356.144A.484.484 0 006 8c0 .142.048.26.144.356A.483.483 0 006.5 8.5zm-.5-2h1v-3H6v3zm.5 4.5a4.866 4.866 0 01-1.95-.394 5.045 5.045 0 01-1.587-1.069A5.043 5.043 0 011.894 7.95 4.866 4.866 0 011.5 6c0-.692.131-1.342.394-1.95a5.046 5.046 0 011.069-1.587c.45-.45.979-.807 1.587-1.07A4.871 4.871 0 016.5 1c.692 0 1.342.131 1.95.393a5.053 5.053 0 011.588 1.07c.45.45.806.979 1.068 1.587.263.608.394 1.258.394 1.95s-.131 1.342-.394 1.95a5.045 5.045 0 01-1.069 1.587c-.45.45-.979.807-1.587 1.069A4.866 4.866 0 016.5 11zm0-1c1.117 0 2.063-.387 2.838-1.162C10.113 8.063 10.5 7.117 10.5 6s-.387-2.063-1.162-2.837C8.563 2.388 7.617 2 6.5 2s-2.063.388-2.837 1.163C2.888 3.938 2.5 4.883 2.5 6c0 1.117.388 2.063 1.163 2.838C4.438 9.613 5.383 10 6.5 10z"/></svg>