<svg xmlns="http://www.w3.org/2000/svg" width="36" height="36" viewBox="0 0 36 36"><path d="M16.5 25.5h3v-9h-3v9zm1.5-12c.425 0 .782-.144 1.07-.432A1.45 1.45 0 0019.5 12c0-.425-.143-.781-.43-1.07A1.455 1.455 0 0018 10.5a1.45 1.45 0 00-1.068.43A1.453 1.453 0 0016.5 12c0 .425.144.781.432 1.068.287.288.643.432 1.068.432zM18 33c-2.075 0-4.025-.394-5.85-1.182a15.152 15.152 0 01-4.763-3.206c-1.35-1.35-2.418-2.937-3.205-4.762C3.394 22.025 3 20.075 3 18c0-2.075.394-4.025 1.182-5.85.787-1.825 1.855-3.412 3.205-4.763 1.35-1.35 2.938-2.418 4.763-3.206C13.975 3.393 15.925 3 18 3c2.075 0 4.025.393 5.85 1.18 1.825.788 3.412 1.857 4.762 3.208 1.35 1.35 2.419 2.937 3.206 4.762C32.606 13.975 33 15.925 33 18c0 2.075-.394 4.025-1.182 5.85-.787 1.825-1.856 3.412-3.206 4.762-1.35 1.35-2.937 2.419-4.762 3.206C22.025 32.606 20.075 33 18 33z"/></svg>