<svg xmlns="http://www.w3.org/2000/svg" width="13" height="12" viewBox="0 0 13 12"><path d="M6.475 9c.175 0 .323-.06.444-.181a.603.603 0 00.181-.444.603.603 0 00-.181-.444.604.604 0 00-.444-.181.604.604 0 00-.444.181.603.603 0 00-.181.444c0 .175.06.323.181.444A.604.604 0 006.475 9zm-.45-1.925h.925c0-.275.031-.492.094-.65.062-.158.24-.375.531-.65.217-.217.388-.423.513-.619s.187-.431.187-.706c0-.467-.17-.825-.513-1.075C7.421 3.125 7.018 3 6.55 3c-.475 0-.86.125-1.156.375-.296.25-.502.55-.619.9L5.6 4.6c.042-.15.136-.313.282-.487.145-.176.368-.263.668-.263.267 0 .467.073.6.219a.7.7 0 01.2.481c0 .167-.05.323-.15.469-.1.146-.225.281-.375.406-.367.325-.592.57-.675.737-.083.167-.125.471-.125.913zM6.5 11a4.866 4.866 0 01-1.95-.394 5.045 5.045 0 01-1.587-1.069A5.043 5.043 0 011.894 7.95 4.866 4.866 0 011.5 6c0-.692.131-1.342.394-1.95a5.046 5.046 0 011.069-1.587c.45-.45.979-.807 1.587-1.07A4.871 4.871 0 016.5 1c.692 0 1.342.131 1.95.393a5.053 5.053 0 011.588 1.07c.45.45.806.979 1.068 1.587.263.608.394 1.258.394 1.95s-.131 1.342-.394 1.95a5.045 5.045 0 01-1.069 1.587c-.45.45-.979.807-1.587 1.069A4.866 4.866 0 016.5 11zm0-1c1.117 0 2.063-.387 2.838-1.162C10.113 8.063 10.5 7.117 10.5 6s-.387-2.063-1.162-2.837C8.563 2.388 7.617 2 6.5 2s-2.063.388-2.837 1.163C2.888 3.938 2.5 4.883 2.5 6c0 1.117.388 2.063 1.163 2.838C4.438 9.613 5.383 10 6.5 10z"/></svg>