<svg xmlns="http://www.w3.org/2000/svg" width="18" height="18" viewBox="0 0 18 18"><path d="M9 12.75c.213 0 .39-.072.535-.216A.725.725 0 009.75 12a.727.727 0 00-.215-.535A.727.727 0 009 11.25a.725.725 0 00-.534.215.726.726 0 00-.216.535c0 .213.072.39.216.534A.724.724 0 009 12.75zm-.75-3h1.5v-4.5h-1.5v4.5zM9 16.5a7.3 7.3 0 01-2.925-.591 7.569 7.569 0 01-2.381-1.603 7.569 7.569 0 01-1.603-2.381A7.3 7.3 0 011.5 9a7.3 7.3 0 01.591-2.925 7.569 7.569 0 011.603-2.381A7.58 7.58 0 016.075 2.09 7.307 7.307 0 019 1.5c1.037 0 2.012.197 2.925.59a7.58 7.58 0 012.381 1.604 7.569 7.569 0 011.603 2.381A7.3 7.3 0 0116.5 9a7.3 7.3 0 01-.591 2.925 7.569 7.569 0 01-1.603 2.381 7.569 7.569 0 01-2.381 1.603A7.3 7.3 0 019 16.5zM9 15c1.675 0 3.094-.581 4.256-1.744C14.42 12.094 15 10.675 15 9c0-1.675-.581-3.094-1.744-4.256C12.094 3.58 10.675 3 9 3c-1.675 0-3.094.581-4.256 1.744C3.58 5.906 3 7.325 3 9c0 1.675.581 3.094 1.744 4.256C5.906 14.42 7.325 15 9 15z"/></svg>