<svg xmlns="http://www.w3.org/2000/svg" width="36" height="36" viewBox="0 0 36 36"><path d="M17.925 27c.525 0 .969-.181 1.332-.544a1.81 1.81 0 00.543-1.331 1.81 1.81 0 00-.543-1.33 1.812 1.812 0 00-1.332-.545c-.525 0-.969.181-1.332.544a1.81 1.81 0 00-.543 1.331c0 .525.181.968.543 1.33.363.364.807.545 1.332.545zm-1.35-5.775h2.775c0-.825.094-1.475.282-1.95.187-.475.718-1.125 1.593-1.95.65-.65 1.162-1.269 1.537-1.857.375-.587.563-1.293.563-2.118 0-1.4-.512-2.475-1.537-3.225C20.762 9.375 19.55 9 18.15 9c-1.425 0-2.581.375-3.468 1.125-.888.75-1.507 1.65-1.857 2.7l2.475.975c.125-.45.406-.938.845-1.463.436-.524 1.105-.787 2.005-.787.8 0 1.4.218 1.8.655.4.438.6.92.6 1.445 0 .5-.15.968-.45 1.405-.3.438-.675.845-1.125 1.22-1.1.975-1.775 1.713-2.025 2.213s-.375 1.412-.375 2.737zM18 33c-2.075 0-4.025-.394-5.85-1.182a15.152 15.152 0 01-4.763-3.206c-1.35-1.35-2.418-2.937-3.205-4.762C3.394 22.025 3 20.075 3 18c0-2.075.394-4.025 1.182-5.85.787-1.825 1.855-3.412 3.205-4.763 1.35-1.35 2.938-2.418 4.763-3.206C13.975 3.393 15.925 3 18 3c2.075 0 4.025.393 5.85 1.18 1.825.788 3.412 1.857 4.762 3.208 1.35 1.35 2.419 2.937 3.206 4.762C32.606 13.975 33 15.925 33 18c0 2.075-.394 4.025-1.182 5.85-.787 1.825-1.856 3.412-3.206 4.762-1.35 1.35-2.937 2.419-4.762 3.206C22.025 32.606 20.075 33 18 33zm0-3c3.35 0 6.188-1.163 8.512-3.488C28.837 24.188 30 21.35 30 18c0-3.35-1.163-6.188-3.488-8.512C24.188 7.163 21.35 6 18 6c-3.35 0-6.188 1.162-8.512 3.488C7.163 11.813 6 14.65 6 18c0 3.35 1.162 6.188 3.488 8.512C11.813 28.837 14.65 30 18 30z"/></svg>