<svg xmlns="http://www.w3.org/2000/svg" width="18" height="18" viewBox="0 0 18 18"><path d="M8.963 13.5c.262 0 .484-.09.666-.272a.905.905 0 00.271-.665.904.904 0 00-.271-.666.906.906 0 00-.666-.272.906.906 0 00-.666.272.904.904 0 00-.272.665c0 .263.09.485.271.666a.906.906 0 00.667.272zm-.675-2.887h1.387c0-.413.047-.738.141-.976.093-.237.359-.562.796-.975.325-.325.582-.634.77-.928.187-.293.28-.646.28-1.059 0-.7-.256-1.237-.768-1.612-.513-.375-1.119-.563-1.819-.563-.712 0-1.29.188-1.734.563a2.975 2.975 0 00-.929 1.35L7.65 6.9c.063-.225.203-.469.422-.731.219-.263.553-.394 1.003-.394.4 0 .7.11.9.328.2.219.3.46.3.722 0 .25-.075.484-.225.703-.15.219-.338.422-.563.61-.55.487-.887.856-1.012 1.106-.125.25-.188.706-.188 1.369zM9 16.5a7.3 7.3 0 01-2.925-.591 7.569 7.569 0 01-2.381-1.603 7.569 7.569 0 01-1.603-2.381A7.3 7.3 0 011.5 9a7.3 7.3 0 01.591-2.925 7.569 7.569 0 011.603-2.381A7.58 7.58 0 016.075 2.09 7.307 7.307 0 019 1.5c1.037 0 2.012.197 2.925.59a7.58 7.58 0 012.381 1.604 7.569 7.569 0 011.603 2.381A7.3 7.3 0 0116.5 9a7.3 7.3 0 01-.591 2.925 7.569 7.569 0 01-1.603 2.381 7.569 7.569 0 01-2.381 1.603A7.3 7.3 0 019 16.5zM9 15c1.675 0 3.094-.581 4.256-1.744C14.42 12.094 15 10.675 15 9c0-1.675-.581-3.094-1.744-4.256C12.094 3.58 10.675 3 9 3c-1.675 0-3.094.581-4.256 1.744C3.58 5.906 3 7.325 3 9c0 1.675.581 3.094 1.744 4.256C5.906 14.42 7.325 15 9 15z"/></svg>