<svg xmlns="http://www.w3.org/2000/svg" width="18" height="18" viewBox="0 0 18 18"><path d="M7.95 12.45l5.288-5.287-1.05-1.05L7.95 10.35 5.812 8.213l-1.05 1.05L7.95 12.45zM9 16.5a7.3 7.3 0 01-2.925-.591 7.569 7.569 0 01-2.381-1.603 7.569 7.569 0 01-1.603-2.381A7.3 7.3 0 011.5 9a7.3 7.3 0 01.591-2.925 7.569 7.569 0 011.603-2.381A7.58 7.58 0 016.075 2.09 7.307 7.307 0 019 1.5c1.037 0 2.012.197 2.925.59a7.58 7.58 0 012.381 1.604 7.569 7.569 0 011.603 2.381A7.3 7.3 0 0116.5 9a7.3 7.3 0 01-.591 2.925 7.569 7.569 0 01-1.603 2.381 7.569 7.569 0 01-2.381 1.603A7.3 7.3 0 019 16.5z"/></svg>