<svg xmlns="http://www.w3.org/2000/svg" width="13" height="12" viewBox="0 0 13 12"><path d="M2.643 6.515H1.357c.05.495.173.971.354 1.416l1.12-.647a3.764 3.764 0 01-.188-.769zm.778-4.684c-.38.282-.723.617-1.014.994l1.12.647c.162-.192.343-.367.538-.525l-.644-1.116zM7.106.857v1.29a3.888 3.888 0 013.26 3.833 3.886 3.886 0 01-5.314 3.61l-.644 1.117a5.158 5.158 0 007.23-4.725A5.155 5.155 0 007.107.857zm-1.241 1.29V.857a5.12 5.12 0 00-1.366.36l.646 1.12c.231-.085.471-.15.72-.19zM1.772 3.89a5.181 5.181 0 00-.394 1.384H2.67a3.82 3.82 0 01.215-.74L1.772 3.89zm1.656 4.48l-1.115.645c.29.4.637.756 1.029 1.06l.646-1.121a4.195 4.195 0 01-.56-.584z"/></svg>