<svg xmlns="http://www.w3.org/2000/svg" width="18" height="18" viewBox="0 0 18 18"><path d="M3.214 9.773H1.286c.076.742.259 1.457.53 2.123l1.68-.97a5.646 5.646 0 01-.282-1.153zm1.168-7.027a7.734 7.734 0 00-1.521 1.491l1.679.97c.243-.287.515-.55.808-.786l-.966-1.675zm5.527-1.46V3.22a5.832 5.832 0 014.89 5.75 5.83 5.83 0 01-5.821 5.827 5.794 5.794 0 01-2.15-.411l-.965 1.675c.953.42 2.007.654 3.112.654 4.27 0 7.733-3.466 7.733-7.741a7.732 7.732 0 00-6.799-7.688zM8.047 3.22V1.286a7.68 7.68 0 00-2.049.54l.97 1.678a5.897 5.897 0 011.079-.284zm-6.14 2.616a7.772 7.772 0 00-.59 2.076h1.938c.07-.386.18-.755.322-1.11l-1.67-.966zm2.485 6.72l-1.673.968c.435.6.956 1.134 1.543 1.589l.97-1.681a6.292 6.292 0 01-.84-.875z"/></svg>