<svg xmlns="http://www.w3.org/2000/svg" width="12" height="12" viewBox="0 0 12 12"><g clip-path="url(#clip0_6885_14779)"><path d="M2.143 6.515H.857c.05.495.173.971.354 1.416l1.12-.647a3.765 3.765 0 01-.188-.769zM2.92 1.83c-.38.283-.723.617-1.014.995l1.12.646c.162-.191.343-.366.538-.524L2.921 1.83zM6.606.857v1.29a3.888 3.888 0 013.26 3.833 3.886 3.886 0 01-5.314 3.61l-.644 1.117a5.158 5.158 0 007.23-4.725A5.155 5.155 0 006.607.857zm-1.242 1.29V.856A5.12 5.12 0 004 1.217l.646 1.119c.231-.084.471-.15.72-.19zM1.272 3.89a5.181 5.181 0 00-.394 1.384H2.17c.046-.257.12-.503.215-.739L1.272 3.89zm1.656 4.48l-1.116.645c.29.4.638.757 1.03 1.06l.645-1.12a4.196 4.196 0 01-.56-.584z"/></g><defs><clipPath id="clip0_6885_14779"><path d="M0 0h12v12H0z"/></clipPath></defs></svg>