<svg xmlns="http://www.w3.org/2000/svg" width="24" height="24" viewBox="0 0 24 24"><path fill-rule="evenodd" d="M12.003 2a.5.5 0 00-.5.5v2a.5.5 0 001 0v-2a.5.5 0 00-.5-.5zm-5.03 9.615a5.052 5.052 0 1110.105 0c0 1.795-.918 2.9-1.873 4.052-.54.65-1.09 1.313-1.495 2.123H10.34c-.404-.81-.955-1.473-1.494-2.123-.956-1.151-1.874-2.257-1.874-4.052zm5.053-.562V8.246l-2.246 3.93h2.246v2.807l2.245-3.93h-2.245zm-1.684 8.421v-.56h3.368v.56c0 .62-.49 1.05-1.123 1.123 0 0-.282.034-.592.034s-.53-.034-.53-.034c-.648-.14-1.123-.502-1.123-1.123zM5.128 6.561a.5.5 0 11.42-.908l1.815.84a.5.5 0 01-.42.908l-1.815-.84zm13.479-.664a.5.5 0 00-.664-.244l-1.815.84a.5.5 0 00.42.908l1.815-.84a.5.5 0 00.244-.664z" clip-rule="evenodd"/></svg>