<svg xmlns="http://www.w3.org/2000/svg" width="36" height="36" viewBox="0 0 36 36"><path fill-rule="evenodd" d="M18.005 3a.75.75 0 00-.75.75v3a.75.75 0 001.5 0v-3a.75.75 0 00-.75-.75zM10.46 17.422a7.579 7.579 0 017.579-7.579 7.579 7.579 0 017.579 7.58c0 2.691-1.378 4.35-2.811 6.078-.809.974-1.635 1.97-2.242 3.184h-5.053c-.607-1.214-1.433-2.21-2.242-3.184-1.433-1.727-2.81-3.387-2.81-6.079zm7.579-.842v-4.21l-3.369 5.894h3.369v4.21l3.368-5.894h-3.368zm-2.527 12.632v-.842h5.053v.842c0 .93-.735 1.575-1.684 1.684 0 0-.424.05-.889.05s-.796-.05-.796-.05c-.97-.21-1.684-.754-1.684-1.684zM7.693 9.84a.75.75 0 11.63-1.361l2.723 1.26a.75.75 0 01-.63 1.36L7.693 9.84zm20.218-.995a.75.75 0 00-.995-.366l-2.723 1.26a.75.75 0 00.63 1.361l2.723-1.26a.75.75 0 00.365-.995z" clip-rule="evenodd"/></svg>