<svg xmlns="http://www.w3.org/2000/svg" width="12" height="12" viewBox="0 0 12 12"><path fill-rule="evenodd" d="M6.136 1a.268.268 0 00-.269.268v1.074a.268.268 0 00.537 0V1.268A.268.268 0 006.136 1zm-2.7 5.16a2.712 2.712 0 115.424 0c0 .964-.493 1.558-1.006 2.176-.29.348-.585.705-.802 1.14H5.244c-.218-.435-.513-.792-.803-1.14-.512-.618-1.005-1.212-1.005-2.175zm2.712-.3V4.352L4.942 6.462h1.206v1.507l1.205-2.11H6.148zm-.904 4.52v-.302h1.808v.301c0 .333-.263.564-.603.603 0 0-.151.018-.318.018-.166 0-.285-.018-.285-.018-.347-.075-.602-.27-.602-.603zM2.446 3.447a.268.268 0 11.225-.487l.974.45a.268.268 0 01-.225.488l-.974-.451zm7.234-.356a.268.268 0 00-.356-.131l-.974.45a.268.268 0 00.225.488l.975-.451a.268.268 0 00.13-.356z" clip-rule="evenodd"/></svg>