<svg xmlns="http://www.w3.org/2000/svg" width="18" height="18" viewBox="0 0 18 18"><g><path fill-rule="evenodd" d="M9 15.5c-.33 0-.612-.117-.847-.352A1.156 1.156 0 017.8 14.3h2.4c0 .33-.117.613-.352.848A1.157 1.157 0 019 15.5zm-3.892-5.25c.375.64.872 1.158 1.492 1.557V13.1h4.8v-1.293a4.59 4.59 0 001.493-1.557c.404-.69.607-1.44.607-2.25 0-1.25-.438-2.312-1.313-3.187S10.25 3.5 9 3.5c-1.25 0-2.312.438-3.187 1.313S4.5 6.75 4.5 8c0 .81.203 1.56.608 2.25zM9 11.75h-.563v-2.4H6.75L9 5.75h.562v2.4h1.688L9 11.75z" clip-rule="evenodd"/><path d="M8.625.5h.75v2.25h-.75V.5zM13.59 2l.531.53-1.59 1.591-.531-.53L13.59 2zM4.28 2l-.53.53 1.59 1.591.531-.53L4.281 2z"/></g></svg>