<svg xmlns="http://www.w3.org/2000/svg" width="36" height="36" viewBox="0 0 36 36"><path fill-rule="evenodd" d="M18 32a2.31 2.31 0 01-1.695-.704A2.312 2.312 0 0115.6 29.6h4.8c0 .66-.235 1.225-.704 1.696-.47.47-1.036.704-1.696.704zm-7.784-10.5a9.168 9.168 0 002.984 3.114V27.2h9.6v-2.586a9.18 9.18 0 002.985-3.114A8.737 8.737 0 0027 17c0-2.5-.875-4.625-2.626-6.374C22.624 8.876 20.5 8 18 8c-2.5 0-4.625.875-6.374 2.626C9.876 12.376 9 14.5 9 17c0 1.62.405 3.12 1.216 4.5zm7.784 3h-1.125v-4.8H13.5l4.5-7.2h1.125v4.8H22.5L18 24.5z" clip-rule="evenodd"/><path d="M17.25 2h1.5v4.5h-1.5V2zm9.931 3l1.061 1.06-3.182 3.183L24 8.182 27.18 5zM8.56 5L7.5 6.06l3.182 3.183 1.06-1.061L8.56 5z"/></svg>