<svg xmlns="http://www.w3.org/2000/svg" width="18" height="18" viewBox="0 0 18 18"><path d="M9.002 1.5a.375.375 0 00-.375.375v1.5a.375.375 0 10.75 0v-1.5a.375.375 0 00-.375-.375z"/><path fill-rule="evenodd" d="M5.23 8.711a3.79 3.79 0 117.578 0c0 1.346-.688 2.176-1.405 3.04-.404.487-.817.984-1.12 1.592H7.755c-.304-.608-.717-1.105-1.121-1.592-.717-.864-1.406-1.694-1.406-3.04zm3.789-.42V6.184L7.335 9.132h1.684v2.105l1.684-2.947H9.02z" clip-rule="evenodd"/><path d="M7.756 14.606v-.421h2.526v.42c0 .466-.367.789-.842.843 0 0-.212.025-.444.025-.233 0-.398-.025-.398-.025-.486-.105-.842-.377-.842-.842zM3.846 4.92a.375.375 0 01.315-.68l1.361.63a.375.375 0 01-.315.68l-1.36-.63zM13.955 4.423a.375.375 0 00-.498-.183l-1.36.63a.375.375 0 10.314.68l1.361-.63a.375.375 0 00.183-.497z"/></svg>