<svg xmlns="http://www.w3.org/2000/svg" width="18" height="18" viewBox="0 0 18 18"><path d="M9 16.5a7.258 7.258 0 01-2.906-.59 7.61 7.61 0 01-2.39-1.613 7.607 7.607 0 01-1.613-2.39A7.256 7.256 0 011.5 9a7.11 7.11 0 01.61-2.925 7.598 7.598 0 011.65-2.381A7.86 7.86 0 016.187 2.09 7.484 7.484 0 019.15 1.5c1 0 1.944.172 2.831.516a7.437 7.437 0 012.335 1.425 6.82 6.82 0 011.593 2.156c.394.831.591 1.728.591 2.69 0 1.438-.438 2.541-1.313 3.31-.874.769-1.937 1.153-3.187 1.153h-1.387c-.113 0-.191.031-.235.094a.352.352 0 00-.066.206c0 .15.094.366.282.647.187.281.281.603.281.966 0 .624-.172 1.087-.516 1.387-.343.3-.796.45-1.359.45zM4.875 9.75c.325 0 .594-.106.806-.319C5.894 9.22 6 8.95 6 8.625c0-.325-.106-.594-.319-.806a1.093 1.093 0 00-.806-.319c-.325 0-.594.106-.806.319a1.093 1.093 0 00-.319.806c0 .325.106.594.319.806.212.213.481.319.806.319zm2.25-3c.325 0 .594-.106.806-.319.213-.212.319-.481.319-.806 0-.325-.106-.594-.319-.806a1.093 1.093 0 00-.806-.319c-.325 0-.594.106-.806.319A1.093 1.093 0 006 5.625c0 .325.106.594.319.806.212.213.481.319.806.319zm3.75 0c.325 0 .594-.106.806-.319.213-.212.319-.481.319-.806 0-.325-.106-.594-.319-.806a1.093 1.093 0 00-.806-.319c-.325 0-.594.106-.806.319a1.093 1.093 0 00-.319.806c0 .325.106.594.319.806.212.213.481.319.806.319zm2.25 3c.325 0 .594-.106.806-.319.213-.212.319-.481.319-.806 0-.325-.106-.594-.319-.806a1.093 1.093 0 00-.806-.319c-.325 0-.594.106-.806.319a1.093 1.093 0 00-.319.806c0 .325.106.594.319.806.212.213.481.319.806.319zM9 15a.389.389 0 00.272-.094.314.314 0 00.103-.244c0-.175-.094-.38-.281-.618-.188-.238-.281-.594-.281-1.069 0-.525.18-.944.543-1.256.363-.313.806-.469 1.332-.469H12c.825 0 1.531-.24 2.119-.722.587-.481.881-1.228.881-2.24 0-1.513-.578-2.772-1.734-3.779C12.109 3.503 10.738 3 9.15 3 7.45 3 6 3.581 4.8 4.744 3.6 5.906 3 7.325 3 9c0 1.662.584 3.078 1.753 4.247S7.338 15 9 15z"/></svg>