<svg xmlns="http://www.w3.org/2000/svg" width="25" height="24" viewBox="0 0 25 24"><path d="M12.5 22a9.676 9.676 0 01-3.875-.788 10.144 10.144 0 01-3.188-2.15 10.142 10.142 0 01-2.15-3.187A9.676 9.676 0 012.5 12c0-1.383.27-2.683.813-3.9a10.13 10.13 0 012.2-3.175A10.48 10.48 0 018.75 2.788 9.979 9.979 0 0112.7 2c1.333 0 2.592.23 3.775.688a9.918 9.918 0 013.112 1.9 9.092 9.092 0 012.125 2.875 8.273 8.273 0 01.788 3.587c0 1.917-.583 3.387-1.75 4.412C19.583 16.489 18.167 17 16.5 17h-1.85c-.15 0-.254.042-.313.125a.47.47 0 00-.087.275c0 .2.125.488.375.863.25.374.375.804.375 1.287 0 .833-.23 1.45-.688 1.85-.458.4-1.062.6-1.812.6zM7 13c.433 0 .792-.142 1.075-.425.283-.283.425-.642.425-1.075 0-.433-.142-.792-.425-1.075C7.792 10.142 7.433 10 7 10c-.433 0-.792.142-1.075.425-.283.283-.425.642-.425 1.075 0 .433.142.792.425 1.075.283.283.642.425 1.075.425zm3-4c.433 0 .792-.142 1.075-.425.283-.283.425-.642.425-1.075 0-.433-.142-.792-.425-1.075C10.792 6.142 10.433 6 10 6c-.433 0-.792.142-1.075.425-.283.283-.425.642-.425 1.075 0 .433.142.792.425 1.075C9.208 8.858 9.567 9 10 9zm5 0c.433 0 .792-.142 1.075-.425.283-.283.425-.642.425-1.075 0-.433-.142-.792-.425-1.075C15.792 6.142 15.433 6 15 6c-.433 0-.792.142-1.075.425-.283.283-.425.642-.425 1.075 0 .433.142.792.425 1.075.283.283.642.425 1.075.425zm3 4c.433 0 .792-.142 1.075-.425.283-.283.425-.642.425-1.075 0-.433-.142-.792-.425-1.075C18.792 10.142 18.433 10 18 10c-.433 0-.792.142-1.075.425-.283.283-.425.642-.425 1.075 0 .433.142.792.425 1.075.283.283.642.425 1.075.425zm-5.5 7c.15 0 .27-.042.363-.125A.419.419 0 0013 19.55c0-.233-.125-.508-.375-.825-.25-.317-.375-.792-.375-1.425 0-.7.242-1.258.725-1.675.483-.417 1.075-.625 1.775-.625h1.75c1.1 0 2.042-.32 2.825-.963.783-.641 1.175-1.637 1.175-2.987 0-2.017-.77-3.696-2.313-5.038C16.646 4.671 14.817 4 12.7 4c-2.267 0-4.2.775-5.8 2.325C5.3 7.875 4.5 9.767 4.5 12c0 2.217.78 4.104 2.338 5.663C8.396 19.22 10.283 20 12.5 20z"/></svg>