<svg xmlns="http://www.w3.org/2000/svg" width="36" height="36" viewBox="0 0 36 36"><path d="M18 33c-2.05 0-3.988-.394-5.813-1.181a15.215 15.215 0 01-4.78-3.225 15.215 15.215 0 01-3.226-4.782A14.514 14.514 0 013 18c0-2.075.406-4.025 1.219-5.85a15.196 15.196 0 013.3-4.763 15.72 15.72 0 014.856-3.206C14.225 3.394 16.2 3 18.3 3c2 0 3.887.344 5.662 1.031 1.776.688 3.332 1.638 4.67 2.85a13.638 13.638 0 013.187 4.313C32.606 12.856 33 14.65 33 16.575c0 2.875-.875 5.081-2.625 6.619C28.625 24.73 26.5 25.5 24 25.5h-2.775c-.225 0-.381.063-.469.188a.704.704 0 00-.131.412c0 .3.188.731.563 1.294.375.562.562 1.206.562 1.931 0 1.25-.344 2.175-1.031 2.775-.688.6-1.594.9-2.719.9zM9.75 19.5c.65 0 1.188-.212 1.613-.637.425-.425.637-.963.637-1.613s-.213-1.188-.637-1.613C10.938 15.212 10.4 15 9.75 15s-1.188.213-1.613.637c-.425.425-.637.963-.637 1.613s.213 1.188.637 1.613c.425.425.963.637 1.613.637zm4.5-6c.65 0 1.188-.213 1.613-.637.425-.425.637-.963.637-1.613s-.212-1.188-.637-1.613C15.438 9.212 14.9 9 14.25 9s-1.188.213-1.613.637c-.425.425-.637.963-.637 1.613s.213 1.188.637 1.613c.425.425.963.637 1.613.637zm7.5 0c.65 0 1.188-.213 1.613-.637.425-.425.637-.963.637-1.613s-.212-1.188-.637-1.613C22.938 9.212 22.4 9 21.75 9s-1.188.213-1.613.637c-.425.425-.637.963-.637 1.613s.212 1.188.637 1.613c.425.425.963.637 1.613.637zm4.5 6c.65 0 1.188-.212 1.613-.637.425-.425.637-.963.637-1.613s-.212-1.188-.637-1.613C27.438 15.212 26.9 15 26.25 15s-1.188.213-1.613.637c-.425.425-.637.963-.637 1.613s.212 1.188.637 1.613c.425.425.963.637 1.613.637zM18 30a.779.779 0 00.544-.188.628.628 0 00.206-.487c0-.35-.188-.762-.563-1.238-.375-.474-.562-1.187-.562-2.137 0-1.05.363-1.887 1.087-2.512.726-.625 1.613-.938 2.663-.938H24c1.65 0 3.063-.481 4.238-1.444C29.413 20.094 30 18.6 30 16.575c0-3.025-1.156-5.544-3.469-7.556C24.22 7.006 21.475 6 18.3 6 14.9 6 12 7.162 9.6 9.488 7.2 11.813 6 14.65 6 18c0 3.325 1.169 6.156 3.506 8.494C11.844 28.83 14.675 30 18 30z"/></svg>