<svg xmlns="http://www.w3.org/2000/svg" width="18" height="18" viewBox="0 0 18 18"><path fill-rule="evenodd" d="M5.117 4.105c0 1.161-.945 2.106-2.105 2.106A2.108 2.108 0 01.906 4.105C.906 2.945 1.851 2 3.012 2c1.16 0 2.105.944 2.105 2.105zm-1.263 0a.843.843 0 00-1.685 0 .843.843 0 001.685 0zM11.011 4.105c0 1.161-.944 2.106-2.105 2.106a2.108 2.108 0 01-2.105-2.106C6.801 2.945 7.745 2 8.906 2s2.105.944 2.105 2.105zm-1.263 0a.843.843 0 00-1.684 0 .843.843 0 001.684 0zM14.801 6.21c1.16 0 2.105-.944 2.105-2.105 0-1.16-.944-2.105-2.105-2.105-1.16 0-2.105.944-2.105 2.105s.944 2.106 2.105 2.106zm0-2.947a.843.843 0 010 1.684.843.843 0 010-1.684z" clip-rule="evenodd"/><path d="M12.696 9.158c0-1.16.944-2.105 2.105-2.105 1.16 0 2.105.944 2.105 2.105v1.895a.632.632 0 01-1.263 0V9.158a.843.843 0 00-1.684 0v4.21c0 1.161-.944 2.106-2.105 2.106a2.108 2.108 0 01-2.106-2.106v-4.21a.843.843 0 00-1.684 0v4.421h-.01a2.108 2.108 0 01-2.095 1.895 2.108 2.108 0 01-2.105-2.106v-4.21a.843.843 0 00-1.685 0v1.895a.632.632 0 01-1.263 0V8.947h.011a2.108 2.108 0 012.095-1.894c1.16 0 2.105.944 2.105 2.105v4.21a.843.843 0 001.684 0v-4.21c0-1.16.944-2.105 2.105-2.105s2.105.944 2.105 2.105v4.21a.843.843 0 001.685 0v-4.21z"/></svg>