<svg xmlns="http://www.w3.org/2000/svg" width="25" height="24" viewBox="0 0 25 24"><path fill-rule="evenodd" d="M8 6.5C8 7.878 6.878 9 5.5 9A2.503 2.503 0 013 6.5C3 5.122 4.122 4 5.5 4S8 5.122 8 6.5zm-1.5 0a1.001 1.001 0 00-2 0 1.001 1.001 0 002 0zm8.5 0C15 7.878 13.879 9 12.5 9A2.503 2.503 0 0110 6.5C10 5.122 11.121 4 12.5 4S15 5.122 15 6.5zm-1.5 0a1.001 1.001 0 00-2 0 1.001 1.001 0 002 0zm6 2.5C20.878 9 22 7.878 22 6.5S20.878 4 19.5 4A2.503 2.503 0 0017 6.5C17 7.878 18.122 9 19.5 9zm0-3.5a1.001 1.001 0 010 2 1.001 1.001 0 010-2z" clip-rule="evenodd"/><path d="M17 12.5c0-1.379 1.122-2.5 2.5-2.5s2.5 1.121 2.5 2.5v2.25a.75.75 0 01-1.5 0V12.5a1.001 1.001 0 00-2 0v5c0 1.378-1.122 2.5-2.5 2.5a2.503 2.503 0 01-2.5-2.5v-5a1.001 1.001 0 00-2 0v5.25h-.013A2.503 2.503 0 019 20a2.503 2.503 0 01-2.5-2.5v-5a1.001 1.001 0 00-2 0v2.25a.75.75 0 01-1.5 0v-2.5h.013A2.503 2.503 0 015.5 10C6.878 10 8 11.121 8 12.5v5a1.001 1.001 0 002 0v-5c0-1.379 1.121-2.5 2.5-2.5s2.5 1.121 2.5 2.5v5a1.001 1.001 0 002 0v-5z"/></svg>