<svg xmlns="http://www.w3.org/2000/svg" width="13" height="12" viewBox="0 0 13 12"><path fill-rule="evenodd" d="M4.25 3.25a1.25 1.25 0 11-2.5 0 1.25 1.25 0 012.5 0zm-.75 0a.5.5 0 10-1.001.001A.5.5 0 003.5 3.25zm4.25 0a1.25 1.25 0 11-2.5 0 1.25 1.25 0 012.5 0zm-.75 0a.5.5 0 10-1.001.001A.5.5 0 007 3.25zm3 1.25A1.25 1.25 0 1010 2a1.25 1.25 0 000 2.5zm0-1.75a.5.5 0 11-.001 1.001A.5.5 0 0110 2.75z" clip-rule="evenodd"/><path d="M8.75 6.25a1.25 1.25 0 012.5 0v1.125a.375.375 0 01-.75 0V6.25a.5.5 0 00-1 0v2.5a1.25 1.25 0 01-2.5 0v-2.5a.5.5 0 00-1 0v2.625h-.006A1.252 1.252 0 014.75 10c-.69 0-1.25-.56-1.25-1.25v-2.5a.5.5 0 00-1 0v1.125a.375.375 0 01-.75 0v-1.25h.006A1.252 1.252 0 013 5c.69 0 1.25.56 1.25 1.25v2.5a.5.5 0 001 0v-2.5a1.25 1.25 0 012.5 0v2.5a.5.5 0 001 0v-2.5z"/></svg>