<svg xmlns="http://www.w3.org/2000/svg" width="18" height="18" viewBox="0 0 18 18"><g><path fill-rule="evenodd" d="M5.625 4.875A1.877 1.877 0 013.75 6.75a1.877 1.877 0 01-1.875-1.875C1.875 3.841 2.716 3 3.75 3s1.875.841 1.875 1.875zm-1.125 0a.75.75 0 10-1.502.002.75.75 0 001.502-.002zM10.875 4.875A1.877 1.877 0 019 6.75a1.877 1.877 0 01-1.875-1.875C7.125 3.841 7.966 3 9 3s1.875.841 1.875 1.875zm-1.125 0a.75.75 0 10-1.502.002.75.75 0 001.502-.002zM14.25 6.75a1.877 1.877 0 001.875-1.875A1.877 1.877 0 0014.25 3a1.877 1.877 0 00-1.875 1.875c0 1.034.841 1.875 1.875 1.875zm0-2.625a.75.75 0 010 1.5.75.75 0 010-1.5z" clip-rule="evenodd"/><path d="M12.375 9.375c0-1.034.841-1.875 1.875-1.875s1.875.841 1.875 1.875v1.688a.563.563 0 01-1.125 0V9.374a.75.75 0 00-1.5 0v3.75A1.877 1.877 0 0111.625 15a1.877 1.877 0 01-1.875-1.875v-3.75a.75.75 0 00-1.5 0v3.938h-.01A1.877 1.877 0 016.375 15 1.877 1.877 0 014.5 13.125v-3.75a.75.75 0 00-1.5 0v1.688a.563.563 0 01-1.125 0V9.187h.01A1.877 1.877 0 013.75 7.5c1.034 0 1.875.841 1.875 1.875v3.75a.75.75 0 001.5 0v-3.75C7.125 8.341 7.966 7.5 9 7.5s1.875.841 1.875 1.875v3.75a.75.75 0 001.5 0v-3.75z"/></g></svg>