<svg xmlns="http://www.w3.org/2000/svg" width="36" height="36" viewBox="0 0 36 36"><path fill-rule="evenodd" d="M3.002 17.767C2.874 26.144 9.666 33 18.032 33c7.796 0 14.224-5.952 14.962-13.542A1.328 1.328 0 0031.672 18c-.686 0-1.253.523-1.32 1.205-.64 6.57-6.46 11.65-13.322 11.108-5.9-.465-10.699-5.127-11.309-11C5 12.37 10.079 6.424 16.706 5.716V8.61c-4.72.677-8.305 4.91-7.932 9.882.341 4.53 4.006 8.186 8.545 8.526a9.294 9.294 0 009.874-7.723c.131-.796-.505-1.515-1.314-1.515h-.001c-.647 0-1.199.466-1.306 1.103a6.639 6.639 0 01-6.966 5.502c-3.3-.207-5.985-2.887-6.192-6.179-.214-3.381 2.135-6.268 5.292-6.91v3.212a3.53 3.53 0 00-2.211 3.272c0 1.95 1.583 3.53 3.537 3.53a3.533 3.533 0 003.537-3.53 3.53 3.53 0 00-2.21-3.272V3.882A.883.883 0 0018.473 3h-.214C10.011 3 3.128 9.536 3.002 17.767zm22.546-3.517a3.533 3.533 0 003.537-3.53 3.533 3.533 0 00-3.537-3.529 3.533 3.533 0 00-3.537 3.53 3.533 3.533 0 003.537 3.529z" clip-rule="evenodd"/></svg>