<svg xmlns="http://www.w3.org/2000/svg" width="18" height="18" viewBox="0 0 18 18"><path d="M5.973 4.324l.004.005L7.189 6.12l4.29.001c.135 0 .262.033.374.092a.825.825 0 01.565.585V6.8l1.054 4.068a.84.84 0 01-.575 1.023.807.807 0 01-.992-.585l-.001-.003-.214-.822-1.028 5.323a.833.833 0 01-.813.695H8.786a.833.833 0 01-.812-.69L6.439 7.94 4.647 5.293a.856.856 0 01.2-1.168.795.795 0 011.126.199zM9.116 1.5c1.01 0 1.827.846 1.827 1.89 0 1.043-.818 1.89-1.827 1.89S7.29 4.432 7.29 3.39c0-1.044.818-1.89 1.827-1.89z"/></svg>