<svg xmlns="http://www.w3.org/2000/svg" width="12" height="12" viewBox="0 0 12 12"><path d="M3.982 2.607a.22.22 0 01.003.003l.808 1.194 2.86.001c.09 0 .174.022.25.061a.55.55 0 01.376.39v.002l.703 2.712a.56.56 0 01-.384.682.538.538 0 01-.662-.39V7.26l-.143-.548-.685 3.825a.555.555 0 01-.542.463h-.709a.555.555 0 01-.541-.46L4.292 5.018 3.098 3.253a.57.57 0 01.134-.779.53.53 0 01.75.133zM6.078 1c.672 0 1.218.564 1.218 1.26 0 .696-.546 1.26-1.218 1.26-.673 0-1.218-.564-1.218-1.26 0-.696.545-1.26 1.218-1.26z"/></svg>