<svg xmlns="http://www.w3.org/2000/svg" width="13" height="12" viewBox="0 0 13 12"><path d="M4.482 2.883l.003.003.808 1.194h2.86c.09 0 .174.023.25.062a.55.55 0 01.376.39v.002l.703 2.712a.56.56 0 01-.384.682.538.538 0 01-.662-.39v-.002l-.143-.548-.685 3.549a.555.555 0 01-.542.463h-.709a.555.555 0 01-.541-.46L4.792 5.294 3.598 3.529a.57.57 0 01.134-.779.53.53 0 01.75.133zM6.578 1c.672 0 1.218.564 1.218 1.26 0 .696-.546 1.26-1.218 1.26-.673 0-1.218-.564-1.218-1.26 0-.696.545-1.26 1.218-1.26z"/></svg>