<svg xmlns="http://www.w3.org/2000/svg" width="18" height="18" viewBox="0 0 18 18"><path d="M5.973 3.91l.004.006 1.212 1.79 4.29.002c.135 0 .262.032.374.09a.825.825 0 01.565.586v.003l1.054 4.068a.84.84 0 01-.575 1.023.807.807 0 01-.992-.585l-.001-.003-.214-.822-1.028 5.737a.833.833 0 01-.813.695H8.786a.833.833 0 01-.812-.69L6.439 7.527 4.647 4.879a.856.856 0 01.2-1.168.795.795 0 011.126.2zM9.116 1.5c1.01 0 1.827.846 1.827 1.89 0 1.043-.818 1.89-1.827 1.89S7.29 4.432 7.29 3.39c0-1.044.818-1.89 1.827-1.89z"/></svg>