<svg xmlns="http://www.w3.org/2000/svg" width="18" height="18" viewBox="0 0 18 18"><path d="M15.75 5.25v9c0 .412-.147.766-.44 1.06-.294.293-.648.44-1.06.44H3.75c-.413 0-.766-.147-1.06-.44a1.446 1.446 0 01-.44-1.06V3.75c0-.413.147-.766.44-1.06.294-.293.647-.44 1.06-.44h9l3 3zM9 13.5a2.17 2.17 0 001.594-.656 2.17 2.17 0 00.656-1.594 2.17 2.17 0 00-.656-1.594A2.17 2.17 0 009 9a2.17 2.17 0 00-1.594.656 2.17 2.17 0 00-.656 1.594c0 .625.219 1.156.656 1.594A2.17 2.17 0 009 13.5zm-4.5-6h6.75v-3H4.5v3z"/></svg>