<svg xmlns="http://www.w3.org/2000/svg" width="25" height="24" viewBox="0 0 25 24"><path d="M21.5 7v12a1.93 1.93 0 01-.587 1.413A1.928 1.928 0 0119.5 21h-14a1.93 1.93 0 01-1.413-.587A1.928 1.928 0 013.5 19V5c0-.55.196-1.021.587-1.413A1.928 1.928 0 015.5 3h12l4 4zm-9 11c.833 0 1.542-.292 2.125-.875A2.893 2.893 0 0015.5 15c0-.833-.292-1.542-.875-2.125A2.893 2.893 0 0012.5 12c-.833 0-1.542.292-2.125.875A2.893 2.893 0 009.5 15c0 .833.292 1.542.875 2.125A2.893 2.893 0 0012.5 18zm-6-8h9V6h-9v4z"/></svg>