<svg xmlns="http://www.w3.org/2000/svg" width="36" height="36" viewBox="0 0 36 36"><path d="M31.5 10.5v18c0 .825-.294 1.532-.88 2.12a2.893 2.893 0 01-2.12.88h-21a2.893 2.893 0 01-2.12-.88 2.893 2.893 0 01-.88-2.12v-21c0-.825.293-1.532.88-2.12A2.893 2.893 0 017.5 4.5h18l6 6zM18 27c1.25 0 2.313-.438 3.188-1.313S22.5 23.75 22.5 22.5c0-1.25-.438-2.313-1.313-3.188S19.25 18 18 18c-1.25 0-2.313.438-3.188 1.313-.874.875-1.312 1.937-1.312 3.187 0 1.25.438 2.313 1.313 3.188C15.687 26.563 16.75 27 18 27zM9 15h13.5V9H9v6z"/></svg>