<svg xmlns="http://www.w3.org/2000/svg" width="18" height="18" viewBox="0 0 18 18"><g><path fill-rule="evenodd" d="M13.457 14.518A5.984 5.984 0 019 16.5c-3.315 0-6-2.685-6-6 0-1.852.484-3.596 1.336-5.103L1.72 2.78l1.06-1.06 13.5 13.5-1.06 1.06-1.763-1.762zM8.491 9.552a9.13 9.13 0 01-.016.003c-1.32.27-2.107 1.125-2.107 2.34 0 1.305 1.08 2.355 2.415 2.355 1.2 0 2.262-.587 2.916-1.49L8.491 9.552z" clip-rule="evenodd"/><path d="M15 10.5c0 .59-.085 1.159-.243 1.696l-2.409-2.409a10.36 10.36 0 00-.408-2.167c-.244.327-.55.615-.895.864L9.22 6.66c.909-.436 1.46-1.417 1.46-2.557 0-1.612-.555-3.6-.555-3.6C13.058 2.85 15 6.457 15 10.5z"/></g></svg>