<svg xmlns="http://www.w3.org/2000/svg" width="18" height="18" viewBox="0 0 18 18"><path fill-rule="evenodd" d="M13.5 12.06c-.57 0-1.08.225-1.47.577L6.683 9.525c.037-.173.067-.345.067-.525 0-.18-.03-.352-.067-.525l5.287-3.082A2.24 2.24 0 0013.5 6a2.247 2.247 0 002.25-2.25A2.247 2.247 0 0013.5 1.5a2.247 2.247 0 00-2.25 2.25c0 .18.03.353.068.525L6.03 7.357A2.24 2.24 0 004.5 6.75 2.247 2.247 0 002.25 9a2.247 2.247 0 002.25 2.25 2.24 2.24 0 001.53-.607l5.34 3.12c-.037.157-.06.322-.06.487 0 1.207.982 2.19 2.19 2.19 1.207 0 2.19-.983 2.19-2.19 0-1.207-.982-2.19-2.19-2.19z"/></svg>