<svg xmlns="http://www.w3.org/2000/svg" width="18" height="18" viewBox="0 0 18 18"><path fill-rule="evenodd" d="M6.78 16.155c.72.217 1.447.345 2.22.345A7.5 7.5 0 101.5 9c0 3.188 2.002 5.925 4.83 7.005-.067-.585-.135-1.552 0-2.22l.862-3.705s-.217-.435-.217-1.125c0-1.035.645-1.808 1.38-1.808.645 0 .945.473.945 1.08 0 .646-.428 1.568-.645 2.453-.127.735.39 1.38 1.14 1.38 1.335 0 2.37-1.425 2.37-3.435 0-1.8-1.29-3.03-3.142-3.03-2.115 0-3.36 1.575-3.36 3.233 0 .645.21 1.297.554 1.725.068.044.068.104.046.217l-.218.818c0 .127-.082.172-.21.082-.96-.42-1.515-1.785-1.515-2.887C4.32 6.413 6 4.26 9.24 4.26c2.58 0 4.59 1.853 4.59 4.313 0 2.58-1.598 4.65-3.885 4.65-.728 0-1.44-.39-1.695-.848l-.503 1.777c-.172.646-.644 1.508-.967 2.025v-.022z"/></svg>