<svg xmlns="http://www.w3.org/2000/svg" width="13" height="12" viewBox="0 0 13 12"><path d="M6.634 1C3.935 1 2.5 2.756 2.5 4.671c0 .889.489 1.996 1.27 2.347.12.055.184.032.21-.08.024-.085.127-.495.177-.688a.18.18 0 00-.042-.174c-.26-.305-.466-.86-.466-1.381 0-1.336 1.046-2.633 2.825-2.633 1.538 0 2.615 1.015 2.615 2.467 0 1.64-.855 2.776-1.966 2.776-.615 0-1.073-.49-.927-1.097.175-.722.52-1.498.52-2.018 0-.467-.26-.854-.791-.854-.626 0-1.134.63-1.134 1.475 0 .537.187.9.187.9l-.734 3.014c-.194.803.027 2.104.046 2.216.011.061.08.08.118.03.06-.081.81-1.166 1.019-1.95l.39-1.443c.206.378.8.695 1.435.695C9.137 8.273 10.5 6.59 10.5 4.5 10.493 2.498 8.806 1 6.634 1z"/></svg>