<svg xmlns="http://www.w3.org/2000/svg" width="18" height="18" viewBox="0 0 18 18"><path fill-rule="evenodd" d="M17.25 4.5a6.47 6.47 0 01-1.852.518 3.226 3.226 0 001.415-1.785 6.52 6.52 0 01-2.047.787C14.17 3.375 13.336 3 12.386 3a3.22 3.22 0 00-3.131 3.952 9.192 9.192 0 01-6.656-3.36 3.174 3.174 0 00-.436 1.613c0 1.117.564 2.107 1.438 2.67-.535 0-1.032-.15-1.469-.375v.022a3.223 3.223 0 002.59 3.158 3.19 3.19 0 01-1.453.053 3.22 3.22 0 003.012 2.234 6.431 6.431 0 01-4.013 1.38c-.256 0-.512-.014-.768-.044a9.169 9.169 0 004.954 1.447c5.932 0 9.192-4.905 9.192-9.157 0-.143 0-.278-.007-.42A6.44 6.44 0 0017.25 4.5z"/></svg>