<svg xmlns="http://www.w3.org/2000/svg" width="36" height="36" viewBox="0 0 36 36"><path d="M27 33c-1.25 0-2.313-.438-3.188-1.313S22.5 29.75 22.5 28.5c0-.175.012-.357.038-.544.024-.188.062-.356.112-.506L12.075 21.3c-.425.375-.9.668-1.425.88A4.348 4.348 0 019 22.5c-1.25 0-2.313-.438-3.188-1.313S4.5 19.25 4.5 18c0-1.25.438-2.313 1.313-3.188C6.688 13.938 7.75 13.5 9 13.5c.575 0 1.125.106 1.65.318.525.213 1 .507 1.425.882L22.65 8.55a2.756 2.756 0 01-.112-.506A4.132 4.132 0 0122.5 7.5c0-1.25.438-2.313 1.313-3.188S25.75 3 27 3c1.25 0 2.313.438 3.188 1.313S31.5 6.25 31.5 7.5c0 1.25-.438 2.313-1.313 3.188C29.313 11.562 28.25 12 27 12a4.348 4.348 0 01-1.65-.32c-.525-.211-1-.505-1.425-.88L13.35 16.95c.05.15.088.319.113.506a4.098 4.098 0 010 1.087 2.755 2.755 0 01-.113.507l10.575 6.15c.425-.375.9-.669 1.425-.882A4.366 4.366 0 0127 24c1.25 0 2.313.438 3.188 1.313S31.5 27.25 31.5 28.5c0 1.25-.438 2.313-1.313 3.188S28.25 33 27 33z"/></svg>