<svg xmlns="http://www.w3.org/2000/svg" width="36" height="36" viewBox="0 0 36 36"><path fill-rule="evenodd" d="M20.984 9.541L14.31 26.212c-.03.12-1.408 3.788-6.045 3.788-.846 0-1.53-.668-1.53-1.491 0-.835.688-1.491 1.53-1.491 2.387 0 3.106-1.67 3.183-1.85l.566-1.505L6.108 9.556c-.306-.76.06-1.64.841-1.939.78-.313 1.684.045 2.005.82l4.699 11.23 4.484-11.214c.306-.776 1.194-1.149 2.02-.85a1.47 1.47 0 01.827 1.938zm7.59.671c-.275 0-.566.104-.765.283 0 0-6.428 4.46-6.121 4.936.29.477 7.392-2.758 7.407-2.803.474-.15.826-.612.826-1.148 0-.701-.581-1.268-1.346-1.268zm1.18 15.598c-.154-.254-.414-.448-.674-.567 0 0-7.132-3.236-7.392-2.758-.291.492 6.121 4.935 6.121 4.935.383.328.965.388 1.439.12a1.256 1.256 0 00.505-1.73zm2.6-8.082a1.367 1.367 0 00-.871-.15s-7.821.79-7.806 1.343c.015.551 7.82 1.163 7.836 1.163.52.074 1.056-.15 1.332-.627.321-.611.137-1.386-.49-1.73z" clip-rule="evenodd"/></svg>