<svg xmlns="http://www.w3.org/2000/svg" width="36" height="36" viewBox="0 0 36 36"><path fill-rule="evenodd" d="M18 3C9.716 3 3 9.716 3 18c0 6.63 4.305 12.255 10.26 14.25.75.12.99-.345.99-.75v-2.535c-4.155.9-5.04-2.01-5.04-2.01-.69-1.74-1.665-2.205-1.665-2.205-1.365-.93.105-.9.105-.9 1.5.105 2.295 1.545 2.295 1.545 1.305 2.28 3.51 1.605 4.365 1.245.135-.975.525-1.635.945-2.01-3.33-.375-6.825-1.665-6.825-7.38 0-1.665.57-3 1.545-4.065-.15-.375-.675-1.935.15-3.96 0 0 1.26-.405 4.125 1.53A14.133 14.133 0 0118 10.26c1.275 0 2.565.165 3.75.495 2.865-1.935 4.125-1.53 4.125-1.53.825 2.025.3 3.585.15 3.96.975 1.065 1.545 2.4 1.545 4.065 0 5.73-3.51 6.99-6.855 7.365.54.465 1.035 1.38 1.035 2.775v4.11c0 .405.24.885 1.005.75C28.71 30.24 33 24.63 33 18A15 15 0 0018 3z" clip-rule="evenodd"/></svg>