<svg xmlns="http://www.w3.org/2000/svg" width="36" height="36" viewBox="0 0 36 36"><path fill-rule="evenodd" d="M26.914 29.035A11.969 11.969 0 0118 33c-6.63 0-12-5.37-12-12 0-3.704.969-7.192 2.672-10.207L3.44 5.561l2.122-2.122 27 27-2.122 2.121-3.525-3.525zm-9.932-9.932l-.032.007c-2.64.54-4.215 2.25-4.215 4.68 0 2.61 2.16 4.71 4.83 4.71 2.4 0 4.525-1.175 5.834-2.98l-6.417-6.417z" clip-rule="evenodd"/><path d="M30 21c0 1.178-.17 2.317-.486 3.393l-4.818-4.819a20.72 20.72 0 00-.816-4.334 8.144 8.144 0 01-1.79 1.728l-3.65-3.65c1.818-.872 2.92-2.833 2.92-5.113 0-3.225-1.11-7.2-1.11-7.2C26.115 5.7 30 12.915 30 21z"/></svg>