<svg xmlns="http://www.w3.org/2000/svg" width="18" height="18" viewBox="0 0 18 18"><path fill-rule="evenodd" d="M10.492 4.77l-3.337 8.336C7.14 13.166 6.451 15 4.133 15a.756.756 0 01-.765-.746c0-.417.344-.745.765-.745 1.194 0 1.553-.835 1.591-.925l.284-.753-2.954-7.053a.741.741 0 01.42-.97.773.773 0 011.003.41l2.35 5.615 2.241-5.607c.154-.387.597-.574 1.01-.425.383.15.575.582.414.97zm3.795.336a.59.59 0 00-.382.142s-3.214 2.229-3.061 2.468c.145.238 3.696-1.38 3.704-1.402a.603.603 0 00.413-.574c0-.35-.291-.634-.674-.634zm.59 7.799a.768.768 0 00-.337-.283s-3.566-1.618-3.696-1.38c-.146.246 3.06 2.468 3.06 2.468a.633.633 0 00.72.06.628.628 0 00.252-.865zm1.3-4.041a.684.684 0 00-.436-.075s-3.91.395-3.902.671c.007.276 3.91.582 3.918.582a.655.655 0 00.665-.313.639.639 0 00-.245-.865z" clip-rule="evenodd"/></svg>