<svg xmlns="http://www.w3.org/2000/svg" width="18" height="18" viewBox="0 0 18 18"><path d="M13.5 16.5a2.17 2.17 0 01-1.594-.656 2.17 2.17 0 01-.656-1.594c0-.088.006-.178.019-.272.012-.094.031-.178.056-.253L6.038 10.65c-.213.188-.45.334-.713.44-.263.107-.538.16-.825.16a2.17 2.17 0 01-1.594-.656A2.17 2.17 0 012.25 9c0-.625.219-1.156.656-1.594A2.17 2.17 0 014.5 6.75c.287 0 .563.053.825.159.263.107.5.253.712.441l5.288-3.075a1.378 1.378 0 01-.056-.253 2.066 2.066 0 01-.019-.272c0-.625.219-1.156.656-1.594A2.17 2.17 0 0113.5 1.5a2.17 2.17 0 011.594.656c.437.438.656.969.656 1.594a2.17 2.17 0 01-.656 1.594A2.17 2.17 0 0113.5 6c-.287 0-.563-.053-.825-.16a2.463 2.463 0 01-.713-.44L6.676 8.475c.025.075.044.16.056.253a2.066 2.066 0 010 .543 1.377 1.377 0 01-.056.254l5.288 3.075c.212-.188.45-.335.712-.441.262-.106.537-.159.825-.159a2.17 2.17 0 011.594.656c.437.438.656.969.656 1.594a2.17 2.17 0 01-.656 1.594 2.17 2.17 0 01-1.594.656z"/></svg>