<svg xmlns="http://www.w3.org/2000/svg" width="13" height="12" viewBox="0 0 13 12"><path fill-rule="evenodd" d="M5.5 7.5L8.095 6 5.5 4.5v3zm5.78-3.915c.065.235.11.55.14.95.035.4.05.745.05 1.045l.03.42c0 1.095-.08 1.9-.22 2.415-.125.45-.415.74-.865.865-.235.065-.665.11-1.325.14-.65.035-1.245.05-1.795.05L6.5 9.5c-2.095 0-3.4-.08-3.915-.22a1.171 1.171 0 01-.865-.865 5.17 5.17 0 01-.14-.95c-.035-.4-.05-.745-.05-1.045L1.5 6c0-1.095.08-1.9.22-2.415.125-.45.415-.74.865-.865.235-.065.665-.11 1.325-.14.65-.035 1.245-.05 1.795-.05L6.5 2.5c2.095 0 3.4.08 3.915.22.45.125.74.415.865.865z" clip-rule="evenodd"/></svg>