<svg xmlns="http://www.w3.org/2000/svg" width="36" height="36" viewBox="0 0 36 36"><path fill-rule="evenodd" d="M11.7 3h12.6c4.8 0 8.7 3.9 8.7 8.7v12.6a8.7 8.7 0 01-8.7 8.7H11.7C6.9 33 3 29.1 3 24.3V11.7A8.7 8.7 0 0111.7 3zm-.3 3A5.4 5.4 0 006 11.4v13.2c0 2.985 2.415 5.4 5.4 5.4h13.2a5.4 5.4 0 005.4-5.4V11.4C30 8.415 27.585 6 24.6 6H11.4zm14.475 2.25a1.875 1.875 0 110 3.75 1.875 1.875 0 010-3.75zM18 10.5a7.5 7.5 0 110 15 7.5 7.5 0 010-15zm0 3a4.5 4.5 0 100 9 4.5 4.5 0 000-9z" clip-rule="evenodd"/></svg>