<svg xmlns="http://www.w3.org/2000/svg" width="25" height="24" viewBox="0 0 25 24"><path fill-rule="evenodd" d="M8.72 3h7.56c2.88 0 5.22 2.34 5.22 5.22v7.56A5.22 5.22 0 0116.28 21H8.72c-2.88 0-5.22-2.34-5.22-5.22V8.22A5.22 5.22 0 018.72 3zm-.18 1.8A3.24 3.24 0 005.3 8.04v7.92a3.238 3.238 0 003.24 3.24h7.92a3.24 3.24 0 003.24-3.24V8.04a3.238 3.238 0 00-3.24-3.24H8.54zm8.685 1.35a1.125 1.125 0 110 2.25 1.125 1.125 0 010-2.25zM12.5 7.5a4.5 4.5 0 110 9 4.5 4.5 0 010-9zm0 1.8a2.7 2.7 0 100 5.4 2.7 2.7 0 000-5.4z" clip-rule="evenodd"/></svg>