<svg xmlns="http://www.w3.org/2000/svg" width="13" height="12" viewBox="0 0 13 12"><path fill-rule="evenodd" d="M6.5 1a5 5 0 00-5 5 5.014 5.014 0 003.42 4.75c.25.04.33-.115.33-.25v-.845c-1.385.3-1.68-.67-1.68-.67-.23-.58-.555-.735-.555-.735-.455-.31.035-.3.035-.3.5.035.765.515.765.515.435.76 1.17.535 1.455.415.045-.325.175-.545.315-.67-1.11-.125-2.275-.555-2.275-2.46 0-.555.19-1 .515-1.355-.05-.125-.225-.645.05-1.32 0 0 .42-.135 1.375.51.395-.11.825-.165 1.25-.165.425 0 .855.055 1.25.165.955-.645 1.375-.51 1.375-.51.275.675.1 1.195.05 1.32.325.355.515.8.515 1.355 0 1.91-1.17 2.33-2.285 2.455.18.155.345.46.345.925v1.37c0 .135.08.295.335.25A5.014 5.014 0 0011.5 6a5 5 0 00-5-5z" clip-rule="evenodd"/></svg>