<svg xmlns="http://www.w3.org/2000/svg" width="36" height="36" viewBox="0 0 36 36"><path fill-rule="evenodd" d="M24 16.5c2.49 0 4.485-2.01 4.485-4.5S26.49 7.5 24 7.5s-4.5 2.01-4.5 4.5 2.01 4.5 4.5 4.5zm-12 0c2.49 0 4.485-2.01 4.485-4.5S14.49 7.5 12 7.5 7.5 9.51 7.5 12s2.01 4.5 4.5 4.5zm0 3c-3.495 0-10.5 1.755-10.5 5.25v3.75h21v-3.75c0-3.495-7.005-5.25-10.5-5.25zm12 0c-.435 0-.93.03-1.455.075 1.74 1.26 2.955 2.955 2.955 5.175v3.75h9v-3.75c0-3.495-7.005-5.25-10.5-5.25z" clip-rule="evenodd"/></svg>