<svg xmlns="http://www.w3.org/2000/svg" width="24" height="24" viewBox="0 0 24 24"><path fill-rule="evenodd" d="M3.707 2.293l18 18-1.414 1.414-2.35-2.35A7.98 7.98 0 0112 22c-4.42 0-8-3.58-8-8 0-2.47.646-4.794 1.781-6.804L2.293 3.707l1.414-1.414zM11.3 12.74c-1.76.36-2.81 1.5-2.81 3.12 0 1.74 1.44 3.14 3.22 3.14 1.6 0 3.017-.783 3.89-1.987l-4.28-4.277-.02.004zM13.5.67C17.41 3.8 20 8.61 20 14c0 .785-.113 1.544-.324 2.261l-3.212-3.215a13.812 13.812 0 00-.544-2.886 5.43 5.43 0 01-1.194 1.152l-2.433-2.434c1.212-.581 1.947-1.888 1.947-3.408 0-2.15-.74-4.8-.74-4.8z"/></svg>