<svg xmlns="http://www.w3.org/2000/svg" width="36" height="36" viewBox="0 0 36 36"><path fill-rule="evenodd" d="M15 22.5l7.785-4.5L15 13.5v9zm17.34-11.745c.195.705.33 1.65.42 2.85.105 1.2.15 2.235.15 3.135L33 18c0 3.285-.24 5.7-.66 7.245-.375 1.35-1.245 2.22-2.595 2.595-.705.195-1.995.33-3.975.42-1.95.105-3.735.15-5.385.15L18 28.5c-6.285 0-10.2-.24-11.745-.66-1.35-.375-2.22-1.245-2.595-2.595-.195-.705-.33-1.65-.42-2.85a36.09 36.09 0 01-.15-3.135L3 18c0-3.285.24-5.7.66-7.245.375-1.35 1.245-2.22 2.595-2.595.705-.195 1.995-.33 3.975-.42 1.95-.105 3.735-.15 5.385-.15L18 7.5c6.285 0 10.2.24 11.745.66 1.35.375 2.22 1.245 2.595 2.595z" clip-rule="evenodd"/></svg>