<svg xmlns="http://www.w3.org/2000/svg" width="18" height="18" viewBox="0 0 18 18"><path fill-rule="evenodd" d="M5.85 1.5h6.3c2.4 0 4.35 1.95 4.35 4.35v6.3a4.35 4.35 0 01-4.35 4.35h-6.3c-2.4 0-4.35-1.95-4.35-4.35v-6.3A4.35 4.35 0 015.85 1.5zM5.7 3A2.7 2.7 0 003 5.7v6.6C3 13.792 4.207 15 5.7 15h6.6a2.7 2.7 0 002.7-2.7V5.7C15 4.207 13.793 3 12.3 3H5.7zm7.237 1.125a.937.937 0 110 1.875.937.937 0 010-1.875zM9 5.25a3.75 3.75 0 110 7.5 3.75 3.75 0 010-7.5zm0 1.5a2.25 2.25 0 100 4.5 2.25 2.25 0 000-4.5z" clip-rule="evenodd"/></svg>