<svg xmlns="http://www.w3.org/2000/svg" width="25" height="24" viewBox="0 0 25 24"><path d="M18.5 22a2.893 2.893 0 01-2.125-.875A2.893 2.893 0 0115.5 19c0-.117.008-.238.025-.363s.042-.237.075-.337l-7.05-4.1c-.283.25-.6.446-.95.587A2.9 2.9 0 016.5 15a2.893 2.893 0 01-2.125-.875A2.893 2.893 0 013.5 12c0-.833.292-1.542.875-2.125A2.893 2.893 0 016.5 9c.383 0 .75.07 1.1.212.35.142.667.338.95.588l7.05-4.1a1.843 1.843 0 01-.075-.337A2.749 2.749 0 0115.5 5c0-.833.292-1.542.875-2.125A2.893 2.893 0 0118.5 2c.833 0 1.542.292 2.125.875S21.5 4.167 21.5 5s-.292 1.542-.875 2.125A2.893 2.893 0 0118.5 8a2.9 2.9 0 01-1.1-.213 3.284 3.284 0 01-.95-.587L9.4 11.3c.033.1.058.212.075.337a2.753 2.753 0 010 .725 1.838 1.838 0 01-.075.338l7.05 4.1c.283-.25.6-.446.95-.588.35-.141.717-.212 1.1-.212.833 0 1.542.292 2.125.875S21.5 18.167 21.5 19s-.292 1.542-.875 2.125A2.893 2.893 0 0118.5 22z"/></svg>