<svg xmlns="http://www.w3.org/2000/svg" width="13" height="12" viewBox="0 0 13 12"><path d="M9.5 11c-.417 0-.77-.146-1.063-.438A1.447 1.447 0 018.05 9.15L4.525 7.1c-.142.125-.3.223-.475.294a1.45 1.45 0 01-.55.106c-.417 0-.77-.146-1.063-.438A1.447 1.447 0 012 6c0-.417.146-.77.438-1.063A1.447 1.447 0 013.5 4.5c.192 0 .375.035.55.106.175.071.333.169.475.294L8.05 2.85a.918.918 0 01-.038-.168 1.447 1.447 0 01.425-1.244A1.447 1.447 0 019.5 1c.417 0 .77.146 1.063.438.291.291.437.645.437 1.062 0 .417-.146.77-.438 1.063A1.447 1.447 0 019.5 4a1.45 1.45 0 01-.55-.107 1.642 1.642 0 01-.475-.293L4.95 5.65a.8.8 0 01.037.168 1.378 1.378 0 010 .363.918.918 0 01-.037.169L8.475 8.4c.142-.125.3-.223.475-.294.175-.07.358-.106.55-.106.417 0 .77.146 1.063.438.291.291.437.645.437 1.062 0 .417-.146.77-.438 1.063A1.446 1.446 0 019.5 11z"/></svg>