<svg xmlns="http://www.w3.org/2000/svg" width="25" height="24" viewBox="0 0 25 24"><path fill-rule="evenodd" d="M14.49 6.36l-4.45 11.115c-.02.08-.938 2.525-4.03 2.525-.563 0-1.02-.445-1.02-.994 0-.557.46-.994 1.02-.994 1.592 0 2.072-1.114 2.123-1.233l.377-1.004-3.938-9.404a.988.988 0 01.56-1.293 1.03 1.03 0 011.338.547l3.132 7.486 2.99-7.476c.203-.517.795-.765 1.346-.567a.98.98 0 01.551 1.293zm5.06.448a.785.785 0 00-.51.189s-4.286 2.972-4.082 3.29c.194.319 4.928-1.839 4.939-1.868.316-.1.55-.408.55-.766 0-.467-.387-.845-.897-.845zm.785 10.398a1.024 1.024 0 00-.449-.377s-4.754-2.158-4.928-1.84c-.194.329 4.082 3.291 4.082 3.291a.844.844 0 00.959.08.838.838 0 00.336-1.154zm1.735-5.388c-.184-.099-.378-.129-.582-.099 0 0-5.213.527-5.203.895.01.367 5.213.775 5.224.775.347.05.704-.1.887-.417.215-.408.092-.925-.326-1.154z" clip-rule="evenodd"/></svg>