<svg xmlns="http://www.w3.org/2000/svg" width="18" height="18" viewBox="0 0 18 18"><path fill-rule="evenodd" d="M15.6 5.805c.098-.315 0-.555-.465-.555H13.62c-.39 0-.563.202-.66.428 0 0-.773 1.882-1.868 3.112-.36.353-.517.465-.712.465-.098 0-.255-.113-.255-.435V5.805c0-.382-.09-.555-.412-.555H7.32c-.24 0-.383.18-.383.353 0 .36.563.45.6 1.477v2.235c0 .495-.09.585-.277.585-.51 0-1.77-1.898-2.513-4.058-.15-.42-.292-.592-.682-.592H2.542c-.427 0-.517.202-.517.428 0 .404.518 2.4 2.4 5.04C5.678 12.524 7.447 13.5 9.06 13.5c.967 0 1.088-.217 1.088-.592v-1.365c0-.428.09-.518.397-.518.225 0 .607.112 1.508.975 1.034 1.035 1.2 1.5 1.784 1.5h1.515c.435 0 .653-.217.533-.645-.135-.428-.63-1.05-1.283-1.785-.352-.412-.885-.863-1.05-1.095-.224-.285-.157-.412 0-.675 0 0 1.853-2.603 2.048-3.495z"/></svg>