<svg xmlns="http://www.w3.org/2000/svg" width="24" height="24" viewBox="0 0 24 24"><path fill-rule="evenodd" d="M23 6c-.773.35-1.606.58-2.47.69a4.301 4.301 0 001.888-2.38c-.833.5-1.757.85-2.73 1.05C18.893 4.5 17.78 4 16.514 4a4.293 4.293 0 00-4.176 5.27 12.256 12.256 0 01-8.873-4.48 4.232 4.232 0 00-.583 2.15c0 1.49.753 2.81 1.918 3.56-.713 0-1.376-.2-1.958-.5v.03c0 2.08 1.486 3.82 3.453 4.21a4.252 4.252 0 01-1.937.07 4.294 4.294 0 004.015 2.98 8.575 8.575 0 01-5.35 1.84c-.341 0-.683-.02-1.024-.06A12.225 12.225 0 008.605 21c7.91 0 12.257-6.54 12.257-12.21 0-.19 0-.37-.01-.56A8.586 8.586 0 0023 6z"/></svg>