<svg xmlns="http://www.w3.org/2000/svg" width="36" height="36" viewBox="0 0 36 36"><path d="M18.402 3C10.306 3 6 8.269 6 14.014c0 2.665 1.466 5.987 3.813 7.041.356.163.55.094.63-.242.07-.255.378-1.483.527-2.062a.538.538 0 00-.125-.522c-.78-.915-1.398-2.582-1.398-4.145 0-4.007 3.137-7.898 8.475-7.898 4.615 0 7.844 3.045 7.844 7.4 0 4.923-2.564 8.328-5.897 8.328-1.844 0-3.218-1.47-2.782-3.289.526-2.166 1.558-4.495 1.558-6.056 0-1.401-.779-2.56-2.37-2.56-1.878 0-3.401 1.888-3.401 4.423 0 1.611.561 2.699.561 2.699l-2.203 9.043c-.583 2.41.08 6.312.137 6.647.035.186.24.244.354.092.183-.243 2.428-3.497 3.058-5.848.229-.857 1.169-4.332 1.169-4.332.618 1.135 2.404 2.085 4.305 2.085 5.657 0 9.745-5.05 9.745-11.316C29.98 7.495 24.917 3 18.402 3z"/></svg>