<svg xmlns="http://www.w3.org/2000/svg" width="25" height="24" viewBox="0 0 25 24"><path fill-rule="evenodd" d="M18.443 19.357A7.979 7.979 0 0112.5 22c-4.42 0-8-3.58-8-8 0-2.47.646-4.795 1.782-6.804L2.793 3.707l1.414-1.414 18 18-1.414 1.414-2.35-2.35zm-6.622-6.621l-.02.004c-1.76.36-2.81 1.5-2.81 3.12 0 1.74 1.44 3.14 3.22 3.14a4.793 4.793 0 003.888-1.987l-4.277-4.278z" clip-rule="evenodd"/><path d="M20.5 14a8.01 8.01 0 01-.324 2.262l-3.212-3.212c-.08-.99-.262-1.958-.544-2.89-.325.437-.732.82-1.194 1.152l-2.433-2.434c1.212-.58 1.947-1.888 1.947-3.408 0-2.15-.74-4.8-.74-4.8C17.91 3.8 20.5 8.61 20.5 14z"/></svg>