<svg xmlns="http://www.w3.org/2000/svg" width="18" height="18" viewBox="0 0 18 18"><g clip-path="url(#clip0_16848_31595)"><path fill-rule="evenodd" d="M5.379 4.22L8.436.725l1.129.987-1.618 1.85a6 6 0 014.764 1.191L15 2.72l.996 1.121-2.23 1.983a6 6 0 01.54 6.448l-1.326-.7a4.5 4.5 0 00-.34-4.747l-6.694 5.95A4.5 4.5 0 009.42 13.95l-1.7-1.7 1.06-1.061 3.53 3.53-3.53 3.53-1.06-1.06 1.737-1.737a5.998 5.998 0 01-4.636-1.678L2.497 15.84 1.5 14.72 3.883 12.6a6 6 0 01-.18-5.949l1.324.705a4.5 4.5 0 000 4.227l6.538-5.812a4.499 4.499 0 00-3.458-.713l1.458 1.667-1.129.987L5.379 4.22zm2.004.012l-.006-.018-.005.005.01.013z" clip-rule="evenodd"/></g><defs><clipPath id="clip0_16848_31595"><path d="M0 0h18v18H0z"/></clipPath></defs></svg>