<svg xmlns="http://www.w3.org/2000/svg" width="36" height="36" viewBox="0 0 36 36"><path fill-rule="evenodd" d="M10.758 7.548L16.872.561l2.258 1.975-3.237 3.699a12 12 0 019.528 2.383L30 4.548l1.993 2.242-4.462 3.966a12 12 0 011.081 12.896L25.96 22.25a9.001 9.001 0 00-.68-9.495L11.893 24.659a9 9 0 006.948 2.35l-3.4-3.4 2.12-2.121 7.061 7.06-7.06 7.061-2.122-2.121 3.474-3.474a12 12 0 01-9.271-3.355l-4.65 4.131L3 28.548l4.765-4.236a12 12 0 01-.36-11.898l2.648 1.409a9 9 0 00.002 8.453l13.076-11.622a9 9 0 00-6.918-1.426l2.917 3.332-2.258 1.976-6.114-6.988zm4.007.025l-.01-.036-.01.011.02.025z" clip-rule="evenodd"/></svg>