<svg xmlns="http://www.w3.org/2000/svg" width="13" height="12" viewBox="0 0 13 12"><path fill-rule="evenodd" d="M9.65 8.945c.66-1.05.35-2.445-.705-3.105a2.26 2.26 0 00-3.105.705C5.18 7.6 5.5 9 6.545 9.65a2.26 2.26 0 002.4 0l1.555 1.545.695-.695L9.65 8.945zm-1-.31c-.49.49-1.28.485-1.77 0a1.252 1.252 0 011.77-1.77c.48.495.475 1.285-.015 1.77h.015zM9.5 2h-7a1 1 0 00-1 1v6a1 1 0 001 1h2.905a3.15 3.15 0 01-.655-1H2.5V7h2.09A3.13 3.13 0 015 6H2.5V4h3v1.405c.29-.28.63-.505 1-.655V4h3v1a3.25 3.25 0 011 1V3a1 1 0 00-1-1z" clip-rule="evenodd"/></svg>