<svg xmlns="http://www.w3.org/2000/svg" width="18" height="18" viewBox="0 0 18 18"><path fill-rule="evenodd" d="M13.725 13.418c.99-1.575.525-3.668-1.057-4.658A3.39 3.39 0 008.01 9.818C7.02 11.4 7.5 13.5 9.068 14.475a3.39 3.39 0 003.6 0L15 16.793l1.043-1.043-2.318-2.332zm-1.5-.465a1.88 1.88 0 01-2.655 0 1.88 1.88 0 01.008-2.655 1.879 1.879 0 012.647 0c.72.742.713 1.927-.022 2.655h.022zM13.5 3H3a1.5 1.5 0 00-1.5 1.5v9A1.5 1.5 0 003 15h4.357a4.726 4.726 0 01-.982-1.5H3v-3h3.135c.12-.533.322-1.043.615-1.5H3V6h4.5v2.107c.435-.42.945-.757 1.5-.982V6h4.5v1.5A4.874 4.874 0 0115 9V4.5A1.5 1.5 0 0013.5 3z" clip-rule="evenodd"/></svg>