<svg xmlns="http://www.w3.org/2000/svg" width="36" height="36" viewBox="0 0 36 36"><path fill-rule="evenodd" d="M27.45 26.835c1.98-3.15 1.05-7.335-2.115-9.315-3.15-1.98-7.335-1.02-9.315 2.115C14.04 22.8 15 27 18.135 28.95a6.778 6.778 0 007.2 0L30 33.585l2.085-2.085-4.635-4.665zm-3-.93c-1.47 1.47-3.84 1.455-5.31 0a3.762 3.762 0 01.015-5.31c1.455-1.455 3.825-1.455 5.295 0a3.776 3.776 0 01-.045 5.31h.045zM27 6H6a3 3 0 00-3 3v18a3 3 0 003 3h8.715a9.451 9.451 0 01-1.965-3H6v-6h6.27a9.388 9.388 0 011.23-3H6v-6h9v4.215a9.451 9.451 0 013-1.965V12h9v3c.6.375 1.155.825 1.65 1.32.51.51.96 1.065 1.35 1.68V9a3 3 0 00-3-3z" clip-rule="evenodd"/></svg>