<svg xmlns="http://www.w3.org/2000/svg" width="24" height="24" viewBox="0 0 24 24"><path d="M4.615 4h5.77c.34 0 .615.276.615.615v5.77c0 .34-.275.615-.615.615h-5.77A.615.615 0 014 10.385v-5.77c0-.34.276-.615.615-.615zM13.615 4h5.77c.34 0 .615.276.615.615v5.77c0 .34-.276.615-.615.615h-5.77a.615.615 0 01-.615-.615v-5.77c0-.34.275-.615.615-.615zM10.385 13h-5.77a.615.615 0 00-.615.615v5.77c0 .34.276.615.615.615h5.77c.34 0 .615-.276.615-.615v-5.77a.615.615 0 00-.615-.615zM13.615 13h5.77c.34 0 .615.275.615.615v5.77c0 .34-.276.615-.615.615h-5.77a.615.615 0 01-.615-.615v-5.77c0-.34.275-.615.615-.615z"/></svg>