<svg xmlns="http://www.w3.org/2000/svg" width="36" height="36" viewBox="0 0 36 36"><path d="M6.923 6h9.154c.51 0 .923.413.923.923v9.154c0 .51-.413.923-.923.923H6.923A.923.923 0 016 16.077V6.923c0-.51.413-.923.923-.923zM19.923 6h9.154c.51 0 .923.413.923.923v9.154c0 .51-.413.923-.923.923h-9.154a.923.923 0 01-.923-.923V6.923c0-.51.413-.923.923-.923zM16.077 19H6.923a.923.923 0 00-.923.923v9.154c0 .51.413.923.923.923h9.154c.51 0 .923-.413.923-.923v-9.154a.923.923 0 00-.923-.923zM19.923 19h9.154c.51 0 .923.413.923.923v9.154c0 .51-.413.923-.923.923h-9.154a.923.923 0 01-.923-.923v-9.154c0-.51.413-.923.923-.923z"/></svg>