<svg xmlns="http://www.w3.org/2000/svg" width="18" height="18" viewBox="0 0 18 18"><path d="M3.462 2h4.076c.255 0 .462.207.462.462v4.076A.462.462 0 017.538 7H3.462A.462.462 0 013 6.538V2.462C3 2.207 3.207 2 3.462 2zM10.5 2h4.039c.254 0 .461.207.461.462v4.076a.462.462 0 01-.461.462H10.5a.462.462 0 01-.461-.462V2.462c0-.255.206-.462.461-.462zM7.538 9.038H3.462A.462.462 0 003 9.5v4.039c0 .254.207.461.462.461h4.076A.462.462 0 008 13.539V9.5a.462.462 0 00-.462-.462zM10.5 9.038h4.039c.254 0 .461.207.461.462v4.039a.461.461 0 01-.461.461H10.5a.461.461 0 01-.461-.461V9.5c0-.255.206-.462.461-.462z"/></svg>